<svg width="39" height="17" viewBox="0 0 39 17" fill="none" xmlns="http://www.w3.org/2000/svg">
<g clip-path="url(#clip0_138_4584)">
<path d="M7.13303 2.48711C6.676 3.02755 5.94475 3.45381 5.2135 3.39292C5.12209 2.66219 5.4801 1.88578 5.89905 1.40624C6.35608 0.850577 7.15588 0.454764 7.80334 0.424316C7.87952 1.1855 7.58245 1.93145 7.13303 2.48711ZM7.79573 3.53754C6.73694 3.47665 5.83049 4.13887 5.32776 4.13887C4.81741 4.13887 4.04807 3.56799 3.21018 3.58321C2.12092 3.59844 1.10784 4.21499 0.551782 5.19691C-0.590796 7.16076 0.254712 10.0685 1.3592 11.6669C1.90002 12.4586 2.54749 13.3263 3.40061 13.2959C4.20803 13.2654 4.52795 12.7707 5.50295 12.7707C6.48557 12.7707 6.76741 13.2959 7.62053 13.2806C8.50413 13.2654 9.06018 12.489 9.601 11.6974C10.218 10.7992 10.4694 9.92384 10.4846 9.87817C10.4694 9.86295 8.77834 9.21594 8.76311 7.26732C8.74788 5.6384 10.0961 4.86199 10.1571 4.81632C9.39534 3.68978 8.20706 3.56799 7.79573 3.53754ZM13.9123 1.33012V13.1969H15.7557V9.13983H18.3074C20.6383 9.13983 22.276 7.54135 22.276 5.22736C22.276 2.91337 20.6688 1.33012 18.3684 1.33012H13.9123V1.33012ZM15.7557 2.88293H17.8809C19.4805 2.88293 20.3946 3.73545 20.3946 5.23497C20.3946 6.7345 19.4805 7.59463 17.8733 7.59463H15.7557V2.88293V2.88293ZM25.6428 13.2883C26.8006 13.2883 27.8746 12.7021 28.3621 11.7735H28.4002V13.1969H30.1065V7.29016C30.1065 5.5775 28.7354 4.47379 26.6254 4.47379C24.6678 4.47379 23.2205 5.59273 23.1672 7.13031H24.8278C24.9649 6.39958 25.6428 5.92003 26.5721 5.92003C27.6994 5.92003 28.3317 6.44525 28.3317 7.41195V8.06656L26.0313 8.20357C23.8908 8.33297 22.733 9.20833 22.733 10.7307C22.733 12.2683 23.9289 13.2883 25.6428 13.2883ZM26.1379 11.8801C25.1553 11.8801 24.5307 11.4081 24.5307 10.685C24.5307 9.93906 25.1324 9.50519 26.2826 9.43669L28.3317 9.30729V9.97712C28.3317 11.0884 27.3871 11.8801 26.1379 11.8801ZM32.384 16.4243C34.1817 16.4243 35.0272 15.7393 35.766 13.6612L39.0033 4.58797H37.1295L34.9586 11.5984H34.9205L32.7496 4.58797H30.8225L33.9455 13.2274L33.778 13.7526C33.4961 14.6432 33.0391 14.9857 32.224 14.9857C32.0793 14.9857 31.7975 14.9705 31.6832 14.9552V16.3786C31.7899 16.4091 32.2469 16.4243 32.384 16.4243Z" fill="#0A1330"/>
</g>
<defs>
<clipPath id="clip0_138_4584">
<rect width="39" height="16" fill="white" transform="translate(0 0.424316)"/>
</clipPath>
</defs>
</svg>
