<svg width="190" height="80" viewBox="0 0 190 80" fill="none" xmlns="http://www.w3.org/2000/svg">
<path d="M6.852 13.112C6.10533 13.112 5.41467 12.9907 4.78 12.748C4.15467 12.496 3.60867 12.146 3.142 11.698C2.68467 11.2407 2.32533 10.7087 2.064 10.102C1.80267 9.49533 1.672 8.828 1.672 8.1C1.672 7.372 1.80267 6.70467 2.064 6.098C2.32533 5.49133 2.68933 4.964 3.156 4.516C3.62267 4.05867 4.16867 3.70867 4.794 3.466C5.42867 3.214 6.11933 3.088 6.866 3.088C7.622 3.088 8.31733 3.21867 8.952 3.48C9.596 3.732 10.142 4.11 10.59 4.614L9.68 5.496C9.30667 5.104 8.88667 4.81467 8.42 4.628C7.95333 4.432 7.454 4.334 6.922 4.334C6.37133 4.334 5.858 4.42733 5.382 4.614C4.91533 4.80067 4.50933 5.062 4.164 5.398C3.81867 5.734 3.548 6.13533 3.352 6.602C3.16533 7.05933 3.072 7.55867 3.072 8.1C3.072 8.64133 3.16533 9.14533 3.352 9.612C3.548 10.0693 3.81867 10.466 4.164 10.802C4.50933 11.138 4.91533 11.3993 5.382 11.586C5.858 11.7727 6.37133 11.866 6.922 11.866C7.454 11.866 7.95333 11.7727 8.42 11.586C8.88667 11.39 9.30667 11.0913 9.68 10.69L10.59 11.572C10.142 12.076 9.596 12.4587 8.952 12.72C8.31733 12.9813 7.61733 13.112 6.852 13.112ZM14.9392 13.084C14.1925 13.084 13.6139 12.8833 13.2032 12.482C12.7925 12.0807 12.5872 11.5067 12.5872 10.76V3.956H13.9312V10.704C13.9312 11.1053 14.0292 11.4133 14.2252 11.628C14.4305 11.8427 14.7199 11.95 15.0932 11.95C15.5132 11.95 15.8632 11.8333 16.1432 11.6L16.5632 12.566C16.3579 12.7433 16.1105 12.874 15.8212 12.958C15.5412 13.042 15.2472 13.084 14.9392 13.084ZM11.3272 6.686V5.58H16.0592V6.686H11.3272ZM22.1501 5.51C22.7567 5.51 23.2887 5.62667 23.7461 5.86C24.2127 6.09333 24.5767 6.448 24.8381 6.924C25.0994 7.4 25.2301 8.002 25.2301 8.73V13H23.8861V8.884C23.8861 8.16533 23.7087 7.624 23.3541 7.26C23.0087 6.896 22.5187 6.714 21.8841 6.714C21.4081 6.714 20.9927 6.80733 20.6381 6.994C20.2834 7.18067 20.0081 7.456 19.8121 7.82C19.6254 8.184 19.5321 8.63667 19.5321 9.178V13H18.1881V2.612H19.5321V7.582L19.2661 7.05C19.5087 6.56467 19.8821 6.18667 20.3861 5.916C20.8901 5.64533 21.4781 5.51 22.1501 5.51ZM27.7174 13V5.58H29.0054V7.596L28.8794 7.092C29.0847 6.57867 29.43 6.18667 29.9154 5.916C30.4007 5.64533 30.998 5.51 31.7074 5.51V6.812C31.6514 6.80267 31.5954 6.798 31.5394 6.798C31.4927 6.798 31.446 6.798 31.3994 6.798C30.6807 6.798 30.1114 7.01267 29.6914 7.442C29.2714 7.87133 29.0614 8.492 29.0614 9.304V13H27.7174ZM35.5739 13.084C34.9579 13.084 34.3699 13 33.8099 12.832C33.2592 12.664 32.8252 12.4587 32.5079 12.216L33.0679 11.152C33.3852 11.3667 33.7772 11.5487 34.2439 11.698C34.7105 11.8473 35.1865 11.922 35.6719 11.922C36.2972 11.922 36.7452 11.8333 37.0159 11.656C37.2959 11.4787 37.4359 11.2313 37.4359 10.914C37.4359 10.6807 37.3519 10.4987 37.1839 10.368C37.0159 10.2373 36.7919 10.1393 36.5119 10.074C36.2412 10.0087 35.9379 9.95267 35.6019 9.906C35.2659 9.85 34.9299 9.78467 34.5939 9.71C34.2579 9.626 33.9499 9.514 33.6699 9.374C33.3899 9.22467 33.1659 9.024 32.9979 8.772C32.8299 8.51067 32.7459 8.16533 32.7459 7.736C32.7459 7.288 32.8719 6.896 33.1239 6.56C33.3759 6.224 33.7305 5.96733 34.1879 5.79C34.6545 5.60333 35.2052 5.51 35.8399 5.51C36.3252 5.51 36.8152 5.57067 37.3099 5.692C37.8139 5.804 38.2245 5.96733 38.5419 6.182L37.9679 7.246C37.6319 7.022 37.2819 6.868 36.9179 6.784C36.5539 6.7 36.1899 6.658 35.8259 6.658C35.2379 6.658 34.7992 6.756 34.5099 6.952C34.2205 7.13867 34.0759 7.38133 34.0759 7.68C34.0759 7.932 34.1599 8.128 34.3279 8.268C34.5052 8.39867 34.7292 8.50133 34.9999 8.576C35.2799 8.65067 35.5879 8.716 35.9239 8.772C36.2599 8.81867 36.5959 8.884 36.9319 8.968C37.2679 9.04267 37.5712 9.15 37.8419 9.29C38.1219 9.43 38.3459 9.626 38.5139 9.878C38.6912 10.13 38.7799 10.466 38.7799 10.886C38.7799 11.334 38.6492 11.7213 38.3879 12.048C38.1265 12.3747 37.7579 12.6313 37.2819 12.818C36.8059 12.9953 36.2365 13.084 35.5739 13.084ZM40.4595 13V5.58H41.8035V13H40.4595ZM41.1315 4.152C40.8702 4.152 40.6509 4.068 40.4735 3.9C40.3055 3.732 40.2215 3.52667 40.2215 3.284C40.2215 3.032 40.3055 2.822 40.4735 2.654C40.6509 2.486 40.8702 2.402 41.1315 2.402C41.3929 2.402 41.6075 2.486 41.7755 2.654C41.9529 2.81267 42.0415 3.01333 42.0415 3.256C42.0415 3.508 41.9575 3.72267 41.7895 3.9C41.6215 4.068 41.4022 4.152 41.1315 4.152ZM46.4977 13.084C45.8817 13.084 45.2937 13 44.7337 12.832C44.183 12.664 43.749 12.4587 43.4317 12.216L43.9917 11.152C44.309 11.3667 44.701 11.5487 45.1677 11.698C45.6344 11.8473 46.1104 11.922 46.5957 11.922C47.221 11.922 47.669 11.8333 47.9397 11.656C48.2197 11.4787 48.3597 11.2313 48.3597 10.914C48.3597 10.6807 48.2757 10.4987 48.1077 10.368C47.9397 10.2373 47.7157 10.1393 47.4357 10.074C47.165 10.0087 46.8617 9.95267 46.5257 9.906C46.1897 9.85 45.8537 9.78467 45.5177 9.71C45.1817 9.626 44.8737 9.514 44.5937 9.374C44.3137 9.22467 44.0897 9.024 43.9217 8.772C43.7537 8.51067 43.6697 8.16533 43.6697 7.736C43.6697 7.288 43.7957 6.896 44.0477 6.56C44.2997 6.224 44.6544 5.96733 45.1117 5.79C45.5784 5.60333 46.129 5.51 46.7637 5.51C47.249 5.51 47.739 5.57067 48.2337 5.692C48.7377 5.804 49.1484 5.96733 49.4657 6.182L48.8917 7.246C48.5557 7.022 48.2057 6.868 47.8417 6.784C47.4777 6.7 47.1137 6.658 46.7497 6.658C46.1617 6.658 45.723 6.756 45.4337 6.952C45.1444 7.13867 44.9997 7.38133 44.9997 7.68C44.9997 7.932 45.0837 8.128 45.2517 8.268C45.429 8.39867 45.653 8.50133 45.9237 8.576C46.2037 8.65067 46.5117 8.716 46.8477 8.772C47.1837 8.81867 47.5197 8.884 47.8557 8.968C48.1917 9.04267 48.495 9.15 48.7657 9.29C49.0457 9.43 49.2697 9.626 49.4377 9.878C49.615 10.13 49.7037 10.466 49.7037 10.886C49.7037 11.334 49.573 11.7213 49.3117 12.048C49.0504 12.3747 48.6817 12.6313 48.2057 12.818C47.7297 12.9953 47.1604 13.084 46.4977 13.084ZM59.7631 13.112C59.0165 13.112 58.3211 12.986 57.6771 12.734C57.0425 12.482 56.4918 12.132 56.0251 11.684C55.5585 11.2267 55.1945 10.6947 54.9331 10.088C54.6718 9.48133 54.5411 8.81867 54.5411 8.1C54.5411 7.38133 54.6718 6.71867 54.9331 6.112C55.1945 5.50533 55.5585 4.978 56.0251 4.53C56.4918 4.07267 57.0425 3.718 57.6771 3.466C58.3118 3.214 59.0071 3.088 59.7631 3.088C60.5098 3.088 61.1958 3.214 61.8211 3.466C62.4558 3.70867 63.0065 4.05867 63.4731 4.516C63.9491 4.964 64.3131 5.49133 64.5651 6.098C64.8265 6.70467 64.9571 7.372 64.9571 8.1C64.9571 8.828 64.8265 9.49533 64.5651 10.102C64.3131 10.7087 63.9491 11.2407 63.4731 11.698C63.0065 12.146 62.4558 12.496 61.8211 12.748C61.1958 12.9907 60.5098 13.112 59.7631 13.112ZM59.7631 11.866C60.3045 11.866 60.8038 11.7727 61.2611 11.586C61.7278 11.3993 62.1291 11.138 62.4651 10.802C62.8105 10.4567 63.0765 10.0553 63.2631 9.598C63.4591 9.14067 63.5571 8.64133 63.5571 8.1C63.5571 7.55867 63.4591 7.05933 63.2631 6.602C63.0765 6.14467 62.8105 5.748 62.4651 5.412C62.1291 5.06667 61.7278 4.80067 61.2611 4.614C60.8038 4.42733 60.3045 4.334 59.7631 4.334C59.2125 4.334 58.7038 4.42733 58.2371 4.614C57.7798 4.80067 57.3785 5.06667 57.0331 5.412C56.6878 5.748 56.4171 6.14467 56.2211 6.602C56.0345 7.05933 55.9411 7.55867 55.9411 8.1C55.9411 8.64133 56.0345 9.14067 56.2211 9.598C56.4171 10.0553 56.6878 10.4567 57.0331 10.802C57.3785 11.138 57.7798 11.3993 58.2371 11.586C58.7038 11.7727 59.2125 11.866 59.7631 11.866ZM71.157 13.112C69.869 13.112 68.8563 12.7433 68.119 12.006C67.3816 11.2687 67.013 10.1907 67.013 8.772V3.2H68.413V8.716C68.413 9.808 68.651 10.606 69.127 11.11C69.6123 11.614 70.2936 11.866 71.171 11.866C72.0576 11.866 72.739 11.614 73.215 11.11C73.7003 10.606 73.943 9.808 73.943 8.716V3.2H75.301V8.772C75.301 10.1907 74.9323 11.2687 74.195 12.006C73.467 12.7433 72.4543 13.112 71.157 13.112ZM72.473 2.164C72.277 2.164 72.109 2.09867 71.969 1.968C71.829 1.828 71.759 1.65533 71.759 1.45C71.759 1.23533 71.829 1.06267 71.969 0.931999C72.109 0.791999 72.277 0.722 72.473 0.722C72.669 0.722 72.837 0.791999 72.977 0.931999C73.117 1.06267 73.187 1.23533 73.187 1.45C73.187 1.65533 73.117 1.828 72.977 1.968C72.837 2.09867 72.669 2.164 72.473 2.164ZM69.869 2.164C69.673 2.164 69.505 2.09867 69.365 1.968C69.225 1.828 69.155 1.65533 69.155 1.45C69.155 1.23533 69.225 1.06267 69.365 0.931999C69.505 0.791999 69.673 0.722 69.869 0.722C70.065 0.722 70.233 0.791999 70.373 0.931999C70.513 1.06267 70.583 1.23533 70.583 1.45C70.583 1.65533 70.513 1.828 70.373 1.968C70.233 2.09867 70.065 2.164 69.869 2.164ZM4.416 35V26.418H1.056V25.2H9.162V26.418H5.802V35H4.416ZM14.7003 35V33.432L14.6303 33.138V30.464C14.6303 29.8947 14.4623 29.456 14.1263 29.148C13.7996 28.8307 13.305 28.672 12.6423 28.672C12.2036 28.672 11.7743 28.7467 11.3543 28.896C10.9343 29.036 10.5796 29.2273 10.2903 29.47L9.73031 28.462C10.113 28.154 10.5703 27.9207 11.1023 27.762C11.6436 27.594 12.2083 27.51 12.7963 27.51C13.8136 27.51 14.5976 27.7573 15.1483 28.252C15.699 28.7467 15.9743 29.5027 15.9743 30.52V35H14.7003ZM12.2643 35.084C11.7136 35.084 11.2283 34.9907 10.8083 34.804C10.3976 34.6173 10.0803 34.3607 9.85631 34.034C9.63231 33.698 9.52031 33.32 9.52031 32.9C9.52031 32.4987 9.61365 32.1347 9.80031 31.808C9.99631 31.4813 10.309 31.22 10.7383 31.024C11.177 30.828 11.765 30.73 12.5023 30.73H14.8543V31.696H12.5583C11.8863 31.696 11.4336 31.808 11.2003 32.032C10.967 32.256 10.8503 32.5267 10.8503 32.844C10.8503 33.208 10.995 33.502 11.2843 33.726C11.5736 33.9407 11.975 34.048 12.4883 34.048C12.9923 34.048 13.431 33.936 13.8043 33.712C14.187 33.488 14.4623 33.1613 14.6303 32.732L14.8963 33.656C14.719 34.0947 14.4063 34.4447 13.9583 34.706C13.5103 34.958 12.9456 35.084 12.2643 35.084ZM18.4615 35V24.612H19.8055V35H18.4615ZM22.3717 35V24.612H23.7157V35H22.3717ZM26.2818 35V27.58H27.6258V35H26.2818ZM26.9538 26.152C26.6925 26.152 26.4731 26.068 26.2958 25.9C26.1278 25.732 26.0438 25.5267 26.0438 25.284C26.0438 25.032 26.1278 24.822 26.2958 24.654C26.4731 24.486 26.6925 24.402 26.9538 24.402C27.2151 24.402 27.4298 24.486 27.5978 24.654C27.7751 24.8127 27.8638 25.0133 27.8638 25.256C27.8638 25.508 27.7798 25.7227 27.6118 25.9C27.4438 26.068 27.2245 26.152 26.9538 26.152ZM34.154 27.51C34.7606 27.51 35.2926 27.6267 35.75 27.86C36.2166 28.0933 36.5806 28.448 36.842 28.924C37.1033 29.4 37.234 30.002 37.234 30.73V35H35.89V30.884C35.89 30.1653 35.7126 29.624 35.358 29.26C35.0126 28.896 34.5226 28.714 33.888 28.714C33.412 28.714 32.9966 28.8073 32.642 28.994C32.2873 29.1807 32.012 29.456 31.816 29.82C31.6293 30.184 31.536 30.6367 31.536 31.178V35H30.192V27.58H31.48V29.582L31.27 29.05C31.5126 28.5647 31.886 28.1867 32.39 27.916C32.894 27.6453 33.482 27.51 34.154 27.51ZM43.6833 27.51C44.2899 27.51 44.8219 27.6267 45.2793 27.86C45.7459 28.0933 46.1099 28.448 46.3713 28.924C46.6326 29.4 46.7633 30.002 46.7633 30.73V35H45.4193V30.884C45.4193 30.1653 45.2419 29.624 44.8873 29.26C44.5419 28.896 44.0519 28.714 43.4173 28.714C42.9413 28.714 42.5259 28.8073 42.1713 28.994C41.8166 29.1807 41.5413 29.456 41.3453 29.82C41.1586 30.184 41.0653 30.6367 41.0653 31.178V35H39.7213V27.58H41.0093V29.582L40.7993 29.05C41.0419 28.5647 41.4153 28.1867 41.9193 27.916C42.4233 27.6453 43.0113 27.51 43.6833 27.51ZM48.7186 37.072L49.4186 34.244L49.6006 35.056C49.3299 35.056 49.1012 34.972 48.9146 34.804C48.7372 34.636 48.6486 34.4073 48.6486 34.118C48.6486 33.838 48.7372 33.6093 48.9146 33.432C49.1012 33.2547 49.3252 33.166 49.5866 33.166C49.8572 33.166 50.0766 33.2593 50.2446 33.446C50.4126 33.6233 50.4966 33.8473 50.4966 34.118C50.4966 34.2113 50.4872 34.3047 50.4686 34.398C50.4592 34.482 50.4359 34.5847 50.3986 34.706C50.3706 34.818 50.3239 34.958 50.2586 35.126L49.6006 37.072H48.7186ZM57.6102 32.634L57.5402 30.926L63.0982 25.2H64.6942L60.3962 29.736L59.6122 30.604L57.6102 32.634ZM56.3782 35V25.2H57.7782V35H56.3782ZM63.3222 35L59.3042 30.324L60.2422 29.288L64.9602 35H63.3222ZM69.2206 35.084C68.4272 35.084 67.7272 34.9207 67.1206 34.594C66.5232 34.2673 66.0566 33.8193 65.7206 33.25C65.3939 32.6807 65.2306 32.0273 65.2306 31.29C65.2306 30.5527 65.3892 29.8993 65.7066 29.33C66.0332 28.7607 66.4766 28.3173 67.0366 28C67.6059 27.6733 68.2452 27.51 68.9546 27.51C69.6732 27.51 70.3079 27.6687 70.8586 27.986C71.4092 28.3033 71.8386 28.7513 72.1466 29.33C72.4639 29.8993 72.6226 30.5667 72.6226 31.332C72.6226 31.388 72.6179 31.4533 72.6086 31.528C72.6086 31.6027 72.6039 31.6727 72.5946 31.738H66.2806V30.772H71.8946L71.3486 31.108C71.3579 30.632 71.2599 30.2073 71.0546 29.834C70.8492 29.4607 70.5646 29.1713 70.2006 28.966C69.8459 28.7513 69.4306 28.644 68.9546 28.644C68.4879 28.644 68.0726 28.7513 67.7086 28.966C67.3446 29.1713 67.0599 29.4653 66.8546 29.848C66.6492 30.2213 66.5466 30.6507 66.5466 31.136V31.36C66.5466 31.8547 66.6586 32.298 66.8826 32.69C67.1159 33.0727 67.4379 33.3713 67.8486 33.586C68.2592 33.8007 68.7306 33.908 69.2626 33.908C69.7012 33.908 70.0979 33.8333 70.4526 33.684C70.8166 33.5347 71.1339 33.3107 71.4046 33.012L72.1466 33.88C71.8106 34.272 71.3906 34.5707 70.8866 34.776C70.3919 34.9813 69.8366 35.084 69.2206 35.084ZM76.6168 35.084C76.0008 35.084 75.4128 35 74.8528 34.832C74.3022 34.664 73.8682 34.4587 73.5508 34.216L74.1108 33.152C74.4282 33.3667 74.8202 33.5487 75.2868 33.698C75.7535 33.8473 76.2295 33.922 76.7148 33.922C77.3402 33.922 77.7882 33.8333 78.0588 33.656C78.3388 33.4787 78.4788 33.2313 78.4788 32.914C78.4788 32.6807 78.3948 32.4987 78.2268 32.368C78.0588 32.2373 77.8348 32.1393 77.5548 32.074C77.2842 32.0087 76.9808 31.9527 76.6448 31.906C76.3088 31.85 75.9728 31.7847 75.6368 31.71C75.3008 31.626 74.9928 31.514 74.7128 31.374C74.4328 31.2247 74.2088 31.024 74.0408 30.772C73.8728 30.5107 73.7888 30.1653 73.7888 29.736C73.7888 29.288 73.9148 28.896 74.1668 28.56C74.4188 28.224 74.7735 27.9673 75.2308 27.79C75.6975 27.6033 76.2482 27.51 76.8828 27.51C77.3682 27.51 77.8582 27.5707 78.3528 27.692C78.8568 27.804 79.2675 27.9673 79.5848 28.182L79.0108 29.246C78.6748 29.022 78.3248 28.868 77.9608 28.784C77.5968 28.7 77.2328 28.658 76.8688 28.658C76.2808 28.658 75.8422 28.756 75.5528 28.952C75.2635 29.1387 75.1188 29.3813 75.1188 29.68C75.1188 29.932 75.2028 30.128 75.3708 30.268C75.5482 30.3987 75.7722 30.5013 76.0428 30.576C76.3228 30.6507 76.6308 30.716 76.9668 30.772C77.3028 30.8187 77.6388 30.884 77.9748 30.968C78.3108 31.0427 78.6142 31.15 78.8848 31.29C79.1648 31.43 79.3888 31.626 79.5568 31.878C79.7342 32.13 79.8228 32.466 79.8228 32.886C79.8228 33.334 79.6922 33.7213 79.4308 34.048C79.1695 34.3747 78.8008 34.6313 78.3248 34.818C77.8488 34.9953 77.2795 35.084 76.6168 35.084ZM82.5945 33.208L82.6225 31.486L86.8925 27.58H88.5165L85.2405 30.8L84.5125 31.416L82.5945 33.208ZM81.5025 35V24.612H82.8465V35H81.5025ZM87.1725 35L84.2605 31.388L85.1285 30.31L88.8245 35H87.1725ZM90.1295 35V24.612H91.4735V35H90.1295ZM94.0396 35V27.58H95.3836V35H94.0396ZM94.7116 26.152C94.4503 26.152 94.231 26.068 94.0536 25.9C93.8856 25.732 93.8016 25.5267 93.8016 25.284C93.8016 25.032 93.8856 24.822 94.0536 24.654C94.231 24.486 94.4503 24.402 94.7116 24.402C94.973 24.402 95.1876 24.486 95.3556 24.654C95.533 24.8127 95.6216 25.0133 95.6216 25.256C95.6216 25.508 95.5376 25.7227 95.3696 25.9C95.2016 26.068 94.9823 26.152 94.7116 26.152ZM101.912 27.51C102.518 27.51 103.05 27.6267 103.508 27.86C103.974 28.0933 104.338 28.448 104.6 28.924C104.861 29.4 104.992 30.002 104.992 30.73V35H103.648V30.884C103.648 30.1653 103.47 29.624 103.116 29.26C102.77 28.896 102.28 28.714 101.646 28.714C101.17 28.714 100.754 28.8073 100.4 28.994C100.045 29.1807 99.7698 29.456 99.5738 29.82C99.3871 30.184 99.2938 30.6367 99.2938 31.178V35H97.9498V27.58H99.2378V29.582L99.0278 29.05C99.2704 28.5647 99.6438 28.1867 100.148 27.916C100.652 27.6453 101.24 27.51 101.912 27.51ZM111.441 27.51C112.048 27.51 112.58 27.6267 113.037 27.86C113.504 28.0933 113.868 28.448 114.129 28.924C114.39 29.4 114.521 30.002 114.521 30.73V35H113.177V30.884C113.177 30.1653 113 29.624 112.645 29.26C112.3 28.896 111.81 28.714 111.175 28.714C110.699 28.714 110.284 28.8073 109.929 28.994C109.574 29.1807 109.299 29.456 109.103 29.82C108.916 30.184 108.823 30.6367 108.823 31.178V35H107.479V27.58H108.767V29.582L108.557 29.05C108.8 28.5647 109.173 28.1867 109.677 27.916C110.181 27.6453 110.769 27.51 111.441 27.51ZM121.614 35V33.432L121.544 33.138V30.464C121.544 29.8947 121.376 29.456 121.04 29.148C120.714 28.8307 120.219 28.672 119.556 28.672C119.118 28.672 118.688 28.7467 118.268 28.896C117.848 29.036 117.494 29.2273 117.204 29.47L116.644 28.462C117.027 28.154 117.484 27.9207 118.016 27.762C118.558 27.594 119.122 27.51 119.71 27.51C120.728 27.51 121.512 27.7573 122.062 28.252C122.613 28.7467 122.888 29.5027 122.888 30.52V35H121.614ZM119.178 35.084C118.628 35.084 118.142 34.9907 117.722 34.804C117.312 34.6173 116.994 34.3607 116.77 34.034C116.546 33.698 116.434 33.32 116.434 32.9C116.434 32.4987 116.528 32.1347 116.714 31.808C116.91 31.4813 117.223 31.22 117.652 31.024C118.091 30.828 118.679 30.73 119.416 30.73H121.768V31.696H119.472C118.8 31.696 118.348 31.808 118.114 32.032C117.881 32.256 117.764 32.5267 117.764 32.844C117.764 33.208 117.909 33.502 118.198 33.726C118.488 33.9407 118.889 34.048 119.402 34.048C119.906 34.048 120.345 33.936 120.718 33.712C121.101 33.488 121.376 33.1613 121.544 32.732L121.81 33.656C121.633 34.0947 121.32 34.4447 120.872 34.706C120.424 34.958 119.86 35.084 119.178 35.084ZM129.135 35V24.612H130.479V35H129.135ZM133.045 35V27.58H134.389V35H133.045ZM133.717 26.152C133.456 26.152 133.237 26.068 133.059 25.9C132.891 25.732 132.807 25.5267 132.807 25.284C132.807 25.032 132.891 24.822 133.059 24.654C133.237 24.486 133.456 24.402 133.717 24.402C133.979 24.402 134.193 24.486 134.361 24.654C134.539 24.8127 134.627 25.0133 134.627 25.256C134.627 25.508 134.543 25.7227 134.375 25.9C134.207 26.068 133.988 26.152 133.717 26.152ZM140.918 27.51C141.524 27.51 142.056 27.6267 142.514 27.86C142.98 28.0933 143.344 28.448 143.606 28.924C143.867 29.4 143.998 30.002 143.998 30.73V35H142.654V30.884C142.654 30.1653 142.476 29.624 142.122 29.26C141.776 28.896 141.286 28.714 140.652 28.714C140.176 28.714 139.76 28.8073 139.406 28.994C139.051 29.1807 138.776 29.456 138.58 29.82C138.393 30.184 138.3 30.6367 138.3 31.178V35H136.956V27.58H138.244V29.582L138.034 29.05C138.276 28.5647 138.65 28.1867 139.154 27.916C139.658 27.6453 140.246 27.51 140.918 27.51ZM150.447 27.51C151.054 27.51 151.586 27.6267 152.043 27.86C152.51 28.0933 152.874 28.448 153.135 28.924C153.396 29.4 153.527 30.002 153.527 30.73V35H152.183V30.884C152.183 30.1653 152.006 29.624 151.651 29.26C151.306 28.896 150.816 28.714 150.181 28.714C149.705 28.714 149.29 28.8073 148.935 28.994C148.58 29.1807 148.305 29.456 148.109 29.82C147.922 30.184 147.829 30.6367 147.829 31.178V35H146.485V27.58H147.773V29.582L147.563 29.05C147.806 28.5647 148.179 28.1867 148.683 27.916C149.187 27.6453 149.775 27.51 150.447 27.51ZM160.62 35V33.432L160.55 33.138V30.464C160.55 29.8947 160.382 29.456 160.046 29.148C159.72 28.8307 159.225 28.672 158.562 28.672C158.124 28.672 157.694 28.7467 157.274 28.896C156.854 29.036 156.5 29.2273 156.21 29.47L155.65 28.462C156.033 28.154 156.49 27.9207 157.022 27.762C157.564 27.594 158.128 27.51 158.716 27.51C159.734 27.51 160.518 27.7573 161.068 28.252C161.619 28.7467 161.894 29.5027 161.894 30.52V35H160.62ZM158.184 35.084C157.634 35.084 157.148 34.9907 156.728 34.804C156.318 34.6173 156 34.3607 155.776 34.034C155.552 33.698 155.44 33.32 155.44 32.9C155.44 32.4987 155.534 32.1347 155.72 31.808C155.916 31.4813 156.229 31.22 156.658 31.024C157.097 30.828 157.685 30.73 158.422 30.73H160.774V31.696H158.478C157.806 31.696 157.354 31.808 157.12 32.032C156.887 32.256 156.77 32.5267 156.77 32.844C156.77 33.208 156.915 33.502 157.204 33.726C157.494 33.9407 157.895 34.048 158.408 34.048C158.912 34.048 159.351 33.936 159.724 33.712C160.107 33.488 160.382 33.1613 160.55 32.732L160.816 33.656C160.639 34.0947 160.326 34.4447 159.878 34.706C159.43 34.958 158.866 35.084 158.184 35.084ZM167.559 35.084C166.813 35.084 166.15 34.9207 165.571 34.594C164.993 34.2673 164.535 33.8193 164.199 33.25C163.863 32.6713 163.695 32.018 163.695 31.29C163.695 30.5527 163.863 29.8993 164.199 29.33C164.535 28.7607 164.993 28.3173 165.571 28C166.15 27.6733 166.813 27.51 167.559 27.51C168.297 27.51 168.955 27.6733 169.533 28C170.121 28.3173 170.579 28.7607 170.905 29.33C171.241 29.89 171.409 30.5433 171.409 31.29C171.409 32.0273 171.241 32.6807 170.905 33.25C170.579 33.8193 170.121 34.2673 169.533 34.594C168.955 34.9207 168.297 35.084 167.559 35.084ZM167.559 33.908C168.035 33.908 168.46 33.8007 168.833 33.586C169.216 33.3713 169.515 33.068 169.729 32.676C169.944 32.2747 170.051 31.8127 170.051 31.29C170.051 30.758 169.944 30.3007 169.729 29.918C169.515 29.526 169.216 29.2227 168.833 29.008C168.46 28.7933 168.035 28.686 167.559 28.686C167.083 28.686 166.659 28.7933 166.285 29.008C165.912 29.2227 165.613 29.526 165.389 29.918C165.165 30.3007 165.053 30.758 165.053 31.29C165.053 31.8127 165.165 32.2747 165.389 32.676C165.613 33.068 165.912 33.3713 166.285 33.586C166.659 33.8007 167.083 33.908 167.559 33.908ZM175.396 35.084C174.78 35.084 174.192 35 173.632 34.832C173.081 34.664 172.647 34.4587 172.33 34.216L172.89 33.152C173.207 33.3667 173.599 33.5487 174.066 33.698C174.533 33.8473 175.009 33.922 175.494 33.922C176.119 33.922 176.567 33.8333 176.838 33.656C177.118 33.4787 177.258 33.2313 177.258 32.914C177.258 32.6807 177.174 32.4987 177.006 32.368C176.838 32.2373 176.614 32.1393 176.334 32.074C176.063 32.0087 175.76 31.9527 175.424 31.906C175.088 31.85 174.752 31.7847 174.416 31.71C174.08 31.626 173.772 31.514 173.492 31.374C173.212 31.2247 172.988 31.024 172.82 30.772C172.652 30.5107 172.568 30.1653 172.568 29.736C172.568 29.288 172.694 28.896 172.946 28.56C173.198 28.224 173.553 27.9673 174.01 27.79C174.477 27.6033 175.027 27.51 175.662 27.51C176.147 27.51 176.637 27.5707 177.132 27.692C177.636 27.804 178.047 27.9673 178.364 28.182L177.79 29.246C177.454 29.022 177.104 28.868 176.74 28.784C176.376 28.7 176.012 28.658 175.648 28.658C175.06 28.658 174.621 28.756 174.332 28.952C174.043 29.1387 173.898 29.3813 173.898 29.68C173.898 29.932 173.982 30.128 174.15 30.268C174.327 30.3987 174.551 30.5013 174.822 30.576C175.102 30.6507 175.41 30.716 175.746 30.772C176.082 30.8187 176.418 30.884 176.754 30.968C177.09 31.0427 177.393 31.15 177.664 31.29C177.944 31.43 178.168 31.626 178.336 31.878C178.513 32.13 178.602 32.466 178.602 32.886C178.602 33.334 178.471 33.7213 178.21 34.048C177.949 34.3747 177.58 34.6313 177.104 34.818C176.628 34.9953 176.059 35.084 175.396 35.084ZM184.888 35V33.432L184.818 33.138V30.464C184.818 29.8947 184.65 29.456 184.314 29.148C183.987 28.8307 183.492 28.672 182.83 28.672C182.391 28.672 181.962 28.7467 181.542 28.896C181.122 29.036 180.767 29.2273 180.478 29.47L179.918 28.462C180.3 28.154 180.758 27.9207 181.29 27.762C181.831 27.594 182.396 27.51 182.984 27.51C184.001 27.51 184.785 27.7573 185.336 28.252C185.886 28.7467 186.162 29.5027 186.162 30.52V35H184.888ZM182.452 35.084C181.901 35.084 181.416 34.9907 180.996 34.804C180.585 34.6173 180.268 34.3607 180.044 34.034C179.82 33.698 179.708 33.32 179.708 32.9C179.708 32.4987 179.801 32.1347 179.988 31.808C180.184 31.4813 180.496 31.22 180.926 31.024C181.364 30.828 181.952 30.73 182.69 30.73H185.042V31.696H182.746C182.074 31.696 181.621 31.808 181.388 32.032C181.154 32.256 181.038 32.5267 181.038 32.844C181.038 33.208 181.182 33.502 181.472 33.726C181.761 33.9407 182.162 34.048 182.676 34.048C183.18 34.048 183.618 33.936 183.992 33.712C184.374 33.488 184.65 33.1613 184.818 32.732L185.084 33.656C184.906 34.0947 184.594 34.4447 184.146 34.706C183.698 34.958 183.133 35.084 182.452 35.084ZM188.117 37.072L188.817 34.244L188.999 35.056C188.728 35.056 188.5 34.972 188.313 34.804C188.136 34.636 188.047 34.4073 188.047 34.118C188.047 33.838 188.136 33.6093 188.313 33.432C188.5 33.2547 188.724 33.166 188.985 33.166C189.256 33.166 189.475 33.2593 189.643 33.446C189.811 33.6233 189.895 33.8473 189.895 34.118C189.895 34.2113 189.886 34.3047 189.867 34.398C189.858 34.482 189.834 34.5847 189.797 34.706C189.769 34.818 189.722 34.958 189.657 35.126L188.999 37.072H188.117ZM5.298 57L0.986 47.2H2.498L6.46 56.244H5.592L9.582 47.2H10.982L6.684 57H5.298ZM14.7792 57.084C13.9858 57.084 13.2858 56.9207 12.6792 56.594C12.0818 56.2673 11.6152 55.8193 11.2792 55.25C10.9525 54.6807 10.7892 54.0273 10.7892 53.29C10.7892 52.5527 10.9478 51.8993 11.2652 51.33C11.5918 50.7607 12.0352 50.3173 12.5952 50C13.1645 49.6733 13.8038 49.51 14.5132 49.51C15.2318 49.51 15.8665 49.6687 16.4172 49.986C16.9678 50.3033 17.3972 50.7513 17.7052 51.33C18.0225 51.8993 18.1812 52.5667 18.1812 53.332C18.1812 53.388 18.1765 53.4533 18.1672 53.528C18.1672 53.6027 18.1625 53.6727 18.1532 53.738H11.8392V52.772H17.4532L16.9072 53.108C16.9165 52.632 16.8185 52.2073 16.6132 51.834C16.4078 51.4607 16.1232 51.1713 15.7592 50.966C15.4045 50.7513 14.9892 50.644 14.5132 50.644C14.0465 50.644 13.6312 50.7513 13.2672 50.966C12.9032 51.1713 12.6185 51.4653 12.4132 51.848C12.2078 52.2213 12.1052 52.6507 12.1052 53.136V53.36C12.1052 53.8547 12.2172 54.298 12.4412 54.69C12.6745 55.0727 12.9965 55.3713 13.4072 55.586C13.8178 55.8007 14.2892 55.908 14.8212 55.908C15.2598 55.908 15.6565 55.8333 16.0112 55.684C16.3752 55.5347 16.6925 55.3107 16.9632 55.012L17.7052 55.88C17.3692 56.272 16.9492 56.5707 16.4452 56.776C15.9505 56.9813 15.3952 57.084 14.7792 57.084ZM22.1754 57.084C21.5594 57.084 20.9714 57 20.4114 56.832C19.8608 56.664 19.4268 56.4587 19.1094 56.216L19.6694 55.152C19.9868 55.3667 20.3788 55.5487 20.8454 55.698C21.3121 55.8473 21.7881 55.922 22.2734 55.922C22.8988 55.922 23.3468 55.8333 23.6174 55.656C23.8974 55.4787 24.0374 55.2313 24.0374 54.914C24.0374 54.6807 23.9534 54.4987 23.7854 54.368C23.6174 54.2373 23.3934 54.1393 23.1134 54.074C22.8428 54.0087 22.5394 53.9527 22.2034 53.906C21.8674 53.85 21.5314 53.7847 21.1954 53.71C20.8594 53.626 20.5514 53.514 20.2714 53.374C19.9914 53.2247 19.7674 53.024 19.5994 52.772C19.4314 52.5107 19.3474 52.1653 19.3474 51.736C19.3474 51.288 19.4734 50.896 19.7254 50.56C19.9774 50.224 20.3321 49.9673 20.7894 49.79C21.2561 49.6033 21.8068 49.51 22.4414 49.51C22.9268 49.51 23.4168 49.5707 23.9114 49.692C24.4154 49.804 24.8261 49.9673 25.1434 50.182L24.5694 51.246C24.2334 51.022 23.8834 50.868 23.5194 50.784C23.1554 50.7 22.7914 50.658 22.4274 50.658C21.8394 50.658 21.4008 50.756 21.1114 50.952C20.8221 51.1387 20.6774 51.3813 20.6774 51.68C20.6774 51.932 20.7614 52.128 20.9294 52.268C21.1068 52.3987 21.3308 52.5013 21.6014 52.576C21.8814 52.6507 22.1894 52.716 22.5254 52.772C22.8614 52.8187 23.1974 52.884 23.5334 52.968C23.8694 53.0427 24.1728 53.15 24.4434 53.29C24.7234 53.43 24.9474 53.626 25.1154 53.878C25.2928 54.13 25.3814 54.466 25.3814 54.886C25.3814 55.334 25.2508 55.7213 24.9894 56.048C24.7281 56.3747 24.3594 56.6313 23.8834 56.818C23.4074 56.9953 22.8381 57.084 22.1754 57.084ZM27.0611 57V49.58H28.4051V57H27.0611ZM27.7331 48.152C27.4718 48.152 27.2524 48.068 27.0751 47.9C26.9071 47.732 26.8231 47.5267 26.8231 47.284C26.8231 47.032 26.9071 46.822 27.0751 46.654C27.2524 46.486 27.4718 46.402 27.7331 46.402C27.9944 46.402 28.2091 46.486 28.3771 46.654C28.5544 46.8127 28.6431 47.0133 28.6431 47.256C28.6431 47.508 28.5591 47.7227 28.3911 47.9C28.2231 48.068 28.0038 48.152 27.7331 48.152ZM32.9173 57L29.6693 49.58H31.0693L33.9533 56.3H33.2813L36.2213 49.58H37.5373L34.2893 57H32.9173ZM43.1652 57V55.432L43.0952 55.138V52.464C43.0952 51.8947 42.9272 51.456 42.5912 51.148C42.2645 50.8307 41.7698 50.672 41.1072 50.672C40.6685 50.672 40.2392 50.7467 39.8192 50.896C39.3992 51.036 39.0445 51.2273 38.7552 51.47L38.1952 50.462C38.5778 50.154 39.0352 49.9207 39.5672 49.762C40.1085 49.594 40.6732 49.51 41.2612 49.51C42.2785 49.51 43.0625 49.7573 43.6132 50.252C44.1638 50.7467 44.4392 51.5027 44.4392 52.52V57H43.1652ZM40.7292 57.084C40.1785 57.084 39.6932 56.9907 39.2732 56.804C38.8625 56.6173 38.5452 56.3607 38.3212 56.034C38.0972 55.698 37.9852 55.32 37.9852 54.9C37.9852 54.4987 38.0785 54.1347 38.2652 53.808C38.4612 53.4813 38.7738 53.22 39.2032 53.024C39.6418 52.828 40.2298 52.73 40.9672 52.73H43.3192V53.696H41.0232C40.3512 53.696 39.8985 53.808 39.6652 54.032C39.4318 54.256 39.3152 54.5267 39.3152 54.844C39.3152 55.208 39.4598 55.502 39.7492 55.726C40.0385 55.9407 40.4398 56.048 40.9532 56.048C41.4572 56.048 41.8958 55.936 42.2692 55.712C42.6518 55.488 42.9272 55.1613 43.0952 54.732L43.3612 55.656C43.1838 56.0947 42.8712 56.4447 42.4232 56.706C41.9752 56.958 41.4105 57.084 40.7292 57.084ZM46.9263 57V49.58H48.2143V51.596L48.0883 51.092C48.2937 50.5787 48.639 50.1867 49.1243 49.916C49.6097 49.6453 50.207 49.51 50.9163 49.51V50.812C50.8603 50.8027 50.8043 50.798 50.7483 50.798C50.7017 50.798 50.655 50.798 50.6083 50.798C49.8897 50.798 49.3203 51.0127 48.9003 51.442C48.4803 51.8713 48.2703 52.492 48.2703 53.304V57H46.9263ZM56.632 57V55.432L56.562 55.138V52.464C56.562 51.8947 56.394 51.456 56.058 51.148C55.7313 50.8307 55.2366 50.672 54.574 50.672C54.1353 50.672 53.706 50.7467 53.286 50.896C52.866 51.036 52.5113 51.2273 52.222 51.47L51.662 50.462C52.0446 50.154 52.502 49.9207 53.034 49.762C53.5753 49.594 54.14 49.51 54.728 49.51C55.7453 49.51 56.5293 49.7573 57.08 50.252C57.6306 50.7467 57.906 51.5027 57.906 52.52V57H56.632ZM54.196 57.084C53.6453 57.084 53.16 56.9907 52.74 56.804C52.3293 56.6173 52.012 56.3607 51.788 56.034C51.564 55.698 51.452 55.32 51.452 54.9C51.452 54.4987 51.5453 54.1347 51.732 53.808C51.928 53.4813 52.2406 53.22 52.67 53.024C53.1086 52.828 53.6966 52.73 54.434 52.73H56.786V53.696H54.49C53.818 53.696 53.3653 53.808 53.132 54.032C52.8986 54.256 52.782 54.5267 52.782 54.844C52.782 55.208 52.9266 55.502 53.216 55.726C53.5053 55.9407 53.9066 56.048 54.42 56.048C54.924 56.048 55.3626 55.936 55.736 55.712C56.1186 55.488 56.394 55.1613 56.562 54.732L56.828 55.656C56.6506 56.0947 56.338 56.4447 55.89 56.706C55.442 56.958 54.8773 57.084 54.196 57.084ZM62.2024 57L58.9544 49.58H60.3544L63.2384 56.3H62.5664L65.5064 49.58H66.8224L63.5744 57H62.2024ZM72.4503 57V55.432L72.3803 55.138V52.464C72.3803 51.8947 72.2123 51.456 71.8763 51.148C71.5496 50.8307 71.055 50.672 70.3923 50.672C69.9536 50.672 69.5243 50.7467 69.1043 50.896C68.6843 51.036 68.3296 51.2273 68.0403 51.47L67.4803 50.462C67.863 50.154 68.3203 49.9207 68.8523 49.762C69.3936 49.594 69.9583 49.51 70.5463 49.51C71.5636 49.51 72.3476 49.7573 72.8983 50.252C73.449 50.7467 73.7243 51.5027 73.7243 52.52V57H72.4503ZM70.0143 57.084C69.4636 57.084 68.9783 56.9907 68.5583 56.804C68.1476 56.6173 67.8303 56.3607 67.6063 56.034C67.3823 55.698 67.2703 55.32 67.2703 54.9C67.2703 54.4987 67.3636 54.1347 67.5503 53.808C67.7463 53.4813 68.059 53.22 68.4883 53.024C68.927 52.828 69.515 52.73 70.2523 52.73H72.6043V53.696H70.3083C69.6363 53.696 69.1836 53.808 68.9503 54.032C68.717 54.256 68.6003 54.5267 68.6003 54.844C68.6003 55.208 68.745 55.502 69.0343 55.726C69.3236 55.9407 69.725 56.048 70.2383 56.048C70.7423 56.048 71.181 55.936 71.5543 55.712C71.937 55.488 72.2123 55.1613 72.3803 54.732L72.6463 55.656C72.469 56.0947 72.1563 56.4447 71.7083 56.706C71.2603 56.958 70.6956 57.084 70.0143 57.084ZM82.5193 57.084C81.7726 57.084 81.1939 56.8833 80.7833 56.482C80.3726 56.0807 80.1673 55.5067 80.1673 54.76V47.956H81.5113V54.704C81.5113 55.1053 81.6093 55.4133 81.8053 55.628C82.0106 55.8427 82.2999 55.95 82.6733 55.95C83.0933 55.95 83.4433 55.8333 83.7233 55.6L84.1433 56.566C83.9379 56.7433 83.6906 56.874 83.4013 56.958C83.1213 57.042 82.8273 57.084 82.5193 57.084ZM78.9073 50.686V49.58H83.6393V50.686H78.9073ZM89.7301 49.51C90.3368 49.51 90.8688 49.6267 91.3261 49.86C91.7928 50.0933 92.1568 50.448 92.4181 50.924C92.6795 51.4 92.8101 52.002 92.8101 52.73V57H91.4661V52.884C91.4661 52.1653 91.2888 51.624 90.9341 51.26C90.5888 50.896 90.0988 50.714 89.4641 50.714C88.9881 50.714 88.5728 50.8073 88.2181 50.994C87.8635 51.1807 87.5881 51.456 87.3921 51.82C87.2055 52.184 87.1121 52.6367 87.1121 53.178V57H85.7681V49.58H87.0561V51.582L86.8461 51.05C87.0888 50.5647 87.4621 50.1867 87.9661 49.916C88.4701 49.6453 89.0581 49.51 89.7301 49.51ZM101.619 57.112C100.929 57.112 100.257 57.0047 99.6032 56.79C98.9592 56.5753 98.4319 56.286 98.0212 55.922L98.6652 54.816C98.9919 55.124 99.4165 55.376 99.9392 55.572C100.462 55.768 101.017 55.866 101.605 55.866C102.352 55.866 102.926 55.7073 103.327 55.39C103.729 55.0727 103.929 54.648 103.929 54.116C103.929 53.752 103.841 53.4347 103.663 53.164C103.486 52.8933 103.178 52.688 102.739 52.548C102.31 52.3987 101.717 52.324 100.961 52.324H98.7352L99.2532 47.2H104.783V48.418H99.7712L100.499 47.732L100.093 51.778L99.3652 51.106H101.255C102.235 51.106 103.024 51.232 103.621 51.484C104.219 51.736 104.653 52.086 104.923 52.534C105.194 52.9727 105.329 53.4813 105.329 54.06C105.329 54.62 105.194 55.1333 104.923 55.6C104.653 56.0573 104.242 56.426 103.691 56.706C103.15 56.9767 102.459 57.112 101.619 57.112ZM110.498 57.112C109.733 57.112 109.047 56.916 108.44 56.524C107.843 56.132 107.367 55.5627 107.012 54.816C106.667 54.0693 106.494 53.164 106.494 52.1C106.494 51.036 106.667 50.1307 107.012 49.384C107.367 48.6373 107.843 48.068 108.44 47.676C109.047 47.284 109.733 47.088 110.498 47.088C111.254 47.088 111.936 47.284 112.542 47.676C113.149 48.068 113.625 48.6373 113.97 49.384C114.316 50.1307 114.488 51.036 114.488 52.1C114.488 53.164 114.316 54.0693 113.97 54.816C113.625 55.5627 113.149 56.132 112.542 56.524C111.936 56.916 111.254 57.112 110.498 57.112ZM110.498 55.866C111.012 55.866 111.46 55.726 111.842 55.446C112.234 55.166 112.538 54.746 112.752 54.186C112.976 53.626 113.088 52.9307 113.088 52.1C113.088 51.2693 112.976 50.574 112.752 50.014C112.538 49.454 112.234 49.034 111.842 48.754C111.46 48.474 111.012 48.334 110.498 48.334C109.985 48.334 109.532 48.474 109.14 48.754C108.748 49.034 108.44 49.454 108.216 50.014C108.002 50.574 107.894 51.2693 107.894 52.1C107.894 52.9307 108.002 53.626 108.216 54.186C108.44 54.746 108.748 55.166 109.14 55.446C109.532 55.726 109.985 55.866 110.498 55.866ZM116.054 53.738V52.576H119.82V53.738H116.054ZM120.956 57V56.048L124.946 52.198C125.3 51.862 125.562 51.568 125.73 51.316C125.907 51.0547 126.024 50.8167 126.08 50.602C126.145 50.378 126.178 50.1633 126.178 49.958C126.178 49.454 126 49.0573 125.646 48.768C125.291 48.4787 124.773 48.334 124.092 48.334C123.569 48.334 123.098 48.4227 122.678 48.6C122.258 48.768 121.894 49.034 121.586 49.398L120.634 48.572C121.007 48.096 121.506 47.732 122.132 47.48C122.766 47.2187 123.462 47.088 124.218 47.088C124.899 47.088 125.492 47.2 125.996 47.424C126.5 47.6387 126.887 47.9513 127.158 48.362C127.438 48.7727 127.578 49.258 127.578 49.818C127.578 50.1353 127.536 50.448 127.452 50.756C127.368 51.064 127.209 51.3907 126.976 51.736C126.742 52.0813 126.406 52.4687 125.968 52.898L122.412 56.328L122.076 55.782H127.998V57H120.956ZM133.139 57.112C132.374 57.112 131.688 56.916 131.081 56.524C130.484 56.132 130.008 55.5627 129.653 54.816C129.308 54.0693 129.135 53.164 129.135 52.1C129.135 51.036 129.308 50.1307 129.653 49.384C130.008 48.6373 130.484 48.068 131.081 47.676C131.688 47.284 132.374 47.088 133.139 47.088C133.895 47.088 134.576 47.284 135.183 47.676C135.79 48.068 136.266 48.6373 136.611 49.384C136.956 50.1307 137.129 51.036 137.129 52.1C137.129 53.164 136.956 54.0693 136.611 54.816C136.266 55.5627 135.79 56.132 135.183 56.524C134.576 56.916 133.895 57.112 133.139 57.112ZM133.139 55.866C133.652 55.866 134.1 55.726 134.483 55.446C134.875 55.166 135.178 54.746 135.393 54.186C135.617 53.626 135.729 52.9307 135.729 52.1C135.729 51.2693 135.617 50.574 135.393 50.014C135.178 49.454 134.875 49.034 134.483 48.754C134.1 48.474 133.652 48.334 133.139 48.334C132.626 48.334 132.173 48.474 131.781 48.754C131.389 49.034 131.081 49.454 130.857 50.014C130.642 50.574 130.535 51.2693 130.535 52.1C130.535 52.9307 130.642 53.626 130.857 54.186C131.081 54.746 131.389 55.166 131.781 55.446C132.173 55.726 132.626 55.866 133.139 55.866ZM140.125 57V47.76L140.727 48.418H137.913V47.2H141.511V57H140.125ZM143.724 59.072L144.424 56.244L144.606 57.056C144.336 57.056 144.107 56.972 143.92 56.804C143.743 56.636 143.654 56.4073 143.654 56.118C143.654 55.838 143.743 55.6093 143.92 55.432C144.107 55.2547 144.331 55.166 144.592 55.166C144.863 55.166 145.082 55.2593 145.25 55.446C145.418 55.6233 145.502 55.8473 145.502 56.118C145.502 56.2113 145.493 56.3047 145.474 56.398C145.465 56.482 145.442 56.5847 145.404 56.706C145.376 56.818 145.33 56.958 145.264 57.126L144.606 59.072H143.724ZM152.238 57V47.76L152.84 48.418H150.026V47.2H153.624V57H152.238ZM159.772 57.112C159.006 57.112 158.32 56.916 157.714 56.524C157.116 56.132 156.64 55.5627 156.286 54.816C155.94 54.0693 155.768 53.164 155.768 52.1C155.768 51.036 155.94 50.1307 156.286 49.384C156.64 48.6373 157.116 48.068 157.714 47.676C158.32 47.284 159.006 47.088 159.772 47.088C160.528 47.088 161.209 47.284 161.816 47.676C162.422 48.068 162.898 48.6373 163.244 49.384C163.589 50.1307 163.762 51.036 163.762 52.1C163.762 53.164 163.589 54.0693 163.244 54.816C162.898 55.5627 162.422 56.132 161.816 56.524C161.209 56.916 160.528 57.112 159.772 57.112ZM159.772 55.866C160.285 55.866 160.733 55.726 161.116 55.446C161.508 55.166 161.811 54.746 162.026 54.186C162.25 53.626 162.362 52.9307 162.362 52.1C162.362 51.2693 162.25 50.574 162.026 50.014C161.811 49.454 161.508 49.034 161.116 48.754C160.733 48.474 160.285 48.334 159.772 48.334C159.258 48.334 158.806 48.474 158.414 48.754C158.022 49.034 157.714 49.454 157.49 50.014C157.275 50.574 157.168 51.2693 157.168 52.1C157.168 52.9307 157.275 53.626 157.49 54.186C157.714 54.746 158.022 55.166 158.414 55.446C158.806 55.726 159.258 55.866 159.772 55.866ZM166.758 57V47.76L167.36 48.418H164.546V47.2H168.144V57H166.758ZM173.451 57.112C172.761 57.112 172.089 57.0047 171.435 56.79C170.791 56.5753 170.264 56.286 169.853 55.922L170.497 54.816C170.824 55.124 171.249 55.376 171.771 55.572C172.294 55.768 172.849 55.866 173.437 55.866C174.184 55.866 174.758 55.7073 175.159 55.39C175.561 55.0727 175.761 54.648 175.761 54.116C175.761 53.752 175.673 53.4347 175.495 53.164C175.318 52.8933 175.01 52.688 174.571 52.548C174.142 52.3987 173.549 52.324 172.793 52.324H170.567L171.085 47.2H176.615V48.418H171.603L172.331 47.732L171.925 51.778L171.197 51.106H173.087C174.067 51.106 174.856 51.232 175.453 51.484C176.051 51.736 176.485 52.086 176.755 52.534C177.026 52.9727 177.161 53.4813 177.161 54.06C177.161 54.62 177.026 55.1333 176.755 55.6C176.485 56.0573 176.074 56.426 175.523 56.706C174.982 56.9767 174.291 57.112 173.451 57.112ZM178.104 57V56.048L182.094 52.198C182.449 51.862 182.71 51.568 182.878 51.316C183.055 51.0547 183.172 50.8167 183.228 50.602C183.293 50.378 183.326 50.1633 183.326 49.958C183.326 49.454 183.149 49.0573 182.794 48.768C182.439 48.4787 181.921 48.334 181.24 48.334C180.717 48.334 180.246 48.4227 179.826 48.6C179.406 48.768 179.042 49.034 178.734 49.398L177.782 48.572C178.155 48.096 178.655 47.732 179.28 47.48C179.915 47.2187 180.61 47.088 181.366 47.088C182.047 47.088 182.64 47.2 183.144 47.424C183.648 47.6387 184.035 47.9513 184.306 48.362C184.586 48.7727 184.726 49.258 184.726 49.818C184.726 50.1353 184.684 50.448 184.6 50.756C184.516 51.064 184.357 51.3907 184.124 51.736C183.891 52.0813 183.555 52.4687 183.116 52.898L179.56 56.328L179.224 55.782H185.146V57H178.104ZM186.504 59.072L187.204 56.244L187.386 57.056C187.115 57.056 186.886 56.972 186.7 56.804C186.522 56.636 186.434 56.4073 186.434 56.118C186.434 55.838 186.522 55.6093 186.7 55.432C186.886 55.2547 187.11 55.166 187.372 55.166C187.642 55.166 187.862 55.2593 188.03 55.446C188.198 55.6233 188.282 55.8473 188.282 56.118C188.282 56.2113 188.272 56.3047 188.254 56.398C188.244 56.482 188.221 56.5847 188.184 56.706C188.156 56.818 188.109 56.958 188.044 57.126L187.386 59.072H186.504ZM3.744 73.428H8.784V74.618H3.744V73.428ZM3.87 77.782H9.582V79H2.47V69.2H9.386V70.418H3.87V77.782ZM13.6852 79.084C13.0692 79.084 12.4812 79 11.9212 78.832C11.3705 78.664 10.9365 78.4587 10.6192 78.216L11.1792 77.152C11.4965 77.3667 11.8885 77.5487 12.3552 77.698C12.8219 77.8473 13.2979 77.922 13.7832 77.922C14.4085 77.922 14.8565 77.8333 15.1272 77.656C15.4072 77.4787 15.5472 77.2313 15.5472 76.914C15.5472 76.6807 15.4632 76.4987 15.2952 76.368C15.1272 76.2373 14.9032 76.1393 14.6232 76.074C14.3525 76.0087 14.0492 75.9527 13.7132 75.906C13.3772 75.85 13.0412 75.7847 12.7052 75.71C12.3692 75.626 12.0612 75.514 11.7812 75.374C11.5012 75.2247 11.2772 75.024 11.1092 74.772C10.9412 74.5107 10.8572 74.1653 10.8572 73.736C10.8572 73.288 10.9832 72.896 11.2352 72.56C11.4872 72.224 11.8419 71.9673 12.2992 71.79C12.7659 71.6033 13.3165 71.51 13.9512 71.51C14.4365 71.51 14.9265 71.5707 15.4212 71.692C15.9252 71.804 16.3359 71.9673 16.6532 72.182L16.0792 73.246C15.7432 73.022 15.3932 72.868 15.0292 72.784C14.6652 72.7 14.3012 72.658 13.9372 72.658C13.3492 72.658 12.9105 72.756 12.6212 72.952C12.3319 73.1387 12.1872 73.3813 12.1872 73.68C12.1872 73.932 12.2712 74.128 12.4392 74.268C12.6165 74.3987 12.8405 74.5013 13.1112 74.576C13.3912 74.6507 13.6992 74.716 14.0352 74.772C14.3712 74.8187 14.7072 74.884 15.0432 74.968C15.3792 75.0427 15.6825 75.15 15.9532 75.29C16.2332 75.43 16.4572 75.626 16.6252 75.878C16.8025 76.13 16.8912 76.466 16.8912 76.886C16.8912 77.334 16.7605 77.7213 16.4992 78.048C16.2379 78.3747 15.8692 78.6313 15.3932 78.818C14.9172 78.9953 14.3479 79.084 13.6852 79.084ZM21.1189 79.084C20.3722 79.084 19.7935 78.8833 19.3829 78.482C18.9722 78.0807 18.7669 77.5067 18.7669 76.76V69.956H20.1109V76.704C20.1109 77.1053 20.2089 77.4133 20.4049 77.628C20.6102 77.8427 20.8995 77.95 21.2729 77.95C21.6929 77.95 22.0429 77.8333 22.3229 77.6L22.7429 78.566C22.5375 78.7433 22.2902 78.874 22.0009 78.958C21.7209 79.042 21.4269 79.084 21.1189 79.084ZM17.5069 72.686V71.58H22.2389V72.686H17.5069ZM27.2997 79.084C26.553 79.084 25.8903 78.9207 25.3117 78.594C24.733 78.2673 24.2757 77.8193 23.9397 77.25C23.6037 76.6713 23.4357 76.018 23.4357 75.29C23.4357 74.5527 23.6037 73.8993 23.9397 73.33C24.2757 72.7607 24.733 72.3173 25.3117 72C25.8903 71.6733 26.553 71.51 27.2997 71.51C28.037 71.51 28.695 71.6733 29.2737 72C29.8617 72.3173 30.319 72.7607 30.6457 73.33C30.9817 73.89 31.1497 74.5433 31.1497 75.29C31.1497 76.0273 30.9817 76.6807 30.6457 77.25C30.319 77.8193 29.8617 78.2673 29.2737 78.594C28.695 78.9207 28.037 79.084 27.2997 79.084ZM27.2997 77.908C27.7757 77.908 28.2003 77.8007 28.5737 77.586C28.9563 77.3713 29.255 77.068 29.4697 76.676C29.6843 76.2747 29.7917 75.8127 29.7917 75.29C29.7917 74.758 29.6843 74.3007 29.4697 73.918C29.255 73.526 28.9563 73.2227 28.5737 73.008C28.2003 72.7933 27.7757 72.686 27.2997 72.686C26.8237 72.686 26.399 72.7933 26.0257 73.008C25.6523 73.2227 25.3537 73.526 25.1297 73.918C24.9057 74.3007 24.7937 74.758 24.7937 75.29C24.7937 75.8127 24.9057 76.2747 25.1297 76.676C25.3537 77.068 25.6523 77.3713 26.0257 77.586C26.399 77.8007 26.8237 77.908 27.2997 77.908ZM36.9704 71.51C37.577 71.51 38.109 71.6267 38.5664 71.86C39.033 72.0933 39.397 72.448 39.6584 72.924C39.9197 73.4 40.0504 74.002 40.0504 74.73V79H38.7064V74.884C38.7064 74.1653 38.529 73.624 38.1744 73.26C37.829 72.896 37.339 72.714 36.7044 72.714C36.2284 72.714 35.813 72.8073 35.4584 72.994C35.1037 73.1807 34.8284 73.456 34.6324 73.82C34.4457 74.184 34.3524 74.6367 34.3524 75.178V79H33.0084V71.58H34.2964V73.582L34.0864 73.05C34.329 72.5647 34.7024 72.1867 35.2064 71.916C35.7104 71.6453 36.2984 71.51 36.9704 71.51ZM42.5377 79V71.58H43.8817V79H42.5377ZM43.2097 70.152C42.9483 70.152 42.729 70.068 42.5517 69.9C42.3837 69.732 42.2997 69.5267 42.2997 69.284C42.2997 69.032 42.3837 68.822 42.5517 68.654C42.729 68.486 42.9483 68.402 43.2097 68.402C43.471 68.402 43.6857 68.486 43.8537 68.654C44.031 68.8127 44.1197 69.0133 44.1197 69.256C44.1197 69.508 44.0357 69.7227 43.8677 69.9C43.6997 70.068 43.4803 70.152 43.2097 70.152ZM51.0538 79V77.432L50.9838 77.138V74.464C50.9838 73.8947 50.8158 73.456 50.4798 73.148C50.1532 72.8307 49.6585 72.672 48.9958 72.672C48.5572 72.672 48.1278 72.7467 47.7078 72.896C47.2878 73.036 46.9332 73.2273 46.6438 73.47L46.0838 72.462C46.4665 72.154 46.9238 71.9207 47.4558 71.762C47.9972 71.594 48.5618 71.51 49.1498 71.51C50.1672 71.51 50.9512 71.7573 51.5018 72.252C52.0525 72.7467 52.3278 73.5027 52.3278 74.52V79H51.0538ZM48.6178 79.084C48.0672 79.084 47.5818 78.9907 47.1618 78.804C46.7512 78.6173 46.4338 78.3607 46.2098 78.034C45.9858 77.698 45.8738 77.32 45.8738 76.9C45.8738 76.4987 45.9672 76.1347 46.1538 75.808C46.3498 75.4813 46.6625 75.22 47.0918 75.024C47.5305 74.828 48.1185 74.73 48.8558 74.73H51.2078V75.696H48.9118C48.2398 75.696 47.7872 75.808 47.5538 76.032C47.3205 76.256 47.2038 76.5267 47.2038 76.844C47.2038 77.208 47.3485 77.502 47.6378 77.726C47.9272 77.9407 48.3285 78.048 48.8418 78.048C49.3458 78.048 49.7845 77.936 50.1578 77.712C50.5405 77.488 50.8158 77.1613 50.9838 76.732L51.2498 77.656C51.0725 78.0947 50.7598 78.4447 50.3118 78.706C49.8638 78.958 49.2992 79.084 48.6178 79.084Z" fill="#7C87A8"/>
</svg>
