<svg width="20" height="21" viewBox="0 0 20 21" fill="none" xmlns="http://www.w3.org/2000/svg">
<path d="M10.0026 8.00033V7.16699" stroke="#4E43DF" stroke-width="1.3" stroke-linecap="round" stroke-linejoin="round"/>
<path d="M10.0026 13.0001V13.8335" stroke="#4E43DF" stroke-width="1.3" stroke-linecap="round" stroke-linejoin="round"/>
<path d="M8.55694 12.4047C8.77046 12.7719 9.16177 12.9992 9.58647 13.0028H10.4998C11.0906 13.0024 11.5884 12.5617 11.6605 11.9754C11.7327 11.389 11.3566 10.8408 10.7836 10.6971L9.22171 10.3047C8.6487 10.161 8.27262 9.61281 8.34479 9.02648C8.41696 8.44014 8.91476 7.9995 9.50552 7.99902H10.4189C10.8427 8.00196 11.2337 8.2282 11.4474 8.59426" stroke="#4E43DF" stroke-width="1.5" stroke-linecap="round" stroke-linejoin="round"/>
<path d="M10 3C14.1421 3 17.5 6.35786 17.5 10.5C17.5 14.6421 14.1421 18 10 18C5.85786 18 2.5 14.6421 2.5 10.5C2.5 6.35786 5.85786 3 10 3" stroke="#4E43DF" stroke-width="1.3" stroke-linecap="round" stroke-linejoin="round"/>
<path d="M10 3C14.1421 3 17.5 6.35786 17.5 10.5C17.5 14.6421 14.1421 18 10 18C5.85786 18 2.5 14.6421 2.5 10.5C2.5 6.35786 5.85786 3 10 3" stroke="#4E43DF" stroke-width="1.5" stroke-linecap="round" stroke-linejoin="round"/>
</svg>
