<svg width="28" height="28" viewBox="0 0 28 28" fill="none" xmlns="http://www.w3.org/2000/svg">
    <path d="M12.6667 20.6667H15.3334V12.6667H12.6667V20.6667ZM14.0001 10C14.3779 10 14.6947 9.87202 14.9508 9.61602C15.2067 9.36002 15.3343 9.04358 15.3334 8.66669C15.3325 8.2898 15.2045 7.97335 14.9494 7.71735C14.6943 7.46135 14.3779 7.33335 14.0001 7.33335C13.6223 7.33335 13.3059 7.46135 13.0507 7.71735C12.7956 7.97335 12.6676 8.2898 12.6667 8.66669C12.6659 9.04358 12.7939 9.36047 13.0507 9.61735C13.3076 9.87424 13.6241 10.0018 14.0001 10ZM14.0001 27.3334C12.1556 27.3334 10.4223 26.9831 8.80008 26.2827C7.17786 25.5822 5.76675 24.6325 4.56675 23.4334C3.36675 22.2342 2.41697 20.8231 1.71742 19.2C1.01786 17.5769 0.667639 15.8436 0.66675 14C0.665861 12.1565 1.01608 10.4231 1.71742 8.80002C2.41875 7.17691 3.36853 5.7658 4.56675 4.56669C5.76497 3.36758 7.17608 2.4178 8.80008 1.71735C10.4241 1.01691 12.1574 0.666687 14.0001 0.666687C15.8427 0.666687 17.5761 1.01691 19.2001 1.71735C20.8241 2.4178 22.2352 3.36758 23.4334 4.56669C24.6316 5.7658 25.5819 7.17691 26.2841 8.80002C26.9863 10.4231 27.3361 12.1565 27.3334 14C27.3308 15.8436 26.9805 17.5769 26.2828 19.2C25.585 20.8231 24.6352 22.2342 23.4334 23.4334C22.2316 24.6325 20.8205 25.5827 19.2001 26.284C17.5796 26.9854 15.8463 27.3351 14.0001 27.3334Z" fill="#F8F8FF"/>
</svg>
