<svg width="61" height="60" viewBox="0 0 61 60" fill="none" xmlns="http://www.w3.org/2000/svg">
    <rect x="0.5" width="60" height="60" rx="30" fill="white"/>
    <path fill="#8466FF" d="M25.46 18H35.54C39.38 18 42.5 21.12 42.5 24.96V35.04C42.5 36.8859 41.7667 38.6562 40.4615 39.9615C39.1562 41.2667 37.3859 42 35.54 42H25.46C21.62 42 18.5 38.88 18.5 35.04V24.96C18.5 23.1141 19.2333 21.3438 20.5385 20.0385C21.8438 18.7333 23.6141 18 25.46 18ZM25.22 20.4C24.0743 20.4 22.9755 20.8551 22.1653 21.6653C21.3551 22.4755 20.9 23.5743 20.9 24.72V35.28C20.9 37.668 22.832 39.6 25.22 39.6H35.78C36.9257 39.6 38.0245 39.1449 38.8347 38.3347C39.6449 37.5245 40.1 36.4257 40.1 35.28V24.72C40.1 22.332 38.168 20.4 35.78 20.4H25.22ZM36.8 22.2C37.1978 22.2 37.5794 22.358 37.8607 22.6393C38.142 22.9206 38.3 23.3022 38.3 23.7C38.3 24.0978 38.142 24.4794 37.8607 24.7607C37.5794 25.042 37.1978 25.2 36.8 25.2C36.4022 25.2 36.0206 25.042 35.7393 24.7607C35.458 24.4794 35.3 24.0978 35.3 23.7C35.3 23.3022 35.458 22.9206 35.7393 22.6393C36.0206 22.358 36.4022 22.2 36.8 22.2ZM30.5 24C32.0913 24 33.6174 24.6321 34.7426 25.7574C35.8679 26.8826 36.5 28.4087 36.5 30C36.5 31.5913 35.8679 33.1174 34.7426 34.2426C33.6174 35.3679 32.0913 36 30.5 36C28.9087 36 27.3826 35.3679 26.2574 34.2426C25.1321 33.1174 24.5 31.5913 24.5 30C24.5 28.4087 25.1321 26.8826 26.2574 25.7574C27.3826 24.6321 28.9087 24 30.5 24ZM30.5 26.4C29.5452 26.4 28.6295 26.7793 27.9544 27.4544C27.2793 28.1295 26.9 29.0452 26.9 30C26.9 30.9548 27.2793 31.8705 27.9544 32.5456C28.6295 33.2207 29.5452 33.6 30.5 33.6C31.4548 33.6 32.3705 33.2207 33.0456 32.5456C33.7207 31.8705 34.1 30.9548 34.1 30C34.1 29.0452 33.7207 28.1295 33.0456 27.4544C32.3705 26.7793 31.4548 26.4 30.5 26.4Z"/>
</svg>
