<svg width="25" height="24" viewBox="0 0 25 24" fill="none" xmlns="http://www.w3.org/2000/svg">
    <path
            d="M11.5536 7.81502L12.3046 4.27902C12.415 3.76029 12.7269 3.30665 13.1717 3.01785C13.6165 2.72906 14.1579 2.62876 14.6766 2.73902L17.8726 3.41902C18.1671 3.09167 18.5613 2.87064 18.9942 2.79019C19.4271 2.70975 19.8744 2.7744 20.2668 2.97412C20.6592 3.17384 20.9747 3.49745 21.1644 3.89478C21.3541 4.2921 21.4074 4.74092 21.316 5.17163C21.2246 5.60233 20.9937 5.99084 20.659 6.2769C20.3243 6.56296 19.9045 6.73058 19.4649 6.75376C19.0252 6.77694 18.5901 6.65438 18.2272 6.40509C17.8643 6.15581 17.5938 5.79373 17.4576 5.37502L14.2606 4.69502L13.5946 7.83002C15.3796 7.96702 17.1526 8.56002 18.7586 9.53002C19.2359 9.26444 19.7733 9.12576 20.3195 9.12726C20.8657 9.12876 21.4023 9.27039 21.8781 9.53859C22.354 9.80679 22.753 10.1926 23.037 10.6591C23.3211 11.1256 23.4807 11.6572 23.5006 12.203V12.224C23.5082 12.7131 23.4033 13.1974 23.194 13.6396C22.9847 14.0817 22.6767 14.4698 22.2936 14.774C22.2918 14.8151 22.2892 14.8561 22.2856 14.897C22.2856 18.895 17.8356 21.927 12.4866 21.927C7.15361 21.927 2.77861 18.903 2.78161 14.974C2.77725 14.9137 2.77392 14.8534 2.77161 14.793C2.12951 14.3067 1.69491 13.5957 1.55494 12.8025C1.41497 12.0093 1.57995 11.1925 2.01684 10.5158C2.45372 9.83907 3.13021 9.35249 3.91073 9.15355C4.69125 8.9546 5.51812 9.058 6.22561 9.44302C7.84072 8.46966 9.67029 7.91042 11.5536 7.81502ZM20.8396 13.341C21.0397 13.242 21.2079 13.0886 21.3249 12.8985C21.442 12.7085 21.5032 12.4893 21.5016 12.266C21.4912 12.0372 21.4151 11.8163 21.2824 11.6296C21.1497 11.4429 20.966 11.2984 20.7534 11.2134C20.5407 11.1283 20.308 11.1064 20.0832 11.1501C19.8584 11.1939 19.6509 11.3015 19.4856 11.46L18.9006 12.02L18.2306 11.565C16.6156 10.467 14.7786 9.84002 13.0006 9.80102H11.9946C10.1196 9.82902 8.34261 10.401 6.75761 11.476L6.09361 11.926L5.51061 11.376C5.38465 11.258 5.23457 11.1688 5.07075 11.1145C4.90693 11.0603 4.73328 11.0422 4.56179 11.0616C4.3903 11.081 4.22507 11.1374 4.07752 11.2269C3.92997 11.3164 3.80362 11.4369 3.7072 11.5801C3.61077 11.7232 3.54658 11.8855 3.51905 12.0559C3.49153 12.2263 3.50132 12.4006 3.54777 12.5668C3.59421 12.733 3.67619 12.8872 3.78805 13.0186C3.8999 13.15 4.03896 13.2556 4.19561 13.328L4.82861 13.618L4.77561 14.313C4.7622 14.5075 4.7632 14.7027 4.77861 14.897C4.77861 17.607 8.13461 19.927 12.4866 19.927C16.8576 19.927 20.2856 17.591 20.2886 14.82C20.3016 14.6513 20.3016 14.4818 20.2886 14.313L20.2366 13.641L20.8396 13.341ZM7.45161 13.5C7.45161 13.1022 7.60965 12.7207 7.89095 12.4394C8.17226 12.1581 8.55379 12 8.95161 12C9.34944 12 9.73097 12.1581 10.0123 12.4394C10.2936 12.7207 10.4516 13.1022 10.4516 13.5C10.4516 13.8978 10.2936 14.2794 10.0123 14.5607C9.73097 14.842 9.34944 15 8.95161 15C8.55379 15 8.17226 14.842 7.89095 14.5607C7.60965 14.2794 7.45161 13.8978 7.45161 13.5ZM14.4516 13.5C14.4516 13.1022 14.6096 12.7207 14.891 12.4394C15.1723 12.1581 15.5538 12 15.9516 12C16.3494 12 16.731 12.1581 17.0123 12.4394C17.2936 12.7207 17.4516 13.1022 17.4516 13.5C17.4516 13.8978 17.2936 14.2794 17.0123 14.5607C16.731 14.842 16.3494 15 15.9516 15C15.5538 15 15.1723 14.842 14.891 14.5607C14.6096 14.2794 14.4516 13.8978 14.4516 13.5ZM12.4666 18.603C11.0696 18.603 9.70061 18.233 8.58561 17.393C8.51826 17.3117 8.48367 17.2082 8.48861 17.1027C8.49355 16.9972 8.53767 16.8974 8.61233 16.8227C8.68699 16.7481 8.78683 16.704 8.8923 16.699C8.99778 16.6941 9.1013 16.7287 9.18261 16.796C10.1276 17.489 11.3056 17.786 12.4516 17.786C13.5976 17.786 14.7816 17.511 15.7356 16.827C15.7908 16.7732 15.8591 16.7349 15.9338 16.7158C16.0085 16.6968 16.0869 16.6978 16.1611 16.7187C16.2353 16.7396 16.3027 16.7796 16.3565 16.8348C16.4103 16.89 16.4486 16.9583 16.4676 17.033C16.4837 17.108 16.4812 17.1857 16.4603 17.2595C16.4393 17.3332 16.4007 17.4007 16.3476 17.456C15.6646 18.253 13.8646 18.603 12.4676 18.603"
            fill="#8466FF"/>
</svg>