<svg xmlns="http://www.w3.org/2000/svg" width="80" height="80" viewBox="0 0 80 80" fill="none">
    <path fill-rule="evenodd" clip-rule="evenodd" d="M72.8869 19.4016C72.6706 17.9345 71.4739 16.787 69.9597 16.5958C69.5205 16.5393 69.0822 16.4744 68.6446 16.4076C68.1374 16.3302 67.5065 16.229 66.7876 16.1038C66.3073 16.0202 65.7876 15.9259 65.2398 15.8207C62.4632 15.2881 59.108 14.5072 56.4154 13.4918C51.5443 11.6551 46.8247 9.38694 42.1932 7.04315C41.1741 6.52614 39.9347 6.55297 38.9351 7.0994C34.5775 9.4659 30.1004 11.7355 25.4427 13.4918C22.7717 14.4988 19.2808 15.2797 16.3394 15.8145C14.8929 16.0776 13.6244 16.2732 12.7195 16.4028C12.2483 16.4703 11.7768 16.5356 11.3044 16.5921C9.77732 16.7718 8.56486 17.9238 8.34735 19.4016C6.57243 31.4621 7.97999 42.3189 13.157 51.4475C18.3438 60.5949 27.1094 67.6427 39.3449 72.4323C39.7636 72.5963 40.2077 72.676 40.6511 72.6717C41.0718 72.6676 41.4917 72.5879 41.8889 72.4323C54.1249 67.6427 62.8899 60.5949 68.0772 51.4475C73.2538 42.3189 74.6623 31.4621 72.8869 19.4016ZM27.0495 33.069C27.0495 25.7783 33.1391 19.8681 40.6511 19.8681C48.1631 19.8681 54.2527 25.7783 54.2527 33.069C54.2527 40.3597 48.1631 46.2699 40.6511 46.2699C33.1391 46.2699 27.0495 40.3597 27.0495 33.069ZM28.4 57.7591C30.9374 56.6935 34.7531 56.1706 40.6513 56.1706C46.6877 56.1706 50.5388 56.6795 53.0755 57.7547C54.7966 58.4842 56.8012 57.7215 57.5526 56.0513C58.3043 54.3809 57.5185 52.4354 55.7974 51.706C51.8872 50.0487 46.8217 49.5701 40.6513 49.5701C34.5724 49.5701 29.5789 50.0721 25.6991 51.7016C23.9756 52.4255 23.183 54.3683 23.9288 56.041C24.6747 57.7138 26.6765 58.4831 28.4 57.7591Z" fill="#8466FF"/>
    <path d="M40.0007 26.667C36.3188 26.667 33.334 29.6518 33.334 33.3337C33.334 37.0155 36.3188 40.0003 40.0007 40.0003C43.6827 40.0003 46.6673 37.0155 46.6673 33.3337C46.6673 29.6518 43.6827 26.667 40.0007 26.667Z" fill="#8466FF"/>
</svg>