<svg width="71" height="71" viewBox="0 0 71 71" fill="none" xmlns="http://www.w3.org/2000/svg">
    <path fill-rule="evenodd" clip-rule="evenodd" d="M0 35.5C0 15.8939 15.8939 0 35.5 0C55.1061 0 71 15.8939 71 35.5C71 55.1061 55.1061 71 35.5 71C15.8939 71 0 55.1061 0 35.5ZM24.8502 25.7375C26.3206 25.7375 27.5127 26.9296 27.5127 28.4V28.4399C27.5127 29.9103 26.3206 31.1024 24.8502 31.1024C23.3798 31.1024 22.1877 29.9103 22.1877 28.4399V28.4C22.1877 26.9296 23.3798 25.7375 24.8502 25.7375ZM20.2341 41.1807C21.018 40.5919 22.1307 40.7501 22.7195 41.5339C25.6369 45.4182 30.2762 47.925 35.5014 47.925C40.7268 47.925 45.366 45.4182 48.2836 41.5339C48.8723 40.7501 49.9851 40.5919 50.7689 41.1807C51.5526 41.7695 51.7107 42.8822 51.122 43.6661C47.5629 48.4044 41.8905 51.475 35.5014 51.475C29.1125 51.475 23.4401 48.4044 19.8811 43.6661C19.2923 42.8822 19.4505 41.7695 20.2341 41.1807ZM48.8127 28.4C48.8127 26.9296 47.6206 25.7375 46.1502 25.7375C44.6798 25.7375 43.4877 26.9296 43.4877 28.4V28.4399C43.4877 29.9103 44.6798 31.1024 46.1502 31.1024C47.6206 31.1024 48.8127 29.9103 48.8127 28.4399V28.4Z" fill="#58C58B"/>
</svg>
