<svg width="25" height="24" viewBox="0 0 25 24" fill="none" xmlns="http://www.w3.org/2000/svg">
    <path
            d="M17.0999 5.82C16.4163 5.03962 16.0396 4.03743 16.0399 3H12.9499V15.4C12.9261 16.071 12.6428 16.7066 12.1597 17.1729C11.6766 17.6393 11.0314 17.8999 10.3599 17.9C8.93991 17.9 7.75991 16.74 7.75991 15.3C7.75991 13.58 9.41991 12.29 11.1299 12.82V9.66C7.67991 9.2 4.65991 11.88 4.65991 15.3C4.65991 18.63 7.41991 21 10.3499 21C13.4899 21 16.0399 18.45 16.0399 15.3V9.01C17.2929 9.90985 18.7973 10.3926 20.3399 10.39V7.3C20.3399 7.3 18.4599 7.39 17.0999 5.82Z"
            fill="#8466FF"/>
</svg>