<svg width="159" height="150" viewBox="0 0 159 150" fill="none" xmlns="http://www.w3.org/2000/svg">
<path d="M107.726 22.356C107.349 17.1183 102.019 13.7383 97.1186 15.6153L91.3023 17.8428C90.5809 18.1191 89.7682 17.803 89.4234 17.1156L86.6328 11.553C84.2796 6.86238 78.0624 5.77265 74.2509 9.38276L69.7308 13.664C69.1723 14.193 68.3004 14.2138 67.7163 13.7087L63.0069 9.63619C59.0387 6.2047 52.8754 7.57022 50.7352 12.3667L48.1994 18.0497C47.8872 18.7494 47.0917 19.1028 46.3574 18.859L40.4461 16.8966C35.4663 15.2434 30.2922 18.8608 30.1526 24.1127L29.9872 30.3324C29.9669 31.0971 29.3688 31.726 28.598 31.7814L22.3849 32.2279C17.1482 32.6042 13.7541 37.927 15.6369 42.8316L17.8671 48.641C18.1417 49.3564 17.8292 50.1641 17.1408 50.5087L11.5717 53.296C6.87361 55.6474 5.7814 61.8642 9.39719 65.6728L13.6834 70.1876C14.2132 70.7456 14.2317 71.6114 13.7296 72.1906L9.65233 76.8945C6.21012 80.8657 7.58702 87.0248 12.3825 89.1595L18.0722 91.6923C18.778 92.0065 19.126 92.8013 18.8845 93.5272L16.9198 99.4315C15.2608 104.417 18.8926 109.578 24.1384 109.717L30.3654 109.882C31.139 109.903 31.7665 110.506 31.8216 111.27L32.2686 117.476C32.6458 122.713 37.9754 126.093 42.8762 124.216L48.6925 121.989C49.4138 121.712 50.2266 122.029 50.5714 122.716L53.362 128.278C55.7152 132.969 61.9323 134.059 65.7439 130.449L70.264 126.168C70.8225 125.639 71.6944 125.618 72.2785 126.123L76.9879 130.195C80.956 133.627 87.1194 132.261 89.2596 127.465L91.7953 121.782C92.1075 121.082 92.9031 120.729 93.6374 120.973L99.5486 122.935C104.528 124.588 109.703 120.971 109.842 115.719L110.008 109.499C110.028 108.734 110.626 108.106 111.397 108.05L117.61 107.604C122.847 107.227 126.241 101.905 124.358 97L122.128 91.1905C121.853 90.4751 122.166 89.6674 122.854 89.3229L128.423 86.5355C133.121 84.1841 134.213 77.9673 130.598 74.1587L126.311 69.644C125.782 69.0859 125.763 68.2202 126.265 67.6409L130.342 62.937C133.785 58.9658 132.408 52.8067 127.612 50.672L121.923 48.1392C121.217 47.825 120.869 47.0303 121.11 46.3043L123.075 40.4C124.734 35.4144 121.102 30.2535 115.856 30.1144L109.629 29.9492C108.856 29.9287 108.228 29.3259 108.173 28.5619L107.726 22.356Z" fill="#F89E1F" stroke="white" stroke-width="6.32834"/>
<path d="M38.9385 68.9084C39.6035 65.141 37.2247 63.5763 32.3474 61.5994C29.9494 60.6182 29.0486 60.1801 29.2447 59.0688C29.46 57.8492 30.6081 57.0453 32.912 57.4511C35.2431 57.8616 36.0243 58.9773 36.1964 60.377L40.1267 61.0692C40.2161 58.3462 39.0699 55.6572 35.5797 54.3718L36.1443 51.1736L32.2953 50.4957L31.7355 53.6668C28.7077 53.7204 25.9014 55.2103 25.3129 58.544C24.6526 62.2843 27.4922 63.9302 30.756 65.2316C33.9607 66.5506 35.2554 66.9742 35.0066 68.3836C34.7674 69.7388 33.4854 70.3514 31.2899 69.9647C28.6064 69.4921 27.6355 68.343 27.4506 66.3821L23.5475 65.6947C23.4389 68.5261 24.6186 71.5005 28.3336 72.9373L27.7595 76.1897L31.6355 76.8723L32.1905 73.7283C35.0813 73.8183 38.2782 72.6487 38.9385 68.9084ZM49.442 56.9809L42.6369 58.3254L41.9622 62.147L46.5335 61.1077L43.9785 75.5809L47.8546 76.2635L51.2039 57.2912L49.442 56.9809ZM61.6924 65.3704C60.7437 65.2033 60.0278 65.3008 59.2386 65.4971L65.5512 59.818L60.9705 59.0113C56.0896 63.5452 52.7874 66.2613 52.1032 70.1371C51.3424 74.4465 54.2298 77.7217 58.2414 78.4282C62.3072 79.1443 66.0798 76.9303 66.831 72.675C67.5582 68.5553 64.8366 65.9241 61.6924 65.3704ZM58.865 74.7374C56.9134 74.3937 55.6475 72.8573 56.0112 70.7974C56.3748 68.7375 58.0267 67.7709 60.0596 68.1289C62.0112 68.4726 63.2643 69.923 62.9007 71.9828C62.537 74.0427 60.8437 75.0859 58.865 74.7374ZM71.2448 75.9675C69.8624 75.7241 68.6601 76.5184 68.4257 77.8465C68.1865 79.2016 69.049 80.3317 70.4314 80.5751C71.7866 80.8138 73.0112 80.0514 73.2504 78.6962C73.4849 77.3681 72.6 76.2062 71.2448 75.9675ZM82.9602 78.6457L83.0192 78.6281L85.7091 77.0059C89.6507 74.626 91.9531 73.2989 92.4698 70.3717C93.0392 67.1464 91.0288 63.9698 86.8546 63.2346C82.7888 62.5186 79.3797 64.573 78.3814 68.645L82.2846 69.3324C82.9225 67.4606 84.1167 66.5531 86.0412 66.892C88.047 67.2453 88.731 68.5954 88.5061 69.8692C88.2621 71.2515 87.3149 71.8672 82.836 74.5996L76.4549 78.4501L75.9668 81.2147L90.5224 83.7782L91.1731 80.0921L82.9602 78.6457ZM104.081 66.2686C98.9581 65.3663 95.2525 68.6261 94.1903 74.6431C93.1281 80.66 95.494 84.9892 100.617 85.8914C105.74 86.7937 109.45 83.5067 110.508 77.5169C111.565 71.527 109.204 67.1708 104.081 66.2686ZM101.268 82.2053C98.4216 81.7041 97.371 79.4231 98.0935 75.3305C98.8159 71.2379 100.584 69.4534 103.43 69.9546C106.276 70.4559 107.3 72.7321 106.577 76.8247C105.855 80.9173 104.114 82.7066 101.268 82.2053Z" fill="#0A1330"/>
<rect width="137.137" height="27.6344" rx="13.8172" transform="matrix(0.944428 -0.328719 0.329408 0.944188 20.3818 123.908)" fill="#E5E6FB"/>
<path d="M41.173 129.038C42.0444 128.735 42.8801 128.758 43.6802 129.108C44.4771 129.448 45.0415 130.094 45.3734 131.045C45.7238 132.05 45.6682 132.977 45.2064 133.825C44.7415 134.665 43.9933 135.264 42.9618 135.623C42.0015 135.957 41.077 135.98 40.1885 135.691C39.3057 135.39 38.652 134.746 38.2273 133.757L40.1613 133.084C40.3786 133.507 40.6817 133.775 41.0704 133.889C41.4681 134 41.8847 133.979 42.3204 133.828C42.8184 133.654 43.1674 133.368 43.3673 132.97C43.5673 132.571 43.5882 132.145 43.4301 131.692C43.2719 131.239 42.9951 130.931 42.5997 130.77C42.2013 130.599 41.7619 130.598 41.2818 130.765C40.5615 131.015 40.1357 131.453 40.0044 132.077L38.1771 132.713L37.4487 126.895L42.7839 125.038L43.4166 126.852L39.5086 128.212L39.748 130.013C40.1022 129.57 40.5772 129.245 41.173 129.038ZM53.7424 120.177L55.6497 119.513L59.2319 129.781L57.3246 130.445L56.9803 129.458C56.6868 130.417 56.051 131.067 55.0729 131.408C54.1126 131.742 53.1882 131.665 52.2999 131.177C51.4174 130.676 50.7807 129.866 50.3899 128.746C49.9991 127.626 49.9953 126.6 50.3786 125.67C50.7676 124.727 51.4378 124.09 52.3892 123.758C53.3674 123.418 54.279 123.544 55.1241 124.137L53.7424 120.177ZM54.867 129.446C55.4094 129.257 55.7934 128.914 56.0188 128.417C56.2442 127.92 56.253 127.373 56.0452 126.778C55.8374 126.182 55.4906 125.759 55.0046 125.51C54.5187 125.26 54.0045 125.23 53.4621 125.419C52.9197 125.607 52.5402 125.949 52.3237 126.443C52.1072 126.937 52.1028 127.482 52.3106 128.078C52.5184 128.673 52.8608 129.097 53.3378 129.35C53.8238 129.6 54.3335 129.631 54.867 129.446ZM63.6727 120.01L65.5801 119.347L68.1254 126.685L66.2181 127.349L65.8738 126.362C65.5803 127.322 64.949 127.97 63.9798 128.308C63.0105 128.645 62.0862 128.568 61.2068 128.077C60.3242 127.576 59.6875 126.766 59.2968 125.646C58.906 124.526 58.9022 123.5 59.2854 122.569C59.6744 121.626 60.3446 120.989 61.2961 120.658C62.2742 120.318 63.1858 120.444 64.0309 121.037L63.6727 120.01ZM63.7739 126.346C64.3163 126.157 64.7002 125.814 64.9256 125.317C65.1511 124.82 65.1599 124.273 64.9521 123.678C64.7443 123.082 64.3974 122.659 63.9115 122.41C63.4255 122.16 62.9113 122.13 62.3689 122.319C61.8265 122.507 61.4471 122.849 61.2305 123.343C61.014 123.837 61.0096 124.382 61.2174 124.977C61.4252 125.573 61.7677 125.997 62.2447 126.25C62.7306 126.499 63.2404 126.531 63.7739 126.346ZM72.302 117.007L74.3427 116.297L73.2894 128.626L71.262 129.332L71.6801 124.356L66.6333 118.98L68.6607 118.274L71.9727 121.937L72.302 117.007ZM81.061 122.362C80.074 122.706 79.1724 122.765 78.3562 122.541C77.537 122.308 76.9211 121.814 76.5086 121.061L78.4426 120.388C78.8321 120.99 79.5382 121.113 80.5608 120.757C81.3877 120.469 81.7314 120.125 81.5919 119.725C81.5732 119.672 81.5473 119.626 81.514 119.588C81.4896 119.546 81.4534 119.514 81.4054 119.491C81.3664 119.465 81.3244 119.444 81.2795 119.43C81.2315 119.407 81.1673 119.394 81.0869 119.392C81.0153 119.387 80.9498 119.385 80.8902 119.386C80.8307 119.387 80.7429 119.393 80.6269 119.403C80.5198 119.41 80.4231 119.419 80.3369 119.429C80.2595 119.436 80.1495 119.45 80.0068 119.469C79.8642 119.489 79.7393 119.503 79.6321 119.51C78.4485 119.633 77.5861 119.619 77.0449 119.468C76.5096 119.306 76.1349 118.918 75.9209 118.304C75.6541 117.54 75.7353 116.844 76.1644 116.216C76.5993 115.576 77.3059 115.086 78.284 114.745C79.2621 114.405 80.0968 114.354 80.7881 114.592C81.4763 114.821 82.0126 115.272 82.3972 115.946L80.4632 116.619C80.1295 116.177 79.5669 116.093 78.7755 116.369C77.9575 116.654 77.6198 117 77.7625 117.409C77.8183 117.569 77.9431 117.655 78.1368 117.668C78.3306 117.68 78.7486 117.649 79.3909 117.575C80.0332 117.501 80.5479 117.462 80.935 117.456C81.319 117.442 81.6976 117.47 82.0709 117.54C82.4441 117.609 82.7408 117.745 82.9611 117.948C83.1813 118.15 83.3534 118.429 83.4775 118.785C83.7535 119.576 83.6576 120.287 83.1899 120.919C82.7221 121.55 82.0125 122.031 81.061 122.362ZM91.516 107.029L93.4233 106.366L97.0055 116.633L95.0981 117.297L94.7539 116.31C94.4604 117.27 93.8246 117.92 92.8465 118.26C91.8861 118.595 90.9618 118.517 90.0735 118.029C89.1909 117.529 88.5543 116.719 88.1635 115.598C87.7727 114.478 87.7689 113.453 88.1521 112.522C88.5411 111.579 89.2114 110.942 90.1628 110.611C91.1409 110.27 92.0525 110.397 92.8977 110.99L91.516 107.029ZM92.6406 116.298C93.183 116.109 93.5669 115.766 93.7923 115.269C94.0178 114.772 94.0266 114.226 93.8188 113.63C93.611 113.034 93.2641 112.612 92.7782 112.362C92.2922 112.113 91.7781 112.082 91.2356 112.271C90.6932 112.46 90.3138 112.801 90.0972 113.295C89.8807 113.79 89.8763 114.334 90.0841 114.93C90.2919 115.526 90.6344 115.95 91.1114 116.202C91.5974 116.452 92.1071 116.484 92.6406 116.298ZM99.5632 107.339C100.764 106.921 101.855 107.005 102.837 107.59C103.828 108.172 104.488 109.094 104.818 110.355L99.1898 112.314C99.4505 112.861 99.807 113.226 100.259 113.407C100.711 113.589 101.195 113.59 101.711 113.41C102.085 113.28 102.39 113.084 102.628 112.822C102.862 112.551 102.992 112.252 103.017 111.924L104.991 111.237C105.022 112.153 104.786 112.933 104.282 113.577C103.779 114.221 103.109 114.688 102.274 114.979C101.135 115.375 100.081 115.339 99.1091 114.869C98.1376 114.4 97.4596 113.614 97.075 112.512C96.6904 111.409 96.7311 110.368 97.197 109.389C97.6629 108.409 98.4517 107.726 99.5632 107.339ZM100.099 108.917C99.6453 109.075 99.3108 109.331 99.0953 109.685C98.8767 110.03 98.7765 110.429 98.7947 110.881L102.303 109.66C102.053 109.289 101.735 109.035 101.349 108.9C100.96 108.757 100.543 108.762 100.099 108.917ZM107.237 113.072L103.655 102.804L105.563 102.14L109.145 112.408L107.237 113.072ZM107.883 100.824C108.229 100.704 108.551 100.711 108.848 100.847C109.142 100.974 109.346 101.202 109.461 101.531C109.575 101.86 109.559 102.17 109.411 102.461C109.263 102.752 109.016 102.957 108.669 103.078C108.331 103.196 108.009 103.188 107.704 103.055C107.407 102.919 107.201 102.687 107.086 102.358C106.975 102.038 106.993 101.732 107.141 101.442C107.297 101.148 107.545 100.942 107.883 100.824ZM110.663 111.88L108.104 104.546L110.011 103.882L112.57 111.216L110.663 111.88ZM116.371 101.668L118.398 100.963L118.436 109.174L116.155 109.968L111.076 103.511L113.103 102.806L116.568 107.506L116.371 101.668ZM122.579 99.328C123.779 98.9102 124.871 98.994 125.853 99.5793C126.844 100.162 127.504 101.083 127.834 102.344L122.206 104.303C122.466 104.85 122.823 105.215 123.275 105.396C123.727 105.578 124.211 105.579 124.727 105.399C125.101 105.269 125.406 105.073 125.644 104.811C125.878 104.54 126.008 104.241 126.033 103.913L128.007 103.226C128.038 104.142 127.801 104.922 127.298 105.566C126.795 106.21 126.125 106.677 125.289 106.968C124.151 107.364 123.096 107.328 122.125 106.858C121.153 106.389 120.475 105.603 120.091 104.501C119.706 103.398 119.747 102.357 120.213 101.378C120.679 100.398 121.467 99.7149 122.579 99.328ZM123.115 100.906C122.661 101.064 122.327 101.32 122.111 101.674C121.893 102.019 121.792 102.418 121.811 102.87L125.318 101.649C125.069 101.278 124.751 101.024 124.365 100.89C123.976 100.746 123.559 100.751 123.115 100.906ZM131.827 96.1092C131.951 96.0659 132.097 96.0253 132.263 95.9873L132.947 97.9475C132.745 97.9978 132.586 98.0431 132.471 98.0833C131.795 98.3185 131.31 98.6867 131.016 99.1877C130.728 99.6768 130.725 100.326 131.007 101.135L132.147 104.402L130.24 105.066L127.681 97.7316L129.588 97.0677L130.035 98.3478C130.154 97.2299 130.751 96.4837 131.827 96.1092ZM138.549 93.9489L140.59 93.2386L139.536 105.568L137.509 106.274L137.927 101.298L132.88 95.9219L134.908 95.2163L138.22 98.8787L138.549 93.9489Z" fill="#4E43DF"/>
</svg>
