<svg width="17" height="20" viewBox="0 0 17 20" fill="none" xmlns="http://www.w3.org/2000/svg">
<path d="M10.0002 0H6.36381C6.06257 0 5.81836 0.244208 5.81836 0.545455V1.63636C5.81836 1.93761 6.06257 2.18182 6.36381 2.18182H10.0002C10.3014 2.18182 10.5456 1.93761 10.5456 1.63636V0.545455C10.5456 0.244208 10.3014 0 10.0002 0Z" fill="#4E43DF"/>
<path d="M8.18182 11.8185V5.63672C4.77314 5.63672 2 8.40986 2 11.8185C2 15.2272 4.77314 18.0004 8.18182 18.0004C11.5905 18.0004 14.3636 15.2272 14.3636 11.8185H8.18182Z" fill="#4E43DF"/>
<path d="M14.1645 6.24261L14.7493 5.6577C14.8006 5.6072 14.8415 5.54704 14.8694 5.48069C14.8974 5.41433 14.9119 5.3431 14.9122 5.2711C14.9125 5.19909 14.8986 5.12774 14.8711 5.06117C14.8437 4.99459 14.8034 4.9341 14.7525 4.88318C14.7016 4.83227 14.6411 4.79194 14.5745 4.76452C14.5079 4.7371 14.4366 4.72313 14.3646 4.72343C14.2926 4.72372 14.2213 4.73827 14.155 4.76623C14.0886 4.79419 14.0285 4.83501 13.978 4.88634L13.3692 5.49502C12.1969 4.5293 10.7781 3.91048 9.27273 3.70838V2.72656H7.09091V3.70838C5.58561 3.9104 4.16673 4.52913 2.99441 5.49474L2.38568 4.88606C2.33519 4.83474 2.27503 4.79391 2.20867 4.76595C2.14232 4.73799 2.07109 4.72345 1.99908 4.72315C1.92708 4.72286 1.85573 4.73683 1.78915 4.76425C1.72257 4.79166 1.66208 4.83199 1.61117 4.88291C1.56025 4.93382 1.51992 4.99431 1.4925 5.06089C1.46508 5.12747 1.45112 5.19882 1.45141 5.27082C1.4517 5.34283 1.46625 5.41406 1.49421 5.48041C1.52217 5.54677 1.56299 5.60693 1.61432 5.65743L2.19918 6.24234C0.784744 7.75402 -0.00151239 9.74725 2.1841e-06 11.8175C2.1841e-06 16.3289 3.67037 19.9993 8.18182 19.9993C12.6933 19.9993 16.3636 16.3289 16.3636 11.8175C16.3651 9.74735 15.5788 7.75422 14.1645 6.24261V6.24261ZM8.18182 18.5447C6.85129 18.5447 5.55064 18.1502 4.44435 17.411C3.33805 16.6718 2.4758 15.6211 1.96663 14.3919C1.45746 13.1626 1.32424 11.81 1.58381 10.505C1.84338 9.20008 2.48409 8.0014 3.42492 7.06057C4.36575 6.11975 5.56443 5.47904 6.86939 5.21946C8.17436 4.95989 9.52699 5.09311 10.7562 5.60228C11.9855 6.11145 13.0361 6.9737 13.7753 8.08C14.5145 9.18629 14.9091 10.4869 14.9091 11.8175C14.9091 12.7009 14.7351 13.5757 14.397 14.3919C14.0589 15.2081 13.5634 15.9497 12.9387 16.5744C12.314 17.1991 11.5724 17.6946 10.7562 18.0327C9.94005 18.3707 9.06526 18.5447 8.18182 18.5447V18.5447Z" fill="#4E43DF"/>
</svg>
