<svg width="69" height="69" viewBox="0 0 69 69" fill="none" xmlns="http://www.w3.org/2000/svg">
<path fill-rule="evenodd" clip-rule="evenodd" d="M34.5 3.17593C17.2002 3.17593 3.17593 17.2002 3.17593 34.5C3.17593 51.7998 17.2002 65.8241 34.5 65.8241C51.7998 65.8241 65.8241 51.7998 65.8241 34.5C65.8241 17.2002 51.7998 3.17593 34.5 3.17593ZM0 34.5C0 15.4462 15.4462 0 34.5 0C53.5538 0 69 15.4462 69 34.5C69 53.5538 53.5538 69 34.5 69C15.4462 69 0 53.5538 0 34.5Z" fill="url(#paint0_linear_335_2441)"/>
<path d="M22.0903 42.5993H33.5156V47.7706H13.2667V43.8921L20.959 37.1239C23.7997 34.589 25.5971 32.8907 26.3512 32.0288C27.1054 31.1669 27.4824 30.267 27.4824 29.3291C27.4824 28.3658 27.1305 27.5547 26.4266 26.8956C25.7479 26.2112 24.7549 25.869 23.4477 25.869C20.8836 25.869 19.3879 27.2758 18.9605 30.0896H13.5307C13.7066 27.2251 14.7247 24.9437 16.585 23.2453C18.4703 21.5469 20.8333 20.6978 23.674 20.6978C26.4895 20.6978 28.7393 21.5089 30.4236 23.1313C32.1079 24.7283 32.95 26.7055 32.95 29.0629C32.95 29.646 32.8746 30.2163 32.7238 30.774C32.5981 31.3063 32.4598 31.788 32.309 32.2189C32.1833 32.6245 31.8942 33.1188 31.4417 33.7018C30.9892 34.2595 30.6373 34.7031 30.3859 35.0327C30.1597 35.3368 29.682 35.8311 28.953 36.5156C28.224 37.2 27.6961 37.6943 27.3693 37.9985C27.0425 38.2773 26.3889 38.8477 25.4085 39.7096L22.1657 42.5613L22.0903 42.5993Z" fill="white"/>
<path d="M56.2647 36.8578V41.9149L52.5694 41.9529V47.7706H47.1772V41.9529H34.0927V36.8578L44.6131 21.154H52.5694V36.8198L56.2647 36.8578ZM39.862 36.8198H47.1772V26.2112H46.8378L39.862 36.8198Z" fill="white"/>
<defs>
<linearGradient id="paint0_linear_335_2441" x1="54.6565" y1="56.799" x2="21.7051" y2="20.6588" gradientUnits="userSpaceOnUse">
<stop stop-color="#4E43DF"/>
<stop offset="1" stop-color="white"/>
</linearGradient>
</defs>
</svg>
