<svg width="40" height="40" viewBox="0 0 40 40" fill="none" xmlns="http://www.w3.org/2000/svg">
<path d="M19.1905 5.20974C19.6939 4.93009 20.306 4.93009 20.8093 5.20974L35.8093 13.5431C36.3384 13.837 36.6666 14.3947 36.6666 15C36.6666 15.6053 36.3384 16.163 35.8093 16.4569L20.8093 24.7903C20.306 25.0699 19.6939 25.0699 19.1905 24.7903L14.9999 22.4622V24.3687L18.3811 26.2472C19.3878 26.8065 20.612 26.8065 21.6187 26.2472L32.2498 20.341C32.4621 20.223 32.7254 20.3646 32.744 20.6068L33.2189 26.781C33.3452 28.423 32.2597 29.8893 30.6952 30.2906C29.4287 30.6154 27.6344 31.1066 26.4162 31.5614C24.9001 32.1273 23.0757 33.256 21.9304 34.0223C20.7649 34.802 19.2353 34.802 18.0698 34.0223C17.2669 33.4851 16.1302 32.7698 14.9999 32.1952V33.3333C14.9999 34.2538 14.2537 35 13.3333 35C12.4128 35 11.6666 34.2538 11.6666 33.3333V30.937C10.8417 30.694 9.9949 30.4676 9.30486 30.2906C7.74032 29.8893 6.65483 28.423 6.78114 26.781L7.25606 20.607C7.2747 20.3647 7.53791 20.2232 7.7503 20.3411L11.6666 22.5169V20.8333C11.6666 20.7608 11.6713 20.6889 11.6805 20.618L4.19051 16.4569C3.66141 16.163 3.33325 15.6053 3.33325 15C3.33325 14.3947 3.6614 13.837 4.19051 13.5431L19.1905 5.20974Z" fill="#FFAE0A"/>
</svg>
