<svg width="86" height="30" viewBox="0 0 86 30" fill="none" xmlns="http://www.w3.org/2000/svg">
<g clip-path="url(#clip0_212_1293)">
<path d="M6.32256 0.634644L1.26373 11.4222V12.6913H5.6902L7.58726 10.7876L10.1167 10.1531L12.0137 12.6913L15.8079 12.0568L18.3373 11.4222L21.499 12.6913L24.0284 10.7876L24.6608 12.0568L41.102 12.6913L42.999 9.51851L44.2637 12.6913H51.852L53.749 12.0568L60.0726 12.6913L60.7049 10.7876L61.9696 10.1531L64.499 10.7876L65.7637 12.6913L70.8226 12.0568L72.0873 9.51851L73.9843 12.6913H79.0431V1.26921H75.8814L73.9843 3.17289L72.7196 1.26921L68.9255 0.634644L66.3961 2.53833L64.499 0.634644H60.0726L53.1167 1.90377L51.852 0.634644H49.9549L48.6902 1.26921L47.4255 1.90377L46.1608 1.26921L23.3961 0.634644L20.8667 5.71114L18.9696 1.26921L13.2784 0.634644L12.6461 3.80745L10.749 0.634644H6.32256Z" fill="#0571C1"/>
<path d="M7.37109 7.39612H10.3764L8.87529 3.56104L7.37109 7.39612Z" fill="white"/>
<path d="M44.6401 4.10914C44.3669 3.97363 43.9587 3.97363 43.5473 3.97363H40.8184V6.16691H43.5473C43.9555 6.16691 44.3669 6.16691 44.6401 6.03141C44.9133 5.8959 45.0483 5.48309 45.0483 5.07342C45.1834 4.5251 44.9133 4.25094 44.6401 4.11544V4.10914Z" fill="white"/>
<path d="M73.8502 0V1.64496L73.0306 0H66.615V1.64496L65.7954 0H57.0591C55.558 0 54.3302 0.27416 53.2373 0.822479V0H47.0949V0.822479C46.4135 0.27416 45.5939 0 44.5011 0H22.5253L21.0242 3.42542L19.52 0H12.558V1.64496L11.7384 0H5.8692L3.14029 6.43803L0 13.563H6.96202L7.78164 11.3697H9.69408L10.5137 13.563H18.4304V11.9181L19.1118 13.563H23.0717L23.7532 11.9181V13.563H42.7268V10.0021H43C43.1821 10.0021 43.2732 10.1387 43.2732 10.4118V13.4244H53.1023V12.6019C53.9219 13.0116 55.1498 13.4244 56.789 13.4244H60.884L61.7036 11.2311H63.616L64.4356 13.4244H72.3523V11.3697L73.5801 13.4244H79.9958V0H73.8533H73.8502ZM27.7099 11.5084H25.3892V3.97374L22.1139 11.5084H20.0665L16.7911 3.97374V11.5084H12.1498L11.1951 9.45378H6.55379L5.73417 11.6471H3.14029L7.23523 1.91912H10.6487L14.4705 11.0987V1.91912H18.1572L21.1593 8.4958L23.8882 1.91912H27.7099V11.5084ZM36.9926 3.97374H31.6698V5.7542H36.8576V7.67332H31.6698V9.59244H36.9926V11.6471H29.3492V1.91912H36.9926V3.97374ZM47.23 7.94748C47.5032 8.4958 47.6382 8.90546 47.6382 9.72794V11.6471H45.3175V10.4149C45.3175 9.8666 45.3175 9.04412 44.9093 8.4958C44.5011 8.08613 44.0897 8.08613 43.2701 8.08613H40.8144V11.6471H38.4937V1.91912H43.6814C44.9093 1.91912 45.7289 1.91912 46.4103 2.32878C47.0918 2.73845 47.5032 3.42542 47.5032 4.52206C47.5032 6.02836 46.5485 6.85084 45.8639 7.125C46.5454 7.2605 46.9568 7.67332 47.23 7.94748ZM51.3249 11.5084H49.0042V1.78046H51.3249V11.5053V11.5084ZM78.2184 11.5084H74.943L70.5749 4.2479V11.5084H65.9335L65.1139 9.45378H60.3375L59.5179 11.6471H56.924C55.8312 11.6471 54.4683 11.3729 53.6487 10.5504C52.8291 9.72794 52.4209 8.6313 52.4209 6.85084C52.4209 5.48004 52.6941 4.1124 53.6487 3.01576C54.3302 2.19328 55.5612 1.91912 57.0622 1.91912H59.2479V3.97374H57.0622C56.2426 3.97374 55.8344 4.10924 55.288 4.52206C54.8797 4.93172 54.6065 5.7542 54.6065 6.71534C54.6065 7.81197 54.7415 8.4958 55.288 9.04412C55.6962 9.45378 56.2426 9.59244 56.9272 9.59244H57.8818L61.0221 2.05777H64.4356L68.2574 11.2374V2.05462H71.6708L75.6308 8.76681V2.05462H77.9514V11.5053H78.2246L78.2184 11.5084Z" fill="white"/>
<path d="M61.1582 7.39587H64.2985L62.7943 3.56079L61.1582 7.39587Z" fill="white"/>
<path d="M37.9528 27.1229V19.3141L34.4043 23.1492L37.9528 27.1229Z" fill="white"/>
<path d="M30.9862 17.7677H20.2362V28.5553L30.3539 29.1899L32.8833 26.6516L34.7803 29.1899H41.1039L41.7362 26.017L46.795 25.3825V29.1899H51.2215V25.3825H53.1186L54.3833 29.1899L74.6186 28.5553L76.5156 29.1899H82.2068L85.3686 26.017L84.1039 21.5751L84.7362 17.1332L76.5156 17.7677H66.8704H56.2803H46.1627L36.045 17.1332L32.8833 20.306L30.9862 17.7677Z" fill="#0571C1"/>
<path d="M23.3438 20.2754V22.0559H28.3965V23.9718H23.3438V26.0264H28.9429L31.5368 23.1493L29.0779 20.2754H23.3438Z" fill="white"/>
<path d="M43.1366 20.2754H40.2695V22.7397H43.2716C44.0913 22.7397 44.6377 22.33 44.6377 21.5075C44.5026 20.6851 43.9562 20.2754 43.1366 20.2754Z" fill="white"/>
<path d="M85.3175 22.6038V16.4399H79.5833C78.3554 16.4399 77.3976 16.7141 76.7162 17.2624V16.4399H70.4356C69.481 16.4399 68.25 16.7141 67.7067 17.2624V16.4399H56.6497V17.2624C55.8301 16.5786 54.3291 16.4399 53.6476 16.4399H46.2774V17.2624C45.5959 16.5786 43.9567 16.4399 43.1371 16.4399H34.9472L33.0348 18.4946L31.2605 16.4399H18.9725V29.8643H30.9841L32.8966 27.8097L34.6709 29.8643H42.0411V26.7131H42.9958C43.9504 26.7131 45.1814 26.7131 46.1361 26.3034V30.003H52.2785V26.442H52.5517C52.8238 26.442 52.9599 26.5786 52.9599 26.8517V30.003H71.5253C72.7532 30.003 73.981 29.7288 74.6656 29.1805V30.003H80.5348C81.7627 30.003 82.9905 29.8675 83.8101 29.3191C85.1762 28.4967 85.9958 26.9904 85.9958 25.2099C85.9958 24.2519 85.7226 23.2908 85.3143 22.607L85.3175 22.6038ZM42.9989 24.7971H40.27V28.0839H35.9018L33.1729 24.9326L30.3058 28.0839H21.2963V18.3591H30.444L33.1729 21.5103L36.04 18.3591H43.2752C45.0495 18.3591 47.097 18.9074 47.097 21.5103C46.9619 24.2488 45.0495 24.7971 43.002 24.7971H42.9989ZM56.6497 24.2488C56.9229 24.6584 57.058 25.2067 57.058 26.0292V27.9483H54.7373V26.7162C54.7373 26.1679 54.7373 25.2099 54.3291 24.7971C54.0559 24.3874 53.5095 24.3874 52.6898 24.3874H50.2341V27.9483H47.9135V18.2236H53.1012C54.194 18.2236 55.1487 18.2236 55.8301 18.6332C56.5116 19.0429 57.058 19.7299 57.058 20.8265C57.058 22.3328 56.1033 23.1553 55.4188 23.4294C56.1002 23.7036 56.5116 23.9778 56.6466 24.2519L56.6497 24.2488ZM66.0675 20.275H60.7447V22.0555H65.9324V23.9746H60.7447V25.8937H66.0675V27.9483H58.424V18.2236H66.0675V20.2782V20.275ZM71.8016 27.9452H67.4335V25.8906H71.8016C72.2099 25.8906 72.4831 25.8906 72.7563 25.6164C72.8913 25.4809 73.0295 25.2067 73.0295 24.9326C73.0295 24.6584 72.8945 24.3843 72.7563 24.2488C72.6213 24.1133 72.3481 23.9746 71.9367 23.9746C69.751 23.8391 67.1603 23.9746 67.1603 20.962C67.1603 19.5912 67.9799 18.0849 70.4356 18.0849H74.9419V20.4137H70.7088C70.3006 20.4137 70.0274 20.4137 69.7542 20.5492C69.481 20.6847 69.481 20.9588 69.481 21.233C69.481 21.6427 69.7542 21.7813 70.0274 21.9168C70.3006 22.0523 70.5738 22.0523 70.847 22.0523H72.0749C73.3027 22.0523 74.1223 22.3265 74.6687 22.8748C75.077 23.2845 75.3502 23.9715 75.3502 24.9294C75.3502 26.9841 74.1223 27.942 71.8016 27.942V27.9452ZM83.5401 26.9872C82.9936 27.5355 82.039 27.9452 80.673 27.9452H76.3048V25.8906H80.673C81.0812 25.8906 81.3544 25.8906 81.6276 25.6164C81.7627 25.4809 81.9008 25.2067 81.9008 24.9326C81.9008 24.6584 81.7658 24.3843 81.6276 24.2488C81.4926 24.1133 81.2194 23.9746 80.808 23.9746C78.6224 23.8391 76.0316 23.9746 76.0316 20.962C76.0316 19.5912 76.8512 18.0849 79.3069 18.0849H83.8133V20.4137H79.7183C79.3101 20.4137 79.0369 20.4137 78.7637 20.5492C78.4905 20.6847 78.4905 20.9588 78.4905 21.233C78.4905 21.6427 78.6255 21.7813 79.0369 21.9168C79.3101 22.0523 79.5833 22.0523 79.8565 22.0523H81.0843C82.3122 22.0523 83.1318 22.3265 83.6782 22.8748C83.8133 22.8748 83.8133 23.0103 83.8133 23.0103C84.2215 23.5586 84.3597 24.2425 84.3597 24.9294C84.3597 25.7519 84.0865 26.4357 83.5401 26.9841V26.9872Z" fill="white"/>
<path d="M44.6401 4.10914C44.3669 3.97363 43.9587 3.97363 43.5473 3.97363H40.8184V6.16691H43.5473C43.9555 6.16691 44.3669 6.16691 44.6401 6.03141C44.9133 5.8959 45.0483 5.48309 45.0483 5.07342C45.1834 4.5251 44.9133 4.25094 44.6401 4.11544V4.10914Z" fill="white"/>
<path d="M61.1582 7.39587H64.2985L62.7943 3.56079L61.1582 7.39587Z" fill="white"/>
<path d="M37.9528 27.1229V19.3141L34.4043 23.1492L37.9528 27.1229Z" fill="white"/>
<path d="M43.1366 20.2754H40.2695V22.7397H43.2716C44.0913 22.7397 44.6377 22.33 44.6377 21.5075C44.5026 20.6851 43.9562 20.2754 43.1366 20.2754Z" fill="white"/>
<path d="M53.455 20.2754H50.5879V22.7397H53.59C54.4096 22.7397 54.956 22.33 54.956 21.5075C54.821 20.6851 54.2746 20.2754 53.455 20.2754Z" fill="white"/>
<path d="M73.5781 13.0149L73.8513 13.4246H73.9895L73.5781 13.0149Z" fill="white"/>
</g>
<defs>
<clipPath id="clip0_212_1293">
<rect width="86" height="30" fill="white"/>
</clipPath>
</defs>
</svg>
