<svg width="65" height="32" viewBox="0 0 65 32" fill="none" xmlns="http://www.w3.org/2000/svg">
<path d="M12.51 6.35205C11.7717 7.23026 10.5904 7.92293 9.40919 7.82398C9.26153 6.63654 9.83985 5.37488 10.5166 4.59562C11.2549 3.69267 12.5469 3.04948 13.5928 3C13.7158 4.23692 13.2359 5.4491 12.51 6.35205ZM13.5805 8.05899C11.8701 7.96004 10.4059 9.03616 9.59376 9.03616C8.76934 9.03616 7.52657 8.10847 6.17306 8.13321C4.41349 8.15794 2.77696 9.15985 1.87872 10.7555C0.0330173 13.9467 1.39884 18.6717 3.18302 21.2693C4.05665 22.5557 5.10255 23.9657 6.48067 23.9163C7.78497 23.8668 8.30177 23.0628 9.87677 23.0628C11.4641 23.0628 11.9193 23.9163 13.2975 23.8915C14.7248 23.8668 15.6231 22.6051 16.4967 21.3187C17.4934 19.8592 17.8994 18.4367 17.924 18.3625C17.8994 18.3378 15.1678 17.2864 15.1432 14.1199C15.1186 11.4729 17.2965 10.2112 17.3949 10.137C16.1645 8.30638 14.2449 8.10847 13.5805 8.05899ZM23.4611 4.47193V23.7555H26.4389V17.1627H30.5609C34.3262 17.1627 36.9717 14.5652 36.9717 10.8049C36.9717 7.04472 34.3754 4.47193 30.6594 4.47193H23.4611ZM26.4389 6.99524H29.8719C32.4559 6.99524 33.9324 8.38059 33.9324 10.8173C33.9324 13.254 32.4559 14.6518 29.8596 14.6518H26.4389V6.99524ZM42.4104 23.9039C44.2807 23.9039 46.0156 22.9515 46.8031 21.4424H46.8646V23.7555H49.6209V14.157C49.6209 11.3739 47.4061 9.5804 43.9977 9.5804C40.8354 9.5804 38.4975 11.3987 38.4113 13.8972H41.0938C41.3152 12.7098 42.4104 11.9305 43.9115 11.9305C45.7326 11.9305 46.7539 12.784 46.7539 14.3549V15.4186L43.0379 15.6413C39.5803 15.8516 37.71 17.274 37.71 19.7479C37.71 22.2464 39.6418 23.9039 42.4104 23.9039ZM43.2102 21.6156C41.6229 21.6156 40.6139 20.8487 40.6139 19.6736C40.6139 18.4615 41.5859 17.7564 43.4439 17.6451L46.7539 17.4348V18.5233C46.7539 20.3292 45.2281 21.6156 43.2102 21.6156ZM53.3 29C56.2039 29 57.5697 27.8868 58.7633 24.51L63.9928 9.76594H60.9658L57.459 21.1579H57.3975L53.8906 9.76594H50.7775L55.8225 23.8049L55.5518 24.6584C55.0965 26.1056 54.3582 26.6622 53.0416 26.6622C52.8078 26.6622 52.3525 26.6375 52.168 26.6127V28.9258C52.3402 28.9753 53.0785 29 53.3 29Z" fill="white"/>
</svg>
