<svg width="40" height="40" viewBox="0 0 40 40" fill="none" xmlns="http://www.w3.org/2000/svg">
<circle cx="20" cy="20" r="19" stroke="#4E43DF" stroke-width="2"/>
<path d="M12 21C11.4477 21 11 20.5523 11 20C11 19.4477 11.4477 19 12 19V21ZM28.7071 19.2929C29.0976 19.6834 29.0976 20.3166 28.7071 20.7071L22.3431 27.0711C21.9526 27.4616 21.3195 27.4616 20.9289 27.0711C20.5384 26.6805 20.5384 26.0474 20.9289 25.6569L26.5858 20L20.9289 14.3431C20.5384 13.9526 20.5384 13.3195 20.9289 12.9289C21.3195 12.5384 21.9526 12.5384 22.3431 12.9289L28.7071 19.2929ZM12 19L28 19V21L12 21V19Z" fill="#4E43DF"/>
</svg>
