<svg width="282" height="136" viewBox="0 0 282 136" fill="none" xmlns="http://www.w3.org/2000/svg">
<path d="M268.181 134.447C271.801 131.836 279.04 126.614 279.04 126.614L265 122.046" stroke="#4E43DF" stroke-width="2" stroke-linecap="round"/>
<path d="M177.324 26.8546L178.074 26.1927L177.324 26.8546ZM148.772 111.827L149.382 111.035L148.772 111.827ZM1 3.3327C1.09192 4.32847 1.09192 4.32847 1.09191 4.32847C1.09192 4.32847 1.09191 4.32847 1.09192 4.32847C1.09193 4.32847 1.09194 4.32847 1.09197 4.32847C1.09203 4.32846 1.09213 4.32845 1.09227 4.32844C1.09254 4.32841 1.09298 4.32837 1.09358 4.32832C1.09478 4.32821 1.09663 4.32804 1.09912 4.32781C1.1041 4.32735 1.11166 4.32666 1.12178 4.32574C1.14201 4.32389 1.17248 4.32113 1.21303 4.31748C1.29412 4.31019 1.41552 4.29937 1.57598 4.28534C1.89689 4.25727 2.374 4.21634 2.99729 4.16505L2.83324 2.17178C2.20644 2.22337 1.72592 2.26459 1.40172 2.29294C1.23961 2.30712 1.11659 2.31808 1.0339 2.32552C0.992555 2.32924 0.961293 2.33208 0.94027 2.33399C0.929758 2.33495 0.921807 2.33568 0.916435 2.33617C0.913749 2.33642 0.911708 2.3366 0.910314 2.33673C0.909617 2.3368 0.909082 2.33685 0.908709 2.33688C0.908522 2.3369 0.908376 2.33691 0.908271 2.33692C0.908218 2.33692 0.908176 2.33693 0.908143 2.33693C0.908127 2.33693 0.90811 2.33693 0.908102 2.33694C0.908088 2.33694 0.908076 2.33694 1 3.3327ZM6.9436 3.8587C8.10665 3.77315 9.42834 3.67973 10.8952 3.58176L10.7619 1.5862C9.29041 1.68449 7.96425 1.77823 6.79689 1.86409L6.9436 3.8587ZM14.835 3.33062C16.079 3.25502 17.3949 3.17846 18.7775 3.10226L18.6674 1.10529C17.281 1.1817 15.9614 1.25848 14.7137 1.33431L14.835 3.33062ZM22.6843 2.89754C23.9519 2.83452 25.2639 2.77261 26.6169 2.7126L26.5282 0.714565C25.1716 0.774741 23.8561 0.836818 22.585 0.900002L22.6843 2.89754ZM30.5835 2.54728C31.8702 2.49711 33.1878 2.44908 34.5339 2.40378L34.4666 0.404912C33.1169 0.450332 31.7958 0.498489 30.5056 0.548803L30.5835 2.54728ZM38.4574 2.28223C39.759 2.2454 41.0835 2.21141 42.4288 2.18074L42.3832 0.181259C41.0341 0.212019 39.706 0.246101 38.4008 0.283035L38.4574 2.28223ZM46.3596 2.10197C47.6592 2.07954 48.9755 2.06043 50.3071 2.04502L50.284 0.0451562C48.9485 0.0606065 47.6283 0.0797728 46.3251 0.102266L46.3596 2.10197ZM54.2664 2.01076C55.565 2.00335 56.8762 1.99965 58.1985 2.00003L58.199 2.55108e-05C56.8726 -0.000346541 55.5575 0.00335604 54.2549 0.0107944L54.2664 2.01076ZM62.1687 2.01347C63.4681 2.02196 64.7766 2.03455 66.0931 2.05157L66.1189 0.0517406C64.7981 0.0346655 63.4853 0.0220261 62.1818 0.0135153L62.1687 2.01347ZM70.0531 2.11596C71.3581 2.14158 72.6694 2.17174 73.9861 2.20673L74.0392 0.207441C72.7178 0.172324 71.4018 0.142055 70.0924 0.116344L70.0531 2.11596ZM77.9376 2.32603C79.2463 2.37034 80.5589 2.41963 81.8745 2.47418L81.9574 0.475897C80.6366 0.421134 79.3189 0.371653 78.0053 0.327174L77.9376 2.32603ZM85.8191 2.65339C87.1299 2.71823 88.4424 2.78853 89.7556 2.86455L89.8712 0.86789C88.5523 0.79154 87.2341 0.720946 85.9179 0.655833L85.8191 2.65339ZM93.6938 3.10989C95.0054 3.19749 96.3165 3.29107 97.6261 3.39089L97.7782 1.39668C96.4621 1.29637 95.1447 1.20234 93.8271 1.11433L93.6938 3.10989ZM101.558 3.71007C102.869 3.82316 104.177 3.94282 105.482 4.06931L105.675 2.07864C104.363 1.95145 103.047 1.83115 101.729 1.71747L101.558 3.71007ZM109.406 4.47199C110.715 4.61391 112.018 4.76309 113.316 4.91979L113.556 2.93421C112.25 2.77651 110.938 2.62641 109.621 2.48364L109.406 4.47199ZM117.231 5.41823C118.535 5.59314 119.832 5.7761 121.12 5.96741L121.414 3.9891C120.116 3.79637 118.81 3.61209 117.497 3.43597L117.231 5.41823ZM125.023 6.57746C126.32 6.79054 127.606 7.01261 128.88 7.24399L129.238 5.27617C127.952 5.04272 126.655 4.81875 125.348 4.60394L125.023 6.57746ZM132.767 7.98652C134.059 8.24591 135.337 8.51558 136.599 8.79586L137.033 6.8434C135.757 6.56007 134.466 6.28761 133.161 6.02567L132.767 7.98652ZM140.439 9.69335C141.725 10.0097 142.992 10.3381 144.24 10.6788L144.767 8.74944C143.502 8.40408 142.218 8.0715 140.916 7.75125L140.439 9.69335ZM147.996 11.7611C149.272 12.1489 150.524 12.551 151.749 12.9677L152.393 11.0742C151.146 10.6501 149.874 10.2414 148.578 9.84751L147.996 11.7611ZM155.415 14.2893C156.655 14.7635 157.864 15.2545 159.038 15.763L159.833 13.9276C158.63 13.407 157.395 12.905 156.129 12.4211L155.415 14.2893ZM162.593 17.4082C163.777 17.9949 164.919 18.6021 166.016 19.2303L167.01 17.4948C165.876 16.8453 164.699 16.2193 163.48 15.6159L162.593 17.4082ZM169.294 21.263C170.396 22.0053 171.44 22.7734 172.421 23.5681L173.68 22.0138C172.65 21.1794 171.558 20.3765 170.41 19.6038L169.294 21.263ZM175.283 26.1409C175.732 26.5918 176.163 27.0503 176.575 27.5165L178.074 26.1927C177.635 25.6955 177.177 25.2078 176.7 24.7294L175.283 26.1409ZM176.575 27.5165C177.026 28.0278 177.441 28.5369 177.821 29.0436L179.421 27.8434C179.007 27.2921 178.559 26.7419 178.074 26.1927L176.575 27.5165ZM179.799 32.2624C180.37 33.4484 180.764 34.6241 181.003 35.791L182.963 35.3895C182.689 34.0556 182.241 32.7238 181.601 31.3952L179.799 32.2624ZM181.263 39.507C181.189 40.7389 180.962 41.9754 180.596 43.2183L182.515 43.7824C182.918 42.4104 183.176 41.0248 183.26 39.6271L181.263 39.507ZM179.201 46.7676C178.654 47.8881 178.012 49.0119 177.285 50.1392L178.966 51.2227C179.729 50.0389 180.413 48.8459 180.998 47.644L179.201 46.7676ZM175.016 53.3392C174.233 54.3563 173.394 55.3737 172.511 56.3918L174.021 57.7029C174.926 56.6599 175.79 55.612 176.601 54.5593L175.016 53.3392ZM169.851 59.3234C168.956 60.2733 168.031 61.2226 167.085 62.1716L168.501 63.5836C169.457 62.6241 170.396 61.6613 171.306 60.6954L169.851 59.3234ZM164.246 64.9662C163.294 65.8891 162.331 66.8109 161.365 67.7324L162.745 69.1795C163.713 68.2566 164.68 67.3306 165.638 66.4023L164.246 64.9662ZM158.467 70.4945C157.495 71.4229 156.529 72.351 155.577 73.2781L156.972 74.7109C157.918 73.7901 158.879 72.867 159.849 71.9407L158.467 70.4945ZM152.72 76.1109C151.761 77.0823 150.827 78.0537 149.928 79.0249L151.396 80.3835C152.277 79.431 153.196 78.4753 154.143 77.5159L152.72 76.1109ZM147.245 82.0583C146.352 83.1232 145.511 84.1898 144.739 85.258L146.359 86.4302C147.099 85.4071 147.909 84.3785 148.777 83.344L147.245 82.0583ZM142.503 88.7013C141.791 89.9495 141.188 91.2055 140.719 92.4685L142.594 93.1642C143.019 92.0194 143.572 90.8624 144.24 89.6924L142.503 88.7013ZM139.706 96.5589C139.539 97.9817 139.572 99.4095 139.84 100.838L141.806 100.469C141.578 99.2516 141.547 98.0278 141.693 96.793L139.706 96.5589ZM141.256 104.881C141.861 106.046 142.64 107.199 143.601 108.338L145.13 107.049C144.254 106.01 143.561 104.98 143.03 103.959L141.256 104.881ZM146.515 111.273C147.032 111.723 147.581 112.172 148.161 112.619L149.382 111.035C148.831 110.611 148.314 110.187 147.829 109.765L146.515 111.273ZM148.161 112.619C148.687 113.024 149.23 113.42 149.791 113.805L150.925 112.158C150.392 111.791 149.878 111.417 149.382 111.035L148.161 112.619ZM153.242 115.948C154.39 116.593 155.591 117.208 156.839 117.795L157.691 115.986C156.482 115.417 155.324 114.824 154.222 114.204L153.242 115.948ZM160.537 119.4C161.758 119.889 163.015 120.356 164.306 120.802L164.959 118.912C163.697 118.476 162.47 118.02 161.281 117.543L160.537 119.4ZM168.128 122.035C169.391 122.416 170.679 122.778 171.991 123.124L172.501 121.191C171.21 120.85 169.944 120.493 168.705 120.12L168.128 122.035ZM175.885 124.089C177.167 124.387 178.467 124.67 179.782 124.94L180.184 122.981C178.885 122.714 177.602 122.434 176.338 122.141L175.885 124.089ZM183.702 125.697C185.002 125.933 186.316 126.157 187.639 126.369L187.956 124.394C186.645 124.184 185.345 123.962 184.059 123.729L183.702 125.697ZM191.59 126.965C192.902 127.151 194.221 127.326 195.546 127.491L195.793 125.507C194.479 125.343 193.171 125.169 191.871 124.985L191.59 126.965ZM199.504 127.954C200.824 128.099 202.147 128.234 203.472 128.36L203.662 126.369C202.346 126.244 201.032 126.109 199.722 125.966L199.504 127.954ZM207.443 128.713C208.768 128.822 210.092 128.923 211.414 129.016L211.555 127.021C210.241 126.928 208.924 126.828 207.607 126.719L207.443 128.713ZM215.393 129.273C216.726 129.352 218.053 129.424 219.374 129.488L219.471 127.49C218.157 127.426 216.837 127.355 215.511 127.277L215.393 129.273ZM223.351 129.662C224.685 129.714 226.009 129.759 227.322 129.798L227.381 127.799C226.075 127.76 224.756 127.715 223.429 127.664L223.351 129.662ZM231.309 129.898C232.656 129.926 233.986 129.948 235.298 129.964L235.322 127.964C234.016 127.948 232.691 127.926 231.351 127.899L231.309 129.898ZM239.282 129.996C240.635 130.001 241.963 130.001 243.263 129.996L243.256 127.996C241.96 128.001 240.637 128.001 239.29 127.996L239.282 129.996ZM247.242 129.965C248.607 129.949 249.935 129.929 251.221 129.904L251.182 127.904C249.901 127.929 248.578 127.95 247.219 127.965L247.242 129.965ZM255.204 129.812C256.598 129.775 257.93 129.733 259.191 129.69L259.122 127.691C257.866 127.734 256.539 127.776 255.15 127.813L255.204 129.812ZM263.17 129.537C264.635 129.474 265.961 129.411 267.132 129.351L267.03 127.354C265.864 127.414 264.544 127.477 263.085 127.539L263.17 129.537ZM271.13 129.126C271.76 129.086 272.245 129.054 272.573 129.031C272.738 129.02 272.862 129.011 272.946 129.005C272.988 129.002 273.02 129 273.042 128.998C273.052 128.997 273.06 128.997 273.066 128.996C273.069 128.996 273.071 128.996 273.072 128.996C273.073 128.996 273.073 128.996 273.074 128.996C273.074 128.996 273.074 128.996 273.074 128.996C273.074 128.996 273.074 128.996 273.074 128.996C273.074 128.996 273.074 128.996 273.074 128.996C273.074 128.996 273.075 128.996 273 127.999C272.926 127.001 272.926 127.001 272.926 127.001C272.926 127.001 272.926 127.001 272.926 127.001C272.926 127.001 272.926 127.001 272.925 127.001C272.925 127.001 272.925 127.001 272.925 127.001C272.925 127.001 272.924 127.001 272.924 127.001C272.923 127.002 272.921 127.002 272.918 127.002C272.913 127.002 272.906 127.003 272.895 127.004C272.875 127.005 272.844 127.007 272.803 127.01C272.721 127.016 272.598 127.025 272.436 127.036C272.112 127.058 271.631 127.09 271.005 127.129L271.13 129.126Z" fill="#4E43DF"/>
</svg>
