<svg width="50" height="50" viewBox="0 0 50 50" fill="none" xmlns="http://www.w3.org/2000/svg">
<circle r="25" transform="matrix(-1 0 0 1 25 25)" fill="#4E43DF"/>
<path d="M35 26.3156C35.7266 26.3156 36.3156 25.7266 36.3156 25C36.3156 24.2734 35.7266 23.6844 35 23.6844V26.3156ZM14.0697 24.0697C13.556 24.5835 13.556 25.4165 14.0697 25.9303L22.4421 34.3026C22.9559 34.8164 23.7888 34.8164 24.3026 34.3026C24.8164 33.7888 24.8164 32.9559 24.3026 32.4421L16.8605 25L24.3026 17.5579C24.8164 17.0441 24.8164 16.2112 24.3026 15.6974C23.7888 15.1836 22.9559 15.1836 22.4421 15.6974L14.0697 24.0697ZM35 23.6844L15 23.6844V26.3156L35 26.3156V23.6844Z" fill="white"/>
</svg>
