<svg width="50" height="50" viewBox="0 0 50 50" fill="none" xmlns="http://www.w3.org/2000/svg">
<circle cx="25" cy="25" r="25" fill="#4E43DF"/>
<path d="M15 26.3156C14.2734 26.3156 13.6844 25.7266 13.6844 25C13.6844 24.2734 14.2734 23.6844 15 23.6844V26.3156ZM35.9303 24.0697C36.444 24.5835 36.444 25.4165 35.9303 25.9303L27.5579 34.3026C27.0441 34.8164 26.2112 34.8164 25.6974 34.3026C25.1836 33.7888 25.1836 32.9559 25.6974 32.4421L33.1395 25L25.6974 17.5579C25.1836 17.0441 25.1836 16.2112 25.6974 15.6974C26.2112 15.1836 27.0441 15.1836 27.5579 15.6974L35.9303 24.0697ZM15 23.6844L35 23.6844V26.3156L15 26.3156V23.6844Z" fill="white"/>
</svg>
