<svg width="36" height="36" viewBox="0 0 36 36" fill="none" xmlns="http://www.w3.org/2000/svg">
<circle cx="18" cy="18" r="18" transform="matrix(1 0 0 -1 0 36)" fill="url(#paint0_linear_502_4856)"/>
<path d="M25.3998 17C25.9521 17 26.3998 17.4477 26.3998 18C26.3998 18.5523 25.9521 19 25.3998 19V17ZM10.2927 18.7071C9.90221 18.3166 9.90221 17.6834 10.2927 17.2929L16.6567 10.9289C17.0472 10.5384 17.6804 10.5384 18.0709 10.9289C18.4614 11.3195 18.4614 11.9526 18.0709 12.3431L12.4141 18L18.0709 23.6569C18.4614 24.0474 18.4614 24.6805 18.0709 25.0711C17.6804 25.4616 17.0472 25.4616 16.6567 25.0711L10.2927 18.7071ZM25.3998 19L10.9998 19V17L25.3998 17V19Z" fill="white"/>
<defs>
<linearGradient id="paint0_linear_502_4856" x1="31.5918" y1="27.225" x2="7.1644" y2="25.419" gradientUnits="userSpaceOnUse">
<stop stop-color="#4E43DF"/>
<stop offset="1" stop-color="#4365DF"/>
</linearGradient>
</defs>
</svg>
