<svg width="36" height="36" viewBox="0 0 36 36" fill="none" xmlns="http://www.w3.org/2000/svg">
<circle cx="18" cy="18" r="18" transform="matrix(-1 0 0 1 36 0)" fill="url(#paint0_linear_502_4853)"/>
<path d="M10.6002 19C10.0479 19 9.60016 18.5523 9.60016 18C9.60016 17.4477 10.0479 17 10.6002 17V19ZM25.7073 17.2929C26.0978 17.6834 26.0978 18.3166 25.7073 18.7071L19.3433 25.0711C18.9528 25.4616 18.3196 25.4616 17.9291 25.0711C17.5386 24.6805 17.5386 24.0474 17.9291 23.6569L23.5859 18L17.9291 12.3431C17.5386 11.9526 17.5386 11.3195 17.9291 10.9289C18.3196 10.5384 18.9528 10.5384 19.3433 10.9289L25.7073 17.2929ZM10.6002 17L25.0002 17V19H10.6002V17Z" fill="white"/>
<defs>
<linearGradient id="paint0_linear_502_4853" x1="31.5918" y1="27.225" x2="7.1644" y2="25.419" gradientUnits="userSpaceOnUse">
<stop stop-color="#4E43DF"/>
<stop offset="1" stop-color="#4365DF"/>
</linearGradient>
</defs>
</svg>
