<svg width="24" height="24" viewBox="0 0 24 24" fill="none" xmlns="http://www.w3.org/2000/svg">
<path fill-rule="evenodd" clip-rule="evenodd" d="M11.1033 19.0717L11.9594 19.9279H3L3 17.9369C3 15.2889 8.30597 13.9549 10.9639 13.9549C11.2825 13.9549 11.5712 13.9748 11.9594 14.0146L11.1232 14.8309C9.93857 15.9857 9.92862 17.8971 11.1033 19.0717ZM14.9459 7.98196C14.9459 10.182 13.164 11.9639 10.9639 11.9639C8.76389 11.9639 6.98196 10.182 6.98196 7.98196C6.98196 5.78193 8.76389 4 10.9639 4C13.164 4 14.9459 5.78193 14.9459 7.98196ZM12.647 17.6281L14.7077 19.7087C15.0959 20.0969 15.733 20.0969 16.1213 19.7087L21.2381 14.5521C21.6164 14.1738 21.6164 13.5566 21.2381 13.1683L21.2281 13.1584C20.8399 12.7701 20.2127 12.7701 19.8245 13.1584L15.4145 17.5983L14.0506 16.2344C13.6724 15.8462 13.0452 15.8462 12.657 16.2344L12.647 16.2444C12.2687 16.6227 12.2687 17.2399 12.647 17.6281Z" fill="#4E43DF"/>
</svg>
