<svg width="709" height="381" viewBox="0 0 709 381" fill="none" xmlns="http://www.w3.org/2000/svg">
<path opacity="0.3" fill-rule="evenodd" clip-rule="evenodd" d="M839.421 296.459C877.536 365.213 827.851 445.201 807.003 521.005C782.551 609.908 784.812 715.31 709.563 768.613C625.452 828.193 510.218 835.802 413.728 799.582C317.241 763.363 243.546 679.531 211.412 581.62C182.077 492.24 216.386 399.673 254.202 313.525C289.324 233.513 330.174 141.679 414.537 118.876C494.403 97.2877 558.606 178.713 634.931 210.613C705.838 240.25 802.163 229.252 839.421 296.459Z" fill="url(#paint0_linear_1686_5657)"/>
<path opacity="0.3" d="M877.263 654.142C844.008 687.109 794.898 708.267 745.914 729.37C721.907 739.713 697.929 750.043 675.864 761.744C649.087 775.942 622.993 792.66 596.968 809.334L596.966 809.335C581.812 819.043 566.682 828.737 551.455 837.909H217.576C142.089 792.498 79.9084 724.367 41.7246 647.43C-17.7862 527.52 -11.6332 386.589 47.4203 271.233C101.328 165.928 219.369 115.93 334.883 74.7711C442.17 36.5436 565.827 -6.83906 667.905 50.1487C731.99 85.926 747.83 155.213 764.088 226.328C772.346 262.45 780.712 299.045 795.563 331.958C809.358 362.53 830.161 391.685 850.695 420.465C859.817 433.249 868.885 445.958 877.263 458.685V411.909H926.263V668.909H877.263V654.142Z" fill="url(#paint1_linear_1686_5657)"/>
<defs>
<linearGradient id="paint0_linear_1686_5657" x1="848.386" y1="315.342" x2="218.077" y2="601.546" gradientUnits="userSpaceOnUse">
<stop stop-color="#0A1330"/>
<stop offset="1" stop-color="white" stop-opacity="0"/>
</linearGradient>
<linearGradient id="paint1_linear_1686_5657" x1="955.14" y1="618.844" x2="50.1877" y2="262.608" gradientUnits="userSpaceOnUse">
<stop stop-color="#0A1330"/>
<stop offset="1" stop-color="white" stop-opacity="0"/>
</linearGradient>
</defs>
</svg>
