<svg width="105" height="34" viewBox="0 0 105 34" fill="none" xmlns="http://www.w3.org/2000/svg">
<path fill-rule="evenodd" clip-rule="evenodd" d="M87.1327 2.1747C78.9759 2.1747 72.3634 8.78714 72.3634 16.944C72.3634 25.1009 78.9759 31.7133 87.1327 31.7133C95.2896 31.7133 101.902 25.1009 101.902 16.944C101.902 8.78714 95.2896 2.1747 87.1327 2.1747ZM70.866 16.944C70.866 7.96012 78.1488 0.677246 87.1327 0.677246C96.1166 0.677246 103.399 7.96012 103.399 16.944C103.399 25.9279 96.1166 33.2108 87.1327 33.2108C78.1488 33.2108 70.866 25.9279 70.866 16.944Z" fill="url(#paint0_linear_89_6786)"/>
<path d="M8.92163 8.57324H1.85742V25.3928H5.29342V19.9625H8.92163C12.5258 19.9625 14.9046 17.7519 14.9046 14.2198C14.9046 10.6877 12.5258 8.57324 8.92163 8.57324ZM8.77746 16.6947H5.29342V11.841H8.77746C10.5555 11.841 11.4205 12.7781 11.4205 14.2679C11.4205 15.7336 10.5555 16.6947 8.77746 16.6947Z" fill="black"/>
<path d="M25.4913 12.1774V14.0276C24.5783 12.7541 23.1846 11.8891 21.3105 11.8891C17.9225 11.8891 15.3035 14.7004 15.3035 18.7851C15.3035 22.8458 17.8745 25.6811 21.3345 25.6811C23.1846 25.6811 24.5542 24.8642 25.4673 23.6147V25.3928H28.9033L28.9273 12.1774H25.4913ZM22.1034 22.4133C20.2052 22.4133 18.7635 20.9717 18.7635 18.7851C18.7635 16.6226 20.1812 15.1569 22.1034 15.1569C24.0256 15.1569 25.4913 16.6226 25.4913 18.7851C25.4913 20.9717 24.0256 22.4133 22.1034 22.4133Z" fill="black"/>
<path d="M38.2013 11.8891C36.3512 11.8891 34.9336 12.7541 34.0205 14.0276V12.1774H30.5845V31.3998H34.0205V23.6147C34.9576 24.8642 36.3272 25.6811 38.2013 25.6811C41.6373 25.6811 44.2324 22.8458 44.2324 18.7851C44.2324 14.7004 41.5893 11.8891 38.2013 11.8891ZM37.4084 22.4133C35.4862 22.4133 34.0205 20.9717 34.0205 18.7851C34.0205 16.6226 35.4862 15.1569 37.4084 15.1569C39.3307 15.1569 40.7483 16.6226 40.7483 18.7851C40.7483 20.9717 39.3066 22.4133 37.4084 22.4133Z" fill="black"/>
<path d="M52.0138 11.8891C47.9771 11.8891 45.1178 14.8445 45.1178 18.8091C45.1178 22.7497 47.9531 25.6811 52.0859 25.6811C54.9212 25.6811 57.5643 24.3115 58.5494 21.1879H54.9933C54.5368 22.2451 53.3834 22.8458 52.0619 22.8458C50.2838 22.8458 48.8422 21.7886 48.6259 19.6741H58.7657C59.1021 15.3251 56.3869 11.8891 52.0138 11.8891ZM51.9898 14.7244C53.6477 14.7244 54.729 15.7095 55.1134 17.1512H48.7941C49.2266 15.7336 50.3079 14.7244 51.9898 14.7244Z" fill="black"/>
<path d="M67.4721 11.8891C65.5979 11.8891 64.1562 12.7541 63.3393 14.4841V12.1774H59.9033V25.3928H63.3393V19.5059C63.3393 16.3823 65.2134 15.4212 67.4 15.4212C67.7844 15.4212 67.9766 15.4452 68.2409 15.4693V11.9372C68.0247 11.9131 67.7844 11.8891 67.4721 11.8891Z" fill="black"/>
<path d="M81.2816 20.7631H86.6687V23.2014H77.1213V21.3727L80.7483 18.1815C82.0876 16.9863 82.9351 16.1855 83.2907 15.7791C83.6463 15.3727 83.824 14.9484 83.824 14.5062C83.824 14.052 83.6581 13.6696 83.3262 13.3588C83.0062 13.0361 82.538 12.8747 81.9217 12.8747C80.7127 12.8747 80.0075 13.5381 79.806 14.8648H77.2458C77.3288 13.5142 77.8088 12.4385 78.6859 11.6377C79.5748 10.8369 80.689 10.4365 82.0284 10.4365C83.3559 10.4365 84.4167 10.819 85.2108 11.5839C86.0049 12.3369 86.402 13.2692 86.402 14.3807C86.402 14.6556 86.3665 14.9245 86.2953 15.1875C86.2361 15.4385 86.1709 15.6656 86.0998 15.8687C86.0405 16.06 85.9042 16.293 85.6909 16.5679C85.4775 16.8309 85.3116 17.0401 85.193 17.1954C85.0864 17.3389 84.8612 17.5719 84.5174 17.8946C84.1737 18.2173 83.9248 18.4504 83.7707 18.5938C83.6166 18.7253 83.3085 18.9942 82.8462 19.4006L81.3172 20.7452L81.2816 20.7631Z" fill="black"/>
<path d="M97.3949 18.056V20.4404L95.6525 20.4584V23.2014H93.1101V20.4584H86.9408V18.056L91.9012 10.6517H95.6525V18.0381L97.3949 18.056ZM89.661 18.0381H93.1101V13.0361H92.9501L89.661 18.0381Z" fill="black"/>
<defs>
<linearGradient id="paint0_linear_89_6786" x1="96.6365" y1="27.458" x2="81.0999" y2="10.4179" gradientUnits="userSpaceOnUse">
<stop stop-color="#4E43DF"/>
<stop offset="1" stop-color="white"/>
</linearGradient>
</defs>
</svg>
