<svg width="14" height="14" viewBox="0 0 14 14" fill="none" xmlns="http://www.w3.org/2000/svg">
<circle cx="7" cy="7" r="7" fill="#0A1330"/>
<g clip-path="url(#clip0_947_2588)">
<path d="M7.42762 7.00373L9.24473 5.18657C9.36298 5.06837 9.36298 4.87726 9.24473 4.75906C9.12653 4.64086 8.93542 4.64086 8.81722 4.75906L7.00006 6.57622L5.18295 4.75906C5.06469 4.64086 4.87364 4.64086 4.75544 4.75906C4.63718 4.87726 4.63718 5.06837 4.75544 5.18657L6.57255 7.00373L4.75544 8.82089C4.63718 8.93909 4.63718 9.1302 4.75544 9.2484C4.81434 9.30736 4.8918 9.33698 4.96919 9.33698C5.04659 9.33698 5.12399 9.30736 5.18295 9.2484L7.00006 7.43124L8.81722 9.2484C8.87618 9.30736 8.95358 9.33698 9.03097 9.33698C9.10837 9.33698 9.18577 9.30736 9.24473 9.2484C9.36298 9.1302 9.36298 8.93909 9.24473 8.82089L7.42762 7.00373Z" fill="white"/>
</g>
<defs>
<clipPath id="clip0_947_2588">
<rect width="4.66667" height="4.66667" fill="white" transform="translate(4.66675 4.6665)"/>
</clipPath>
</defs>
</svg>
