<svg width="26" height="15" viewBox="0 0 26 15" fill="none" xmlns="http://www.w3.org/2000/svg">
<path d="M1 6.5C0.447715 6.5 4.82823e-08 6.94772 0 7.5C-4.82823e-08 8.05228 0.447715 8.5 1 8.5L1 6.5ZM25.7071 8.20711C26.0976 7.81658 26.0976 7.18342 25.7071 6.7929L19.3431 0.428934C18.9526 0.0384095 18.3195 0.0384094 17.9289 0.428934C17.5384 0.819458 17.5384 1.45262 17.9289 1.84315L23.5858 7.5L17.9289 13.1569C17.5384 13.5474 17.5384 14.1805 17.9289 14.5711C18.3195 14.9616 18.9526 14.9616 19.3431 14.5711L25.7071 8.20711ZM1 8.5L25 8.5L25 6.5L1 6.5L1 8.5Z" fill="white"/>
</svg>
