<svg width="20" height="18" viewBox="0 0 20 18" fill="none" xmlns="http://www.w3.org/2000/svg">
<path d="M0.585067 14.2736H15.8983C16.0356 14.2736 16.1683 14.2256 16.2736 14.138C16.4207 14.0148 19.7758 11.1286 19.9804 4.89819H3.53434C3.33054 10.5537 0.240637 13.2119 0.208527 13.2385C0.020276 13.3975 -0.0489849 13.6573 0.0357064 13.8885C0.119812 14.1191 0.339001 14.2736 0.585067 14.2736Z" fill="white"/>
<path d="M19.414 1.38238H16.4842V0.796413C16.4842 0.468273 16.2264 0.210449 15.8983 0.210449C15.5701 0.210449 15.3123 0.468273 15.3123 0.796413V1.38238H12.3434V0.796413C12.3434 0.468273 12.0856 0.210449 11.7575 0.210449C11.4293 0.210449 11.1715 0.468273 11.1715 0.796413V1.38238H8.24167V0.796413C8.24167 0.468273 7.98384 0.210449 7.6557 0.210449C7.32756 0.210449 7.06974 0.468273 7.06974 0.796413V1.38238H4.13992C3.81178 1.38238 3.55396 1.6402 3.55396 1.96834V3.72623H20V1.96834C20 1.6402 19.7422 1.38238 19.414 1.38238Z" fill="white"/>
<path d="M17.0261 15.0365C16.7079 15.3014 16.3086 15.4456 15.8983 15.4456H3.55396V17.2035C3.55396 17.5274 3.81604 17.7895 4.13992 17.7895H19.414C19.7379 17.7895 20 17.5274 20 17.2035V10.635C18.8703 13.4067 17.2938 14.8124 17.0261 15.0365Z" fill="white"/>
</svg>
