<svg width="40" height="40" viewBox="0 0 40 40" fill="none" xmlns="http://www.w3.org/2000/svg">
<path fill-rule="evenodd" clip-rule="evenodd" d="M3.33333 20C3.33333 10.7953 10.7952 3.33337 20 3.33337C29.2047 3.33337 36.6667 10.7953 36.6667 20C36.6667 29.2048 29.2047 36.6667 20 36.6667C10.7952 36.6667 3.33333 29.2048 3.33333 20ZM25.832 23.8881C25.5257 24.3476 24.9048 24.4718 24.4453 24.1654L20.1116 21.2763C19.4171 20.8133 19 20.0339 19 19.1993V19.1667V11.6667C19 11.1144 19.4477 10.6667 20 10.6667C20.5523 10.6667 21 11.1144 21 11.6667V19.1667V19.1993C21 19.3652 21.0829 19.5201 21.221 19.6122L25.5547 22.5013C26.0142 22.8077 26.1384 23.4285 25.832 23.8881Z" fill="#58C58B"/>
</svg>
