<svg width="32" height="32" viewBox="0 0 32 32" fill="none" xmlns="http://www.w3.org/2000/svg">
<rect width="32" height="32" rx="16" fill="#434C67"/>
<path d="M21.1822 12.6366C21.6599 12.1589 21.6599 11.3844 21.1822 10.9067V10.9067C20.7045 10.429 19.93 10.429 19.4523 10.9067L16.0028 14.3562L12.4699 10.8233C12.0152 10.3686 11.278 10.3686 10.8233 10.8233V10.8233C10.3686 11.278 10.3686 12.0152 10.8233 12.4699L14.3562 16.0028L10.9067 19.4523C10.429 19.93 10.429 20.7045 10.9067 21.1822V21.1822C11.3844 21.6599 12.1589 21.6599 12.6366 21.1822L16.0861 17.7327L19.619 21.2656C20.0737 21.7203 20.8109 21.7203 21.2656 21.2656V21.2656C21.7203 20.8109 21.7203 20.0737 21.2656 19.619L17.7327 16.0861L21.1822 12.6366Z" fill="#7C87A8"/>
</svg>
