<svg width="25" height="25" viewBox="0 0 25 25" fill="none" xmlns="http://www.w3.org/2000/svg">
<path d="M16.4767 5.78418C17.3349 6.11759 18.3671 6.36471 19.1954 6.52988C20.0762 6.70553 20.7924 7.40032 20.8541 8.29639C21.2663 14.2899 18.7669 18.843 12.936 21.4674C12.4641 21.6798 11.9216 21.6798 11.4496 21.4674C5.62334 18.845 3.12333 14.297 3.53072 8.31041C3.59215 7.40773 4.31762 6.71004 5.20709 6.54441C6.09354 6.37934 7.20868 6.12751 8.09242 5.78418C9.5263 5.22712 11.2974 4.27734 11.9427 3.92294C12.0991 3.83708 12.2883 3.83405 12.447 3.9154L12.4618 3.92294C13.1538 4.27734 15.0428 5.22712 16.4767 5.78418Z" stroke="#C26527" stroke-width="2" stroke-linecap="round" stroke-linejoin="round"/>
<path d="M9.69873 12.5444L11.3815 14.2272V14.2272C11.5567 14.4024 11.8408 14.4024 12.0159 14.2272V14.2272L15.6987 10.5444" stroke="#C26527" stroke-width="2" stroke-linecap="round" stroke-linejoin="round"/>
</svg>
