<svg width="25" height="25" viewBox="0 0 25 25" fill="none" xmlns="http://www.w3.org/2000/svg">
<path fill-rule="evenodd" clip-rule="evenodd" d="M12.5565 21.0819C17.5271 21.0819 21.5565 17.0525 21.5565 12.0819C21.5565 7.11135 17.5271 3.08191 12.5565 3.08191C7.58596 3.08191 3.55652 7.11135 3.55652 12.0819C3.55652 17.0525 7.58596 21.0819 12.5565 21.0819Z" stroke="#2793C2" stroke-width="1.5" stroke-linecap="round" stroke-linejoin="round"/>
<path fill-rule="evenodd" clip-rule="evenodd" d="M8.16351 13.5459V13.5459C7.35451 12.7369 7.35451 11.4259 8.16351 10.6169V10.6169C8.97251 9.80788 10.2835 9.80788 11.0925 10.6169L12.5565 12.0819L11.0925 13.5459C10.2835 14.3549 8.97151 14.3549 8.16351 13.5459Z" stroke="#2793C2" stroke-width="1.5" stroke-linecap="round" stroke-linejoin="round"/>
<path fill-rule="evenodd" clip-rule="evenodd" d="M16.9495 10.6179V10.6179C17.7585 11.4269 17.7585 12.7379 16.9495 13.5469V13.5469C16.1405 14.3559 14.8295 14.3559 14.0205 13.5469L12.5565 12.0819L14.0205 10.6179C14.8295 9.80886 16.1415 9.80886 16.9495 10.6179Z" stroke="#2793C2" stroke-width="1.5" stroke-linecap="round" stroke-linejoin="round"/>
</svg>
