<svg width="14" height="14" viewBox="0 0 14 14" fill="none" xmlns="http://www.w3.org/2000/svg">
<path d="M8.23814 7.00034L13.7435 1.49502C14.0855 1.15327 14.0855 0.598766 13.7435 0.257018C13.4014 -0.0850216 12.8475 -0.0850216 12.5055 0.257018L7.00015 5.76234L1.49453 0.257018C1.15249 -0.0850216 0.59857 -0.0850216 0.25653 0.257018C-0.08551 0.598766 -0.08551 1.15327 0.25653 1.49502L5.76215 7.00034L0.25653 12.5057C-0.08551 12.8474 -0.08551 13.4019 0.25653 13.7437C0.42755 13.9144 0.651685 13.9999 0.875529 13.9999C1.09937 13.9999 1.32351 13.9144 1.49453 13.7434L7.00015 8.23805L12.5055 13.7434C12.6765 13.9144 12.9006 13.9999 13.1245 13.9999C13.3483 13.9999 13.5724 13.9144 13.7435 13.7434C14.0855 13.4016 14.0855 12.8471 13.7435 12.5054L8.23814 7.00034Z" fill="black"/>
</svg>
