<svg width="40" height="40" viewBox="0 0 40 40" fill="none" xmlns="http://www.w3.org/2000/svg">
<path fill-rule="evenodd" clip-rule="evenodd" d="M21.6668 11.6663C21.6668 10.7459 20.9206 9.99967 20.0001 9.99967C19.0796 9.99967 18.3334 10.7459 18.3334 11.6663V11.8353C15.6744 12.3984 13.9584 14.3095 13.9584 16.6663C13.9584 19.0232 15.6744 20.9343 18.3334 21.4974V24.648C17.5725 24.3247 17.0317 23.8396 17.0026 23.8119C16.351 23.1703 15.3027 23.1734 14.6549 23.8211C14.004 24.472 14.004 25.5273 14.6549 26.1782C15.092 26.6147 15.6184 26.9749 16.1523 27.2801C16.7193 27.604 17.4575 27.9388 18.3334 28.1415V28.333C18.3334 29.2535 19.0796 29.9997 20.0001 29.9997C20.9206 29.9997 21.6668 29.2535 21.6668 28.333V28.164C24.3257 27.6009 26.0417 25.6899 26.0417 23.333C26.0416 20.9762 24.3256 19.0652 21.6668 18.502V15.2745C22.4545 15.5647 22.8042 15.9683 22.8475 16.0183C23.4002 16.7334 24.427 16.8798 25.1574 16.34C25.8976 15.7929 26.0542 14.7493 25.507 14.009C25.507 14.009 25.5079 14.0103 25.5059 14.0075C25.3995 13.8641 25.2877 13.7355 25.0879 13.542C24.8513 13.3129 24.5117 13.0274 24.0596 12.7482C23.4525 12.3734 22.6581 12.0201 21.6668 11.8245V11.6663ZM3.33337 19.9997C3.33337 10.7949 10.7953 3.33301 20 3.33301C29.2048 3.33301 36.6667 10.7949 36.6667 19.9997C36.6667 29.2044 29.2048 36.6663 20 36.6663C10.7953 36.6663 3.33337 29.2044 3.33337 19.9997Z" fill="#5278FF"/>
<path fill-rule="evenodd" clip-rule="evenodd" d="M21.8754 22.0762C21.7803 22.021 21.6667 22.0936 21.6667 22.2036V24.4631C21.6667 24.5731 21.7803 24.6457 21.8754 24.5905C22.5334 24.208 22.7083 23.6499 22.7083 23.3333C22.7083 23.0168 22.5334 22.4587 21.8754 22.0762Z" fill="#5278FF"/>
<path fill-rule="evenodd" clip-rule="evenodd" d="M18.3334 15.5661C18.3334 15.4424 18.2056 15.3608 18.0995 15.4243C17.4621 15.8063 17.2917 16.3542 17.2917 16.6667C17.2917 16.9791 17.4621 17.527 18.0995 17.909C18.2056 17.9725 18.3334 17.8909 18.3334 17.7672V15.5661Z" fill="#5278FF"/>
</svg>
