<svg width="40" height="40" viewBox="0 0 40 40" fill="none" xmlns="http://www.w3.org/2000/svg">
<g id="Vertical container">
<path id="secondary" d="M26.2165 23.8999L21.2165 18.8166C20.8888 18.5042 20.4527 18.3309 19.9999 18.3333C19.7805 18.332 19.5631 18.3741 19.36 18.457C19.1569 18.5399 18.9723 18.6621 18.8165 18.8166L13.4832 24.1333C13.1728 24.4455 12.9985 24.868 12.9985 25.3083C12.9985 25.7486 13.1728 26.171 13.4832 26.4833C13.7955 26.7937 14.2179 26.9679 14.6582 26.9679C15.0985 26.9679 15.5209 26.7937 15.8332 26.4833L18.3332 23.9833V35.2999C18.3332 35.742 18.5088 36.1659 18.8213 36.4785C19.1339 36.791 19.5578 36.9666 19.9999 36.9666C20.4419 36.9666 20.8658 36.791 21.1784 36.4785C21.4909 36.1659 21.6665 35.742 21.6665 35.2999V24.0666L23.8499 26.2499C24.0048 26.4062 24.1891 26.5302 24.3922 26.6148C24.5953 26.6994 24.8132 26.7429 25.0332 26.7429C25.2532 26.7429 25.4711 26.6994 25.6741 26.6148C25.8772 26.5302 26.0616 26.4062 26.2165 26.2499C26.5269 25.9377 26.7012 25.5153 26.7012 25.0749C26.7012 24.6346 26.5269 24.2122 26.2165 23.8999Z" fill="#4E43DF"/>
<path id="primary" d="M36.6666 20.0001C36.6666 22.2102 35.7887 24.3299 34.2259 25.8927C32.6631 27.4555 30.5434 28.3334 28.3333 28.3334H25.7C26.3309 28.2009 26.9098 27.8883 27.3666 27.4334C27.6766 27.1239 27.9224 26.7562 28.0902 26.3516C28.2579 25.9469 28.3443 25.5132 28.3443 25.0751C28.3443 24.6371 28.2579 24.2033 28.0902 23.7986C27.9224 23.394 27.6766 23.0264 27.3666 22.7168L22.2833 17.7168C21.9737 17.4069 21.6061 17.161 21.2014 16.9932C20.7968 16.8255 20.363 16.7392 19.925 16.7392C19.4869 16.7392 19.0532 16.8255 18.6485 16.9932C18.2438 17.161 17.8762 17.4069 17.5666 17.7168L12.3 22.9501C11.99 23.2597 11.7442 23.6273 11.5764 24.032C11.4087 24.4366 11.3223 24.8704 11.3223 25.3084C11.3223 25.7465 11.4087 26.1803 11.5764 26.5849C11.7442 26.9896 11.99 27.3572 12.3 27.6668L12.5833 27.9001C10.4955 27.3501 8.58574 26.2687 7.04008 24.7613C5.49441 23.2538 4.36555 21.3718 3.76346 19.2984C3.16138 17.225 3.10659 15.031 3.60444 12.9301C4.10229 10.8293 5.1358 8.8932 6.6043 7.31049C8.07279 5.72778 9.92619 4.55241 11.9839 3.89889C14.0417 3.24537 16.2336 3.13598 18.3462 3.58137C20.4588 4.02677 22.4201 5.01176 24.0388 6.4404C25.6576 7.86903 26.8788 9.6926 27.5833 11.7334C27.8166 11.7334 28.05 11.7334 28.2833 11.7334C30.4906 11.7201 32.613 12.5831 34.1847 14.1329C35.7564 15.6828 36.649 17.7929 36.6666 20.0001Z" fill="#4E43DF"/>
</g>
</svg>
