<svg width="36" height="36" viewBox="0 0 36 36" fill="none" xmlns="http://www.w3.org/2000/svg">
<circle cx="18" cy="18" r="17" transform="rotate(90 18 18)" stroke="#4E43DF" stroke-width="2"/>
<path d="M19 10C19 9.44772 18.5523 9 18 9C17.4477 9 17 9.44772 17 10L19 10ZM17.2929 26.7071C17.6834 27.0976 18.3166 27.0976 18.7071 26.7071L25.0711 20.3431C25.4616 19.9526 25.4616 19.3195 25.0711 18.9289C24.6805 18.5384 24.0474 18.5384 23.6569 18.9289L18 24.5858L12.3431 18.9289C11.9526 18.5384 11.3195 18.5384 10.9289 18.9289C10.5384 19.3195 10.5384 19.9526 10.9289 20.3431L17.2929 26.7071ZM17 10L17 26L19 26L19 10L17 10Z" fill="#4E43DF"/>
</svg>
