<svg width="8" height="6" viewBox="0 0 8 6" fill="none" xmlns="http://www.w3.org/2000/svg">
<g id="Text input">
<path id="path9429" d="M7.99998 1.08809C8.00258 0.973453 7.96831 0.860877 7.90187 0.766015C7.83543 0.671152 7.74011 0.598717 7.62925 0.55878C7.51838 0.518843 7.39746 0.513389 7.28325 0.543175C7.16904 0.572961 7.06729 0.636508 6.99206 0.724981L4.00929 4.10072L1.02757 0.724981C0.981173 0.66378 0.922274 0.612525 0.854503 0.574427C0.786733 0.536329 0.711558 0.512209 0.633728 0.503575C0.555897 0.494942 0.477083 0.501983 0.402189 0.524256C0.327295 0.546529 0.257928 0.583555 0.198477 0.633015C0.139025 0.682476 0.0907998 0.743305 0.0567183 0.811693C0.0226368 0.880082 0.00349456 0.954556 0.000474251 1.03045C-0.00254606 1.10635 0.0105844 1.18203 0.0391297 1.25276C0.0676749 1.3235 0.110974 1.38775 0.166319 1.44151L3.57699 5.30642C3.63041 5.36712 3.69672 5.41585 3.77145 5.44927C3.84618 5.48269 3.92751 5.5 4.00981 5.5C4.09211 5.5 4.17345 5.48269 4.24818 5.44927C4.32291 5.41585 4.38928 5.36712 4.4427 5.30642L7.85665 1.44151C7.9461 1.34387 7.99695 1.21864 8.00012 1.08809L7.99998 1.08809Z" fill="#434B60"/>
</g>
</svg>
