<svg width="92" height="92" viewBox="0 0 92 92" fill="none" xmlns="http://www.w3.org/2000/svg">
<path d="M91 46C91 54.5907 88.5869 62.6216 84.417 69.4556C83.693 70.6429 82.9112 71.7819 82.0908 72.8919C79.0695 76.9266 75.4016 80.4402 71.222 83.278C65.7008 87.0232 59.3108 89.5618 52.4093 90.5463C50.6043 90.807 48.7703 90.9518 46.8977 90.9807C46.5984 91 46.2992 91 46 91C42.3707 91 38.8282 90.5656 35.4498 89.7548C26.2027 87.5348 18.0656 82.4575 12.0328 75.5077C11.1158 74.446 10.2375 73.3456 9.41702 72.2066C4.11779 64.8224 1 55.7683 1 46C1 21.1448 21.1448 1 46 1C70.8552 1 91 21.1448 91 46Z" fill="#E5E6FB"/>
<path d="M39.6004 29.7161C39.6004 29.7161 26.8012 25.2663 25.1892 38.4613C23.5772 51.6563 43.7317 57.1196 46.695 45.6138C49.6584 34.108 39.6004 29.7161 39.6004 29.7161Z" fill="#0A1330"/>
<path d="M82.0908 72.892C79.0696 76.9268 75.4016 80.4403 71.2221 83.2781C65.7008 87.0233 59.3109 89.5619 52.4093 90.5465L46.8109 78.5484L41.9267 68.0754L39.5715 61.9557L36.9653 55.1797L40.6429 54.755L42.8051 54.504L48.4132 53.8476L54.8611 53.0947C54.8611 53.0947 71.1448 54.5619 80.4885 69.9287C81.0194 70.8071 81.5503 71.8013 82.0908 72.892Z" fill="#F89E1F"/>
<path d="M71.2218 83.2779C65.7006 87.023 59.3106 89.5616 52.4091 90.5462C50.604 90.8068 48.7701 90.9516 46.8975 90.9806C46.5982 90.9999 46.299 90.9999 45.9998 90.9999C42.3704 90.9999 38.828 90.5655 35.4496 89.7547L39.5712 61.9555L40.6427 54.7547L41.0384 52.0616L41.5693 52.1871L48.4129 53.8474L55.1214 55.469C55.1214 55.469 68.8762 63.3744 71.2218 83.2779Z" fill="#92B4EA"/>
<path d="M60.1797 37.2356C60.1797 37.2356 63.9056 33.3842 63.0851 27.1969C62.5253 22.9981 60.7106 21.5888 60.7106 21.5888C60.7106 21.5888 63.7318 15.9904 55.2955 16.0483C46.8592 16.1062 41.7627 20.0734 41.7627 20.0734C41.7627 20.0734 37.9789 18.056 36.0967 22.4865C34.2144 26.917 35.7203 33.5966 35.7203 33.5966L60.17 37.2452L60.1797 37.2356Z" fill="#0A1330"/>
<path d="M41.4541 43.5483L41.3576 53.8379C41.3576 53.8379 43.1916 56.8109 49.2051 57.3514C53.6838 57.7568 55.1221 55.4692 55.1221 55.4692L54.1182 46.4537L43.2688 43.9634L41.4445 43.5483H41.4541Z" fill="#EBA995"/>
<path d="M41.4732 42.9209C41.4925 43.2008 41.5987 43.5387 41.7628 43.9151C44.0215 49.0792 52.1006 51.2896 54.6875 51.5406L54.118 46.4537L41.4732 42.9209Z" fill="#0A1330"/>
<path d="M56.6273 23.0271C56.6273 23.0271 61.9169 35.9711 59.7161 43.1236C57.525 50.2761 50.9902 48.9827 47.1003 47.4962C43.2103 46.0097 41.4439 43.558 41.4439 43.558C41.4439 43.558 37.747 44.7066 35.3821 41.2414C33.0172 37.7761 34.6196 33.8958 36.7335 33.0464C38.8474 32.197 41.2991 33.7703 41.2991 33.7703L39.4362 29.9962C39.4362 29.9962 48.1041 11.2703 56.6176 23.0174L56.6273 23.0271Z" fill="#EBA995"/>
<path d="M41.3091 33.7703C41.3091 33.7703 46.782 35.0734 50.8168 29.0695C54.8515 23.0657 54.5813 20.5367 54.5813 20.5367L58.1816 26.9942C58.1816 26.9942 59.1855 22.6313 57.5253 19.7838C55.8651 16.9267 54.0214 17.4479 54.0214 17.4479L41.7724 20.0734L38.2396 29.6969L41.3091 33.7799V33.7703Z" fill="#0A1330"/>
<path d="M55.6521 39.3587C55.8548 39.3587 56.0382 39.2333 56.1058 39.0306C57.0517 36.2796 55.1888 33.4128 55.1115 33.2873C54.9668 33.0653 54.6675 33.0074 54.4455 33.1522C54.2235 33.297 54.1656 33.5962 54.3104 33.8182C54.3297 33.8472 55.9899 36.4244 55.1984 38.7217C55.1116 38.9726 55.2467 39.2526 55.4977 39.3394C55.5459 39.3587 55.6038 39.3684 55.6521 39.3684V39.3587Z" fill="#0A1330"/>
<path d="M40.5849 39.8419C40.7007 39.8419 40.8166 39.8033 40.9035 39.7164C41.1062 39.5427 41.1255 39.2338 40.9421 39.0311L37.5733 35.2377C37.3996 35.035 37.0907 35.0157 36.888 35.199C36.6853 35.3728 36.666 35.6817 36.8494 35.8844L40.2181 39.6778C40.3146 39.784 40.4498 39.8419 40.5753 39.8419H40.5849Z" fill="#0A1330"/>
<path d="M36.9365 38.7317C36.9365 38.7317 36.9751 38.7317 36.9944 38.7317L39.4075 38.4421C39.6681 38.4132 39.8612 38.1718 39.8322 37.9016C39.8032 37.6409 39.5523 37.4576 39.2917 37.4769L36.8785 37.7664C36.6179 37.7954 36.4249 38.0367 36.4538 38.307C36.4828 38.5483 36.6951 38.7317 36.9365 38.7317Z" fill="#0A1330"/>
<path d="M58.4709 28.9534C58.6929 28.9534 58.8957 28.799 58.9439 28.5673C59.0018 28.3067 58.8281 28.0461 58.5675 27.9978L56.3087 27.5248C56.0481 27.4669 55.7875 27.6407 55.7393 27.9013C55.6814 28.1619 55.8551 28.4225 56.1157 28.4708L58.3744 28.9437C58.3744 28.9437 58.4419 28.9534 58.4709 28.9534Z" fill="#0A1330"/>
<path d="M48.9634 30.1312C49.031 30.1312 49.0986 30.1215 49.1662 30.0829L52.197 28.6737C52.4383 28.5578 52.5445 28.2779 52.4287 28.0366C52.3129 27.7953 52.0329 27.6891 51.7916 27.8049L48.7607 29.2142C48.5194 29.33 48.4132 29.61 48.5291 29.8513C48.6063 30.025 48.78 30.1312 48.9634 30.1312Z" fill="#0A1330"/>
<path d="M58.2879 34.2144C58.2879 34.2144 58.3747 34.2144 58.4133 34.1951C58.674 34.1276 58.8188 33.8573 58.7512 33.6063L58.1914 31.5214L58.7609 30.8747C58.9346 30.672 58.9153 30.3727 58.7126 30.1893C58.5099 30.0156 58.2107 30.0349 58.0369 30.2376L57.2937 31.087C57.1875 31.2125 57.1489 31.3766 57.1875 31.531L57.8149 33.8669C57.8728 34.0793 58.0659 34.2241 58.2783 34.2241L58.2879 34.2144Z" fill="#0A1330"/>
<path d="M51.8013 34.6199C51.8013 34.6199 51.8882 34.6199 51.9268 34.6006C52.1874 34.533 52.3322 34.2627 52.2646 34.0118L51.7048 31.9365L52.5446 31.0195C52.728 30.8265 52.7086 30.5176 52.5156 30.3342C52.3225 30.1508 52.0136 30.1701 51.8302 30.3631L50.8071 31.4732C50.6912 31.5987 50.6526 31.7628 50.7009 31.9268L51.3283 34.2627C51.3862 34.4751 51.5793 34.6199 51.7916 34.6199H51.8013Z" fill="#0A1330"/>
<path d="M50.3727 57.9304C52.255 57.9304 54.1179 57.3899 55.4982 55.7779C55.672 55.5752 55.643 55.2663 55.4403 55.1023C55.2376 54.9285 54.9384 54.9478 54.755 55.1602C51.1835 59.3494 43.1816 54.9092 43.1044 54.8609C42.8727 54.7258 42.5831 54.8127 42.448 55.0443C42.3129 55.276 42.3997 55.5752 42.6314 55.7007C42.8727 55.8358 46.6565 57.9304 50.3727 57.9304Z" fill="#0A1330"/>
<path d="M60.2088 38.9924C62.2744 38.9924 64.0215 37.1391 64.1373 34.7839C64.1952 33.6256 63.8477 32.5155 63.1721 31.6565C62.4771 30.7781 61.5215 30.2665 60.4694 30.2182C59.4076 30.1603 58.4134 30.585 57.6412 31.3959C56.8787 32.1874 56.4346 33.2588 56.3767 34.4171C56.3188 35.5754 56.6663 36.6854 57.342 37.5445C58.037 38.4229 58.9925 38.9345 60.0447 38.9827C60.1026 38.9827 60.1605 38.9827 60.2088 38.9827V38.9924ZM60.2956 31.1738C60.2956 31.1738 60.3729 31.1738 60.4211 31.1738C61.1837 31.2125 61.898 31.5889 62.4192 32.2453C62.9501 32.9209 63.2203 33.809 63.1817 34.7356C63.0949 36.6179 61.6663 38.0947 60.1026 38.0175C59.34 37.9789 58.6257 37.6024 58.1045 36.946C57.5736 36.2704 57.3034 35.3823 57.342 34.4557C57.3902 33.5291 57.7378 32.6796 58.3362 32.0522C58.8864 31.4827 59.5814 31.1738 60.3053 31.1738H60.2956Z" fill="#7772D3"/>
<path d="M50.5276 39.1757C51.6183 39.1757 52.6608 38.7703 53.4716 38.0367C54.3403 37.2452 54.8519 36.1641 54.9002 34.9962C55.016 32.5734 53.1434 30.5174 50.7303 30.4016C48.2979 30.2858 46.2515 32.1583 46.1357 34.5811C46.0198 37.0039 47.8925 39.0599 50.3152 39.1757C50.3828 39.1757 50.46 39.1757 50.5276 39.1757ZM50.5276 31.3572C50.5855 31.3572 50.6337 31.3572 50.6916 31.3572C52.5739 31.4441 54.0411 33.056 53.9445 34.9479C53.8963 35.8649 53.5005 36.7047 52.8249 37.3224C52.1492 37.9402 51.2708 38.2491 50.3538 38.2105C48.4619 38.1236 47.0044 36.5116 47.0913 34.6294C47.1781 32.7954 48.6936 31.3668 50.5082 31.3668L50.5276 31.3572Z" fill="#7772D3"/>
<path d="M56.5978 34.6297C56.7426 34.6297 56.8874 34.5621 56.9839 34.4367C57.148 34.2243 57.0998 33.9251 56.8874 33.761C55.9801 33.0756 54.3971 33.5197 54.2137 33.5776C53.9627 33.6548 53.8179 33.9251 53.8855 34.176C53.9627 34.427 54.2329 34.5814 54.4839 34.5042C54.9762 34.3594 55.9028 34.2436 56.2986 34.5332C56.3855 34.6007 56.4917 34.6297 56.5882 34.6297H56.5978Z" fill="#7772D3"/>
<path d="M46.6181 35.083C46.7147 35.083 46.8112 35.0541 46.898 34.9962C47.1104 34.8417 47.1587 34.5425 47.0042 34.3205C45.5274 32.2742 39.7648 32.3224 39.1181 32.3321C38.8479 32.3321 38.6355 32.5541 38.6452 32.8243C38.6452 33.085 38.8672 33.2973 39.1278 33.2973C40.7687 33.2684 45.2185 33.5 46.2224 34.89C46.3189 35.0251 46.4637 35.0927 46.6181 35.0927V35.083Z" fill="#7772D3"/>
<path d="M46.8111 78.5484C47.0041 83.3747 46.9751 87.8148 46.8979 90.9809C46.5987 91.0002 46.2995 91.0002 46.0002 91.0002C42.3709 91.0002 38.8284 90.5658 35.45 89.755C26.2029 87.5349 18.0659 82.4577 12.033 75.5079C11.1161 74.4461 10.2377 73.3457 9.41726 72.2067C25.6431 52.4287 41.3767 51.8882 41.3767 51.8882C41.4443 51.9847 41.5119 52.0812 41.5698 52.1874C42.0234 52.8824 42.4288 53.6546 42.8053 54.504C45.4693 60.4982 46.4829 70.1025 46.8111 78.5484Z" fill="#F89E1F"/>
<path d="M54.2436 42.7373C54.5911 42.7373 54.9579 42.6697 55.3247 42.496C55.5661 42.3802 55.6722 42.1002 55.5564 41.8589C55.4406 41.6176 55.1509 41.5114 54.9096 41.6273C53.6934 42.1968 52.3324 40.9226 52.3228 40.913C52.1297 40.7296 51.8209 40.7392 51.6375 40.9323C51.4541 41.1253 51.4541 41.4246 51.6471 41.6176C51.7051 41.6755 52.844 42.7566 54.2243 42.7566L54.2436 42.7373Z" fill="#0A1330"/>
<circle cx="46" cy="46" r="45" stroke="white" stroke-width="2"/>
</svg>
