<svg width="52" height="52" viewBox="0 0 52 52" fill="none" xmlns="http://www.w3.org/2000/svg">
<path d="M36.5536 26.9286L28.6786 34.8036C28.432 35.0502 28.0976 35.1887 27.7489 35.1887C27.4002 35.1887 27.0658 35.0502 26.8192 34.8036C26.5727 34.557 26.4341 34.2226 26.4341 33.8739C26.4341 33.5252 26.5727 33.1908 26.8192 32.9442L32.4531 27.3125H16.375C16.0269 27.3125 15.6931 27.1742 15.4469 26.9281C15.2008 26.6819 15.0625 26.3481 15.0625 26C15.0625 25.6519 15.2008 25.3181 15.4469 25.0719C15.6931 24.8258 16.0269 24.6875 16.375 24.6875H32.4531L26.8214 19.0525C26.5748 18.8059 26.4363 18.4715 26.4363 18.1228C26.4363 17.7741 26.5748 17.4397 26.8214 17.1931C27.068 16.9466 27.4024 16.808 27.7511 16.808C28.0998 16.808 28.4342 16.9466 28.6808 17.1931L36.5558 25.0681C36.6782 25.1902 36.7752 25.3353 36.8414 25.495C36.9075 25.6547 36.9415 25.8259 36.9413 25.9988C36.9411 26.1717 36.9067 26.3428 36.8402 26.5024C36.7737 26.6619 36.6763 26.8068 36.5536 26.9286Z" fill="#4E43DF"/>
<rect x="0.5" y="0.5" width="51" height="51" rx="25.5" stroke="#E5E6FB"/>
</svg>
