<svg width="52" height="52" viewBox="0 0 52 52" fill="none" xmlns="http://www.w3.org/2000/svg">
<path d="M15.4464 25.0714L23.3214 17.1964C23.568 16.9498 23.9024 16.8113 24.2511 16.8113C24.5998 16.8113 24.9342 16.9498 25.1808 17.1964C25.4273 17.443 25.5659 17.7774 25.5659 18.1261C25.5659 18.4748 25.4273 18.8092 25.1808 19.0558L19.5469 24.6875H35.625C35.9731 24.6875 36.3069 24.8258 36.5531 25.0719C36.7992 25.3181 36.9375 25.6519 36.9375 26C36.9375 26.3481 36.7992 26.6819 36.5531 26.9281C36.3069 27.1742 35.9731 27.3125 35.625 27.3125H19.5469L25.1786 32.9475C25.4252 33.1941 25.5637 33.5285 25.5637 33.8772C25.5637 34.2259 25.4252 34.5603 25.1786 34.8069C24.932 35.0535 24.5976 35.192 24.2489 35.192C23.9002 35.192 23.5658 35.0535 23.3192 34.8069L15.4442 26.9319C15.3218 26.8098 15.2248 26.6647 15.1586 26.505C15.0925 26.3453 15.0585 26.1741 15.0587 26.0012C15.0589 25.8283 15.0933 25.6572 15.1598 25.4976C15.2263 25.3381 15.3237 25.1932 15.4464 25.0714Z" fill="#4E43DF"/>
<rect x="51.5" y="51.5" width="51" height="51" rx="25.5" transform="rotate(-180 51.5 51.5)" stroke="#E5E6FB"/>
</svg>
