<svg width="356" height="253" viewBox="0 0 356 253" fill="none" xmlns="http://www.w3.org/2000/svg">
<path fill-rule="evenodd" clip-rule="evenodd" d="M178 16.386C88.743 16.386 16.386 88.743 16.386 178C16.386 267.257 88.743 339.614 178 339.614C267.257 339.614 339.614 267.257 339.614 178C339.614 88.743 267.257 16.386 178 16.386ZM0 178C0 79.6933 79.6933 0 178 0C276.307 0 356 79.6933 356 178C356 276.307 276.307 356 178 356C79.6933 356 0 276.307 0 178Z" fill="url(#paint0_linear_354_5913)"/>
<path d="M113.972 219.789H172.92V246.47H68.4478V226.459L108.136 191.539C122.792 178.461 132.065 169.698 135.956 165.251C139.847 160.804 141.793 156.161 141.793 151.322C141.793 146.352 139.977 142.167 136.345 138.767C132.843 135.236 127.72 133.47 120.976 133.47C107.747 133.47 100.029 140.729 97.8246 155.246H69.8096C70.7175 140.467 75.9703 128.696 85.568 119.934C95.2955 111.171 107.487 106.79 122.143 106.79C136.669 106.79 148.278 110.975 156.967 119.345C165.657 127.585 170.002 137.786 170.002 149.949C170.002 152.957 169.613 155.9 168.835 158.777C168.186 161.524 167.473 164.009 166.695 166.232C166.046 168.325 164.555 170.875 162.22 173.883C159.886 176.76 158.07 179.049 156.773 180.749C155.606 182.319 153.141 184.869 149.38 188.4C145.619 191.932 142.895 194.482 141.209 196.051C139.523 197.49 136.151 200.433 131.092 204.879L114.361 219.593L113.972 219.789Z" fill="white"/>
<path d="M290.292 190.166V216.258L271.227 216.454V246.47H243.406V216.454H175.898V190.166L230.177 109.144H271.227V189.97L290.292 190.166ZM205.664 189.97H243.406V135.236H241.655L205.664 189.97Z" fill="white"/>
<defs>
<linearGradient id="paint0_linear_354_5913" x1="281.996" y1="293.05" x2="111.986" y2="106.587" gradientUnits="userSpaceOnUse">
<stop stop-color="#4E43DF"/>
<stop offset="1" stop-color="white"/>
</linearGradient>
</defs>
</svg>
