<svg width="32" height="33" viewBox="0 0 32 33" fill="none" xmlns="http://www.w3.org/2000/svg">
<path fill-rule="evenodd" clip-rule="evenodd" d="M12.9374 5.95999L4.70539 10.5333C2.97472 11.4947 2.97472 13.9827 4.70539 14.944L12.9374 19.5173C14.8414 20.5747 17.1574 20.5747 19.0627 19.5173L27.2947 14.944C29.0254 13.9827 29.0254 11.4947 27.2947 10.5333L19.0627 5.95999C17.1574 4.90266 14.8427 4.90266 12.9374 5.95999Z" stroke="#58C58B" stroke-width="1.419" stroke-linecap="round" stroke-linejoin="round"/>
<path d="M7.98819 16.7666V21.9986C7.98819 23.2639 8.62152 24.4439 9.67352 25.1439L11.8162 26.5693C14.3509 28.2546 17.6495 28.2546 20.1829 26.5693L22.3255 25.1439C23.3789 24.4439 24.0109 23.2626 24.0109 21.9986V16.7666" stroke="#58C58B" stroke-width="1.4167" stroke-linecap="round" stroke-linejoin="round"/>
</svg>
