<svg width="20" height="21" viewBox="0 0 20 21" fill="none" xmlns="http://www.w3.org/2000/svg">
<path fill-rule="evenodd" clip-rule="evenodd" d="M10.4191 1.04619C10.7299 1.13674 11.0071 1.37432 11.5615 1.84948L12.4733 2.6311C12.7229 2.84499 12.8476 2.95193 12.9884 3.0281C13.1132 3.09567 13.2471 3.14517 13.3858 3.17512C13.5423 3.20889 13.7066 3.20889 14.0352 3.20889L14.8912 3.20889C15.7313 3.20889 16.1513 3.20889 16.4722 3.37238C16.7544 3.51619 16.9839 3.74566 17.1277 4.0279C17.2912 4.34877 17.2912 4.7688 17.2912 5.60887L17.2912 5.60889L17.2912 6.46487C17.2912 6.79352 17.2912 6.95784 17.325 7.11428C17.3549 7.25305 17.4044 7.38686 17.472 7.51172C17.5482 7.65247 17.6551 7.77723 17.869 8.02677L18.6506 8.93865L18.6506 8.93866C19.1258 9.49302 19.3634 9.77019 19.4539 10.081C19.5337 10.355 19.5337 10.6461 19.4539 10.9201C19.3634 11.2309 19.1258 11.5081 18.6506 12.0625L17.869 12.9743C17.6551 13.2239 17.5482 13.3486 17.472 13.4894C17.4044 13.6142 17.3549 13.7481 17.325 13.8868C17.2912 14.0433 17.2912 14.2076 17.2912 14.5362L17.2912 15.3922C17.2912 16.2323 17.2912 16.6523 17.1277 16.9732C16.9839 17.2554 16.7544 17.4849 16.4722 17.6287C16.1513 17.7922 15.7313 17.7922 14.8912 17.7922L14.0352 17.7922C13.7066 17.7922 13.5423 17.7922 13.3858 17.826C13.2471 17.8559 13.1132 17.9054 12.9884 17.973C12.8476 18.0492 12.7229 18.1561 12.4733 18.37L11.5615 19.1516C11.0071 19.6268 10.7299 19.8644 10.4191 19.9549C10.1451 20.0347 9.85402 20.0347 9.58005 19.9549C9.26919 19.8644 8.99201 19.6268 8.43765 19.1516L7.52576 18.37C7.27623 18.1561 7.15147 18.0492 7.01071 17.973C6.88586 17.9054 6.75205 17.8559 6.61328 17.826C6.45684 17.7922 6.29251 17.7922 5.96386 17.7922L5.07937 17.7922C4.23929 17.7922 3.81925 17.7922 3.49838 17.6287C3.21614 17.4849 2.98667 17.2554 2.84286 16.9732C2.67937 16.6523 2.67937 16.2323 2.67937 15.3922L2.67937 14.5265C2.67937 14.2007 2.67937 14.0377 2.64614 13.8825C2.61666 13.7448 2.56794 13.6119 2.5014 13.4878C2.4264 13.3479 2.32107 13.2236 2.1104 12.975L1.32841 12.0521C0.861331 11.5009 0.627793 11.2253 0.538687 10.9168C0.460141 10.6449 0.460141 10.3562 0.538687 10.0843C0.627793 9.77581 0.861332 9.50021 1.32841 8.949L2.1104 8.02615C2.32106 7.77754 2.4264 7.65323 2.5014 7.51331C2.56794 7.3892 2.61666 7.25633 2.64614 7.11862C2.67937 6.96339 2.67937 6.80045 2.67937 6.47459L2.67937 5.60889C2.67937 4.76881 2.67937 4.34877 2.84286 4.0279C2.98667 3.74566 3.21614 3.51619 3.49838 3.37238C3.81925 3.20889 4.23929 3.20889 5.07937 3.20889L5.96386 3.20889C6.29251 3.20889 6.45684 3.20889 6.61328 3.17512C6.75205 3.14517 6.88586 3.09567 7.01071 3.0281C7.15147 2.95193 7.27623 2.84499 7.52576 2.63111L7.52576 2.6311L8.43765 1.84948C8.99201 1.37432 9.26919 1.13674 9.58005 1.04619C9.85402 0.966378 10.1451 0.966378 10.4191 1.04619ZM13.7312 8.39784C13.9509 8.17817 13.9509 7.82202 13.7312 7.60235C13.5115 7.38268 13.1554 7.38268 12.9357 7.60235L9.16679 11.3713L7.89787 10.1023C7.6782 9.88268 7.32205 9.88268 7.10238 10.1023C6.88271 10.322 6.88271 10.6782 7.10238 10.8978L8.76904 12.5645C8.87453 12.67 9.01761 12.7293 9.16679 12.7293C9.31597 12.7293 9.45905 12.67 9.56454 12.5645L13.7312 8.39784Z" fill="#5278FF"/>
</svg>
