<svg width="162" height="113" viewBox="0 0 162 113" fill="none" xmlns="http://www.w3.org/2000/svg">
<path d="M16.4676 57.8637C16.4163 58.2037 16.3256 58.5234 16.1954 58.8225C16.0754 59.1229 15.9361 59.4104 15.7773 59.6851C15.6197 59.9495 15.4479 60.2017 15.2618 60.4417C15.086 60.6829 14.9225 60.9099 14.7711 61.1226C14.5957 61.1855 14.4327 61.2761 14.2822 61.3945C14.1432 61.5037 13.9984 61.6175 13.8479 61.7359C13.6973 61.8542 13.5422 61.9668 13.3825 62.0736C13.2229 62.1803 13.0404 62.2581 12.8353 62.307C12.7476 62.3385 12.6365 62.3461 12.502 62.33C12.3676 62.3139 12.2313 62.3133 12.0931 62.3283C11.9963 62.3482 11.8782 62.3707 11.7388 62.396C11.5994 62.4213 11.4496 62.4453 11.2895 62.4681C11.1398 62.4921 10.9854 62.5103 10.8266 62.5228C10.7 62.5286 10.5798 62.5247 10.466 62.5111L10.3419 62.4962C10.2501 62.4747 10.1653 62.4383 10.0875 62.3871C10.0097 62.3358 9.93067 62.2948 9.85041 62.2642C9.64727 62.2084 9.4371 62.1675 9.2199 62.1415L8.97168 62.1118C8.89804 62.1135 8.82502 62.11 8.75262 62.1013C8.52508 62.074 8.30519 62.0267 8.09295 61.9593C7.992 61.9263 7.8987 61.8731 7.81304 61.7999C7.75594 61.7511 7.69636 61.723 7.63431 61.7156C7.58259 61.7094 7.53481 61.7141 7.49096 61.7299C7.32338 61.5524 7.13904 61.3835 6.93794 61.223C6.73685 61.0625 6.54092 60.9027 6.35017 60.7435C6.16066 60.5739 5.97694 60.3998 5.79901 60.2211C5.62232 60.0321 5.48037 59.8157 5.37316 59.5721C5.21505 59.2279 5.11754 58.8595 5.08064 58.467C5.04373 58.0744 5.0455 57.6654 5.08594 57.2401L5.11196 57.0229C5.15407 56.6713 5.2175 56.3169 5.30222 55.9599C5.39686 55.5201 5.49605 55.0861 5.59979 54.6579C5.8897 54.252 6.17506 53.8403 6.45587 53.4228C6.73791 52.995 7.05575 52.6187 7.40939 52.2938C7.69936 52.1502 7.98747 52.0221 8.27373 51.9095C8.57033 51.7982 8.90891 51.6866 9.28949 51.5748C9.57203 51.4932 9.8825 51.4413 10.2209 51.4188C10.5709 51.3873 10.9281 51.3829 11.2926 51.4056L11.6184 51.4446C11.8769 51.4756 12.1343 51.5169 12.3904 51.5685C12.7578 51.6545 13.1111 51.7702 13.4503 51.9158C13.5798 51.9733 13.7373 52.0603 13.9226 52.1769C14.1196 52.2844 14.3101 52.4017 14.4942 52.5287C14.6899 52.6465 14.8689 52.7729 15.0311 52.9077C15.2049 53.0334 15.3431 53.1496 15.4457 53.2563C15.586 53.399 15.6934 53.5535 15.7679 53.7198C15.854 53.877 15.9291 54.0381 15.9932 54.2032C16.0677 54.3695 16.1319 54.5345 16.1857 54.6983C16.2499 54.8634 16.3308 55.0199 16.4285 55.168C16.4103 55.4071 16.4089 55.6378 16.4243 55.8599C16.45 56.0833 16.4705 56.3061 16.4859 56.5283C16.5012 56.7504 16.5114 56.9719 16.5164 57.1929C16.5173 57.3608 16.5078 57.5275 16.488 57.693L16.4676 57.8637ZM15.6935 56.9684C15.7086 55.8791 15.4877 55.0081 15.0308 54.3554C14.5739 53.7027 13.8929 53.17 12.9876 52.7574C12.8076 52.6833 12.6128 52.6023 12.403 52.5142C12.2048 52.4171 12.0294 52.3488 11.8767 52.3096L11.8457 52.3059C11.794 52.2997 11.7456 52.3096 11.7005 52.3357C11.6438 52.3709 11.5793 52.3841 11.5069 52.3754C11.4241 52.3655 11.3536 52.3413 11.2953 52.3029C11.2485 52.2553 11.1993 52.2284 11.1476 52.2222C10.1704 52.1472 9.28242 52.3346 8.48367 52.7844C7.6965 53.2252 7.08789 53.8395 6.65782 54.6273C6.4883 55.0791 6.33616 55.5172 6.20139 55.9417C6.07158 56.3248 5.98375 56.7077 5.93792 57.0904L5.9212 57.23C5.85102 57.9035 5.93679 58.5013 6.17851 59.0233C6.42023 59.5454 6.75522 59.9894 7.18348 60.3554C7.62332 60.7123 8.12996 60.9933 8.70339 61.1984C9.15643 61.3576 9.62083 61.4657 10.0966 61.5226C10.2207 61.5375 10.3506 61.5478 10.4863 61.5536C11.1002 61.5956 11.6982 61.5518 12.2803 61.4222C12.8739 61.2835 13.4044 61.0585 13.8718 60.7473C14.0853 60.5421 14.2972 60.3052 14.5077 60.0367C14.7195 59.7578 14.913 59.4557 15.0884 59.1305C15.2637 58.8053 15.4099 58.4609 15.5269 58.0972C15.5942 57.885 15.6422 57.6599 15.6707 57.422C15.6893 57.2669 15.6969 57.1157 15.6935 56.9684ZM25.7853 58.901C25.7205 59.3548 25.6492 59.8184 25.5715 60.2917C25.4951 60.7546 25.3986 61.2099 25.2821 61.6576C25.1667 62.0949 25.0274 62.5136 24.8641 62.9137C24.702 63.3034 24.5074 63.6578 24.2804 63.9768C24.2833 64.0401 24.2811 64.1028 24.2736 64.1648C24.2588 64.2889 24.2251 64.395 24.1725 64.4832C24.0816 64.6296 23.9748 64.7323 23.8524 64.791C23.7507 64.8523 23.6429 64.8761 23.5291 64.8625C23.5084 64.86 23.4884 64.8523 23.4689 64.8395C23.3254 64.8118 23.2047 64.724 23.1071 64.5759C23.1066 64.4919 23.1101 64.4189 23.1176 64.3568C23.125 64.2948 23.1376 64.2333 23.1554 64.1725C23.1885 64.0716 23.2313 63.977 23.2838 63.8889C23.3466 63.802 23.4083 63.7255 23.4687 63.6592C23.5303 63.5827 23.5919 63.5062 23.6535 63.4296C23.8851 62.9852 24.0937 62.4699 24.2793 61.8837C24.4662 61.2871 24.6007 60.6895 24.6829 60.0908L24.6903 60.0288C24.7597 59.4496 24.7575 58.8985 24.6837 58.3756C24.6021 57.8308 24.4098 57.3776 24.1069 57.0161C24.0614 56.9582 23.9888 56.9076 23.8891 56.8642C23.7894 56.8207 23.6832 56.787 23.5707 56.7631L23.4466 56.7482C23.3639 56.7383 23.2857 56.7342 23.212 56.7359C23.0867 56.7313 22.9756 56.739 22.8788 56.7589C22.4478 56.8541 22.0256 57.0501 21.6124 57.3468C21.2108 57.6344 20.8476 57.9949 20.523 58.4281C20.1995 58.8509 19.9384 59.3232 19.7395 59.845C19.5622 60.2748 19.4456 60.7225 19.3898 61.1879C19.3775 61.2913 19.3702 61.3954 19.3682 61.5001C19.3501 61.7392 19.3584 61.9762 19.3932 62.2112C19.4292 62.4358 19.4653 62.6605 19.5013 62.8851C19.5477 63.111 19.5883 63.3414 19.6231 63.5763C19.6591 63.801 19.6733 64.0335 19.6655 64.2738C19.5691 64.3777 19.4597 64.459 19.3372 64.5178C19.2367 64.5687 19.1192 64.5861 18.9848 64.57C18.9227 64.5626 18.8613 64.55 18.8005 64.5322C18.6601 64.1272 18.5849 63.7038 18.5749 63.262C18.5752 62.8214 18.5607 62.3738 18.5312 61.9191C18.5046 61.5278 18.4702 61.1145 18.4279 60.6793C18.3959 60.2453 18.3524 59.8205 18.2973 59.4047C18.2537 58.9798 18.198 58.5693 18.1301 58.173C18.0737 57.7675 18.013 57.3983 17.948 57.0653C17.9215 56.9362 17.8886 56.8169 17.8493 56.7073C17.8203 56.5989 17.801 56.4969 17.7915 56.4014C17.7873 56.3484 17.7877 56.3013 17.7927 56.2599C17.7976 56.2185 17.8084 56.1726 17.8249 56.1221C17.8555 56.0418 17.9287 55.9562 18.0445 55.8652C18.131 55.844 18.2104 55.8378 18.2828 55.8465C18.3759 55.8576 18.4562 55.8882 18.5236 55.9383C18.6275 56.0346 18.7018 56.1589 18.7465 56.3112C18.7912 56.4634 18.8185 56.6293 18.8285 56.8088C18.8385 56.9884 18.8509 57.1472 18.8658 57.2854C18.9193 57.6275 18.9752 57.9489 19.0336 58.2497C19.1036 58.5413 19.1365 58.7918 19.1324 59.0012C19.3889 58.6122 19.6583 58.2458 19.9408 57.902C20.2348 57.549 20.5504 57.2354 20.8875 56.961C21.2259 56.6763 21.5954 56.4373 21.9963 56.244C22.4074 56.052 22.8648 55.9127 23.3682 55.8261L23.4458 55.8354C23.8802 55.8874 24.2277 56.0077 24.4884 56.1963C24.7582 56.3965 24.97 56.6422 25.124 56.9334C25.2895 57.2155 25.4145 57.5294 25.499 57.8753C25.5938 58.2224 25.6893 58.5643 25.7853 58.901ZM28.5024 65.647C28.4614 65.726 28.3959 65.7916 28.3057 65.8437C28.2259 65.8971 28.1382 65.9286 28.0426 65.9381C27.9897 65.9423 27.9322 65.9406 27.8701 65.9332C27.8287 65.9282 27.788 65.9181 27.7478 65.9028C27.6457 65.8801 27.5627 65.8282 27.499 65.7471C27.5091 64.6992 27.5128 63.661 27.51 62.6326C27.5086 61.5938 27.5421 60.5696 27.6105 59.5602C27.6464 58.998 27.6971 58.4428 27.7628 57.8946C27.816 57.4499 27.8797 57.0064 27.9536 56.5641C28.1139 55.5762 28.3569 54.5981 28.6827 53.63C28.7898 53.6114 28.89 53.6076 28.983 53.6188C29.0451 53.6262 29.1065 53.6388 29.1674 53.6566C29.2956 53.7244 29.4001 53.8156 29.4808 53.9302C29.208 54.8942 28.9914 55.8701 28.8311 56.8581C28.7406 57.3508 28.6657 57.8454 28.6062 58.3418C28.548 58.828 28.5047 59.3211 28.4762 59.8213C28.3999 60.8088 28.3662 61.7909 28.3751 62.7676C28.3944 63.7456 28.4368 64.7054 28.5024 65.647ZM39.1751 65.2257C39.3158 65.4523 39.387 65.7336 39.3887 66.0696C39.3855 66.1846 39.3782 66.2886 39.3671 66.3817C39.3411 66.5989 39.2917 66.7923 39.2189 66.962C39.104 67.221 38.9524 67.3916 38.7642 67.474C38.6972 67.5079 38.6326 67.5212 38.5706 67.5138C38.4258 67.4964 38.2656 67.3881 38.0902 67.1887L38.1051 67.0646C38.1137 66.9922 38.1263 66.9308 38.1429 66.8803C38.1722 66.8104 38.2067 66.7411 38.2464 66.6724C38.2861 66.6037 38.3207 66.5344 38.35 66.4645C38.3885 66.4061 38.4133 66.3304 38.4244 66.2373C38.4414 66.0086 38.4217 65.8226 38.3654 65.6795C38.3194 65.5376 38.2387 65.423 38.1233 65.3357C38.0078 65.2485 37.8589 65.1782 37.6764 65.1249C37.494 65.0715 37.285 65.0203 37.0496 64.9711C36.9571 65.5685 36.8524 66.1802 36.7354 66.8061C36.6185 67.4321 36.4679 68.033 36.2835 68.6089C36.1082 69.1964 35.8907 69.7421 35.631 70.2461C35.3713 70.75 35.0525 71.1787 34.6744 71.5321C34.3055 71.897 33.8695 72.1648 33.3665 72.3354C32.8635 72.5059 32.281 72.5516 31.6191 72.4723C31.1648 72.3235 30.8032 72.1018 30.5342 71.8073C30.2743 71.5244 30.0504 71.2038 29.8625 70.8456C29.8095 70.3252 29.7862 69.8188 29.7927 69.3265C29.7972 69.2012 29.8069 69.0764 29.8218 68.9523C29.8676 68.5696 29.9728 68.1731 30.1374 67.7627C30.1692 67.6721 30.2254 67.5529 30.3061 67.4052C30.3855 67.2678 30.4707 67.1259 30.5616 66.9794C30.6526 66.833 30.7482 66.6923 30.8482 66.5574C30.9471 66.4328 31.0325 66.3329 31.1045 66.2576C31.188 66.1732 31.2846 66.1113 31.3942 66.072C31.5142 66.0339 31.6257 65.9791 31.7287 65.9075C31.8792 65.7891 32.0109 65.6528 32.1239 65.4984C32.2459 65.3557 32.408 65.2282 32.6103 65.1161C32.734 65.047 32.8829 64.9861 33.057 64.9335C33.2312 64.881 33.3956 64.822 33.5503 64.7566C33.9681 64.5968 34.3655 64.4765 34.7423 64.3958C35.1308 64.3059 35.5806 64.2286 36.092 64.164C36.1254 63.8847 36.1549 63.5945 36.1805 63.2933C36.2177 62.9831 36.249 62.6773 36.2746 62.3761C36.3014 62.0646 36.3218 61.7628 36.3358 61.4708C36.3511 61.1683 36.3587 60.886 36.3586 60.6237C36.2039 60.6891 36.0777 60.7789 35.9801 60.8931C35.8825 61.0073 35.7889 61.1325 35.6991 61.2686C35.6197 61.406 35.5403 61.5433 35.4609 61.6807C35.3815 61.8181 35.2878 61.9432 35.1799 62.0562C35.0604 62.1783 34.9065 62.2805 34.7183 62.3629C34.5416 62.4361 34.358 62.5243 34.1673 62.6273C33.9766 62.7304 33.7853 62.8386 33.5934 62.952C33.4027 63.0551 33.1983 63.1407 32.9803 63.2091C32.7635 63.267 32.5298 63.2915 32.2791 63.2824C32.2262 63.2866 32.1687 63.2849 32.1066 63.2775C31.8997 63.2527 31.6765 63.1893 31.437 63.0872C31.1527 62.8328 30.9516 62.5412 30.8336 62.2123C30.7169 61.8731 30.6653 61.5155 30.6788 61.1394C30.6743 61.0025 30.6813 60.8565 30.6998 60.7013C30.7271 60.4738 30.7763 60.2384 30.8474 59.9951C30.9462 59.6083 31.0656 59.2239 31.2058 58.842C31.3563 58.4614 31.5153 58.0975 31.6827 57.7504C31.8515 57.3929 31.9997 57.075 32.1275 56.7965C32.2499 56.7377 32.3784 56.7164 32.5128 56.7325C32.5645 56.7387 32.6156 56.7501 32.6661 56.7666C32.7091 56.8452 32.7528 56.9186 32.7971 56.9869C32.8414 57.0551 32.8844 57.1337 32.9262 57.2226C32.7757 57.6033 32.5905 58.0112 32.3705 58.4465C32.1608 58.883 31.9816 59.3284 31.8328 59.7826C31.7311 60.1062 31.661 60.4283 31.6226 60.7489C31.6077 60.873 31.5981 60.9977 31.5935 61.1231C31.5725 61.5612 31.6858 61.9734 31.9333 62.3598C32.0445 62.3941 32.1467 62.4168 32.2398 62.428C32.3019 62.4354 32.3646 62.4376 32.4278 62.4347C32.5751 62.4314 32.7081 62.4158 32.8268 62.3881C32.9468 62.35 33.0571 62.3055 33.1576 62.2546C33.2697 62.1946 33.3818 62.1346 33.4939 62.0746C33.673 61.9806 33.8496 61.9074 34.0238 61.8548C34.2095 61.7931 34.3679 61.6967 34.499 61.5655C34.6405 61.4356 34.7683 61.2883 34.8824 61.1236C34.9978 60.9486 35.1074 60.7781 35.2112 60.6122C35.3254 60.4475 35.4383 60.2932 35.5499 60.1492C35.6732 59.9961 35.8186 59.8771 35.9861 59.7923C36.1238 59.4311 36.2718 59.0711 36.4302 58.7124C36.5732 58.3938 36.6671 58.0484 36.7117 57.676L36.7247 57.5674C36.8446 57.5293 36.9646 57.4912 37.0845 57.4532C37.1503 57.4296 37.2142 57.4215 37.2763 57.4289C37.3383 57.4363 37.3985 57.4593 37.4569 57.4978C37.526 57.6214 37.5668 57.7627 37.5792 57.9216C37.6033 58.0713 37.6099 58.2347 37.5992 58.4118L37.5843 58.5359C37.5682 58.6704 37.547 58.8042 37.5205 58.9374C37.4788 59.1108 37.4383 59.2738 37.399 59.4264C37.3879 59.7818 37.3665 60.1359 37.3347 60.4888C37.3029 60.8417 37.2699 61.2049 37.2357 61.5785C37.2014 61.9521 37.1659 62.336 37.1292 62.7303C37.0925 63.1246 37.0694 63.5362 37.06 63.9652C37.1907 64.0123 37.3008 64.057 37.3901 64.0992C37.4911 64.1322 37.5862 64.1699 37.6756 64.212C37.7662 64.2439 37.862 64.2763 37.9629 64.3094C38.0639 64.3425 38.1861 64.3728 38.3297 64.4005C38.3947 64.4713 38.4609 64.5316 38.5283 64.5817C38.5958 64.6317 38.6632 64.6818 38.7307 64.7318C38.8084 64.7831 38.8792 64.8493 38.9429 64.9303C39.0182 65.0023 39.0956 65.1007 39.1751 65.2257ZM35.9638 65.6279C35.9675 65.5969 35.9783 65.5509 35.9961 65.4901C36.0138 65.4293 36.0264 65.3679 36.0339 65.3058C36.0413 65.2438 36.032 65.1902 36.0059 65.1451C35.9914 65.0909 35.9486 65.0543 35.8774 65.0353C35.7471 65.0721 35.6174 65.1038 35.4884 65.1303C35.3697 65.1581 35.2464 65.18 35.1185 65.1962C34.992 65.202 34.8596 65.2124 34.7214 65.2273C34.5948 65.2331 34.4773 65.2505 34.3689 65.2795C34.2812 65.311 34.1756 65.3613 34.0519 65.4304C33.9385 65.5007 33.8207 65.5653 33.6982 65.6241C33.5319 65.6986 33.3541 65.7822 33.1646 65.8749C32.9751 65.9676 32.7902 66.0661 32.6099 66.1704C32.4399 66.2759 32.2744 66.3872 32.1135 66.5044C31.9526 66.6215 31.8182 66.7365 31.7103 66.8495C31.5407 67.039 31.381 67.2769 31.2314 67.5632C31.0817 67.8495 30.956 68.1545 30.8543 68.478C30.7679 68.7614 30.7073 69.0479 30.6726 69.3375L30.6559 69.4771C30.6254 69.8197 30.6451 70.1368 30.7151 70.4284C30.7851 70.72 30.9123 70.9713 31.0969 71.1823C31.2815 71.3932 31.5425 71.5347 31.8801 71.6066C31.972 71.628 32.0593 71.6437 32.142 71.6537C32.473 71.6933 32.7706 71.6608 33.035 71.556C33.3535 71.4368 33.6368 71.2609 33.885 71.0284C34.1331 70.7958 34.3488 70.5279 34.532 70.2246C34.7243 69.9329 34.909 69.6613 35.086 69.4097C35.2704 68.8338 35.4475 68.2308 35.6174 67.6007C35.7517 67.0922 35.8523 66.5587 35.9192 66.0002L35.9638 65.6279ZM54.8141 67.6181C54.7682 67.7385 54.7183 67.8479 54.6646 67.9464C54.6108 68.0448 54.5349 68.1092 54.4369 68.1394C54.3827 68.1539 54.3194 68.1568 54.247 68.1481C54.1953 68.1419 54.1442 68.1306 54.0937 68.114C53.9514 68.076 53.8064 68.0167 53.6587 67.936C53.511 67.8554 53.3697 67.765 53.2348 67.665C53.1102 67.5661 53.0161 67.4761 52.9524 67.3951C52.8237 67.2433 52.7233 67.0739 52.6513 66.8869C52.5896 66.7012 52.5331 66.5161 52.4817 66.3316C52.4316 66.1367 52.3849 65.958 52.3414 65.7954C52.3082 65.6341 52.2559 65.5019 52.1843 65.399C52.0643 65.437 51.9632 65.4931 51.8809 65.5672C51.7986 65.6413 51.715 65.7257 51.6302 65.8204C51.5558 65.9164 51.4756 66.017 51.3895 66.1221C51.3151 66.2181 51.2264 66.3019 51.1234 66.3735C50.8802 66.5646 50.5929 66.7296 50.2615 66.8682C49.9418 66.9978 49.6005 67.088 49.2377 67.139C48.9278 67.1858 48.6126 67.19 48.292 67.1516C48.2403 67.1454 48.1892 67.1341 48.1387 67.1175C47.7676 67.0626 47.4155 66.9365 47.0824 66.7393C46.7502 66.4477 46.457 66.0926 46.2029 65.674C45.9591 65.2566 45.7772 64.8047 45.6571 64.3182C45.537 63.8317 45.4982 63.3235 45.5407 62.7935C45.5378 62.7302 45.5401 62.6676 45.5475 62.6055C45.602 62.1504 45.7405 61.6949 45.963 61.239C46.0448 61.0809 46.1493 60.9098 46.2762 60.7257C46.4148 60.5325 46.5624 60.3508 46.7192 60.1808C46.8759 60.0107 47.036 59.8568 47.1994 59.719C47.3731 59.5824 47.5379 59.4763 47.6939 59.4005C48.0935 59.2176 48.52 59.1165 48.9734 59.0974C49.215 59.0949 49.4547 59.1078 49.6926 59.1363C49.8891 59.1599 50.0896 59.1944 50.2939 59.2398C50.7312 59.3551 51.1462 59.5255 51.5389 59.7509C51.9431 59.9671 52.301 60.2198 52.6126 60.5089C52.7168 60.427 52.8424 60.3424 52.9892 60.255C53.1476 60.1586 53.3088 60.0835 53.4726 60.0297C53.6132 59.9941 53.7508 59.9843 53.8852 60.0004L53.9628 60.0097C54.1167 60.0386 54.2574 60.1342 54.3848 60.2963C54.4292 60.6268 54.4328 60.9472 54.3956 61.2575L54.3677 61.4902C54.2909 61.8692 54.179 62.2335 54.0323 62.5831C53.8867 62.9224 53.7172 63.243 53.5236 63.5451C53.3404 63.8484 53.1649 64.1316 52.997 64.3947C53.0939 64.8994 53.2088 65.3853 53.3417 65.8523C53.485 66.3206 53.6977 66.7342 53.9799 67.0933L54.1506 67.1137C54.3161 67.1335 54.4377 67.1691 54.5155 67.2204C54.6206 67.3064 54.7201 67.4389 54.8141 67.6181ZM53.5162 60.9791C53.2734 61.2543 53.12 61.5716 53.056 61.9311L53.0263 62.1794C52.9916 62.469 52.9796 62.7875 52.9905 63.135C53.0674 63.0183 53.159 62.8667 53.2653 62.6801C53.3728 62.4831 53.4654 62.2792 53.5432 62.0682C53.5952 61.8961 53.6312 61.7273 53.651 61.5618L53.664 61.4532C53.676 61.2658 53.6267 61.1077 53.5162 60.9791ZM52.0791 64.1746C52.0886 63.7456 52.1004 63.2959 52.1148 62.8256C52.116 62.5529 52.1321 62.2873 52.163 62.0288C52.1841 61.8529 52.2097 61.6829 52.2399 61.5187C52.1302 61.2957 51.9715 61.0878 51.7638 60.8951C51.5561 60.7024 51.3239 60.5382 51.0674 60.4026C50.8109 60.2669 50.5351 60.1605 50.2401 60.0832C50.0668 60.0414 49.9025 60.0112 49.7474 59.9927C49.6233 59.9778 49.4986 59.9681 49.3732 59.9636C49.0063 59.9616 48.6803 60.0117 48.3953 60.114C48.1115 60.2059 47.855 60.3325 47.6259 60.4939C47.4873 60.6872 47.336 60.8998 47.1718 61.132C47.0076 61.3641 46.8571 61.6136 46.7202 61.8804C46.5937 62.1485 46.4917 62.4301 46.4144 62.7251C46.3905 62.8376 46.3723 62.9456 46.3599 63.049C46.3364 63.2455 46.3335 63.4445 46.3514 63.646C46.3729 63.8164 46.4127 64.01 46.4706 64.2268C46.5402 64.4345 46.6201 64.6434 46.7103 64.8535C46.8109 65.0649 46.9185 65.2613 47.0331 65.4429C47.1581 65.6258 47.2822 65.7718 47.4056 65.881C47.5951 66.0505 47.827 66.1727 48.1013 66.2475C48.2734 66.2996 48.4577 66.3374 48.6542 66.361C48.7576 66.3734 48.8617 66.3806 48.9663 66.3826C49.32 66.3201 49.6373 66.2112 49.9182 66.056C50.1991 65.9008 50.4617 65.7224 50.7062 65.5209C50.9506 65.3194 51.1814 65.1005 51.3986 64.8642C51.626 64.6292 51.8529 64.3993 52.0791 64.1746ZM69.9639 61.218C69.9023 61.2946 69.8303 61.3699 69.748 61.4439C69.676 61.5192 69.5956 61.5778 69.5066 61.6196C69.4177 61.6614 69.3319 61.6774 69.2491 61.6674C69.2388 61.6662 69.2291 61.6598 69.22 61.6482C69.1269 61.6371 69.0342 61.5788 68.9419 61.4733C68.939 61.41 68.9406 61.3525 68.9468 61.3008C68.9592 61.1973 68.9911 61.1067 69.0423 61.0289C69.118 60.9226 69.2034 60.8227 69.2986 60.7292C69.3937 60.6356 69.4843 60.5363 69.5703 60.4312C69.6667 60.3274 69.7241 60.1979 69.7427 60.0427C69.7633 59.7829 69.6872 59.543 69.5142 59.323C69.3412 59.1029 69.1161 58.9238 68.8389 58.7857C68.5733 58.6385 68.2814 58.5353 67.9633 58.4763L67.8391 58.4614C67.5702 58.4292 67.3164 58.446 67.0777 58.5118C66.8713 58.571 66.6767 58.6631 66.4939 58.7881C66.311 58.9131 66.1264 59.0536 65.9398 59.2096C65.6002 59.5046 65.2921 59.8874 65.0155 60.3578C64.74 60.8179 64.5567 61.3415 64.4654 61.9285C64.5345 62.0522 64.6293 62.137 64.7497 62.1829C64.8299 62.2135 64.9218 62.235 65.0252 62.2474L65.1183 62.2585C65.254 62.2643 65.3955 62.2655 65.5427 62.2622C65.6912 62.2485 65.8431 62.2509 65.9982 62.2695C66.0814 62.3634 66.1588 62.4618 66.2304 62.5648C66.2929 62.6562 66.3148 62.7795 66.2962 62.9347L66.2888 62.9967C66.1651 63.0658 66.0303 63.0969 65.8842 63.0899C65.7899 63.0891 65.691 63.0825 65.5876 63.0701L65.4014 63.0478C65.2268 63.0164 65.0529 62.9798 64.8795 62.9381C64.7566 62.9129 64.6383 62.8935 64.5246 62.8798L64.3539 62.8594C64.2729 63.1854 64.2132 63.5087 64.1748 63.8293C64.1587 63.9638 64.1484 64.0937 64.1438 64.2191C64.1113 64.6663 64.1 65.1108 64.11 65.5526C64.1316 65.9853 64.1687 66.4199 64.2214 66.8564C64.2753 67.2825 64.3343 67.7092 64.3985 68.1365C64.3663 68.4054 64.3618 68.6619 64.3851 68.906C64.4199 69.141 64.4547 69.3759 64.4895 69.6109C64.5346 69.8471 64.57 70.0769 64.5957 70.3003C64.6003 70.4373 64.5933 70.5833 64.5747 70.7384C64.5636 70.8315 64.5467 70.9292 64.5239 71.0313C64.3771 71.1187 64.2313 71.1537 64.0865 71.1363C63.9727 71.1227 63.8575 71.0774 63.7408 71.0005C63.6023 69.704 63.4806 68.399 63.3756 67.0855C63.2719 65.7617 63.2608 64.3651 63.3424 62.8956C63.2158 62.9014 63.0466 62.9126 62.8348 62.9292C62.6333 62.9471 62.4447 62.9455 62.2689 62.9244C62.2469 62.9323 62.2308 62.9356 62.2205 62.9343C62.055 62.9145 61.9255 62.857 61.832 62.7619C61.736 62.6875 61.6985 62.5623 61.7196 62.3865L61.7307 62.2934C62.0041 62.2003 62.2972 62.1619 62.61 62.1784C62.9228 62.1949 63.2186 62.1779 63.4974 62.1273C63.6094 61.5428 63.7873 60.9766 64.0313 60.4288C64.2856 59.8822 64.5951 59.4 64.9599 58.9821C65.3363 58.555 65.7693 58.224 66.2591 57.9889C66.7489 57.7538 67.3001 57.6625 67.9128 57.7149L68.0214 57.7279C68.1972 57.7489 68.3816 57.7867 68.5743 57.8413C68.7957 57.9203 69.01 58.0141 69.2173 58.1229C69.4349 58.2329 69.6294 58.3611 69.8007 58.5075C69.9823 58.6551 70.1259 58.814 70.2315 58.984C70.4401 59.3447 70.5266 59.717 70.4911 60.1009L70.4855 60.1474C70.4422 60.5094 70.2683 60.8663 69.9639 61.218ZM75.859 69.0213C75.7519 69.3022 75.5813 69.5441 75.3472 69.7468C75.1131 69.9496 74.8833 70.1162 74.6579 70.2465C74.4544 70.369 74.2294 70.4522 73.9828 70.4961C73.7363 70.5401 73.5021 70.6117 73.2804 70.711C72.8849 70.6846 72.5107 70.6555 72.1578 70.6238C71.8037 70.6023 71.4495 70.5809 71.0954 70.5595C70.6643 70.3924 70.2704 70.1774 69.9137 69.9144C69.5662 69.6629 69.2674 69.3544 69.0175 68.9887C68.9016 68.8175 68.7822 68.5881 68.6593 68.3006C68.5363 68.0131 68.4372 67.7023 68.3618 67.368C68.2877 67.0234 68.2458 66.6722 68.2362 66.3143C68.2304 66.1877 68.2355 66.0572 68.2516 65.9228C68.2764 65.7159 68.3258 65.5225 68.3998 65.3425C68.4316 65.2519 68.5067 65.1507 68.625 65.039C68.7433 64.9273 68.8543 64.7885 68.9581 64.6226C69.2902 64.1273 69.6401 63.7023 70.0078 63.3477C70.3859 62.9943 70.8425 62.729 71.3778 62.5519C71.717 62.4351 72.1185 62.3678 72.5822 62.3499C72.8871 62.3445 73.1896 62.3597 73.4895 62.3956C73.655 62.4154 73.8198 62.4404 73.9841 62.4706C74.4446 62.5677 74.8724 62.7186 75.2675 62.9233C75.673 63.1292 75.9779 63.3861 76.1824 63.6938C76.3152 63.8986 76.4133 64.1306 76.4767 64.39C76.5516 64.6403 76.5839 64.8959 76.5736 65.157L76.5532 65.3276C76.5297 65.5242 76.4809 65.7124 76.4069 65.8924C76.306 66.1216 76.1519 66.313 75.9447 66.4665C75.6796 66.6655 75.36 66.8371 74.9861 66.9811C74.6237 67.1161 74.2334 67.2215 73.8152 67.2973C73.4085 67.364 72.9855 67.392 72.5462 67.3813C72.3356 67.3876 72.132 67.3789 71.9355 67.3554C71.708 67.3281 71.4927 67.2866 71.2895 67.2308C70.882 67.1296 70.5065 66.9797 70.1631 66.7812C69.8313 66.5736 69.5534 66.3095 69.3295 65.9889C69.3056 66.1015 69.2874 66.2094 69.275 66.3129C69.2428 66.5818 69.2468 66.855 69.287 67.1326C69.3446 67.5277 69.4582 67.8927 69.6279 68.2278C69.7976 68.5628 70.0194 68.8569 70.2933 69.1101C70.5788 69.3541 70.8989 69.5288 71.2534 69.6342C71.4657 69.7016 71.6959 69.7501 71.9442 69.7799C71.9752 69.7836 72.0068 69.7821 72.0391 69.7755C72.308 69.8077 72.5742 69.8186 72.8377 69.8082C73.1129 69.7887 73.3749 69.7467 73.624 69.6821C73.873 69.6175 74.0935 69.5285 74.2854 69.4151C74.4542 69.3199 74.595 69.1951 74.7079 69.0408C74.8312 68.8877 74.9842 68.7487 75.167 68.6237C75.22 68.6195 75.2723 68.6206 75.324 68.6268C75.4585 68.6429 75.5646 68.6765 75.6424 68.7278C75.7384 68.8023 75.8106 68.9001 75.859 69.0213ZM75.6974 65.115C75.7003 64.916 75.6522 64.7476 75.5533 64.6099C75.466 64.4631 75.3985 64.2819 75.3509 64.0663C75.1676 63.8451 74.9206 63.6738 74.6099 63.5527C74.2991 63.4316 73.968 63.3499 73.6163 63.3078C73.2543 63.2644 72.8834 63.2515 72.5036 63.269C72.1355 63.2773 71.7964 63.3049 71.4866 63.3517C71.1569 63.564 70.8455 63.7995 70.5522 64.0581C70.2602 64.3064 70.0131 64.6178 69.8109 64.9922C69.9495 65.3236 70.1428 65.5932 70.3906 65.8013C70.6397 65.999 70.9306 66.1545 71.2632 66.2677C71.5752 66.3785 71.9122 66.4556 72.2742 66.499C72.2948 66.5014 72.3213 66.4994 72.3536 66.4927C72.7466 66.5398 73.1518 66.5726 73.5693 66.5911C73.7484 66.4972 73.9579 66.4121 74.1978 66.3359C74.4481 66.261 74.6789 66.1733 74.8903 66.0727C75.1133 65.963 75.3019 65.8335 75.4561 65.6841C75.5873 65.5529 75.664 65.3942 75.6863 65.2081L75.6974 65.115ZM90.7191 68.0629C90.7266 68.2631 90.7192 68.4563 90.6969 68.6425C90.6634 68.9218 90.5944 69.1915 90.4898 69.4517C90.3112 69.892 90.0599 70.2815 89.7361 70.6204C89.4226 70.9605 89.0532 71.2415 88.628 71.4634C88.204 71.6749 87.7518 71.8148 87.2715 71.8832C86.9307 71.9263 86.6051 71.9292 86.2948 71.8921C86.1707 71.8772 86.0524 71.8578 85.9398 71.8338C85.5104 71.7404 85.1142 71.5881 84.7514 71.3767C84.3898 71.1551 84.0596 70.89 83.7608 70.5814C83.4724 70.2741 83.2349 69.9362 83.0482 69.5676C82.7777 69.7241 82.5158 69.9392 82.2627 70.2132C82.0212 70.478 81.7608 70.7248 81.4816 70.9537C81.2037 71.1721 80.8957 71.3346 80.5577 71.441C80.3604 71.5118 80.1428 71.5329 79.9049 71.5044C79.7291 71.4834 79.5409 71.4346 79.3402 71.3581C78.948 71.2167 78.6439 70.9967 78.4278 70.6981C78.2131 70.3891 78.0562 70.0346 77.9572 69.6345C77.8583 69.2345 77.8056 68.7981 77.7993 68.3252C77.793 67.8524 77.8092 67.3665 77.848 66.8675C77.8674 66.6181 77.8963 66.333 77.9347 66.0124C77.9305 65.9595 77.9316 65.9071 77.9378 65.8554C77.9687 65.5968 78.0158 65.335 78.0791 65.0698C78.1369 64.762 78.2136 64.4721 78.3091 64.2003C78.4046 63.9285 78.5249 63.7121 78.6701 63.5512C78.745 63.5391 78.8134 63.5368 78.8755 63.5443C78.9479 63.5529 79.0081 63.5759 79.0561 63.6131C79.1314 63.6851 79.2067 63.7571 79.282 63.829C79.3135 63.9167 79.3249 63.9968 79.3162 64.0692L79.3125 64.1002C79.2922 64.1817 79.2616 64.262 79.2207 64.341C79.1901 64.4212 79.1492 64.5003 79.0979 64.5781C79.0582 64.6467 79.0276 64.727 79.0061 64.8189C78.9172 65.1229 78.8523 65.4456 78.8115 65.787C78.7925 65.8581 78.7792 65.9247 78.7718 65.9868C78.7384 66.266 78.7159 66.5414 78.7043 66.8127C78.6842 67.1565 78.6795 67.5022 78.6903 67.8497C78.7024 68.1868 78.7157 68.5137 78.7302 68.8301C78.7431 69.073 78.7883 69.3092 78.8657 69.5388C78.9431 69.7684 79.0507 69.9648 79.1885 70.1282C79.3263 70.2916 79.5007 70.4122 79.7117 70.4899C79.8011 70.5321 79.8923 70.5587 79.9854 70.5699C80.1302 70.5872 80.2884 70.5799 80.4601 70.548C80.5892 70.5215 80.7503 70.4464 80.9435 70.3227C81.1366 70.1989 81.3265 70.0591 81.513 69.9031C81.7112 69.7379 81.8938 69.571 82.0609 69.4021C82.228 69.2333 82.3551 69.0912 82.4424 68.9757C82.5425 68.8409 82.6057 68.7068 82.6322 68.5736L82.6471 68.4495C82.6582 68.3564 82.6642 68.2627 82.665 68.1684C82.6501 68.0302 82.6254 67.8856 82.591 67.7346C82.5683 67.5745 82.5525 67.3995 82.5438 67.2096C82.5106 66.786 82.5117 66.3823 82.5472 65.9983L82.5621 65.8742C82.6017 65.5433 82.6751 65.2373 82.7822 64.9564C82.9021 64.656 83.0739 64.4038 83.2977 64.1998C83.5227 63.9855 83.8081 63.8361 84.1539 63.7516C84.4828 63.8959 84.7216 64.0923 84.8702 64.3409C85.02 64.5792 85.104 64.8411 85.1223 65.1265C85.1256 65.2738 85.1193 65.4146 85.1032 65.5491C85.0833 65.7146 85.048 65.8782 84.9971 66.04C84.907 66.3544 84.7859 66.6651 84.6337 66.9721C84.4931 67.27 84.3383 67.5557 84.1691 67.8292C84.0012 68.0924 83.8486 68.3154 83.7113 68.4983C83.8053 68.9397 83.9779 69.338 84.2291 69.6933C84.4803 70.0486 84.7919 70.3377 85.1639 70.5606C85.5462 70.7848 85.9804 70.9259 86.4665 70.9842C86.4756 70.9957 86.4853 71.0022 86.4957 71.0034C86.9714 71.0604 87.4809 71.0112 88.024 70.856C88.52 70.5692 88.9649 70.271 89.3586 69.9615C89.462 69.7116 89.5685 69.4358 89.678 69.1342C89.7888 68.8223 89.8796 68.5026 89.9502 68.1754C89.992 68.002 90.0234 67.8275 90.0444 67.6516C90.0618 67.5068 90.0739 67.3614 90.0809 67.2154C90.0871 66.9014 90.039 66.6019 89.9368 66.3169C89.8974 66.2072 89.8459 66.1119 89.7822 66.0308C89.7185 65.9498 89.6489 65.8732 89.5736 65.8013C89.5087 65.7305 89.4443 65.6546 89.3806 65.5736C89.3169 65.4925 89.2647 65.4023 89.2242 65.303C89.3532 65.0143 89.499 64.8481 89.6615 64.8046C89.7041 64.7993 89.7513 64.7997 89.803 64.8059C89.9064 64.8182 90.0107 64.8674 90.1158 64.9535C90.2561 65.0962 90.3889 65.3009 90.5143 65.5677C90.6397 65.8345 90.7317 66.1183 90.7901 66.4191C90.8588 66.721 90.8913 67.0187 90.8877 67.312C90.8881 67.396 90.884 67.4742 90.8753 67.5466C90.8518 67.7431 90.7997 67.9152 90.7191 68.0629ZM84.066 64.7482C83.9088 64.8343 83.7823 64.9713 83.6864 65.1591C83.5904 65.3469 83.5288 65.5546 83.5016 65.7822C83.4875 65.812 83.4786 65.8424 83.4749 65.8734C83.4501 66.0802 83.4454 66.2948 83.4608 66.5169C83.4608 66.7792 83.4847 67.0181 83.5323 67.2336C83.6142 67.0756 83.7198 66.8941 83.8493 66.6893C83.98 66.4742 84.0906 66.2514 84.1811 66.0209C84.2539 65.8513 84.3002 65.6837 84.32 65.5182C84.3274 65.4562 84.3291 65.3987 84.3249 65.3457C84.3303 65.1261 84.244 64.9269 84.066 64.7482ZM105.569 72.5796C105.461 72.8605 105.291 73.1024 105.057 73.3051C104.823 73.5079 104.593 73.6745 104.367 73.8048C104.164 73.9273 103.939 74.0105 103.692 74.0545C103.446 74.0984 103.212 74.17 102.99 74.2693C102.594 74.2429 102.22 74.2139 101.867 74.1821C101.513 74.1606 101.159 74.1392 100.805 74.1178C100.374 73.9507 99.98 73.7357 99.6233 73.4727C99.2757 73.2212 98.977 72.9127 98.727 72.547C98.6111 72.3758 98.4917 72.1464 98.3688 71.8589C98.2459 71.5714 98.1467 71.2606 98.0713 70.9263C97.9972 70.5817 97.9554 70.2305 97.9458 69.8726C97.9399 69.7461 97.9451 69.6155 97.9612 69.4811C97.986 69.2742 98.0353 69.0808 98.1094 68.9008C98.1412 68.8102 98.2163 68.7091 98.3345 68.5973C98.4528 68.4856 98.5639 68.3468 98.6677 68.1809C98.9998 67.6856 99.3497 67.2606 99.7174 66.906C100.095 66.5526 100.552 66.2874 101.087 66.1102C101.427 65.9934 101.828 65.9261 102.292 65.9082C102.597 65.9028 102.899 65.918 103.199 65.9539C103.365 65.9737 103.529 65.9987 103.694 66.0289C104.154 66.126 104.582 66.2769 104.977 66.4816C105.383 66.6875 105.687 66.9444 105.892 67.2521C106.025 67.4569 106.123 67.6889 106.186 67.9483C106.261 68.1986 106.293 68.4542 106.283 68.7153L106.263 68.8859C106.239 69.0825 106.19 69.2707 106.116 69.4507C106.016 69.6799 105.861 69.8713 105.654 70.0248C105.389 70.2238 105.07 70.3954 104.696 70.5394C104.333 70.6744 103.943 70.7798 103.525 70.8556C103.118 70.9223 102.695 70.9503 102.256 70.9396C102.045 70.9459 101.842 70.9372 101.645 70.9137C101.418 70.8864 101.202 70.8449 100.999 70.7891C100.592 70.6879 100.216 70.538 99.8727 70.3395C99.5408 70.1319 99.263 69.8678 99.0391 69.5472C99.0151 69.6598 98.9969 69.7677 98.9846 69.8712C98.9523 70.1401 98.9563 70.4133 98.9965 70.6909C99.0541 71.086 99.1678 71.451 99.3375 71.7861C99.5071 72.1212 99.729 72.4152 100.003 72.6684C100.288 72.9124 100.608 73.0871 100.963 73.1925C101.175 73.2599 101.405 73.3085 101.654 73.3382C101.685 73.3419 101.716 73.3404 101.749 73.3338C102.018 73.366 102.284 73.3769 102.547 73.3665C102.822 73.347 103.084 73.305 103.333 73.2404C103.583 73.1758 103.803 73.0868 103.995 72.9734C104.164 72.8782 104.305 72.7534 104.417 72.5991C104.541 72.446 104.694 72.307 104.877 72.182C104.93 72.1778 104.982 72.1789 105.034 72.1851C105.168 72.2012 105.274 72.2349 105.352 72.2861C105.448 72.3606 105.52 72.4584 105.569 72.5796ZM105.407 68.6733C105.41 68.4743 105.362 68.3059 105.263 68.1682C105.176 68.0214 105.108 67.8402 105.06 67.6246C104.877 67.4034 104.63 67.2321 104.319 67.111C104.009 66.9899 103.677 66.9082 103.326 66.8661C102.964 66.8228 102.593 66.8098 102.213 66.8273C101.845 66.8356 101.506 66.8632 101.196 66.91C100.866 67.1223 100.555 67.3578 100.262 67.6164C99.9697 67.8647 99.7226 68.1761 99.5204 68.5505C99.6591 68.8819 99.8523 69.1515 100.1 69.3596C100.349 69.5573 100.64 69.7128 100.973 69.826C101.285 69.9368 101.622 70.0139 101.984 70.0573C102.004 70.0597 102.031 70.0577 102.063 70.051C102.456 70.0981 102.861 70.1309 103.279 70.1494C103.458 70.0555 103.667 69.9704 103.907 69.8942C104.158 69.8193 104.388 69.7316 104.6 69.631C104.823 69.5213 105.011 69.3918 105.166 69.2424C105.297 69.1112 105.374 68.9525 105.396 68.7664L105.407 68.6733ZM114.083 75.3304L114.066 75.47C114.044 75.6562 113.994 75.8128 113.916 75.9398C113.802 76.1045 113.613 76.1921 113.349 76.2025C113.233 76.1255 113.134 76.0298 113.053 75.9152C112.982 75.8122 112.911 75.7041 112.84 75.5907C112.779 75.489 112.707 75.386 112.625 75.2817C112.542 75.1878 112.425 75.1161 112.274 75.0665C112.088 74.6036 111.861 74.1777 111.592 73.7889C111.336 73.391 111.063 73.0016 110.772 72.6206C109.728 73.2824 108.747 74.0252 107.83 74.8491C107.758 74.8404 107.713 74.8193 107.696 74.7858L107.65 74.7802C107.629 74.7777 107.601 74.7902 107.567 74.8175C107.42 74.9888 107.246 75.1253 107.045 75.2271C106.859 75.2048 106.717 75.1197 106.62 74.9716C106.522 74.8235 106.477 74.6713 106.486 74.5149L106.491 74.4683C106.507 74.3339 106.569 74.2102 106.677 74.0972C106.774 73.9934 106.93 73.9544 107.148 73.9804L107.194 73.986C107.738 73.6525 108.263 73.2957 108.77 72.9158C109.277 72.5359 109.757 72.1213 110.209 71.6719C109.883 71.0663 109.555 70.4343 109.225 69.7758C108.895 69.1172 108.589 68.425 108.309 67.699C108.254 67.5455 108.181 67.3689 108.089 67.1691C107.998 66.9693 107.941 66.7894 107.918 66.6293C107.903 66.5751 107.899 66.5221 107.905 66.4704C107.915 66.3877 107.95 66.3184 108.009 66.2625C108.067 66.217 108.184 66.2047 108.36 66.2258C108.442 66.2357 108.535 66.252 108.637 66.2748C108.75 66.4667 108.846 66.6723 108.925 66.8915C109.015 67.1017 109.1 67.3163 109.178 67.5356C109.269 67.7457 109.365 67.9513 109.466 68.1523C109.58 68.3443 109.716 68.518 109.876 68.6735C109.912 68.8981 109.966 69.1091 110.036 69.3064C110.119 69.4947 110.207 69.6783 110.301 69.8574C110.406 70.0274 110.512 70.1974 110.617 70.3674C110.723 70.5375 110.812 70.7159 110.884 70.9029C111.402 70.4299 111.874 69.9094 112.298 69.3413C112.733 68.7744 113.178 68.214 113.633 67.6599C113.627 67.6173 113.627 67.5753 113.632 67.534C113.638 67.4822 113.654 67.4369 113.68 67.398C113.707 67.3488 113.724 67.288 113.733 67.2156L113.742 67.138C113.853 67.0884 113.967 67.0548 114.085 67.0374C114.16 67.0254 114.228 67.0231 114.29 67.0305C114.332 67.0355 114.372 67.0456 114.413 67.0609C114.514 67.094 114.591 67.1504 114.644 67.2303C114.708 67.3114 114.741 67.4255 114.745 67.5728C114.508 67.9746 114.257 68.3589 113.993 68.7259C113.73 69.0826 113.457 69.4329 113.175 69.7767C112.904 70.1115 112.622 70.445 112.331 70.7772C112.041 71.0992 111.75 71.4263 111.458 71.7585C111.662 72.0663 111.86 72.3889 112.05 72.7264C112.252 73.0549 112.455 73.3781 112.658 73.6962C112.861 74.0143 113.077 74.313 113.306 74.5921C113.545 74.8726 113.804 75.1187 114.083 75.3304ZM124.411 74.5059C124.362 74.563 124.296 74.6337 124.212 74.7181C124.139 74.8038 124.055 74.8882 123.962 74.9714C123.878 75.0558 123.795 75.135 123.713 75.2091C123.632 75.2728 123.558 75.3217 123.491 75.3556C123.435 75.3804 123.353 75.4073 123.245 75.4363C123.148 75.4562 123.04 75.48 122.922 75.5078C122.804 75.5252 122.681 75.5419 122.554 75.5581C122.436 75.5755 122.335 75.5896 122.25 75.6004C122.197 75.6045 122.147 75.6248 122.101 75.6612C122.066 75.6885 122.032 75.7055 122 75.7121L121.954 75.7065C121.902 75.7004 121.862 75.6851 121.833 75.6607C121.793 75.6454 121.742 75.634 121.68 75.6266L121.618 75.6191C121.513 75.6171 121.407 75.6306 121.298 75.6595C121.2 75.6898 121.11 75.6999 121.027 75.69C120.882 75.6727 120.71 75.6206 120.511 75.5337C120.311 75.4469 120.143 75.3638 120.006 75.2844C119.899 75.2087 119.81 75.1194 119.739 75.0164C119.668 74.903 119.572 74.7918 119.448 74.6826C119.335 74.5746 119.226 74.4828 119.119 74.4071C119.025 74.3224 118.945 74.2394 118.882 74.1584C118.819 74.0669 118.795 73.9644 118.808 73.8506L118.795 73.8332C118.808 73.7194 118.867 73.5796 118.971 73.4137C119.078 73.395 119.173 73.3907 119.256 73.4006C119.349 73.4117 119.43 73.4372 119.498 73.4769C119.623 73.5757 119.734 73.6992 119.832 73.8472C119.93 73.985 120.029 74.1279 120.126 74.276C120.234 74.4253 120.368 74.5357 120.527 74.6073C120.825 74.7479 121.119 74.8355 121.409 74.8702C121.595 74.8925 121.779 74.8883 121.961 74.8576C122.418 74.8075 122.824 74.6568 123.18 74.4056C123.546 74.1453 123.849 73.8091 124.087 73.397C124.336 72.9861 124.494 72.5383 124.563 72.0534L124.576 71.9448C124.612 71.6449 124.608 71.3665 124.566 71.1096C124.515 70.8307 124.436 70.5695 124.329 70.3259C124.222 70.0822 124.092 69.8568 123.938 69.6495C123.786 69.432 123.633 69.2196 123.479 69.0124C123.024 68.6956 122.559 68.5087 122.083 68.4517C122.021 68.4443 121.958 68.442 121.895 68.4449C121.352 68.4219 120.813 68.4989 120.278 68.6761C119.918 68.7904 119.562 68.9156 119.21 69.0518C118.859 69.1776 118.564 69.3626 118.325 69.6068C118.373 70.1686 118.409 70.7498 118.431 71.3505C118.465 71.9421 118.472 72.5409 118.452 73.147C118.428 73.6058 118.389 74.0679 118.333 74.5333L118.277 74.9987C118.181 75.6271 118.033 76.2494 117.833 76.8654C117.766 77.0777 117.703 77.2957 117.645 77.5195C117.587 77.7434 117.524 77.9562 117.458 78.1581C117.401 78.3716 117.331 78.5677 117.246 78.7464C117.172 78.9264 117.08 79.0832 116.97 79.2169C116.823 79.3882 116.629 79.5223 116.386 79.6191C116.144 79.716 115.903 79.7605 115.662 79.7527L115.554 79.7397C115.357 79.7162 115.182 79.6479 115.027 79.535C114.833 79.4068 114.722 79.1942 114.695 78.8972C114.606 78.0578 114.61 77.1979 114.704 76.3176L114.725 76.1469C114.823 75.3298 114.986 74.5363 115.215 73.7664C115.451 72.9344 115.754 72.1524 116.125 71.4205C116.496 70.6886 116.909 70.0456 117.363 69.4916C117.389 69.2744 117.354 69.0446 117.257 68.8022C117.17 68.561 117.088 68.3308 117.009 68.1115C116.931 67.8923 116.898 67.6838 116.911 67.4861C116.902 67.4745 116.898 67.4635 116.899 67.4532C116.92 67.2773 117.027 67.1276 117.221 67.0038C117.287 67.0642 117.366 67.1051 117.458 67.1266C117.56 67.1494 117.634 67.1897 117.679 67.2476C117.699 67.5227 117.747 67.775 117.825 68.0046C117.914 68.2251 118.003 68.4404 118.093 68.6506C118.255 68.6174 118.408 68.5675 118.552 68.5009C118.698 68.4239 118.843 68.3469 118.989 68.27C119.145 68.1942 119.295 68.123 119.439 68.0564C119.594 67.991 119.757 67.9423 119.929 67.9104C119.983 67.896 120.041 67.8924 120.103 67.8999L120.15 67.9054C120.159 67.917 120.174 67.924 120.194 67.9265C120.246 67.9327 120.304 67.9292 120.369 67.9159C120.509 67.8803 120.651 67.8344 120.794 67.7781C120.948 67.723 121.105 67.6789 121.267 67.6458C121.44 67.6035 121.627 67.5735 121.828 67.5557C121.923 67.5565 122.032 67.5643 122.156 67.5792C122.259 67.5916 122.367 67.6098 122.48 67.6337C122.81 67.7677 123.094 67.8961 123.331 68.0189C123.569 68.1314 123.779 68.2614 123.961 68.4091C124.153 68.558 124.326 68.7308 124.481 68.9277C124.637 69.1143 124.792 69.348 124.948 69.6288C125.137 69.9767 125.269 70.3598 125.345 70.778C125.432 71.1871 125.456 71.6043 125.415 72.0296L125.408 72.0917C125.358 72.5054 125.257 72.9129 125.104 73.3142C124.938 73.735 124.707 74.1322 124.411 74.5059ZM117.103 76.5262C117.203 76.129 117.297 75.6944 117.385 75.2223C117.435 74.8926 117.48 74.5622 117.519 74.2313L117.568 73.8279C117.613 73.3612 117.645 72.9192 117.664 72.5018C117.682 72.0843 117.684 71.7226 117.668 71.4164C117.657 71.2472 117.625 71.0756 117.572 70.9014C117.519 70.7272 117.483 70.6338 117.464 70.6209C117.442 70.6288 117.424 70.6476 117.41 70.6774C117.396 70.7072 117.377 70.7312 117.354 70.7494C117.129 71.1421 116.902 71.5922 116.673 72.0999C116.444 72.6075 116.233 73.1435 116.04 73.7079C115.846 74.2722 115.688 74.8512 115.564 75.4449C115.481 75.7916 115.419 76.1356 115.378 76.4769C115.349 76.7148 115.331 76.9539 115.323 77.1943C115.309 77.4863 115.32 77.7919 115.355 78.1108C115.401 78.431 115.531 78.7036 115.745 78.9286C115.935 78.9199 116.097 78.8344 116.232 78.6722C116.377 78.5112 116.501 78.311 116.603 78.0714C116.714 77.8435 116.808 77.5872 116.884 77.3025C116.969 77.0294 117.042 76.7707 117.103 76.5262ZM133.944 75.9781C133.837 76.259 133.666 76.5009 133.432 76.7036C133.198 76.9064 132.968 77.073 132.743 77.2033C132.539 77.3258 132.314 77.409 132.068 77.453C131.821 77.4969 131.587 77.5685 131.365 77.6678C130.97 77.6414 130.596 77.6124 130.243 77.5806C129.889 77.5592 129.534 77.5377 129.18 77.5163C128.749 77.3493 128.355 77.1342 127.999 76.8712C127.651 76.6197 127.352 76.3112 127.102 75.9455C126.986 75.7743 126.867 75.5449 126.744 75.2574C126.621 74.9699 126.522 74.6591 126.447 74.3248C126.373 73.9802 126.331 73.629 126.321 73.2711C126.315 73.1446 126.32 73.014 126.337 72.8796C126.361 72.6727 126.411 72.4793 126.485 72.2993C126.517 72.2087 126.592 72.1076 126.71 71.9958C126.828 71.8841 126.939 71.7453 127.043 71.5794C127.375 71.0841 127.725 70.6591 128.093 70.3045C128.471 69.9511 128.927 69.6859 129.463 69.5087C129.802 69.3919 130.203 69.3246 130.667 69.3067C130.972 69.3013 131.274 69.3165 131.574 69.3524C131.74 69.3723 131.905 69.3972 132.069 69.4274C132.529 69.5245 132.957 69.6754 133.352 69.8801C133.758 70.086 134.063 70.3429 134.267 70.6506C134.4 70.8554 134.498 71.0874 134.562 71.3468C134.636 71.5971 134.669 71.8527 134.659 72.1138L134.638 72.2844C134.615 72.481 134.566 72.6692 134.492 72.8492C134.391 73.0784 134.237 73.2698 134.03 73.4233C133.764 73.6223 133.445 73.7939 133.071 73.9379C132.709 74.0729 132.318 74.1783 131.9 74.2541C131.493 74.3208 131.07 74.3488 130.631 74.3381C130.42 74.3444 130.217 74.3357 130.02 74.3122C129.793 74.285 129.578 74.2434 129.374 74.1876C128.967 74.0864 128.591 73.9365 128.248 73.738C127.916 73.5304 127.638 73.2663 127.414 72.9457C127.39 73.0583 127.372 73.1662 127.36 73.2697C127.328 73.5386 127.332 73.8118 127.372 74.0894C127.429 74.4845 127.543 74.8495 127.713 75.1846C127.882 75.5197 128.104 75.8137 128.378 76.0669C128.664 76.3109 128.984 76.4856 129.338 76.591C129.551 76.6584 129.781 76.707 130.029 76.7367C130.06 76.7404 130.092 76.7389 130.124 76.7323C130.393 76.7645 130.659 76.7754 130.923 76.765C131.198 76.7455 131.46 76.7035 131.709 76.6389C131.958 76.5743 132.178 76.4853 132.37 76.3719C132.539 76.2767 132.68 76.1519 132.793 75.9976C132.916 75.8445 133.069 75.7055 133.252 75.5805C133.305 75.5763 133.357 75.5774 133.409 75.5836C133.543 75.5997 133.649 75.6334 133.727 75.6846C133.823 75.7591 133.895 75.8569 133.944 75.9781ZM133.782 72.0718C133.785 71.8728 133.737 71.7044 133.638 71.5667C133.551 71.4199 133.483 71.2387 133.436 71.0231C133.252 70.8019 133.005 70.6306 132.695 70.5095C132.384 70.3884 132.053 70.3067 131.701 70.2646C131.339 70.2213 130.968 70.2083 130.589 70.2258C130.22 70.2341 129.881 70.2617 129.571 70.3085C129.242 70.5208 128.93 70.7563 128.637 71.0149C128.345 71.2632 128.098 71.5746 127.896 71.949C128.034 72.2804 128.228 72.5501 128.476 72.7581C128.725 72.9558 129.015 73.1113 129.348 73.2245C129.66 73.3353 129.997 73.4124 130.359 73.4558C130.38 73.4583 130.406 73.4562 130.438 73.4496C130.831 73.4966 131.237 73.5294 131.654 73.5479C131.833 73.454 132.043 73.3689 132.283 73.2928C132.533 73.2178 132.764 73.1301 132.975 73.0295C133.198 72.9198 133.387 72.7903 133.541 72.6409C133.672 72.5097 133.749 72.3511 133.771 72.1649L133.782 72.0718ZM143.421 72.1404C143.234 72.2124 143.083 72.2416 142.97 72.228C142.928 72.223 142.898 72.2089 142.88 72.1858C142.771 72.1308 142.699 72.0381 142.662 71.9078C142.635 71.7787 142.616 71.6348 142.603 71.4759C142.592 71.3067 142.535 71.1688 142.432 71.0621C142.358 70.9798 142.286 70.9291 142.215 70.9101C142.155 70.882 142.094 70.8642 142.032 70.8568C141.971 70.839 141.9 70.8251 141.817 70.8152C141.746 70.7962 141.656 70.754 141.549 70.6887C141.288 70.7624 141.018 70.8245 140.74 70.875C140.462 70.9152 140.193 70.9722 139.932 71.0459C139.673 71.1092 139.427 71.1951 139.193 71.3036C138.972 71.4029 138.787 71.5434 138.639 71.725C138.611 72.3092 138.606 72.8803 138.623 73.4384C138.65 73.9977 138.663 74.55 138.66 75.0952C138.659 75.6302 138.636 76.1729 138.591 76.7236L138.563 76.9563C138.506 77.4321 138.407 77.9132 138.265 78.3997C138.141 78.5528 137.986 78.6654 137.799 78.7374C137.611 78.8198 137.413 78.8958 137.206 78.9653C136.836 78.9 136.564 78.7625 136.389 78.5528C136.226 78.3444 136.113 78.1001 136.052 77.82C135.99 77.5503 135.956 77.2682 135.949 76.9736C135.942 76.6791 135.917 76.4085 135.873 76.162C136.001 75.7995 136.099 75.4179 136.168 75.017C136.237 74.6161 136.314 74.232 136.4 73.8646C136.498 73.4881 136.628 73.147 136.79 72.8412C136.963 72.5367 137.212 72.299 137.537 72.128C137.59 72.0296 137.624 71.9234 137.638 71.8097C137.645 71.7476 137.648 71.6798 137.646 71.6061C137.627 71.415 137.587 71.2214 137.527 71.0253C137.478 70.8201 137.423 70.6247 137.361 70.4389C137.3 70.2532 137.268 70.0764 137.267 69.9084C137.262 69.8658 137.262 69.8238 137.267 69.7824C137.28 69.6687 137.313 69.5729 137.364 69.4951C137.441 69.3784 137.592 69.2969 137.818 69.2505C137.923 69.3365 138.001 69.435 138.05 69.5458C138.11 69.6579 138.159 69.7791 138.196 69.9094C138.243 70.041 138.279 70.1764 138.304 70.3159C138.341 70.4462 138.389 70.5725 138.448 70.695C138.802 70.6324 139.164 70.5395 139.536 70.4161C139.919 70.2836 140.365 70.1902 140.875 70.1359C141.013 70.121 141.148 70.09 141.28 70.0428C141.411 69.9956 141.53 69.9678 141.636 69.9595C141.741 69.9616 141.84 69.9682 141.933 69.9793C142.15 70.0053 142.359 70.0514 142.561 70.1176C142.853 70.2259 143.087 70.3746 143.263 70.5636C143.45 70.7538 143.565 70.9826 143.606 71.2498C143.626 71.3466 143.63 71.4467 143.617 71.5502C143.595 71.7363 143.529 71.9331 143.421 72.1404ZM137.311 78.081C137.435 77.7496 137.527 77.3725 137.589 76.9497L137.618 76.7015C137.659 76.3601 137.685 76.0118 137.696 75.6564C137.708 75.2067 137.703 74.7655 137.682 74.3328C137.661 73.8897 137.631 73.4874 137.59 73.1259C137.428 73.4316 137.272 73.8116 137.123 74.2659C136.974 74.7202 136.871 75.1852 136.814 75.661C136.757 76.1367 136.76 76.5935 136.823 77.0311C136.886 77.4688 137.049 77.8188 137.311 78.081ZM149.785 71.2974C149.905 71.5216 149.958 71.6906 149.944 71.8044L149.941 71.8354C149.905 71.9571 149.817 72.0357 149.676 72.0713C149.546 72.1081 149.377 72.1193 149.169 72.1049C148.972 72.0814 148.765 72.0566 148.548 72.0306C148.321 72.0033 148.107 71.9883 147.908 71.9854C147.711 71.9722 147.551 71.995 147.428 72.0538C147.229 72.5755 147.095 73.1312 147.024 73.7207C147.009 73.7608 146.998 73.8016 146.994 73.8429C146.928 74.3911 146.904 74.9391 146.923 75.4868C146.926 76.0747 146.963 76.6352 147.036 77.1685C147.119 77.7029 147.22 78.1714 147.34 78.5739C147.451 78.6922 147.542 78.8552 147.612 79.0629C147.693 79.2614 147.822 79.4552 147.998 79.6442C148.072 79.7265 148.148 79.7985 148.224 79.8601C148.311 79.923 148.388 79.9846 148.454 80.045C148.519 80.1157 148.568 80.1898 148.6 80.2671C148.624 80.3329 148.631 80.4071 148.621 80.4899L148.612 80.5675C148.583 80.7214 148.501 80.8322 148.367 80.9001C148.255 80.9601 148.142 80.9833 148.028 80.9697L147.935 80.9586C147.845 80.9267 147.784 80.8618 147.754 80.7637C147.723 80.676 147.646 80.5673 147.526 80.4374C147.48 80.3795 147.413 80.3294 147.323 80.2873C147.243 80.2567 147.184 80.2234 147.146 80.1874C147.007 80.0344 146.883 79.8464 146.773 79.6234C146.673 79.412 146.579 79.1909 146.491 78.9601C146.413 78.7305 146.342 78.4964 146.276 78.2577C146.22 78.0202 146.174 77.7944 146.137 77.5801C146.083 77.3323 146.037 77.0593 145.999 76.761C145.961 76.4627 145.937 76.1347 145.928 75.7768C145.928 75.5985 145.939 75.4214 145.96 75.2456C145.974 75.1318 145.992 75.0239 146.015 74.9217C146.046 74.7471 146.073 74.5667 146.095 74.3805L146.127 74.1168C146.151 73.826 146.173 73.5087 146.193 73.1649C146.194 73.0705 146.201 72.9717 146.213 72.8682C146.242 72.6304 146.292 72.3898 146.363 72.1465C146.333 72.1324 146.297 72.1229 146.256 72.118C146.142 72.1044 146.013 72.1309 145.869 72.1975C145.67 72.2786 145.459 72.374 145.236 72.4837C145.025 72.5843 144.815 72.6745 144.606 72.7544C144.42 72.8161 144.255 72.8383 144.11 72.8209L144.017 72.8098C143.875 72.7718 143.779 72.6921 143.731 72.5709C143.68 72.4704 143.66 72.3736 143.671 72.2805C143.674 72.2599 143.682 72.2346 143.696 72.2048C143.72 72.0923 143.794 72.0015 143.918 71.9324C143.997 71.879 144.105 71.8603 144.239 71.8764C144.291 71.8826 144.342 71.894 144.392 71.9105C144.71 71.7073 145.059 71.5602 145.437 71.4691C145.825 71.3792 146.223 71.3009 146.629 71.2342C146.731 70.8267 146.862 70.3861 147.024 69.9124C147.196 69.4399 147.35 68.9811 147.488 68.5359C147.522 68.4246 147.546 68.3121 147.559 68.1983C147.572 68.0949 147.589 67.9972 147.61 67.9054C147.633 67.8032 147.664 67.7178 147.704 67.6491C147.754 67.5816 147.829 67.5276 147.928 67.4871C147.977 67.514 148.038 67.5317 148.11 67.5404C148.172 67.5478 148.234 67.5604 148.295 67.5782C148.355 67.596 148.41 67.6235 148.458 67.6607C148.506 67.6979 148.541 67.7546 148.563 67.8307C148.415 68.285 148.253 68.8007 148.079 69.3779C147.917 69.9459 147.775 70.5164 147.654 71.0894C147.777 71.1146 147.9 71.1347 148.024 71.1495C148.241 71.1755 148.476 71.1879 148.728 71.1866C148.968 71.1944 149.197 71.2113 149.414 71.2373C149.538 71.2522 149.662 71.2722 149.785 71.2974ZM158.332 74.0365C158.24 74.1933 158.135 74.3224 158.018 74.4238C157.913 74.516 157.757 74.5498 157.55 74.525L157.441 74.512C157.277 74.2196 157.124 73.9232 156.981 73.6229C156.849 73.3238 156.666 73.0553 156.432 72.8175C156.045 72.6348 155.643 72.4921 155.225 72.3896C155.112 72.3656 154.994 72.3462 154.87 72.3314C154.539 72.2917 154.187 72.2968 153.814 72.3465C153.621 72.3759 153.399 72.4333 153.148 72.5185C152.907 72.6051 152.739 72.6951 152.643 72.7886C152.571 72.8639 152.479 72.9367 152.365 73.0071C152.262 73.0787 152.159 73.1554 152.055 73.2374C151.961 73.3206 151.881 73.4159 151.816 73.5235C151.764 73.6013 151.733 73.6919 151.72 73.7953C151.715 73.8367 151.715 73.8839 151.719 73.9368C151.718 74.0311 151.738 74.1279 151.779 74.2272C151.83 74.3277 151.891 74.4295 151.962 74.5325C152.044 74.6367 152.128 74.7306 152.212 74.8142C152.307 74.8989 152.398 74.9676 152.486 75.0201C152.613 75.0983 152.747 75.1615 152.888 75.2099C153.031 75.2479 153.173 75.286 153.315 75.324C153.458 75.362 153.594 75.4046 153.725 75.4517C153.866 75.5001 153.988 75.5776 154.091 75.6844C154.575 75.7529 155.055 75.91 155.529 76.1557C156.004 76.3909 156.401 76.6744 156.718 77.0062C156.995 77.4905 157.108 77.9551 157.054 78.3998L157.041 78.5084C156.953 78.9805 156.737 79.3847 156.392 79.7211C156.049 80.0472 155.617 80.2839 155.096 80.4313C154.694 80.5406 154.282 80.5699 153.858 80.5191C153.734 80.5042 153.605 80.4836 153.472 80.4571C153.184 80.3178 152.914 80.1648 152.661 79.9981C152.407 79.8418 152.183 79.6575 151.988 79.4454C151.803 79.2344 151.653 78.9962 151.538 78.7306C151.424 78.4547 151.368 78.1384 151.369 77.7818L151.415 77.7874C151.477 77.7948 151.541 77.7867 151.607 77.7631C151.693 77.742 151.78 77.7209 151.866 77.6998C151.941 77.6878 152.01 77.6855 152.072 77.6929L152.118 77.6985C152.189 77.7175 152.252 77.7669 152.305 77.8468C152.382 77.9084 152.434 77.9934 152.463 78.1018C152.468 78.1547 152.467 78.2019 152.462 78.2432C152.454 78.3156 152.43 78.381 152.391 78.4394C152.572 78.7757 152.834 79.0379 153.179 79.226C153.453 79.3848 153.741 79.4822 154.041 79.5181C154.103 79.5255 154.17 79.5284 154.244 79.5268C154.61 79.5391 154.964 79.4714 155.307 79.3236C155.651 79.1655 155.917 78.9141 156.105 78.5695C156.108 78.3705 156.079 78.1781 156.017 77.9924C155.956 77.8066 155.871 77.6339 155.765 77.4743C155.495 77.2741 155.19 77.1012 154.851 76.9557C154.522 76.8114 154.182 76.6762 153.829 76.5501C153.489 76.4149 153.148 76.2797 152.808 76.1445C152.478 76.0105 152.166 75.8526 151.873 75.6706C151.591 75.4899 151.343 75.2767 151.132 75.031C150.93 74.7865 150.788 74.4862 150.704 74.13L150.779 73.5095C150.854 73.3192 150.947 73.1572 151.057 73.0235C151.169 72.8795 151.29 72.7471 151.42 72.6263C151.549 72.5055 151.683 72.3956 151.821 72.2967C151.96 72.1874 152.094 72.0724 152.224 71.9516C152.346 71.9031 152.466 71.8599 152.586 71.8218C152.716 71.7849 152.842 71.7475 152.961 71.7094C153.093 71.6622 153.215 71.6086 153.327 71.5486C153.439 71.4886 153.537 71.4112 153.622 71.3164C153.762 71.3751 153.915 71.4144 154.08 71.4342C154.101 71.4367 154.122 71.434 154.144 71.4261C154.33 71.4484 154.518 71.4604 154.706 71.462C154.907 71.4545 155.096 71.451 155.274 71.4513L155.491 71.4773C155.584 71.4885 155.672 71.5042 155.753 71.5244C156.229 71.6654 156.629 71.8811 156.95 72.1714C157.274 72.4514 157.585 72.7405 157.885 73.0387C157.882 73.1537 157.901 73.2557 157.943 73.3446C157.986 73.4232 158.029 73.5018 158.072 73.5804C158.127 73.6499 158.176 73.7239 158.219 73.8025C158.273 73.872 158.311 73.95 158.332 74.0365ZM11.3595 86.585C11.3136 86.7054 11.2638 86.8149 11.21 86.9133C11.1563 87.0118 11.0804 87.0762 10.9823 87.1064C10.9282 87.1209 10.8649 87.1238 10.7925 87.1151C10.7407 87.1089 10.6896 87.0976 10.6392 87.081C10.4969 87.043 10.3518 86.9837 10.2041 86.903C10.0564 86.8224 9.91512 86.732 9.78023 86.6319C9.65569 86.5331 9.56155 86.4431 9.49782 86.3621C9.36913 86.2103 9.26877 86.0409 9.19674 85.8539C9.13506 85.6682 9.07855 85.4831 9.02721 85.2986C8.97711 85.1037 8.93032 84.925 8.88684 84.7624C8.85371 84.6011 8.80135 84.4689 8.72975 84.3659C8.60979 84.404 8.50865 84.4601 8.42634 84.5342C8.34403 84.6082 8.26049 84.6927 8.1757 84.7874C8.10125 84.8834 8.02102 84.984 7.93499 85.0891C7.86055 85.1851 7.77183 85.2688 7.66884 85.3404C7.42563 85.5316 7.13835 85.6965 6.80701 85.8352C6.48725 85.9648 6.14597 86.055 5.78317 86.106C5.47332 86.1528 5.15808 86.157 4.83745 86.1186C4.78574 86.1124 4.73464 86.1011 4.68417 86.0845C4.31307 86.0296 3.96098 85.9035 3.62791 85.7062C3.29564 85.4147 3.00246 85.0596 2.74835 84.641C2.50459 84.2236 2.32267 83.7717 2.20258 83.2852C2.0825 82.7987 2.0437 82.2905 2.08619 81.7605C2.08328 81.6972 2.08555 81.6346 2.09298 81.5725C2.14748 81.1174 2.28597 80.6619 2.50843 80.206C2.59031 80.0479 2.69473 79.8768 2.8217 79.6927C2.96024 79.4995 3.10789 79.3178 3.26464 79.1477C3.4214 78.9777 3.58146 78.8237 3.74484 78.686C3.91856 78.5494 4.0834 78.4432 4.23935 78.3675C4.63894 78.1846 5.06544 78.0835 5.51885 78.0644C5.76045 78.0618 6.00019 78.0748 6.23807 78.1033C6.43458 78.1268 6.63503 78.1613 6.83941 78.2068C7.27671 78.3221 7.69169 78.4925 8.08434 78.7179C8.48857 78.9341 8.84648 79.1868 9.15806 79.4759C9.2623 79.394 9.38783 79.3094 9.53468 79.222C9.6931 79.1256 9.85422 79.0505 10.018 78.9967C10.1587 78.9611 10.2962 78.9513 10.4307 78.9674L10.5083 78.9767C10.6622 79.0056 10.8028 79.1012 10.9303 79.2633C10.9746 79.5938 10.9782 79.9142 10.9411 80.2245L10.9132 80.4572C10.8363 80.8362 10.7245 81.2005 10.5777 81.5501C10.4322 81.8894 10.2626 82.21 10.0691 82.5121C9.8859 82.8153 9.71034 83.0986 9.54244 83.3617C9.63936 83.8664 9.75427 84.3523 9.88718 84.8193C10.0304 85.2876 10.2432 85.7012 10.5254 86.0602L10.696 86.0807C10.8615 86.1005 10.9832 86.1361 11.0609 86.1873C11.166 86.2734 11.2656 86.4059 11.3595 86.585ZM10.0617 79.9461C9.81891 80.2213 9.6655 80.5386 9.60146 80.8981L9.57173 81.1463C9.53704 81.4359 9.52512 81.7545 9.53595 82.102C9.61287 81.9853 9.70447 81.8337 9.81075 81.6471C9.91827 81.4501 10.0109 81.2462 10.0886 81.0351C10.1407 80.863 10.1767 80.6942 10.1965 80.5288L10.2095 80.4202C10.2214 80.2327 10.1722 80.0747 10.0617 79.9461ZM8.6246 83.1416C8.63402 82.7126 8.64591 82.2629 8.66029 81.7925C8.66147 81.5199 8.67754 81.2543 8.70851 80.9957C8.72957 80.8199 8.75518 80.6499 8.78534 80.4856C8.67566 80.2627 8.51696 80.0548 8.30924 79.8621C8.10152 79.6694 7.8694 79.5052 7.61287 79.3695C7.35635 79.2339 7.08059 79.1274 6.78561 79.0501C6.61226 79.0084 6.44802 78.9782 6.29287 78.9597C6.16876 78.9448 6.04403 78.9351 5.91868 78.9306C5.55173 78.9286 5.22574 78.9787 4.94073 79.081C4.65695 79.1729 4.40049 79.2995 4.17133 79.4609C4.03279 79.6541 3.88142 79.8668 3.71724 80.0989C3.55305 80.3311 3.40252 80.5806 3.26565 80.8474C3.13912 81.1155 3.03721 81.3971 2.95991 81.6921C2.93594 81.8046 2.91776 81.9126 2.90538 82.016C2.88184 82.2125 2.87899 82.4115 2.89682 82.613C2.91837 82.7834 2.95813 82.977 3.0161 83.1938C3.08565 83.4014 3.16554 83.6103 3.25577 83.8205C3.35635 84.0319 3.46396 84.2283 3.57859 84.4099C3.70357 84.5928 3.82771 84.7388 3.95102 84.8479C4.14053 85.0175 4.37244 85.1397 4.64674 85.2145C4.81885 85.2666 5.00316 85.3044 5.19967 85.328C5.3031 85.3404 5.40715 85.3476 5.51181 85.3496C5.86551 85.2871 6.18279 85.1782 6.46366 85.023C6.74453 84.8678 7.00718 84.6894 7.25163 84.4879C7.49609 84.2864 7.72688 84.0675 7.94402 83.8312C8.1715 83.5962 8.39836 83.3663 8.6246 83.1416ZM20.239 81.5584C20.0521 81.6305 19.9017 81.6597 19.7879 81.646C19.7466 81.6411 19.7168 81.627 19.6986 81.6039C19.5897 81.5489 19.5169 81.4562 19.4801 81.3259C19.4536 81.1968 19.4341 81.0529 19.4216 80.894C19.4104 80.7248 19.3535 80.5869 19.2509 80.4802C19.1768 80.3978 19.1042 80.3472 19.033 80.3282C18.9735 80.3001 18.9126 80.2823 18.8506 80.2748C18.7898 80.2571 18.718 80.2432 18.6352 80.2333C18.5641 80.2143 18.4747 80.1721 18.3671 80.1068C18.1065 80.1805 17.8368 80.2426 17.558 80.2931C17.2804 80.3333 17.0113 80.3903 16.7507 80.464C16.4913 80.5273 16.245 80.6132 16.0117 80.7217C15.79 80.821 15.6053 80.9615 15.4576 81.1431C15.4296 81.7273 15.4242 82.2984 15.4413 82.8565C15.4687 83.4158 15.4812 83.9681 15.4789 84.5133C15.4777 85.0482 15.4547 85.591 15.4097 86.1417L15.3819 86.3744C15.3249 86.8501 15.2253 87.3313 15.0831 87.8178C14.9598 87.9709 14.8047 88.0835 14.6178 88.1555C14.4295 88.2379 14.2316 88.3139 14.0239 88.3834C13.6541 88.3181 13.382 88.1806 13.2078 87.9709C13.044 87.7625 12.9316 87.5182 12.8707 87.2381C12.8086 86.9684 12.7742 86.6863 12.7675 86.3917C12.7608 86.0972 12.7355 85.8266 12.6916 85.5801C12.8189 85.2176 12.9171 84.836 12.9861 84.4351C13.0551 84.0342 13.1326 83.6501 13.2186 83.2827C13.3161 82.9062 13.4461 82.5651 13.6086 82.2593C13.7815 81.9548 14.0303 81.7171 14.355 81.5461C14.4088 81.4477 14.4425 81.3415 14.4561 81.2278C14.4635 81.1657 14.4664 81.0979 14.4647 81.0242C14.4456 80.8331 14.4059 80.6395 14.3454 80.4434C14.2966 80.2382 14.2413 80.0428 14.1796 79.857C14.1179 79.6713 14.0867 79.4945 14.0858 79.3265C14.0804 79.2839 14.0802 79.2419 14.0852 79.2005C14.0988 79.0867 14.1312 78.991 14.1825 78.9132C14.2594 78.7965 14.4108 78.715 14.6367 78.6686C14.7418 78.7546 14.8192 78.8531 14.8688 78.9639C14.9289 79.076 14.9773 79.1972 15.0141 79.3275C15.0613 79.4591 15.0976 79.5945 15.1228 79.734C15.1597 79.8643 15.2075 79.9906 15.2663 80.1131C15.62 80.0505 15.9825 79.9576 16.354 79.8342C16.7371 79.7017 17.1836 79.6083 17.6937 79.554C17.8319 79.5391 17.9667 79.5081 18.0983 79.4609C18.2298 79.4137 18.3486 79.3859 18.4545 79.3776C18.5591 79.3797 18.658 79.3863 18.7511 79.3974C18.9683 79.4234 19.1778 79.4695 19.3797 79.5357C19.671 79.644 19.905 79.7926 20.0817 79.9817C20.2687 80.1719 20.383 80.4007 20.4244 80.6679C20.4443 80.7647 20.448 80.8648 20.4356 80.9683C20.4133 81.1544 20.3478 81.3512 20.239 81.5584ZM14.1299 87.4991C14.2535 87.1677 14.3458 86.7906 14.407 86.3678L14.4367 86.1196C14.4776 85.7782 14.5036 85.4299 14.5147 85.0745C14.5266 84.6248 14.5217 84.1836 14.5001 83.7509C14.4797 83.3078 14.4492 82.9055 14.4086 82.544C14.2461 82.8497 14.0904 83.2297 13.9416 83.684C13.7928 84.1383 13.6898 84.6033 13.6329 85.0791C13.5759 85.5548 13.5789 86.0116 13.6419 86.4492C13.7048 86.8869 13.8675 87.2369 14.1299 87.4991ZM28.0916 87.4717C27.9845 87.7527 27.8139 87.9945 27.5798 88.1973C27.3457 88.4 27.1159 88.5666 26.8905 88.697C26.6869 88.8195 26.4619 88.9027 26.2154 88.9466C25.9688 88.9905 25.7347 89.0621 25.5129 89.1614C25.1174 89.1351 24.7432 89.106 24.3904 89.0742C24.0362 89.0528 23.6821 89.0313 23.328 89.0099C22.8968 88.8429 22.503 88.6278 22.1463 88.3648C21.7987 88.1134 21.5 87.8048 21.25 87.4392C21.1341 87.2679 21.0147 87.0385 20.8918 86.751C20.7689 86.4636 20.6697 86.1527 20.5943 85.8184C20.5202 85.4738 20.4783 85.1226 20.4688 84.7648C20.4629 84.6382 20.4681 84.5077 20.4842 84.3732C20.5089 84.1663 20.5583 83.9729 20.6324 83.793C20.6642 83.7023 20.7393 83.6012 20.8575 83.4895C20.9758 83.3777 21.0869 83.2389 21.1907 83.073C21.5228 82.5777 21.8727 82.1528 22.2404 81.7981C22.6184 81.4448 23.0751 81.1795 23.6104 81.0023C23.9496 80.8856 24.351 80.8182 24.8148 80.8003C25.1197 80.7949 25.4221 80.8101 25.722 80.8461C25.8875 80.8659 26.0524 80.8909 26.2166 80.921C26.6771 81.0181 27.1049 81.169 27.5 81.3737C27.9055 81.5797 28.2105 81.8365 28.4149 82.1442C28.5477 82.349 28.6458 82.5811 28.7092 82.8404C28.7841 83.0907 28.8165 83.3464 28.8062 83.6074L28.7857 83.7781C28.7622 83.9746 28.7134 84.1628 28.6394 84.3428C28.5385 84.572 28.3845 84.7634 28.1772 84.9169C27.9121 85.116 27.5926 85.2875 27.2186 85.4316C26.8562 85.5665 26.4659 85.6719 26.0477 85.7477C25.641 85.8144 25.218 85.8424 24.7787 85.8318C24.5681 85.838 24.3646 85.8294 24.1681 85.8058C23.9405 85.7786 23.7252 85.737 23.5221 85.6812C23.1145 85.58 22.7391 85.4301 22.3957 85.2316C22.0638 85.024 21.786 84.7599 21.5621 84.4394C21.5381 84.5519 21.5199 84.6599 21.5075 84.7633C21.4753 85.0322 21.4793 85.3054 21.5195 85.583C21.5771 85.9781 21.6908 86.3432 21.8605 86.6782C22.0301 87.0133 22.252 87.3074 22.5259 87.5605C22.8114 87.8045 23.1314 87.9792 23.486 88.0846C23.6982 88.152 23.9285 88.2006 24.1767 88.2303C24.2077 88.234 24.2394 88.2326 24.2716 88.2259C24.5405 88.2581 24.8068 88.2691 25.0703 88.2586C25.3454 88.2391 25.6075 88.1971 25.8565 88.1325C26.1055 88.0679 26.326 87.9789 26.5179 87.8655C26.6867 87.7703 26.8275 87.6456 26.9404 87.4912C27.0637 87.3381 27.2167 87.1991 27.3996 87.0741C27.4525 87.07 27.5048 87.071 27.5566 87.0772C27.691 87.0933 27.7971 87.127 27.8749 87.1783C27.9709 87.2527 28.0431 87.3505 28.0916 87.4717ZM27.9299 83.5654C27.9328 83.3664 27.8848 83.1981 27.7859 83.0603C27.6985 82.9135 27.6311 82.7323 27.5834 82.5168C27.4001 82.2955 27.1531 82.1243 26.8424 82.0031C26.5317 81.882 26.2005 81.8003 25.8488 81.7582C25.4868 81.7149 25.116 81.7019 24.7362 81.7194C24.368 81.7277 24.029 81.7553 23.7191 81.8022C23.3895 82.0145 23.078 82.2499 22.7847 82.5085C22.4927 82.7568 22.2456 83.0682 22.0434 83.4426C22.1821 83.774 22.3753 84.0437 22.6232 84.2517C22.8723 84.4494 23.1631 84.6049 23.4958 84.7182C23.8077 84.829 24.1447 84.906 24.5067 84.9494C24.5274 84.9519 24.5539 84.9498 24.5861 84.9432C24.9792 84.9902 25.3844 85.023 25.8018 85.0416C25.9809 84.9476 26.1904 84.8625 26.4304 84.7864C26.6806 84.7114 26.9115 84.6237 27.1228 84.5231C27.3458 84.4134 27.5344 84.2839 27.6887 84.1345C27.8198 84.0033 27.8965 83.8447 27.9188 83.6585L27.9299 83.5654ZM43.5748 84.4635C43.4826 84.6203 43.3779 84.7494 43.2609 84.8508C43.1554 84.9431 42.9992 84.9768 42.7924 84.9521L42.6838 84.9391C42.5195 84.6466 42.3661 84.3502 42.2238 84.0499C42.0917 83.7508 41.9088 83.4824 41.675 83.2446C41.2877 83.0618 40.8852 82.9192 40.4673 82.8167C40.3548 82.7927 40.2365 82.7733 40.1124 82.7584C39.7814 82.7188 39.4293 82.7238 39.0562 82.7736C38.8638 82.803 38.6419 82.8603 38.3904 82.9456C38.1492 83.0321 37.9811 83.1221 37.8859 83.2156C37.814 83.291 37.7213 83.3638 37.608 83.4341C37.505 83.5057 37.4014 83.5825 37.2971 83.6644C37.2033 83.7476 37.1236 83.843 37.0583 83.9506C37.007 84.0284 36.9752 84.119 36.9628 84.2224C36.9578 84.2638 36.9574 84.3109 36.9616 84.3639C36.9608 84.4582 36.9807 84.555 37.0212 84.6543C37.0721 84.7548 37.1334 84.8565 37.205 84.9595C37.2869 85.0638 37.3701 85.1577 37.4545 85.2412C37.5493 85.326 37.6407 85.3947 37.7288 85.4472C37.8559 85.5253 37.9899 85.5886 38.131 85.637C38.2733 85.675 38.4156 85.713 38.5579 85.7511C38.7003 85.7891 38.8368 85.8317 38.9675 85.8788C39.1086 85.9272 39.2305 86.0047 39.3331 86.1114C39.818 86.18 40.2975 86.3371 40.7716 86.5827C41.247 86.818 41.6432 87.1015 41.9602 87.4332C42.2379 87.9176 42.3501 88.3821 42.2968 88.8269L42.2838 88.9355C42.1958 89.4075 41.9795 89.8118 41.635 90.1482C41.2917 90.4743 40.8594 90.711 40.3382 90.8584C39.937 90.9677 39.5243 90.9969 39.1002 90.9462C38.9761 90.9313 38.8475 90.9106 38.7143 90.8842C38.4267 90.7448 38.1565 90.5918 37.9037 90.4252C37.6497 90.2689 37.4252 90.0846 37.2303 89.8724C37.0457 89.6615 36.8959 89.4232 36.7809 89.1576C36.667 88.8817 36.6105 88.5655 36.6112 88.2089L36.6578 88.2144C36.7198 88.2219 36.7837 88.2138 36.8495 88.1902C36.936 88.1691 37.0224 88.148 37.1089 88.1268C37.1838 88.1148 37.2522 88.1125 37.3143 88.12L37.3608 88.1255C37.432 88.1446 37.4943 88.194 37.5476 88.2738C37.6242 88.3354 37.677 88.4204 37.7059 88.5288C37.7101 88.5818 37.7097 88.6289 37.7047 88.6703C37.6961 88.7427 37.6725 88.8081 37.634 88.8664C37.8141 89.2027 38.0764 89.4649 38.4211 89.6531C38.6958 89.8119 38.9831 89.9093 39.2831 89.9452C39.3451 89.9526 39.413 89.9555 39.4866 89.9538C39.8523 89.9661 40.2067 89.8984 40.5496 89.7507C40.8937 89.5925 41.1599 89.3412 41.348 88.9965C41.3509 88.7975 41.3215 88.6052 41.2598 88.4194C41.1981 88.2337 41.1139 88.061 41.0071 87.9013C40.7373 87.7011 40.4328 87.5283 40.0936 87.3827C39.7646 87.2384 39.4241 87.1032 39.072 86.9771C38.7315 86.8419 38.391 86.7067 38.0505 86.5715C37.7204 86.4376 37.4088 86.2796 37.1159 86.0976C36.8333 85.9169 36.586 85.7037 36.3742 85.458C36.1726 85.2136 36.0303 84.9133 35.947 84.5571L36.0214 83.9365C36.0966 83.7462 36.1894 83.5842 36.2999 83.4506C36.4115 83.3066 36.5323 83.1742 36.6622 83.0533C36.7921 82.9325 36.9259 82.8226 37.0636 82.7237C37.2026 82.6145 37.337 82.4995 37.4669 82.3786C37.5881 82.3302 37.7087 82.2869 37.8286 82.2488C37.9589 82.212 38.0841 82.1745 38.204 82.1364C38.3356 82.0893 38.4574 82.0356 38.5695 81.9756C38.6816 81.9156 38.78 81.8382 38.8648 81.7435C39.0047 81.8022 39.1573 81.8415 39.3228 81.8613C39.3435 81.8638 39.3648 81.8611 39.3867 81.8532C39.5729 81.8755 39.7603 81.8875 39.949 81.8891C40.1492 81.8816 40.3385 81.878 40.5168 81.8784L40.734 81.9044C40.827 81.9156 40.9143 81.9313 40.9958 81.9515C41.472 82.0925 41.8711 82.3081 42.193 82.5985C42.5162 82.8785 42.8278 83.1676 43.1278 83.4658C43.1245 83.5808 43.1437 83.6828 43.1855 83.7717C43.2286 83.8503 43.2716 83.9289 43.3147 84.0075C43.3693 84.077 43.4181 84.151 43.4612 84.2296C43.5158 84.2991 43.5537 84.3771 43.5748 84.4635ZM51.6216 87.835L51.6011 88.0056C51.559 88.3573 51.491 88.7059 51.3972 89.0513C51.2856 89.4576 51.1591 89.8568 51.0177 90.2491C50.8776 90.6309 50.7277 91.0064 50.5681 91.3755C50.4097 91.7342 50.2642 92.0734 50.1314 92.3933C50.0255 92.4016 49.9293 92.4163 49.8429 92.4374C49.7887 92.4519 49.7254 92.4548 49.653 92.4461C49.6116 92.4412 49.5605 92.4298 49.4997 92.412C49.4439 92.3529 49.3944 92.284 49.3514 92.2054C49.3174 92.1384 49.2777 92.0759 49.2322 92.018C49.4265 91.6217 49.6264 91.1788 49.8319 90.6893C50.0478 90.2011 50.2287 89.6982 50.3746 89.1806C50.4849 88.7847 50.5637 88.3902 50.6107 87.9972L50.6553 87.6248C50.685 87.1143 50.6173 86.6289 50.4521 86.1685C50.2986 85.9612 50.1167 85.7716 49.9065 85.5995C49.7066 85.4287 49.472 85.2852 49.2027 85.169C48.8126 85.1853 48.4516 85.2207 48.1199 85.2754C47.7881 85.3301 47.4838 85.4615 47.2071 85.6697C46.8146 85.9689 46.4976 86.382 46.2561 86.9091C46.0146 87.4362 45.8141 88.0154 45.6546 88.6468C45.495 89.2781 45.3595 89.9281 45.2479 90.5966C45.1376 91.2549 45.0116 91.8692 44.8698 92.4397C44.6688 92.5416 44.5114 92.5857 44.3976 92.572C44.3666 92.5683 44.3413 92.56 44.3219 92.5472C44.2015 92.5013 44.1189 92.4023 44.0742 92.25C44.0386 92.1094 44.0338 91.9305 44.0598 91.7133C44.0846 91.5064 44.121 91.2905 44.1689 91.0654C44.2168 90.8403 44.2629 90.6308 44.3071 90.4367C44.363 90.2336 44.4028 90.0758 44.4268 89.9632C44.5425 89.3476 44.6452 88.7095 44.7348 88.0488L44.8128 87.3972C44.8636 86.9731 44.9092 86.5485 44.9497 86.1232C45.0046 85.4898 45.0454 84.8862 45.0721 84.3124C45.1105 83.7295 45.1368 83.2028 45.1512 82.7325C45.0688 82.5442 45.0462 82.295 45.0834 81.9847C45.1206 81.6744 45.1441 81.3468 45.1539 81.0017C45.1543 80.8234 45.1404 80.6329 45.1122 80.4302C45.084 80.2275 45.0786 80.0538 45.096 79.909C45.1133 79.7642 45.1832 79.6624 45.3056 79.6036C45.3611 79.5788 45.4405 79.5726 45.5439 79.5849C45.6577 79.5986 45.8 79.6366 45.9709 79.699C46.0314 80.1574 46.0675 80.6443 46.0792 81.1598C46.0909 81.6752 46.0852 82.2044 46.0622 82.7471C46.0404 83.2796 46.0076 83.8159 45.9639 84.3562C45.9317 84.8874 45.9008 85.4083 45.8711 85.9188C46.0643 85.5328 46.35 85.2051 46.7285 84.9357C47.107 84.6663 47.5279 84.4806 47.9912 84.3787C48.3681 84.298 48.753 84.2811 49.146 84.3282L49.4408 84.3635C49.9323 84.4644 50.3876 84.692 50.8068 85.0464C51.0414 85.4522 51.2472 85.8808 51.4239 86.3321C51.6122 86.7743 51.6781 87.2752 51.6216 87.835ZM61.7949 87.9047C61.8243 88.3593 61.8162 88.778 61.7703 89.1607C61.727 89.5227 61.6505 89.8545 61.5409 90.1561C61.3078 90.7891 60.9674 91.3096 60.5199 91.7176C60.0827 92.1268 59.5526 92.4358 58.9296 92.6444C58.3182 92.844 57.6638 92.9649 56.9663 93.0073C56.2758 92.9036 55.6503 92.7395 55.0896 92.515C54.5394 92.2917 54.0669 91.9886 53.6721 91.6056C53.502 91.4488 53.3661 91.2699 53.2643 91.0689C53.174 90.8588 53.0948 90.6447 53.0265 90.4267C52.9582 90.2087 52.8905 89.9855 52.8234 89.7572C52.7679 89.5197 52.6963 89.2856 52.6085 89.0548C52.7532 88.5475 52.8973 88.0455 53.0407 87.5486C53.1841 87.0517 53.3646 86.596 53.5821 86.1814C53.8547 85.9203 54.1635 85.6635 54.5084 85.4111C54.8534 85.1587 55.2251 84.9461 55.6234 84.7735C56.023 84.5906 56.4416 84.4676 56.8793 84.4046C57.1788 84.3566 57.4837 84.3511 57.794 84.3883C57.9285 84.4044 58.0669 84.4315 58.2092 84.4695C58.3722 84.51 58.5586 84.5743 58.7683 84.6624C58.9884 84.7517 59.2021 84.8507 59.4094 84.9595C59.6271 85.0695 59.8279 85.1879 60.0121 85.3149C60.2065 85.4431 60.3596 85.5664 60.4713 85.6846C60.5636 85.7901 60.6449 85.8995 60.7153 86.0129C60.7857 86.1262 60.8502 86.2441 60.909 86.3665C60.9793 86.4799 61.0555 86.5887 61.1374 86.6929C61.2297 86.7984 61.3445 86.8908 61.4819 86.9702C61.5369 87.1237 61.5804 87.2862 61.6123 87.4579C61.6558 87.6205 61.7166 87.7694 61.7949 87.9047ZM60.746 90.0923C60.7993 89.9099 60.8371 89.7256 60.8594 89.5394C60.8768 89.3946 60.8896 89.244 60.8978 89.0876C60.8882 88.7298 60.8981 88.3848 60.9274 88.0526C60.7846 87.9305 60.6656 87.7852 60.5705 87.6164C60.4753 87.4476 60.3859 87.2743 60.3023 87.0964C60.2186 86.9186 60.1293 86.7452 60.0341 86.5765C59.9492 86.4089 59.836 86.259 59.6945 86.1267C59.3784 85.9629 59.0784 85.7958 58.7946 85.6255C58.5224 85.446 58.2214 85.3312 57.8916 85.2813L57.7986 85.2701C57.3848 85.2206 57.0251 85.2457 56.7194 85.3454C56.3815 85.4518 56.0559 85.5859 55.7428 85.7478C55.5186 85.8678 55.3163 85.98 55.136 86.0842C54.9556 86.1885 54.7895 86.305 54.6377 86.4337C54.4963 86.5637 54.3633 86.7104 54.2388 86.8738C54.1156 87.0269 54.0041 87.2129 53.9045 87.4317C53.7643 87.8136 53.6732 88.1804 53.6311 88.532C53.6001 88.7906 53.5962 89.0419 53.6195 89.286C53.6767 89.8594 53.8615 90.3746 54.174 90.8317C54.3775 90.9714 54.5902 91.1228 54.812 91.2858C55.035 91.4384 55.2696 91.5819 55.5158 91.7163C55.7735 91.8415 56.0396 91.9416 56.3139 92.0164C56.455 92.0648 56.6031 92.0983 56.7582 92.1168C56.8927 92.133 57.0335 92.1393 57.1808 92.136C57.5387 92.1264 57.9072 92.0709 58.2866 91.9694C58.6659 91.868 59.0186 91.7266 59.3445 91.5454C59.6705 91.3641 59.9582 91.152 60.2076 90.9091C60.457 90.6662 60.6364 90.3939 60.746 90.0923ZM76.1053 90.4841C76.1128 90.6844 76.1054 90.8776 76.0831 91.0637C76.0496 91.343 75.9806 91.6127 75.876 91.873C75.6974 92.3132 75.4461 92.7027 75.1223 93.0416C74.8088 93.3818 74.4394 93.6628 74.0142 93.8846C73.5902 94.0961 73.1381 94.236 72.6578 94.3044C72.3169 94.3475 71.9913 94.3505 71.681 94.3133C71.5569 94.2984 71.4386 94.279 71.3261 94.2551C70.8966 94.1617 70.5005 94.0093 70.1376 93.798C69.776 93.5763 69.4458 93.3112 69.147 93.0027C68.8586 92.6953 68.6211 92.3574 68.4344 91.9888C68.1639 92.1453 67.9021 92.3605 67.6489 92.6344C67.4074 92.8992 67.147 93.146 66.8678 93.3749C66.5899 93.5934 66.2819 93.7558 65.944 93.8622C65.7466 93.933 65.529 93.9542 65.2912 93.9257C65.1153 93.9046 64.9271 93.8558 64.7264 93.7793C64.3342 93.638 64.0301 93.4179 63.8141 93.1193C63.5993 92.8103 63.4424 92.4558 63.3434 92.0558C63.2445 91.6558 63.1918 91.2193 63.1855 90.7465C63.1792 90.2736 63.1954 89.7877 63.2342 89.2888C63.2536 89.0393 63.2825 88.7543 63.3209 88.4336C63.3168 88.3807 63.3178 88.3284 63.324 88.2766C63.3549 88.0181 63.402 87.7562 63.4653 87.491C63.5231 87.1832 63.5998 86.8934 63.6953 86.6216C63.7908 86.3497 63.9111 86.1333 64.0563 85.9724C64.1312 85.9604 64.1997 85.9581 64.2617 85.9655C64.3341 85.9742 64.3943 85.9971 64.4423 86.0344C64.5176 86.1063 64.5929 86.1783 64.6682 86.2503C64.6997 86.338 64.7111 86.418 64.7024 86.4904L64.6987 86.5214C64.6785 86.6029 64.6479 86.6832 64.6069 86.7622C64.5763 86.8425 64.5354 86.9215 64.4841 86.9993C64.4444 87.068 64.4138 87.1482 64.3923 87.2401C64.3034 87.5442 64.2386 87.8669 64.1977 88.2082C64.1787 88.2793 64.1655 88.346 64.158 88.408C64.1246 88.6873 64.1021 88.9626 64.0906 89.234C64.0704 89.5778 64.0657 89.9234 64.0765 90.2709C64.0886 90.6081 64.1019 90.9349 64.1165 91.2514C64.1293 91.4942 64.1745 91.7304 64.2519 91.96C64.3293 92.1896 64.4369 92.3861 64.5747 92.5495C64.7125 92.7128 64.8869 92.8334 65.0979 92.9111C65.1873 92.9533 65.2785 92.98 65.3716 92.9911C65.5164 93.0084 65.6746 93.0012 65.8463 92.9693C65.9754 92.9428 66.1365 92.8677 66.3297 92.7439C66.5228 92.6202 66.7127 92.4803 66.8992 92.3243C67.0974 92.1592 67.28 91.9922 67.4471 91.8234C67.6142 91.6546 67.7414 91.5124 67.8286 91.397C67.9287 91.2621 67.992 91.128 68.0184 90.9948L68.0333 90.8707C68.0444 90.7776 68.0504 90.6839 68.0512 90.5896C68.0363 90.4514 68.0116 90.3068 67.9773 90.1559C67.9545 89.9958 67.9387 89.8208 67.93 89.6309C67.8968 89.2073 67.8979 88.8035 67.9334 88.4196L67.9483 88.2955C67.9879 87.9645 68.0613 87.6585 68.1684 87.3776C68.2883 87.0772 68.4601 86.8251 68.6839 86.621C68.9089 86.4067 69.1943 86.2573 69.5401 86.1728C69.8691 86.3171 70.1078 86.5136 70.2564 86.7622C70.4062 87.0004 70.4902 87.2623 70.5085 87.5477C70.5119 87.695 70.5055 87.8359 70.4894 87.9703C70.4696 88.1358 70.4342 88.2994 70.3834 88.4612C70.2933 88.7756 70.1721 89.0864 70.0199 89.3934C69.8793 89.6913 69.7245 89.9769 69.5553 90.2504C69.3874 90.5136 69.2348 90.7366 69.0975 90.9195C69.1915 91.3609 69.3641 91.7592 69.6153 92.1146C69.8665 92.4699 70.1781 92.759 70.5501 92.9819C70.9324 93.206 71.3666 93.3472 71.8527 93.4054C71.8618 93.417 71.8715 93.4234 71.8819 93.4246C72.3576 93.4816 72.8671 93.4325 73.4103 93.2772C73.9062 92.9904 74.3511 92.6922 74.7449 92.3827C74.8482 92.1328 74.9547 91.8571 75.0642 91.5554C75.175 91.2435 75.2658 90.9239 75.3364 90.5966C75.3782 90.4233 75.4096 90.2487 75.4307 90.0729C75.448 89.9281 75.4602 89.7827 75.4672 89.6366C75.4733 89.3226 75.4252 89.0231 75.323 88.7381C75.2837 88.6285 75.2321 88.5331 75.1684 88.4521C75.1047 88.371 75.0352 88.2945 74.9599 88.2225C74.8949 88.1518 74.8305 88.0759 74.7668 87.9948C74.7031 87.9137 74.6509 87.8236 74.6104 87.7243C74.7394 87.4355 74.8852 87.2694 75.0477 87.2259C75.0904 87.2205 75.1375 87.2209 75.1892 87.2271C75.2927 87.2395 75.3969 87.2887 75.502 87.3747C75.6423 87.5174 75.7751 87.7222 75.9006 87.989C76.026 88.2558 76.1179 88.5395 76.1763 88.8403C76.245 89.1423 76.2776 89.4399 76.2739 89.7332C76.2743 89.8172 76.2702 89.8954 76.2615 89.9678C76.238 90.1643 76.1859 90.3364 76.1053 90.4841ZM69.4523 87.1694C69.2951 87.2555 69.1685 87.3925 69.0726 87.5803C68.9766 87.7682 68.915 87.9759 68.8878 88.2034C68.8737 88.2332 68.8648 88.2636 68.8611 88.2946C68.8364 88.5015 68.8316 88.716 68.847 88.9381C68.8471 89.2004 68.8709 89.4393 68.9185 89.6549C69.0004 89.4968 69.1061 89.3154 69.2355 89.1106C69.3662 88.8954 69.4768 88.6726 69.5673 88.4422C69.6401 88.2725 69.6864 88.105 69.7062 87.9395C69.7137 87.8774 69.7153 87.8199 69.7112 87.767C69.7165 87.5473 69.6302 87.3481 69.4523 87.1694ZM85.7479 90.2542C85.6831 90.7081 85.6118 91.1716 85.5342 91.6449C85.4577 92.1079 85.3612 92.5631 85.2447 93.0108C85.1293 93.4481 84.99 93.8668 84.8267 94.2669C84.6646 94.6566 84.4701 95.011 84.243 95.33C84.2459 95.3933 84.2437 95.456 84.2362 95.518C84.2214 95.6422 84.1877 95.7483 84.1351 95.8364C84.0442 95.9829 83.9375 96.0855 83.815 96.1443C83.7133 96.2055 83.6055 96.2293 83.4917 96.2157C83.471 96.2132 83.451 96.2056 83.4315 96.1928C83.288 96.1651 83.1674 96.0772 83.0697 95.9291C83.0693 95.8451 83.0728 95.7721 83.0802 95.7101C83.0876 95.648 83.1002 95.5866 83.118 95.5257C83.1511 95.4248 83.1939 95.3303 83.2464 95.2421C83.3092 95.1552 83.3709 95.0787 83.4313 95.0125C83.4929 94.9359 83.5545 94.8594 83.6161 94.7828C83.8477 94.3385 84.0563 93.8232 84.2419 93.2369C84.4288 92.6403 84.5633 92.0427 84.6455 91.444L84.6529 91.382C84.7223 90.8028 84.7201 90.2518 84.6463 89.7289C84.5647 89.184 84.3724 88.7309 84.0695 88.3694C84.024 88.3115 83.9514 88.2608 83.8517 88.2174C83.752 88.174 83.6459 88.1403 83.5333 88.1163L83.4092 88.1014C83.3265 88.0915 83.2483 88.0874 83.1746 88.0891C83.0493 88.0846 82.9382 88.0922 82.8414 88.1121C82.4104 88.2074 81.9882 88.4033 81.575 88.7001C81.1734 88.9877 80.8102 89.3481 80.4856 89.7813C80.1622 90.2042 79.901 90.6765 79.7021 91.1982C79.5248 91.6281 79.4082 92.0757 79.3525 92.5411C79.3401 92.6446 79.3329 92.7486 79.3308 92.8533C79.3127 93.0924 79.321 93.3294 79.3558 93.5644C79.3918 93.7891 79.4279 94.0137 79.4639 94.2383C79.5103 94.4642 79.5509 94.6946 79.5857 94.9296C79.6217 95.1542 79.6359 95.3867 79.6281 95.6271C79.5317 95.7309 79.4223 95.8122 79.2998 95.871C79.1993 95.9219 79.0818 95.9393 78.9474 95.9232C78.8853 95.9158 78.8239 95.9032 78.7631 95.8854C78.6227 95.4804 78.5476 95.057 78.5375 94.6152C78.5378 94.1746 78.5233 93.727 78.4938 93.2723C78.4672 92.881 78.4328 92.4677 78.3905 92.0325C78.3585 91.5985 78.315 91.1737 78.2599 90.7579C78.2164 90.3331 78.1606 89.9225 78.0927 89.5262C78.0363 89.1208 77.9756 88.7516 77.9106 88.4185C77.8841 88.2895 77.8512 88.1701 77.8119 88.0605C77.7829 87.9521 77.7636 87.8502 77.7541 87.7546C77.7499 87.7016 77.7503 87.6545 77.7553 87.6131C77.7602 87.5717 77.771 87.5258 77.7875 87.4753C77.8181 87.3951 77.8913 87.3094 78.0071 87.2184C78.0936 87.1973 78.173 87.191 78.2454 87.1997C78.3385 87.2109 78.4188 87.2415 78.4862 87.2915C78.5901 87.3879 78.6644 87.5122 78.7091 87.6644C78.7538 87.8166 78.7811 87.9825 78.7911 88.1621C78.8011 88.3416 78.8135 88.5005 78.8284 88.6386C78.8819 88.9807 78.9378 89.3022 78.9962 89.6029C79.0662 89.8946 79.0991 90.1451 79.0951 90.3544C79.3515 89.9655 79.6209 89.5991 79.9034 89.2552C80.1974 88.9023 80.513 88.5886 80.8501 88.3142C81.1885 88.0295 81.558 87.7905 81.9589 87.5973C82.37 87.4052 82.8274 87.2659 83.3308 87.1793L83.4084 87.1886C83.8428 87.2406 84.1903 87.3609 84.451 87.5495C84.7208 87.7497 84.9326 87.9954 85.0866 88.2866C85.2521 88.5687 85.3771 88.8827 85.4616 89.2285C85.5564 89.5756 85.6519 89.9175 85.7479 90.2542Z" fill="#7B78A7"/>
<path d="M150.332 9.94273C150.33 8.97313 150.096 8.81523 149.73 9.14125C150.677 11.1059 149.382 13.4505 149.721 15.6271C151.11 24.5433 150.337 13.3057 150.332 9.94273Z" fill="#7B78A7"/>
<path d="M81 41.6526C85.7528 35.0215 93.0375 23.146 102.848 24.6473C110.376 25.7992 111.593 35.0319 115.253 40.4071C125.275 55.1259 141.09 22.5124 145.702 16.1241C146.888 14.4811 150.326 6.2159 150.332 9.94273C150.337 13.3057 151.11 24.5433 149.721 15.6271C149.323 13.0756 151.172 10.2935 149.022 8.16284C148.159 7.30802 138.496 12.8451 137.788 13.9132" stroke="#7B78A7" stroke-linecap="round"/>
</svg>
