<svg width="874" height="390" viewBox="0 0 874 390" fill="none" xmlns="http://www.w3.org/2000/svg">
<path opacity="0.3" fill-rule="evenodd" clip-rule="evenodd" d="M918.238 17.9218C959.911 93.0944 905.588 180.55 882.793 263.432C856.058 360.635 858.53 475.878 776.255 534.158C684.291 599.301 558.299 607.62 452.8 568.019C347.305 528.418 266.729 436.758 231.594 329.706C199.521 231.982 237.034 130.772 278.379 36.5811C316.781 -50.9018 361.445 -151.31 453.684 -176.242C541.007 -199.846 611.204 -110.818 694.655 -75.9393C772.182 -43.5361 877.502 -55.5601 918.238 17.9218Z" fill="url(#paint0_linear_73_4465)"/>
<path opacity="0.3" d="M959.612 408.999C923.252 445.044 869.557 468.177 815.999 491.251C789.751 502.559 763.535 513.854 739.409 526.647C710.133 542.171 681.602 560.45 653.147 578.68L653.145 578.682C636.577 589.296 620.034 599.895 603.385 609.923H238.334C155.799 560.273 87.8126 485.781 46.0638 401.66C-19.0032 270.555 -12.2758 116.466 52.2913 -9.66022C111.232 -124.796 240.294 -179.464 366.592 -224.465C483.897 -266.261 619.099 -313.694 730.708 -251.386C800.776 -212.268 818.095 -136.512 835.871 -58.7581C844.9 -19.2628 854.047 20.7484 870.285 56.7344C885.368 90.1606 908.112 122.038 930.564 153.505C940.537 167.482 950.452 181.378 959.612 195.293V144.15H1013.19V425.145H959.612V408.999Z" fill="url(#paint1_linear_73_4465)"/>
<defs>
<linearGradient id="paint0_linear_73_4465" x1="928.039" y1="38.5671" x2="238.882" y2="351.493" gradientUnits="userSpaceOnUse">
<stop stop-color="#0A1330"/>
<stop offset="1" stop-color="white" stop-opacity="0"/>
</linearGradient>
<linearGradient id="paint1_linear_73_4465" x1="1044.76" y1="370.406" x2="55.317" y2="-19.0904" gradientUnits="userSpaceOnUse">
<stop stop-color="#0A1330"/>
<stop offset="1" stop-color="white" stop-opacity="0"/>
</linearGradient>
</defs>
</svg>
