<svg width="141" height="27" viewBox="0 0 141 27" fill="none" xmlns="http://www.w3.org/2000/svg">
<path d="M12.5 0.0584106L16.1002 8.12909L24.3882 9.29776L18.3252 15.4544L19.8473 24.2473L12.5 19.9817L5.15268 24.2473L6.67478 15.4544L0.611794 9.29776L8.89982 8.12909L12.5 0.0584106Z" fill="#F89E1F"/>
<path d="M41.5 0.0584106L45.1002 8.12909L53.3882 9.29776L47.3252 15.4544L48.8473 24.2473L41.5 19.9817L34.1527 24.2473L35.6748 15.4544L29.6118 9.29776L37.8998 8.12909L41.5 0.0584106Z" fill="#F89E1F"/>
<path d="M70.5 0.0584106L74.1002 8.12909L82.3882 9.29776L76.3252 15.4544L77.8473 24.2473L70.5 19.9817L63.1527 24.2473L64.6748 15.4544L58.6118 9.29776L66.8998 8.12909L70.5 0.0584106Z" fill="#F89E1F"/>
<path d="M99.5 0.0584106L103.1 8.12909L111.388 9.29776L105.325 15.4544L106.847 24.2473L99.5 19.9817L92.1527 24.2473L93.6748 15.4544L87.6118 9.29776L95.8998 8.12909L99.5 0.0584106Z" fill="#F89E1F"/>
<path d="M128.5 1.28575L131.644 8.33278L131.756 8.58555L132.03 8.62419L139.335 9.65425L133.969 15.1036L133.789 15.2866L133.833 15.5397L135.172 23.2771L128.751 19.5493L128.5 19.4035L128.249 19.5493L121.828 23.2771L123.167 15.5397L123.211 15.2866L123.031 15.1036L117.665 9.65425L124.97 8.62419L125.244 8.58555L125.356 8.33278L128.5 1.28575Z" fill="#F89E1F" stroke="#F89E1F"/>
</svg>
