<svg width="141" height="28" viewBox="0 0 141 28" fill="none" xmlns="http://www.w3.org/2000/svg">
<path d="M12.5 0.497864L16.1002 8.56854L24.3882 9.73722L18.3252 15.8938L19.8473 24.6868L12.5 20.4211L5.15268 24.6868L6.67478 15.8938L0.611794 9.73722L8.89982 8.56854L12.5 0.497864Z" fill="#F89E1F"/>
<path d="M41.5 0.497864L45.1002 8.56854L53.3882 9.73722L47.3252 15.8938L48.8473 24.6868L41.5 20.4211L34.1527 24.6868L35.6748 15.8938L29.6118 9.73722L37.8998 8.56854L41.5 0.497864Z" fill="#F89E1F"/>
<path d="M70.5 0.497864L74.1002 8.56854L82.3882 9.73722L76.3252 15.8938L77.8473 24.6868L70.5 20.4211L63.1527 24.6868L64.6748 15.8938L58.6118 9.73722L66.8998 8.56854L70.5 0.497864Z" fill="#F89E1F"/>
<path d="M99.5 1.7252L102.644 8.77224L102.756 9.025L103.03 9.06365L110.335 10.0937L104.969 15.543L104.789 15.726L104.833 15.9791L106.172 23.7165L99.751 19.9887L99.5 19.843L99.249 19.9887L92.8281 23.7165L94.1675 15.9791L94.2113 15.726L94.031 15.543L88.6646 10.0937L95.9696 9.06365L96.2437 9.025L96.3564 8.77224L99.5 1.7252Z" fill="#F89E1F" stroke="#F89E1F"/>
<path d="M128.5 0.497864L132.1 8.56854L140.388 9.73722L134.325 15.8938L135.847 24.6868L128.5 20.4211L121.153 24.6868L122.675 15.8938L116.612 9.73722L124.9 8.56854L128.5 0.497864Z" fill="#E5E6FB"/>
</svg>
