<svg width="141" height="28" viewBox="0 0 141 28" fill="none" xmlns="http://www.w3.org/2000/svg">
<path d="M12.5 0.937317L16.1002 9.008L24.3882 10.1767L18.3252 16.3333L19.8473 25.1263L12.5 20.8606L5.15268 25.1263L6.67478 16.3333L0.611794 10.1767L8.89982 9.008L12.5 0.937317Z" fill="#F89E1F"/>
<path d="M41.5 0.937317L45.1002 9.008L53.3882 10.1767L47.3252 16.3333L48.8473 25.1263L41.5 20.8606L34.1527 25.1263L35.6748 16.3333L29.6118 10.1767L37.8998 9.008L41.5 0.937317Z" fill="#F89E1F"/>
<path d="M70.5 0.937317L74.1002 9.008L82.3882 10.1767L76.3252 16.3333L77.8473 25.1263L70.5 20.8606L63.1527 25.1263L64.6748 16.3333L58.6118 10.1767L66.8998 9.008L70.5 0.937317Z" fill="#F89E1F"/>
<path d="M99.5 0.937317L103.1 9.008L111.388 10.1767L105.325 16.3333L106.847 25.1263L99.5 20.8606L92.1527 25.1263L93.6748 16.3333L87.6118 10.1767L95.8998 9.008L99.5 0.937317Z" fill="#E5E6FB"/>
<path d="M128.5 0.937317L132.1 9.008L140.388 10.1767L134.325 16.3333L135.847 25.1263L128.5 20.8606L121.153 25.1263L122.675 16.3333L116.612 10.1767L124.9 9.008L128.5 0.937317Z" fill="#E5E6FB"/>
</svg>
