<svg width="141" height="28" viewBox="0 0 141 28" fill="none" xmlns="http://www.w3.org/2000/svg">
<path d="M12.5 0.374817L16.1002 8.4455L24.3882 9.61417L18.3252 15.7708L19.8473 24.5638L12.5 20.2981L5.15268 24.5638L6.67478 15.7708L0.611794 9.61417L8.89982 8.4455L12.5 0.374817Z" fill="#F89E1F"/>
<path d="M41.5 0.374817L45.1002 8.4455L53.3882 9.61417L47.3252 15.7708L48.8473 24.5638L41.5 20.2981L34.1527 24.5638L35.6748 15.7708L29.6118 9.61417L37.8998 8.4455L41.5 0.374817Z" fill="#F89E1F"/>
<path d="M70.5 0.374817L74.1002 8.4455L82.3882 9.61417L76.3252 15.7708L77.8473 24.5638L70.5 20.2981L63.1527 24.5638L64.6748 15.7708L58.6118 9.61417L66.8998 8.4455L70.5 0.374817Z" fill="#E5E6FB"/>
<path d="M99.5 0.374817L103.1 8.4455L111.388 9.61417L105.325 15.7708L106.847 24.5638L99.5 20.2981L92.1527 24.5638L93.6748 15.7708L87.6118 9.61417L95.8998 8.4455L99.5 0.374817Z" fill="#E5E6FB"/>
<path d="M128.5 0.374817L132.1 8.4455L140.388 9.61417L134.325 15.7708L135.847 24.5638L128.5 20.2981L121.153 24.5638L122.675 15.7708L116.612 9.61417L124.9 8.4455L128.5 0.374817Z" fill="#E5E6FB"/>
</svg>
