<svg width="141" height="28" viewBox="0 0 141 28" fill="none" xmlns="http://www.w3.org/2000/svg">
<path d="M12.5 0.81427L16.1002 8.88495L24.3882 10.0536L18.3252 16.2102L19.8473 25.0032L12.5 20.7375L5.15268 25.0032L6.67478 16.2102L0.611794 10.0536L8.89982 8.88495L12.5 0.81427Z" fill="#F89E1F"/>
<path d="M41.5 0.81427L45.1002 8.88495L53.3882 10.0536L47.3252 16.2102L48.8473 25.0032L41.5 20.7375L34.1527 25.0032L35.6748 16.2102L29.6118 10.0536L37.8998 8.88495L41.5 0.81427Z" fill="#E5E6FB"/>
<path d="M70.5 0.81427L74.1002 8.88495L82.3882 10.0536L76.3252 16.2102L77.8473 25.0032L70.5 20.7375L63.1527 25.0032L64.6748 16.2102L58.6118 10.0536L66.8998 8.88495L70.5 0.81427Z" fill="#E5E6FB"/>
<path d="M99.5 0.81427L103.1 8.88495L111.388 10.0536L105.325 16.2102L106.847 25.0032L99.5 20.7375L92.1527 25.0032L93.6748 16.2102L87.6118 10.0536L95.8998 8.88495L99.5 0.81427Z" fill="#E5E6FB"/>
<path d="M128.5 0.81427L132.1 8.88495L140.388 10.0536L134.325 16.2102L135.847 25.0032L128.5 20.7375L121.153 25.0032L122.675 16.2102L116.612 10.0536L124.9 8.88495L128.5 0.81427Z" fill="#E5E6FB"/>
</svg>
