<svg width="18" height="20" viewBox="0 0 18 20" fill="none" xmlns="http://www.w3.org/2000/svg">
<path d="M18 5.06395C17.9821 5.06395 16.1678 5.02907 14.622 3.92442C13.2732 2.96512 12.8077 0.877907 12.7361 0.104651V0H9.45358V13.7965C9.45358 15.4535 8.06897 16.8023 6.36804 16.8023C4.66711 16.8023 3.28249 15.4535 3.28249 13.7965C3.28249 12.1395 4.66711 10.7907 6.36804 10.7907H7.4065V7.59302H6.36804C2.85875 7.59302 0 10.3779 0 13.7965C0 17.2151 2.85875 20 6.36804 20C9.87732 20 12.7361 17.2151 12.7361 13.7965V6.5407C15.1174 8.2093 17.6956 8.26163 17.994 8.26163V5.06395H18Z" fill="#E5E6FB"/>
</svg>
