<svg width="24" height="21" viewBox="0 0 24 21" fill="none" xmlns="http://www.w3.org/2000/svg">
<path d="M23.3376 10.9996C23.2869 9.63051 22.1375 8.5614 20.7641 8.60789C20.1556 8.62902 19.5767 8.87833 19.1373 9.29668C17.2019 7.97826 14.9285 7.25566 12.5916 7.20495L13.6945 1.9017L17.3329 2.66655C17.4343 3.60043 18.271 4.27654 19.2049 4.17513C20.1387 4.07371 20.8149 3.23702 20.7134 2.30314C20.612 1.36926 19.7753 0.693147 18.8415 0.794564C18.3048 0.849498 17.8231 1.1622 17.5568 1.62703L13.3903 0.794564C13.1072 0.731179 12.8241 0.908658 12.7607 1.19601C12.7607 1.20023 12.7607 1.20023 12.7607 1.20446L11.5056 7.10354C9.13924 7.14157 6.83623 7.86839 4.87551 9.19526C3.87824 8.25715 2.30628 8.30364 1.36818 9.30513C0.43007 10.3024 0.476553 11.8744 1.47804 12.8125C1.67243 12.9942 1.89639 13.1505 2.1457 13.2604C2.1288 13.5097 2.1288 13.759 2.1457 14.0083C2.1457 17.8157 6.58269 20.9131 12.055 20.9131C17.5273 20.9131 21.9642 17.8199 21.9642 14.0083C21.9812 13.759 21.9812 13.5097 21.9642 13.2604C22.8178 12.8336 23.3545 11.9546 23.3376 10.9996ZM6.3376 12.7026C6.3376 11.7645 7.10245 10.9996 8.04056 10.9996C8.97867 10.9996 9.74352 11.7645 9.74352 12.7026C9.74352 13.6407 8.97867 14.4056 8.04056 14.4056C7.09823 14.3971 6.3376 13.6407 6.3376 12.7026ZM16.2131 17.3762C15.0045 18.2847 13.5255 18.7496 12.0127 18.6862C10.4999 18.7496 9.02092 18.2847 7.81237 17.3762C7.65179 17.1818 7.68138 16.8903 7.87576 16.7297C8.04479 16.5902 8.28565 16.5902 8.4589 16.7297C9.48152 17.4776 10.7281 17.858 11.9958 17.7988C13.2635 17.8664 14.5143 17.503 15.5496 16.7635C15.7356 16.5818 16.0398 16.586 16.2215 16.7719C16.4032 16.9579 16.399 17.2621 16.2131 17.4438V17.3762ZM15.9088 14.4647C14.9707 14.4647 14.2059 13.6999 14.2059 12.7618C14.2059 11.8236 14.9707 11.0588 15.9088 11.0588C16.8469 11.0588 17.6118 11.8236 17.6118 12.7618C17.6498 13.6999 16.9188 14.4901 15.9807 14.5281C15.9511 14.5281 15.9257 14.5281 15.8961 14.5281L15.9088 14.4647Z" fill="#E5E6FB"/>
</svg>
