<svg width="20" height="20" viewBox="0 0 20 20" fill="none" xmlns="http://www.w3.org/2000/svg">
<path d="M9.36824 1.32396C9.6218 0.792571 10.3782 0.792571 10.6318 1.32396L12.7165 5.69293C12.8186 5.90679 13.0219 6.0545 13.2568 6.08547L18.0562 6.71812C18.6399 6.79506 18.8737 7.51443 18.4466 7.9198L14.9357 11.2526C14.7639 11.4158 14.6862 11.6548 14.7294 11.8878L15.6108 16.6477C15.718 17.2267 15.106 17.6713 14.5885 17.3904L10.3339 15.0812C10.1257 14.9682 9.87435 14.9682 9.66609 15.0812L5.41145 17.3904C4.89398 17.6713 4.28204 17.2267 4.38924 16.6477L5.27065 11.8878C5.31379 11.6548 5.23614 11.4158 5.06428 11.2526L1.55337 7.9198C1.12635 7.51443 1.36008 6.79506 1.94382 6.71812L6.74319 6.08547C6.97811 6.0545 7.18142 5.90679 7.28347 5.69293L9.36824 1.32396Z" fill="#F89E1F"/>
</svg>
