<svg width="20" height="21" viewBox="0 0 20 21" fill="none" xmlns="http://www.w3.org/2000/svg">
<g clip-path="url(#clip0_361_4637)">
<path d="M17.3333 3.7H13.85C13.5 2.714 12.5833 2 11.5 2C10.4167 2 9.5 2.714 9.15 3.7H5.66667C4.75 3.7 4 4.465 4 5.4V17.3C4 18.235 4.75 19 5.66667 19H17.3333C18.25 19 19 18.235 19 17.3V5.4C19 4.465 18.25 3.7 17.3333 3.7ZM11.5 3.7C11.9583 3.7 12.3333 4.0825 12.3333 4.55C12.3333 5.0175 11.9583 5.4 11.5 5.4C11.0417 5.4 10.6667 5.0175 10.6667 4.55C10.6667 4.0825 11.0417 3.7 11.5 3.7ZM9.24167 14.9965L7.08333 12.795C6.75833 12.4635 6.75833 11.928 7.08333 11.5965C7.40833 11.265 7.93333 11.265 8.25833 11.5965L9.83333 13.1945L14.7333 8.1965C15.0583 7.865 15.5833 7.865 15.9083 8.1965C16.2333 8.528 16.2333 9.0635 15.9083 9.395L10.4167 14.9965C10.1 15.328 9.56667 15.328 9.24167 14.9965Z" fill="#4E43DF"/>
</g>
<defs>
<clipPath id="clip0_361_4637">
<rect width="20" height="20" fill="white" transform="translate(0 0.5)"/>
</clipPath>
</defs>
</svg>
