<svg width="92" height="92" viewBox="0 0 92 92" fill="none" xmlns="http://www.w3.org/2000/svg">
<path d="M91 46C91 54.5907 88.5869 62.6216 84.417 69.4556C83.693 70.6428 82.9112 71.7818 82.0907 72.8919C81.4826 73.7027 80.8552 74.4845 80.1892 75.2471C78.4614 77.2741 76.5502 79.1371 74.4942 80.8359C73.8185 81.3861 73.1235 81.9266 72.4093 82.4382C72.0232 82.7278 71.6274 83.0077 71.222 83.278C70.527 83.7413 69.8224 84.195 69.0985 84.6197C68.9633 84.7162 68.8185 84.7934 68.6737 84.8803C68.529 84.9672 68.3745 85.054 68.2201 85.1409C66.7915 85.9614 65.2953 86.695 63.7703 87.3513C60.556 88.7413 57.139 89.7548 53.5869 90.3533C53.1911 90.4305 52.805 90.4884 52.4093 90.5463C51.4054 90.6911 50.3919 90.7973 49.3687 90.8745C49.2626 90.8841 49.1564 90.8938 49.0502 90.8938C48.3455 90.9421 47.6216 90.971 46.8977 90.9807C46.5985 91 46.2992 91 46 91C42.3707 91 38.8282 90.5656 35.4498 89.7548C32.6988 89.0984 30.0541 88.1814 27.5251 87.0231C25.5174 86.1351 23.5869 85.083 21.7433 83.9054C21.0579 83.471 20.3822 83.0077 19.7162 82.5251C18.9344 81.9652 18.1718 81.3764 17.4286 80.749C15.4884 79.166 13.6834 77.4092 12.0328 75.5077C11.666 75.083 11.3089 74.6583 10.9614 74.2239C10.5849 73.7606 10.2182 73.2876 9.86102 72.805C9.70658 72.6023 9.56178 72.4093 9.41699 72.2066C8.22973 70.556 7.15831 68.8185 6.20272 67.0039C5.81662 66.2896 5.45948 65.556 5.12164 64.8224C2.4672 59.0888 1 52.7085 1 46C1 21.1448 21.1448 1 46 1C70.8552 1 91 21.1448 91 46Z" fill="#E5E6FB"/>
<path d="M72.4093 82.4383C72.0232 82.7279 71.6275 83.0078 71.2221 83.2781C70.3919 83.8379 69.5425 84.3784 68.6738 84.8804C63.7703 87.7472 58.2781 89.7066 52.4093 90.5464C52.1294 90.585 51.8495 90.6236 51.5599 90.6526C50.0638 90.8456 48.5387 90.9518 46.9846 90.9807H46.8978C46.5985 91.0001 46.2993 91.0001 46.0001 91.0001C42.3707 91.0001 38.8282 90.5657 35.4499 89.7549C30.5174 88.5676 25.8939 86.5696 21.7433 83.9055C20.2375 82.9499 18.7993 81.8977 17.4287 80.7491C15.4885 79.1661 13.6835 77.4093 12.0329 75.5078C11.6661 75.0831 11.3089 74.6584 10.9615 74.224C10.392 66.5116 17.6506 59.0792 18.9441 57.5638C23.1043 52.641 34.8032 49.8997 46.2896 50.2279C46.2896 50.2279 61.9363 50.1699 68.4518 57.1294C71.3186 60.1893 72.2742 71.0966 72.4093 82.4383Z" fill="#92B4EA"/>
<path d="M20.3047 56.2318L19.7159 82.5156C18.9341 81.9557 18.1715 81.3669 17.4283 80.7395C15.4881 79.1565 13.6831 77.3998 12.0325 75.4982C11.6657 75.0735 11.3086 74.6488 10.9611 74.2144C10.5846 73.7511 10.2178 73.2781 9.8607 72.7955C9.70626 72.5928 9.56145 72.3998 9.41666 72.1971C8.22941 70.5465 7.15799 68.809 6.20239 66.9944C11.9456 61.4828 20.3047 56.2318 20.3047 56.2318Z" fill="#92B4EA"/>
<path d="M80.1893 75.2472C78.4615 77.2743 76.5504 79.1372 74.4944 80.836C73.8187 81.3862 73.1237 81.9268 72.4094 82.4384C72.0233 82.7279 71.6276 83.0079 71.2222 83.2781C71.0388 83.4036 70.8457 83.5291 70.6623 83.6449C70.4307 83.7994 70.199 83.9538 69.9673 84.0889C69.5426 84.3689 69.1083 84.6295 68.6739 84.8804C67.1006 85.8071 65.4596 86.6275 63.7704 87.3515L58.1816 82.7472L68.838 57.5638L80.1893 75.2472Z" fill="#92B4EA"/>
<path d="M37.7081 42.0812L36.9745 51.1063C36.9745 51.1063 37.5922 53.8476 43.4996 54.8128C47.9011 55.5368 50.3046 52.8727 50.3046 52.8727L50.2274 50.9229L50.0247 45.8553L39.4745 42.6217L37.7081 42.0812Z" fill="#EBA995"/>
<path d="M39.4745 42.6311C39.4745 42.911 39.5517 43.2489 39.6869 43.635C41.5498 48.8956 47.6791 50.4979 50.2178 50.9323L50.015 45.8647L39.4648 42.6311H39.4745Z" fill="#0A1330"/>
<path d="M54.1755 22.8728C54.1755 22.8728 58.4805 36.0485 55.7971 42.9597C53.1234 49.8709 46.7527 48.1238 43.0172 46.3767C39.2817 44.6296 37.7083 42.0813 37.7083 42.0813C37.7083 42.0813 33.9728 42.9597 31.8782 39.3593C29.7836 35.7589 31.6465 32.0427 33.7991 31.3574C35.9516 30.6721 38.2585 32.3999 38.2585 32.3999L36.6851 28.5389C36.6851 28.5389 46.5886 10.6528 54.1659 22.8632L54.1755 22.8728Z" fill="#EBA995"/>
<path d="M52.0708 38.9633C52.0032 38.9633 51.9453 38.9536 51.8778 38.9247C51.6365 38.8185 51.5206 38.5386 51.6268 38.2876C52.5727 36.0772 51.1056 33.4131 51.0959 33.3841C50.9704 33.1525 51.0476 32.8532 51.2793 32.7277C51.5109 32.6023 51.8005 32.6795 51.9357 32.9111C52.0032 33.0366 53.6442 36.0096 52.5148 38.664C52.4376 38.8474 52.2542 38.9536 52.0708 38.9536V38.9633Z" fill="#0A1330"/>
<path d="M37.1477 38.2587C37.0319 38.2587 36.916 38.2104 36.8388 38.1042L33.779 34.1081C33.6535 33.944 33.6824 33.7027 33.8465 33.5676C34.0106 33.4421 34.2519 33.471 34.3871 33.6351L37.4469 37.6313C37.5724 37.7954 37.5435 38.0367 37.3794 38.1718C37.3118 38.2297 37.2249 38.249 37.1477 38.249V38.2587Z" fill="#0A1330"/>
<path d="M33.6258 36.9071C33.4231 36.9071 33.2493 36.743 33.2397 36.5403C33.23 36.3279 33.3941 36.1445 33.6064 36.1349L36.0196 36.019C36.2223 36.019 36.4153 36.1735 36.425 36.3858C36.4346 36.5982 36.2705 36.7816 36.0582 36.7912L33.6451 36.9071C33.6451 36.9071 33.6354 36.9071 33.6258 36.9071Z" fill="#0A1330"/>
<path d="M46.8395 33.6543C46.5789 33.6543 46.3665 33.442 46.3569 33.1814L46.299 30.7972C46.299 30.5269 46.5016 30.3146 46.7719 30.3049C47.0615 30.3049 47.2545 30.5076 47.2642 30.7779L47.3221 33.1621C47.3221 33.4323 47.1194 33.6447 46.8491 33.6543H46.8395Z" fill="#0A1330"/>
<path d="M53.8861 33.8185C53.6255 33.8185 53.4131 33.6158 53.4035 33.3552L53.2973 30.971C53.2877 30.7008 53.4904 30.4788 53.7606 30.4691C54.0212 30.4401 54.2529 30.6622 54.2626 30.9324L54.3687 33.3166C54.3784 33.5869 54.1757 33.8089 53.9054 33.8185C53.9054 33.8185 53.8958 33.8185 53.8861 33.8185Z" fill="#0A1330"/>
<path d="M45.6717 29.1855C45.5752 29.1855 45.4787 29.1565 45.3918 29.0986C45.1698 28.9442 45.1215 28.645 45.2663 28.423C46.3764 26.8303 48.471 27.5542 48.5578 27.5928C48.8088 27.6797 48.9343 27.9596 48.8474 28.2106C48.7605 28.4616 48.4806 28.587 48.2297 28.5002C48.1717 28.4809 46.7335 27.9886 46.0482 28.9731C45.9517 29.1083 45.8069 29.1855 45.6524 29.1855H45.6717Z" fill="#0A1330"/>
<path d="M54.8801 29.1758C54.716 29.1758 54.5616 29.0986 54.4651 28.9442C54.3589 28.7704 53.9824 28.3071 53.5384 28.2202C53.2971 28.172 53.0461 28.2395 52.7855 28.4229C52.5635 28.5774 52.2643 28.5291 52.1098 28.3071C51.9554 28.0851 52.0133 27.7859 52.2257 27.6314C52.7083 27.2936 53.2295 27.1681 53.7315 27.2743C54.6677 27.4673 55.218 28.3361 55.2855 28.4422C55.4207 28.6739 55.3531 28.9635 55.1214 29.1083C55.0442 29.1565 54.9573 29.1758 54.8704 29.1758H54.8801Z" fill="#0A1330"/>
<path d="M54.1756 22.8724L53.3648 21.6852C53.3648 21.6852 52.3609 22.3705 50.1408 22.8435C46.7238 23.5867 42.7084 23.3743 42.7084 23.3743C42.7084 23.3743 43.3841 24.3492 43.2296 27.8821C43.0752 31.4149 39.4072 33.384 39.4072 33.384C38.1138 32.4767 37.0327 31.9651 36.1157 31.6851C35.72 31.5693 35.3725 31.5018 35.0443 31.4631C32.9304 31.2508 32.1389 32.5635 32.1389 32.5635C32.1389 32.5635 27.2644 24.8029 32.9015 19.2238C36.8493 15.3338 42.1389 15.5751 44.9478 16.0867C45.9034 16.2604 46.5598 16.4631 46.8011 16.5307C46.8686 16.55 46.8976 16.5597 46.8976 16.5597C46.8976 16.5597 55.3339 14.5616 56.7335 15.8068C58.1331 17.0423 55.1987 22.9207 54.1852 22.8724H54.1756Z" fill="#332113"/>
<path d="M49.2918 42.5832C48.9636 42.5832 48.6065 42.5253 48.2397 42.3805C47.7571 42.1778 47.4096 41.8496 47.2359 41.4249C46.9366 40.672 47.2745 39.8998 47.3131 39.8129C47.371 39.6971 47.4675 39.6006 47.593 39.5619C47.7088 39.5233 47.8536 39.5233 47.9694 39.5812L51.1162 41.145C51.2706 41.2222 51.3671 41.367 51.3864 41.5311C51.4057 41.6951 51.3285 41.8592 51.1934 41.9654C51.1548 41.9944 50.3536 42.5928 49.2918 42.5928V42.5832ZM48.0853 40.7106C48.0853 40.8264 48.0853 40.9519 48.1432 41.0677C48.2204 41.2511 48.3652 41.3863 48.6065 41.4828C49.0409 41.6565 49.4559 41.6372 49.7938 41.56L48.0853 40.7106Z" fill="#0A1330"/>
<path d="M51.5595 90.6526C50.0633 90.8456 48.5382 90.9518 46.9842 90.9808L43.6348 55.2568L46.9263 56.1159L51.5595 90.6526Z" fill="#A2C5F9"/>
<path d="M50.4397 50.6431C50.4397 50.6431 54.2718 61.2994 53.1521 61.145C52.0324 60.9906 45.1405 55.4983 45.1405 55.4983C45.1405 55.4983 40.6328 61.7048 39.0594 61.8207C37.4861 61.9365 36.9745 50.7203 36.9745 50.7203C36.9745 50.7203 38.1617 53.896 44.0401 54.4268C49.9185 54.9577 50.4397 50.6431 50.4397 50.6431Z" fill="#E6F4FF"/>
<path d="M69.0985 84.6195C68.9633 84.716 68.8186 84.7932 68.6738 84.8801C68.529 84.967 68.3745 85.0538 68.2201 85.1407L64.3688 67.1002C64.3205 66.8395 64.4846 66.5886 64.7452 66.5307C65.0058 66.4728 65.2568 66.6368 65.3147 66.8975L69.0985 84.6195Z" fill="#E6F4FF"/>
<circle cx="46" cy="46" r="45" stroke="white" stroke-width="2"/>
</svg>
