<svg width="38" height="19" viewBox="0 0 38 19" fill="none" xmlns="http://www.w3.org/2000/svg">
<g clip-path="url(#clip0_138_4586)">
<path d="M17.9562 9.52636V14.0236H16.5312V2.90137H20.2362C21.1387 2.90137 21.9938 3.23987 22.6588 3.86852C23.3238 4.44881 23.6562 5.31925 23.6562 6.23804C23.6562 7.15684 23.3238 7.97891 22.6588 8.60756C21.9938 9.23621 21.1862 9.57471 20.2362 9.57471L17.9562 9.52636ZM17.9562 4.25538V8.12399H20.3312C20.8537 8.12399 21.3763 7.93056 21.7088 7.5437C22.4688 6.81833 22.4687 5.60939 21.7562 4.88403L21.7088 4.83567C21.3288 4.44881 20.8537 4.20702 20.3312 4.25538H17.9562Z" fill="#0A1330"/>
<path d="M26.9338 6.18945C27.9788 6.18945 28.7863 6.4796 29.4038 7.05989C30.0213 7.64018 30.3062 8.4139 30.3062 9.38105V14.0234H28.9763V12.9595H28.9288C28.3588 13.83 27.5513 14.2652 26.6013 14.2652C25.7938 14.2652 25.0812 14.0234 24.5112 13.5398C23.9887 13.0562 23.6562 12.3792 23.6562 11.6539C23.6562 10.8801 23.9412 10.2515 24.5112 9.76792C25.0812 9.28434 25.8888 9.09091 26.8388 9.09091C27.6938 9.09091 28.3587 9.23598 28.8812 9.57448V9.23598C28.8812 8.75241 28.6912 8.26883 28.3112 7.97868C27.9312 7.64018 27.4563 7.44675 26.9338 7.44675C26.1263 7.44675 25.5087 7.78525 25.0812 8.46226L23.8463 7.68854C24.6063 6.67303 25.6038 6.18945 26.9338 6.18945ZM25.1288 11.7022C25.1288 12.0891 25.3188 12.4276 25.6038 12.621C25.9363 12.8628 26.3163 13.0079 26.6963 13.0079C27.2663 13.0079 27.8363 12.7661 28.2638 12.3309C28.7388 11.8956 28.9763 11.3637 28.9763 10.7834C28.5488 10.4449 27.9312 10.2515 27.1237 10.2515C26.5537 10.2515 26.0787 10.3966 25.6987 10.6867C25.3187 10.9285 25.1288 11.267 25.1288 11.7022Z" fill="#0A1330"/>
<path d="M37.9966 6.43115L33.2941 17.4083H31.8691L33.6266 13.5881L30.5391 6.47951H32.0591L34.2916 11.9439H34.3391L36.5241 6.47951H37.9966V6.43115Z" fill="#0A1330"/>
<path d="M12.3059 8.55956C12.3059 8.12434 12.2584 7.68912 12.2109 7.25391H6.27344V9.72014H9.64594C9.50344 10.4939 9.07594 11.2192 8.41094 11.6544V13.2502H10.4534C11.6409 12.138 12.3059 10.4939 12.3059 8.55956Z" fill="#0A1330"/>
<path d="M6.26906 14.7973C7.97906 14.7973 9.40406 14.217 10.4491 13.2499L8.40656 11.6541C7.83656 12.0409 7.12406 12.2827 6.26906 12.2827C4.65406 12.2827 3.22906 11.1705 2.75406 9.62305H0.664062V11.2672C1.75656 13.4433 3.89406 14.7973 6.26906 14.7973Z" fill="#0A1330"/>
<path d="M2.75125 9.62309C2.46625 8.84937 2.46625 7.97893 2.75125 7.15685V5.5127H0.66125C-0.24125 7.30193 -0.24125 9.42966 0.66125 11.2672L2.75125 9.62309Z" fill="#0A1330"/>
<path d="M6.26844 4.546C7.17094 4.546 8.02594 4.88451 8.69094 5.51316L10.4959 3.67557C9.35594 2.6117 7.83594 1.98305 6.31594 2.03141C3.94094 2.03141 1.75594 3.38542 0.710938 5.56151L2.80094 7.20567C3.22844 5.65823 4.65344 4.546 6.26844 4.546Z" fill="#0A1330"/>
</g>
<defs>
<clipPath id="clip0_138_4586">
<rect width="38" height="18.4242" fill="white"/>
</clipPath>
</defs>
</svg>
