<svg width="67" height="32" viewBox="0 0 67 32" fill="none" xmlns="http://www.w3.org/2000/svg">
<g clip-path="url(#clip0_212_1247)">
<path d="M31.657 16.5459V24.3569H29.1445V5.03931H35.677C37.2683 5.03931 38.7758 5.62723 39.9483 6.7191C41.1208 7.72697 41.707 9.23878 41.707 10.8346C41.707 12.4304 41.1208 13.8582 39.9483 14.9501C38.7758 16.0419 37.352 16.6299 35.677 16.6299L31.657 16.5459ZM31.657 7.39101V14.1102H35.8445C36.7658 14.1102 37.687 13.7742 38.2733 13.1023C39.6133 11.8425 39.6133 9.74272 38.357 8.48288L38.2733 8.39889C37.6033 7.72697 36.7658 7.30702 35.8445 7.39101H31.657Z" fill="white"/>
<path d="M47.4858 10.7507C49.3283 10.7507 50.752 11.2547 51.8408 12.2625C52.9295 13.2704 53.432 14.6142 53.432 16.294V24.357H51.087V22.5093H51.0033C49.9983 24.0211 48.5745 24.777 46.8995 24.777C45.4758 24.777 44.2195 24.357 43.2145 23.5171C42.2933 22.6772 41.707 21.5014 41.707 20.2415C41.707 18.8977 42.2095 17.8059 43.2145 16.966C44.2195 16.1261 45.6433 15.7901 47.3183 15.7901C48.8258 15.7901 49.9983 16.0421 50.9195 16.63V16.0421C50.9195 15.2022 50.5845 14.3623 49.9145 13.8583C49.2445 13.2704 48.407 12.9345 47.4858 12.9345C46.062 12.9345 44.9733 13.5224 44.2195 14.6982L42.042 13.3544C43.382 11.5906 45.1408 10.7507 47.4858 10.7507ZM44.3033 20.3255C44.3033 20.9975 44.6383 21.5854 45.1408 21.9213C45.727 22.3413 46.397 22.5933 47.067 22.5933C48.072 22.5933 49.077 22.1733 49.8308 21.4174C50.6683 20.6615 51.087 19.7376 51.087 18.7297C50.3333 18.1418 49.2445 17.8059 47.8208 17.8059C46.8158 17.8059 45.9783 18.0578 45.3083 18.5618C44.6383 18.9817 44.3033 19.5696 44.3033 20.3255Z" fill="white"/>
<path d="M67.0003 11.1707L58.7091 30.2363H56.1966L59.2953 23.6011L53.8516 11.2546H56.5316L60.4678 20.7455H60.5516L64.4041 11.2546H67.0003V11.1707Z" fill="white"/>
<path d="M21.6909 14.8661C21.6909 14.1102 21.6072 13.3543 21.5234 12.5984H11.0547V16.8819H17.0009C16.7497 18.2257 15.9959 19.4855 14.8234 20.2414V23.0131H18.4247C20.5184 21.0813 21.6909 18.2257 21.6909 14.8661Z" fill="#4285F4"/>
<path d="M11.0544 25.7007C14.0694 25.7007 16.5819 24.6929 18.4244 23.0131L14.8231 20.2414C13.8181 20.9133 12.5619 21.3333 11.0544 21.3333C8.20688 21.3333 5.69438 19.4015 4.85688 16.7139H1.17188V19.5695C3.09813 23.349 6.86688 25.7007 11.0544 25.7007Z" fill="#34A853"/>
<path d="M4.85695 16.7138C4.35445 15.37 4.35445 13.8582 4.85695 12.4304V9.57471H1.17195C-0.419297 12.6823 -0.419297 16.3779 1.17195 19.5695L4.85695 16.7138Z" fill="#FBBC04"/>
<path d="M11.0546 7.89492C12.6459 7.89492 14.1534 8.48285 15.3259 9.57471L18.5084 6.38311C16.4984 4.53534 13.8184 3.44348 11.1384 3.52747C6.95086 3.52747 3.09836 5.87917 1.25586 9.6587L4.94086 12.5143C5.69461 9.82668 8.20711 7.89492 11.0546 7.89492Z" fill="#EA4335"/>
</g>
<defs>
<clipPath id="clip0_212_1247">
<rect width="67" height="32" fill="white"/>
</clipPath>
</defs>
</svg>
