<svg width="20" height="20" viewBox="0 0 20 20" fill="none" xmlns="http://www.w3.org/2000/svg">
<path d="M13.125 14.0625H12.7344C12.7344 15.5702 11.5077 16.7969 10 16.7969C8.49227 16.7969 7.26562 15.5702 7.26562 14.0625H6.875C4.39801 14.0625 2.38281 16.0777 2.38281 18.5547V19.4141C2.38281 19.7377 2.64516 20 2.96875 20H17.0312C17.3548 20 17.6172 19.7377 17.6172 19.4141V18.5547C17.6172 16.0777 15.602 14.0625 13.125 14.0625Z" fill="#0A1330"/>
<path d="M8.4375 13.4766V14.0625C8.4375 14.9254 9.13707 15.625 10 15.625C10.8629 15.625 11.5625 14.9254 11.5625 14.0625V13.4766H8.4375Z" fill="#0A1330"/>
<path d="M10 2.34375C10.3236 2.34375 10.5859 2.08141 10.5859 1.75781V0.585938C10.5859 0.262344 10.3236 0 10 0C9.67641 0 9.41406 0.262344 9.41406 0.585938V1.75781C9.41406 2.08141 9.67641 2.34375 10 2.34375Z" fill="#0A1330"/>
<path d="M5.58641 1.92562L6.17235 2.9405C6.33414 3.22074 6.6925 3.31675 6.97274 3.15495C7.25297 2.99316 7.34899 2.6348 7.18719 2.35456L6.60125 1.33968C6.43946 1.05945 6.0811 0.963431 5.80086 1.12523C5.52063 1.28702 5.42461 1.64538 5.58641 1.92562Z" fill="#0A1330"/>
<path d="M2.94124 4.99957L3.95613 5.58551C4.23636 5.7473 4.59472 5.65129 4.75652 5.37105C4.91831 5.09082 4.8223 4.73246 4.54206 4.57066L3.52718 3.98472C3.24695 3.82293 2.88859 3.91894 2.72679 4.19918C2.56499 4.47941 2.66101 4.83777 2.94124 4.99957V4.99957Z" fill="#0A1330"/>
<path d="M16.473 3.98472L15.4581 4.57066C15.1779 4.73246 15.0818 5.09082 15.2436 5.37105C15.4054 5.65129 15.7638 5.7473 16.044 5.58551L17.0589 4.99957C17.3391 4.83777 17.4352 4.47941 17.2734 4.19918C17.1116 3.91894 16.7532 3.82293 16.473 3.98472V3.98472Z" fill="#0A1330"/>
<path d="M13.0274 3.15495C13.3077 3.31675 13.666 3.22074 13.8278 2.9405L14.4138 1.92562C14.5755 1.64538 14.4795 1.28702 14.1993 1.12523C13.9191 0.963431 13.5607 1.05945 13.3989 1.33968L12.813 2.35456C12.6512 2.6348 12.7472 2.99316 13.0274 3.15495Z" fill="#0A1330"/>
<path d="M10 3.51562C7.62691 3.51562 5.70312 5.43941 5.70312 7.8125C5.70312 9.33957 6.50102 10.6779 7.70176 11.4391C8.02371 11.6432 8.25781 11.9513 8.36754 12.3047H9.41406V9.22707L8.41379 8.22684C8.18496 7.99801 8.18496 7.62703 8.41379 7.3982C8.64262 7.16937 9.01359 7.16937 9.24242 7.3982L10 8.15574L10.7575 7.3982C10.9864 7.16937 11.3573 7.16937 11.5862 7.3982C11.815 7.62703 11.815 7.99801 11.5862 8.22684L10.5859 9.22707V12.3047H11.6325C11.7422 11.9513 11.9763 11.6432 12.2982 11.4391C13.499 10.6779 14.2969 9.33957 14.2969 7.8125C14.2969 5.43941 12.3731 3.51562 10 3.51562V3.51562Z" fill="#0A1330"/>
</svg>
