<svg width="20" height="20" viewBox="0 0 20 20" fill="none" xmlns="http://www.w3.org/2000/svg">
<path d="M9.27799 1.51309C9.56778 0.905796 10.4322 0.905796 10.722 1.51309L12.6932 5.64395C12.8098 5.88836 13.0421 6.05717 13.3106 6.09256L17.8484 6.69073C18.5155 6.77867 18.7827 7.60081 18.2946 8.06408L14.9751 11.2153C14.7787 11.4017 14.6899 11.6748 14.7392 11.9411L15.5726 16.4417C15.6951 17.1033 14.9958 17.6114 14.4044 17.2904L10.3816 15.1071C10.1436 14.9779 9.8564 14.9779 9.61839 15.1071L5.59564 17.2904C5.00424 17.6114 4.30488 17.1033 4.4274 16.4417L5.26077 11.9411C5.31007 11.6748 5.22132 11.4017 5.02492 11.2153L1.70536 8.06408C1.21733 7.60081 1.48446 6.77867 2.15159 6.69073L6.68938 6.09256C6.95786 6.05717 7.19022 5.88836 7.30684 5.64395L9.27799 1.51309Z" fill="#F89E1F"/>
<g clip-path="url(#clip0_266_1386)">
<path d="M9.27799 1.51309C9.56778 0.905796 10.4322 0.905796 10.722 1.51309L12.6932 5.64395C12.8098 5.88836 13.0421 6.05717 13.3106 6.09256L17.8484 6.69073C18.5155 6.77867 18.7827 7.60081 18.2946 8.06408L14.9751 11.2153C14.7787 11.4017 14.6899 11.6748 14.7392 11.9411L15.5726 16.4417C15.6951 17.1033 14.9958 17.6114 14.4044 17.2904L10.3816 15.1071C10.1436 14.9779 9.8564 14.9779 9.61839 15.1071L5.59564 17.2904C5.00424 17.6114 4.30488 17.1033 4.4274 16.4417L5.26077 11.9411C5.31007 11.6748 5.22132 11.4017 5.02492 11.2153L1.70536 8.06408C1.21733 7.60081 1.48446 6.77867 2.15159 6.69073L6.68938 6.09256C6.95786 6.05717 7.19022 5.88836 7.30684 5.64395L9.27799 1.51309Z" fill="#E5E6FB"/>
</g>
<defs>
<clipPath id="clip0_266_1386">
<rect width="7.2" height="20" fill="white" transform="translate(12.7998)"/>
</clipPath>
</defs>
</svg>
