<svg width="375" height="950" viewBox="0 0 375 950" fill="none" xmlns="http://www.w3.org/2000/svg">
<path opacity="0.1" d="M343.156 592.646C343.426 592.136 343.381 591.558 342.84 591.222C342.287 590.875 341.712 590.921 341.283 591.454C340.956 591.87 340.685 592.345 340.426 592.808C339.895 593.733 339.399 594.682 338.869 595.608C338.181 596.811 336.883 596.88 336.15 595.723C335.778 595.133 335.462 594.52 335.112 593.918C334.695 593.178 334.277 592.426 333.849 591.685C333.465 591.026 332.878 590.887 332.224 591.176C331.66 591.431 331.513 592.102 331.829 592.865C331.931 593.108 332.1 593.328 332.224 593.56C332.788 594.589 333.375 595.608 333.916 596.649C334.751 598.269 334.131 599.38 332.382 599.403C331.807 599.414 331.231 599.403 330.645 599.403V599.414C329.81 599.414 328.964 599.403 328.129 599.414C327.441 599.426 327.023 599.831 327.001 600.502C326.978 601.185 327.43 601.578 328.073 601.671C328.434 601.717 328.806 601.705 329.167 601.717C330.374 601.717 331.581 601.752 332.788 601.717C333.465 601.694 333.826 602.029 334.131 602.608C334.447 603.198 334.424 603.672 334.086 604.251C333.33 605.535 332.63 606.866 331.92 608.185C331.57 608.845 331.592 609.423 332.303 609.828C333.002 610.21 333.51 609.921 333.905 609.307C334.052 609.087 334.153 608.833 334.289 608.602C334.875 607.583 335.451 606.554 336.06 605.547C336.883 604.193 338.203 604.193 339.004 605.535C339.444 606.264 339.839 607.028 340.268 607.768C340.561 608.278 340.832 608.798 341.17 609.284C341.565 609.851 342.095 610.233 342.772 609.782C343.415 609.354 343.404 608.717 343.099 608.069C342.964 607.78 342.817 607.491 342.659 607.213C342.107 606.23 341.542 605.269 341.001 604.286C340.223 602.909 340.877 601.74 342.445 601.705C343.652 601.682 344.859 601.705 346.066 601.694C346.427 601.694 346.811 601.671 347.149 601.578C347.646 601.439 347.95 601.057 347.995 600.525C348.041 599.981 347.747 599.623 347.273 599.391C346.833 599.183 346.36 599.148 345.886 599.148C344.679 599.148 343.472 599.114 342.264 599.16C341.441 599.195 341.046 598.755 340.708 598.072C340.414 597.471 340.708 597.042 340.967 596.58C341.723 595.272 342.468 593.976 343.156 592.646ZM337.662 602.041C336.77 602.076 335.981 601.405 335.902 600.56C335.834 599.773 336.646 598.894 337.47 598.871C338.26 598.859 339.106 599.681 339.128 600.502C339.151 601.347 338.519 602.006 337.662 602.041Z" fill="#0070F5"/>
<path opacity="0.1" d="M309.156 496.646C309.426 496.136 309.381 495.558 308.84 495.222C308.287 494.875 307.712 494.921 307.283 495.454C306.956 495.87 306.685 496.345 306.426 496.808C305.895 497.733 305.399 498.682 304.869 499.608C304.181 500.811 302.883 500.88 302.15 499.723C301.778 499.133 301.462 498.52 301.112 497.918C300.695 497.178 300.277 496.426 299.849 495.685C299.465 495.026 298.878 494.887 298.224 495.176C297.66 495.431 297.513 496.102 297.829 496.865C297.931 497.108 298.1 497.328 298.224 497.56C298.788 498.589 299.375 499.608 299.916 500.649C300.751 502.269 300.131 503.38 298.382 503.403C297.807 503.414 297.231 503.403 296.645 503.403V503.414C295.81 503.414 294.964 503.403 294.129 503.414C293.441 503.426 293.023 503.831 293.001 504.502C292.978 505.185 293.43 505.578 294.073 505.671C294.434 505.717 294.806 505.705 295.167 505.717C296.374 505.717 297.581 505.752 298.788 505.717C299.465 505.694 299.826 506.029 300.131 506.608C300.447 507.198 300.424 507.672 300.086 508.251C299.33 509.535 298.63 510.866 297.92 512.185C297.57 512.845 297.592 513.423 298.303 513.828C299.002 514.21 299.51 513.921 299.905 513.307C300.052 513.087 300.153 512.833 300.289 512.602C300.875 511.583 301.451 510.554 302.06 509.547C302.883 508.193 304.203 508.193 305.004 509.535C305.444 510.264 305.839 511.028 306.268 511.768C306.561 512.278 306.832 512.798 307.17 513.284C307.565 513.851 308.095 514.233 308.772 513.782C309.415 513.354 309.404 512.717 309.099 512.069C308.964 511.78 308.817 511.491 308.659 511.213C308.107 510.23 307.542 509.269 307.001 508.286C306.223 506.909 306.877 505.74 308.445 505.705C309.652 505.682 310.859 505.705 312.066 505.694C312.427 505.694 312.811 505.671 313.149 505.578C313.646 505.439 313.95 505.057 313.995 504.525C314.041 503.981 313.747 503.623 313.273 503.391C312.833 503.183 312.36 503.148 311.886 503.148C310.679 503.148 309.472 503.114 308.264 503.16C307.441 503.195 307.046 502.755 306.708 502.072C306.414 501.471 306.708 501.042 306.967 500.58C307.723 499.272 308.468 497.976 309.156 496.646ZM303.662 506.041C302.77 506.076 301.981 505.405 301.902 504.56C301.834 503.773 302.646 502.894 303.47 502.871C304.26 502.859 305.106 503.681 305.128 504.502C305.151 505.347 304.519 506.006 303.662 506.041Z" fill="#0070F5"/>
<path opacity="0.1" d="M365.156 408.646C365.426 408.136 365.381 407.558 364.84 407.222C364.287 406.875 363.712 406.921 363.283 407.454C362.956 407.87 362.685 408.345 362.426 408.808C361.895 409.733 361.399 410.682 360.869 411.608C360.181 412.811 358.883 412.88 358.15 411.723C357.778 411.133 357.462 410.52 357.112 409.918C356.695 409.178 356.277 408.426 355.849 407.685C355.465 407.026 354.878 406.887 354.224 407.176C353.66 407.431 353.513 408.102 353.829 408.865C353.931 409.108 354.1 409.328 354.224 409.56C354.788 410.589 355.375 411.608 355.916 412.649C356.751 414.269 356.131 415.38 354.382 415.403C353.807 415.414 353.231 415.403 352.645 415.403V415.414C351.81 415.414 350.964 415.403 350.129 415.414C349.441 415.426 349.023 415.831 349.001 416.502C348.978 417.185 349.43 417.578 350.073 417.671C350.434 417.717 350.806 417.705 351.167 417.717C352.374 417.717 353.581 417.752 354.788 417.717C355.465 417.694 355.826 418.029 356.131 418.608C356.447 419.198 356.424 419.672 356.086 420.251C355.33 421.535 354.63 422.866 353.92 424.185C353.57 424.845 353.592 425.423 354.303 425.828C355.002 426.21 355.51 425.921 355.905 425.307C356.052 425.087 356.153 424.833 356.289 424.602C356.875 423.583 357.451 422.554 358.06 421.547C358.883 420.193 360.203 420.193 361.004 421.535C361.444 422.264 361.839 423.028 362.268 423.768C362.561 424.278 362.832 424.798 363.17 425.284C363.565 425.851 364.095 426.233 364.772 425.782C365.415 425.354 365.404 424.717 365.099 424.069C364.964 423.78 364.817 423.491 364.659 423.213C364.107 422.23 363.542 421.269 363.001 420.286C362.223 418.909 362.877 417.74 364.445 417.705C365.652 417.682 366.859 417.705 368.066 417.694C368.427 417.694 368.811 417.671 369.149 417.578C369.646 417.439 369.95 417.057 369.995 416.525C370.041 415.981 369.747 415.623 369.273 415.391C368.833 415.183 368.36 415.148 367.886 415.148C366.679 415.148 365.472 415.114 364.264 415.16C363.441 415.195 363.046 414.755 362.708 414.072C362.414 413.471 362.708 413.042 362.967 412.58C363.723 411.272 364.468 409.976 365.156 408.646ZM359.662 418.041C358.77 418.076 357.981 417.405 357.902 416.56C357.834 415.773 358.646 414.894 359.47 414.871C360.26 414.859 361.106 415.681 361.128 416.502C361.151 417.347 360.519 418.006 359.662 418.041Z" fill="#0070F5"/>
<path opacity="0.1" d="M57.4637 611.905C57.7731 611.316 57.7216 610.646 57.1027 610.257C56.4709 609.855 55.8134 609.909 55.3235 610.525C54.9496 611.008 54.6401 611.557 54.3436 612.093C53.7376 613.165 53.1703 614.263 52.5643 615.335C51.7779 616.729 50.2952 616.809 49.4572 615.469C49.0317 614.786 48.6706 614.076 48.271 613.379C47.7939 612.522 47.3169 611.651 46.827 610.793C46.3886 610.03 45.7182 609.869 44.9704 610.204C44.3257 610.499 44.1581 611.276 44.5192 612.16C44.6352 612.441 44.8286 612.696 44.9704 612.964C45.615 614.156 46.2855 615.335 46.9043 616.541C47.8584 618.417 47.1493 619.703 45.1509 619.73C44.4934 619.743 43.8358 619.73 43.1654 619.73V619.743C42.2113 619.743 41.2443 619.73 40.2902 619.743C39.5038 619.756 39.0267 620.225 39.0009 621.002C38.9751 621.793 39.4909 622.248 40.2258 622.356C40.6383 622.409 41.0639 622.396 41.4764 622.409C42.856 622.409 44.2355 622.449 45.615 622.409C46.3886 622.382 46.8012 622.771 47.1493 623.441C47.5103 624.124 47.4845 624.673 47.0977 625.343C46.2339 626.83 45.4346 628.371 44.6223 629.898C44.2226 630.662 44.2484 631.332 45.0606 631.801C45.86 632.243 46.4402 631.908 46.8915 631.198C47.0591 630.943 47.1751 630.649 47.3298 630.381C48.0002 629.202 48.6578 628.009 49.354 626.844C50.2952 625.276 51.8037 625.276 52.7191 626.83C53.2219 627.674 53.6731 628.559 54.1631 629.416C54.4983 630.006 54.8078 630.608 55.1946 631.171C55.6458 631.828 56.2518 632.27 57.0253 631.747C57.7602 631.252 57.7473 630.515 57.3992 629.764C57.2445 629.429 57.0769 629.095 56.8964 628.773C56.2646 627.634 55.62 626.522 55.0011 625.383C54.1115 623.789 54.8593 622.436 56.6514 622.396C58.0309 622.369 59.4105 622.396 60.7901 622.382C61.2026 622.382 61.641 622.356 62.0278 622.248C62.5951 622.088 62.9432 621.645 62.9948 621.029C63.0464 620.399 62.7111 619.984 62.1696 619.716C61.6668 619.475 61.1253 619.435 60.5838 619.435C59.2043 619.435 57.8247 619.395 56.4451 619.448C55.504 619.488 55.0527 618.979 54.6659 618.189C54.3307 617.492 54.6659 616.996 54.9624 616.461C55.8262 614.947 56.6772 613.446 57.4637 611.905ZM51.1848 622.784C50.1662 622.824 49.2637 622.047 49.1735 621.069C49.0961 620.158 50.0244 619.14 50.9656 619.113C51.8681 619.1 52.8351 620.051 52.8609 621.002C52.8866 621.98 52.1647 622.744 51.1848 622.784Z" fill="#0070F5"/>
<path opacity="0.1" d="M220.464 543.905C220.773 543.316 220.722 542.646 220.103 542.257C219.471 541.855 218.813 541.909 218.323 542.525C217.95 543.008 217.64 543.557 217.344 544.093C216.738 545.165 216.17 546.263 215.564 547.335C214.778 548.729 213.295 548.809 212.457 547.469C212.032 546.786 211.671 546.076 211.271 545.379C210.794 544.522 210.317 543.651 209.827 542.793C209.389 542.03 208.718 541.869 207.97 542.204C207.326 542.499 207.158 543.276 207.519 544.16C207.635 544.441 207.829 544.696 207.97 544.964C208.615 546.156 209.285 547.335 209.904 548.541C210.858 550.417 210.149 551.703 208.151 551.73C207.493 551.743 206.836 551.73 206.165 551.73V551.743C205.211 551.743 204.244 551.73 203.29 551.743C202.504 551.756 202.027 552.225 202.001 553.002C201.975 553.793 202.491 554.248 203.226 554.356C203.638 554.409 204.064 554.396 204.476 554.409C205.856 554.409 207.235 554.449 208.615 554.409C209.389 554.382 209.801 554.771 210.149 555.441C210.51 556.124 210.485 556.673 210.098 557.343C209.234 558.83 208.435 560.371 207.622 561.898C207.223 562.662 207.248 563.332 208.061 563.801C208.86 564.243 209.44 563.908 209.891 563.198C210.059 562.943 210.175 562.649 210.33 562.381C211 561.202 211.658 560.009 212.354 558.844C213.295 557.276 214.804 557.276 215.719 558.83C216.222 559.674 216.673 560.559 217.163 561.416C217.498 562.006 217.808 562.608 218.195 563.171C218.646 563.828 219.252 564.27 220.025 563.747C220.76 563.252 220.747 562.515 220.399 561.764C220.244 561.429 220.077 561.095 219.896 560.773C219.265 559.634 218.62 558.522 218.001 557.383C217.112 555.789 217.859 554.436 219.651 554.396C221.031 554.369 222.411 554.396 223.79 554.382C224.203 554.382 224.641 554.356 225.028 554.248C225.595 554.088 225.943 553.645 225.995 553.029C226.046 552.399 225.711 551.984 225.17 551.716C224.667 551.475 224.125 551.435 223.584 551.435C222.204 551.435 220.825 551.395 219.445 551.448C218.504 551.488 218.053 550.979 217.666 550.189C217.331 549.492 217.666 548.996 217.962 548.461C218.826 546.947 219.677 545.446 220.464 543.905ZM214.185 554.784C213.166 554.824 212.264 554.047 212.173 553.069C212.096 552.158 213.024 551.14 213.966 551.113C214.868 551.1 215.835 552.051 215.861 553.002C215.887 553.98 215.165 554.744 214.185 554.784Z" fill="#0070F5"/>
<path opacity="0.1" d="M139.464 658.905C139.773 658.316 139.722 657.646 139.103 657.257C138.471 656.855 137.813 656.909 137.323 657.525C136.95 658.008 136.64 658.557 136.344 659.093C135.738 660.165 135.17 661.263 134.564 662.335C133.778 663.729 132.295 663.809 131.457 662.469C131.032 661.786 130.671 661.076 130.271 660.379C129.794 659.522 129.317 658.651 128.827 657.793C128.389 657.03 127.718 656.869 126.97 657.204C126.326 657.499 126.158 658.276 126.519 659.16C126.635 659.441 126.829 659.696 126.97 659.964C127.615 661.156 128.285 662.335 128.904 663.541C129.858 665.417 129.149 666.703 127.151 666.73C126.493 666.743 125.836 666.73 125.165 666.73V666.743C124.211 666.743 123.244 666.73 122.29 666.743C121.504 666.756 121.027 667.225 121.001 668.002C120.975 668.793 121.491 669.248 122.226 669.356C122.638 669.409 123.064 669.396 123.476 669.409C124.856 669.409 126.235 669.449 127.615 669.409C128.389 669.382 128.801 669.771 129.149 670.441C129.51 671.124 129.485 671.673 129.098 672.343C128.234 673.83 127.435 675.371 126.622 676.898C126.223 677.662 126.248 678.332 127.061 678.801C127.86 679.243 128.44 678.908 128.891 678.198C129.059 677.943 129.175 677.649 129.33 677.381C130 676.202 130.658 675.009 131.354 673.844C132.295 672.276 133.804 672.276 134.719 673.83C135.222 674.674 135.673 675.559 136.163 676.416C136.498 677.006 136.808 677.608 137.195 678.171C137.646 678.828 138.252 679.27 139.025 678.747C139.76 678.252 139.747 677.515 139.399 676.764C139.244 676.429 139.077 676.095 138.896 675.773C138.265 674.634 137.62 673.522 137.001 672.383C136.112 670.789 136.859 669.436 138.651 669.396C140.031 669.369 141.411 669.396 142.79 669.382C143.203 669.382 143.641 669.356 144.028 669.248C144.595 669.088 144.943 668.645 144.995 668.029C145.046 667.399 144.711 666.984 144.17 666.716C143.667 666.475 143.125 666.435 142.584 666.435C141.204 666.435 139.825 666.395 138.445 666.448C137.504 666.488 137.053 665.979 136.666 665.189C136.331 664.492 136.666 663.996 136.962 663.461C137.826 661.947 138.677 660.446 139.464 658.905ZM133.185 669.784C132.166 669.824 131.264 669.047 131.173 668.069C131.096 667.158 132.024 666.14 132.966 666.113C133.868 666.1 134.835 667.051 134.861 668.002C134.887 668.98 134.165 669.744 133.185 669.784Z" fill="#0070F5"/>
<path opacity="0.1" d="M208.464 380.905C208.773 380.316 208.722 379.646 208.103 379.257C207.471 378.855 206.813 378.909 206.323 379.525C205.95 380.008 205.64 380.557 205.344 381.093C204.738 382.165 204.17 383.263 203.564 384.335C202.778 385.729 201.295 385.809 200.457 384.469C200.032 383.786 199.671 383.076 199.271 382.379C198.794 381.522 198.317 380.651 197.827 379.793C197.389 379.03 196.718 378.869 195.97 379.204C195.326 379.499 195.158 380.276 195.519 381.16C195.635 381.441 195.829 381.696 195.97 381.964C196.615 383.156 197.285 384.335 197.904 385.541C198.858 387.417 198.149 388.703 196.151 388.73C195.493 388.743 194.836 388.73 194.165 388.73V388.743C193.211 388.743 192.244 388.73 191.29 388.743C190.504 388.756 190.027 389.225 190.001 390.002C189.975 390.793 190.491 391.248 191.226 391.356C191.638 391.409 192.064 391.396 192.476 391.409C193.856 391.409 195.235 391.449 196.615 391.409C197.389 391.382 197.801 391.771 198.149 392.441C198.51 393.124 198.485 393.673 198.098 394.343C197.234 395.83 196.435 397.371 195.622 398.898C195.223 399.662 195.248 400.332 196.061 400.801C196.86 401.243 197.44 400.908 197.891 400.198C198.059 399.943 198.175 399.649 198.33 399.381C199 398.202 199.658 397.009 200.354 395.844C201.295 394.276 202.804 394.276 203.719 395.83C204.222 396.674 204.673 397.559 205.163 398.416C205.498 399.006 205.808 399.608 206.195 400.171C206.646 400.828 207.252 401.27 208.025 400.747C208.76 400.252 208.747 399.515 208.399 398.764C208.244 398.429 208.077 398.095 207.896 397.773C207.265 396.634 206.62 395.522 206.001 394.383C205.112 392.789 205.859 391.436 207.651 391.396C209.031 391.369 210.411 391.396 211.79 391.382C212.203 391.382 212.641 391.356 213.028 391.248C213.595 391.088 213.943 390.645 213.995 390.029C214.046 389.399 213.711 388.984 213.17 388.716C212.667 388.475 212.125 388.435 211.584 388.435C210.204 388.435 208.825 388.395 207.445 388.448C206.504 388.488 206.053 387.979 205.666 387.189C205.331 386.492 205.666 385.996 205.962 385.461C206.826 383.947 207.677 382.446 208.464 380.905ZM202.185 391.784C201.166 391.824 200.264 391.047 200.173 390.069C200.096 389.158 201.024 388.14 201.966 388.113C202.868 388.1 203.835 389.051 203.861 390.002C203.887 390.98 203.165 391.744 202.185 391.784Z" fill="#0070F5"/>
<path opacity="0.1" d="M90.4637 408.905C90.7731 408.316 90.7216 407.646 90.1027 407.257C89.4709 406.855 88.8134 406.909 88.3235 407.525C87.9496 408.008 87.6401 408.557 87.3436 409.093C86.7376 410.165 86.1703 411.263 85.5643 412.335C84.7779 413.729 83.2952 413.809 82.4572 412.469C82.0317 411.786 81.6706 411.076 81.271 410.379C80.7939 409.522 80.3169 408.651 79.827 407.793C79.3886 407.03 78.7182 406.869 77.9704 407.204C77.3257 407.499 77.1581 408.276 77.5192 409.16C77.6352 409.441 77.8286 409.696 77.9704 409.964C78.615 411.156 79.2855 412.335 79.9043 413.541C80.8584 415.417 80.1493 416.703 78.1509 416.73C77.4934 416.743 76.8358 416.73 76.1654 416.73V416.743C75.2113 416.743 74.2443 416.73 73.2902 416.743C72.5038 416.756 72.0267 417.225 72.0009 418.002C71.9751 418.793 72.4909 419.248 73.2258 419.356C73.6383 419.409 74.0639 419.396 74.4764 419.409C75.856 419.409 77.2355 419.449 78.615 419.409C79.3886 419.382 79.8012 419.771 80.1493 420.441C80.5103 421.124 80.4845 421.673 80.0977 422.343C79.2339 423.83 78.4346 425.371 77.6223 426.898C77.2226 427.662 77.2484 428.332 78.0606 428.801C78.86 429.243 79.4402 428.908 79.8915 428.198C80.0591 427.943 80.1751 427.649 80.3298 427.381C81.0002 426.202 81.6578 425.009 82.354 423.844C83.2952 422.276 84.8037 422.276 85.7191 423.83C86.2219 424.674 86.6731 425.559 87.1631 426.416C87.4983 427.006 87.8078 427.608 88.1946 428.171C88.6458 428.828 89.2518 429.27 90.0253 428.747C90.7602 428.252 90.7473 427.515 90.3992 426.764C90.2445 426.429 90.0769 426.095 89.8964 425.773C89.2646 424.634 88.62 423.522 88.0011 422.383C87.1115 420.789 87.8593 419.436 89.6514 419.396C91.0309 419.369 92.4105 419.396 93.7901 419.382C94.2026 419.382 94.641 419.356 95.0278 419.248C95.5951 419.088 95.9432 418.645 95.9948 418.029C96.0464 417.399 95.7111 416.984 95.1696 416.716C94.6668 416.475 94.1253 416.435 93.5838 416.435C92.2043 416.435 90.8247 416.395 89.4451 416.448C88.504 416.488 88.0527 415.979 87.6659 415.189C87.3307 414.492 87.6659 413.996 87.9624 413.461C88.8262 411.947 89.6772 410.446 90.4637 408.905ZM84.1848 419.784C83.1662 419.824 82.2637 419.047 82.1735 418.069C82.0961 417.158 83.0244 416.14 83.9656 416.113C84.8681 416.1 85.8351 417.051 85.8609 418.002C85.8866 418.98 85.1647 419.744 84.1848 419.784Z" fill="#0070F5"/>
<path opacity="0.1" d="M45.0784 686.386C45.2976 685.957 45.2611 685.47 44.8227 685.187C44.3752 684.895 43.9095 684.934 43.5625 685.382C43.2976 685.733 43.0784 686.132 42.8684 686.522C42.4391 687.302 42.0373 688.101 41.6081 688.88C41.051 689.893 40.0008 689.952 39.4072 688.978C39.1058 688.481 38.85 687.964 38.5669 687.458C38.229 686.834 37.8911 686.201 37.5441 685.577C37.2336 685.022 36.7587 684.905 36.229 685.148C35.7724 685.363 35.6537 685.928 35.9094 686.571C35.9916 686.775 36.1286 686.961 36.229 687.155C36.6856 688.023 37.1605 688.88 37.5989 689.757C38.2747 691.121 37.7724 692.057 36.3569 692.076C35.8911 692.086 35.4254 692.076 34.9505 692.076V692.086C34.2747 692.086 33.5897 692.076 32.9139 692.086C32.3568 692.096 32.0189 692.437 32.0007 693.002C31.9824 693.577 32.3477 693.908 32.8683 693.986C33.1605 694.025 33.4619 694.015 33.7541 694.025C34.7313 694.025 35.7085 694.054 36.6856 694.025C37.2336 694.005 37.5258 694.288 37.7724 694.775C38.0281 695.272 38.0099 695.672 37.7359 696.159C37.124 697.24 36.5578 698.361 35.9825 699.472C35.6994 700.027 35.7176 700.514 36.2929 700.855C36.8592 701.177 37.2702 700.933 37.5898 700.417C37.7085 700.232 37.7907 700.017 37.9003 699.822C38.3752 698.965 38.8409 698.098 39.3341 697.25C40.0008 696.11 41.0693 696.11 41.7177 697.24C42.0738 697.854 42.3935 698.497 42.7405 699.121C42.9779 699.55 43.1972 699.988 43.4711 700.397C43.7908 700.875 44.22 701.196 44.7679 700.816C45.2885 700.456 45.2793 699.92 45.0328 699.374C44.9232 699.131 44.8044 698.887 44.6766 698.653C44.2291 697.825 43.7725 697.016 43.3341 696.188C42.704 695.028 43.2337 694.044 44.5031 694.015C45.4802 693.996 46.4574 694.015 47.4346 694.005C47.7269 694.005 48.0374 693.986 48.3114 693.908C48.7132 693.791 48.9598 693.469 48.9963 693.021C49.0328 692.563 48.7954 692.261 48.4118 692.066C48.0556 691.891 47.6721 691.862 47.2885 691.862C46.3114 691.862 45.3342 691.832 44.357 691.871C43.6903 691.901 43.3707 691.53 43.0967 690.956C42.8592 690.449 43.0967 690.088 43.3067 689.699C43.9186 688.598 44.5213 687.506 45.0784 686.386ZM40.6309 694.298C39.9094 694.327 39.2702 693.762 39.2062 693.05C39.1514 692.388 39.809 691.647 40.4757 691.628C41.1149 691.618 41.7998 692.31 41.8181 693.002C41.8364 693.713 41.325 694.268 40.6309 694.298Z" fill="#0070F5"/>
<path opacity="0.1" d="M355.386 800.559C355.644 800.077 355.601 799.529 355.086 799.211C354.559 798.882 354.011 798.926 353.603 799.43C353.291 799.824 353.033 800.274 352.786 800.712C352.281 801.589 351.809 802.488 351.304 803.365C350.648 804.505 349.413 804.571 348.714 803.475C348.36 802.916 348.059 802.335 347.726 801.765C347.328 801.063 346.931 800.351 346.522 799.649C346.157 799.024 345.598 798.893 344.975 799.167C344.438 799.408 344.298 800.044 344.599 800.767C344.696 800.997 344.857 801.206 344.975 801.425C345.513 802.401 346.071 803.365 346.587 804.352C347.382 805.886 346.791 806.939 345.126 806.961C344.578 806.972 344.03 806.961 343.471 806.961V806.972C342.676 806.972 341.87 806.961 341.075 806.972C340.42 806.982 340.022 807.366 340.001 808.002C339.979 808.649 340.409 809.021 341.021 809.109C341.365 809.153 341.72 809.142 342.064 809.153C343.213 809.153 344.363 809.186 345.513 809.153C346.157 809.131 346.501 809.449 346.791 809.997C347.092 810.556 347.07 811.005 346.748 811.554C346.028 812.77 345.362 814.031 344.685 815.281C344.352 815.905 344.374 816.453 345.051 816.837C345.717 817.199 346.2 816.925 346.576 816.344C346.716 816.136 346.813 815.894 346.942 815.675C347.5 814.711 348.048 813.735 348.628 812.781C349.413 811.499 350.67 811.499 351.433 812.77C351.852 813.461 352.228 814.184 352.636 814.886C352.915 815.368 353.173 815.861 353.495 816.322C353.872 816.859 354.376 817.221 355.021 816.793C355.634 816.388 355.623 815.785 355.333 815.171C355.204 814.897 355.064 814.623 354.914 814.36C354.387 813.428 353.85 812.518 353.334 811.586C352.593 810.282 353.216 809.175 354.709 809.142C355.859 809.12 357.009 809.142 358.158 809.131C358.502 809.131 358.868 809.109 359.19 809.021C359.663 808.89 359.953 808.528 359.996 808.024C360.039 807.509 359.759 807.169 359.308 806.95C358.889 806.752 358.438 806.719 357.987 806.719C356.837 806.719 355.687 806.687 354.538 806.73C353.753 806.763 353.377 806.347 353.055 805.7C352.776 805.13 353.055 804.724 353.302 804.286C354.022 803.047 354.731 801.82 355.386 800.559ZM350.154 809.46C349.305 809.493 348.553 808.857 348.478 808.057C348.413 807.311 349.187 806.478 349.971 806.456C350.723 806.445 351.529 807.224 351.551 808.002C351.572 808.802 350.971 809.427 350.154 809.46Z" fill="#0070F5"/>
<path opacity="0.1" d="M332.464 95.9054C332.773 95.3159 332.722 94.646 332.103 94.2574C331.471 93.8555 330.813 93.9091 330.323 94.5254C329.95 95.0077 329.64 95.557 329.344 96.0929C328.738 97.1647 328.17 98.2633 327.564 99.3351C326.778 100.729 325.295 100.809 324.457 99.4691C324.032 98.7859 323.671 98.0758 323.271 97.3791C322.794 96.5217 322.317 95.6508 321.827 94.7933C321.389 94.0297 320.718 93.8689 319.97 94.2039C319.326 94.4986 319.158 95.2757 319.519 96.1599C319.635 96.4413 319.829 96.6958 319.97 96.9638C320.615 98.1562 321.285 99.3351 321.904 100.541C322.858 102.417 322.149 103.703 320.151 103.73C319.493 103.743 318.836 103.73 318.165 103.73V103.743C317.211 103.743 316.244 103.73 315.29 103.743C314.504 103.756 314.027 104.225 314.001 105.002C313.975 105.793 314.491 106.248 315.226 106.356C315.638 106.409 316.064 106.396 316.476 106.409C317.856 106.409 319.235 106.449 320.615 106.409C321.389 106.382 321.801 106.771 322.149 107.441C322.51 108.124 322.485 108.673 322.098 109.343C321.234 110.83 320.435 112.371 319.622 113.898C319.223 114.662 319.248 115.332 320.061 115.801C320.86 116.243 321.44 115.908 321.891 115.198C322.059 114.943 322.175 114.649 322.33 114.381C323 113.202 323.658 112.009 324.354 110.844C325.295 109.276 326.804 109.276 327.719 110.83C328.222 111.674 328.673 112.559 329.163 113.416C329.498 114.006 329.808 114.608 330.195 115.171C330.646 115.828 331.252 116.27 332.025 115.747C332.76 115.252 332.747 114.515 332.399 113.764C332.244 113.429 332.077 113.095 331.896 112.773C331.265 111.634 330.62 110.522 330.001 109.383C329.112 107.789 329.859 106.436 331.651 106.396C333.031 106.369 334.411 106.396 335.79 106.382C336.203 106.382 336.641 106.356 337.028 106.248C337.595 106.088 337.943 105.645 337.995 105.029C338.046 104.399 337.711 103.984 337.17 103.716C336.667 103.475 336.125 103.435 335.584 103.435C334.204 103.435 332.825 103.395 331.445 103.448C330.504 103.488 330.053 102.979 329.666 102.189C329.331 101.492 329.666 100.996 329.962 100.461C330.826 98.9466 331.677 97.4461 332.464 95.9054ZM326.185 106.784C325.166 106.824 324.264 106.047 324.173 105.069C324.096 104.158 325.024 103.14 325.966 103.113C326.868 103.1 327.835 104.051 327.861 105.002C327.887 105.98 327.165 106.744 326.185 106.784Z" fill="#0070F5"/>
<path opacity="0.1" d="M143.464 213.905C143.773 213.316 143.722 212.646 143.103 212.257C142.471 211.855 141.813 211.909 141.323 212.525C140.95 213.008 140.64 213.557 140.344 214.093C139.738 215.165 139.17 216.263 138.564 217.335C137.778 218.729 136.295 218.809 135.457 217.469C135.032 216.786 134.671 216.076 134.271 215.379C133.794 214.522 133.317 213.651 132.827 212.793C132.389 212.03 131.718 211.869 130.97 212.204C130.326 212.499 130.158 213.276 130.519 214.16C130.635 214.441 130.829 214.696 130.97 214.964C131.615 216.156 132.285 217.335 132.904 218.541C133.858 220.417 133.149 221.703 131.151 221.73C130.493 221.743 129.836 221.73 129.165 221.73V221.743C128.211 221.743 127.244 221.73 126.29 221.743C125.504 221.756 125.027 222.225 125.001 223.002C124.975 223.793 125.491 224.248 126.226 224.356C126.638 224.409 127.064 224.396 127.476 224.409C128.856 224.409 130.235 224.449 131.615 224.409C132.389 224.382 132.801 224.771 133.149 225.441C133.51 226.124 133.485 226.673 133.098 227.343C132.234 228.83 131.435 230.371 130.622 231.898C130.223 232.662 130.248 233.332 131.061 233.801C131.86 234.243 132.44 233.908 132.891 233.198C133.059 232.943 133.175 232.649 133.33 232.381C134 231.202 134.658 230.009 135.354 228.844C136.295 227.276 137.804 227.276 138.719 228.83C139.222 229.674 139.673 230.559 140.163 231.416C140.498 232.006 140.808 232.608 141.195 233.171C141.646 233.828 142.252 234.27 143.025 233.747C143.76 233.252 143.747 232.515 143.399 231.764C143.244 231.429 143.077 231.095 142.896 230.773C142.265 229.634 141.62 228.522 141.001 227.383C140.112 225.789 140.859 224.436 142.651 224.396C144.031 224.369 145.411 224.396 146.79 224.382C147.203 224.382 147.641 224.356 148.028 224.248C148.595 224.088 148.943 223.645 148.995 223.029C149.046 222.399 148.711 221.984 148.17 221.716C147.667 221.475 147.125 221.435 146.584 221.435C145.204 221.435 143.825 221.395 142.445 221.448C141.504 221.488 141.053 220.979 140.666 220.189C140.331 219.492 140.666 218.996 140.962 218.461C141.826 216.947 142.677 215.446 143.464 213.905ZM137.185 224.784C136.166 224.824 135.264 224.047 135.173 223.069C135.096 222.158 136.024 221.14 136.966 221.113C137.868 221.1 138.835 222.051 138.861 223.002C138.887 223.98 138.165 224.744 137.185 224.784Z" fill="#0070F5"/>
<path opacity="0.1" d="M307.464 299.905C307.773 299.316 307.722 298.646 307.103 298.257C306.471 297.855 305.813 297.909 305.323 298.525C304.95 299.008 304.64 299.557 304.344 300.093C303.738 301.165 303.17 302.263 302.564 303.335C301.778 304.729 300.295 304.809 299.457 303.469C299.032 302.786 298.671 302.076 298.271 301.379C297.794 300.522 297.317 299.651 296.827 298.793C296.389 298.03 295.718 297.869 294.97 298.204C294.326 298.499 294.158 299.276 294.519 300.16C294.635 300.441 294.829 300.696 294.97 300.964C295.615 302.156 296.285 303.335 296.904 304.541C297.858 306.417 297.149 307.703 295.151 307.73C294.493 307.743 293.836 307.73 293.165 307.73V307.743C292.211 307.743 291.244 307.73 290.29 307.743C289.504 307.756 289.027 308.225 289.001 309.002C288.975 309.793 289.491 310.248 290.226 310.356C290.638 310.409 291.064 310.396 291.476 310.409C292.856 310.409 294.235 310.449 295.615 310.409C296.389 310.382 296.801 310.771 297.149 311.441C297.51 312.124 297.485 312.673 297.098 313.343C296.234 314.83 295.435 316.371 294.622 317.898C294.223 318.662 294.248 319.332 295.061 319.801C295.86 320.243 296.44 319.908 296.891 319.198C297.059 318.943 297.175 318.649 297.33 318.381C298 317.202 298.658 316.009 299.354 314.844C300.295 313.276 301.804 313.276 302.719 314.83C303.222 315.674 303.673 316.559 304.163 317.416C304.498 318.006 304.808 318.608 305.195 319.171C305.646 319.828 306.252 320.27 307.025 319.747C307.76 319.252 307.747 318.515 307.399 317.764C307.244 317.429 307.077 317.095 306.896 316.773C306.265 315.634 305.62 314.522 305.001 313.383C304.112 311.789 304.859 310.436 306.651 310.396C308.031 310.369 309.411 310.396 310.79 310.382C311.203 310.382 311.641 310.356 312.028 310.248C312.595 310.088 312.943 309.645 312.995 309.029C313.046 308.399 312.711 307.984 312.17 307.716C311.667 307.475 311.125 307.435 310.584 307.435C309.204 307.435 307.825 307.395 306.445 307.448C305.504 307.488 305.053 306.979 304.666 306.189C304.331 305.492 304.666 304.996 304.962 304.461C305.826 302.947 306.677 301.446 307.464 299.905ZM301.185 310.784C300.166 310.824 299.264 310.047 299.173 309.069C299.096 308.158 300.024 307.14 300.966 307.113C301.868 307.1 302.835 308.051 302.861 309.002C302.887 309.98 302.165 310.744 301.185 310.784Z" fill="#0070F5"/>
<path opacity="0.1" d="M61.8477 78.4723C62.0798 78.0168 62.0412 77.4991 61.577 77.1989C61.1032 76.8883 60.61 76.9298 60.2426 77.406C59.9622 77.7787 59.7301 78.2031 59.5077 78.6172C59.0532 79.4455 58.6277 80.2944 58.1733 81.1226C57.5834 82.1993 56.4714 82.2614 55.8429 81.2261C55.5238 80.6982 55.253 80.1495 54.9532 79.6111C54.5954 78.9485 54.2377 78.2756 53.8702 77.613C53.5415 77.0229 53.0386 76.8987 52.4778 77.1575C51.9943 77.3853 51.8686 77.9857 52.1394 78.669C52.2264 78.8864 52.3714 79.0831 52.4778 79.2902C52.9613 80.2116 53.4641 81.1226 53.9282 82.0544C54.6438 83.5037 54.112 84.4976 52.6132 84.5183C52.12 84.5287 51.6269 84.5183 51.1241 84.5183V84.5287C50.4085 84.5287 49.6832 84.5183 48.9677 84.5287C48.3778 84.539 48.02 84.9014 48.0007 85.5018C47.9814 86.1126 48.3682 86.4646 48.9193 86.5474C49.2288 86.5888 49.5479 86.5785 49.8573 86.5889C50.892 86.5889 51.9266 86.6199 52.9613 86.5889C53.5414 86.5682 53.8509 86.8684 54.112 87.386C54.3827 87.914 54.3634 88.3385 54.0733 88.8561C53.4254 90.0053 52.8259 91.1958 52.2167 92.376C51.917 92.9661 51.9363 93.4838 52.5455 93.8461C53.145 94.1878 53.5802 93.9289 53.9186 93.3803C54.0443 93.1835 54.1313 92.9558 54.2474 92.7487C54.7502 91.8377 55.2433 90.9163 55.7655 90.0156C56.4714 88.8043 57.6027 88.8043 58.2893 90.0052C58.6664 90.6575 59.0048 91.3408 59.3723 92.0034C59.6237 92.4589 59.8558 92.9247 60.1459 93.3596C60.4844 93.8668 60.9388 94.2085 61.519 93.8047C62.0702 93.4217 62.0605 92.8523 61.7994 92.2725C61.6834 92.0137 61.5576 91.7549 61.4223 91.5064C60.9485 90.6264 60.465 89.7671 60.0009 88.8872C59.3336 87.6552 59.8945 86.6096 61.2385 86.5785C62.2732 86.5578 63.3079 86.5785 64.3425 86.5682C64.652 86.5682 64.9808 86.5475 65.2709 86.4646C65.6963 86.3404 65.9574 85.9988 65.9961 85.5225C66.0348 85.0359 65.7833 84.715 65.3772 84.5079C65.0001 84.3216 64.594 84.2905 64.1879 84.2905C63.1532 84.2905 62.1185 84.2595 61.0839 84.3009C60.378 84.332 60.0395 83.9386 59.7494 83.3278C59.498 82.7894 59.7494 82.4063 59.9718 81.9922C60.6197 80.8224 61.2579 79.6629 61.8477 78.4723ZM57.1386 86.8787C56.3747 86.9098 55.6978 86.3093 55.6301 85.5536C55.5721 84.8496 56.2683 84.0628 56.9742 84.0421C57.6511 84.0317 58.3763 84.7668 58.3956 85.5018C58.415 86.2576 57.8735 86.8477 57.1386 86.8787Z" fill="#0070F5"/>
<path opacity="0.1" d="M47.8477 301.472C48.0798 301.017 48.0412 300.499 47.577 300.199C47.1032 299.888 46.61 299.93 46.2426 300.406C45.9622 300.779 45.7301 301.203 45.5077 301.617C45.0532 302.445 44.6277 303.294 44.1733 304.123C43.5834 305.199 42.4714 305.261 41.8429 304.226C41.5238 303.698 41.253 303.149 40.9532 302.611C40.5954 301.949 40.2377 301.276 39.8702 300.613C39.5415 300.023 39.0386 299.899 38.4778 300.158C37.9943 300.385 37.8686 300.986 38.1394 301.669C38.2264 301.886 38.3714 302.083 38.4778 302.29C38.9613 303.212 39.4641 304.123 39.9282 305.054C40.6438 306.504 40.112 307.498 38.6132 307.518C38.12 307.529 37.6269 307.518 37.1241 307.518V307.529C36.4085 307.529 35.6832 307.518 34.9677 307.529C34.3778 307.539 34.02 307.901 34.0007 308.502C33.9814 309.113 34.3682 309.465 34.9193 309.547C35.2288 309.589 35.5479 309.579 35.8573 309.589C36.892 309.589 37.9266 309.62 38.9613 309.589C39.5414 309.568 39.8509 309.868 40.112 310.386C40.3827 310.914 40.3634 311.338 40.0733 311.856C39.4254 313.005 38.8259 314.196 38.2167 315.376C37.917 315.966 37.9363 316.484 38.5455 316.846C39.145 317.188 39.5802 316.929 39.9186 316.38C40.0443 316.184 40.1313 315.956 40.2474 315.749C40.7502 314.838 41.2433 313.916 41.7655 313.016C42.4714 311.804 43.6027 311.804 44.2893 313.005C44.6664 313.657 45.0048 314.341 45.3723 315.003C45.6237 315.459 45.8558 315.925 46.1459 316.36C46.4844 316.867 46.9388 317.208 47.519 316.805C48.0702 316.422 48.0605 315.852 47.7994 315.273C47.6834 315.014 47.5576 314.755 47.4223 314.506C46.9485 313.626 46.465 312.767 46.0009 311.887C45.3336 310.655 45.8945 309.61 47.2385 309.578C48.2732 309.558 49.3079 309.579 50.3425 309.568C50.652 309.568 50.9808 309.547 51.2709 309.465C51.6963 309.34 51.9574 308.999 51.9961 308.523C52.0348 308.036 51.7833 307.715 51.3772 307.508C51.0001 307.322 50.594 307.291 50.1879 307.291C49.1532 307.291 48.1185 307.26 47.0839 307.301C46.378 307.332 46.0395 306.939 45.7494 306.328C45.498 305.789 45.7494 305.406 45.9718 304.992C46.6197 303.822 47.2579 302.663 47.8477 301.472ZM43.1386 309.879C42.3747 309.91 41.6978 309.309 41.6301 308.554C41.5721 307.85 42.2683 307.063 42.9742 307.042C43.6511 307.032 44.3763 307.767 44.3956 308.502C44.415 309.258 43.8735 309.848 43.1386 309.879Z" fill="#0070F5"/>
<path opacity="0.1" d="M260.848 246.472C261.08 246.017 261.041 245.499 260.577 245.199C260.103 244.888 259.61 244.93 259.243 245.406C258.962 245.779 258.73 246.203 258.508 246.617C258.053 247.445 257.628 248.294 257.173 249.123C256.583 250.199 255.471 250.261 254.843 249.226C254.524 248.698 254.253 248.149 253.953 247.611C253.595 246.949 253.238 246.276 252.87 245.613C252.541 245.023 252.039 244.899 251.478 245.158C250.994 245.385 250.869 245.986 251.139 246.669C251.226 246.886 251.371 247.083 251.478 247.29C251.961 248.212 252.464 249.123 252.928 250.054C253.644 251.504 253.112 252.498 251.613 252.518C251.12 252.529 250.627 252.518 250.124 252.518V252.529C249.408 252.529 248.683 252.518 247.968 252.529C247.378 252.539 247.02 252.901 247.001 253.502C246.981 254.113 247.368 254.465 247.919 254.547C248.229 254.589 248.548 254.579 248.857 254.589C249.892 254.589 250.927 254.62 251.961 254.589C252.541 254.568 252.851 254.868 253.112 255.386C253.383 255.914 253.363 256.338 253.073 256.856C252.425 258.005 251.826 259.196 251.217 260.376C250.917 260.966 250.936 261.484 251.545 261.846C252.145 262.188 252.58 261.929 252.919 261.38C253.044 261.184 253.131 260.956 253.247 260.749C253.75 259.838 254.243 258.916 254.766 258.016C255.471 256.804 256.603 256.804 257.289 258.005C257.666 258.657 258.005 259.341 258.372 260.003C258.624 260.459 258.856 260.925 259.146 261.36C259.484 261.867 259.939 262.208 260.519 261.805C261.07 261.422 261.06 260.852 260.799 260.273C260.683 260.014 260.558 259.755 260.422 259.506C259.948 258.626 259.465 257.767 259.001 256.887C258.334 255.655 258.894 254.61 260.239 254.578C261.273 254.558 262.308 254.579 263.343 254.568C263.652 254.568 263.981 254.547 264.271 254.465C264.696 254.34 264.957 253.999 264.996 253.523C265.035 253.036 264.783 252.715 264.377 252.508C264 252.322 263.594 252.291 263.188 252.291C262.153 252.291 261.119 252.26 260.084 252.301C259.378 252.332 259.04 251.939 258.749 251.328C258.498 250.789 258.749 250.406 258.972 249.992C259.62 248.822 260.258 247.663 260.848 246.472ZM256.139 254.879C255.375 254.91 254.698 254.309 254.63 253.554C254.572 252.85 255.268 252.063 255.974 252.042C256.651 252.032 257.376 252.767 257.396 253.502C257.415 254.258 256.873 254.848 256.139 254.879Z" fill="#0070F5"/>
<path opacity="0.1" d="M343 238C340.791 238 339 236.209 339 234C339 231.791 340.791 230 343 230C345.209 230 347 231.791 347 234C347 236.209 345.209 238 343 238Z" fill="#0070F5"/>
<path opacity="0.1" d="M199 317C196.791 317 195 315.209 195 313C195 310.791 196.791 309 199 309C201.209 309 203 310.791 203 313C203 315.209 201.209 317 199 317Z" fill="#0070F5"/>
<path opacity="0.1" d="M121 313C118.791 313 117 311.209 117 309C117 306.791 118.791 305 121 305C123.209 305 125 306.791 125 309C125 311.209 123.209 313 121 313Z" fill="#0070F5"/>
<path opacity="0.1" d="M265 144C262.791 144 261 142.209 261 140C261 137.791 262.791 136 265 136C267.209 136 269 137.791 269 140C269 142.209 267.209 144 265 144Z" fill="#0070F5"/>
<path opacity="0.1" d="M112 584C109.791 584 108 582.209 108 580C108 577.791 109.791 576 112 576C114.209 576 116 577.791 116 580C116 582.209 114.209 584 112 584Z" fill="#0070F5"/>
<path opacity="0.1" d="M273 398C270.791 398 269 396.209 269 394C269 391.791 270.791 390 273 390C275.209 390 277 391.791 277 394C277 396.209 275.209 398 273 398Z" fill="#0070F5"/>
<path opacity="0.1" d="M159 144C156.791 144 155 142.209 155 140C155 137.791 156.791 136 159 136C161.209 136 163 137.791 163 140C163 142.209 161.209 144 159 144Z" fill="#0070F5"/>
<path opacity="0.1" d="M96 744C93.7909 744 92 742.209 92 740C92 737.791 93.7909 736 96 736C98.2091 736 100 737.791 100 740C100 742.209 98.2091 744 96 744Z" fill="#0070F5"/>
<path opacity="0.1" d="M195 709C192.791 709 191 707.209 191 705C191 702.791 192.791 701 195 701C197.209 701 199 702.791 199 705C199 707.209 197.209 709 195 709Z" fill="#0070F5"/>
<path opacity="0.1" d="M328 676C325.791 676 324 674.209 324 672C324 669.791 325.791 668 328 668C330.209 668 332 669.791 332 672C332 674.209 330.209 676 328 676Z" fill="#0070F5"/>
<path opacity="0.1" d="M238 467C235.791 467 234 465.209 234 463C234 460.791 235.791 459 238 459C240.209 459 242 460.791 242 463C242 465.209 240.209 467 238 467Z" fill="#0070F5"/>
<path opacity="0.1" d="M116 504C113.791 504 112 502.209 112 500C112 497.791 113.791 496 116 496C118.209 496 120 497.791 120 500C120 502.209 118.209 504 116 504Z" fill="#0070F5"/>
<path opacity="0.1" d="M22 572C19.7909 572 18 570.209 18 568C18 565.791 19.7909 564 22 564C24.2091 564 26 565.791 26 568C26 570.209 24.2091 572 22 572Z" fill="#0070F5"/>
</svg>
