<svg width="998" height="943" viewBox="0 0 998 943" fill="none" xmlns="http://www.w3.org/2000/svg">
<path opacity="0.3" fill-rule="evenodd" clip-rule="evenodd" d="M839.424 309.066C877.539 377.819 827.854 457.807 807.005 533.611C782.554 622.514 784.815 727.916 709.565 781.219C625.454 840.8 510.221 848.409 413.731 812.189C317.244 775.97 243.549 692.137 211.414 594.226C182.079 504.847 216.389 412.279 254.204 326.132C289.326 246.119 330.177 154.286 414.539 131.482C494.405 109.894 558.608 191.319 634.933 223.22C705.84 252.856 802.166 241.859 839.424 309.066Z" fill="url(#paint0_linear_99_501)"/>
<path opacity="0.3" fill-rule="evenodd" clip-rule="evenodd" d="M877.264 471.292V666.748C844.008 699.715 794.898 720.873 745.913 741.977C721.906 752.32 697.929 762.649 675.864 774.35C649.086 788.549 622.992 805.267 596.966 821.941C520.748 870.772 445.119 919.225 354.668 902.92C219.043 878.472 101.238 779.95 41.7246 660.036C-17.7862 540.127 -11.6332 399.195 47.4202 283.839C101.328 178.535 219.369 128.536 334.882 87.3776C442.17 49.1501 565.827 5.76739 667.905 62.7551C731.99 98.5325 747.83 167.82 764.088 238.934C772.346 275.057 780.712 311.651 795.563 344.564C809.358 375.136 830.161 404.291 850.695 433.071C859.817 445.855 868.885 458.565 877.264 471.292Z" fill="url(#paint1_linear_99_501)"/>
<defs>
<linearGradient id="paint0_linear_99_501" x1="848.388" y1="327.948" x2="218.079" y2="614.153" gradientUnits="userSpaceOnUse">
<stop stop-color="#0A1330"/>
<stop offset="1" stop-color="white" stop-opacity="0"/>
</linearGradient>
<linearGradient id="paint1_linear_99_501" x1="904.613" y1="672.13" x2="22.2045" y2="364.157" gradientUnits="userSpaceOnUse">
<stop stop-color="#0A1330"/>
<stop offset="1" stop-color="white" stop-opacity="0"/>
</linearGradient>
</defs>
</svg>
