<svg width="125" height="25" viewBox="0 0 125 25" fill="none" xmlns="http://www.w3.org/2000/svg">
<path d="M11.5975 1.89137C11.9597 1.13224 13.0403 1.13224 13.4025 1.89137L15.8664 7.05494C16.0122 7.36044 16.3027 7.57146 16.6383 7.6157L22.3105 8.36341C23.1444 8.47333 23.4783 9.50101 22.8683 10.0801L18.7189 14.0191C18.4733 14.2521 18.3624 14.5936 18.424 14.9264L19.4657 20.5521C19.6189 21.3791 18.7447 22.0143 18.0054 21.6131L12.977 18.8839C12.6795 18.7224 12.3205 18.7224 12.023 18.8839L6.99455 21.6131C6.2553 22.0143 5.38111 21.3791 5.53425 20.5521L6.57596 14.9264C6.63759 14.5936 6.52665 14.2521 6.28115 14.0191L2.1317 10.0801C1.52167 9.50101 1.85558 8.47333 2.68948 8.36341L8.36173 7.6157C8.69733 7.57146 8.98777 7.36044 9.13355 7.05494L11.5975 1.89137Z" fill="#F89E1F"/>
<path d="M36.5975 1.89137C36.9597 1.13224 38.0403 1.13224 38.4025 1.89137L40.8664 7.05494C41.0122 7.36044 41.3027 7.57146 41.6383 7.6157L47.3105 8.36341C48.1444 8.47333 48.4783 9.50101 47.8683 10.0801L43.7189 14.0191C43.4733 14.2521 43.3624 14.5936 43.424 14.9264L44.4657 20.5521C44.6189 21.3791 43.7447 22.0143 43.0054 21.6131L37.977 18.8839C37.6795 18.7224 37.3205 18.7224 37.023 18.8839L31.9946 21.6131C31.2553 22.0143 30.3811 21.3791 30.5343 20.5521L31.576 14.9264C31.6376 14.5936 31.5267 14.2521 31.2811 14.0191L27.1317 10.0801C26.5217 9.50101 26.8556 8.47333 27.6895 8.36341L33.3617 7.6157C33.6973 7.57146 33.9878 7.36044 34.1336 7.05494L36.5975 1.89137Z" fill="#F89E1F"/>
<path d="M61.5975 1.89137C61.9597 1.13224 63.0403 1.13224 63.4025 1.89137L65.8664 7.05494C66.0122 7.36044 66.3027 7.57146 66.6383 7.6157L72.3105 8.36341C73.1444 8.47333 73.4783 9.50101 72.8683 10.0801L68.7189 14.0191C68.4733 14.2521 68.3624 14.5936 68.424 14.9264L69.4657 20.5521C69.6189 21.3791 68.7447 22.0143 68.0054 21.6131L62.977 18.8839C62.6795 18.7224 62.3205 18.7224 62.023 18.8839L56.9946 21.6131C56.2553 22.0143 55.3811 21.3791 55.5343 20.5521L56.576 14.9264C56.6376 14.5936 56.5267 14.2521 56.2811 14.0191L52.1317 10.0801C51.5217 9.50101 51.8556 8.47333 52.6895 8.36341L58.3617 7.6157C58.6973 7.57146 58.9878 7.36044 59.1336 7.05494L61.5975 1.89137Z" fill="#F89E1F"/>
<path d="M86.5975 1.89137C86.9597 1.13224 88.0403 1.13224 88.4025 1.89137L90.8664 7.05494C91.0122 7.36044 91.3027 7.57146 91.6383 7.6157L97.3105 8.36341C98.1444 8.47333 98.4783 9.50101 97.8683 10.0801L93.7189 14.0191C93.4733 14.2521 93.3624 14.5936 93.424 14.9264L94.4657 20.5521C94.6189 21.3791 93.7447 22.0143 93.0054 21.6131L87.977 18.8839C87.6795 18.7224 87.3205 18.7224 87.023 18.8839L81.9946 21.6131C81.2553 22.0143 80.3811 21.3791 80.5343 20.5521L81.576 14.9264C81.6376 14.5936 81.5267 14.2521 81.2811 14.0191L77.1317 10.0801C76.5217 9.50101 76.8556 8.47333 77.6895 8.36341L83.3617 7.6157C83.6973 7.57146 83.9878 7.36044 84.1336 7.05494L86.5975 1.89137Z" fill="#F89E1F"/>
<path d="M111.597 1.89137C111.96 1.13224 113.04 1.13224 113.403 1.89137L115.866 7.05494C116.012 7.36044 116.303 7.57146 116.638 7.6157L122.311 8.36341C123.144 8.47333 123.478 9.50101 122.868 10.0801L118.719 14.0191C118.473 14.2521 118.362 14.5936 118.424 14.9264L119.466 20.5521C119.619 21.3791 118.745 22.0143 118.005 21.6131L112.977 18.8839C112.68 18.7224 112.32 18.7224 112.023 18.8839L106.995 21.6131C106.255 22.0143 105.381 21.3791 105.534 20.5521L106.576 14.9264C106.638 14.5936 106.527 14.2521 106.281 14.0191L102.132 10.0801C101.522 9.50101 101.856 8.47333 102.689 8.36341L108.362 7.6157C108.697 7.57146 108.988 7.36044 109.134 7.05494L111.597 1.89137Z" fill="#F89E1F"/>
<g clip-path="url(#clip0_144_918)">
<path d="M111.597 1.89137C111.96 1.13224 113.04 1.13224 113.403 1.89137L115.866 7.05494C116.012 7.36044 116.303 7.57146 116.638 7.6157L122.311 8.36341C123.144 8.47333 123.478 9.50101 122.868 10.0801L118.719 14.0191C118.473 14.2521 118.362 14.5936 118.424 14.9264L119.466 20.5521C119.619 21.3791 118.745 22.0143 118.005 21.6131L112.977 18.8839C112.68 18.7224 112.32 18.7224 112.023 18.8839L106.995 21.6131C106.255 22.0143 105.381 21.3791 105.534 20.5521L106.576 14.9264C106.638 14.5936 106.527 14.2521 106.281 14.0191L102.132 10.0801C101.522 9.50101 101.856 8.47333 102.689 8.36341L108.362 7.6157C108.697 7.57146 108.988 7.36044 109.134 7.05494L111.597 1.89137Z" fill="#E5E6FB"/>
</g>
<defs>
<clipPath id="clip0_144_918">
<rect width="9" height="25" fill="white" transform="translate(116)"/>
</clipPath>
</defs>
</svg>
