<svg width="760" height="480" viewBox="0 0 760 480" fill="none" xmlns="http://www.w3.org/2000/svg">
<path opacity="0.3" fill-rule="evenodd" clip-rule="evenodd" d="M483.424 815.62C424.165 843.267 358.1 787.952 294.688 759.941C220.318 727.089 131.19 717.214 88.4542 641.148C40.6854 556.124 37.7815 448.051 71.337 362.398C104.891 276.747 177.98 217.712 261.692 198.942C338.109 181.808 415.274 224.248 486.907 269.219C553.438 310.988 629.783 359.43 646.469 440.509C662.267 517.266 591.503 567.744 562.214 635.127C535.004 697.728 541.35 788.595 483.424 815.62Z" fill="url(#paint0_linear_81_603)"/>
<path opacity="0.3" fill-rule="evenodd" clip-rule="evenodd" d="M177.216 847.165C151.862 805.734 138.06 739.933 125.294 679.068C117.178 640.373 109.48 603.673 99.4981 576.5C93.4199 559.953 90.2299 544.856 87.4619 531.756L87.4617 531.755C81.2965 502.578 77.2251 483.309 47.9966 480C28.6424 477.809 21.2899 464.817 19.998 446.647L19.998 433.325C20.9651 416.816 25.0477 397.731 29.0304 379.112L29.0307 379.111C32.4172 363.279 35.7314 347.785 36.9966 334.5C50.5904 191.765 136.201 103.644 239.839 55.3119C343.474 6.9818 459.421 22.2696 550.168 85.9564C633.008 144.094 665.226 259.276 690.335 371.471C713.656 475.676 739.976 595.735 685.043 688.614C650.555 746.925 592.099 757.281 532.102 767.91C501.626 773.309 470.753 778.778 442.421 790.639C416.104 801.656 390.419 819.406 365.064 836.928C353.725 844.764 342.452 852.555 331.218 859.677L177.216 847.165Z" fill="url(#paint1_linear_81_603)"/>
<defs>
<linearGradient id="paint0_linear_81_603" x1="467.195" y1="821.814" x2="244.651" y2="202.878" gradientUnits="userSpaceOnUse">
<stop stop-color="#0A1330"/>
<stop offset="1" stop-color="white" stop-opacity="0"/>
</linearGradient>
<linearGradient id="paint1_linear_81_603" x1="200.5" y1="875.137" x2="606.292" y2="112.8" gradientUnits="userSpaceOnUse">
<stop stop-color="#0A1330"/>
<stop offset="1" stop-color="white" stop-opacity="0"/>
</linearGradient>
</defs>
</svg>
