<svg width="898" height="700" viewBox="0 0 898 700" fill="none" xmlns="http://www.w3.org/2000/svg">
<path opacity="0.3" fill-rule="evenodd" clip-rule="evenodd" d="M840.158 158.549C878.273 227.303 828.588 307.291 807.74 383.094C783.288 471.998 785.549 577.4 710.3 630.703C626.189 690.283 510.955 697.892 414.465 661.672C317.978 625.453 244.283 541.62 212.148 443.71C182.814 354.33 217.123 261.763 254.938 175.615C290.061 95.6027 330.911 3.76895 415.274 -19.0344C495.14 -40.6225 559.343 40.8027 635.667 72.7032C706.575 102.339 802.9 91.3422 840.158 158.549Z" fill="url(#paint0_linear_6_1121)"/>
<path opacity="0.3" fill-rule="evenodd" clip-rule="evenodd" d="M878 516.232C844.744 549.199 795.635 570.356 746.65 591.46L746.649 591.461C722.642 601.803 698.666 612.133 676.6 623.834C649.824 638.032 623.729 654.75 597.704 671.424L597.702 671.425L597.694 671.43C582.543 681.137 567.415 690.829 552.189 700H218.314C142.826 654.589 80.645 586.458 42.4609 509.52C-17.0499 389.61 -10.8969 248.679 48.1566 133.323C102.065 28.0183 220.105 -21.9806 335.619 -63.139C442.906 -101.367 566.563 -144.749 668.641 -87.7615C732.727 -51.9841 748.567 17.3033 764.824 88.4176L764.824 88.418C773.082 124.541 781.448 161.135 796.3 194.048C810.095 224.62 830.897 253.775 851.432 282.555C860.553 295.339 869.622 308.048 878 320.776V516.232Z" fill="url(#paint1_linear_6_1121)"/>
<defs>
<linearGradient id="paint0_linear_6_1121" x1="849.122" y1="177.432" x2="218.814" y2="463.636" gradientUnits="userSpaceOnUse">
<stop stop-color="#0A1330"/>
<stop offset="1" stop-color="white" stop-opacity="0"/>
</linearGradient>
<linearGradient id="paint1_linear_6_1121" x1="905.349" y1="480.935" x2="36.2581" y2="156.914" gradientUnits="userSpaceOnUse">
<stop stop-color="#0A1330"/>
<stop offset="1" stop-color="white" stop-opacity="0"/>
</linearGradient>
</defs>
</svg>
