<svg width="195" height="164" viewBox="0 0 195 164" fill="none" xmlns="http://www.w3.org/2000/svg">
<rect width="195" height="164" rx="20" fill="#E5E6FB"/>
<rect x="26" y="66" width="143" height="72" rx="9" fill="white" stroke="#434C67" stroke-width="2"/>
<rect x="77" y="77" width="46" height="10" rx="5" fill="#E5E6FB"/>
<rect x="77" y="90" width="81" height="10" rx="5" fill="#E5E6FB"/>
<rect x="77" y="103" width="81" height="10" rx="5" fill="#E5E6FB"/>
<rect x="37" y="116" width="121" height="10" rx="5" fill="#E5E6FB"/>
<rect x="26" y="26" width="143" height="32" rx="7" fill="white" stroke="#434C67" stroke-width="2"/>
<rect x="57" y="36" width="101" height="12" rx="6" fill="#E5E6FB"/>
<rect x="37.75" y="77.75" width="34.5" height="34.5" rx="5.25" stroke="#434C67" stroke-width="1.5"/>
<path d="M55 95.7C55.6922 95.7 56.3689 95.4947 56.9445 95.1101C57.5201 94.7255 57.9687 94.1789 58.2336 93.5393C58.4985 92.8998 58.5678 92.1961 58.4327 91.5171C58.2977 90.8382 57.9644 90.2146 57.4749 89.7251C56.9854 89.2356 56.3617 88.9023 55.6828 88.7672C55.0039 88.6322 54.3001 88.7015 53.6606 88.9664C53.0211 89.2313 52.4744 89.6799 52.0899 90.2555C51.7053 90.831 51.5 91.5077 51.5 92.2C51.5011 93.1279 51.8702 94.0175 52.5264 94.6736C53.1825 95.3297 54.0721 95.6988 55 95.7ZM55 90.1C55.4153 90.1 55.8214 90.2231 56.1667 90.4539C56.512 90.6846 56.7812 91.0126 56.9401 91.3963C57.0991 91.78 57.1407 92.2023 57.0596 92.6096C56.9786 93.017 56.7786 93.3912 56.4849 93.6849C56.1912 93.9786 55.8171 94.1786 55.4097 94.2596C55.0023 94.3406 54.5801 94.299 54.1964 94.1401C53.8126 93.9812 53.4847 93.712 53.2539 93.3667C53.0232 93.0213 52.9 92.6153 52.9 92.2C52.9 91.643 53.1212 91.1089 53.5151 90.715C53.9089 90.3212 54.443 90.1 55 90.1Z" fill="#434C67"/>
<path d="M58.1504 96.3999H51.8504C51.2006 96.3999 50.5774 96.658 50.118 97.1175C49.6585 97.577 49.4004 98.2001 49.4004 98.8499C49.4004 99.4997 49.6585 100.123 50.118 100.582C50.5774 101.042 51.2006 101.3 51.8504 101.3H58.1504C58.8002 101.3 59.4233 101.042 59.8828 100.582C60.3423 100.123 60.6004 99.4997 60.6004 98.8499C60.6004 98.2001 60.3423 97.577 59.8828 97.1175C59.4233 96.658 58.8002 96.3999 58.1504 96.3999ZM58.1504 99.8999H51.8504C51.5719 99.8999 51.3048 99.7893 51.1079 99.5924C50.911 99.3955 50.8004 99.1284 50.8004 98.8499C50.8004 98.5714 50.911 98.3044 51.1079 98.1074C51.3048 97.9105 51.5719 97.7999 51.8504 97.7999H58.1504C58.4289 97.7999 58.6959 97.9105 58.8929 98.1074C59.0898 98.3044 59.2004 98.5714 59.2004 98.8499C59.2004 99.1284 59.0898 99.3955 58.8929 99.5924C58.6959 99.7893 58.4289 99.8999 58.1504 99.8999Z" fill="#434C67"/>
<g clip-path="url(#clip0_212_1544)">
<path d="M44.6181 41.1252V38.0145C45.2836 38.1267 45.9111 38.3998 46.4475 38.8098C46.5544 38.8832 46.6799 38.923 46.8098 38.9247C47.2261 38.9247 47.5654 38.5898 47.5698 38.1736C47.5707 37.9951 47.5009 37.8236 47.3754 37.6963C46.6004 37.0327 45.6283 36.6412 44.6093 36.5828V35.54C44.6093 35.2422 44.3681 35.0009 44.0702 35.0009C44.064 35.0001 44.0578 35.0001 44.0517 35.0001C43.7494 34.9956 43.5002 35.2369 43.4958 35.54V36.5475C41.5074 36.6889 40.1553 37.9173 40.1553 39.5522C40.1553 41.5582 41.8609 42.115 43.4958 42.5569V46.0918C42.6332 45.9761 41.8202 45.6182 41.1539 45.0579C41.0284 44.958 40.8728 44.9023 40.712 44.8988C40.3046 44.9271 39.9909 45.2682 39.9962 45.6765C39.9953 45.855 40.0651 46.0265 40.1906 46.1537C41.1035 46.9756 42.2771 47.4484 43.5046 47.4882V48.4603C43.5046 48.4664 43.5055 48.4726 43.5055 48.4788C43.5196 48.7811 43.7768 49.0144 44.079 48.9993C44.3768 48.9993 44.6181 48.7581 44.6181 48.4603V47.4705C47.0307 47.3114 48.0028 45.8444 48.0028 44.289C48.0028 42.2034 46.2531 41.5671 44.6181 41.1252ZM43.5046 40.8424C42.5414 40.5596 41.7902 40.268 41.7902 39.4461C41.7902 38.6243 42.4707 38.0322 43.5046 37.9526V40.8424ZM44.6181 46.1095V42.8927C45.6168 43.1755 46.3944 43.5555 46.3856 44.4834C46.3856 45.1551 45.9261 45.9504 44.6181 46.1095Z" fill="#434C67"/>
</g>
<defs>
<clipPath id="clip0_212_1544">
<rect width="14" height="14" fill="white" transform="translate(37 35)"/>
</clipPath>
</defs>
</svg>
