<svg width="195" height="164" viewBox="0 0 195 164" fill="none" xmlns="http://www.w3.org/2000/svg">
<rect width="195" height="164" rx="20" fill="#E5E6FB"/>
<rect x="26" y="66" width="143" height="72" rx="9" fill="white" stroke="#434C67" stroke-width="2"/>
<path d="M156.908 87.877C156.856 87.877 156.856 87.8237 156.804 87.7704C156.752 87.7171 156.752 87.6638 156.699 87.6104L147.716 77.3199C147.663 77.2666 147.559 77.2133 147.507 77.16C147.455 77.16 147.455 77.1066 147.402 77.1066C147.298 77.0533 147.141 77 146.984 77H124.943C121.705 77 119.041 79.7193 119.041 83.025V119.975C119.041 123.281 121.705 126 124.943 126H151.058C154.297 126 156.96 123.281 156.96 119.975V88.2503C156.96 88.1436 156.908 87.9837 156.908 87.877ZM147.977 80.6257L153.774 87.2905H147.977V80.6257ZM154.976 119.922C154.976 122.161 153.252 123.974 151.058 123.974H124.943C122.749 123.974 121.026 122.161 121.026 119.975V82.9717C121.026 80.7323 122.802 78.9728 124.943 78.9728H145.992V88.2503C145.992 88.7835 146.41 89.2633 146.984 89.2633H154.976V119.922Z" fill="#434C67"/>
<path d="M126.092 89.2634H134.815C135.337 89.2634 135.807 88.8369 135.807 88.2504C135.807 87.6639 135.389 87.2373 134.815 87.2373H126.092C125.57 87.2373 125.1 87.6639 125.1 88.2504C125.1 88.8369 125.57 89.2634 126.092 89.2634Z" fill="#434C67"/>
<path d="M134.815 113.737H126.092C125.57 113.737 125.1 114.163 125.1 114.75C125.1 115.283 125.518 115.763 126.092 115.763H134.815C135.337 115.763 135.807 115.336 135.807 114.75C135.807 114.216 135.337 113.737 134.815 113.737Z" fill="#434C67"/>
<path d="M125.1 94.9684C125.1 95.5016 125.518 95.9814 126.092 95.9814H149.387C149.909 95.9814 150.379 95.5549 150.379 94.9684C150.379 94.4352 149.962 93.9553 149.387 93.9553H126.092C125.57 93.9553 125.1 94.3819 125.1 94.9684Z" fill="#434C67"/>
<path d="M149.387 98.9673H126.092C125.57 98.9673 125.1 99.3938 125.1 99.9803C125.1 100.514 125.518 100.993 126.092 100.993H149.387C149.909 100.993 150.379 100.567 150.379 99.9803C150.379 99.3938 149.962 98.9673 149.387 98.9673Z" fill="#434C67"/>
<path d="M149.387 103.926H126.092C125.57 103.926 125.1 104.353 125.1 104.939C125.1 105.472 125.518 105.952 126.092 105.952H149.387C149.909 105.952 150.379 105.526 150.379 104.939C150.379 104.353 149.962 103.926 149.387 103.926Z" fill="#434C67"/>
<path d="M149.387 108.885H126.092C125.57 108.885 125.1 109.311 125.1 109.898C125.1 110.431 125.518 110.911 126.092 110.911H149.387C149.909 110.911 150.379 110.484 150.379 109.898C150.379 109.365 149.962 108.885 149.387 108.885Z" fill="#434C67"/>
<rect x="37.5" y="77.5" width="13" height="13" rx="2.5" fill="white" stroke="#434C67"/>
<g clip-path="url(#clip0_212_1601)">
<path d="M47.3373 81.644C47.1208 81.4272 46.7691 81.4273 46.5522 81.644L43.0185 85.1779L41.4479 83.6073C41.2311 83.3904 40.8795 83.3904 40.6627 83.6073C40.4458 83.8242 40.4458 84.1757 40.6627 84.3926L42.6258 86.3557C42.7342 86.4641 42.8762 86.5184 43.0184 86.5184C43.1605 86.5184 43.3027 86.4642 43.4111 86.3557L47.3373 82.4293C47.5542 82.2126 47.5542 81.8609 47.3373 81.644Z" fill="#4E43DF"/>
</g>
<rect x="37.5" y="95.5" width="13" height="13" rx="2.5" fill="white" stroke="#434C67"/>
<g clip-path="url(#clip1_212_1601)">
<path d="M47.3373 99.644C47.1208 99.4272 46.7691 99.4273 46.5522 99.644L43.0185 103.178L41.4479 101.607C41.2311 101.39 40.8795 101.39 40.6627 101.607C40.4458 101.824 40.4458 102.176 40.6627 102.393L42.6258 104.356C42.7342 104.464 42.8762 104.518 43.0184 104.518C43.1605 104.518 43.3027 104.464 43.4111 104.356L47.3373 100.429C47.5542 100.213 47.5542 99.8609 47.3373 99.644Z" fill="#4E43DF"/>
</g>
<rect x="37.5" y="113.5" width="13" height="13" rx="2.5" fill="white" stroke="#434C67"/>
<g clip-path="url(#clip2_212_1601)">
<path d="M47.3373 117.644C47.1208 117.427 46.7691 117.427 46.5522 117.644L43.0185 121.178L41.4479 119.607C41.2311 119.39 40.8795 119.39 40.6627 119.607C40.4458 119.824 40.4458 120.176 40.6627 120.393L42.6258 122.356C42.7342 122.464 42.8762 122.518 43.0184 122.518C43.1605 122.518 43.3027 122.464 43.4111 122.356L47.3373 118.429C47.5542 118.213 47.5542 117.861 47.3373 117.644Z" fill="#4E43DF"/>
</g>
<rect x="55" y="78" width="55" height="12" rx="6" fill="#E5E6FB"/>
<rect x="55" y="96" width="55" height="12" rx="6" fill="#E5E6FB"/>
<rect x="55" y="114" width="55" height="12" rx="6" fill="#E5E6FB"/>
<rect x="26" y="26" width="143" height="32" rx="7" fill="white" stroke="#434C67" stroke-width="2"/>
<rect x="55" y="36" width="32" height="12" rx="6" fill="#E5E6FB"/>
<rect x="66" y="36" width="56" height="12" rx="6" fill="#E5E6FB"/>
<rect x="125" y="36" width="32" height="12" rx="6" fill="#E5E6FB"/>
<path d="M49.3594 36.8594H38.6406C37.736 36.8594 37 37.5954 37 38.5V45.5C37 46.4046 37.736 47.1406 38.6406 47.1406H49.3594C50.264 47.1406 51 46.4046 51 45.5V38.5C51 37.5954 50.264 36.8594 49.3594 36.8594ZM49.9062 45.5C49.9062 45.8015 49.6609 46.0469 49.3594 46.0469H38.6406C38.3391 46.0469 38.0938 45.8015 38.0938 45.5V38.5C38.0938 38.1985 38.3391 37.9531 38.6406 37.9531H49.3594C49.6609 37.9531 49.9062 38.1985 49.9062 38.5V45.5Z" fill="#434C67"/>
<path d="M49.8128 37.5413L43.9994 41.8653L38.186 37.5413L37.5332 38.4189L43.9994 43.2285L50.4656 38.4189L49.8128 37.5413Z" fill="#434C67"/>
<defs>
<clipPath id="clip0_212_1601">
<rect width="7" height="7" fill="white" transform="translate(40.5 80.5)"/>
</clipPath>
<clipPath id="clip1_212_1601">
<rect width="7" height="7" fill="white" transform="translate(40.5 98.5)"/>
</clipPath>
<clipPath id="clip2_212_1601">
<rect width="7" height="7" fill="white" transform="translate(40.5 116.5)"/>
</clipPath>
</defs>
</svg>
