<svg width="195" height="164" viewBox="0 0 195 164" fill="none" xmlns="http://www.w3.org/2000/svg">
<rect width="195" height="164" rx="20" fill="#E5E6FB"/>
<rect x="26" y="66" width="143" height="72" rx="9" fill="white" stroke="#434C67" stroke-width="2"/>
<rect x="26" y="26" width="143" height="32" rx="7" fill="white" stroke="#434C67" stroke-width="2"/>
<rect x="57" y="36" width="101" height="12" rx="6" fill="#E5E6FB"/>
<rect x="57" y="114" width="101" height="12" rx="6" fill="#E5E6FB"/>
<rect x="37.75" y="77.75" width="119.5" height="28.5" rx="3.25" stroke="#434C67" stroke-width="1.5" stroke-linecap="round" stroke-dasharray="6 6"/>
<rect x="37.5" y="113.5" width="13" height="13" rx="2.5" fill="white" stroke="#434C67"/>
<g clip-path="url(#clip0_212_1572)">
<path d="M47.3373 117.644C47.1208 117.427 46.7691 117.427 46.5522 117.644L43.0185 121.178L41.4479 119.607C41.2311 119.39 40.8795 119.39 40.6627 119.607C40.4458 119.824 40.4458 120.176 40.6627 120.393L42.6258 122.356C42.7342 122.464 42.8762 122.518 43.0184 122.518C43.1605 122.518 43.3027 122.464 43.4111 122.356L47.3373 118.429C47.5542 118.213 47.5542 117.861 47.3373 117.644Z" fill="#4E43DF"/>
</g>
<g clip-path="url(#clip1_212_1572)">
<path d="M44.0007 35.5833C42.7316 35.5833 41.491 35.9596 40.4357 36.6647C39.3805 37.3697 38.5581 38.3719 38.0724 39.5444C37.5868 40.7169 37.4597 42.007 37.7073 43.2517C37.9549 44.4965 38.566 45.6398 39.4634 46.5372C40.3608 47.4346 41.5041 48.0457 42.7488 48.2933C43.9935 48.5409 45.2837 48.4138 46.4562 47.9281C47.6287 47.4425 48.6308 46.62 49.3359 45.5648C50.041 44.5096 50.4173 43.269 50.4173 41.9999C50.4153 40.2987 49.7386 38.6678 48.5357 37.4649C47.3328 36.2619 45.7018 35.5853 44.0007 35.5833ZM44.0007 47.2499C42.9623 47.2499 41.9473 46.942 41.0839 46.3651C40.2206 45.7883 39.5476 44.9683 39.1503 44.009C38.7529 43.0497 38.649 41.9941 38.8515 40.9757C39.0541 39.9573 39.5541 39.0218 40.2883 38.2876C41.0226 37.5534 41.958 37.0534 42.9764 36.8508C43.9948 36.6482 45.0504 36.7522 46.0097 37.1496C46.9691 37.5469 47.789 38.2198 48.3659 39.0832C48.9427 39.9465 49.2507 40.9616 49.2507 41.9999C49.249 43.3918 48.6953 44.7262 47.7111 45.7104C46.7269 46.6946 45.3925 47.2482 44.0007 47.2499Z" fill="#434C67"/>
<path d="M44.5827 41.7586V38.5001C44.5827 38.3454 44.5212 38.197 44.4118 38.0876C44.3024 37.9782 44.1541 37.9167 43.9993 37.9167C43.8446 37.9167 43.6963 37.9782 43.5869 38.0876C43.4775 38.197 43.416 38.3454 43.416 38.5001V42.0001C43.416 42.1548 43.4775 42.3031 43.5869 42.4125L45.3369 44.1625C45.447 44.2688 45.5943 44.3276 45.7472 44.3262C45.9002 44.3249 46.0465 44.2635 46.1547 44.1554C46.2628 44.0472 46.3242 43.9009 46.3255 43.748C46.3268 43.595 46.268 43.4477 46.1618 43.3377L44.5827 41.7586Z" fill="#434C67"/>
</g>
<rect x="43" y="83" width="34" height="18" rx="2" fill="#E5E6FB"/>
<rect x="118" y="83" width="34" height="18" rx="2" fill="#E5E6FB"/>
<rect x="81" y="83" width="33" height="18" rx="2" fill="#E5E6FB"/>
<defs>
<clipPath id="clip0_212_1572">
<rect width="7" height="7" fill="white" transform="translate(40.5 116.5)"/>
</clipPath>
<clipPath id="clip1_212_1572">
<rect width="14" height="14" fill="white" transform="translate(37 35)"/>
</clipPath>
</defs>
</svg>
