<svg width="195" height="164" viewBox="0 0 195 164" fill="none" xmlns="http://www.w3.org/2000/svg">
<rect width="195" height="164" rx="20" fill="#E5E6FB"/>
<rect x="26" y="66" width="143" height="72" rx="9" fill="white" stroke="#434C67" stroke-width="2"/>
<rect x="26" y="26" width="143" height="32" rx="7" fill="white" stroke="#434C67" stroke-width="2"/>
<rect x="57" y="36" width="101" height="12" rx="6" fill="#E5E6FB"/>
<rect x="37" y="118" width="36" height="11" rx="5.5" fill="#E5E6FB"/>
<rect x="80" y="118" width="36" height="11" rx="5.5" fill="#E5E6FB"/>
<rect x="122" y="118" width="36" height="11" rx="5.5" fill="#E5E6FB"/>
<rect x="37.75" y="77.75" width="34.5" height="34.5" rx="5.25" stroke="#434C67" stroke-width="1.5"/>
<rect x="80.75" y="77.75" width="33.5" height="34.5" rx="5.25" stroke="#434C67" stroke-width="1.5"/>
<rect x="122.75" y="77.75" width="34.5" height="34.5" rx="5.25" stroke="#434C67" stroke-width="1.5"/>
<path d="M55 95.7C55.6922 95.7 56.3689 95.4947 56.9445 95.1101C57.5201 94.7255 57.9687 94.1789 58.2336 93.5393C58.4985 92.8998 58.5678 92.1961 58.4327 91.5171C58.2977 90.8382 57.9644 90.2146 57.4749 89.7251C56.9854 89.2356 56.3617 88.9023 55.6828 88.7672C55.0039 88.6322 54.3001 88.7015 53.6606 88.9664C53.0211 89.2313 52.4744 89.6799 52.0899 90.2555C51.7053 90.831 51.5 91.5077 51.5 92.2C51.5011 93.1279 51.8702 94.0175 52.5264 94.6736C53.1825 95.3297 54.0721 95.6988 55 95.7ZM55 90.1C55.4153 90.1 55.8214 90.2231 56.1667 90.4539C56.512 90.6846 56.7812 91.0126 56.9401 91.3963C57.0991 91.78 57.1407 92.2023 57.0596 92.6096C56.9786 93.017 56.7786 93.3912 56.4849 93.6849C56.1912 93.9786 55.8171 94.1786 55.4097 94.2596C55.0023 94.3406 54.5801 94.299 54.1964 94.1401C53.8126 93.9812 53.4847 93.712 53.2539 93.3667C53.0232 93.0213 52.9 92.6153 52.9 92.2C52.9 91.643 53.1212 91.1089 53.5151 90.715C53.9089 90.3212 54.443 90.1 55 90.1Z" fill="#434C67"/>
<path d="M58.1504 96.3999H51.8504C51.2006 96.3999 50.5774 96.658 50.118 97.1175C49.6585 97.577 49.4004 98.2001 49.4004 98.8499C49.4004 99.4997 49.6585 100.123 50.118 100.582C50.5774 101.042 51.2006 101.3 51.8504 101.3H58.1504C58.8002 101.3 59.4233 101.042 59.8828 100.582C60.3423 100.123 60.6004 99.4997 60.6004 98.8499C60.6004 98.2001 60.3423 97.577 59.8828 97.1175C59.4233 96.658 58.8002 96.3999 58.1504 96.3999ZM58.1504 99.8999H51.8504C51.5719 99.8999 51.3048 99.7893 51.1079 99.5924C50.911 99.3955 50.8004 99.1284 50.8004 98.8499C50.8004 98.5714 50.911 98.3044 51.1079 98.1074C51.3048 97.9105 51.5719 97.7999 51.8504 97.7999H58.1504C58.4289 97.7999 58.6959 97.9105 58.8929 98.1074C59.0898 98.3044 59.2004 98.5714 59.2004 98.8499C59.2004 99.1284 59.0898 99.3955 58.8929 99.5924C58.6959 99.7893 58.4289 99.8999 58.1504 99.8999Z" fill="#434C67"/>
<path d="M97 95.7C97.6922 95.7 98.3689 95.4947 98.9445 95.1101C99.5201 94.7255 99.9687 94.1789 100.234 93.5393C100.498 92.8998 100.568 92.1961 100.433 91.5171C100.298 90.8382 99.9644 90.2146 99.4749 89.7251C98.9854 89.2356 98.3617 88.9023 97.6828 88.7672C97.0039 88.6322 96.3001 88.7015 95.6606 88.9664C95.0211 89.2313 94.4744 89.6799 94.0899 90.2555C93.7053 90.831 93.5 91.5077 93.5 92.2C93.5011 93.1279 93.8702 94.0175 94.5264 94.6736C95.1825 95.3297 96.0721 95.6988 97 95.7ZM97 90.1C97.4153 90.1 97.8214 90.2231 98.1667 90.4539C98.512 90.6846 98.7812 91.0126 98.9401 91.3963C99.0991 91.78 99.1407 92.2023 99.0596 92.6096C98.9786 93.017 98.7786 93.3912 98.4849 93.6849C98.1912 93.9786 97.8171 94.1786 97.4097 94.2596C97.0023 94.3406 96.5801 94.299 96.1964 94.1401C95.8126 93.9812 95.4847 93.712 95.2539 93.3667C95.0232 93.0213 94.9 92.6153 94.9 92.2C94.9 91.643 95.1212 91.1089 95.5151 90.715C95.9089 90.3212 96.443 90.1 97 90.1Z" fill="#434C67"/>
<path d="M100.15 96.3999H93.8504C93.2006 96.3999 92.5774 96.658 92.118 97.1175C91.6585 97.577 91.4004 98.2001 91.4004 98.8499C91.4004 99.4997 91.6585 100.123 92.118 100.582C92.5774 101.042 93.2006 101.3 93.8504 101.3H100.15C100.8 101.3 101.423 101.042 101.883 100.582C102.342 100.123 102.6 99.4997 102.6 98.8499C102.6 98.2001 102.342 97.577 101.883 97.1175C101.423 96.658 100.8 96.3999 100.15 96.3999ZM100.15 99.8999H93.8504C93.5719 99.8999 93.3048 99.7893 93.1079 99.5924C92.911 99.3955 92.8004 99.1284 92.8004 98.8499C92.8004 98.5714 92.911 98.3044 93.1079 98.1074C93.3048 97.9105 93.5719 97.7999 93.8504 97.7999H100.15C100.429 97.7999 100.696 97.9105 100.893 98.1074C101.09 98.3044 101.2 98.5714 101.2 98.8499C101.2 99.1284 101.09 99.3955 100.893 99.5924C100.696 99.7893 100.429 99.8999 100.15 99.8999Z" fill="#434C67"/>
<path d="M140 95.7C140.692 95.7 141.369 95.4947 141.944 95.1101C142.52 94.7255 142.969 94.1789 143.234 93.5393C143.498 92.8998 143.568 92.1961 143.433 91.5171C143.298 90.8382 142.964 90.2146 142.475 89.7251C141.985 89.2356 141.362 88.9023 140.683 88.7672C140.004 88.6322 139.3 88.7015 138.661 88.9664C138.021 89.2313 137.474 89.6799 137.09 90.2555C136.705 90.831 136.5 91.5077 136.5 92.2C136.501 93.1279 136.87 94.0175 137.526 94.6736C138.182 95.3297 139.072 95.6988 140 95.7ZM140 90.1C140.415 90.1 140.821 90.2231 141.167 90.4539C141.512 90.6846 141.781 91.0126 141.94 91.3963C142.099 91.78 142.141 92.2023 142.06 92.6096C141.979 93.017 141.779 93.3912 141.485 93.6849C141.191 93.9786 140.817 94.1786 140.41 94.2596C140.002 94.3406 139.58 94.299 139.196 94.1401C138.813 93.9812 138.485 93.712 138.254 93.3667C138.023 93.0213 137.9 92.6153 137.9 92.2C137.9 91.643 138.121 91.1089 138.515 90.715C138.909 90.3212 139.443 90.1 140 90.1Z" fill="#434C67"/>
<path d="M143.15 96.3999H136.85C136.201 96.3999 135.577 96.658 135.118 97.1175C134.659 97.577 134.4 98.2001 134.4 98.8499C134.4 99.4997 134.659 100.123 135.118 100.582C135.577 101.042 136.201 101.3 136.85 101.3H143.15C143.8 101.3 144.423 101.042 144.883 100.582C145.342 100.123 145.6 99.4997 145.6 98.8499C145.6 98.2001 145.342 97.577 144.883 97.1175C144.423 96.658 143.8 96.3999 143.15 96.3999ZM143.15 99.8999H136.85C136.572 99.8999 136.305 99.7893 136.108 99.5924C135.911 99.3955 135.8 99.1284 135.8 98.8499C135.8 98.5714 135.911 98.3044 136.108 98.1074C136.305 97.9105 136.572 97.7999 136.85 97.7999H143.15C143.429 97.7999 143.696 97.9105 143.893 98.1074C144.09 98.3044 144.2 98.5714 144.2 98.8499C144.2 99.1284 144.09 99.3955 143.893 99.5924C143.696 99.7893 143.429 99.8999 143.15 99.8999Z" fill="#434C67"/>
<g clip-path="url(#clip0_212_1507)">
<path d="M50.2673 44.5549L48.8588 43.401C47.9411 42.6492 46.5167 42.7204 45.6796 43.5574L45.6237 43.6134C45.4833 43.7537 45.2547 43.7526 45.1163 43.6142L42.3949 40.8928C42.2575 40.7555 42.2548 40.5345 42.3872 40.3942C42.3896 40.3916 42.3921 40.3891 42.3946 40.3866L42.3871 40.3941C42.3896 40.3916 42.392 40.3891 42.3945 40.3866C43.227 39.5461 43.3067 38.1151 42.5774 37.1931L41.435 35.7489C40.7008 34.8206 39.4246 34.7488 38.5876 35.5859L38.3777 35.7957C36.891 37.2824 36.5407 39.962 37.6559 41.7436C37.6559 41.7436 38.3123 43.266 40.5277 45.4814C42.7431 47.6968 44.2655 48.3533 44.2655 48.3533C46.0638 49.4413 48.7258 49.119 50.2122 47.6327L50.4121 47.4328C51.2497 46.5952 51.1843 45.3062 50.2673 44.5549ZM49.4001 46.4209L49.2002 46.6207C48.1798 47.6412 46.2413 47.876 45.0063 47.1289L44.9223 47.078L44.8322 47.0391C44.7215 46.9914 44.444 46.841 44.0246 46.5596C43.2796 46.0599 42.443 45.3729 41.5396 44.4695C40.6363 43.5662 39.9492 42.7296 39.4495 41.9846C39.1682 41.5651 39.0177 41.2877 38.97 41.177L38.9268 41.0768L38.8689 40.9843C38.1181 39.7848 38.3602 37.8372 39.3897 36.8077L39.5995 36.5978C39.8322 36.3652 40.1104 36.381 40.3127 36.6368L41.4551 38.081C41.7367 38.4371 41.7003 39.0571 41.3752 39.3822C40.6837 40.0818 40.6871 41.2089 41.383 41.9048L44.1044 44.6262C44.802 45.3238 45.9368 45.3242 46.6357 44.6254L46.6916 44.5694C47.0089 44.2521 47.6037 44.2228 47.9519 44.5081L49.3604 45.662C49.6233 45.8774 49.6387 46.1823 49.4001 46.4209Z" fill="#434C67"/>
</g>
<defs>
<clipPath id="clip0_212_1507">
<rect width="14" height="14" fill="white" transform="translate(37 35)"/>
</clipPath>
</defs>
</svg>
