<svg width="88" height="16" viewBox="0 0 88 16" fill="none" xmlns="http://www.w3.org/2000/svg">
<path d="M7.36824 1.32396C7.6218 0.792571 8.3782 0.792571 8.63176 1.32396L10.1405 4.48577C10.2425 4.69962 10.4459 4.84734 10.6808 4.8783L14.1541 5.33615C14.7378 5.4131 14.9715 6.13247 14.5445 6.53783L12.0037 8.94978C11.8318 9.11292 11.7542 9.35192 11.7973 9.58492L12.4352 13.0297C12.5424 13.6086 11.9305 14.0532 11.413 13.7724L8.33391 12.1012C8.12565 11.9882 7.87435 11.9882 7.66609 12.1012L4.58703 13.7724C4.06955 14.0532 3.45761 13.6086 3.56482 13.0297L4.20268 9.58492C4.24583 9.35192 4.16817 9.11292 3.99632 8.94978L1.45548 6.53783C1.02846 6.13247 1.2622 5.4131 1.84593 5.33615L5.31922 4.8783C5.55414 4.84734 5.75745 4.69962 5.8595 4.48577L7.36824 1.32396Z" fill="#F89E1F"/>
<path d="M25.3682 1.32396C25.6218 0.792571 26.3782 0.792571 26.6318 1.32396L28.1405 4.48577C28.2425 4.69962 28.4459 4.84734 28.6808 4.8783L32.1541 5.33615C32.7378 5.4131 32.9715 6.13247 32.5445 6.53783L30.0037 8.94978C29.8318 9.11292 29.7542 9.35192 29.7973 9.58492L30.4352 13.0297C30.5424 13.6086 29.9305 14.0532 29.413 13.7724L26.3339 12.1012C26.1257 11.9882 25.8743 11.9882 25.6661 12.1012L22.587 13.7724C22.0695 14.0532 21.4576 13.6086 21.5648 13.0297L22.2027 9.58492C22.2458 9.35192 22.1682 9.11292 21.9963 8.94978L19.4555 6.53783C19.0285 6.13247 19.2622 5.4131 19.8459 5.33615L23.3192 4.8783C23.5541 4.84734 23.7575 4.69962 23.8595 4.48577L25.3682 1.32396Z" fill="#F89E1F"/>
<path d="M43.3682 1.32396C43.6218 0.792571 44.3782 0.792571 44.6318 1.32396L46.1405 4.48577C46.2425 4.69962 46.4459 4.84734 46.6808 4.8783L50.1541 5.33615C50.7378 5.4131 50.9715 6.13247 50.5445 6.53783L48.0037 8.94978C47.8318 9.11292 47.7542 9.35192 47.7973 9.58492L48.4352 13.0297C48.5424 13.6086 47.9305 14.0532 47.413 13.7724L44.3339 12.1012C44.1257 11.9882 43.8743 11.9882 43.6661 12.1012L40.587 13.7724C40.0695 14.0532 39.4576 13.6086 39.5648 13.0297L40.2027 9.58492C40.2458 9.35192 40.1682 9.11292 39.9963 8.94978L37.4555 6.53783C37.0285 6.13247 37.2622 5.4131 37.8459 5.33615L41.3192 4.8783C41.5541 4.84734 41.7575 4.69962 41.8595 4.48577L43.3682 1.32396Z" fill="#F89E1F"/>
<path d="M61.3682 1.32396C61.6218 0.792571 62.3782 0.792571 62.6318 1.32396L64.1405 4.48577C64.2425 4.69962 64.4459 4.84734 64.6808 4.8783L68.1541 5.33615C68.7378 5.4131 68.9715 6.13247 68.5445 6.53783L66.0037 8.94978C65.8318 9.11292 65.7542 9.35192 65.7973 9.58492L66.4352 13.0297C66.5424 13.6086 65.9305 14.0532 65.413 13.7724L62.3339 12.1012C62.1257 11.9882 61.8743 11.9882 61.6661 12.1012L58.587 13.7724C58.0695 14.0532 57.4576 13.6086 57.5648 13.0297L58.2027 9.58492C58.2458 9.35192 58.1682 9.11292 57.9963 8.94978L55.4555 6.53783C55.0285 6.13247 55.2622 5.4131 55.8459 5.33615L59.3192 4.8783C59.5541 4.84734 59.7575 4.69962 59.8595 4.48577L61.3682 1.32396Z" fill="#F89E1F"/>
<path d="M79.3682 1.32396C79.6218 0.792571 80.3782 0.792571 80.6318 1.32396L82.1405 4.48577C82.2425 4.69962 82.4459 4.84734 82.6808 4.8783L86.1541 5.33615C86.7378 5.4131 86.9715 6.13247 86.5445 6.53783L84.0037 8.94978C83.8318 9.11292 83.7542 9.35192 83.7973 9.58492L84.4352 13.0297C84.5424 13.6086 83.9305 14.0532 83.413 13.7724L80.3339 12.1012C80.1257 11.9882 79.8743 11.9882 79.6661 12.1012L76.587 13.7724C76.0695 14.0532 75.4576 13.6086 75.5648 13.0297L76.2027 9.58492C76.2458 9.35192 76.1682 9.11292 75.9963 8.94978L73.4555 6.53783C73.0285 6.13247 73.2622 5.4131 73.8459 5.33615L77.3192 4.8783C77.5541 4.84734 77.7575 4.69962 77.8595 4.48577L79.3682 1.32396Z" fill="#F89E1F"/>
</svg>
