<svg width="279" height="320" viewBox="0 0 279 320" fill="none" xmlns="http://www.w3.org/2000/svg">
<rect x="2.58496" y="2.71436" width="274" height="315" rx="18" fill="#E5E6FB" stroke="#4E43DF" stroke-width="4"/>
<circle cx="54.5254" cy="54.1631" r="23" fill="#4E43DF"/>
<path d="M51.5734 60.3431C50.5654 60.3431 49.6654 60.0911 48.8734 59.5871C48.0814 59.0711 47.4574 58.3271 47.0014 57.3551C46.5454 56.3711 46.3174 55.2071 46.3174 53.8631C46.3174 52.5191 46.5454 51.3611 47.0014 50.3891C47.4574 49.4051 48.0814 48.6611 48.8734 48.1571C49.6654 47.6411 50.5654 47.3831 51.5734 47.3831C52.5814 47.3831 53.4814 47.6411 54.2734 48.1571C55.0774 48.6611 55.7074 49.4051 56.1634 50.3891C56.6194 51.3611 56.8474 52.5191 56.8474 53.8631C56.8474 55.2071 56.6194 56.3711 56.1634 57.3551C55.7074 58.3271 55.0774 59.0711 54.2734 59.5871C53.4814 60.0911 52.5814 60.3431 51.5734 60.3431ZM51.5734 58.3091C52.4734 58.3091 53.1814 57.9371 53.6974 57.1931C54.2254 56.4491 54.4894 55.3391 54.4894 53.8631C54.4894 52.3871 54.2254 51.2771 53.6974 50.5331C53.1814 49.7891 52.4734 49.4171 51.5734 49.4171C50.6854 49.4171 49.9774 49.7891 49.4494 50.5331C48.9334 51.2771 48.6754 52.3871 48.6754 53.8631C48.6754 55.3391 48.9334 56.4491 49.4494 57.1931C49.9774 57.9371 50.6854 58.3091 51.5734 58.3091ZM62.6968 47.5631V60.1631H60.3568V49.5251H57.6928V47.5631H62.6968Z" fill="white"/>
<path d="M97.433 51.9151C95.225 51.4351 94.385 51.1951 94.385 50.2111C94.385 49.1311 95.249 48.2671 97.289 48.2671C99.353 48.2671 100.193 49.1071 100.553 50.2831H104.033C103.649 47.4991 101.777 45.0751 97.265 45.0751C94.073 45.0751 90.929 46.8271 90.929 50.3551C90.929 53.6671 93.617 54.6511 96.617 55.2751C99.569 55.9231 100.745 56.0911 100.745 57.3391C100.745 58.5391 99.737 59.2591 97.793 59.2591C95.417 59.2591 94.409 58.4191 93.953 56.7631H90.497C90.881 59.6671 92.897 62.4511 97.817 62.4511C100.649 62.4511 104.201 61.1071 104.201 57.1951C104.201 53.8591 101.921 52.8751 97.433 51.9151ZM114.197 48.6751C112.349 48.6751 110.933 49.5391 110.021 50.8111V48.9631H106.589V68.1631H110.021V60.3871C110.957 61.6351 112.325 62.4511 114.197 62.4511C117.629 62.4511 120.221 59.6191 120.221 55.5631C120.221 51.4831 117.581 48.6751 114.197 48.6751ZM113.405 59.1871C111.485 59.1871 110.021 57.7471 110.021 55.5631C110.021 53.4031 111.485 51.9391 113.405 51.9391C115.325 51.9391 116.741 53.4031 116.741 55.5631C116.741 57.7471 115.301 59.1871 113.405 59.1871ZM129.193 48.6751C125.161 48.6751 122.305 51.6271 122.305 55.5871C122.305 59.5231 125.137 62.4511 129.265 62.4511C132.097 62.4511 134.737 61.0831 135.721 57.9631H132.169C131.713 59.0191 130.561 59.6191 129.241 59.6191C127.465 59.6191 126.025 58.5631 125.809 56.4511H135.937C136.273 52.1071 133.561 48.6751 129.193 48.6751ZM129.169 51.5071C130.825 51.5071 131.905 52.4911 132.289 53.9311H125.977C126.409 52.5151 127.489 51.5071 129.169 51.5071ZM144.825 62.4511C147.993 62.4511 150.897 60.6031 151.425 57.1231H147.897C147.489 58.5631 146.241 59.2831 144.825 59.2831C142.809 59.2831 141.417 57.7711 141.441 55.5631C141.417 53.3791 142.761 51.8431 144.849 51.8431C146.241 51.8431 147.489 52.5391 147.897 53.9791H151.425C150.921 50.6191 148.065 48.6751 144.849 48.6751C140.865 48.6751 137.961 51.6511 137.961 55.5631C137.961 59.4751 140.865 62.4511 144.825 62.4511ZM155.329 42.8671C154.129 42.8671 153.193 43.7071 153.193 44.8831C153.193 46.0591 154.129 46.9231 155.329 46.9231C156.577 46.9231 157.465 46.0591 157.465 44.8831C157.465 43.7071 156.577 42.8671 155.329 42.8671ZM153.601 62.1631H157.033V48.9631H153.601V62.1631ZM167.061 46.3951C167.565 46.3951 168.141 46.4911 168.717 46.6591L169.173 46.7791L169.797 43.9951C168.957 43.6111 167.709 43.3951 166.677 43.3951C163.941 43.3951 161.301 44.9791 161.301 48.7471V48.9631H158.949V52.2031H161.301V62.1631H164.733V52.2031H169.125V48.9631H164.733V48.9151C164.733 47.2111 165.501 46.3951 167.061 46.3951ZM180.844 48.9631L177.556 56.6911L174.292 48.9631H170.644L175.732 60.4111L172.276 68.1631H175.924L184.516 48.9631H180.844Z" fill="#4E43DF"/>
<rect x="30.585" y="96.7144" width="218" height="20" rx="10" fill="white"/>
<rect x="30.585" y="124.714" width="218" height="20" rx="10" fill="white"/>
<rect x="31.085" y="209.214" width="90" height="19" rx="9.5" fill="white" stroke="#4E43DF"/>
<rect x="30.585" y="152.714" width="153" height="20" rx="10" fill="white"/>
<rect x="30.585" y="180.714" width="153" height="20" rx="10" fill="white"/>
</svg>
