<svg width="279" height="320" viewBox="0 0 279 320" fill="none" xmlns="http://www.w3.org/2000/svg">
<rect x="2.8457" y="2.79297" width="274" height="315" rx="18" fill="#E5E6FB" stroke="#4E43DF" stroke-width="4"/>
<circle cx="53.8457" cy="53.793" r="23" fill="#4E43DF"/>
<path d="M47.8937 60.973C46.8857 60.973 45.9857 60.721 45.1937 60.217C44.4017 59.701 43.7777 58.957 43.3217 57.985C42.8657 57.001 42.6377 55.837 42.6377 54.493C42.6377 53.149 42.8657 51.991 43.3217 51.019C43.7777 50.035 44.4017 49.291 45.1937 48.787C45.9857 48.271 46.8857 48.013 47.8937 48.013C48.9017 48.013 49.8017 48.271 50.5937 48.787C51.3977 49.291 52.0277 50.035 52.4837 51.019C52.9397 51.991 53.1677 53.149 53.1677 54.493C53.1677 55.837 52.9397 57.001 52.4837 57.985C52.0277 58.957 51.3977 59.701 50.5937 60.217C49.8017 60.721 48.9017 60.973 47.8937 60.973ZM47.8937 58.939C48.7937 58.939 49.5017 58.567 50.0177 57.823C50.5457 57.079 50.8097 55.969 50.8097 54.493C50.8097 53.017 50.5457 51.907 50.0177 51.163C49.5017 50.419 48.7937 50.047 47.8937 50.047C47.0057 50.047 46.2977 50.419 45.7697 51.163C45.2537 51.907 44.9957 53.017 44.9957 54.493C44.9957 55.969 45.2537 57.079 45.7697 57.823C46.2977 58.567 47.0057 58.939 47.8937 58.939ZM59.9373 53.395C61.1013 53.539 61.9893 53.935 62.6013 54.583C63.2133 55.231 63.5193 56.041 63.5193 57.013C63.5193 57.745 63.3333 58.411 62.9613 59.011C62.5893 59.611 62.0253 60.091 61.2693 60.451C60.5253 60.799 59.6133 60.973 58.5332 60.973C57.6333 60.973 56.7633 60.847 55.9233 60.595C55.0953 60.331 54.3873 59.971 53.7993 59.515L54.8073 57.697C55.2633 58.081 55.8153 58.387 56.4633 58.615C57.1233 58.831 57.8013 58.939 58.4973 58.939C59.3253 58.939 59.9733 58.771 60.4413 58.435C60.9213 58.087 61.1613 57.619 61.1613 57.031C61.1613 56.443 60.9333 55.987 60.4773 55.663C60.0333 55.327 59.3493 55.159 58.4253 55.159H57.2733V53.557L60.1353 50.155H54.4113V48.193H62.9973V49.759L59.9373 53.395Z" fill="white"/>
<path d="M102.79 61.793H106.438L100.15 44.993H95.8057L89.5177 61.793H93.1417L94.5817 57.833H101.374L102.79 61.793ZM95.7577 54.569L97.9657 48.473L100.174 54.569H95.7577ZM116.106 48.305C114.258 48.305 112.842 49.169 111.93 50.441V48.593H108.498V67.793H111.93V60.017C112.866 61.265 114.234 62.081 116.106 62.081C119.538 62.081 122.13 59.249 122.13 55.193C122.13 51.113 119.49 48.305 116.106 48.305ZM115.314 58.817C113.394 58.817 111.93 57.377 111.93 55.193C111.93 53.033 113.394 51.569 115.314 51.569C117.234 51.569 118.65 53.033 118.65 55.193C118.65 57.377 117.21 58.817 115.314 58.817ZM132.254 48.305C130.406 48.305 128.99 49.169 128.078 50.441V48.593H124.646V67.793H128.078V60.017C129.014 61.265 130.382 62.081 132.254 62.081C135.686 62.081 138.278 59.249 138.278 55.193C138.278 51.113 135.638 48.305 132.254 48.305ZM131.462 58.817C129.542 58.817 128.078 57.377 128.078 55.193C128.078 53.033 129.542 51.569 131.462 51.569C133.382 51.569 134.798 53.033 134.798 55.193C134.798 57.377 133.358 58.817 131.462 58.817ZM148.235 48.305C146.363 48.305 144.923 49.169 144.107 50.897V48.593H140.675V61.793H144.107V55.913C144.107 52.793 145.979 51.833 148.163 51.833C148.547 51.833 148.739 51.857 149.003 51.881V48.353C148.787 48.329 148.547 48.305 148.235 48.305ZM157.188 48.305C153.396 48.305 150.324 51.209 150.324 55.193C150.324 59.153 153.348 62.081 157.188 62.081C161.052 62.081 164.076 59.177 164.076 55.193C164.076 51.209 161.004 48.305 157.188 48.305ZM157.188 51.569C159.108 51.569 160.596 53.033 160.596 55.193C160.596 57.377 159.108 58.817 157.188 58.817C155.268 58.817 153.78 57.377 153.78 55.193C153.78 53.033 155.268 51.569 157.188 51.569ZM174.324 48.593L171.372 58.073L168.444 48.593H164.796L169.332 61.793H173.436L177.972 48.593H174.324ZM185.594 48.305C181.562 48.305 178.706 51.257 178.706 55.217C178.706 59.153 181.538 62.081 185.666 62.081C188.498 62.081 191.138 60.713 192.122 57.593H188.57C188.114 58.649 186.962 59.249 185.642 59.249C183.866 59.249 182.426 58.193 182.21 56.081H192.338C192.674 51.737 189.962 48.305 185.594 48.305ZM185.57 51.137C187.226 51.137 188.306 52.121 188.69 53.561H182.378C182.81 52.145 183.89 51.137 185.57 51.137Z" fill="#4E43DF"/>
<rect x="30.8457" y="96.793" width="218" height="20" rx="10" fill="white"/>
<rect x="30.8457" y="124.793" width="218" height="20" rx="10" fill="white"/>
<rect x="30.8457" y="208.793" width="218.368" height="20" rx="10" fill="white"/>
<rect x="30.8457" y="152.793" width="153" height="20" rx="10" fill="white"/>
<rect x="30.8457" y="180.793" width="153" height="20" rx="10" fill="white"/>
</svg>
