<svg width="279" height="320" viewBox="0 0 279 320" fill="none" xmlns="http://www.w3.org/2000/svg">
<rect x="2.91113" y="2.65576" width="274" height="315" rx="18" fill="#E5E6FB" stroke="#4E43DF" stroke-width="4"/>
<circle cx="53.9111" cy="53.6558" r="23" fill="#4E43DF"/>
<path d="M48.9591 60.8358C47.9631 60.8358 47.0631 60.5838 46.2591 60.0798C45.4671 59.5758 44.8431 58.8438 44.3871 57.8838C43.9311 56.9118 43.7031 55.7358 43.7031 54.3558C43.7031 52.9758 43.9311 51.8058 44.3871 50.8458C44.8431 49.8738 45.4671 49.1358 46.2591 48.6318C47.0631 48.1278 47.9631 47.8758 48.9591 47.8758C49.9671 47.8758 50.8671 48.1278 51.6591 48.6318C52.4511 49.1358 53.0751 49.8738 53.5311 50.8458C53.9991 51.8058 54.2331 52.9758 54.2331 54.3558C54.2331 55.7358 53.9991 56.9118 53.5311 57.8838C53.0751 58.8438 52.4511 59.5758 51.6591 60.0798C50.8671 60.5838 49.9671 60.8358 48.9591 60.8358ZM48.9591 58.8018C49.5471 58.8018 50.0571 58.6458 50.4891 58.3338C50.9211 58.0098 51.2571 57.5178 51.4971 56.8578C51.7491 56.1978 51.8751 55.3638 51.8751 54.3558C51.8751 53.3358 51.7491 52.5018 51.4971 51.8538C51.2571 51.1938 50.9211 50.7078 50.4891 50.3958C50.0571 50.0718 49.5471 49.9098 48.9591 49.9098C48.3951 49.9098 47.8911 50.0718 47.4471 50.3958C47.0151 50.7078 46.6731 51.1938 46.4211 51.8538C46.1811 52.5018 46.0611 53.3358 46.0611 54.3558C46.0611 55.3638 46.1811 56.1978 46.4211 56.8578C46.6731 57.5178 47.0151 58.0098 47.4471 58.3338C47.8911 58.6458 48.3951 58.8018 48.9591 58.8018ZM55.6349 60.6558V59.0898L60.6389 54.3378C61.0589 53.9418 61.3709 53.5938 61.5749 53.2938C61.7789 52.9938 61.9109 52.7178 61.9709 52.4658C62.0429 52.2018 62.0789 51.9558 62.0789 51.7278C62.0789 51.1518 61.8809 50.7078 61.4849 50.3958C61.0889 50.0718 60.5069 49.9098 59.7389 49.9098C59.1269 49.9098 58.5689 50.0178 58.0649 50.2338C57.5729 50.4498 57.1469 50.7798 56.7869 51.2238L55.1489 49.9638C55.6409 49.3038 56.3009 48.7938 57.1289 48.4338C57.9689 48.0618 58.9049 47.8758 59.9369 47.8758C60.8489 47.8758 61.6409 48.0258 62.3129 48.3258C62.9969 48.6138 63.5189 49.0278 63.8789 49.5678C64.2509 50.1078 64.4369 50.7498 64.4369 51.4938C64.4369 51.9018 64.3829 52.3098 64.2749 52.7178C64.1669 53.1138 63.9629 53.5338 63.6629 53.9778C63.3629 54.4218 62.9249 54.9198 62.3489 55.4718L58.0469 59.5578L57.5609 58.6758H64.9229V60.6558H55.6349Z" fill="white"/>
<path d="M96.8071 44.8558C99.2551 44.8558 101.295 45.6558 102.927 47.2558C104.575 48.8558 105.399 50.8558 105.399 53.2558C105.399 55.6558 104.575 57.6558 102.927 59.2558C101.295 60.8558 99.2551 61.6558 96.8071 61.6558H90.7351V44.8558H96.8071ZM96.8071 58.3918C98.3271 58.3918 99.5671 57.9118 100.527 56.9518C101.487 55.9918 101.967 54.7598 101.967 53.2558C101.967 51.7518 101.487 50.5198 100.527 49.5598C99.5671 48.5998 98.3271 48.1198 96.8071 48.1198H94.1671V58.3918H96.8071ZM114.41 48.1678C116.57 48.1678 118.274 48.9118 119.522 50.3998C120.786 51.8878 121.33 53.7358 121.154 55.9438H111.026C111.138 56.9678 111.506 57.7518 112.13 58.2958C112.754 58.8398 113.53 59.1118 114.458 59.1118C115.13 59.1118 115.73 58.9678 116.258 58.6798C116.786 58.3758 117.162 57.9678 117.386 57.4558H120.938C120.474 58.9438 119.658 60.0638 118.49 60.8158C117.322 61.5678 115.986 61.9438 114.482 61.9438C112.434 61.9438 110.762 61.2958 109.466 59.9998C108.17 58.7038 107.522 57.0638 107.522 55.0798C107.522 53.0958 108.17 51.4478 109.466 50.1358C110.762 48.8238 112.41 48.1678 114.41 48.1678ZM114.386 50.9998C113.57 50.9998 112.89 51.2238 112.346 51.6718C111.802 52.1038 111.418 52.6878 111.194 53.4238H117.506C117.314 52.6878 116.946 52.1038 116.402 51.6718C115.858 51.2238 115.186 50.9998 114.386 50.9998ZM131.218 48.1678C132.93 48.1678 134.362 48.8158 135.514 50.1118C136.666 51.3918 137.242 53.0398 137.242 55.0558C137.242 57.0718 136.666 58.7278 135.514 60.0238C134.378 61.3038 132.946 61.9438 131.218 61.9438C129.474 61.9438 128.082 61.2558 127.042 59.8798V67.6558H123.61V48.4558H127.042V50.3038C128.066 48.8798 129.458 48.1678 131.218 48.1678ZM130.426 58.6798C131.386 58.6798 132.178 58.3438 132.802 57.6718C133.442 56.9998 133.762 56.1278 133.762 55.0558C133.762 53.9838 133.45 53.1118 132.826 52.4398C132.202 51.7678 131.402 51.4318 130.426 51.4318C129.45 51.4318 128.642 51.7678 128.002 52.4398C127.362 53.1118 127.042 53.9838 127.042 55.0558C127.042 56.1278 127.362 56.9998 128.002 57.6718C128.642 58.3438 129.45 58.6798 130.426 58.6798ZM141.319 50.1358C142.647 48.8238 144.271 48.1678 146.191 48.1678C148.111 48.1678 149.735 48.8238 151.063 50.1358C152.407 51.4478 153.079 53.0878 153.079 55.0558C153.079 57.0398 152.415 58.6878 151.087 59.9998C149.775 61.2958 148.143 61.9438 146.191 61.9438C144.255 61.9438 142.623 61.2878 141.295 59.9758C139.983 58.6638 139.327 57.0238 139.327 55.0558C139.327 53.0878 139.991 51.4478 141.319 50.1358ZM148.615 52.4398C147.975 51.7678 147.167 51.4318 146.191 51.4318C145.215 51.4318 144.399 51.7678 143.743 52.4398C143.103 53.1118 142.783 53.9838 142.783 55.0558C142.783 56.1278 143.103 56.9998 143.743 57.6718C144.399 58.3438 145.215 58.6798 146.191 58.6798C147.167 58.6798 147.975 58.3438 148.615 57.6718C149.271 56.9998 149.599 56.1278 149.599 55.0558C149.599 53.9838 149.271 53.1118 148.615 52.4398ZM161.578 61.9438C159.802 61.9438 158.322 61.5358 157.138 60.7198C155.954 59.8878 155.242 58.7518 155.002 57.3118H158.482C158.77 58.4958 159.834 59.0878 161.674 59.0878C163.162 59.0878 163.906 58.7278 163.906 58.0078C163.906 57.9118 163.89 57.8238 163.858 57.7438C163.842 57.6638 163.802 57.5918 163.738 57.5278C163.69 57.4638 163.634 57.4078 163.57 57.3598C163.506 57.2958 163.41 57.2398 163.282 57.1918C163.17 57.1438 163.066 57.1038 162.97 57.0718C162.874 57.0398 162.73 56.9998 162.538 56.9518C162.362 56.9038 162.202 56.8638 162.058 56.8318C161.93 56.7998 161.746 56.7598 161.506 56.7118C161.266 56.6638 161.058 56.6158 160.882 56.5678C158.914 56.1038 157.538 55.5998 156.754 55.0558C155.986 54.4958 155.602 53.6638 155.602 52.5598C155.602 51.1838 156.122 50.1118 157.162 49.3438C158.218 48.5598 159.626 48.1678 161.386 48.1678C163.146 48.1678 164.514 48.5518 165.49 49.3198C166.466 50.0718 167.074 51.0958 167.314 52.3918H163.834C163.546 51.4958 162.69 51.0478 161.266 51.0478C159.794 51.0478 159.058 51.4158 159.058 52.1518C159.058 52.4398 159.21 52.6478 159.514 52.7758C159.818 52.9038 160.506 53.0878 161.578 53.3278C162.65 53.5678 163.498 53.7918 164.122 53.9998C164.746 54.1918 165.338 54.4478 165.898 54.7678C166.458 55.0878 166.858 55.4718 167.098 55.9198C167.338 56.3678 167.458 56.9118 167.458 57.5518C167.458 58.9758 166.906 60.0638 165.802 60.8158C164.698 61.5678 163.29 61.9438 161.578 61.9438ZM171.413 42.3598C172.037 42.3598 172.549 42.5518 172.949 42.9358C173.349 43.3038 173.549 43.7838 173.549 44.3758C173.549 44.9678 173.349 45.4558 172.949 45.8398C172.549 46.2238 172.037 46.4158 171.413 46.4158C170.805 46.4158 170.293 46.2238 169.877 45.8398C169.477 45.4558 169.277 44.9678 169.277 44.3758C169.277 43.7998 169.477 43.3198 169.877 42.9358C170.293 42.5518 170.805 42.3598 171.413 42.3598ZM169.685 61.6558V48.4558H173.117V61.6558H169.685ZM185.689 58.1038L186.265 60.8878C185.865 61.1598 185.289 61.4078 184.537 61.6318C183.801 61.8398 183.065 61.9438 182.329 61.9438C180.905 61.9438 179.721 61.4958 178.777 60.5998C177.849 59.7038 177.385 58.3598 177.385 56.5678V51.6958H175.033V48.4558H177.385V45.5998L180.817 44.8558V48.4558H185.713V51.6958H180.817V56.3758C180.817 57.9598 181.521 58.7518 182.929 58.7518C183.553 58.7518 184.473 58.5358 185.689 58.1038Z" fill="#4E43DF"/>
<rect x="31.3545" y="96.9658" width="146" height="20" rx="10" fill="white"/>
<rect x="30.9111" y="124.656" width="218" height="20" rx="10" fill="white"/>
<rect x="31.3545" y="152.966" width="218" height="20" rx="10" fill="white"/>
<rect x="30.9111" y="180.656" width="153" height="20" rx="10" fill="white"/>
</svg>
