<svg width="279" height="320" viewBox="0 0 279 320" fill="none" xmlns="http://www.w3.org/2000/svg">
<rect x="2.125" y="2.41406" width="274" height="315" rx="18" fill="#E5E6FB" stroke="#4E43DF" stroke-width="4"/>
<circle cx="53.125" cy="53.4141" r="23" fill="#4E43DF"/>
<path d="M47.173 59.5941C46.177 59.5941 45.277 59.3421 44.473 58.8381C43.681 58.3341 43.057 57.6021 42.601 56.6421C42.145 55.6701 41.917 54.4941 41.917 53.1141C41.917 51.7341 42.145 50.5641 42.601 49.6041C43.057 48.6321 43.681 47.8941 44.473 47.3901C45.277 46.8861 46.177 46.6341 47.173 46.6341C48.181 46.6341 49.081 46.8861 49.873 47.3901C50.665 47.8941 51.289 48.6321 51.745 49.6041C52.213 50.5641 52.447 51.7341 52.447 53.1141C52.447 54.4941 52.213 55.6701 51.745 56.6421C51.289 57.6021 50.665 58.3341 49.873 58.8381C49.081 59.3421 48.181 59.5941 47.173 59.5941ZM47.173 57.5601C47.761 57.5601 48.271 57.4041 48.703 57.0921C49.135 56.7681 49.471 56.2761 49.711 55.6161C49.963 54.9561 50.089 54.1221 50.089 53.1141C50.089 52.0941 49.963 51.2601 49.711 50.6121C49.471 49.9521 49.135 49.4661 48.703 49.1541C48.271 48.8301 47.761 48.6681 47.173 48.6681C46.609 48.6681 46.105 48.8301 45.661 49.1541C45.229 49.4661 44.887 49.9521 44.635 50.6121C44.395 51.2601 44.275 52.0941 44.275 53.1141C44.275 54.1221 44.395 54.9561 44.635 55.6161C44.887 56.2761 45.229 56.7681 45.661 57.0921C46.105 57.4041 46.609 57.5601 47.173 57.5601ZM53.8483 56.5521V54.9321L60.0583 46.8141H62.5603L56.4403 54.9321L55.2703 54.5721H65.2603V56.5521H53.8483ZM60.7603 59.4141V56.5521L60.8323 54.5721V52.0341H63.0283V59.4141H60.7603Z" fill="white"/>
<path d="M99.621 61.4141H103.845L99.141 55.1021C101.493 54.5021 102.909 52.8221 102.909 50.0861C102.909 46.7501 100.773 44.6141 97.173 44.6141H89.949V61.4141H93.381V55.3661H95.277L99.621 61.4141ZM93.381 47.8781H96.789C98.565 47.8781 99.429 48.7421 99.429 50.1341C99.429 51.5021 98.589 52.3661 96.789 52.3661H93.381V47.8781ZM114.826 48.2141V50.0621C113.914 48.7901 112.522 47.9261 110.65 47.9261C107.266 47.9261 104.65 50.7341 104.65 54.8141C104.65 58.8701 107.218 61.7021 110.674 61.7021C112.522 61.7021 113.89 60.8861 114.802 59.6381V61.4141H118.234L118.258 48.2141H114.826ZM111.442 58.4381C109.546 58.4381 108.106 56.9981 108.106 54.8141C108.106 52.6541 109.522 51.1901 111.442 51.1901C113.362 51.1901 114.826 52.6541 114.826 54.8141C114.826 56.9981 113.362 58.4381 111.442 58.4381ZM130.809 57.8621C129.729 58.2461 128.817 58.5101 128.049 58.5101C126.681 58.5101 125.937 57.6941 125.937 56.1341V51.4541H130.833V48.2141H125.937V44.6141L122.505 45.3581V48.2141H120.153V51.4541H122.505V56.3261C122.505 60.1181 124.809 61.7021 127.449 61.7021C129.033 61.7021 130.665 61.1261 131.385 60.6461L130.809 57.8621ZM139.522 47.9261C135.49 47.9261 132.634 50.8781 132.634 54.8381C132.634 58.7741 135.466 61.7021 139.594 61.7021C142.426 61.7021 145.066 60.3341 146.05 57.2141H142.498C142.042 58.2701 140.89 58.8701 139.57 58.8701C137.794 58.8701 136.354 57.8141 136.138 55.7021H146.266C146.602 51.3581 143.89 47.9261 139.522 47.9261ZM139.498 50.7581C141.154 50.7581 142.234 51.7421 142.618 53.1821H136.306C136.738 51.7661 137.818 50.7581 139.498 50.7581Z" fill="#4E43DF"/>
<rect x="30.5684" y="96.7236" width="146" height="20" rx="10" fill="white"/>
<rect x="30.125" y="124.414" width="218" height="20" rx="10" fill="white"/>
<rect x="30.5684" y="152.724" width="218" height="20" rx="10" fill="white"/>
<rect x="30.125" y="180.414" width="153" height="20" rx="10" fill="white"/>
</svg>
