<svg width="26" height="26" viewBox="0 0 26 26" fill="none" xmlns="http://www.w3.org/2000/svg">
<path fill-rule="evenodd" clip-rule="evenodd" d="M13 26C20.1797 26 26 20.1797 26 13C26 5.8203 20.1797 0 13 0C5.8203 0 0 5.8203 0 13C0 20.1797 5.8203 26 13 26Z" fill="#4E43DF"/>
<path d="M12.0712 20.8003L14.5916 20.8003L14.5916 15.509L14.4147 10.7216L12.2259 10.7216L12.0712 15.509L12.0712 20.8003ZM13.3314 8.83189C14.2599 8.83189 14.9453 8.20198 14.9453 7.34109C14.9453 6.48021 14.2599 5.85029 13.3314 5.85029C12.4028 5.85029 11.6953 6.48021 11.6953 7.34109C11.6953 8.20198 12.4028 8.83189 13.3314 8.83189Z" fill="white"/>
</svg>
