<svg width="21" height="20" viewBox="0 0 21 20" fill="none" xmlns="http://www.w3.org/2000/svg">
<path d="M14.4965 9.20146L13.2174 10.4805C12.8234 10.8745 12.6523 11.4395 12.7616 11.9859L13.0311 13.3335L13.0691 13.5235C13.1496 13.926 12.7111 14.2305 12.3621 14.0145L11.2417 13.321C10.7042 12.9882 10.0247 12.9882 9.48722 13.321L8.36686 14.0145C8.01788 14.2305 7.5793 13.926 7.65979 13.5235L7.6978 13.3335L7.96732 11.9859C8.0766 11.4395 7.90557 10.8745 7.51153 10.4805L6.1978 9.16679C5.89029 8.85929 6.10808 8.33346 6.54298 8.33346H6.61447H7.81556C8.51278 8.33346 9.1363 7.89947 9.37847 7.24565L9.90147 5.83346C10.0606 5.40382 10.6683 5.40382 10.8275 5.83346L11.3505 7.24565C11.5926 7.89947 12.2161 8.33346 12.9134 8.33346L14.1145 8.33346H14.137C14.5899 8.33346 14.8168 8.88113 14.4965 9.20146Z" stroke="#4E43DF" stroke-width="1.5" stroke-linejoin="round"/>
<path d="M2.86456 10C2.86456 3.82375 4.18831 2.5 10.3646 2.5C16.5408 2.5 17.8646 3.82375 17.8646 10C17.8646 16.1762 16.5408 17.5 10.3646 17.5C4.18831 17.5 2.86456 16.1762 2.86456 10Z" stroke="#4E43DF" stroke-width="1.5"/>
</svg>
