<svg width="21" height="20" viewBox="0 0 21 20" fill="none" xmlns="http://www.w3.org/2000/svg">
<path fill-rule="evenodd" clip-rule="evenodd" d="M13.1381 5.69801H14.6403C16.2336 5.69801 17.531 6.82344 17.531 8.20555C17.531 8.20555 17.4854 8.79064 17.4703 9.60542C17.4687 9.66992 17.4323 9.7331 17.3724 9.77127C17.0074 10.0023 16.6736 10.1931 16.6433 10.2063C15.3838 10.9303 13.9203 11.4397 12.3611 11.6931C12.2595 11.7102 12.1593 11.6648 12.1077 11.5871C11.6707 10.9382 10.8544 10.5156 9.94392 10.5156C9.03955 10.5156 8.2156 10.9336 7.76569 11.5831C7.71334 11.6595 7.6147 11.7036 7.5138 11.6871C5.96756 11.4331 4.50402 10.9243 3.25216 10.2129L2.52381 9.77851C2.46311 9.74561 2.42518 9.68637 2.42518 9.62056C2.40241 9.2849 2.36448 8.20555 2.36448 8.20555C2.36448 6.82344 3.66186 5.69801 5.25514 5.69801L6.74978 5.69801C6.89394 4.7437 7.82714 4 8.96519 4L10.9226 4C12.0607 4 12.9939 4.7437 13.1381 5.69801ZM8.96175 4.98666C8.45342 4.98666 8.02096 5.2894 7.89956 5.69745L11.9814 5.69745C11.86 5.2894 11.4275 4.98666 10.9192 4.98666L8.96175 4.98666Z" fill="#4E43DF"/>
<path fill-rule="evenodd" clip-rule="evenodd" d="M17.2732 11.0306L17.2428 11.0438C15.7102 11.9257 13.8666 12.5114 11.9319 12.755C11.6588 12.7879 11.3856 12.6365 11.3098 12.3996C11.1428 11.8599 10.6042 11.5045 9.95926 11.5045H9.9365C9.2916 11.5045 8.75293 11.8599 8.58601 12.3996C8.51014 12.6365 8.23701 12.7879 7.96387 12.755C6.02918 12.5114 4.18553 11.9257 2.65295 11.0438C2.64537 11.0372 2.5695 10.9977 2.5088 11.0306C2.44052 11.0635 2.44052 11.1425 2.44052 11.1425L2.49363 14.499C2.49363 15.8812 3.78342 17 5.3767 17H14.5115C16.1048 17 17.3946 15.8812 17.3946 14.499L17.4552 11.1425C17.4552 11.1425 17.4552 11.0635 17.387 11.0306C17.349 11.0109 17.3035 11.0175 17.2732 11.0306ZM10.5103 13.7873C10.5103 14.0637 10.2599 14.2809 9.94123 14.2809C9.63016 14.2809 9.3722 14.0637 9.3722 13.7873V12.9383C9.3722 12.6684 9.63016 12.4447 9.94123 12.4447C10.2599 12.4447 10.5103 12.6684 10.5103 12.9383V13.7873Z" fill="#4E43DF"/>
</svg>
