<svg width="24" height="24" viewBox="0 0 24 24" fill="none" xmlns="http://www.w3.org/2000/svg">
<g opacity="0.4">
<circle cx="11.5785" cy="11.5785" r="11.2109" stroke="#4E43DF" stroke-width="0.735142"/>
<path d="M19.1108 19.1108C23.2707 14.9508 23.2707 8.20619 19.1108 4.04624C14.9508 -0.113719 8.20619 -0.11372 4.04624 4.04624C-0.113719 8.20619 -0.113719 14.9508 4.04624 19.1108C8.20619 23.2707 14.9508 23.2707 19.1108 19.1108Z" fill="#F6F5FF"/>
<path d="M11.5785 15.1911C13.8669 15.1911 15.722 12.7925 15.722 9.83369C15.722 6.87489 13.8669 4.47632 11.5785 4.47632C9.29014 4.47632 7.43506 6.87489 7.43506 9.83369C7.43506 12.7925 9.29014 15.1911 11.5785 15.1911Z" fill="#4E43DF"/>
<path d="M11.5784 15.5891C8.11262 15.5891 5.06137 16.6484 3.27832 18.2538C5.23079 20.6784 8.22283 22.2311 11.5784 22.2311C14.9339 22.2311 17.926 20.6784 19.8784 18.2538C18.097 16.6484 15.0458 15.5891 11.5784 15.5891Z" fill="#4E43DF"/>
<path d="M12.0423 11.5789H11.1146C10.2407 11.5789 9.53223 12.2873 9.53223 13.1612V16.7619C9.53223 17.6358 10.2407 18.3442 11.1146 18.3442H12.0423C12.9162 18.3442 13.6247 17.6358 13.6247 16.7619V13.1612C13.6247 12.2873 12.9162 11.5789 12.0423 11.5789Z" fill="#4E43DF"/>
<path d="M8.00554 10.082C8.24734 10.7762 8.15029 11.4407 7.79171 11.5657C7.43312 11.6907 6.94624 11.2285 6.70444 10.5344C6.46265 9.84023 6.55969 9.17569 6.91828 9.05068C7.27686 8.92567 7.76374 9.38788 8.00554 10.082Z" fill="#4E43DF"/>
<path d="M15.1498 10.082C14.908 10.7762 15.005 11.4407 15.3636 11.5657C15.7222 11.6907 16.2091 11.2285 16.4509 10.5344C16.6927 9.84023 16.5956 9.17569 16.237 9.05068C15.8784 8.92567 15.3916 9.38788 15.1498 10.082Z" fill="#4E43DF"/>
<path d="M7.95197 10.0606C7.4141 9.08186 6.85977 8.04229 6.88773 6.92378C6.9157 5.80691 7.7661 4.62753 8.88297 4.66701C9.07707 4.67358 9.27281 4.71635 9.4669 4.69003C9.85345 4.63575 10.1397 4.31994 10.4522 4.08636C11.1595 3.56165 12.1431 3.43828 12.959 3.7689C13.4623 3.97451 13.8883 4.3331 14.3802 4.56667C15.2947 5.00092 16.4231 4.9565 17.2998 4.44824C17.1172 4.79202 16.808 5.06671 16.4445 5.20817C16.78 5.31509 17.1501 5.30522 17.4791 5.18021C17.2817 5.53879 16.9527 5.825 16.5711 5.97139C16.8541 5.99113 17.1386 6.01087 17.4215 6.03061C17.1797 6.37274 16.8343 6.64086 16.4412 6.79054C16.6632 6.79712 16.8853 6.80535 17.1074 6.81193C16.9412 7.3021 16.5119 7.69523 16.0086 7.8153C16.1517 7.81695 16.2948 7.81859 16.4379 7.82188C15.9691 8.49957 15.4987 9.17726 15.0299 9.85495C14.895 10.049 14.7568 10.2464 14.5578 10.3747C14.3933 10.48 14.1992 10.5294 14.0084 10.5721C12.6168 10.8846 11.1776 10.9784 9.75805 10.8485C9.27281 10.804 8.76454 10.7251 8.37799 10.4257C7.99145 10.1264 7.78584 9.54407 8.05066 9.13614" fill="#4E43DF"/>
<path d="M8.90736 16.6008C8.93862 16.0382 9.0077 15.4789 9.11626 14.9263C9.39425 15.2437 9.86633 15.2832 10.2874 15.3013C10.9256 15.3276 11.5638 15.3539 12.2037 15.3786C12.2777 15.8145 12.3304 16.3261 12.0145 16.6369C11.8681 16.78 11.6675 16.8524 11.4701 16.9067C11.0391 17.0268 10.5934 17.0893 10.1476 17.0909C9.61795 17.0942 8.98632 16.9347 8.81689 16.433C8.87447 16.3853 8.93204 16.3392 8.98961 16.2915" fill="#4E43DF"/>
<path d="M14.2502 16.6008C14.2189 16.0382 14.1498 15.4789 14.0413 14.9263C13.7633 15.2437 13.2912 15.2832 12.8701 15.3013C12.2319 15.3276 11.5937 15.3539 10.9538 15.3786C10.8798 15.8145 10.8272 16.3261 11.143 16.6369C11.2894 16.78 11.49 16.8524 11.6874 16.9067C12.1184 17.0268 12.5642 17.0893 13.0099 17.0909C13.5396 17.0942 14.1712 16.9347 14.3406 16.433C14.2831 16.3853 14.2255 16.3392 14.1679 16.2915" fill="#4E43DF"/>
</g>
</svg>
