<svg width="63" height="63" viewBox="0 0 63 63" fill="none" xmlns="http://www.w3.org/2000/svg">
<circle cx="31.5" cy="31.5" r="30.5" stroke="#5A6588" stroke-width="2"/>
<path d="M31.4995 60.4798C47.5047 60.4798 60.4795 47.505 60.4795 31.4998C60.4795 15.4946 47.5047 2.51978 31.4995 2.51978C15.4943 2.51978 2.51953 15.4946 2.51953 31.4998C2.51953 47.505 15.4943 60.4798 31.4995 60.4798Z" fill="#F6F5FF"/>
<path d="M31.5 41.3268C37.7257 41.3268 42.7725 34.8014 42.7725 26.7518C42.7725 18.7022 37.7257 12.1768 31.5 12.1768C25.2744 12.1768 20.2275 18.7022 20.2275 26.7518C20.2275 34.8014 25.2744 41.3268 31.5 41.3268Z" fill="#5A6588"/>
<path d="M31.4992 42.4092C22.4284 42.4092 14.4406 45.6849 9.75977 50.6521C15.0716 56.6754 22.8401 60.4792 31.4992 60.4792C40.1583 60.4792 47.9269 56.6754 53.2387 50.6521C48.5579 45.6804 40.57 42.4092 31.4992 42.4092V42.4092Z" fill="#5A6588"/>
<path d="M32.2829 31.5H30.7122C28.3346 31.5 26.4072 33.4274 26.4072 35.8049V45.6007C26.4072 47.9782 28.3346 49.9056 30.7122 49.9056H32.2829C34.6604 49.9056 36.5878 47.9782 36.5878 45.6007V35.8049C36.5878 33.4274 34.6604 31.5 32.2829 31.5Z" fill="#5A6588"/>
<path d="M21.7799 27.4273C22.4377 29.3157 22.1737 31.1236 21.1981 31.4637C20.2226 31.8038 18.898 30.5463 18.2402 28.6579C17.5824 26.7694 17.8464 24.9615 18.8219 24.6214C19.7975 24.2813 21.1221 25.5388 21.7799 27.4273Z" fill="#5A6588"/>
<path d="M41.2167 27.4273C40.5589 29.3157 40.8229 31.1236 41.7985 31.4637C42.774 31.8038 44.0986 30.5463 44.7565 28.6579C45.4143 26.7694 45.1503 24.9615 44.1747 24.6214C43.1992 24.2813 41.8746 25.5388 41.2167 27.4273Z" fill="#5A6588"/>
<path d="M45.3335 28.6895C45.0874 25.0916 45.2082 21.3998 44.0492 17.9809C42.747 14.1413 39.7532 10.8612 35.954 9.44708C32.1547 8.03299 27.6215 8.61921 24.4443 11.1386C23.33 12.0202 22.3321 13.2866 22.444 14.7052C20.5153 14.0518 18.3673 15.4212 17.4633 17.247C16.5639 19.0728 16.6086 21.2029 16.7339 23.2345C17.1098 29.1862 18.0182 35.2901 16.4072 41.0271C21.3476 41.1747 26.288 41.3269 31.2284 41.4745C32.808 41.5238 34.3922 41.5685 35.9763 41.5014C40.0128 41.3269 44.1924 40.4185 47.9917 41.7878C46.5328 37.5634 45.6378 33.1466 45.3291 28.685L45.3335 28.6895Z" fill="#5A6588"/>
</svg>
