<svg width="63" height="63" viewBox="0 0 63 63" fill="none" xmlns="http://www.w3.org/2000/svg">
<circle cx="31.5" cy="31.5" r="30.5" stroke="#5A6588" stroke-width="2"/>
<path d="M51.9926 51.9923C63.31 40.6749 63.31 22.3257 51.9925 11.0083C40.6751 -0.309088 22.326 -0.309092 11.0086 11.0083C-0.308847 22.3257 -0.308847 40.6749 11.0086 51.9923C22.326 63.3097 40.6751 63.3097 51.9926 51.9923Z" fill="#F6F5FF"/>
<path d="M31.5 41.3283C37.7257 41.3283 42.7726 34.8029 42.7726 26.7533C42.7726 18.7037 37.7257 12.1782 31.5 12.1782C25.2744 12.1782 20.2275 18.7037 20.2275 26.7533C20.2275 34.8029 25.2744 41.3283 31.5 41.3283Z" fill="#5A6588"/>
<path d="M31.5007 42.4116C22.0719 42.4116 13.7708 45.2935 8.91992 49.6611C14.2317 56.2572 22.3718 60.4816 31.5007 60.4816C40.6297 60.4816 48.7697 56.2572 54.0816 49.6611C49.2351 45.2935 40.934 42.4116 31.5007 42.4116V42.4116Z" fill="#5A6588"/>
<path d="M32.7624 31.5015H30.2385C27.861 31.5015 25.9336 33.4289 25.9336 35.8064V45.6022C25.9336 47.9797 27.861 49.9071 30.2385 49.9071H32.7624C35.14 49.9071 37.0674 47.9797 37.0674 45.6022V35.8064C37.0674 33.4289 35.14 31.5015 32.7624 31.5015Z" fill="#5A6588"/>
<path d="M21.7799 27.4292C22.4377 29.3177 22.1737 31.1256 21.1982 31.4657C20.2226 31.8058 18.898 30.5483 18.2402 28.6598C17.5824 26.7714 17.8464 24.9635 18.8219 24.6234C19.7975 24.2833 21.1221 25.5408 21.7799 27.4292Z" fill="#5A6588"/>
<path d="M41.2158 27.4292C40.5579 29.3177 40.822 31.1256 41.7975 31.4657C42.7731 31.8058 44.0977 30.5483 44.7555 28.6598C45.4133 26.7714 45.1493 24.9635 44.1737 24.6234C43.1982 24.2833 41.8736 25.5408 41.2158 27.4292Z" fill="#5A6588"/>
<path d="M21.6334 27.3709C20.1701 24.7083 18.662 21.8801 18.7381 18.8371C18.8142 15.7986 21.1278 12.59 24.1663 12.6974C24.6943 12.7153 25.2269 12.8316 25.7549 12.76C26.8065 12.6124 27.5852 11.7532 28.4354 11.1177C30.3597 9.6902 33.0357 9.35457 35.2553 10.254C36.6247 10.8134 37.7837 11.789 39.1217 12.4244C41.6098 13.6058 44.6797 13.485 47.0648 12.1022C46.5681 13.0375 45.7268 13.7848 44.7378 14.1697C45.6507 14.4605 46.6576 14.4337 47.5526 14.0936C47.0156 15.0691 46.1206 15.8478 45.0824 16.2461C45.8521 16.2998 46.6263 16.3535 47.396 16.4072C46.7381 17.338 45.7984 18.0674 44.7289 18.4746C45.333 18.4925 45.9371 18.5149 46.5412 18.5328C46.0893 19.8663 44.9213 20.9359 43.552 21.2625C43.9413 21.267 44.3306 21.2715 44.7199 21.2804C43.4446 23.1241 42.1647 24.9678 40.8893 26.8115C40.5224 27.3396 40.1465 27.8766 39.605 28.2256C39.1575 28.512 38.6295 28.6463 38.1104 28.7626C34.3245 29.6129 30.4089 29.8679 26.547 29.5144C25.2269 29.3936 23.8441 29.1788 22.7925 28.3643C21.7408 27.5499 21.1815 25.9657 21.9019 24.8559" fill="#5A6588"/>
<path d="M24.2334 45.1637C24.3185 43.6333 24.5064 42.1118 24.8018 40.6082C25.558 41.4718 26.8424 41.5792 27.9879 41.6285C29.7242 41.7001 31.4605 41.7717 33.2013 41.8388C33.4027 43.0247 33.5459 44.4164 32.6867 45.2621C32.2884 45.6515 31.7425 45.8484 31.2055 45.996C30.033 46.3227 28.8203 46.4928 27.6076 46.4972C26.1666 46.5062 24.4482 46.0721 23.9873 44.7072C24.1439 44.5775 24.3006 44.4522 24.4572 44.3224" fill="#5A6588"/>
<path d="M38.7687 45.1637C38.6836 43.6333 38.4957 42.1118 38.2003 40.6082C37.4441 41.4718 36.1597 41.5792 35.0141 41.6285C33.2779 41.7001 31.5416 41.7717 29.8008 41.8388C29.5994 43.0247 29.4562 44.4164 30.3154 45.2621C30.7137 45.6515 31.2596 45.8484 31.7966 45.996C32.9691 46.3227 34.1818 46.4928 35.3945 46.4972C36.8355 46.5062 38.5539 46.0721 39.0148 44.7072C38.8582 44.5775 38.7015 44.4522 38.5449 44.3224" fill="#5A6588"/>
</svg>
