<svg width="561" height="561" viewBox="0 0 561 561" fill="none" xmlns="http://www.w3.org/2000/svg">
<g opacity="0.3">
<path fill-rule="evenodd" clip-rule="evenodd" d="M280.5 25.8217C139.845 25.8217 25.8217 139.845 25.8217 280.5C25.8217 421.155 139.845 535.178 280.5 535.178C421.155 535.178 535.178 421.155 535.178 280.5C535.178 139.845 421.155 25.8217 280.5 25.8217ZM0 280.5C0 125.584 125.584 0 280.5 0C435.416 0 561 125.584 561 280.5C561 435.416 435.416 561 280.5 561C125.584 561 0 435.416 0 280.5Z" fill="url(#paint0_linear_629_5475)"/>
<path d="M179.603 346.352H272.496V388.396H107.864V356.863L170.406 301.835C193.501 281.225 208.115 267.416 214.247 260.409C220.378 253.401 223.444 246.085 223.444 238.459C223.444 230.627 220.583 224.032 214.86 218.674C209.341 213.109 201.268 210.327 190.64 210.327C169.793 210.327 157.632 221.765 154.157 244.642H110.01C111.441 221.353 119.718 202.804 134.843 188.995C150.172 175.187 169.384 168.282 192.48 168.282C215.371 168.282 233.663 174.878 247.357 188.068C261.051 201.052 267.898 217.128 267.898 236.295C267.898 241.035 267.285 245.673 266.058 250.207C265.036 254.535 263.912 258.451 262.686 261.954C261.664 265.252 259.314 269.271 255.635 274.011C251.956 278.545 249.094 282.152 247.05 284.831C245.211 287.305 241.328 291.324 235.4 296.888C229.473 302.453 225.181 306.472 222.524 308.945C219.867 311.212 214.553 315.849 206.582 322.857L180.216 346.043L179.603 346.352Z" fill="white"/>
<path d="M457.456 299.671V340.787L427.412 341.096V388.396H383.571V341.096H277.188V299.671L362.724 171.992H427.412V299.361L457.456 299.671ZM324.095 299.361H383.571V213.109H380.812L324.095 299.361Z" fill="white"/>
</g>
<defs>
<linearGradient id="paint0_linear_629_5475" x1="444.381" y1="461.801" x2="176.472" y2="167.965" gradientUnits="userSpaceOnUse">
<stop stop-color="#4E43DF"/>
<stop offset="1" stop-color="white"/>
</linearGradient>
</defs>
</svg>
