<svg width="149" height="41" viewBox="0 0 149 41" fill="none" xmlns="http://www.w3.org/2000/svg">
<g clip-path="url(#clip0_1686_5689)">
<path d="M11.3352 20.3936C11.3352 17.2641 13.8715 14.7264 17.001 14.7264C20.1305 14.7264 22.6681 17.2641 22.6681 20.3936C22.6681 23.5231 20.1305 26.0607 17.001 26.0607C13.8715 26.0607 11.3352 23.5231 11.3352 20.3936ZM8.27168 20.3936C8.27168 25.2148 12.1798 29.1229 17.001 29.1229C21.8222 29.1229 25.7303 25.2148 25.7303 20.3936C25.7303 15.5724 21.8222 11.6643 17.001 11.6643C12.1798 11.6643 8.27168 15.5724 8.27168 20.3936ZM24.0358 11.3181C24.0357 11.7216 24.1552 12.1161 24.3792 12.4516C24.6032 12.7872 24.9217 13.0488 25.2944 13.2034C25.6671 13.3579 26.0773 13.3985 26.473 13.3199C26.8688 13.2414 27.2324 13.0472 27.5178 12.762C27.8032 12.4768 27.9976 12.1134 28.0765 11.7177C28.1554 11.322 28.1151 10.9119 27.9609 10.539C27.8066 10.1662 27.5453 9.8475 27.2099 9.62321C26.8745 9.39892 26.4801 9.27912 26.0767 9.27895H26.0758C25.535 9.27921 25.0164 9.4941 24.6339 9.87645C24.2514 10.2588 24.0363 10.7773 24.0358 11.3181ZM10.133 34.2311C8.47554 34.1557 7.57468 33.8796 6.97601 33.6463C6.18231 33.3374 5.61601 32.9693 5.0206 32.3747C4.42519 31.7802 4.05663 31.2144 3.749 30.4207C3.51562 29.8223 3.23954 28.9212 3.1642 27.2637C3.08178 25.4718 3.06533 24.9335 3.06533 20.3937C3.06533 15.8539 3.08314 15.3171 3.1642 13.5237C3.23968 11.8662 3.5178 10.9669 3.749 10.3667C4.05799 9.57299 4.42601 9.00668 5.0206 8.41127C5.61519 7.81587 6.18095 7.44731 6.97601 7.13967C7.57441 6.9063 8.47554 6.63022 10.133 6.55487C11.9249 6.47246 12.4632 6.456 17.001 6.456C21.5388 6.456 22.0776 6.47382 23.871 6.55487C25.5285 6.63035 26.4278 6.90847 27.028 7.13967C27.8217 7.44731 28.388 7.81668 28.9834 8.41127C29.5788 9.00587 29.946 9.57299 30.255 10.3667C30.4884 10.9651 30.7645 11.8662 30.8398 13.5237C30.9222 15.3171 30.9387 15.8539 30.9387 20.3937C30.9387 24.9335 30.9222 25.4703 30.8398 27.2637C30.7643 28.9212 30.4869 29.822 30.255 30.4207C29.946 31.2144 29.578 31.7807 28.9834 32.3747C28.3888 32.9688 27.8217 33.3374 27.028 33.6463C26.4296 33.8797 25.5285 34.1558 23.871 34.2311C22.0791 34.3136 21.5408 34.33 17.001 34.33C12.4612 34.33 11.9244 34.3136 10.133 34.2311ZM9.99222 3.49651C8.18246 3.57892 6.94582 3.86588 5.86584 4.28612C4.74738 4.7201 3.80054 5.30231 2.85439 6.24697C1.90824 7.19163 1.32752 8.13995 0.893545 9.25842C0.473305 10.3391 0.186345 11.575 0.103929 13.3848C0.0201526 15.1974 0.000976562 15.7769 0.000976562 20.3936C0.000976562 25.0102 0.0201526 25.5897 0.103929 27.4023C0.186345 29.2122 0.473305 30.448 0.893545 31.5287C1.32752 32.6465 1.90838 33.5959 2.85439 34.5401C3.80041 35.4844 4.74738 36.0658 5.86584 36.501C6.94786 36.9212 8.18246 37.2082 9.99222 37.2906C11.8058 37.373 12.3843 37.3936 17.001 37.3936C21.6176 37.3936 22.1971 37.3744 24.0097 37.2906C25.8196 37.2082 27.0555 36.9212 28.1361 36.501C29.2539 36.0658 30.2014 35.4848 31.1476 34.5401C32.0937 33.5955 32.6732 32.6465 33.1084 31.5287C33.5287 30.448 33.817 29.2121 33.898 27.4023C33.9804 25.5883 33.9996 25.0102 33.9996 20.3936C33.9996 15.7769 33.9804 15.1974 33.898 13.3848C33.8156 11.5749 33.5287 10.3384 33.1084 9.25842C32.6732 8.14063 32.0922 7.19312 31.1476 6.24697C30.2029 5.30082 29.2539 4.7201 28.1375 4.28612C27.0555 3.86588 25.8195 3.57756 24.0111 3.49651C22.1985 3.41409 21.619 3.39355 17.0023 3.39355C12.3857 3.39355 11.8058 3.41273 9.99222 3.49651Z" fill="url(#paint0_radial_1686_5689)"/>
<path d="M11.3352 20.3936C11.3352 17.2641 13.8715 14.7264 17.001 14.7264C20.1305 14.7264 22.6681 17.2641 22.6681 20.3936C22.6681 23.5231 20.1305 26.0607 17.001 26.0607C13.8715 26.0607 11.3352 23.5231 11.3352 20.3936ZM8.27168 20.3936C8.27168 25.2148 12.1798 29.1229 17.001 29.1229C21.8222 29.1229 25.7303 25.2148 25.7303 20.3936C25.7303 15.5724 21.8222 11.6643 17.001 11.6643C12.1798 11.6643 8.27168 15.5724 8.27168 20.3936ZM24.0358 11.3181C24.0357 11.7216 24.1552 12.1161 24.3792 12.4516C24.6032 12.7872 24.9217 13.0488 25.2944 13.2034C25.6671 13.3579 26.0773 13.3985 26.473 13.3199C26.8688 13.2414 27.2324 13.0472 27.5178 12.762C27.8032 12.4768 27.9976 12.1134 28.0765 11.7177C28.1554 11.322 28.1151 10.9119 27.9609 10.539C27.8066 10.1662 27.5453 9.8475 27.2099 9.62321C26.8745 9.39892 26.4801 9.27912 26.0767 9.27895H26.0758C25.535 9.27921 25.0164 9.4941 24.6339 9.87645C24.2514 10.2588 24.0363 10.7773 24.0358 11.3181ZM10.133 34.2311C8.47554 34.1557 7.57468 33.8796 6.97601 33.6463C6.18231 33.3374 5.61601 32.9693 5.0206 32.3747C4.42519 31.7802 4.05663 31.2144 3.749 30.4207C3.51562 29.8223 3.23954 28.9212 3.1642 27.2637C3.08178 25.4718 3.06533 24.9335 3.06533 20.3937C3.06533 15.8539 3.08314 15.3171 3.1642 13.5237C3.23968 11.8662 3.5178 10.9669 3.749 10.3667C4.05799 9.57299 4.42601 9.00668 5.0206 8.41127C5.61519 7.81587 6.18095 7.44731 6.97601 7.13967C7.57441 6.9063 8.47554 6.63022 10.133 6.55487C11.9249 6.47246 12.4632 6.456 17.001 6.456C21.5388 6.456 22.0776 6.47382 23.871 6.55487C25.5285 6.63035 26.4278 6.90847 27.028 7.13967C27.8217 7.44731 28.388 7.81668 28.9834 8.41127C29.5788 9.00587 29.946 9.57299 30.255 10.3667C30.4884 10.9651 30.7645 11.8662 30.8398 13.5237C30.9222 15.3171 30.9387 15.8539 30.9387 20.3937C30.9387 24.9335 30.9222 25.4703 30.8398 27.2637C30.7643 28.9212 30.4869 29.822 30.255 30.4207C29.946 31.2144 29.578 31.7807 28.9834 32.3747C28.3888 32.9688 27.8217 33.3374 27.028 33.6463C26.4296 33.8797 25.5285 34.1558 23.871 34.2311C22.0791 34.3136 21.5408 34.33 17.001 34.33C12.4612 34.33 11.9244 34.3136 10.133 34.2311ZM9.99222 3.49651C8.18246 3.57892 6.94582 3.86588 5.86584 4.28612C4.74738 4.7201 3.80054 5.30231 2.85439 6.24697C1.90824 7.19163 1.32752 8.13995 0.893545 9.25842C0.473305 10.3391 0.186345 11.575 0.103929 13.3848C0.0201526 15.1974 0.000976562 15.7769 0.000976562 20.3936C0.000976562 25.0102 0.0201526 25.5897 0.103929 27.4023C0.186345 29.2122 0.473305 30.448 0.893545 31.5287C1.32752 32.6465 1.90838 33.5959 2.85439 34.5401C3.80041 35.4844 4.74738 36.0658 5.86584 36.501C6.94786 36.9212 8.18246 37.2082 9.99222 37.2906C11.8058 37.373 12.3843 37.3936 17.001 37.3936C21.6176 37.3936 22.1971 37.3744 24.0097 37.2906C25.8196 37.2082 27.0555 36.9212 28.1361 36.501C29.2539 36.0658 30.2014 35.4848 31.1476 34.5401C32.0937 33.5955 32.6732 32.6465 33.1084 31.5287C33.5287 30.448 33.817 29.2121 33.898 27.4023C33.9804 25.5883 33.9996 25.0102 33.9996 20.3936C33.9996 15.7769 33.9804 15.1974 33.898 13.3848C33.8156 11.5749 33.5287 10.3384 33.1084 9.25842C32.6732 8.14063 32.0922 7.19312 31.1476 6.24697C30.2029 5.30082 29.2539 4.7201 28.1375 4.28612C27.0555 3.86588 25.8195 3.57756 24.0111 3.49651C22.1985 3.41409 21.619 3.39355 17.0023 3.39355C12.3857 3.39355 11.8058 3.41273 9.99222 3.49651Z" fill="url(#paint1_radial_1686_5689)"/>
</g>
<path d="M45.6346 6.94122C43.4733 7.84594 41.0972 10.4019 40.3468 13.6101C39.3964 17.6751 43.3513 19.3941 43.6757 18.8305C44.0575 18.1682 42.967 17.9443 42.7426 15.8351C42.4525 13.1111 43.7189 10.0672 45.3127 8.73163C45.609 8.4835 45.5949 8.82886 45.5949 9.46767C45.5949 10.61 45.5318 20.8649 45.5318 23.0051C45.5318 25.9011 45.4122 26.8156 45.1973 27.7193C44.9797 28.635 44.6297 29.2538 44.8949 29.4921C45.1912 29.7587 46.456 29.1245 47.1883 28.1025C48.0664 26.8768 48.3738 25.4047 48.429 23.8061C48.4956 21.879 48.4928 18.8211 48.4956 17.0769C48.4983 15.4772 48.5226 10.793 48.4676 7.97698C48.4541 7.28627 46.5385 6.56162 45.6345 6.94038M122.385 20.4942C122.315 21.9997 121.982 23.1765 121.568 24.0065C120.768 25.6135 119.106 26.1125 118.401 23.8024C118.016 22.5432 117.998 20.4402 118.275 18.6831C118.556 16.893 119.342 15.5411 120.642 15.663C121.926 15.7835 122.526 17.437 122.385 20.4942ZM100.753 29.8349C100.736 32.3365 100.342 34.5299 99.498 35.1669C98.3006 36.0702 96.6911 35.3926 97.0244 33.5672C97.3193 31.9519 98.7138 30.3022 100.757 28.2866C100.757 28.2866 100.761 28.7463 100.753 29.8349ZM100.426 20.4796C100.353 21.8508 99.9977 23.2284 99.6098 24.0067C98.8093 25.6137 97.1357 26.116 96.4421 23.8026C95.9679 22.222 96.0814 20.1763 96.3161 18.8873C96.6205 17.2149 97.3585 15.6634 98.684 15.6634C99.9726 15.6634 100.608 17.077 100.426 20.4796ZM87.8953 20.4586C87.8167 21.9109 87.5334 23.1249 87.0787 24.0067C86.2561 25.6026 84.6287 26.1087 83.911 23.8026C83.3936 22.1397 83.5697 19.8723 83.785 18.6475C84.1044 16.8299 84.9042 15.5413 86.1529 15.6634C87.4355 15.7887 88.059 17.437 87.8953 20.4586ZM145.322 22.155C145.009 22.155 144.866 22.4782 144.747 23.0222C144.337 24.9137 143.905 25.3408 143.349 25.3408C142.727 25.3408 142.168 24.4042 142.025 22.5293C141.912 21.055 141.93 18.3407 142.074 15.6408C142.104 15.0861 141.951 14.5372 140.463 13.9967C139.823 13.7642 138.892 13.4219 138.429 14.5404C137.119 17.7005 136.607 20.2094 136.487 21.2285C136.48 21.2813 136.416 21.2921 136.404 21.1688C136.328 20.3525 136.156 18.8692 136.135 15.7526C136.13 15.1446 136.002 14.627 135.33 14.2032C134.895 13.9283 133.573 13.442 133.096 14.0205C132.684 14.4937 132.206 15.767 131.71 17.2764C131.306 18.5032 131.025 19.3331 131.025 19.3331C131.025 19.3331 131.03 16.023 131.035 14.7674C131.037 14.2937 130.712 14.1359 130.615 14.1073C130.174 13.9793 129.305 13.7655 128.936 13.7655C128.481 13.7655 128.369 14.0198 128.369 14.3904C128.369 14.4389 128.298 18.7485 128.298 21.7619C128.298 21.8928 128.298 22.0357 128.299 22.1874C128.047 23.5724 127.231 25.4525 126.343 25.4525C125.455 25.4525 125.035 24.6665 125.035 21.074C125.035 18.9782 125.098 18.0669 125.129 16.5511C125.147 15.678 125.182 15.0076 125.18 14.8554C125.173 14.3889 124.367 14.1537 123.991 14.0668C123.614 13.9792 123.286 13.9452 123.03 13.9598C122.668 13.9802 122.412 14.2179 122.412 14.5447C122.412 14.72 122.414 15.0533 122.414 15.0533C121.947 14.3201 121.197 13.8098 120.697 13.6619C119.353 13.2625 117.949 13.6164 116.891 15.0975C116.05 16.2744 115.543 17.6073 115.343 19.5223C115.197 20.9223 115.245 22.342 115.504 23.5427C115.191 24.8975 114.609 25.4525 113.972 25.4525C113.047 25.4525 112.377 23.943 112.454 21.3324C112.506 19.6153 112.849 18.4103 113.225 16.667C113.385 15.9239 113.255 15.5348 112.929 15.1619C112.629 14.8199 111.992 14.6452 111.075 14.8601C110.422 15.0133 109.488 15.178 108.634 15.3046C108.634 15.3046 108.685 15.0989 108.728 14.7364C108.95 12.8349 106.884 12.9891 106.224 13.5965C105.831 13.9591 105.563 14.3867 105.461 15.1557C105.3 16.3759 106.295 16.9514 106.295 16.9514C105.969 18.446 105.168 20.3985 104.342 21.8102C103.899 22.5665 103.561 23.1269 103.124 23.7227C103.122 23.5009 103.121 23.2791 103.12 23.0583C103.11 19.9159 103.152 17.4428 103.17 16.5514C103.188 15.6783 103.223 15.0257 103.222 14.8735C103.217 14.5323 103.017 14.4034 102.603 14.2402C102.236 14.0959 101.803 13.996 101.353 13.9612C100.786 13.9169 100.444 14.2178 100.453 14.5737C100.455 14.6409 100.455 15.0534 100.455 15.0534C99.9883 14.3202 99.2379 13.8099 98.7386 13.662C97.3938 13.2628 95.9905 13.6167 94.932 15.0977C94.0909 16.2745 93.5401 17.9259 93.384 19.5078C93.2387 20.9822 93.2655 22.2351 93.4637 23.2906C93.2499 24.3474 92.6351 25.4526 91.9399 25.4526C91.0512 25.4526 90.5455 24.6666 90.5455 21.0741C90.5455 18.9783 90.6084 18.067 90.6393 16.5514C90.6573 15.6783 90.692 15.0077 90.69 14.8557C90.6835 14.3892 89.8766 14.154 89.5012 14.0669C89.1084 13.9761 88.7693 13.9427 88.5089 13.9619C88.1653 13.9875 87.9238 14.2951 87.9238 14.5246V15.0534C87.4572 14.3202 86.7068 13.8099 86.2075 13.662C84.8627 13.2628 83.4672 13.6224 82.4009 15.0977C81.7056 16.0596 81.1427 17.1261 80.853 19.4869C80.7692 20.1691 80.7323 20.8079 80.7371 21.4051C80.4598 23.1008 79.2351 25.0552 78.2334 25.0552C77.6472 25.0552 77.0889 23.9182 77.0889 21.495C77.0889 18.2672 77.2887 13.6714 77.3224 13.2285C77.3224 13.2285 78.5881 13.207 78.8333 13.2041C79.4646 13.1972 80.0364 13.2121 80.8773 13.1691C81.2991 13.1476 81.7054 11.634 81.2701 11.4466C81.0728 11.3618 79.6784 11.2875 79.1256 11.2758C78.6609 11.2653 77.3669 11.1695 77.3669 11.1695C77.3669 11.1695 77.4829 8.11908 77.51 7.79684C77.5329 7.52827 77.1854 7.38999 76.9861 7.30608C76.5016 7.10115 76.0681 7.00303 75.5542 6.8971C74.8443 6.75064 74.5223 6.8939 74.4593 7.49307C74.3646 8.40242 74.3155 11.0659 74.3155 11.0659C73.7946 11.0659 72.015 10.9641 71.4939 10.9641C71.0097 10.9641 70.4871 13.0463 71.1565 13.0719C71.9267 13.1018 73.2688 13.1275 74.1586 13.1544C74.1586 13.1544 74.119 17.8258 74.119 19.2681C74.119 19.4215 74.1203 19.5693 74.1206 19.7126C73.6309 22.265 71.9061 23.6438 71.9061 23.6438C72.2765 21.9552 71.5198 20.6872 70.1569 19.6138C69.6548 19.2183 68.6635 18.4694 67.5544 17.6488C67.5544 17.6488 68.1967 17.0157 68.7664 15.742C69.17 14.8398 69.1875 13.8073 68.1967 13.5796C66.5597 13.2031 65.2099 14.4054 64.8073 15.6889C64.4954 16.6832 64.6618 17.421 65.2728 18.1874C65.3175 18.2434 65.3658 18.3006 65.4158 18.3582C65.0462 19.0705 64.5386 20.0294 64.1086 20.773C62.9152 22.8377 62.0137 24.4708 61.3324 24.4708C60.7878 24.4708 60.7951 22.8128 60.7951 21.2604C60.7951 19.9221 60.894 17.9101 60.9729 15.827C60.999 15.138 60.6545 14.7456 60.077 14.3901C59.7262 14.1741 58.9773 13.7495 58.5436 13.7495C57.8945 13.7495 56.0216 13.8378 54.252 18.9567C54.029 19.6019 53.5909 20.7775 53.5909 20.7775L53.6286 14.6219C53.6286 14.4775 53.5517 14.338 53.3757 14.2426C53.0775 14.0806 52.2811 13.7495 51.5729 13.7495C51.2355 13.7495 51.0671 13.9065 51.0671 14.2193L51.0053 23.8498C51.0053 24.5815 51.0244 25.4352 51.0967 25.8085C51.1688 26.1823 51.2856 26.4865 51.4302 26.6674C51.5746 26.848 51.7417 26.9857 52.0171 27.0426C52.2734 27.0954 53.6771 27.2756 53.7501 26.7392C53.8375 26.0963 53.8409 25.401 54.5779 22.8077C55.7254 18.7702 57.2215 16.8003 57.9248 16.1007C58.0478 15.9784 58.1882 15.9711 58.1815 16.1713C58.1514 17.0564 58.0459 19.2683 57.9748 21.1474C57.7843 26.1761 58.6991 27.1082 60.0064 27.1082C61.0066 27.1082 62.4164 26.1144 63.9278 23.5988C64.87 22.0311 65.7848 20.494 66.4421 19.3861C66.9002 19.8101 67.4142 20.2665 67.9279 20.754C69.1216 21.887 69.5135 22.9636 69.2535 23.9849C69.0546 24.7656 68.3056 25.5703 66.9725 24.7882C66.584 24.56 66.4181 24.3838 66.0274 24.1265C65.8175 23.9883 65.4971 23.947 65.3049 24.0918C64.8058 24.4681 64.5204 24.9468 64.3574 25.5394C64.1988 26.116 64.7763 26.4208 65.375 26.6874C65.8904 26.9169 66.9983 27.1248 67.7048 27.1485C70.4577 27.2406 72.663 25.8193 74.1981 22.1532C74.4729 25.3193 75.6425 27.111 77.6745 27.111C79.033 27.111 80.395 25.355 80.9906 23.6276C81.1616 24.3317 81.4147 24.9441 81.7416 25.4619C83.3073 27.9427 86.3448 27.4087 87.8705 25.3021C88.3423 24.6512 88.4141 24.4173 88.4141 24.4173C88.6366 26.4064 90.2384 27.1014 91.1556 27.1014C92.1828 27.1014 93.2434 26.6158 93.9867 24.9424C94.0738 25.124 94.1689 25.2974 94.2727 25.4618C95.8384 27.9426 98.8759 27.4087 100.402 25.3021C100.474 25.2033 100.536 25.1136 100.591 25.0332L100.635 26.3397C100.635 26.3397 99.765 27.1382 99.2307 27.628C96.8791 29.7855 95.091 31.4223 94.9595 33.3284C94.7906 35.7589 96.7618 36.6622 98.2531 36.7806C99.8368 36.9063 101.193 36.0314 102.027 34.8071C102.76 33.7294 103.24 31.4101 103.204 29.1193C103.19 28.202 103.167 27.0356 103.149 25.7854C103.976 24.8256 104.907 23.6124 105.764 22.1925C106.699 20.645 107.7 18.5668 108.213 16.9495C108.213 16.9495 109.083 16.957 110.012 16.8962C110.309 16.8769 110.394 16.9375 110.339 17.1552C110.273 17.4183 109.166 21.6873 110.176 24.5312C110.867 26.478 112.426 27.1044 113.35 27.1044C114.432 27.1044 115.467 26.2875 116.021 25.0744C116.088 25.2096 116.158 25.3405 116.234 25.4613C117.8 27.9421 120.827 27.4049 122.363 25.3016C122.71 24.827 122.907 24.4167 122.907 24.4167C123.236 26.4754 124.837 27.1113 125.754 27.1113C126.709 27.1113 127.616 26.7197 128.351 24.9795C128.382 25.7457 128.431 26.3723 128.507 26.5698C128.554 26.6906 128.825 26.8422 129.022 26.9155C129.896 27.2395 130.787 27.0863 131.117 27.0196C131.346 26.9734 131.524 26.7902 131.548 26.317C131.612 25.0746 131.573 22.9871 131.949 21.4358C132.582 18.8322 133.171 17.8223 133.451 17.3223C133.608 17.0421 133.784 16.9959 133.791 17.2924C133.804 17.8923 133.834 19.6539 134.079 22.0208C134.259 23.7615 134.499 24.7903 134.684 25.116C135.211 26.0472 135.861 26.0913 136.392 26.0913C136.729 26.0913 137.434 25.9981 137.371 25.4055C137.34 25.1167 137.394 23.3316 138.017 20.7666C138.424 19.0915 139.103 17.578 139.348 17.0247C139.438 16.8207 139.48 16.9815 139.478 17.0129C139.427 18.1664 139.311 21.9396 139.781 24.0032C140.418 26.7987 142.261 27.1115 142.903 27.1115C144.274 27.1115 145.395 26.0687 145.773 23.3247C145.864 22.6644 145.729 22.1545 145.326 22.1545" fill="white"/>
<defs>
<radialGradient id="paint0_radial_1686_5689" cx="0" cy="0" r="1" gradientUnits="userSpaceOnUse" gradientTransform="translate(4.51808 37.5542) scale(44.3841 44.3841)">
<stop offset="0.09" stop-color="#FA8F21"/>
<stop offset="0.78" stop-color="#D82D7E"/>
</radialGradient>
<radialGradient id="paint1_radial_1686_5689" cx="0" cy="0" r="1" gradientUnits="userSpaceOnUse" gradientTransform="translate(20.6205 39.0774) scale(34.9808)">
<stop offset="0.64" stop-color="#8C3AAA" stop-opacity="0"/>
<stop offset="1" stop-color="#8C3AAA"/>
</radialGradient>
<clipPath id="clip0_1686_5689">
<rect width="34" height="34" fill="white" transform="translate(0 3.39355)"/>
</clipPath>
</defs>
</svg>
