<svg width="23" height="14" viewBox="0 0 23 14" fill="none" xmlns="http://www.w3.org/2000/svg">
<path d="M0 10.5657V9.14273L5.55935 1.16772H7.84265V8.92764H9.3814V10.5657H7.84265V13.0806H5.98953V10.5657H0ZM6.07226 3.08701L2.16748 8.92764H6.07226V3.08701Z" fill="white"/>
<path d="M11.6227 13.1964C11.2807 13.1964 10.994 13.0806 10.7623 12.849C10.5307 12.6173 10.4149 12.3305 10.4149 11.9886C10.4149 11.6466 10.5307 11.3599 10.7623 11.1282C10.994 10.8966 11.2807 10.7808 11.6227 10.7808C11.9536 10.7808 12.2349 10.8966 12.4665 11.1282C12.6982 11.3599 12.814 11.6466 12.814 11.9886C12.814 12.3305 12.6982 12.6173 12.4665 12.849C12.2349 13.0806 11.9536 13.1964 11.6227 13.1964Z" fill="white"/>
<path d="M16.3086 6.7767C15.1614 6.20312 14.5879 5.29862 14.5879 4.06321C14.5879 3.46757 14.7368 2.92156 15.0346 2.42519C15.3324 1.92882 15.7791 1.53724 16.3748 1.25044C16.9704 0.952622 17.6984 0.803711 18.5588 0.803711C19.4082 0.803711 20.1307 0.952622 20.7263 1.25044C21.333 1.53724 21.7852 1.92882 22.083 2.42519C22.3809 2.92156 22.5298 3.46757 22.5298 4.06321C22.5298 4.68091 22.3698 5.22692 22.05 5.70123C21.7411 6.16451 21.3275 6.523 20.809 6.7767C21.4378 7.00834 21.9341 7.38889 22.2981 7.91835C22.6621 8.43678 22.8441 9.04897 22.8441 9.75492C22.8441 10.4719 22.6621 11.1062 22.2981 11.6577C21.9341 12.2092 21.4267 12.6339 20.7759 12.9317C20.1251 13.2295 19.3861 13.3784 18.5588 13.3784C17.7315 13.3784 16.9925 13.2295 16.3417 12.9317C15.7019 12.6339 15.2 12.2092 14.836 11.6577C14.472 11.1062 14.29 10.4719 14.29 9.75492C14.29 9.03794 14.472 8.42024 14.836 7.90181C15.2 7.38337 15.6909 7.00834 16.3086 6.7767ZM20.7263 4.29485C20.7263 3.67714 20.5333 3.20283 20.1472 2.87192C19.7611 2.54101 19.2317 2.37555 18.5588 2.37555C17.897 2.37555 17.373 2.54101 16.987 2.87192C16.6009 3.20283 16.4079 3.68266 16.4079 4.31139C16.4079 4.86292 16.6064 5.31517 17.0035 5.66814C17.4117 6.01008 17.9301 6.18106 18.5588 6.18106C19.1876 6.18106 19.706 6.00457 20.1141 5.65159C20.5222 5.29862 20.7263 4.84637 20.7263 4.29485ZM18.5588 7.60398C17.8308 7.60398 17.2352 7.78599 16.7719 8.14999C16.3196 8.50297 16.0935 9.01588 16.0935 9.68874C16.0935 10.3175 16.3141 10.8304 16.7553 11.2275C17.1966 11.6136 17.7977 11.8066 18.5588 11.8066C19.3089 11.8066 19.899 11.608 20.3292 11.2109C20.7704 10.8138 20.991 10.3064 20.991 9.68874C20.991 9.02691 20.7649 8.514 20.3127 8.14999C19.8714 7.78599 19.2868 7.60398 18.5588 7.60398Z" fill="white"/>
</svg>
