<svg width="72" height="15" viewBox="0 0 72 15" fill="none" xmlns="http://www.w3.org/2000/svg">
<path fill-rule="evenodd" clip-rule="evenodd" d="M5.13999 12.3034C4.84035 12.4597 4.47786 12.4322 4.20529 12.2324C3.93271 12.0327 3.79748 11.6955 3.85657 11.3629L4.33482 8.62343L2.32132 6.69512C2.07521 6.46057 1.98501 6.106 2.08915 5.78246C2.19329 5.45892 2.47342 5.2234 2.81021 5.17623L5.60582 4.77686L6.86796 2.26073C7.01761 1.95897 7.32548 1.76807 7.66248 1.76807C7.99948 1.76807 8.30736 1.95897 8.45701 2.26073L9.71914 4.77686L12.5147 5.17623C12.8515 5.2234 13.1317 5.45892 13.2358 5.78246C13.34 6.106 13.2498 6.46057 13.0036 6.69512L10.9901 8.62343L11.4684 11.3635C11.5275 11.696 11.3922 12.0333 11.1197 12.233C10.8471 12.4328 10.4846 12.4603 10.185 12.304L7.66248 11.0013L5.13999 12.3034Z" fill="#EAAD62"/>
<path fill-rule="evenodd" clip-rule="evenodd" d="M19.322 12.3034C19.0224 12.4597 18.6599 12.4322 18.3873 12.2324C18.1147 12.0327 17.9795 11.6955 18.0386 11.3629L18.5168 8.62343L16.5033 6.69512C16.2572 6.46057 16.167 6.106 16.2712 5.78246C16.3753 5.45892 16.6554 5.2234 16.9922 5.17623L19.7878 4.77686L21.05 2.26073C21.1996 1.95897 21.5075 1.76807 21.8445 1.76807C22.1815 1.76807 22.4894 1.95897 22.639 2.26073L23.9012 4.77686L26.6968 5.17623C27.0336 5.2234 27.3137 5.45892 27.4178 5.78246C27.522 6.106 27.4318 6.46057 27.1857 6.69512L25.1722 8.62343L25.6504 11.3635C25.7095 11.696 25.5743 12.0333 25.3017 12.233C25.0291 12.4328 24.6666 12.4603 24.367 12.304L21.8445 11.0013L19.322 12.3034Z" fill="#EAAD62"/>
<path fill-rule="evenodd" clip-rule="evenodd" d="M33.504 12.3034C33.2044 12.4597 32.8419 12.4322 32.5693 12.2324C32.2967 12.0327 32.1615 11.6955 32.2206 11.3629L32.6988 8.62343L30.6853 6.69512C30.4392 6.46057 30.349 6.106 30.4532 5.78246C30.5573 5.45892 30.8374 5.2234 31.1742 5.17623L33.9698 4.77686L35.232 2.26073C35.3816 1.95897 35.6895 1.76807 36.0265 1.76807C36.3635 1.76807 36.6714 1.95897 36.821 2.26073L38.0832 4.77686L40.8788 5.17623C41.2156 5.2234 41.4957 5.45892 41.5998 5.78246C41.704 6.106 41.6138 6.46057 41.3677 6.69512L39.3542 8.62343L39.8324 11.3635C39.8915 11.696 39.7563 12.0333 39.4837 12.233C39.2111 12.4328 38.8486 12.4603 38.549 12.304L36.0265 11.0013L33.504 12.3034Z" fill="#EAAD62"/>
<path fill-rule="evenodd" clip-rule="evenodd" d="M47.686 12.3034C47.3864 12.4597 47.0239 12.4322 46.7513 12.2324C46.4788 12.0327 46.3435 11.6955 46.4026 11.3629L46.8809 8.62343L44.8674 6.69512C44.6212 6.46057 44.531 6.106 44.6352 5.78246C44.7393 5.45892 45.0195 5.2234 45.3562 5.17623L48.1519 4.77686L49.414 2.26073C49.5636 1.95897 49.8715 1.76807 50.2085 1.76807C50.5455 1.76807 50.8534 1.95897 51.003 2.26073L52.2652 4.77686L55.0608 5.17623C55.3976 5.2234 55.6777 5.45892 55.7819 5.78246C55.886 6.106 55.7958 6.46057 55.5497 6.69512L53.5362 8.62343L54.0144 11.3635C54.0735 11.696 53.9383 12.0333 53.6657 12.233C53.3931 12.4328 53.0306 12.4603 52.731 12.304L50.2085 11.0013L47.686 12.3034Z" fill="#EAAD62"/>
<path fill-rule="evenodd" clip-rule="evenodd" d="M61.868 12.3034C61.5684 12.4597 61.2059 12.4322 60.9333 12.2324C60.6607 12.0327 60.5255 11.6955 60.5846 11.3629L61.0629 8.62343L59.0494 6.69512C58.8032 6.46057 58.713 6.106 58.8172 5.78246C58.9213 5.45892 59.2015 5.2234 59.5382 5.17623L62.3339 4.77686L63.596 2.26073C63.7456 1.95897 64.0535 1.76807 64.3905 1.76807C64.7275 1.76807 65.0354 1.95897 65.185 2.26073L66.4472 4.77686L69.2428 5.17623C69.5796 5.2234 69.8597 5.45892 69.9639 5.78246C70.068 6.106 69.9778 6.46057 69.7317 6.69512L67.7182 8.62343L68.1964 11.3635C68.2555 11.696 68.1203 12.0333 67.8477 12.233C67.5751 12.4328 67.2126 12.4603 66.913 12.304L64.3905 11.0013L61.868 12.3034Z" fill="#434B60"/>
<path d="M64.3905 1.76807C64.3904 1.76807 64.3905 1.76807 64.3905 1.76807C64.0535 1.76807 63.7456 1.95897 63.5959 2.26073L62.3338 4.77686L59.5382 5.17623C59.2014 5.2234 58.9213 5.45892 58.8171 5.78246C58.713 6.106 58.8032 6.46057 59.0493 6.69512L61.0628 8.62343L60.5846 11.3629C60.5255 11.6955 60.6607 12.0327 60.9333 12.2324C61.2058 12.4322 61.5683 12.4597 61.868 12.3034L64.3905 11.0013V1.76807Z" fill="#EAAD62"/>
</svg>
