<svg width="92" height="92" viewBox="0 0 92 92" fill="none" xmlns="http://www.w3.org/2000/svg">
<path d="M91 46C91 52.0425 89.8129 57.805 87.6509 63.0656C86.3673 66.1834 84.7458 69.1274 82.8252 71.8494C82.3812 72.4961 81.9083 73.1236 81.4257 73.7413C81.3775 73.7992 81.3389 73.8571 81.2906 73.9054C81.252 73.9537 81.2134 74.0019 81.1651 74.0502C79.5147 76.1255 77.6906 78.056 75.6928 79.8031C75.2198 80.2278 74.7276 80.6332 74.2354 81.029C72.5174 82.4189 70.7029 83.6737 68.7823 84.7934C67.4407 85.5946 66.0413 86.3185 64.6129 86.9749C64.1786 87.1776 63.7346 87.3707 63.281 87.554C61.6113 88.2587 59.8836 88.8571 58.1078 89.3494C55.5501 90.0637 52.9056 90.556 50.1839 90.7973C49.6434 90.8552 49.103 90.8938 48.5528 90.9228C47.7131 90.971 46.8638 91 46.0048 91C45.1458 91 44.2193 90.971 43.341 90.9228C42.6558 90.8842 41.9705 90.8263 41.2853 90.7587C40.2719 90.6525 39.2681 90.5077 38.274 90.334C38.0037 90.2857 37.7432 90.2374 37.4826 90.1892C37.0965 90.112 36.7201 90.0347 36.334 89.9479C35.8997 89.8513 35.4558 89.7452 35.0214 89.639C34.8188 89.5907 34.6064 89.5425 34.4038 89.4846C33.9791 89.3687 33.5544 89.2529 33.1298 89.1274C33.0911 89.1178 33.0622 89.1081 33.0236 89.0985C31.7882 88.722 30.5528 88.2973 29.3657 87.8147C29.3271 87.7954 29.2885 87.7857 29.2499 87.7664C28.4005 87.4286 27.5609 87.0618 26.7405 86.666C26.1903 86.4151 25.6499 86.1448 25.119 85.8552C24.3759 85.4788 23.6424 85.0637 22.9282 84.6293C22.629 84.4556 22.3298 84.2722 22.0499 84.0792C21.9823 84.0502 21.9147 84.0019 21.8568 83.9633C21.6349 83.8378 21.4225 83.693 21.2005 83.5483C21.1812 83.5386 21.1716 83.5289 21.1523 83.5096C20.6504 83.1815 20.1389 82.834 19.6467 82.4768C19.3861 82.2838 19.1255 82.1004 18.8745 81.9073C17.3689 80.7683 15.9405 79.5425 14.5893 78.2201C14.5314 78.1718 14.4831 78.1139 14.4252 78.0656C14.2708 77.9112 14.1164 77.7471 13.9716 77.5927C13.8268 77.4382 13.6724 77.2934 13.5373 77.139C10.7673 74.2722 8.39304 71.0483 6.48205 67.5348C6.11529 66.8687 5.76783 66.1834 5.43968 65.4884C5.15979 64.9286 4.90884 64.3591 4.6579 63.7799C2.30294 58.3262 1 52.3127 1 46C1 21.1448 21.1523 1 46.0048 1C70.8574 1 91 21.1448 91 46Z" fill="#E5E6FB"/>
<path d="M81.1653 74.0505C79.5149 76.1258 77.6908 78.0563 75.6929 79.8034C75.22 80.2281 74.7278 80.6335 74.2356 81.0293C72.5176 82.4192 70.7031 83.674 68.7825 84.7937C67.4409 85.5949 66.0415 86.3188 64.613 86.9752C64.1787 87.1779 63.7347 87.371 63.2811 87.5543C60.7814 70.1702 67.9331 57.9211 67.9331 57.9211C67.9331 57.9211 74.2548 63.8961 81.1653 74.0505Z" fill="#92B4EA"/>
<path d="M47.0572 39.8225H36.5178L26.0459 67.9499L66.2733 64.9576C66.2733 64.9576 68.6572 52.39 62.0845 40.5754C55.5118 28.7607 47.0572 39.8225 47.0572 39.8225Z" fill="#0A1330"/>
<path d="M45.7633 29.0019L33.3419 61.2605C33.3419 61.2605 30.6105 81.7818 26.7403 86.6659C26.1901 86.415 25.6496 86.1447 25.1188 85.8551C24.3756 85.4787 23.6421 85.0636 22.9279 84.6293C22.6287 84.4555 22.3295 84.2721 22.0496 84.0791C21.9821 84.0501 21.9145 84.0019 21.8566 83.9632C21.6346 83.8378 21.4223 83.693 21.2003 83.5482C21.181 83.5385 21.1714 83.5289 21.1521 83.5096C20.6502 83.1814 20.1387 82.8339 19.6464 82.4768C19.3858 82.2837 19.1252 82.1003 18.8743 81.9073C17.3687 80.7683 15.9403 79.5424 14.589 78.22C14.3767 78.0173 14.1644 77.8049 13.9714 77.5926C13.8266 77.4381 13.6722 77.2934 13.537 77.1389C10.7671 74.2721 8.39281 71.0482 6.48181 67.5347C6.11506 66.8687 5.7676 66.1833 5.43945 65.4883C6.37565 63.1331 7.75581 61.2123 9.43516 60.1698C16.0657 56.0675 19.1639 59.6775 21.9531 56.3088C25.6689 51.8397 21.3933 48.8281 23.3815 42.8242C25.418 36.6949 29.7901 36.8204 33.8051 34.3397C37.5113 32.0617 37.2025 26.8976 37.6175 24.832C37.8395 23.7123 38.0132 24.2046 38.3413 24.4169L45.7633 29.0019Z" fill="#0A1330"/>
<path d="M37.8015 27.9404C37.3671 26.9848 37.2031 25.923 37.3672 24.8902C37.5409 23.7801 37.8787 22.5929 38.12 21.9462C39.3361 18.7319 42.7816 12.7763 51.5355 13.6547C63.4358 14.8516 62.0846 36.2222 62.0846 36.2222L40.8031 34.6006L37.8015 27.95V27.9404Z" fill="#0A1330"/>
<path d="M74.2353 81.0288C72.5174 82.4188 70.7029 83.6736 68.7822 84.7933C67.4407 85.5945 66.0412 86.3184 64.6128 86.9748C62.5281 87.9304 60.3565 88.7219 58.1077 89.3493C55.5501 90.0636 52.9056 90.5559 50.1839 90.7972C49.6434 90.8551 49.1029 90.8937 48.5528 90.9227C47.7131 90.9709 46.8638 90.9999 46.0048 90.9999C45.1458 90.9999 44.2192 90.9709 43.341 90.9227C42.6557 90.884 41.9705 90.8261 41.2852 90.7586C40.2718 90.6524 39.268 90.5076 38.2739 90.3339C37.6176 90.218 36.9806 90.0925 36.334 89.9477C35.8997 89.8512 35.4557 89.745 35.0214 89.6389C34.8187 89.5906 34.6064 89.5423 34.4037 89.4844C33.979 89.3686 33.5544 89.2528 33.1297 89.1273C31.8557 88.7508 30.5914 88.3068 29.3656 87.8145C29.327 87.7952 29.2884 87.7856 29.2498 87.7663C27.831 87.1968 26.4509 86.5694 25.119 85.8551C24.3758 85.4786 23.6423 85.0636 22.9281 84.6292C22.6289 84.4555 22.3297 84.2721 22.0498 84.079C22.9474 74.803 24.9066 66.4246 28.6997 61.6755C32.2514 57.245 36.2085 54.4072 39.9147 52.5925C47.6166 48.8281 54.334 49.4555 54.334 49.4555C65.7227 50.8551 71.9286 62.5057 73.386 69.9671C73.7142 71.6562 73.994 75.7296 74.2353 81.0288Z" fill="#F89E1F"/>
<path d="M57.9724 55.5266C57.9724 55.5266 57.3064 56.8201 53.4169 56.4629C47.4233 55.9031 45.5027 53.2293 45.5027 53.2293L45.2324 42.9977L47.0662 43.3548L57.9241 45.4591L57.9434 50.4494L57.982 55.5266H57.9724Z" fill="#EBA995"/>
<path d="M57.935 50.449C55.0781 50.1595 49.6057 48.982 47.3859 44.33C47.2025 43.9729 47.0963 43.6255 47.0674 43.3649L57.9253 45.4689L57.9446 50.4587L57.935 50.449Z" fill="#0A1330"/>
<path d="M59.6138 22.1003C59.6138 22.1003 65.2985 34.7837 63.3682 41.9651C61.4283 49.1466 54.9039 48.0752 50.9854 46.7335C47.0669 45.3918 45.2331 43.0076 45.2331 43.0076C45.2331 43.0076 41.6042 44.2817 39.1334 40.913C36.6626 37.5443 38.1296 33.6447 40.195 32.7277C42.2701 31.8203 44.7602 33.2972 44.7602 33.2972L42.7816 29.6099C42.7816 29.6099 50.7634 10.72 59.6138 22.1003Z" fill="#EBA995"/>
<path d="M61.4864 32.8723C61.2547 32.8723 61.0424 32.6986 61.0135 32.4573L60.666 30.0927C60.6467 29.9576 60.6853 29.8128 60.7722 29.7066L61.718 28.5967C61.8917 28.394 62.2006 28.3747 62.3936 28.5388C62.5963 28.7125 62.6156 29.0117 62.4515 29.2241L61.6408 30.1699L61.9593 32.3222C61.9979 32.5828 61.8145 32.8337 61.5539 32.8723C61.5346 32.8723 61.5057 32.8723 61.4864 32.8723Z" fill="#0A1330"/>
<path d="M52.2303 28.8956C52.153 28.8956 52.0758 28.8763 52.0083 28.8377C51.767 28.7122 51.6801 28.4227 51.7959 28.1911C52.6839 26.4634 54.8651 26.9074 54.9616 26.9267C55.2222 26.9846 55.3863 27.2356 55.3284 27.4962C55.2705 27.7567 55.0195 27.9208 54.7589 27.8726C54.701 27.8629 53.2051 27.5637 52.6549 28.635C52.5681 28.7991 52.404 28.8956 52.2206 28.8956H52.2303Z" fill="#0A1330"/>
<path d="M61.3119 27.4286C61.1574 27.4286 61.003 27.3514 60.9161 27.2163C60.8293 27.0812 60.4915 26.7048 60.173 26.7048C59.9124 26.7048 59.6711 26.9847 59.507 27.2163C59.3526 27.4383 59.0534 27.4962 58.8411 27.3418C58.6191 27.1873 58.5612 26.8881 58.7156 26.6758C59.1403 26.0581 59.6325 25.7493 60.173 25.7493C61.0609 25.7493 61.6497 26.5793 61.7172 26.6758C61.8716 26.8978 61.8137 27.197 61.5917 27.3418C61.5049 27.3997 61.418 27.4286 61.3215 27.4286H61.3119Z" fill="#0A1330"/>
<path d="M44.7602 33.2972C44.7602 33.2972 50.3387 33.442 54.1414 27.3513C57.9441 21.2509 57.5001 19.7065 57.5001 19.7065L61.2932 25.9999C61.2932 25.9999 62.1425 21.637 60.3956 18.8571C58.6487 16.0771 56.8342 16.6563 56.8342 16.6563L44.7602 19.6775L41.5752 29.359L44.7602 33.3069V33.2972Z" fill="#0A1330"/>
<path d="M54.4407 33.4415C54.1994 33.4415 53.9968 33.2677 53.9581 33.0168L53.659 30.6425C53.6396 30.4881 53.6976 30.3433 53.8037 30.2372L55.0295 29.0597C55.2225 28.8763 55.5313 28.8763 55.7147 29.0693C55.8981 29.2624 55.8981 29.5712 55.7051 29.7546L54.6531 30.768L54.9233 32.901C54.9522 33.1616 54.7689 33.4029 54.5083 33.4415C54.489 33.4415 54.4697 33.4415 54.4504 33.4415H54.4407Z" fill="#0A1330"/>
<path d="M60.2122 37.5628C59.9516 37.5628 59.7296 37.3505 59.7296 37.0899C59.691 34.6288 58.2336 31.4148 58.224 31.3859C58.1081 31.1446 58.224 30.855 58.4652 30.7489C58.7065 30.6427 58.9961 30.7489 59.1023 30.9902C59.1698 31.1253 60.6658 34.4261 60.7044 37.0802C60.7044 37.3505 60.4921 37.5628 60.2315 37.5725L60.2122 37.5628Z" fill="#0A1330"/>
<path d="M57.1809 42.3995C57.123 42.3995 57.0651 42.3995 57.0071 42.3995C55.3278 42.2837 54.4495 40.0928 54.4109 40.0059C54.3433 39.8419 54.3723 39.6585 54.4881 39.5234C54.5943 39.3882 54.768 39.3207 54.9417 39.3496L59.3042 40.0928C59.4586 40.1218 59.5841 40.2183 59.6613 40.3534C59.7289 40.4982 59.7289 40.6526 59.6517 40.7974C59.613 40.8649 58.7637 42.3995 57.1905 42.3995H57.1809ZM55.7621 40.4596C56.0903 40.9228 56.5439 41.3861 57.0747 41.4247C57.6055 41.4633 58.0399 41.1834 58.3391 40.9035L55.7524 40.4596H55.7621Z" fill="#0A1330"/>
<path d="M44.2962 38.6635C44.1707 38.6635 44.0453 38.6152 43.9487 38.5187L40.4549 34.9284C40.2715 34.7353 40.2715 34.4362 40.4549 34.2431C40.6479 34.0597 40.9471 34.0597 41.1402 34.2431L44.634 37.8335C44.8174 38.0265 44.8174 38.3257 44.634 38.5187C44.5375 38.6056 44.4217 38.6538 44.2962 38.6538V38.6635Z" fill="#0A1330"/>
<path d="M40.1079 38.6638C39.9052 38.6638 39.7218 38.5383 39.6543 38.3453C39.5674 38.0943 39.7025 37.8144 39.9535 37.7276L43.0709 36.6273C43.3218 36.5404 43.6017 36.6756 43.6886 36.9265C43.7755 37.1774 43.6403 37.4573 43.3894 37.5442L40.272 38.6445C40.2237 38.6638 40.1658 38.6734 40.1079 38.6734V38.6638Z" fill="#0A1330"/>
<path d="M54.9229 57.032C48.746 57.032 45.339 53.7505 45.1653 53.5767C44.9723 53.3934 44.9723 53.0845 45.1653 52.8915C45.3487 52.6984 45.6575 52.6984 45.8505 52.8915C45.8988 52.9397 50.7824 57.611 59.3337 55.5167C59.5942 55.4491 59.8548 55.6132 59.9127 55.8738C59.9803 56.1344 59.8162 56.395 59.5556 56.4529C57.8763 56.8679 56.332 57.032 54.9229 57.032Z" fill="#0A1330"/>
<path d="M42.5495 81.174C41.3528 84.9288 39.5479 87.8728 37.4825 90.1894C37.0965 90.1122 36.72 90.035 36.334 89.9481C35.8997 89.8516 35.4557 89.7454 35.0214 89.6392C34.8187 89.591 34.6064 89.5427 34.4037 89.4848C33.979 89.369 33.5544 89.2531 33.1297 89.1276C33.0911 89.118 33.0621 89.1083 33.0235 89.0987C31.7882 88.7222 30.5528 88.2975 29.3656 87.8149C29.327 87.7956 29.2884 87.7859 29.2498 87.7666C28.4005 87.4288 27.5608 87.062 26.7404 86.6663C26.1903 86.4153 25.6498 86.145 25.119 85.8554C24.3758 85.479 23.6423 85.0639 22.9281 84.6296C22.6289 84.4558 22.3297 84.2724 22.0498 84.0794C22.9474 74.8033 24.9066 66.4249 28.6997 61.6759C32.2514 57.2454 36.2085 54.4076 39.9147 52.5929C42.26 57.7859 46.3426 69.34 42.5495 81.174Z" fill="#92B4EA"/>
<path d="M36.3732 54.6195L33.0242 89.0983C31.7888 88.7218 30.5534 88.2971 29.3663 87.8145C29.3277 87.7952 29.2891 87.7855 29.2504 87.7662C28.4011 87.4284 27.5614 87.0616 26.7411 86.6658C26.1909 86.4149 25.6504 86.1446 25.1196 85.855C24.3765 85.4786 23.6429 85.0635 22.9287 84.6292C22.6295 84.4554 22.3303 84.272 22.0504 84.079C21.9829 84.05 21.9153 84.0017 21.8574 83.9631C21.6354 83.8377 21.4231 83.6929 21.2011 83.5481C21.1818 83.5384 21.1722 83.5288 21.1529 83.5095C20.651 83.1813 20.1395 82.8338 19.6472 82.4766C19.3866 82.2836 19.126 82.1002 18.8751 81.9072C17.3695 80.7682 15.9411 79.5423 14.5899 78.2199C14.5319 78.1716 14.4837 78.1137 14.4258 78.0654C22.34 63.3261 36.3732 54.6195 36.3732 54.6195Z" fill="#92B4EA"/>
<circle cx="46" cy="46" r="45" stroke="white" stroke-width="2"/>
</svg>
