<svg width="92" height="92" viewBox="0 0 92 92" fill="none" xmlns="http://www.w3.org/2000/svg">
<path d="M91 46C91 54.5907 88.5869 62.6216 84.417 69.4556C82.4962 72.6023 80.2085 75.4788 77.5927 78.0463C76.6081 79.0212 75.5753 79.9575 74.5039 80.8359C72.7954 82.2355 71 83.5 69.0984 84.639C68.7799 84.8321 68.4518 85.0155 68.1236 85.2085C65.2278 86.8398 62.139 88.1622 58.8861 89.1274C54.8127 90.3436 50.4884 91 46 91C36.5985 91 27.8726 88.1139 20.6525 83.1815C19.1081 82.1294 17.6313 80.9807 16.2413 79.7452C14.7452 78.4324 13.3359 77.0135 12.0328 75.5077C11.7143 75.1409 11.4054 74.7741 11.0965 74.3977C4.78378 66.6564 1 56.7626 1 46C1 21.1448 21.1448 1 46 1C70.8552 1 91 21.1448 91 46Z" fill="#E8E1EF"/>
<path d="M39.1171 34.668C39.1171 34.668 18.6152 21.1545 25.7291 13.3842C32.843 5.61396 41.7812 24.9769 41.7812 24.9769L39.1268 34.668H39.1171Z" fill="#0A1330"/>
<path d="M77.5928 78.0463C76.6082 79.0212 75.5754 79.9575 74.504 80.8359C69.9576 84.5618 64.6681 87.4093 58.8862 89.1274C58.2298 70.2954 62.7569 59.0405 62.7569 59.0405C62.7569 59.0405 74.504 66.6564 77.5928 78.0463Z" fill="#F89E1F"/>
<path d="M51.9258 20.4788C51.9258 20.4788 41.1536 13.4711 34.6188 22.2066C28.2771 30.6815 34.474 40.305 34.474 40.305L49.1362 28.8765L51.9258 20.4884V20.4788Z" fill="#0A1330"/>
<path d="M74.5039 80.836C66.7433 87.1873 56.8205 91.0001 46 91.0001C34.5908 91.0001 24.1661 86.753 16.2414 79.7452C15.9325 75.0155 16.0966 71.1255 16.946 68.8862C20.8456 58.6449 38.9923 54.8804 38.9923 54.8804C38.9923 54.8804 51.473 54.8804 56.4923 56.2896C60.7201 57.4769 68.3456 61.3186 71.7916 68.1526C73.558 71.6468 74.2336 76.4634 74.5039 80.836Z" fill="#F89E1F"/>
<path d="M38.6833 45.604L38.22 55.6812C38.22 55.6812 39.9092 58.6639 45.7779 59.4071C50.1505 59.9669 51.7432 59.0403 51.7432 59.0403L51.3667 53.9052L50.9903 48.9052L40.4497 46.077L38.6833 45.604Z" fill="#A67154"/>
<path d="M40.4502 46.0776C40.4599 46.3576 40.5564 46.6857 40.7012 47.0622C42.7282 52.1973 48.8382 53.568 51.3672 53.9058L50.9908 48.9058L40.4502 46.0776Z" fill="#0A1330"/>
<path d="M54.2814 26.0385C54.2814 26.0385 58.9918 38.9149 56.5883 45.8358C54.1848 52.7566 47.8335 51.2605 44.0787 49.6582C40.3238 48.0559 38.6829 45.5945 38.6829 45.5945C38.6829 45.5945 35.0246 46.5887 32.8238 43.1138C30.6327 39.6292 32.3412 35.8937 34.4455 35.1408C36.5497 34.3879 38.8953 36.0192 38.8953 36.0192L37.2061 32.2547C37.2061 32.2547 46.3663 14.2238 54.2814 26.0385Z" fill="#A67154"/>
<path d="M38.8865 36.0192C38.8865 36.0192 44.1953 37.4864 48.3652 31.7528C52.5351 26.0192 52.3614 23.5385 52.3614 23.5385L55.6529 30.527C55.6529 30.527 56.7919 25.7586 55.2668 22.9015C53.7417 20.0443 51.9174 20.4883 51.9174 20.4883L39.8228 22.6119L36.0197 31.9169L38.8768 36.0192H38.8865Z" fill="#0A1330"/>
<path d="M39.9671 64.871C42.7374 64.871 45.2374 61.898 46.1157 60.7301C47.303 61.8112 50.5656 64.6297 52.7663 64.5428C53.3455 64.5235 53.8184 64.3208 54.1756 63.9251C55.1988 62.7957 53.1621 59.9579 52.2354 58.7899C52.1099 58.6258 51.8879 58.5679 51.6949 58.6355C43.0366 61.6953 38.3744 55.566 38.1814 55.3054C38.0655 55.1509 37.8821 55.0834 37.6987 55.122C37.5154 55.1606 37.3706 55.2957 37.3223 55.4791C37.2644 55.7108 35.9903 61.1548 37.5347 63.6065C37.9401 64.2436 38.4903 64.6394 39.1852 64.7841C39.4459 64.8421 39.7065 64.8614 39.9671 64.8614V64.871ZM45.2277 60.3054C44.2625 61.5506 41.7914 64.3498 39.3879 63.8478C38.9536 63.761 38.6158 63.51 38.3551 63.1046C37.3609 61.5409 37.7856 58.2494 38.0752 56.6374C39.1756 57.7475 41.608 59.7648 45.2181 60.3054H45.2277ZM51.6949 59.6587C52.9111 61.2513 53.7605 62.9598 53.4709 63.2687C53.2972 63.4617 53.0559 63.5583 52.747 63.5679C51.2895 63.6065 48.7605 61.7339 47.2548 60.4309C48.6061 60.4116 50.0926 60.1799 51.6949 59.649V59.6587Z" fill="#0A1330"/>
<path d="M20.6522 83.1815C19.1078 82.1294 17.6309 80.9807 16.241 79.7452C14.7448 78.4325 13.3356 77.0136 12.0325 75.5078C11.7139 75.141 11.4051 74.7742 11.0962 74.3977C18.6541 62.7085 26.2217 59.6294 26.2217 59.6294C26.2217 59.6294 18.7217 74.0406 20.6522 83.1815Z" fill="#F89E1F"/>
<path d="M69.0978 84.6391C68.7792 84.8322 68.4511 85.0156 68.1229 85.2086C68.2484 83.558 68.2194 81.6372 67.9105 79.4847C66.6074 70.6333 59.7831 67.5831 59.7155 67.5542C59.4839 67.4577 59.368 67.1777 59.4742 66.9461C59.5804 66.7048 59.8507 66.5986 60.0823 66.6951C60.3912 66.8302 67.4568 69.9866 68.8275 79.3496C69.1171 81.309 69.175 83.0851 69.0978 84.6391Z" fill="#0A1330"/>
<path d="M53.336 42.0137C53.5387 42.0137 53.7221 41.8883 53.7897 41.6856C54.7453 38.8188 52.7762 35.8361 52.6989 35.7106C52.5542 35.4886 52.2549 35.4307 52.0329 35.5755C51.8109 35.7203 51.753 36.0195 51.8978 36.2415C51.9171 36.2705 53.6835 38.9539 52.8727 41.3767C52.7858 41.6276 52.9209 41.8979 53.1816 41.9848C53.2298 42.0041 53.2877 42.0137 53.336 42.0137Z" fill="#0A1330"/>
<path d="M38.0849 42.0137C38.2007 42.0137 38.3165 41.9751 38.4034 41.8882C38.6061 41.7048 38.6158 41.4056 38.442 41.2029L34.8899 37.2646C34.7065 37.0716 34.4072 37.0523 34.2045 37.226C34.0018 37.4094 33.9922 37.7087 34.1659 37.9114L37.7181 41.8496C37.8146 41.9558 37.9401 42.0137 38.0752 42.0137H38.0849Z" fill="#0A1330"/>
<path d="M34.2529 40.9035C34.2529 40.9035 34.2915 40.9035 34.3108 40.9035L36.8398 40.5753C37.1004 40.5367 37.2934 40.2953 37.2548 40.0347C37.2162 39.7741 36.9749 39.5811 36.7143 39.6197L34.1853 39.9479C33.9247 39.9865 33.7317 40.2278 33.7703 40.4884C33.7993 40.7297 34.0116 40.9131 34.2529 40.9131V40.9035Z" fill="#0A1330"/>
<path d="M55.6524 31.0098C55.8744 31.0098 56.0771 30.8554 56.1254 30.6237C56.1736 30.3631 56.0096 30.1121 55.749 30.0542L53.9246 29.6874C53.6736 29.6295 53.413 29.8033 53.3551 30.0639C53.3069 30.3245 53.471 30.5755 53.7316 30.6334L55.5559 31.0002C55.5559 31.0002 55.6235 31.0002 55.6524 31.0002V31.0098Z" fill="#0A1330"/>
<path d="M46.2697 32.4284C46.3373 32.4284 46.4145 32.4091 46.4724 32.3801L49.6481 30.8743C49.8894 30.7585 49.9956 30.4689 49.8798 30.2276C49.7639 29.9863 49.4744 29.8898 49.2331 29.9959L46.0574 31.5017C45.8161 31.6176 45.7099 31.9071 45.8257 32.1485C45.9029 32.3222 46.0767 32.4284 46.2601 32.4284H46.2697Z" fill="#0A1330"/>
<path d="M55.102 36.6081C55.102 36.6081 55.1889 36.6081 55.2275 36.5888C55.4881 36.5213 55.6329 36.251 55.5653 35.9904L54.9572 33.7993L55.5557 33.1043C55.7294 32.9016 55.7101 32.5927 55.5074 32.419C55.3047 32.2452 54.9958 32.2645 54.8221 32.4672L54.0595 33.3553C53.9533 33.4807 53.9147 33.6448 53.963 33.7993L54.6483 36.2317C54.7062 36.444 54.8993 36.5888 55.1116 36.5888L55.102 36.6081Z" fill="#0A1330"/>
<path d="M48.0073 37.0906C48.0073 37.0906 48.0942 37.0906 48.1328 37.0713C48.3934 37.0038 48.5382 36.7335 48.4706 36.4729L47.8625 34.2914L48.7409 33.3165C48.9243 33.1138 48.905 32.8146 48.7023 32.6312C48.4996 32.4478 48.2003 32.4671 48.0169 32.6698L46.9648 33.8377C46.849 33.9632 46.8104 34.1273 46.8587 34.2914L47.544 36.7238C47.6019 36.9362 47.795 37.081 48.0073 37.081V37.0906Z" fill="#0A1330"/>
<path d="M51.7533 45.3243C52.0911 45.3243 52.429 45.2761 52.7861 45.1699C53.0371 45.0927 53.1818 44.8224 53.1143 44.5714C53.0371 44.3205 52.7764 44.1757 52.5158 44.2433C50.6915 44.7838 49.0216 43.1139 49.0023 43.1043C48.8093 42.9112 48.51 42.9112 48.317 43.1043C48.1239 43.2877 48.1239 43.5965 48.317 43.7896C48.3845 43.8668 49.8517 45.334 51.7629 45.334L51.7533 45.3243Z" fill="#0A1330"/>
<circle cx="46" cy="46" r="45" stroke="white" stroke-width="2"/>
</svg>
