<svg width="92" height="92" viewBox="0 0 92 92" fill="none" xmlns="http://www.w3.org/2000/svg">
<path d="M91 46C91 50.7008 90.2857 55.2374 88.944 59.4942C86.8977 66 83.4228 71.8687 78.8764 76.7239C78.7799 76.8398 78.6834 76.9459 78.5772 77.0521C78.4421 77.1969 78.2973 77.3417 78.1622 77.4768C69.9961 85.8166 58.6062 91 46 91C44.0502 91 42.11 90.8745 40.2278 90.6428C40.2085 90.6332 40.1988 90.6332 40.1795 90.6332C35.5463 90.0251 31.1255 88.722 27.0425 86.8205C26.7046 86.666 26.3668 86.5019 26.029 86.3378C19.3784 83.0463 13.6641 78.1429 9.38803 72.1486C9.02123 71.6274 8.65444 71.1062 8.30695 70.5656C7.43822 69.2529 6.64672 67.8919 5.93243 66.4923C2.77606 60.3436 1 53.3842 1 46C1 21.1448 21.1448 1 46 1C70.8552 1 91 21.1448 91 46Z" fill="#E5E6FB"/>
<path d="M78.8769 76.724C78.7804 76.8399 78.6839 76.946 78.5777 77.0522C78.4426 77.197 78.2978 77.3418 78.1627 77.4769C69.9966 85.8167 58.6067 91.0001 46.0005 91.0001C44.0507 91.0001 42.1105 90.8746 40.2283 90.643C40.209 90.6333 40.1993 90.6333 40.18 90.6333C35.5468 90.0252 31.126 88.7221 27.043 86.8206C27.4291 70.5175 27.265 56.2511 27.265 55.9808C27.4194 55.643 34.9677 53.7028 45.0159 53.3746C60.8268 52.8727 74.1858 61.7916 78.8769 76.724Z" fill="#92B4EA"/>
<path d="M40.2282 90.6431C40.2282 90.6431 40.1992 90.6334 40.1799 90.6334C35.5467 90.0253 31.1259 88.7222 27.0429 86.8207C26.705 86.6662 26.3672 86.5022 26.0294 86.3381C19.3788 83.0466 13.6645 78.1431 9.38843 72.1489C18.0564 60.2666 25.1413 56.8014 27.2649 55.9809C27.6992 55.8072 27.9212 55.7493 27.9212 55.7493L40.2282 90.6431Z" fill="#92B4EA"/>
<path d="M47.0332 27.1778C47.0332 27.1778 57.2455 27.9211 58.066 18.1334C58.9444 7.70873 49.3112 6.47321 45.1027 10.5852C40.8942 14.6971 41.5505 19.0118 41.5505 19.0118C41.5505 19.0118 38.761 16.367 35.5563 19.4462C33.2108 21.7145 34.2919 25.5369 34.2919 25.5369C34.2919 25.5369 29.0216 25.1991 29.398 29.813C29.7745 34.4269 33.0081 36.8497 33.0081 36.8497L47.0235 27.1682L47.0332 27.1778Z" fill="#0A1330"/>
<path d="M37.2356 44.9962L38.0271 55.8842C38.0271 55.8842 40.2182 58.8669 46.6275 58.9248C51.3958 58.9634 52.9885 57.7761 52.9885 57.7761L51.9267 52.3128L50.8842 46.9846L39.1951 45.2858L37.2356 44.9962Z" fill="#EBA995"/>
<path d="M39.1953 45.2759C39.2436 45.5751 39.3787 45.913 39.5911 46.2991C42.4193 51.5597 49.1664 52.245 51.927 52.2933L50.8845 46.9651L39.1953 45.2662V45.2759Z" fill="#0A1330"/>
<path d="M51.5013 21.9847C51.5013 21.9847 58.2098 35.2183 56.5013 42.9693C54.7928 50.7203 47.7851 49.9094 43.538 48.6739C39.2909 47.4384 37.2253 44.9963 37.2253 44.9963C37.2253 44.9963 33.4125 46.5311 30.6133 43.0755C27.8141 39.6102 29.1751 35.3728 31.3372 34.3013C33.4994 33.2203 36.2311 34.6778 36.2311 34.6778L33.9434 30.8554C33.9434 30.8554 41.4917 10.3149 51.5013 21.9944V21.9847Z" fill="#EBA995"/>
<path d="M36.2216 40.6235C36.1348 40.6235 36.0479 40.6042 35.9707 40.5559L31.7236 37.9498C31.4919 37.8146 31.4243 37.5154 31.5691 37.2837C31.7042 37.0521 32.0035 36.9845 32.2351 37.1293L36.4822 39.7355C36.7139 39.8706 36.7815 40.1698 36.6367 40.4015C36.5498 40.5463 36.3857 40.6332 36.2216 40.6332V40.6235Z" fill="#0A1330"/>
<path d="M32.699 40.913C32.5156 40.913 32.3515 40.8165 32.2647 40.6428C32.1488 40.4014 32.2454 40.1119 32.4867 39.996L34.7068 38.9053C34.9481 38.7895 35.2376 38.886 35.3535 39.1273C35.4693 39.3686 35.3728 39.6582 35.1315 39.774L32.9114 40.8648C32.8438 40.8937 32.7666 40.913 32.699 40.913Z" fill="#0A1330"/>
<path d="M53.2969 27.1583C53.2003 27.1583 53.1038 27.1294 53.0169 27.0715C51.8297 26.222 50.7003 26.9749 50.6521 27.0039C50.4301 27.1487 50.1308 27.1004 49.9861 26.8784C49.8413 26.6564 49.8895 26.3572 50.1115 26.2124C50.1791 26.1641 51.8393 25.0444 53.5864 26.2896C53.8085 26.444 53.8567 26.7433 53.7023 26.9653C53.6058 27.1004 53.461 27.168 53.3065 27.168L53.2969 27.1583Z" fill="#0A1330"/>
<path d="M51.5218 39.4847C51.5218 39.4847 51.4542 39.4847 51.4156 39.4751C51.155 39.4172 50.9909 39.1565 51.0488 38.8959C51.9368 34.8901 49.6492 32.1681 49.6299 32.1488C49.4561 31.9461 49.4754 31.6469 49.6782 31.4732C49.8809 31.2994 50.1801 31.3187 50.3538 31.5214C50.46 31.6469 52.9793 34.6102 51.9851 39.1083C51.9368 39.3303 51.7341 39.4847 51.5121 39.4847H51.5218Z" fill="#0A1330"/>
<path d="M53.1422 33.5671C52.8816 33.5671 52.6596 33.3548 52.6596 33.0942L52.6113 30.4976C52.6113 30.2274 52.814 30.015 53.0843 30.0054C53.3353 30.0054 53.5669 30.2177 53.5766 30.4783L53.6248 33.0749C53.6248 33.3451 53.4125 33.5575 53.1519 33.5671H53.1422Z" fill="#0A1330"/>
<path d="M45.9899 34.0696C45.7293 34.0696 45.5072 33.8573 45.5072 33.5967L45.459 31.0001C45.459 30.7299 45.6617 30.5175 45.932 30.5079C46.1926 30.4982 46.4146 30.7202 46.4242 30.9808L46.4725 33.5774C46.4725 33.8476 46.2601 34.06 45.9995 34.0696H45.9899Z" fill="#0A1330"/>
<path d="M52.8725 24.9768C52.8725 24.9768 51.5308 22.8726 48.8184 23.056C46.1061 23.2394 44.6582 25.2664 44.6582 25.2664C44.6582 25.2664 46.1833 29.7548 42.6698 32.4479C39.1563 35.1409 36.2509 34.6776 36.2509 34.6776L33.4999 33.9151L31.2509 30.1409L38.3937 21.222L48.0366 15.1989L53.4806 19.4653L52.8821 24.9768H52.8725Z" fill="#0A1330"/>
<path d="M49.3108 42.2161C48.4035 42.2161 46.6757 41.9555 45.6815 40.1698C45.5464 39.9381 45.6332 39.6389 45.8649 39.5134C46.0966 39.3879 46.3861 39.4651 46.5213 39.6968C47.5637 41.5501 49.668 41.2315 49.7549 41.2219C50.0155 41.1833 50.2664 41.357 50.305 41.6176C50.3533 41.8783 50.1699 42.1292 49.9093 42.1678C49.8803 42.1678 49.6487 42.2064 49.3108 42.2064V42.2161Z" fill="#0A1330"/>
<path d="M55.9999 37.5541C55.9999 37.5541 55.9226 37.5541 55.884 37.5541C54.6388 37.5252 53.4902 36.9943 52.6408 36.0676C51.7914 35.141 51.3377 33.9344 51.3763 32.6603C51.4439 30.0252 53.5964 27.9499 56.135 27.9981C58.6929 28.0657 60.7199 30.2568 60.6524 32.892C60.6234 34.1661 60.1118 35.3534 59.2141 36.2317C58.3454 37.0908 57.2064 37.5541 56.0095 37.5541H55.9999ZM56.0095 28.9634C54.0211 28.9634 52.3898 30.614 52.3319 32.6796C52.3029 33.7028 52.6697 34.668 53.3454 35.4113C54.0211 36.1449 54.9284 36.5599 55.9033 36.5889C56.8975 36.6178 57.8145 36.2414 58.5192 35.5464C59.2334 34.8418 59.6389 33.8958 59.6678 32.8727C59.7161 30.7684 58.1138 29.0213 56.0964 28.973C56.0674 28.973 56.0385 28.973 56.0095 28.973V28.9634Z" fill="white"/>
<path d="M44.9866 38.336C44.9866 38.336 44.9094 38.336 44.8611 38.336C42.226 38.2684 40.1411 36.0773 40.2086 33.4422C40.2762 30.8071 42.4577 28.7221 45.1025 28.7897C47.7376 28.8573 49.8225 31.0484 49.755 33.6835C49.6874 36.28 47.5638 38.3457 44.977 38.3457L44.9866 38.336ZM44.9866 29.7453C42.9306 29.7453 41.2318 31.3959 41.1739 33.4615C41.1256 35.5657 42.7858 37.3129 44.8901 37.3708C46.9943 37.4287 48.7414 35.7588 48.7994 33.6546C48.8476 31.5503 47.1874 29.8032 45.0831 29.7453C45.0542 29.7453 45.0156 29.7453 44.9866 29.7453Z" fill="white"/>
<path d="M48.8286 33.6449C48.5777 33.6449 48.3653 33.4422 48.346 33.1913C48.3267 32.921 48.5294 32.699 48.7997 32.6797L52.1587 32.4866C52.4194 32.4673 52.651 32.67 52.6703 32.9403C52.6896 33.2106 52.4869 33.4326 52.2167 33.4519L48.8576 33.6449C48.8576 33.6449 48.8383 33.6449 48.8286 33.6449Z" fill="white"/>
<path d="M40.6814 34.5715C40.6042 34.5715 40.527 34.5522 40.4498 34.5136C40.4015 34.4847 35.9421 32.1101 33.8282 34.253C33.6448 34.4461 33.3359 34.4461 33.1428 34.253C32.9498 34.0696 32.9498 33.7607 33.1428 33.5677C35.7683 30.9132 40.7007 33.5484 40.9131 33.6642C41.1448 33.7897 41.2316 34.0889 41.1062 34.3206C41.0193 34.4847 40.8552 34.5715 40.6814 34.5715Z" fill="white"/>
<path d="M47.0424 59.6293C44.2528 59.6293 40.7779 58.8571 36.9651 56.2702C36.7431 56.1157 36.6852 55.8165 36.8396 55.6042C36.9941 55.3822 37.2933 55.3242 37.5057 55.4787C46.3088 61.4632 52.9304 57.3513 53.2103 57.1679C53.4323 57.0231 53.7315 57.0907 53.8763 57.3127C54.0211 57.5347 53.9535 57.8339 53.7315 57.9787C53.6929 58.0076 51.0868 59.6389 47.0327 59.6389L47.0424 59.6293Z" fill="#0A1330"/>
<path d="M42.7663 28.4327C42.6794 28.4327 42.5829 28.4038 42.496 28.3555C42.274 28.2107 42.2161 27.9115 42.3609 27.6895C43.7123 25.6431 45.7393 25.8555 46.6177 26.2512C46.859 26.3574 46.9652 26.647 46.859 26.8883C46.7528 27.1296 46.4632 27.2358 46.2219 27.1296C46.1447 27.1007 44.3976 26.3574 43.1621 28.2204C43.0655 28.3651 42.9111 28.4327 42.7567 28.4327H42.7663Z" fill="#0A1330"/>
<circle cx="46" cy="46" r="45" stroke="white" stroke-width="2"/>
</svg>
