<svg width="92" height="92" viewBox="0 0 92 92" fill="none" xmlns="http://www.w3.org/2000/svg">
<path d="M91 46C91 49.9961 90.4788 53.8764 89.4942 57.5637C87.1969 66.222 82.39 73.8572 75.8842 79.6294C75.4595 80.0155 75.0154 80.3919 74.5714 80.7587C73.8475 81.3668 73.1042 81.946 72.332 82.4865C71.3861 83.1815 70.4112 83.8282 69.4073 84.4363C68.6158 84.9189 67.8147 85.3822 66.9942 85.8166C66.7625 85.9421 66.5309 86.0579 66.2896 86.1738C65.9324 86.3475 65.5849 86.5309 65.2278 86.695C59.3977 89.4556 52.8726 91 46 91C43.5096 91 41.0676 90.7973 38.6834 90.4015C36.9749 90.1313 35.305 89.7548 33.6641 89.2915C28.4228 87.805 23.5869 85.3919 19.3205 82.2452C19.1564 82.1293 18.9923 82.0135 18.8378 81.888C17.7857 81.0869 16.7722 80.2375 15.7877 79.3494C14.1371 77.8629 12.5927 76.2413 11.1834 74.5232C10.9807 74.2722 10.778 74.0212 10.5753 73.7606C10.305 73.4131 10.0348 73.0656 9.78379 72.7085C4.26255 65.2375 1 56 1 46C1 21.1448 21.1448 1 46 1C70.8552 1 91 21.1448 91 46Z" fill="#E8E1EF"/>
<path d="M73.2586 81.7432C72.9497 81.9942 72.6408 82.2452 72.3319 82.4865C71.386 83.1815 70.4111 83.8282 69.4072 84.4363C68.6157 84.9189 67.8146 85.3822 66.9941 85.8166C66.7624 85.9421 66.5308 86.0579 66.2895 86.1738C65.9323 86.3475 65.5848 86.5309 65.2277 86.695C59.3976 89.4556 52.8725 91 45.9999 91C43.5096 91 41.0675 90.7973 38.6833 90.4016C36.9748 90.1313 35.3049 89.7548 33.664 89.2915C28.4227 87.805 23.5868 85.3919 19.3204 82.2452C19.1563 82.1294 18.9922 82.0135 18.8377 81.8881C17.7856 81.0869 16.7721 80.2375 15.7876 79.3494C14.137 77.863 12.5926 76.2413 11.1833 74.5232C10.9806 74.2722 10.7779 74.0213 10.5752 73.7606C13.4903 69.3398 18.3455 63.7896 25.5655 60.8842C27.5926 60.083 29.774 59.4846 32.1486 59.1757C32.2933 59.1564 32.4188 59.1371 32.5636 59.1274C32.776 59.0985 32.9883 59.0792 33.2007 59.0599C33.22 59.0502 33.2296 59.0502 33.2489 59.0502C33.4323 59.0406 33.6061 59.0309 33.7895 59.0213C34.0694 59.002 34.3397 58.9826 34.581 58.973C35.1698 58.9247 35.7682 58.8765 36.3377 58.8572C52.5829 58.2297 61.2316 64.6776 61.7335 65.0637C61.7818 65.0927 61.8107 65.1313 61.8397 65.1699C62.0038 65.3437 62.3899 65.7684 62.9594 66.4247C65.0829 68.8765 69.6099 74.5039 73.2586 81.7432Z" fill="#92B4EA"/>
<path d="M39.3402 36.8976C39.3402 36.8976 43.0178 35.9902 44.7456 33.8667C46.4734 31.7528 46.7533 26.5115 46.7533 26.5115C46.7533 26.5115 53.4135 29.9767 55.1703 29.5906C56.9174 29.2045 60.3537 21.357 58.0467 17.969C55.7301 14.581 51.0583 18.7798 51.0583 18.7798C51.0583 18.7798 50.1027 13.9343 44.9869 15.0636C38.983 16.386 37.429 22.4864 37.429 22.4864C37.429 22.4864 37.0236 15.8744 32.844 18.7702C28.6645 21.6756 30.1703 29.2624 30.1703 29.2624C30.1703 29.2624 26.8305 30.7103 27.4965 33.857C28.1626 37.0038 32.6799 40.0346 32.6799 40.0346L39.3498 36.8879L39.3402 36.8976Z" fill="#0A1330"/>
<path d="M38.7512 46.3957L37.8728 56.3764C37.8728 56.3764 39.4848 59.3977 45.4886 60.3629C49.9577 61.0869 51.6276 60.2278 51.6276 60.2278L51.4442 55.1216L51.2608 50.1409L40.5562 46.9266L38.7608 46.3861L38.7512 46.3957Z" fill="#986345"/>
<path d="M40.546 46.9364C40.546 47.2067 40.6232 47.5445 40.7584 47.921C42.631 53.0947 48.8568 54.6874 51.434 55.1217L51.2506 50.141L40.546 46.9268V46.9364Z" fill="#0A1330"/>
<path d="M55.5558 27.5926C55.5558 27.5926 59.8801 40.5463 57.1291 47.3224C54.3782 54.0984 47.9207 52.361 44.1272 50.6332C40.3338 48.9054 38.7508 46.3957 38.7508 46.3957C38.7508 46.3957 34.9477 47.2451 32.8338 43.7027C30.7199 40.1602 32.6214 36.5212 34.8125 35.8552C37.0037 35.1891 39.3492 36.8976 39.3492 36.8976L37.7662 33.1042C37.7662 33.1042 47.9014 15.5752 55.5558 27.6023V27.5926Z" fill="#986345"/>
<path d="M38.5191 42.3318C38.4129 42.3318 38.3068 42.2932 38.2102 42.2257L33.8377 38.6156C33.6349 38.4419 33.606 38.1427 33.7701 37.9399C33.9342 37.7372 34.243 37.7083 34.4458 37.8724L38.8184 41.4824C39.0211 41.6561 39.05 41.9554 38.8859 42.1581C38.7894 42.2739 38.6543 42.3318 38.5095 42.3318H38.5191Z" fill="#0A1330"/>
<path d="M46.55 33.085C46.4342 33.085 46.3087 33.0367 46.2218 32.9499C46.0288 32.7665 46.0191 32.4576 46.2025 32.2645C47.7855 30.5947 49.6581 31.0773 50.4303 31.5696C50.6523 31.7143 50.7199 32.0136 50.5751 32.2356C50.4303 32.4576 50.1407 32.5252 49.9091 32.39C49.8415 32.3514 48.3164 31.4344 46.8975 32.9306C46.801 33.0271 46.6755 33.085 46.55 33.085Z" fill="#0A1330"/>
<path d="M56.5304 32.5828C56.4146 32.5828 56.2891 32.5443 56.2022 32.4477C55.2177 31.5211 54.0594 32.0327 54.0111 32.052C53.7698 32.1581 53.4802 32.052 53.3741 31.8107C53.2679 31.5693 53.3741 31.2798 53.6057 31.1736C53.6733 31.1446 55.4011 30.3628 56.8683 31.7431C57.0613 31.9265 57.071 32.2354 56.8876 32.4284C56.791 32.5249 56.6656 32.5828 56.5401 32.5828H56.5304Z" fill="#0A1330"/>
<path d="M53.0944 41.9365C53.0365 41.9365 52.9689 41.9269 52.911 41.8979C52.6601 41.8014 52.5442 41.5118 52.6504 41.2705C54.0018 37.9404 52.4574 36.7435 52.3898 36.6952C52.1774 36.5408 52.1292 36.2416 52.2836 36.0195C52.4381 35.8072 52.7373 35.7589 52.9497 35.9037C53.0462 35.9713 55.1987 37.5543 53.5385 41.6276C53.4612 41.811 53.2778 41.9269 53.0944 41.9269V41.9365Z" fill="#0A1330"/>
<path d="M56.0677 37.3707C55.8361 37.3707 55.643 37.2066 55.5948 36.975L55.1508 34.6391C55.1025 34.3784 55.2762 34.1275 55.5368 34.0792C55.8071 34.031 56.0484 34.2047 56.0967 34.4653L56.5407 36.8012C56.589 37.0618 56.4152 37.3128 56.1546 37.3611C56.1256 37.3611 56.0967 37.3611 56.0677 37.3611V37.3707Z" fill="#0A1330"/>
<path d="M48.587 37.3707C48.3554 37.3707 48.1527 37.2066 48.114 36.975L47.67 34.6391C47.6218 34.3784 47.7955 34.1275 48.0561 34.0792C48.3168 34.031 48.5677 34.2047 48.616 34.4653L49.06 36.8012C49.1083 37.0618 48.9345 37.3128 48.6739 37.3611C48.6449 37.3611 48.616 37.3611 48.587 37.3611V37.3707Z" fill="#0A1330"/>
<path d="M51.0481 45.6913C50.826 45.6913 48.2778 45.643 47.3608 43.2492C47.2643 42.9982 47.3898 42.7183 47.6407 42.6218C47.8917 42.5253 48.1716 42.6507 48.2681 42.9017C48.9631 44.726 50.9998 44.7454 51.0481 44.726C51.3473 44.7067 51.5307 44.9384 51.5403 45.199C51.5403 45.4693 51.328 45.6816 51.0674 45.6913H51.0577H51.0481Z" fill="#0A1330"/>
<path d="M39.3403 36.8974C39.3403 36.8974 43.2882 36.2121 44.7457 32.9881C46.2032 29.7642 45.9908 26.8588 45.9908 26.8588C45.9908 26.8588 47.9793 29.0403 51.4349 28.6735C54.8905 28.3067 55.8364 24.7546 55.8364 24.7546L52.6704 21.0383C52.6704 21.0383 39.6588 23.7796 39.3403 23.3839C39.0217 22.9785 34.2823 31.4148 34.2823 31.4148L39.3403 36.8974Z" fill="#0A1330"/>
<path d="M65.2283 86.695C59.3981 89.4556 52.873 91 46.0005 91C43.5101 91 41.068 90.7973 38.6839 90.4015C36.9754 90.1313 35.3055 89.7548 33.6646 89.2915C28.4232 87.805 23.5873 85.3919 19.3209 82.2452C21.1163 71.4054 23.0082 62.5154 24.4754 61.5116C24.8132 61.2896 25.18 61.0772 25.5661 60.8842C27.5642 59.9093 30.0642 59.417 32.1491 59.1757C32.2939 59.1564 32.4194 59.1371 32.5642 59.1274C32.7765 59.0985 32.9889 59.0791 33.2012 59.0598C33.3943 59.0502 33.597 59.0406 33.79 59.0212C34.07 59.0019 34.3402 58.9826 34.5815 58.973C35.653 58.9151 36.3287 58.9247 36.3287 58.9247C36.3287 58.9247 36.3287 58.9054 36.3287 58.8571C36.3769 58.2394 36.8016 53.4131 38.1144 53.5193C39.5043 53.6351 42.8827 55.9614 46.4541 56.251C50.0352 56.5406 51.9464 56.222 52.6607 56.222C53.375 56.222 53.5294 60.0444 53.5294 60.0444C53.5294 60.0444 58.3267 61.6757 61.7244 65.0637C61.7727 65.0927 61.8016 65.1313 61.8306 65.1699C61.9947 65.3436 62.3808 65.7683 62.9503 66.4247C63.3846 66.9749 63.7611 67.5444 64.0796 68.1622C65.0642 70.083 65.3151 77.6602 65.2186 86.695H65.2283Z" fill="#92B4EA"/>
<path d="M50.3512 61C44.455 61 36.9256 59.1876 36.5646 59.097C36.1176 58.995 35.8942 58.6665 36.0489 58.372C36.2208 58.0775 36.7021 57.9303 37.1491 58.0322C37.2522 58.0549 47.5148 60.5356 52.947 59.686C53.4111 59.618 53.8753 59.8106 53.9784 60.1051C54.0815 60.411 53.8065 60.7168 53.3423 60.7848C52.4313 60.9207 51.417 60.9774 50.3512 60.9774V61Z" fill="#0A1330"/>
<path d="M34.2913 42.2452C34.1175 42.2452 33.9534 42.1487 33.8666 41.9942C33.7411 41.7626 33.828 41.4634 34.0596 41.3379L36.5693 39.9962C36.8009 39.8707 37.1002 39.9576 37.2256 40.1989C37.3511 40.4305 37.2643 40.7298 37.0229 40.8553L34.5133 42.197C34.4361 42.2356 34.3588 42.2549 34.2816 42.2549L34.2913 42.2452Z" fill="#0A1330"/>
<path d="M49.1271 40.0925H46.8973C45.3722 40.0925 44.1271 38.8473 44.1271 37.3222V35.0153C44.1271 34.2817 44.7255 33.6832 45.4495 33.6832H50.5556C51.2892 33.6832 51.878 34.2817 51.878 35.0153V37.3222C51.878 38.8473 50.6329 40.0925 49.1078 40.0925H49.1271ZM45.4591 34.6485C45.2564 34.6485 45.102 34.8126 45.102 35.0153V37.3222C45.102 38.3164 45.9128 39.1272 46.907 39.1272H49.1367C50.1309 39.1272 50.9417 38.3164 50.9417 37.3222V35.0153C50.9417 34.8126 50.7776 34.6485 50.5846 34.6485H45.4784H45.4591Z" fill="white"/>
<path d="M57.7667 40.2084H56.2513C54.8324 40.2084 53.6741 39.0502 53.6741 37.6312V35.054C53.6741 34.359 54.2339 33.7992 54.9289 33.7992H59.0795C59.7744 33.7992 60.3343 34.359 60.3343 35.054V37.6312C60.3343 39.0502 59.176 40.2084 57.7571 40.2084H57.7667ZM54.9289 34.7741C54.7648 34.7741 54.6393 34.8996 54.6393 35.0637V37.6409C54.6393 38.5289 55.3633 39.2529 56.2513 39.2529H57.7667C58.6548 39.2529 59.3787 38.5289 59.3787 37.6409V35.0637C59.3787 34.8996 59.2436 34.7741 59.0891 34.7741H54.9385H54.9289Z" fill="white"/>
<path d="M50.6621 37.3708C50.4883 37.3708 50.3146 37.2742 50.2277 37.1101C50.1119 36.8688 50.1988 36.5889 50.4401 36.4634C50.5173 36.4248 52.4092 35.4788 54.3397 36.2607C54.5906 36.3572 54.7065 36.6468 54.6003 36.8881C54.5038 37.1391 54.2142 37.2549 53.9729 37.1487C52.4574 36.531 50.8841 37.3032 50.8744 37.3128C50.8069 37.3514 50.7296 37.3611 50.6621 37.3611V37.3708Z" fill="white"/>
<path d="M35.5275 36.2028C35.3344 36.2028 35.151 36.0869 35.0834 35.9035C34.9869 35.6526 35.1027 35.3727 35.3537 35.2761C40.5081 33.2105 44.6587 35.2086 44.8325 35.2954C45.0738 35.4113 45.1703 35.7009 45.0545 35.9422C44.9386 36.1835 44.6491 36.28 44.4078 36.1642C44.3692 36.1449 40.4599 34.2819 35.7205 36.1835C35.6626 36.2028 35.6047 36.2221 35.5371 36.2221L35.5275 36.2028Z" fill="white"/>
<circle cx="46" cy="46" r="45" stroke="white" stroke-width="2"/>
</svg>
