<svg width="14" height="15" viewBox="0 0 14 15" fill="none" xmlns="http://www.w3.org/2000/svg">
<path d="M1 6.6C0.502944 6.6 0.1 7.00294 0.1 7.5C0.0999999 7.99706 0.502944 8.4 1 8.4L1 6.6ZM13.6364 8.1364C13.9879 7.78493 13.9879 7.21508 13.6364 6.86361L7.90883 1.13604C7.55736 0.784569 6.98751 0.784569 6.63604 1.13604C6.28457 1.48751 6.28457 2.05736 6.63604 2.40883L11.7272 7.5L6.63604 12.5912C6.28457 12.9426 6.28457 13.5125 6.63604 13.864C6.98751 14.2154 7.55736 14.2154 7.90883 13.864L13.6364 8.1364ZM1 8.4L13 8.4L13 6.6L1 6.6L1 8.4Z" fill="#4E43DF"/>
</svg>
