<svg width="105" height="35" viewBox="0 0 105 35" fill="none" xmlns="http://www.w3.org/2000/svg">
<circle cx="87.1313" cy="17.0732" r="15.518" stroke="url(#paint0_linear_103_534)" stroke-width="1.49745"/>
<path d="M8.92358 8.70215H1.85938V25.5217H5.29537V20.0914H8.92358C12.5278 20.0914 14.9065 17.8808 14.9065 14.3487C14.9065 10.8166 12.5278 8.70215 8.92358 8.70215ZM8.77942 16.8236H5.29537V11.9699H8.77942C10.5575 11.9699 11.4225 12.907 11.4225 14.3968C11.4225 15.8625 10.5575 16.8236 8.77942 16.8236Z" fill="#0A1330"/>
<path d="M25.4933 12.3063V14.1565C24.5802 12.883 23.1866 12.018 21.3124 12.018C17.9245 12.018 15.3054 14.8293 15.3054 18.914C15.3054 22.9747 17.8764 25.81 21.3364 25.81C23.1866 25.81 24.5562 24.9931 25.4693 23.7436V25.5217H28.9052L28.9293 12.3063H25.4933ZM22.1053 22.5422C20.2071 22.5422 18.7655 21.1006 18.7655 18.914C18.7655 16.7515 20.1831 15.2858 22.1053 15.2858C24.0276 15.2858 25.4933 16.7515 25.4933 18.914C25.4933 21.1006 24.0276 22.5422 22.1053 22.5422Z" fill="#0A1330"/>
<path d="M38.2033 12.018C36.3532 12.018 34.9355 12.883 34.0224 14.1565V12.3063H30.5865V31.5287H34.0224V23.7436C34.9595 24.9931 36.3291 25.81 38.2033 25.81C41.6393 25.81 44.2343 22.9747 44.2343 18.914C44.2343 14.8293 41.5912 12.018 38.2033 12.018ZM37.4104 22.5422C35.4881 22.5422 34.0224 21.1006 34.0224 18.914C34.0224 16.7515 35.4881 15.2858 37.4104 15.2858C39.3326 15.2858 40.7503 16.7515 40.7503 18.914C40.7503 21.1006 39.3086 22.5422 37.4104 22.5422Z" fill="#0A1330"/>
<path d="M52.0158 12.018C47.9791 12.018 45.1198 14.9734 45.1198 18.938C45.1198 22.8786 47.9551 25.81 52.0879 25.81C54.9232 25.81 57.5662 24.4404 58.5514 21.3168H54.9953C54.5387 22.374 53.3854 22.9747 52.0638 22.9747C50.2858 22.9747 48.8441 21.9175 48.6279 19.8031H58.7676C59.104 15.454 56.3889 12.018 52.0158 12.018ZM51.9918 14.8533C53.6497 14.8533 54.7309 15.8384 55.1154 17.2801H48.796C49.2286 15.8625 50.3098 14.8533 51.9918 14.8533Z" fill="#0A1330"/>
<path d="M67.474 12.018C65.5998 12.018 64.1582 12.883 63.3412 14.613V12.3063H59.9052V25.5217H63.3412V19.6349C63.3412 16.5112 65.2154 15.5501 67.4019 15.5501C67.7864 15.5501 67.9786 15.5741 68.2429 15.5982V12.0661C68.0266 12.042 67.7864 12.018 67.474 12.018Z" fill="#0A1330"/>
<path d="M81.2814 20.892H86.6685V23.3303H77.1211V21.5016L80.748 18.3104C82.0874 17.1152 82.9349 16.3144 83.2904 15.908C83.646 15.5016 83.8238 15.0773 83.8238 14.6351C83.8238 14.1809 83.6579 13.7985 83.326 13.4877C83.006 13.165 82.5378 13.0037 81.9214 13.0037C80.7125 13.0037 80.0072 13.667 79.8057 14.9937H77.2455C77.3285 13.6431 77.8086 12.5674 78.6857 11.7666C79.5746 10.9658 80.6888 10.5654 82.0281 10.5654C83.3556 10.5654 84.4164 10.9479 85.2106 11.7128C86.0047 12.4658 86.4018 13.3981 86.4018 14.5096C86.4018 14.7845 86.3662 15.0534 86.2951 15.3164C86.2358 15.5674 86.1706 15.7945 86.0995 15.9977C86.0403 16.1889 85.904 16.422 85.6906 16.6969C85.4773 16.9598 85.3113 17.169 85.1928 17.3243C85.0861 17.4678 84.8609 17.7008 84.5172 18.0235C84.1735 18.3462 83.9246 18.5793 83.7705 18.7227C83.6164 18.8542 83.3082 19.1231 82.846 19.5295L81.317 20.8741L81.2814 20.892Z" fill="#4E43DF"/>
<path d="M97.3947 18.1849V20.5693L95.6523 20.5873V23.3303H93.1099V20.5873H86.9406V18.1849L91.9009 10.7806H95.6523V18.167L97.3947 18.1849ZM89.6608 18.167H93.1099V13.165H92.9499L89.6608 18.167Z" fill="#4E43DF"/>
<defs>
<linearGradient id="paint0_linear_103_534" x1="96.6351" y1="27.5872" x2="81.0985" y2="10.5471" gradientUnits="userSpaceOnUse">
<stop stop-color="#4E43DF"/>
<stop offset="1" stop-color="white"/>
</linearGradient>
</defs>
</svg>
