<svg width="105" height="35" viewBox="0 0 105 35" fill="none" xmlns="http://www.w3.org/2000/svg">
<circle cx="87.1333" cy="17.0732" r="15.518" stroke="url(#paint0_linear_70_561)" stroke-width="1.49745"/>
<path d="M8.92163 8.70215H1.85742V25.5217H5.29342V20.0914H8.92163C12.5258 20.0914 14.9046 17.8808 14.9046 14.3487C14.9046 10.8166 12.5258 8.70215 8.92163 8.70215ZM8.77746 16.8236H5.29342V11.9699H8.77746C10.5555 11.9699 11.4205 12.907 11.4205 14.3968C11.4205 15.8625 10.5555 16.8236 8.77746 16.8236Z" fill="white"/>
<path d="M25.4913 12.3063V14.1565C24.5783 12.883 23.1846 12.018 21.3105 12.018C17.9225 12.018 15.3035 14.8293 15.3035 18.914C15.3035 22.9747 17.8745 25.81 21.3345 25.81C23.1846 25.81 24.5542 24.9931 25.4673 23.7436V25.5217H28.9033L28.9273 12.3063H25.4913ZM22.1034 22.5422C20.2052 22.5422 18.7635 21.1006 18.7635 18.914C18.7635 16.7515 20.1812 15.2858 22.1034 15.2858C24.0256 15.2858 25.4913 16.7515 25.4913 18.914C25.4913 21.1006 24.0256 22.5422 22.1034 22.5422Z" fill="white"/>
<path d="M38.2013 12.018C36.3512 12.018 34.9336 12.883 34.0205 14.1565V12.3063H30.5845V31.5287H34.0205V23.7436C34.9576 24.9931 36.3272 25.81 38.2013 25.81C41.6373 25.81 44.2324 22.9747 44.2324 18.914C44.2324 14.8293 41.5893 12.018 38.2013 12.018ZM37.4084 22.5422C35.4862 22.5422 34.0205 21.1006 34.0205 18.914C34.0205 16.7515 35.4862 15.2858 37.4084 15.2858C39.3307 15.2858 40.7483 16.7515 40.7483 18.914C40.7483 21.1006 39.3066 22.5422 37.4084 22.5422Z" fill="white"/>
<path d="M52.0138 12.018C47.9771 12.018 45.1178 14.9734 45.1178 18.938C45.1178 22.8786 47.9531 25.81 52.0859 25.81C54.9212 25.81 57.5643 24.4404 58.5494 21.3168H54.9933C54.5368 22.374 53.3834 22.9747 52.0619 22.9747C50.2838 22.9747 48.8422 21.9175 48.6259 19.8031H58.7657C59.1021 15.454 56.3869 12.018 52.0138 12.018ZM51.9898 14.8533C53.6477 14.8533 54.729 15.8384 55.1134 17.2801H48.7941C49.2266 15.8625 50.3079 14.8533 51.9898 14.8533Z" fill="white"/>
<path d="M67.4721 12.018C65.5979 12.018 64.1562 12.883 63.3393 14.613V12.3063H59.9033V25.5217H63.3393V19.6349C63.3393 16.5112 65.2134 15.5501 67.4 15.5501C67.7844 15.5501 67.9766 15.5741 68.2409 15.5982V12.0661C68.0247 12.042 67.7844 12.018 67.4721 12.018Z" fill="white"/>
<path d="M81.2814 20.892H86.6685V23.3303H77.1211V21.5016L80.748 18.3104C82.0874 17.1152 82.9349 16.3144 83.2904 15.908C83.646 15.5016 83.8238 15.0773 83.8238 14.6351C83.8238 14.1809 83.6579 13.7985 83.326 13.4877C83.006 13.165 82.5378 13.0037 81.9214 13.0037C80.7125 13.0037 80.0072 13.667 79.8057 14.9937H77.2455C77.3285 13.6431 77.8086 12.5674 78.6857 11.7666C79.5746 10.9658 80.6888 10.5654 82.0281 10.5654C83.3556 10.5654 84.4164 10.9479 85.2106 11.7128C86.0047 12.4658 86.4018 13.3981 86.4018 14.5096C86.4018 14.7845 86.3662 15.0534 86.2951 15.3164C86.2358 15.5674 86.1706 15.7945 86.0995 15.9977C86.0403 16.1889 85.904 16.422 85.6906 16.6969C85.4773 16.9598 85.3113 17.169 85.1928 17.3243C85.0861 17.4678 84.8609 17.7008 84.5172 18.0235C84.1735 18.3462 83.9246 18.5793 83.7705 18.7227C83.6164 18.8542 83.3082 19.1231 82.846 19.5295L81.317 20.8741L81.2814 20.892Z" fill="white"/>
<path d="M97.3947 18.1849V20.5693L95.6523 20.5873V23.3303H93.1099V20.5873H86.9406V18.1849L91.9009 10.7806H95.6523V18.167L97.3947 18.1849ZM89.6608 18.167H93.1099V13.165H92.9499L89.6608 18.167Z" fill="white"/>
<defs>
<linearGradient id="paint0_linear_70_561" x1="96.6371" y1="27.5872" x2="81.1005" y2="10.5471" gradientUnits="userSpaceOnUse">
<stop stop-color="#4E43DF"/>
<stop offset="1" stop-color="white"/>
</linearGradient>
</defs>
</svg>
