<svg width="48" height="30" viewBox="0 0 48 30" fill="none" xmlns="http://www.w3.org/2000/svg">
<path d="M30.4759 3.20874H17.4863V26.7913H30.4759V3.20874Z" fill="#FF5A00"/>
<path d="M18.3507 15C18.3507 10.2087 20.5797 5.95631 24 3.20874C21.4828 1.20874 18.3074 0 14.8439 0C6.63891 0 0 6.70874 0 15C0 23.2913 6.63891 30 14.8439 30C18.3074 30 21.4828 28.7913 24 26.7913C20.5749 24.0825 18.3507 19.7913 18.3507 15Z" fill="#EB001B"/>
<path d="M48 15C48 23.2913 41.3611 30 33.1561 30C29.6926 30 26.5172 28.7913 24 26.7913C27.4636 24.0388 29.6493 19.7913 29.6493 15C29.6493 10.2087 27.4203 5.95631 24 3.20874C26.5124 1.20874 29.6877 0 33.1513 0C41.3611 0 48 6.75243 48 15Z" fill="#F79E1B"/>
</svg>
