<svg width="916" height="475" viewBox="0 0 916 475" fill="none" xmlns="http://www.w3.org/2000/svg">
<g clip-path="url(#clip0_603_5120)">
<path opacity="0.3" fill-rule="evenodd" clip-rule="evenodd" d="M811.422 309.066C849.537 377.819 799.852 457.807 779.003 533.611C754.552 622.514 756.813 727.916 681.563 781.219C597.453 840.8 482.219 848.409 385.729 812.189C289.242 775.97 215.547 692.137 183.412 594.226C154.077 504.847 188.387 412.279 226.202 326.132C261.324 246.119 302.175 154.286 386.537 131.482C466.404 109.894 530.606 191.319 606.931 223.22C677.838 252.856 774.164 241.859 811.422 309.066Z" fill="url(#paint0_linear_603_5120)"/>
<path opacity="0.3" fill-rule="evenodd" clip-rule="evenodd" d="M717.913 741.977C791.491 710.278 865.35 678.458 885.341 606.678C902.53 544.961 863.132 489.744 822.695 433.071C802.161 404.291 781.358 375.136 767.563 344.564C752.712 311.651 744.346 275.057 736.088 238.934C719.83 167.82 703.99 98.5325 639.905 62.7551C537.827 5.76739 414.17 49.1501 306.883 87.3776C191.369 128.536 73.3282 178.535 19.4203 283.839C-39.6332 399.195 -45.7862 540.127 13.7246 660.036C51.9084 736.974 114.089 805.105 189.576 850.515H523.455C538.682 841.343 553.812 831.65 568.966 821.941C594.992 805.267 621.087 788.549 647.864 774.35C669.93 762.649 693.907 752.32 717.913 741.977Z" fill="url(#paint1_linear_603_5120)"/>
</g>
<defs>
<linearGradient id="paint0_linear_603_5120" x1="820.386" y1="327.948" x2="190.077" y2="614.153" gradientUnits="userSpaceOnUse">
<stop stop-color="#0A1330"/>
<stop offset="1" stop-color="white" stop-opacity="0"/>
</linearGradient>
<linearGradient id="paint1_linear_603_5120" x1="876.613" y1="631.451" x2="7.52207" y2="307.43" gradientUnits="userSpaceOnUse">
<stop stop-color="#0A1330"/>
<stop offset="1" stop-color="white" stop-opacity="0"/>
</linearGradient>
<clipPath id="clip0_603_5120">
<rect width="916" height="475" fill="white"/>
</clipPath>
</defs>
</svg>
