<svg width="920" height="844" viewBox="0 0 920 844" fill="none" xmlns="http://www.w3.org/2000/svg">
<path opacity="0.3" fill-rule="evenodd" clip-rule="evenodd" d="M839.422 309.066C877.537 377.819 827.852 457.807 807.003 533.611C782.552 622.514 784.813 727.916 709.563 781.219C625.453 840.8 510.219 848.409 413.729 812.189C317.242 775.97 243.547 692.137 211.412 594.226C182.077 504.847 216.387 412.279 254.202 326.132C289.324 246.119 330.175 154.286 414.537 131.482C494.404 109.894 558.606 191.319 634.931 223.22C705.838 252.856 802.164 241.859 839.422 309.066Z" fill="url(#paint0_linear_605_6565)"/>
<path opacity="0.3" fill-rule="evenodd" clip-rule="evenodd" d="M745.914 741.977C819.491 710.278 893.35 678.458 913.341 606.678C930.53 544.961 891.132 489.744 850.695 433.071C830.161 404.291 809.358 375.136 795.563 344.564C780.712 311.651 772.346 275.057 764.088 238.934C747.83 167.82 731.99 98.5325 667.905 62.7551C565.827 5.76738 442.17 49.1501 334.883 87.3775C219.369 128.536 101.328 178.535 47.4203 283.839C-11.6332 399.195 -17.7862 540.127 41.7246 660.036C79.9084 736.974 142.089 805.105 217.576 850.515H551.455C566.682 841.343 581.812 831.65 596.966 821.941C622.992 805.267 649.087 788.549 675.864 774.35C697.93 762.649 721.907 752.32 745.914 741.977Z" fill="url(#paint1_linear_605_6565)"/>
<defs>
<linearGradient id="paint0_linear_605_6565" x1="848.386" y1="327.948" x2="218.077" y2="614.153" gradientUnits="userSpaceOnUse">
<stop stop-color="#0A1330"/>
<stop offset="1" stop-color="white" stop-opacity="0"/>
</linearGradient>
<linearGradient id="paint1_linear_605_6565" x1="904.613" y1="631.451" x2="35.5221" y2="307.43" gradientUnits="userSpaceOnUse">
<stop stop-color="#0A1330"/>
<stop offset="1" stop-color="white" stop-opacity="0"/>
</linearGradient>
</defs>
</svg>
