<svg width="24" height="24" viewBox="0 0 24 24" fill="none" xmlns="http://www.w3.org/2000/svg">
<g id="icons-outline">
<path id="Path" d="M19 11V7.828C19 7.298 18.789 6.789 18.414 6.414L15.586 3.586C15.211 3.211 14.702 3 14.172 3H7C5.895 3 5 3.895 5 5V19C5 20.105 5.895 21 7 21H11" stroke="white" stroke-width="1.5" stroke-linecap="round" stroke-linejoin="round"/>
<path id="Path_2" d="M19 8H15C14.448 8 14 7.552 14 7V3" stroke="white" stroke-width="1.5" stroke-linecap="round" stroke-linejoin="round"/>
<path id="Path_3" fill-rule="evenodd" clip-rule="evenodd" d="M17.146 20.7068L20.706 17.1468C21.097 16.7558 21.097 16.1228 20.706 15.7328L19.12 14.1468C18.729 13.7558 18.096 13.7558 17.706 14.1468L14.146 17.7068C13.958 17.8948 13.853 18.1488 13.853 18.4138V20.9998H16.439C16.704 20.9998 16.958 20.8948 17.146 20.7068Z" stroke="white" stroke-width="1.5" stroke-linecap="round" stroke-linejoin="round"/>
</g>
</svg>
