<svg width="170" height="171" viewBox="0 0 170 171" fill="none" xmlns="http://www.w3.org/2000/svg">
<path d="M77.7875 8.17406L77.7875 8.17406L72.955 13.1225C72.3522 13.7398 71.3796 13.7992 70.7061 13.26L65.307 8.93684C60.7613 5.2971 53.9917 7.07906 51.8272 12.4851L49.2562 18.9062C48.9355 19.7072 48.0597 20.1343 47.2311 19.8938L40.5886 17.9659C34.9961 16.3428 29.4237 20.5798 29.4927 26.4026L29.5747 33.3188C29.585 34.1815 28.9392 34.9113 28.0817 35.0062L21.207 35.7671C15.4191 36.4076 11.8923 42.4545 14.1844 47.8077L16.9068 54.1661C17.2464 54.9592 16.9291 55.8805 16.1732 56.2964L17.7709 59.2006L16.1732 56.2964L10.113 59.6301C5.01076 62.4369 4.06648 69.3732 8.23268 73.4417L13.1812 78.2742C13.7984 78.877 13.8578 79.8497 13.3186 80.5231L8.99546 85.9223C5.35572 90.4679 7.1377 97.2375 12.5437 99.4021L18.9649 101.973C19.7658 102.294 20.1929 103.17 19.9525 103.998L18.0246 110.641C16.4014 116.233 20.6384 121.806 26.4612 121.736L33.3774 121.654C34.2401 121.644 34.9699 122.29 35.0648 123.148L35.8257 130.022C36.4663 135.81 42.5132 139.337 47.8663 137.045L54.2247 134.322C55.0178 133.983 55.9392 134.3 56.355 135.056L59.6888 141.116C62.4955 146.218 69.4318 147.163 73.5003 142.997L78.3328 138.048C78.9356 137.431 79.9083 137.371 80.5817 137.911L85.9809 142.234C90.5265 145.874 97.2962 144.092 99.4607 138.685L102.032 132.264C102.352 131.463 103.228 131.036 104.057 131.277L110.699 133.205C116.292 134.828 121.864 130.591 121.795 124.768L121.713 117.852C121.703 116.989 122.349 116.259 123.206 116.164L130.081 115.404C135.869 114.763 139.396 108.716 137.103 103.363L134.381 97.0045C134.041 96.2114 134.359 95.2901 135.115 94.8742L141.175 91.5405C146.277 88.7337 147.221 81.7974 143.055 77.7289L138.107 72.8964C137.489 72.2936 137.43 71.3209 137.969 70.6475L142.292 65.2483C145.932 60.7027 144.15 53.9331 138.744 51.7685L132.323 49.1976C131.522 48.8769 131.095 48.001 131.335 47.1725L133.263 40.5299C134.886 34.9374 130.649 29.365 124.827 29.4341L117.91 29.5161C117.048 29.5263 116.318 28.8806 116.223 28.0231L115.462 21.1484C114.822 15.3604 108.775 11.8336 103.421 14.1257L97.0632 16.8482C96.2701 17.1878 95.3487 16.8705 94.9329 16.1146L91.8662 17.8016L94.9329 16.1146L91.5991 10.0544C88.7923 4.95214 81.8561 4.00785 77.7875 8.17406Z" fill="#4E43DF" stroke="white" stroke-width="7"/>
<path d="M42.0899 56.5829L44.5311 56.9173L41.4913 79.1101L36.1016 78.3719L38.2816 62.4565L33.0852 63.8441L33.8104 58.5496L42.0899 56.5829ZM50.2741 60.4816C52.3149 58.6295 54.8572 57.9118 57.9008 58.3287C60.9443 58.7456 63.2 60.1204 64.6677 62.4532C66.1353 64.7859 66.6303 67.696 66.1526 71.1834C65.675 74.6709 64.4157 77.3407 62.3748 79.1929C60.3339 81.045 57.7916 81.7627 54.7481 81.3458C51.7045 80.9289 49.4489 79.5541 47.9812 77.2213C46.5135 74.8886 46.0185 71.9785 46.4962 68.4911C46.9739 65.0036 48.2332 62.3338 50.2741 60.4816ZM52.3398 74.1686C52.8925 75.3209 53.9298 76.0013 55.4516 76.2097C56.9734 76.4182 58.1554 76.0418 58.9976 75.0805C59.8427 74.0981 60.4101 72.5501 60.6996 70.4365C60.9891 68.3229 60.8575 66.69 60.3047 65.5376C59.7549 64.3642 58.7191 63.6732 57.1973 63.4648C55.6755 63.2563 54.492 63.6433 53.6469 64.6257C52.8046 65.5869 52.2388 67.1244 51.9493 69.238C51.6598 71.3516 51.7899 72.9951 52.3398 74.1686ZM72.473 63.5223C74.5139 61.6701 77.0562 60.9525 80.0997 61.3693C83.1433 61.7862 85.399 63.1611 86.8666 65.4938C88.3343 67.8266 88.8293 70.7366 88.3516 74.2241C87.8739 77.7115 86.6147 80.3813 84.5738 82.2335C82.5329 84.0857 79.9906 84.8033 76.947 84.3864C73.9035 83.9696 71.6478 82.5947 70.1802 80.262C68.7125 77.9292 68.2175 75.0191 68.6952 71.5317C69.1728 68.0443 70.4321 65.3745 72.473 63.5223ZM74.5387 77.2092C75.0915 78.3616 76.1287 79.0419 77.6505 79.2504C79.1723 79.4588 80.3543 79.0824 81.1966 78.1212C82.0417 77.1388 82.609 75.5908 82.8985 73.4772C83.188 71.3636 83.0564 69.7306 82.5037 68.5783C81.9539 67.4048 80.918 66.7138 79.3962 66.5054C77.8745 66.297 76.691 66.6839 75.8459 67.6663C75.0036 68.6276 74.4377 70.165 74.1482 72.2786C73.8587 74.3922 73.9889 76.0358 74.5387 77.2092ZM102.834 76.3046C101.509 77.329 99.8849 77.7095 97.9615 77.446C96.0382 77.1826 94.5763 76.3794 93.5759 75.0366C92.5785 73.6726 92.2216 71.9549 92.5053 69.8836C92.789 67.8123 93.5932 66.2644 94.9178 65.24C96.2453 64.1945 97.8707 63.8035 99.7941 64.0669C101.717 64.3304 103.178 65.1441 104.175 66.5081C105.176 67.8509 105.534 69.558 105.25 71.6293C104.967 73.7007 104.161 75.2591 102.834 76.3046ZM117.809 66.9543L102.088 87.4101L97.0149 86.7153L112.736 66.2595L117.809 66.9543ZM97.2814 72.508C97.48 72.9443 97.8963 73.2059 98.5304 73.2928C99.1645 73.3796 99.6359 73.2396 99.9445 72.8728C100.256 72.4848 100.471 71.8575 100.59 70.991C100.709 70.1244 100.669 69.4729 100.47 69.0366C100.274 68.5792 99.8593 68.307 99.2252 68.2202C98.5911 68.1333 98.1183 68.2839 97.8068 68.6718C97.4982 69.0387 97.2845 69.6554 97.1658 70.522C97.0471 71.3885 97.0856 72.0506 97.2814 72.508ZM111.986 77.3967C113.313 76.3512 114.939 75.9602 116.862 76.2236C118.786 76.4871 120.246 77.3008 121.244 78.6648C122.244 80.0076 122.602 81.7147 122.318 83.786C122.035 85.8573 121.229 87.4158 119.902 88.4613C118.577 89.4857 116.953 89.8662 115.03 89.6027C113.106 89.3393 111.644 88.5361 110.644 87.1933C109.647 85.8293 109.29 84.1116 109.573 82.0403C109.857 79.969 110.661 78.4211 111.986 77.3967ZM117.538 81.1933C117.342 80.7359 116.927 80.4637 116.293 80.3768C115.659 80.29 115.187 80.4406 114.875 80.8285C114.566 81.1954 114.353 81.8121 114.234 82.6787C114.115 83.5452 114.154 84.2073 114.35 84.6647C114.548 85.101 114.965 85.3626 115.599 85.4495C116.233 85.5363 116.704 85.3963 117.013 85.0295C117.324 84.6415 117.539 84.0142 117.658 83.1477C117.777 82.2811 117.737 81.6296 117.538 81.1933Z" fill="white"/>
<rect x="22.2773" y="135.065" width="143" height="38" rx="18.5508" transform="rotate(-19.2119 22.2773 135.065)" fill="#E5E6FB"/>
<path d="M54.4989 137.673L58.426 148.943L55.6809 149.899L53.3257 143.141L53.1605 150.778L50.9452 151.55L46.048 145.659L48.4087 152.433L45.6636 153.39L41.7366 142.121L44.9793 140.991L50.8606 147.691L51.2722 138.798L54.4989 137.673ZM64.5223 146.962C63.6447 147.268 62.7875 147.357 61.9506 147.228C61.1244 147.096 60.3868 146.753 59.7377 146.199C59.0993 145.642 58.6179 144.897 58.2934 143.966C57.9727 143.046 57.8945 142.167 58.0588 141.33C58.2193 140.482 58.5875 139.747 59.1633 139.126C59.7391 138.506 60.4658 138.042 61.3434 137.737C62.221 137.431 63.0782 137.342 63.9151 137.471C64.7519 137.599 65.4968 137.946 66.1496 138.51C66.7987 139.064 67.2836 139.801 67.6043 140.722C67.925 141.642 67.9998 142.528 67.8285 143.38C67.6643 144.217 67.2889 144.948 66.7024 145.573C66.1265 146.193 65.3999 146.657 64.5223 146.962ZM63.6944 144.587C64.2188 144.404 64.5958 144.056 64.8254 143.544C65.0657 143.029 65.0609 142.412 64.8111 141.695C64.5612 140.978 64.1872 140.49 63.6891 140.232C63.2016 139.97 62.6957 139.93 62.1713 140.113C61.6362 140.299 61.2592 140.646 61.0403 141.155C60.8176 141.652 60.8331 142.265 61.0867 142.993C61.3366 143.71 61.6999 144.201 62.1766 144.467C62.664 144.73 63.1699 144.769 63.6944 144.587ZM72.9244 133.737C73.9732 133.372 74.9274 133.423 75.7868 133.892C76.6531 134.346 77.2933 135.167 77.7073 136.355L79.5309 141.588L76.8019 142.539L75.1069 137.675C74.898 137.076 74.5806 136.664 74.1547 136.441C73.7287 136.217 73.2535 136.197 72.7291 136.379C72.2047 136.562 71.8451 136.874 71.6504 137.313C71.4556 137.753 71.4626 138.273 71.6715 138.872L73.3665 143.736L70.6214 144.693L67.4999 135.735L70.245 134.779L70.659 135.967C70.7992 135.474 71.0657 135.033 71.4582 134.644C71.8471 134.244 72.3358 133.942 72.9244 133.737ZM88.2714 133.358C88.3609 133.615 88.4381 133.888 88.503 134.177L82.2904 136.342C82.5271 136.884 82.8529 137.25 83.2676 137.442C83.6894 137.619 84.1304 137.627 84.5906 137.467C85.2755 137.228 85.6511 136.773 85.7172 136.102L88.6389 135.084C88.6942 135.725 88.6059 136.35 88.374 136.959C88.1528 137.564 87.7946 138.103 87.2992 138.575C86.8038 139.048 86.1922 139.411 85.4645 139.665C84.5869 139.97 83.7404 140.055 82.9249 139.92C82.1094 139.784 81.3879 139.435 80.7602 138.874C80.1325 138.312 79.6564 137.566 79.332 136.635C79.0075 135.704 78.9114 134.825 79.0435 133.999C79.1864 133.169 79.535 132.448 80.0894 131.834C80.6438 131.221 81.3652 130.76 82.2535 130.45C83.1203 130.148 83.9543 130.061 84.7553 130.19C85.5564 130.319 86.2616 130.656 86.8712 131.199C87.4914 131.739 87.9582 132.459 88.2714 133.358ZM85.2104 133.614C85.0463 133.143 84.7552 132.825 84.3372 132.658C83.9192 132.492 83.4693 132.493 82.9878 132.661C82.5276 132.821 82.1835 133.091 81.9557 133.47C81.7386 133.846 81.6783 134.293 81.775 134.811L85.2104 133.614ZM97.3595 125.33L96.3448 140.5L93.391 141.529L93.8571 136.254L87.1978 128.871L90.264 127.803L94.2872 132.684L94.3897 126.365L97.3595 125.33ZM106.016 124.762L106.81 127.042L99.7468 129.503L98.9525 127.223L106.016 124.762ZM110.851 122.051C110.963 121.544 111.215 121.078 111.607 120.653C111.999 120.229 112.505 119.908 113.126 119.692C113.864 119.435 114.598 119.389 115.328 119.555C116.058 119.72 116.716 120.091 117.3 120.668C117.896 121.24 118.354 121.987 118.675 122.907C118.996 123.827 119.102 124.702 118.995 125.532C118.895 126.347 118.613 127.051 118.148 127.645C117.679 128.229 117.075 128.649 116.337 128.907C115.705 129.127 115.111 129.196 114.555 129.114C113.994 129.021 113.508 128.812 113.095 128.488L113.531 129.74L110.786 130.697L106.646 118.818L109.391 117.861L110.851 122.051ZM115.882 123.88C115.643 123.196 115.264 122.728 114.744 122.477C114.232 122.211 113.697 122.175 113.141 122.369C112.595 122.559 112.198 122.92 111.951 123.45C111.714 123.976 111.715 124.582 111.954 125.267C112.193 125.952 112.568 126.427 113.081 126.693C113.604 126.954 114.139 126.99 114.685 126.8C115.23 126.61 115.627 126.25 115.874 125.719C116.118 125.178 116.12 124.565 115.882 123.88ZM119.569 122.595C119.248 121.675 119.138 120.807 119.238 119.992C119.349 119.174 119.639 118.473 120.108 117.889C120.576 117.306 121.18 116.885 121.918 116.628C122.55 116.408 123.146 116.344 123.706 116.437C124.277 116.526 124.764 116.735 125.166 117.063L124.724 115.794L127.469 114.838L130.591 123.795L127.846 124.752L127.404 123.484C127.282 123.994 127.025 124.462 126.633 124.887C126.251 125.308 125.745 125.628 125.113 125.848C124.386 126.102 123.657 126.146 122.927 125.98C122.193 125.804 121.529 125.429 120.933 124.857C120.345 124.27 119.89 123.516 119.569 122.595ZM126.285 120.273C126.046 119.588 125.665 119.115 125.142 118.853C124.63 118.588 124.1 118.55 123.555 118.74C123.009 118.931 122.612 119.291 122.365 119.821C122.125 120.337 122.124 120.937 122.362 121.622C122.601 122.307 122.979 122.788 123.495 123.064C124.018 123.325 124.553 123.361 125.099 123.171C125.644 122.981 126.036 122.622 126.272 122.096C126.519 121.566 126.524 120.958 126.285 120.273ZM130.47 118.815C130.146 117.884 130.05 117.005 130.182 116.179C130.325 115.349 130.668 114.629 131.212 114.02C131.766 113.406 132.482 112.947 133.36 112.641C134.483 112.25 135.522 112.218 136.477 112.545C137.442 112.869 138.228 113.525 138.837 114.513L135.915 115.531C135.43 114.932 134.835 114.756 134.128 115.002C133.625 115.177 133.293 115.515 133.131 116.015C132.966 116.505 133.01 117.114 133.264 117.841C133.517 118.569 133.863 119.079 134.3 119.37C134.734 119.651 135.203 119.704 135.706 119.529C136.412 119.283 136.769 118.774 136.777 118.003L139.698 116.985C139.828 118.116 139.618 119.114 139.067 119.978C138.516 120.842 137.684 121.468 136.571 121.856C135.693 122.161 134.847 122.246 134.031 122.111C133.226 121.971 132.51 121.62 131.882 121.059C131.265 120.494 130.795 119.746 130.47 118.815ZM147.771 117.809L143.733 115.003L145.042 118.76L142.297 119.716L138.157 107.837L140.902 106.88L143.19 113.446L144.633 108.857L148.02 107.676L145.862 113.469L151.174 116.623L147.771 117.809Z" fill="#4E43DF"/>
</svg>
