<svg width="715" height="700" viewBox="0 0 715 700" fill="none" xmlns="http://www.w3.org/2000/svg">
<path opacity="0.3" fill-rule="evenodd" clip-rule="evenodd" d="M840.002 256.7C878.117 325.454 828.432 405.441 807.583 481.245C783.132 570.148 785.393 675.551 710.143 728.854C626.033 788.434 510.799 796.043 414.309 759.823C317.822 723.604 244.127 639.771 211.992 541.86C182.657 452.481 216.967 359.914 254.782 273.766C289.904 193.754 330.755 101.92 415.117 79.1165C494.984 57.5284 559.186 138.954 635.511 170.854C706.418 200.49 802.744 189.493 840.002 256.7Z" fill="url(#paint0_linear_1_471)"/>
<path opacity="0.3" fill-rule="evenodd" clip-rule="evenodd" d="M913.922 554.313C893.93 626.092 820.071 657.912 746.494 689.611L746.493 689.611C722.487 699.954 698.51 710.284 676.444 721.984C660.86 730.248 645.506 739.366 630.263 748.831V743.516H145.118C102.566 704.607 67.2959 658.025 42.3051 607.671C-17.2057 487.761 -11.0527 346.83 48.0008 231.474C101.909 126.169 219.95 76.1703 335.463 35.0118C442.75 -3.21563 566.407 -46.5983 668.486 10.3894C732.571 46.1667 748.411 115.454 764.668 186.568L764.669 186.569C772.927 222.692 781.292 259.286 796.144 292.199C801.068 303.111 806.885 313.843 813.264 324.442V574.517H862.264V396.17C898.423 447.496 929.544 498.22 913.922 554.313ZM230.879 805.516H539.572C482.119 838.775 422.82 862.735 355.249 850.555C311.483 842.665 269.574 827.062 230.879 805.516Z" fill="url(#paint1_linear_1_471)"/>
<defs>
<linearGradient id="paint0_linear_1_471" x1="848.966" y1="275.583" x2="218.657" y2="561.787" gradientUnits="userSpaceOnUse">
<stop stop-color="#0A1330"/>
<stop offset="1" stop-color="white" stop-opacity="0"/>
</linearGradient>
<linearGradient id="paint1_linear_1_471" x1="840.613" y1="524.452" x2="-28.478" y2="200.431" gradientUnits="userSpaceOnUse">
<stop stop-color="#0A1330"/>
<stop offset="1" stop-color="white" stop-opacity="0"/>
</linearGradient>
</defs>
</svg>
