<svg width="32" height="32" viewBox="0 0 32 32" fill="none" xmlns="http://www.w3.org/2000/svg">
<g clip-path="url(#clip0_117_265)">
<path fill-rule="evenodd" clip-rule="evenodd" d="M25.2011 6.19775L23.8704 6.86424C26.4646 8.95968 27.7325 11.6653 27.9675 14.9382C27.7711 21.2576 24.7896 25.3194 19.6685 27.0607C13.7507 28.8438 10.0022 27.4016 6.37411 23.704L6.14459 25.1252L7.6199 26.6623C12.7509 32.0096 21.2585 32.1851 26.6047 27.054C31.952 21.923 32.1275 13.4165 26.9965 8.0692L25.2011 6.19775Z" fill="#FEEF7C"/>
<path fill-rule="evenodd" clip-rule="evenodd" d="M5.41457 24.3338L6.30616 23.5548C2.60188 18.3068 2.4474 10.6224 7.51553 6.39284C11.2728 3.25684 18.7277 1.63146 24.6918 6.88277L25.1376 6.10043L23.6833 4.5854C18.5522 -0.761916 10.0457 -0.937364 4.69843 4.19367C-0.648879 9.32471 -0.824327 17.8323 4.30671 23.1785L5.41457 24.3338Z" fill="#5CD3CB"/>
<path d="M15.6624 28.0111C22.483 28.0111 28.0121 22.4819 28.0121 15.6613C28.0121 8.84071 22.483 3.31152 15.6624 3.31152C8.84175 3.31152 3.31256 8.84071 3.31256 15.6613C3.31256 22.4819 8.84175 28.0111 15.6624 28.0111Z" fill="white"/>
<path d="M2.20709 15.6614C2.20709 23.0909 8.23082 29.1146 15.6603 29.1146C23.091 29.1146 29.1147 23.0909 29.1147 15.6614C29.1147 8.23075 23.091 2.20703 15.6603 2.20703C8.23082 2.20703 2.20709 8.23075 2.20709 15.6614ZM11.571 18.0945C11.7122 17.6476 11.5555 17.1599 11.1792 16.8785C10.1839 16.1348 8.21978 14.6683 6.90116 13.684C6.71026 13.5417 6.63302 13.2934 6.70806 13.0672C6.78309 12.8421 6.99385 12.6898 7.23109 12.6898H12.3445C12.8201 12.6898 13.2427 12.3852 13.3916 11.9328C13.7944 10.7157 14.5955 8.29586 15.1274 6.69255C15.2013 6.46745 15.4121 6.31517 15.6504 6.31407C15.8876 6.31407 16.0984 6.46634 16.1745 6.69145C16.7108 8.29586 17.5218 10.719 17.929 11.9361C18.0791 12.3863 18.5006 12.6898 18.9751 12.6898C20.1845 12.6898 22.515 12.6898 24.1006 12.6898C24.3379 12.6898 24.5486 12.841 24.6236 13.0661C24.6987 13.2912 24.6225 13.5394 24.4327 13.6818C23.1174 14.6727 21.1533 16.1524 20.1591 16.9005C19.7861 17.1819 19.6305 17.6685 19.7718 18.1154C20.1558 19.3292 20.926 21.7623 21.4468 23.4054C21.5196 23.636 21.4347 23.8865 21.2372 24.0244C21.0407 24.1623 20.7759 24.1568 20.585 24.0101C19.2631 22.996 17.3332 21.5141 16.3224 20.7383C15.9252 20.4338 15.3723 20.4349 14.9762 20.7405C13.9743 21.5152 12.0708 22.9872 10.761 24.0001C10.5701 24.148 10.3053 24.1546 10.1078 24.0167C9.90916 23.8777 9.8242 23.6272 9.89702 23.3977C10.4179 21.7491 11.187 19.3116 11.571 18.0945Z" fill="#0A1330"/>
</g>
<defs>
<clipPath id="clip0_117_265">
<rect width="32" height="32" fill="white"/>
</clipPath>
</defs>
</svg>
