<svg width="112" height="16" viewBox="0 0 112 16" fill="none" xmlns="http://www.w3.org/2000/svg">
<path fill-rule="evenodd" clip-rule="evenodd" d="M7.34288 1.84455C7.58638 1.26015 8.41428 1.26015 8.65778 1.84455L9.9405 4.92308C10.044 5.17151 10.2868 5.33333 10.5559 5.33333H13.9291C14.5493 5.33333 14.8599 6.08322 14.4214 6.52178L11.6932 9.24999C11.522 9.42118 11.457 9.67174 11.5235 9.90454L12.6055 13.6913C12.7882 14.3307 12.0752 14.8511 11.5219 14.4823L8.37013 12.3811C8.1462 12.2318 7.85446 12.2318 7.63053 12.3811L4.48402 14.4788C3.92895 14.8488 3.21364 14.3267 3.39692 13.6852L4.47712 9.90454C4.54363 9.67174 4.4787 9.42118 4.30751 9.24999L1.59278 6.53526C1.14924 6.09172 1.46338 5.33333 2.09064 5.33333H5.44477C5.71391 5.33333 5.95665 5.17151 6.06016 4.92308L7.34288 1.84455Z" fill="#FFAE0A"/>
<path fill-rule="evenodd" clip-rule="evenodd" d="M31.3429 1.84455C31.5864 1.26015 32.4143 1.26015 32.6578 1.84455L33.9405 4.92308C34.044 5.17151 34.2868 5.33333 34.5559 5.33333H37.9291C38.5493 5.33333 38.8599 6.08322 38.4214 6.52178L35.6932 9.24999C35.522 9.42118 35.457 9.67174 35.5235 9.90454L36.6055 13.6913C36.7882 14.3307 36.0752 14.8511 35.5219 14.4823L32.3701 12.3811C32.1462 12.2318 31.8545 12.2318 31.6305 12.3811L28.484 14.4788C27.9289 14.8488 27.2136 14.3267 27.3969 13.6852L28.4771 9.90454C28.5436 9.67174 28.4787 9.42118 28.3075 9.24999L25.5928 6.53526C25.1492 6.09172 25.4634 5.33333 26.0906 5.33333H29.4448C29.7139 5.33333 29.9566 5.17151 30.0602 4.92308L31.3429 1.84455Z" fill="#FFAE0A"/>
<path fill-rule="evenodd" clip-rule="evenodd" d="M55.3429 1.84455C55.5864 1.26015 56.4143 1.26015 56.6578 1.84455L57.9405 4.92308C58.044 5.17151 58.2868 5.33333 58.5559 5.33333H61.9291C62.5493 5.33333 62.8599 6.08322 62.4214 6.52178L59.6932 9.24999C59.522 9.42118 59.457 9.67174 59.5235 9.90454L60.6055 13.6913C60.7882 14.3307 60.0752 14.8511 59.5219 14.4823L56.3701 12.3811C56.1462 12.2318 55.8545 12.2318 55.6305 12.3811L52.484 14.4788C51.929 14.8488 51.2136 14.3267 51.3969 13.6852L52.4771 9.90454C52.5436 9.67174 52.4787 9.42118 52.3075 9.24999L49.5928 6.53526C49.1492 6.09172 49.4634 5.33333 50.0906 5.33333H53.4448C53.7139 5.33333 53.9566 5.17151 54.0602 4.92308L55.3429 1.84455Z" fill="#FFAE0A"/>
<path fill-rule="evenodd" clip-rule="evenodd" d="M79.3429 1.84455C79.5864 1.26015 80.4143 1.26015 80.6578 1.84455L81.9405 4.92308C82.044 5.17151 82.2868 5.33333 82.5559 5.33333H85.9291C86.5493 5.33333 86.8599 6.08322 86.4214 6.52178L83.6932 9.24999C83.522 9.42118 83.457 9.67174 83.5235 9.90454L84.6055 13.6913C84.7882 14.3307 84.0752 14.8511 83.5219 14.4823L80.3701 12.3811C80.1462 12.2318 79.8545 12.2318 79.6305 12.3811L76.484 14.4788C75.929 14.8488 75.2136 14.3267 75.3969 13.6852L76.4771 9.90454C76.5436 9.67174 76.4787 9.42118 76.3075 9.24999L73.5928 6.53526C73.1492 6.09172 73.4634 5.33333 74.0906 5.33333H77.4448C77.7139 5.33333 77.9566 5.17151 78.0602 4.92308L79.3429 1.84455Z" fill="#FFAE0A"/>
<path fill-rule="evenodd" clip-rule="evenodd" d="M103.343 1.84455C103.586 1.26015 104.414 1.26015 104.658 1.84455L105.941 4.92308C106.044 5.17151 106.287 5.33333 106.556 5.33333H109.929C110.549 5.33333 110.86 6.08322 110.421 6.52178L107.693 9.24999C107.522 9.42118 107.457 9.67174 107.524 9.90454L108.605 13.6913C108.788 14.3307 108.075 14.8511 107.522 14.4823L104.37 12.3811C104.146 12.2318 103.854 12.2318 103.631 12.3811L100.484 14.4788C99.9289 14.8488 99.2136 14.3267 99.3969 13.6852L100.477 9.90454C100.544 9.67174 100.479 9.42118 100.308 9.24999L97.5928 6.53526C97.1492 6.09172 97.4634 5.33333 98.0906 5.33333H101.445C101.714 5.33333 101.957 5.17151 102.06 4.92308L103.343 1.84455Z" fill="#FFAE0A"/>
</svg>
