<svg width="34" height="34" viewBox="0 0 34 34" fill="none" xmlns="http://www.w3.org/2000/svg">
<g id="sitejabber-icon">
<path id="Vector" d="M32.0993 23.9204L23.3767 24.0859C23.0827 24.0859 22.7887 24.2515 22.5926 24.5165C21.7107 25.9407 18.9665 29.915 16.5162 32.697C15.9936 33.1938 15.1442 33.0613 14.7848 32.432C14.7195 32.2996 14.6215 32.1671 14.6215 32.1339C14.0988 30.9085 12.498 23.821 11.7793 22.9268C10.8973 21.8669 3.31811 19.9461 2.14204 19.5486C1.29265 19.2505 1.06396 18.1245 1.71734 17.4952C3.6448 15.6405 6.74834 13.0241 8.96978 11.5337C9.26382 11.3681 9.45981 11.0369 9.45981 10.7056L9.32917 2.29338C9.32917 1.63099 9.98254 1.1342 10.6032 1.43228C12.4653 2.22715 15.7975 4.34678 17.8884 6.20147C18.117 6.46642 18.4764 6.56576 18.8031 6.46642C20.3059 6.03587 24.5201 4.81045 28.6364 4.57862C29.1918 4.5455 29.6491 5.00917 29.5838 5.60533C29.3878 7.59251 28.8324 11.8649 27.9176 14.6801C27.8197 14.9781 27.8523 15.2762 28.081 15.5411C28.963 16.7003 31.0538 19.6148 32.8833 22.5293C33.21 23.1586 32.8179 23.9204 32.0993 23.9204Z" fill="white"/>
<path id="Vector_2" d="M22.2006 13.554C22.2006 14.6469 21.3186 15.5743 20.2405 15.5743C19.1625 15.5743 18.2804 14.6801 18.2804 13.554C18.2804 12.461 19.1625 11.5337 20.2405 11.5337C21.3186 11.5337 22.2006 12.461 22.2006 13.554ZM32.0993 23.9204L23.3767 24.0859C23.0827 24.0859 22.7886 24.2515 22.5926 24.5165C21.7107 25.9407 18.9665 29.915 16.5162 32.697C15.9936 33.1938 15.1442 33.0613 14.7848 32.432C14.7195 32.2996 14.6215 32.1671 14.6215 32.1339C14.0988 30.9085 12.498 23.821 11.7793 22.9268C10.8973 21.8669 3.31811 19.9461 2.14204 19.5486C1.29265 19.2505 1.06396 18.1245 1.71734 17.4952C3.6448 15.6405 6.74834 13.0241 8.96978 11.5337C9.26382 11.3681 9.45981 11.0369 9.45981 10.7056L9.32917 2.29338C9.32917 1.63099 9.98254 1.1342 10.6032 1.43228C12.4653 2.22715 15.7975 4.34678 17.8884 6.20147C18.117 6.46642 18.4764 6.56576 18.8031 6.46642C20.3059 6.03587 24.5201 4.81045 28.6364 4.57862C29.1918 4.5455 29.6491 5.00917 29.5838 5.60533C29.3878 7.59251 28.8324 11.8649 27.9176 14.6801C27.8197 14.9781 27.8523 15.2762 28.081 15.5411C28.963 16.7003 31.0538 19.6148 32.8833 22.5293C33.21 23.1586 32.8179 23.9204 32.0993 23.9204ZM26.9702 7.52626C27.0357 7.29441 26.807 7.06256 26.5456 7.09571C17.725 8.02305 9.65585 14.5476 7.04233 16.899C6.61764 17.2633 6.74834 17.9588 7.27103 18.1576C7.27103 18.1576 12.89 19.0849 14.2295 20.2441C15.2095 21.1052 16.157 26.2718 16.157 26.2718C16.353 26.7686 16.9737 26.8679 17.333 26.5036C24.9447 18.5882 26.6762 9.71214 26.9702 7.52626Z" fill="url(#paint0_linear_117_289)"/>
<path id="Vector_3" d="M11.8172 29.1378C11.7368 28.8529 11.616 28.568 11.4952 28.2515L8.0341 31.1322C7.7926 31.3537 7.67188 31.6386 7.67188 31.9236C7.67188 32.2401 7.83288 32.5251 8.1146 32.715C8.35605 32.9049 8.71827 32.9999 9.08049 32.9999C9.48291 32.9999 9.84521 32.8733 10.1269 32.6517L12.4209 30.7523C12.2197 30.3091 12.0185 29.7709 11.8172 29.1378Z" fill="url(#paint1_linear_117_289)"/>
<path id="Vector_4" d="M10.4204 24.0495C10.1768 23.8787 9.68977 23.708 9.13307 23.5029L1.68776 30.9501C1.44422 31.1892 1.33984 31.4966 1.33984 31.8041C1.33984 32.1115 1.44422 32.4532 1.68776 32.6581C1.9313 32.863 2.24441 32.9998 2.55754 32.9998C2.87066 32.9998 3.18378 32.8972 3.46211 32.6581L10.8378 25.2793C10.6987 24.7669 10.5595 24.3229 10.4204 24.0495Z" fill="url(#paint2_linear_117_289)"/>
<path id="Vector_5" d="M3.75914 21.9204L1.63852 23.6471C1.45931 23.8149 1.33984 24.0308 1.33984 24.2467C1.33984 24.4625 1.42944 24.7023 1.63852 24.8462C1.8476 24.9901 2.1164 25.086 2.38522 25.086C2.65403 25.086 2.95271 24.9901 3.13191 24.8462L6.08883 22.448C5.25252 22.2802 4.41624 22.0883 3.75914 21.9204Z" fill="url(#paint3_linear_117_289)"/>
<path id="Vector_6" d="M11.8172 29.1378C11.7368 28.8529 11.616 28.568 11.4952 28.2515L8.0341 31.1322C7.7926 31.3537 7.67188 31.6386 7.67188 31.9236C7.67188 32.2401 7.83288 32.5251 8.1146 32.715C8.35605 32.9049 8.71827 32.9999 9.08049 32.9999C9.48291 32.9999 9.84521 32.8733 10.1269 32.6517L12.4209 30.7523C12.2197 30.3091 12.0185 29.7709 11.8172 29.1378Z" fill="url(#paint4_linear_117_289)" stroke="url(#paint5_linear_117_289)" stroke-width="0.53541"/>
<path id="Vector_7" d="M3.75914 21.9204L1.63852 23.6471C1.45931 23.8149 1.33984 24.0308 1.33984 24.2467C1.33984 24.4625 1.42944 24.7023 1.63852 24.8462C1.8476 24.9901 2.1164 25.086 2.38522 25.086C2.65403 25.086 2.95271 24.9901 3.13191 24.8462L6.08883 22.448C5.25252 22.2802 4.41624 22.0883 3.75914 21.9204Z" stroke="url(#paint6_linear_117_289)" stroke-width="0.53541"/>
<path id="Vector_8" d="M10.4204 24.0495C10.1768 23.8787 9.68977 23.708 9.13307 23.5029L1.68776 30.9501C1.44422 31.1892 1.33984 31.4966 1.33984 31.8041C1.33984 32.1115 1.44422 32.4532 1.68776 32.6581C1.9313 32.863 2.24441 32.9998 2.55754 32.9998C2.87066 32.9998 3.18378 32.8972 3.46211 32.6581L10.8378 25.2793C10.6987 24.7669 10.5595 24.3229 10.4204 24.0495Z" stroke="url(#paint7_linear_117_289)" stroke-opacity="0.5" stroke-width="0.53541"/>
<g id="Group" filter="url(#filter0_ii_117_289)">
<path id="Vector_9" d="M32.0894 23.5056L23.2733 23.6707C22.9761 23.6707 22.679 23.8357 22.4808 24.0999C21.5894 25.5196 18.8157 29.4814 16.3392 32.2547C15.811 32.7499 14.9524 32.6178 14.5892 31.9905C14.5232 31.8585 14.4241 31.7264 14.4241 31.6934C13.8958 30.4718 12.2779 23.4066 11.5514 22.5152C10.66 21.4587 2.99949 19.5438 1.8108 19.1476C0.952296 18.8505 0.721159 17.728 1.38154 17.1006C3.32968 15.2518 6.46652 12.6436 8.71179 11.1579C9.00899 10.9928 9.20708 10.6626 9.20708 10.3325L9.07504 1.94665C9.07504 1.28634 9.73542 0.79111 10.3627 1.08825C12.2448 1.88062 15.6128 3.99359 17.7261 5.84245C17.9572 6.10656 18.3204 6.20559 18.6506 6.10656C20.1695 5.67737 24.4289 4.4558 28.5894 4.2247C29.1508 4.19169 29.613 4.6539 29.5469 5.24818C29.3489 7.22911 28.7875 11.488 27.8629 14.2944C27.7639 14.5915 27.7969 14.8886 28.028 15.1527C28.9196 16.3083 31.0328 19.2136 32.8819 22.119C33.2121 22.7463 32.8158 23.5056 32.0894 23.5056Z" stroke="url(#paint8_linear_117_289)" stroke-width="0.53541"/>
</g>
</g>
<defs>
<filter id="filter0_ii_117_289" x="0.732468" y="0.730225" width="32.5334" height="32.2013" filterUnits="userSpaceOnUse" color-interpolation-filters="sRGB">
<feFlood flood-opacity="0" result="BackgroundImageFix"/>
<feBlend mode="normal" in="SourceGraphic" in2="BackgroundImageFix" result="shape"/>
<feColorMatrix in="SourceAlpha" type="matrix" values="0 0 0 0 0 0 0 0 0 0 0 0 0 0 0 0 0 0 127 0" result="hardAlpha"/>
<feOffset dy="0.107082"/>
<feGaussianBlur stdDeviation="0.053541"/>
<feComposite in2="hardAlpha" operator="arithmetic" k2="-1" k3="1"/>
<feColorMatrix type="matrix" values="0 0 0 0 1 0 0 0 0 1 0 0 0 0 1 0 0 0 0.8 0"/>
<feBlend mode="normal" in2="shape" result="effect1_innerShadow_117_289"/>
<feColorMatrix in="SourceAlpha" type="matrix" values="0 0 0 0 0 0 0 0 0 0 0 0 0 0 0 0 0 0 127 0" result="hardAlpha"/>
<feOffset dy="0.053541"/>
<feGaussianBlur stdDeviation="0.053541"/>
<feComposite in2="hardAlpha" operator="arithmetic" k2="-1" k3="1"/>
<feColorMatrix type="matrix" values="0 0 0 0 0.441667 0 0 0 0 0.441667 0 0 0 0 0.441667 0 0 0 0.4 0"/>
<feBlend mode="normal" in2="effect1_innerShadow_117_289" result="effect2_innerShadow_117_289"/>
</filter>
<linearGradient id="paint0_linear_117_289" x1="28.2692" y1="5.42564" x2="8.75025" y2="24.679" gradientUnits="userSpaceOnUse">
<stop offset="0.1745" stop-color="#52BFCA"/>
<stop offset="0.9163" stop-color="#7238DF"/>
</linearGradient>
<linearGradient id="paint1_linear_117_289" x1="4.56426" y1="35.2835" x2="11.7026" y2="26.3628" gradientUnits="userSpaceOnUse">
<stop offset="0.1875" stop-color="#25E2EA"/>
<stop offset="1" stop-color="#19A6D1"/>
</linearGradient>
<linearGradient id="paint2_linear_117_289" x1="-4.94136" y1="38.9632" x2="12.6728" y2="21.3294" gradientUnits="userSpaceOnUse">
<stop stop-color="#A443FD"/>
<stop offset="1" stop-color="#A959F3"/>
</linearGradient>
<linearGradient id="paint3_linear_117_289" x1="-1.18805" y1="27.0609" x2="4.81729" y2="19.7089" gradientUnits="userSpaceOnUse">
<stop offset="0.3958" stop-color="#E55EC4"/>
<stop offset="1" stop-color="#8225D0"/>
</linearGradient>
<linearGradient id="paint4_linear_117_289" x1="4.56426" y1="35.2835" x2="11.7026" y2="26.3628" gradientUnits="userSpaceOnUse">
<stop offset="0.1875" stop-color="#25E2EA"/>
<stop offset="1" stop-color="#19A6D1"/>
</linearGradient>
<linearGradient id="paint5_linear_117_289" x1="7.67188" y1="33.2293" x2="10.3556" y2="29.6904" gradientUnits="userSpaceOnUse">
<stop/>
<stop offset="0.0001" stop-color="#E4FCFF"/>
<stop offset="1" stop-color="#E4FCFF" stop-opacity="0"/>
</linearGradient>
<linearGradient id="paint6_linear_117_289" x1="1.33984" y1="24.9994" x2="4.02917" y2="21.5769" gradientUnits="userSpaceOnUse">
<stop stop-color="#FFF5FE"/>
<stop offset="0.769332" stop-color="#FFF5FE" stop-opacity="0"/>
</linearGradient>
<linearGradient id="paint7_linear_117_289" x1="1.72712" y1="32.6984" x2="10.1919" y2="23.881" gradientUnits="userSpaceOnUse">
<stop stop-color="#F6EDFE"/>
<stop offset="0.850896" stop-color="#A851F8" stop-opacity="0"/>
</linearGradient>
<linearGradient id="paint8_linear_117_289" x1="29.7463" y1="4.01411" x2="8.5759" y2="26.227" gradientUnits="userSpaceOnUse">
<stop offset="0.00924772" stop-color="#2D9FAB"/>
<stop offset="0.0885417" stop-color="#2D9FAB" stop-opacity="0.823892"/>
<stop offset="0.171875" stop-color="#2D9FAB" stop-opacity="0.8"/>
<stop offset="0.302083" stop-color="#2D9FAB" stop-opacity="0.8"/>
<stop offset="1" stop-color="white" stop-opacity="0.5"/>
</linearGradient>
</defs>
</svg>
