<svg width="20" height="20" viewBox="0 0 20 20" fill="none" xmlns="http://www.w3.org/2000/svg">
<path fill-rule="evenodd" clip-rule="evenodd" d="M10.419 0.545941C10.7299 0.636491 11.0071 0.874074 11.5614 1.34924L12.4733 2.13086C12.7229 2.34474 12.8476 2.45168 12.9884 2.52785C13.1132 2.59542 13.247 2.64492 13.3858 2.67487C13.5423 2.70864 13.7066 2.70864 14.0352 2.70864L14.8912 2.70864C15.7313 2.70864 16.1513 2.70864 16.4722 2.87213C16.7544 3.01594 16.9839 3.24541 17.1277 3.52766C17.2912 3.84852 17.2912 4.26856 17.2912 5.10863L17.2912 5.10864L17.2912 5.96462C17.2912 6.29327 17.2912 6.4576 17.325 6.61404C17.3549 6.75281 17.4044 6.88662 17.472 7.01147C17.5482 7.15223 17.6551 7.27699 17.869 7.52652L18.6506 8.43841L18.6506 8.43842C19.1258 8.99277 19.3634 9.26995 19.4539 9.5808C19.5337 9.85478 19.5337 10.1458 19.4539 10.4198C19.3634 10.7307 19.1258 11.0078 18.6506 11.5622L17.869 12.4741C17.6551 12.7236 17.5482 12.8484 17.472 12.9891C17.4044 13.114 17.3549 13.2478 17.325 13.3866C17.2912 13.543 17.2912 13.7073 17.2912 14.036L17.2912 14.892C17.2912 15.7321 17.2912 16.1521 17.1277 16.473C16.9839 16.7552 16.7544 16.9847 16.4722 17.1285C16.1513 17.292 15.7313 17.292 14.8912 17.292L14.0352 17.292C13.7066 17.292 13.5423 17.292 13.3858 17.3257C13.247 17.3557 13.1132 17.4052 12.9884 17.4728C12.8476 17.5489 12.7229 17.6559 12.4733 17.8698L11.5614 18.6514C11.0071 19.1265 10.7299 19.3641 10.419 19.4547C10.1451 19.5345 9.85401 19.5345 9.58003 19.4547C9.26918 19.3641 8.992 19.1265 8.43764 18.6514L7.52575 17.8698C7.27622 17.6559 7.15146 17.5489 7.0107 17.4728C6.88585 17.4052 6.75204 17.3557 6.61327 17.3257C6.45683 17.292 6.2925 17.292 5.96385 17.292L5.07936 17.292C4.23928 17.292 3.81924 17.292 3.49837 17.1285C3.21613 16.9847 2.98666 16.7552 2.84285 16.473C2.67936 16.1521 2.67936 15.7321 2.67936 14.892L2.67936 14.0263C2.67936 13.7004 2.67936 13.5375 2.64613 13.3822C2.61665 13.2445 2.56792 13.1117 2.50139 12.9875C2.42638 12.8476 2.32105 12.7233 2.11039 12.4747L1.3284 11.5519C0.861319 11.0007 0.62778 10.725 0.538674 10.4165C0.460129 10.1446 0.460129 9.856 0.538674 9.58407C0.62778 9.27557 0.861319 8.99996 1.3284 8.44875L2.11039 7.5259C2.32105 7.27729 2.42638 7.15299 2.50139 7.01307C2.56792 6.88895 2.61665 6.75609 2.64613 6.61838C2.67936 6.46314 2.67936 6.30021 2.67936 5.97435L2.67936 5.10864C2.67936 4.26856 2.67936 3.84852 2.84285 3.52766C2.98666 3.24541 3.21613 3.01594 3.49837 2.87213C3.81924 2.70864 4.23928 2.70864 5.07936 2.70864L5.96385 2.70864C6.2925 2.70864 6.45683 2.70864 6.61327 2.67487C6.75204 2.64492 6.88585 2.59542 7.0107 2.52785C7.15146 2.45168 7.27622 2.34474 7.52575 2.13086L7.52575 2.13086L8.43764 1.34924C8.992 0.874074 9.26918 0.636491 9.58003 0.545941C9.85401 0.466134 10.1451 0.466134 10.419 0.545941ZM13.7312 7.8976C13.9509 7.67793 13.9509 7.32177 13.7312 7.1021C13.5116 6.88243 13.1554 6.88243 12.9357 7.1021L9.16682 10.871L7.8979 9.6021C7.67823 9.38243 7.32208 9.38243 7.10241 9.6021C6.88274 9.82177 6.88274 10.1779 7.10241 10.3976L8.76908 12.0643C8.87457 12.1698 9.01764 12.229 9.16682 12.229C9.31601 12.229 9.45908 12.1698 9.56457 12.0643L13.7312 7.8976Z" fill="#5278FF"/>
</svg>
