<svg width="1440" height="800" viewBox="0 0 1440 800" fill="none" xmlns="http://www.w3.org/2000/svg">
<g clip-path="url(#clip0_711_178)">
<path opacity="0.1" d="M866 332C863.239 332 861 329.761 861 327C861 324.239 863.239 322 866 322C868.761 322 871 324.239 871 327C871 329.761 868.761 332 866 332Z" fill="#0070F5"/>
<path opacity="0.1" d="M700 131C697.239 131 695 128.761 695 126C695 123.239 697.239 121 700 121C702.761 121 705 123.239 705 126C705 128.761 702.761 131 700 131Z" fill="#0070F5"/>
<path opacity="0.1" d="M1205 114C1202.24 114 1200 111.761 1200 109C1200 106.239 1202.24 104 1205 104C1207.76 104 1210 106.239 1210 109C1210 111.761 1207.76 114 1205 114Z" fill="#0070F5"/>
<path opacity="0.1" d="M1215 492C1212.24 492 1210 489.761 1210 487C1210 484.239 1212.24 482 1215 482C1217.76 482 1220 484.239 1220 487C1220 489.761 1217.76 492 1215 492Z" fill="#0070F5"/>
<path fill-rule="evenodd" clip-rule="evenodd" d="M0 811V540.642C13.9017 533.044 29.3357 553.607 31.6819 565.57C32.5535 569.984 33.0541 574.608 33.555 579.235C34.9069 591.722 36.2604 604.223 44.9132 612.645C52.0878 619.624 62.2104 621.571 72.3182 623.516C82.6052 625.495 92.8766 627.471 100.009 634.744C106.316 641.181 108.556 650.178 110.803 659.203C112.941 667.788 115.085 676.399 120.742 682.854C130.211 693.655 144.976 694.282 159.954 694.919C173.378 695.489 186.973 696.067 197.082 703.982C200.222 706.433 202.825 709.473 205.429 712.514C207.549 714.991 209.671 717.469 212.085 719.631C226.77 732.809 247.366 731.63 268.045 730.446C288.18 729.293 308.393 728.136 323.298 740.226C326.375 742.729 329.039 745.691 331.704 748.654C334.306 751.547 336.909 754.442 339.897 756.91C355.667 769.988 378.506 768.727 398.521 764.766C398.905 764.69 399.29 764.614 399.676 764.537C406.68 763.141 413.947 761.694 420.754 763.732C427.306 765.695 432.312 770.488 437.358 775.32C440.831 778.645 444.323 781.989 448.35 784.44C462.385 792.992 478.662 789.252 495.294 785.431C507.902 782.534 520.714 779.59 532.909 781.918C541.005 783.463 548.379 787.261 555.763 791.064C559.195 792.832 562.63 794.6 566.139 796.144C578.049 801.38 591.464 804.454 604.76 807.501C627.539 812.722 649.97 817.863 663.898 833.653C663.851 833.714 663.801 833.779 663.749 833.848C662.88 834.99 661.209 837.187 654.5 838.307C651.963 838.731 648.706 839 644.5 839H34.4997C-6.50031 839 0.999695 818 0 811Z" fill="white"/>
<path d="M0 811C0.999695 818 -6.50031 839 34.4997 839H14.4997C10.4999 838.833 1.99994 835.8 -0.000305176 825L0 818V811Z" fill="white"/>
<path d="M295.18 796.083C302.682 797.781 311.572 795.194 317.477 800.173C320.606 802.808 322.01 806.995 324.74 810.051C330.517 816.517 340.397 816.42 349 815.838C347.005 822.692 338.801 825.732 331.762 825.214C324.724 824.697 318.068 821.706 311.061 820.866C299.218 819.459 287.104 824.26 275.421 821.819C271.958 821.092 268.638 819.75 265.143 819.265C259.062 818.425 252.853 820.235 246.788 819.33C240.723 818.425 234.418 812.766 236.381 806.866C238.025 801.903 244.442 799.995 246.373 795.146C259.876 761.262 272.484 790.943 295.18 796.083Z" fill="#E3F4FF"/>
<path d="M168.867 775.165C168.835 773.969 168.484 772.659 167.782 771.204C163.696 762.701 145.118 760.616 137.297 760.211C129.365 759.807 121.241 759.436 113.596 757.011C103.62 753.842 91.3466 745.064 86.319 735.575C84.1643 731.517 81.9298 726.231 77.381 726.037C73.8218 725.875 71.0127 729.141 67.5333 729.981C62.9207 731.097 58.4837 727.75 55.1958 724.307C52.7698 721.769 50.2958 718.924 46.8962 718.132C43.4966 717.356 39.1872 720.12 39.9852 723.547C40.3045 724.937 41.3738 726.069 41.7569 727.443C42.8262 731.291 38.5168 734.362 37.1602 738.113C36.7292 739.325 36.6016 740.651 35.9631 741.75C35.2609 742.979 34.048 743.803 32.8669 744.563C27.9191 747.796 22.9872 751.029 18.0394 754.262C16.8902 755.022 15.6773 755.83 15.0069 757.043C13.4587 759.888 17.5765 764.463 19.6195 766.128C25.1897 770.687 32.5955 772.886 39.7139 772.11C43.6083 771.689 47.3591 770.412 51.1737 769.555C58.5634 767.89 66.049 768.747 73.4388 767.486C77.78 766.742 82.1213 766.015 86.4626 765.271C89.3993 764.77 92.6554 764.334 95.1133 766.015C98.3853 768.246 98.6086 772.934 100.332 776.523C103.046 782.165 110.42 784.961 116.117 782.52C118.352 781.567 120.459 779.885 122.885 779.999C124.72 780.079 126.332 781.146 127.96 782.035C134.935 785.834 169.266 787.823 168.867 775.165Z" fill="#E3F4FF"/>
<path opacity="0.1" d="M479.464 690.819C479.773 690.256 479.722 689.617 479.103 689.246C478.471 688.862 477.813 688.913 477.323 689.502C476.95 689.962 476.64 690.486 476.344 690.998C475.738 692.021 475.17 693.07 474.564 694.093C473.778 695.423 472.295 695.499 471.457 694.221C471.032 693.568 470.671 692.891 470.271 692.226C469.794 691.407 469.317 690.576 468.827 689.757C468.389 689.028 467.718 688.875 466.97 689.195C466.326 689.476 466.158 690.218 466.519 691.062C466.635 691.33 466.829 691.573 466.97 691.829C467.615 692.967 468.285 694.093 468.904 695.244C469.858 697.034 469.149 698.262 467.151 698.287C466.493 698.3 465.836 698.287 465.165 698.287V698.3C464.211 698.3 463.244 698.287 462.29 698.3C461.504 698.313 461.027 698.761 461.001 699.502C460.975 700.257 461.491 700.692 462.226 700.794C462.638 700.845 463.064 700.832 463.476 700.845C464.856 700.845 466.235 700.883 467.615 700.845C468.389 700.819 468.801 701.19 469.149 701.83C469.51 702.482 469.485 703.006 469.098 703.646C468.234 705.065 467.435 706.536 466.622 707.994C466.223 708.723 466.248 709.362 467.061 709.81C467.86 710.232 468.44 709.912 468.891 709.234C469.059 708.991 469.175 708.71 469.33 708.454C470 707.329 470.658 706.191 471.354 705.078C472.295 703.582 473.804 703.582 474.719 705.065C475.222 705.871 475.673 706.715 476.163 707.534C476.498 708.096 476.808 708.672 477.195 709.209C477.646 709.836 478.252 710.258 479.025 709.759C479.76 709.286 479.747 708.582 479.399 707.866C479.244 707.546 479.077 707.227 478.896 706.92C478.265 705.833 477.62 704.771 477.001 703.684C476.112 702.162 476.859 700.871 478.651 700.832C480.031 700.807 481.411 700.832 482.79 700.819C483.203 700.819 483.641 700.794 484.028 700.692C484.595 700.538 484.943 700.116 484.995 699.528C485.046 698.927 484.711 698.53 484.17 698.275C483.667 698.044 483.125 698.006 482.584 698.006C481.204 698.006 479.825 697.968 478.445 698.019C477.504 698.057 477.053 697.571 476.666 696.817C476.331 696.152 476.666 695.678 476.962 695.167C477.826 693.722 478.677 692.289 479.464 690.819ZM473.185 701.203C472.166 701.242 471.264 700.5 471.173 699.566C471.096 698.697 472.024 697.725 472.966 697.699C473.868 697.686 474.835 698.594 474.861 699.502C474.887 700.436 474.165 701.165 473.185 701.203Z" fill="#0070F5"/>
<path opacity="0.1" d="M276.409 672.815C272.87 672.815 270 669.946 270 666.408C270 662.869 272.87 660 276.409 660C279.949 660 282.819 662.869 282.819 666.408C282.819 669.946 279.949 672.815 276.409 672.815Z" fill="#0070F5"/>
<path opacity="0.1" d="M664.409 717.815C660.87 717.815 658 714.946 658 711.408C658 707.869 660.87 705 664.409 705C667.949 705 670.819 707.869 670.819 711.408C670.819 714.946 667.949 717.815 664.409 717.815Z" fill="#0070F5"/>
<path opacity="0.1" d="M716.003 455.031C716.506 454.093 716.423 453.028 715.417 452.41C714.39 451.77 713.322 451.855 712.526 452.836C711.918 453.603 711.415 454.477 710.933 455.33C709.949 457.035 709.027 458.783 708.042 460.488C706.764 462.704 704.355 462.832 702.993 460.701C702.302 459.614 701.715 458.484 701.065 457.376C700.29 456.012 699.515 454.626 698.719 453.262C698.006 452.047 696.917 451.791 695.702 452.324C694.654 452.793 694.382 454.029 694.969 455.436C695.157 455.884 695.471 456.289 695.702 456.715C696.749 458.612 697.839 460.488 698.845 462.406C700.395 465.39 699.243 467.436 695.995 467.479C694.927 467.5 693.858 467.479 692.769 467.479V467.5C691.218 467.5 689.647 467.479 688.097 467.5C686.819 467.522 686.043 468.268 686.002 469.504C685.96 470.761 686.798 471.486 687.992 471.656C688.662 471.742 689.354 471.72 690.024 471.742C692.266 471.742 694.508 471.806 696.749 471.742C698.006 471.699 698.677 472.317 699.243 473.383C699.829 474.47 699.787 475.344 699.159 476.41C697.755 478.776 696.456 481.227 695.136 483.657C694.487 484.871 694.529 485.937 695.849 486.683C697.147 487.387 698.09 486.854 698.824 485.724C699.096 485.319 699.285 484.85 699.536 484.424C700.625 482.548 701.694 480.651 702.825 478.797C704.355 476.303 706.806 476.303 708.293 478.776C709.111 480.118 709.844 481.525 710.64 482.889C711.185 483.827 711.688 484.786 712.316 485.681C713.049 486.726 714.034 487.429 715.291 486.598C716.485 485.809 716.464 484.637 715.899 483.443C715.647 482.911 715.375 482.378 715.082 481.866C714.055 480.054 713.007 478.285 712.002 476.474C710.556 473.937 711.771 471.784 714.684 471.72C716.925 471.678 719.167 471.72 721.409 471.699C722.079 471.699 722.792 471.657 723.42 471.486C724.342 471.23 724.908 470.527 724.992 469.546C725.075 468.545 724.531 467.884 723.651 467.458C722.834 467.074 721.954 467.01 721.074 467.01C718.832 467.01 716.59 466.946 714.348 467.031C712.819 467.095 712.086 466.285 711.457 465.028C710.912 463.919 711.457 463.131 711.939 462.278C713.343 459.87 714.725 457.482 716.003 455.031ZM705.8 472.339C704.145 472.403 702.679 471.166 702.532 469.61C702.406 468.161 703.915 466.541 705.444 466.498C706.911 466.477 708.482 467.99 708.524 469.504C708.566 471.06 707.393 472.275 705.8 472.339Z" fill="#0070F5"/>
<path opacity="0.1" d="M587.388 214.598C587.813 213.794 587.742 212.881 586.891 212.351C586.023 211.803 585.118 211.876 584.445 212.716C583.931 213.374 583.505 214.123 583.097 214.854C582.264 216.316 581.484 217.814 580.651 219.275C579.57 221.175 577.531 221.285 576.379 219.458C575.794 218.526 575.297 217.558 574.748 216.608C574.092 215.439 573.436 214.251 572.762 213.082C572.159 212.04 571.237 211.821 570.209 212.278C569.323 212.68 569.092 213.74 569.589 214.945C569.748 215.329 570.014 215.676 570.209 216.042C571.096 217.668 572.018 219.275 572.868 220.919C574.18 223.477 573.205 225.231 570.457 225.268C569.553 225.286 568.649 225.268 567.727 225.268V225.286C566.416 225.286 565.086 225.268 563.774 225.286C562.693 225.304 562.037 225.944 562.001 227.003C561.966 228.081 562.675 228.702 563.685 228.848C564.253 228.921 564.838 228.903 565.405 228.922C567.302 228.922 569.199 228.976 571.096 228.922C572.159 228.885 572.727 229.415 573.205 230.328C573.702 231.26 573.666 232.009 573.134 232.923C571.947 234.95 570.848 237.051 569.731 239.134C569.181 240.176 569.217 241.089 570.333 241.728C571.432 242.331 572.23 241.875 572.851 240.906C573.081 240.559 573.241 240.157 573.453 239.792C574.375 238.184 575.279 236.558 576.237 234.969C577.531 232.831 579.605 232.831 580.864 234.95C581.555 236.101 582.176 237.307 582.849 238.477C583.31 239.28 583.736 240.102 584.268 240.87C584.888 241.765 585.721 242.368 586.785 241.655C587.795 240.979 587.778 239.975 587.299 238.951C587.086 238.495 586.856 238.038 586.608 237.6C585.739 236.047 584.852 234.53 584.002 232.977C582.778 230.803 583.807 228.958 586.271 228.903C588.168 228.867 590.064 228.903 591.961 228.885C592.529 228.885 593.131 228.848 593.663 228.702C594.443 228.483 594.922 227.88 594.993 227.04C595.064 226.181 594.603 225.615 593.858 225.249C593.167 224.92 592.422 224.866 591.678 224.866C589.781 224.866 587.884 224.811 585.987 224.884C584.693 224.939 584.072 224.245 583.541 223.167C583.08 222.217 583.541 221.541 583.948 220.81C585.136 218.745 586.306 216.699 587.388 214.598ZM578.754 229.433C577.354 229.488 576.113 228.428 575.989 227.095C575.882 225.852 577.159 224.464 578.453 224.427C579.694 224.409 581.023 225.706 581.059 227.003C581.094 228.337 580.101 229.378 578.754 229.433Z" fill="#0070F5"/>
<path opacity="0.1" d="M333.464 139.905C333.773 139.316 333.722 138.646 333.103 138.257C332.471 137.855 331.813 137.909 331.323 138.525C330.95 139.008 330.64 139.557 330.344 140.093C329.738 141.165 329.17 142.263 328.564 143.335C327.778 144.729 326.295 144.809 325.457 143.469C325.032 142.786 324.671 142.076 324.271 141.379C323.794 140.522 323.317 139.651 322.827 138.793C322.389 138.03 321.718 137.869 320.97 138.204C320.326 138.499 320.158 139.276 320.519 140.16C320.635 140.441 320.829 140.696 320.97 140.964C321.615 142.156 322.285 143.335 322.904 144.541C323.858 146.417 323.149 147.703 321.151 147.73C320.493 147.743 319.836 147.73 319.165 147.73V147.743C318.211 147.743 317.244 147.73 316.29 147.743C315.504 147.756 315.027 148.225 315.001 149.002C314.975 149.793 315.491 150.248 316.226 150.356C316.638 150.409 317.064 150.396 317.476 150.409C318.856 150.409 320.235 150.449 321.615 150.409C322.389 150.382 322.801 150.771 323.149 151.441C323.51 152.124 323.485 152.673 323.098 153.343C322.234 154.83 321.435 156.371 320.622 157.898C320.223 158.662 320.248 159.332 321.061 159.801C321.86 160.243 322.44 159.908 322.891 159.198C323.059 158.943 323.175 158.649 323.33 158.381C324 157.202 324.658 156.009 325.354 154.844C326.295 153.276 327.804 153.276 328.719 154.83C329.222 155.674 329.673 156.559 330.163 157.416C330.498 158.006 330.808 158.608 331.195 159.171C331.646 159.828 332.252 160.27 333.025 159.747C333.76 159.252 333.747 158.515 333.399 157.764C333.244 157.429 333.077 157.095 332.896 156.773C332.265 155.634 331.62 154.522 331.001 153.383C330.112 151.789 330.859 150.436 332.651 150.396C334.031 150.369 335.411 150.396 336.79 150.382C337.203 150.382 337.641 150.356 338.028 150.248C338.595 150.088 338.943 149.645 338.995 149.029C339.046 148.399 338.711 147.984 338.17 147.716C337.667 147.475 337.125 147.435 336.584 147.435C335.204 147.435 333.825 147.395 332.445 147.448C331.504 147.488 331.053 146.979 330.666 146.189C330.331 145.492 330.666 144.996 330.962 144.461C331.826 142.947 332.677 141.446 333.464 139.905ZM327.185 150.784C326.166 150.824 325.264 150.047 325.173 149.069C325.096 148.158 326.024 147.14 326.966 147.113C327.868 147.1 328.835 148.051 328.861 149.002C328.887 149.98 328.165 150.744 327.185 150.784Z" fill="#0070F5"/>
<path opacity="0.1" d="M879.464 140.905C879.773 140.316 879.722 139.646 879.103 139.257C878.471 138.855 877.813 138.909 877.323 139.525C876.95 140.008 876.64 140.557 876.344 141.093C875.738 142.165 875.17 143.263 874.564 144.335C873.778 145.729 872.295 145.809 871.457 144.469C871.032 143.786 870.671 143.076 870.271 142.379C869.794 141.522 869.317 140.651 868.827 139.793C868.389 139.03 867.718 138.869 866.97 139.204C866.326 139.499 866.158 140.276 866.519 141.16C866.635 141.441 866.829 141.696 866.97 141.964C867.615 143.156 868.285 144.335 868.904 145.541C869.858 147.417 869.149 148.703 867.151 148.73C866.493 148.743 865.836 148.73 865.165 148.73V148.743C864.211 148.743 863.244 148.73 862.29 148.743C861.504 148.756 861.027 149.225 861.001 150.002C860.975 150.793 861.491 151.248 862.226 151.356C862.638 151.409 863.064 151.396 863.476 151.409C864.856 151.409 866.235 151.449 867.615 151.409C868.389 151.382 868.801 151.771 869.149 152.441C869.51 153.124 869.485 153.673 869.098 154.343C868.234 155.83 867.435 157.371 866.622 158.898C866.223 159.662 866.248 160.332 867.061 160.801C867.86 161.243 868.44 160.908 868.891 160.198C869.059 159.943 869.175 159.649 869.33 159.381C870 158.202 870.658 157.009 871.354 155.844C872.295 154.276 873.804 154.276 874.719 155.83C875.222 156.674 875.673 157.559 876.163 158.416C876.498 159.006 876.808 159.608 877.195 160.171C877.646 160.828 878.252 161.27 879.025 160.747C879.76 160.252 879.747 159.515 879.399 158.764C879.244 158.429 879.077 158.095 878.896 157.773C878.265 156.634 877.62 155.522 877.001 154.383C876.112 152.789 876.859 151.436 878.651 151.396C880.031 151.369 881.411 151.396 882.79 151.382C883.203 151.382 883.641 151.356 884.028 151.248C884.595 151.088 884.943 150.645 884.995 150.029C885.046 149.399 884.711 148.984 884.17 148.716C883.667 148.475 883.125 148.435 882.584 148.435C881.204 148.435 879.825 148.395 878.445 148.448C877.504 148.488 877.053 147.979 876.666 147.189C876.331 146.492 876.666 145.996 876.962 145.461C877.826 143.947 878.677 142.446 879.464 140.905ZM873.185 151.784C872.166 151.824 871.264 151.047 871.173 150.069C871.096 149.158 872.024 148.14 872.966 148.113C873.868 148.1 874.835 149.051 874.861 150.002C874.887 150.98 874.165 151.744 873.185 151.784Z" fill="#0070F5"/>
<path opacity="0.1" d="M895.464 425.905C895.773 425.316 895.722 424.646 895.103 424.257C894.471 423.855 893.813 423.909 893.323 424.525C892.95 425.008 892.64 425.557 892.344 426.093C891.738 427.165 891.17 428.263 890.564 429.335C889.778 430.729 888.295 430.809 887.457 429.469C887.032 428.786 886.671 428.076 886.271 427.379C885.794 426.522 885.317 425.651 884.827 424.793C884.389 424.03 883.718 423.869 882.97 424.204C882.326 424.499 882.158 425.276 882.519 426.16C882.635 426.441 882.829 426.696 882.97 426.964C883.615 428.156 884.285 429.335 884.904 430.541C885.858 432.417 885.149 433.703 883.151 433.73C882.493 433.743 881.836 433.73 881.165 433.73V433.743C880.211 433.743 879.244 433.73 878.29 433.743C877.504 433.756 877.027 434.225 877.001 435.002C876.975 435.793 877.491 436.248 878.226 436.356C878.638 436.409 879.064 436.396 879.476 436.409C880.856 436.409 882.235 436.449 883.615 436.409C884.389 436.382 884.801 436.771 885.149 437.441C885.51 438.124 885.485 438.673 885.098 439.343C884.234 440.83 883.435 442.371 882.622 443.898C882.223 444.662 882.248 445.332 883.061 445.801C883.86 446.243 884.44 445.908 884.891 445.198C885.059 444.943 885.175 444.649 885.33 444.381C886 443.202 886.658 442.009 887.354 440.844C888.295 439.276 889.804 439.276 890.719 440.83C891.222 441.674 891.673 442.559 892.163 443.416C892.498 444.006 892.808 444.608 893.195 445.171C893.646 445.828 894.252 446.27 895.025 445.747C895.76 445.252 895.747 444.515 895.399 443.764C895.244 443.429 895.077 443.095 894.896 442.773C894.265 441.634 893.62 440.522 893.001 439.383C892.112 437.789 892.859 436.436 894.651 436.396C896.031 436.369 897.411 436.396 898.79 436.382C899.203 436.382 899.641 436.356 900.028 436.248C900.595 436.088 900.943 435.645 900.995 435.029C901.046 434.399 900.711 433.984 900.17 433.716C899.667 433.475 899.125 433.435 898.584 433.435C897.204 433.435 895.825 433.395 894.445 433.448C893.504 433.488 893.053 432.979 892.666 432.189C892.331 431.492 892.666 430.996 892.962 430.461C893.826 428.947 894.677 427.446 895.464 425.905ZM889.185 436.784C888.166 436.824 887.264 436.047 887.173 435.069C887.096 434.158 888.024 433.14 888.966 433.113C889.868 433.1 890.835 434.051 890.861 435.002C890.887 435.98 890.165 436.744 889.185 436.784Z" fill="#0070F5"/>
<path opacity="0.1" d="M1359.62 206.598C1360.03 205.794 1359.96 204.881 1359.14 204.351C1358.29 203.803 1357.42 203.876 1356.76 204.716C1356.27 205.374 1355.85 206.123 1355.46 206.854C1354.65 208.316 1353.89 209.814 1353.09 211.275C1352.04 213.175 1350.06 213.285 1348.94 211.458C1348.38 210.526 1347.89 209.558 1347.36 208.608C1346.73 207.439 1346.09 206.251 1345.44 205.082C1344.85 204.04 1343.96 203.821 1342.96 204.278C1342.1 204.68 1341.88 205.74 1342.36 206.945C1342.51 207.329 1342.77 207.676 1342.96 208.042C1343.82 209.668 1344.71 211.275 1345.54 212.919C1346.81 215.477 1345.87 217.231 1343.2 217.268C1342.32 217.286 1341.45 217.268 1340.55 217.268V217.286C1339.28 217.286 1337.99 217.268 1336.72 217.286C1335.67 217.304 1335.04 217.944 1335 219.003C1334.97 220.081 1335.65 220.702 1336.63 220.848C1337.18 220.921 1337.75 220.903 1338.3 220.922C1340.14 220.922 1341.98 220.976 1343.82 220.922C1344.85 220.885 1345.4 221.415 1345.87 222.328C1346.35 223.26 1346.31 224.009 1345.8 224.923C1344.65 226.95 1343.58 229.051 1342.5 231.134C1341.96 232.176 1342 233.089 1343.08 233.728C1344.15 234.331 1344.92 233.875 1345.52 232.906C1345.75 232.559 1345.9 232.157 1346.11 231.792C1347 230.184 1347.88 228.558 1348.81 226.969C1350.06 224.831 1352.07 224.831 1353.29 226.95C1353.96 228.101 1354.56 229.307 1355.22 230.477C1355.66 231.28 1356.08 232.102 1356.59 232.87C1357.19 233.765 1358 234.368 1359.03 233.655C1360.01 232.979 1360 231.975 1359.53 230.951C1359.33 230.495 1359.1 230.038 1358.86 229.6C1358.02 228.047 1357.16 226.53 1356.33 224.977C1355.15 222.803 1356.15 220.958 1358.54 220.903C1360.37 220.867 1362.21 220.903 1364.05 220.885C1364.6 220.885 1365.19 220.848 1365.7 220.702C1366.46 220.483 1366.92 219.88 1366.99 219.04C1367.06 218.181 1366.61 217.615 1365.89 217.249C1365.22 216.92 1364.5 216.866 1363.78 216.866C1361.94 216.866 1360.1 216.811 1358.26 216.884C1357.01 216.939 1356.4 216.245 1355.89 215.167C1355.44 214.217 1355.89 213.541 1356.28 212.81C1357.43 210.745 1358.57 208.699 1359.62 206.598ZM1351.25 221.433C1349.89 221.488 1348.68 220.428 1348.56 219.095C1348.46 217.852 1349.7 216.464 1350.95 216.427C1352.16 216.409 1353.45 217.706 1353.48 219.003C1353.52 220.337 1352.55 221.378 1351.25 221.433Z" fill="#0070F5"/>
<path opacity="0.1" d="M1398.23 582.992C1398.56 582.376 1398.5 581.675 1397.86 581.269C1397.2 580.849 1396.51 580.905 1396 581.549C1395.61 582.054 1395.29 582.628 1394.98 583.188C1394.35 584.309 1393.76 585.457 1393.13 586.578C1392.31 588.034 1390.77 588.118 1389.89 586.718C1389.45 586.003 1389.07 585.261 1388.66 584.533C1388.16 583.636 1387.66 582.726 1387.15 581.829C1386.7 581.031 1386 580.863 1385.22 581.213C1384.55 581.521 1384.37 582.334 1384.75 583.258C1384.87 583.552 1385.07 583.818 1385.22 584.098C1385.89 585.345 1386.59 586.578 1387.23 587.838C1388.23 589.799 1387.49 591.144 1385.41 591.172C1384.72 591.186 1384.04 591.172 1383.34 591.172V591.186C1382.35 591.186 1381.34 591.172 1380.34 591.186C1379.52 591.2 1379.03 591.69 1379 592.502C1378.97 593.329 1379.51 593.805 1380.28 593.917C1380.71 593.973 1381.15 593.959 1381.58 593.973C1383.02 593.973 1384.45 594.015 1385.89 593.973C1386.7 593.945 1387.13 594.351 1387.49 595.052C1387.86 595.766 1387.84 596.34 1387.44 597.041C1386.54 598.595 1385.7 600.206 1384.86 601.803C1384.44 602.601 1384.47 603.302 1385.31 603.792C1386.15 604.254 1386.75 603.904 1387.22 603.162C1387.39 602.895 1387.52 602.587 1387.68 602.307C1388.38 601.075 1389.06 599.828 1389.79 598.609C1390.77 596.971 1392.34 596.971 1393.29 598.595C1393.81 599.478 1394.28 600.402 1394.79 601.299C1395.14 601.915 1395.47 602.545 1395.87 603.134C1396.34 603.82 1396.97 604.282 1397.78 603.736C1398.54 603.218 1398.53 602.447 1398.17 601.663C1398 601.313 1397.83 600.962 1397.64 600.626C1396.98 599.436 1396.31 598.273 1395.67 597.083C1394.74 595.416 1395.52 594.001 1397.39 593.959C1398.82 593.931 1400.26 593.959 1401.7 593.945C1402.13 593.945 1402.58 593.917 1402.99 593.805C1403.58 593.637 1403.94 593.175 1403.99 592.53C1404.05 591.872 1403.7 591.438 1403.14 591.158C1402.61 590.906 1402.05 590.864 1401.48 590.864C1400.05 590.864 1398.61 590.822 1397.17 590.878C1396.19 590.92 1395.72 590.387 1395.32 589.561C1394.97 588.833 1395.32 588.314 1395.63 587.754C1396.53 586.171 1397.41 584.603 1398.23 582.992ZM1391.69 594.365C1390.63 594.407 1389.69 593.595 1389.6 592.572C1389.52 591.62 1390.48 590.556 1391.46 590.528C1392.4 590.514 1393.41 591.508 1393.44 592.502C1393.47 593.525 1392.71 594.323 1391.69 594.365Z" fill="#0070F5"/>
<path opacity="0.1" d="M72.9262 140.685C73.3774 139.854 73.3023 138.91 72.3998 138.363C71.4785 137.796 70.5195 137.872 69.805 138.74C69.2598 139.42 68.8085 140.194 68.3761 140.949C67.4924 142.459 66.665 144.007 65.7813 145.518C64.6344 147.481 62.4722 147.594 61.2501 145.707C60.6296 144.744 60.103 143.743 59.5202 142.761C58.8245 141.553 58.1288 140.326 57.4143 139.118C56.775 138.042 55.7973 137.815 54.7068 138.287C53.7667 138.703 53.5223 139.798 54.0488 141.044C54.218 141.44 54.5 141.799 54.7068 142.176C55.6469 143.856 56.6246 145.518 57.5271 147.217C58.9185 149.86 57.8844 151.672 54.9701 151.71C54.0111 151.729 53.0523 151.71 52.0745 151.71V151.729C50.6832 151.729 49.2729 151.71 47.8816 151.729C46.7346 151.748 46.039 152.408 46.0013 153.503C45.9637 154.617 46.7159 155.259 47.7876 155.41C48.3893 155.486 49.0098 155.467 49.6115 155.486C51.6233 155.486 53.6351 155.542 55.6469 155.486C56.775 155.448 57.3767 155.995 57.8844 156.939C58.4108 157.902 58.3733 158.676 57.8092 159.62C56.5495 161.715 55.3838 163.886 54.1992 166.039C53.6163 167.115 53.6539 168.059 54.8384 168.719C56.0042 169.342 56.8503 168.87 57.5084 167.87C57.7529 167.511 57.922 167.096 58.1476 166.718C59.1254 165.057 60.0843 163.377 61.0996 161.734C62.4722 159.526 64.672 159.526 66.007 161.715C66.7402 162.905 67.3983 164.151 68.1128 165.359C68.6017 166.19 69.053 167.039 69.6171 167.832C70.2751 168.757 71.1588 169.38 72.287 168.644C73.3587 167.945 73.3398 166.907 72.8322 165.85C72.6066 165.378 72.3621 164.906 72.0989 164.453C71.1776 162.848 70.2375 161.281 69.335 159.677C68.0376 157.43 69.1281 155.523 71.7416 155.467C73.7535 155.429 75.7653 155.467 77.7772 155.448C78.3788 155.448 79.0182 155.41 79.5822 155.259C80.4095 155.032 80.9172 154.409 80.9924 153.541C81.0676 152.654 80.5787 152.069 79.789 151.691C79.0557 151.351 78.2661 151.295 77.4764 151.295C75.4645 151.295 73.4527 151.238 71.4408 151.313C70.0683 151.37 69.4102 150.653 68.8461 149.539C68.3573 148.557 68.8461 147.859 69.2785 147.103C70.5383 144.97 71.7792 142.856 72.9262 140.685ZM63.7695 156.014C62.2841 156.071 60.968 154.976 60.8363 153.598C60.7235 152.314 62.0773 150.879 63.4499 150.841C64.766 150.823 66.1761 152.163 66.2138 153.503C66.2514 154.881 65.1985 155.958 63.7695 156.014Z" fill="#0070F5"/>
<path opacity="0.1" d="M81.4637 378.819C81.7731 378.256 81.7216 377.617 81.1027 377.246C80.4709 376.862 79.8134 376.913 79.3235 377.502C78.9496 377.962 78.6401 378.486 78.3436 378.998C77.7376 380.021 77.1703 381.07 76.5643 382.093C75.7779 383.423 74.2952 383.499 73.4572 382.221C73.0317 381.568 72.6706 380.891 72.271 380.226C71.7939 379.407 71.3169 378.576 70.827 377.757C70.3886 377.028 69.7182 376.875 68.9704 377.195C68.3257 377.476 68.1581 378.218 68.5192 379.062C68.6352 379.33 68.8286 379.573 68.9704 379.829C69.615 380.967 70.2855 382.093 70.9043 383.244C71.8584 385.034 71.1493 386.262 69.1509 386.287C68.4934 386.3 67.8358 386.287 67.1654 386.287V386.3C66.2113 386.3 65.2443 386.287 64.2902 386.3C63.5038 386.313 63.0267 386.761 63.0009 387.502C62.9751 388.257 63.4909 388.692 64.2258 388.794C64.6383 388.845 65.0639 388.832 65.4764 388.845C66.856 388.845 68.2355 388.883 69.615 388.845C70.3886 388.819 70.8012 389.19 71.1493 389.83C71.5103 390.482 71.4845 391.006 71.0977 391.646C70.2339 393.065 69.4346 394.536 68.6223 395.994C68.2226 396.723 68.2484 397.362 69.0606 397.81C69.86 398.232 70.4402 397.912 70.8915 397.234C71.0591 396.991 71.1751 396.71 71.3298 396.454C72.0002 395.329 72.6578 394.191 73.354 393.078C74.2952 391.582 75.8037 391.582 76.7191 393.065C77.2219 393.871 77.6731 394.715 78.1631 395.534C78.4983 396.096 78.8078 396.672 79.1946 397.209C79.6458 397.836 80.2518 398.258 81.0253 397.759C81.7602 397.286 81.7473 396.582 81.3992 395.866C81.2445 395.546 81.0769 395.227 80.8964 394.92C80.2646 393.833 79.62 392.771 79.0011 391.684C78.1115 390.162 78.8593 388.871 80.6514 388.832C82.0309 388.807 83.4105 388.832 84.7901 388.819C85.2026 388.819 85.641 388.794 86.0278 388.692C86.5951 388.538 86.9432 388.116 86.9948 387.528C87.0464 386.927 86.7111 386.53 86.1696 386.275C85.6668 386.044 85.1253 386.006 84.5838 386.006C83.2043 386.006 81.8247 385.968 80.4451 386.019C79.504 386.057 79.0527 385.571 78.6659 384.817C78.3307 384.152 78.6659 383.678 78.9624 383.167C79.8262 381.722 80.6772 380.289 81.4637 378.819ZM75.1848 389.203C74.1662 389.242 73.2637 388.5 73.1735 387.566C73.0961 386.697 74.0244 385.725 74.9656 385.699C75.8681 385.686 76.8351 386.594 76.8609 387.502C76.8866 388.436 76.1647 389.165 75.1848 389.203Z" fill="#0070F5"/>
<path opacity="0.1" d="M194.409 224.815C190.87 224.815 188 221.946 188 218.408C188 214.869 190.87 212 194.409 212C197.949 212 200.819 214.869 200.819 218.408C200.819 221.946 197.949 224.815 194.409 224.815Z" fill="#0070F5"/>
</g>
<defs>
<clipPath id="clip0_711_178">
<rect width="1440" height="800" fill="white"/>
</clipPath>
</defs>
</svg>
