<svg width="174" height="62" viewBox="0 0 174 62" fill="none" xmlns="http://www.w3.org/2000/svg">
<path fill-rule="evenodd" clip-rule="evenodd" d="M144.392 4.60216C130.874 4.60216 119.917 15.5599 119.917 29.077C119.917 42.5941 130.874 53.5519 144.392 53.5519C157.909 53.5519 168.866 42.5941 168.866 29.077C168.866 15.5599 157.909 4.60216 144.392 4.60216ZM117.435 29.077C117.435 14.1894 129.504 2.12067 144.392 2.12067C159.279 2.12067 171.348 14.1894 171.348 29.077C171.348 43.9646 159.279 56.0334 144.392 56.0334C129.504 56.0334 117.435 43.9646 117.435 29.077Z" fill="url(#paint0_linear_101_798)"/>
<path d="M14.7851 15.205H3.07874V43.0774H8.77267V34.0785H14.7851C20.7578 34.0785 24.6998 30.4153 24.6998 24.5621C24.6998 18.7089 20.7578 15.205 14.7851 15.205ZM14.5462 28.6633H8.77267V20.6202H14.5462C17.4927 20.6202 18.9262 22.1731 18.9262 24.6418C18.9262 27.0706 17.4927 28.6633 14.5462 28.6633Z" fill="white"/>
<path d="M42.2435 21.1776V24.2436C40.7304 22.1332 38.421 20.6998 35.3152 20.6998C29.7009 20.6998 25.3608 25.3585 25.3608 32.1275C25.3608 38.8567 29.6213 43.5552 35.355 43.5552C38.421 43.5552 40.6906 42.2014 42.2037 40.1308V43.0774H47.8976L47.9374 21.1776H42.2435ZM36.6292 38.14C33.4836 38.14 31.0945 35.7509 31.0945 32.1275C31.0945 28.5439 33.4438 26.115 36.6292 26.115C39.8146 26.115 42.2435 28.5439 42.2435 32.1275C42.2435 35.7509 39.8146 38.14 36.6292 38.14Z" fill="white"/>
<path d="M63.3058 20.6998C60.2399 20.6998 57.8906 22.1332 56.3775 24.2436V21.1776H50.6836V53.0318H56.3775V40.1308C57.9304 42.2014 60.2 43.5552 63.3058 43.5552C68.9997 43.5552 73.3001 38.8567 73.3001 32.1275C73.3001 25.3585 68.9201 20.6998 63.3058 20.6998ZM61.9918 38.14C58.8064 38.14 56.3775 35.7509 56.3775 32.1275C56.3775 28.5439 58.8064 26.115 61.9918 26.115C65.1772 26.115 67.5265 28.5439 67.5265 32.1275C67.5265 35.7509 65.1374 38.14 61.9918 38.14Z" fill="white"/>
<path d="M86.1951 20.6998C79.5057 20.6998 74.7674 25.5974 74.7674 32.1673C74.7674 38.6974 79.4659 43.5552 86.3145 43.5552C91.013 43.5552 95.393 41.2856 97.0255 36.1093H91.1325C90.3759 37.8612 88.4647 38.8567 86.2747 38.8567C83.3282 38.8567 80.9391 37.1047 80.5808 33.6007H97.3839C97.9413 26.3937 93.4419 20.6998 86.1951 20.6998ZM86.1553 25.3983C88.9027 25.3983 90.6945 27.0308 91.3316 29.4199H80.8595C81.5762 27.0706 83.368 25.3983 86.1553 25.3983Z" fill="white"/>
<path d="M111.812 20.6998C108.706 20.6998 106.317 22.1332 104.963 25.0001V21.1776H99.269V43.0774H104.963V33.322C104.963 28.1457 108.069 26.553 111.692 26.553C112.329 26.553 112.648 26.5928 113.086 26.6326V20.7794C112.727 20.7396 112.329 20.6998 111.812 20.6998Z" fill="white"/>
<path d="M134.695 35.4057H143.622V39.4462H127.801V36.4158L133.811 31.1275C136.031 29.1469 137.435 27.8199 138.024 27.1465C138.614 26.473 138.908 25.7699 138.908 25.0371C138.908 24.2844 138.633 23.6506 138.083 23.1357C137.553 22.6009 136.777 22.3335 135.756 22.3335C133.752 22.3335 132.584 23.4328 132.25 25.6313H128.007C128.145 23.3932 128.94 21.6106 130.394 20.2836C131.867 18.9565 133.713 18.293 135.933 18.293C138.132 18.293 139.89 18.9268 141.206 20.1944C142.522 21.4422 143.18 22.9871 143.18 24.8291C143.18 25.2847 143.121 25.7303 143.004 26.166C142.905 26.582 142.797 26.9583 142.679 27.295C142.581 27.6119 142.355 27.9981 142.002 28.4537C141.648 28.8894 141.373 29.236 141.177 29.4935C141 29.7312 140.627 30.1174 140.057 30.6522C139.488 31.1869 139.075 31.5732 138.82 31.8108C138.565 32.0287 138.054 32.4744 137.288 33.1478L134.754 35.376L134.695 35.4057Z" fill="white"/>
<path d="M161.397 30.9196V34.8709L158.51 34.9006V39.4462H154.297V34.9006H144.073V30.9196L152.293 18.6495H158.51V30.8899L161.397 30.9196ZM148.581 30.8899H154.297V22.6009H154.031L148.581 30.8899Z" fill="white"/>
<defs>
<linearGradient id="paint0_linear_101_798" x1="160.141" y1="46.5002" x2="134.394" y2="18.2623" gradientUnits="userSpaceOnUse">
<stop stop-color="#4E43DF"/>
<stop offset="1" stop-color="white"/>
</linearGradient>
</defs>
</svg>
