<svg width="87" height="28" viewBox="0 0 87 28" fill="none" xmlns="http://www.w3.org/2000/svg">
<path fill-rule="evenodd" clip-rule="evenodd" d="M73.0632 1.28878C66.0745 1.28878 60.409 6.97979 60.409 14C60.409 21.0202 66.0745 26.7112 73.0632 26.7112C80.0519 26.7112 85.7174 21.0202 85.7174 14C85.7174 6.97979 80.0519 1.28878 73.0632 1.28878ZM59.126 14C59.126 6.26801 65.3659 0 73.0632 0C80.7605 0 87.0004 6.26801 87.0004 14C87.0004 21.732 80.7605 28 73.0632 28C65.3659 28 59.126 21.732 59.126 14Z" fill="url(#paint0_linear_1326_4567)"/>
<path d="M6.05254 6.79547H0V21.2712H2.94392V16.5976H6.05254C9.14058 16.5976 11.1787 14.6951 11.1787 11.6552C11.1787 8.61528 9.14058 6.79547 6.05254 6.79547ZM5.92902 13.7852H2.94392V9.6079H5.92902C7.45245 9.6079 8.19358 10.4144 8.19358 11.6965C8.19358 12.958 7.45245 13.7852 5.92902 13.7852Z" fill="#0A1330"/>
<path d="M20.2493 9.89742V11.4898C19.467 10.3937 18.2729 9.64926 16.6672 9.64926C13.7644 9.64926 11.5205 12.0688 11.5205 15.5843C11.5205 19.0792 13.7232 21.5194 16.6878 21.5194C18.2729 21.5194 19.4464 20.8163 20.2287 19.7409V21.2712H23.1726L23.1932 9.89742H20.2493ZM17.3465 18.707C15.7202 18.707 14.485 17.4662 14.485 15.5843C14.485 13.7232 15.6996 12.4617 17.3465 12.4617C18.9935 12.4617 20.2493 13.7232 20.2493 15.5843C20.2493 17.4662 18.9935 18.707 17.3465 18.707Z" fill="#0A1330"/>
<path d="M31.1391 9.64926C29.5539 9.64926 28.3393 10.3937 27.557 11.4898V9.89742H24.6131V26.4411H27.557V19.7409C28.3599 20.8163 29.5333 21.5194 31.1391 21.5194C34.083 21.5194 36.3064 19.0792 36.3064 15.5843C36.3064 12.0688 34.0419 9.64926 31.1391 9.64926ZM30.4597 18.707C28.8128 18.707 27.557 17.4662 27.557 15.5843C27.557 13.7232 28.8128 12.4617 30.4597 12.4617C32.1067 12.4617 33.3213 13.7232 33.3213 15.5843C33.3213 17.4662 32.0861 18.707 30.4597 18.707Z" fill="#0A1330"/>
<path d="M42.9735 9.64926C39.5149 9.64926 37.0651 12.1929 37.0651 15.605C37.0651 18.9965 39.4943 21.5194 43.0353 21.5194C45.4645 21.5194 47.7291 20.3406 48.5731 17.6523H45.5263C45.1351 18.5622 44.147 19.0792 43.0147 19.0792C41.4913 19.0792 40.256 18.1693 40.0708 16.3495H48.7584C49.0466 12.6065 46.7203 9.64926 42.9735 9.64926ZM42.9529 12.0895C44.3734 12.0895 45.2998 12.9373 45.6292 14.1781H40.2149C40.5854 12.958 41.5118 12.0895 42.9529 12.0895Z" fill="#0A1330"/>
<path d="M56.2179 9.64926C54.6122 9.64926 53.377 10.3937 52.677 11.8827V9.89742H49.7331V21.2712H52.677V16.2047C52.677 13.5164 54.2828 12.6892 56.1562 12.6892C56.4856 12.6892 56.6503 12.7099 56.8767 12.7305V9.69062C56.6914 9.66994 56.4856 9.64926 56.2179 9.64926Z" fill="#0A1330"/>
<path d="M68.0499 17.2869H72.6654V19.3854H64.4854V17.8115L67.5929 15.065C68.7404 14.0363 69.4665 13.3471 69.7712 12.9974C70.0758 12.6476 70.2282 12.2825 70.2282 11.9019C70.2282 11.511 70.086 11.1818 69.8016 10.9144C69.5275 10.6366 69.1263 10.4978 68.5982 10.4978C67.5624 10.4978 66.9582 11.0687 66.7855 12.2105H64.592C64.6631 11.0481 65.0744 10.1223 65.8258 9.43309C66.5875 8.74389 67.5421 8.39929 68.6896 8.39929C69.827 8.39929 70.7359 8.72846 71.4163 9.3868C72.0967 10.0349 72.4369 10.8372 72.4369 11.7939C72.4369 12.0305 72.4065 12.2619 72.3455 12.4882C72.2948 12.7042 72.2389 12.8997 72.178 13.0745C72.1272 13.2391 72.0104 13.4397 71.8276 13.6763C71.6448 13.9026 71.5027 14.0826 71.4011 14.2164C71.3097 14.3398 71.1168 14.5404 70.8223 14.8181C70.5277 15.0959 70.3145 15.2964 70.1825 15.4199C70.0504 15.533 69.7864 15.7645 69.3904 16.1142L68.0803 17.2715L68.0499 17.2869Z" fill="#4E43DF"/>
<path d="M81.8555 14.957V17.0092L80.3627 17.0246V19.3854H78.1844V17.0246H72.8986V14.957L77.1486 8.58445H80.3627V14.9416L81.8555 14.957ZM75.2292 14.9416H78.1844V10.6366H78.0473L75.2292 14.9416Z" fill="#4E43DF"/>
<defs>
<linearGradient id="paint0_linear_1326_4567" x1="81.2059" y1="23.0489" x2="67.8289" y2="8.44316" gradientUnits="userSpaceOnUse">
<stop stop-color="#4E43DF"/>
<stop offset="1" stop-color="white"/>
</linearGradient>
</defs>
</svg>
