<svg width="87" height="28" viewBox="0 0 87 28" fill="none" xmlns="http://www.w3.org/2000/svg">
<path fill-rule="evenodd" clip-rule="evenodd" d="M73.0627 1.28878C66.074 1.28878 60.4085 6.97979 60.4085 14C60.4085 21.0202 66.074 26.7112 73.0627 26.7112C80.0514 26.7112 85.7169 21.0202 85.7169 14C85.7169 6.97979 80.0514 1.28878 73.0627 1.28878ZM59.1255 14C59.1255 6.26801 65.3654 0 73.0627 0C80.76 0 86.9999 6.26801 86.9999 14C86.9999 21.732 80.76 28 73.0627 28C65.3654 28 59.1255 21.732 59.1255 14Z" fill="url(#paint0_linear_1136_4069)"/>
<path d="M6.05254 6.79538H0V21.2711H2.94392V16.5975H6.05254C9.14058 16.5975 11.1787 14.695 11.1787 11.6551C11.1787 8.61519 9.14058 6.79538 6.05254 6.79538ZM5.92902 13.7851H2.94392V9.60781H5.92902C7.45245 9.60781 8.19358 10.4143 8.19358 11.6965C8.19358 12.9579 7.45245 13.7851 5.92902 13.7851Z" fill="white"/>
<path d="M20.2493 9.89733V11.4897C19.467 10.3936 18.2729 9.64917 16.6672 9.64917C13.7644 9.64917 11.5205 12.0687 11.5205 15.5842C11.5205 19.0791 13.7232 21.5193 16.6878 21.5193C18.2729 21.5193 19.4464 20.8162 20.2287 19.7408V21.2711H23.1726L23.1932 9.89733H20.2493ZM17.3465 18.7069C15.7202 18.7069 14.485 17.4661 14.485 15.5842C14.485 13.7231 15.6996 12.4616 17.3465 12.4616C18.9935 12.4616 20.2493 13.7231 20.2493 15.5842C20.2493 17.4661 18.9935 18.7069 17.3465 18.7069Z" fill="white"/>
<path d="M31.1391 9.64917C29.5539 9.64917 28.3393 10.3936 27.557 11.4897V9.89733H24.6131V26.441H27.557V19.7408C28.3599 20.8162 29.5333 21.5193 31.1391 21.5193C34.083 21.5193 36.3064 19.0791 36.3064 15.5842C36.3064 12.0687 34.0419 9.64917 31.1391 9.64917ZM30.4597 18.7069C28.8128 18.7069 27.557 17.4661 27.557 15.5842C27.557 13.7231 28.8128 12.4616 30.4597 12.4616C32.1067 12.4616 33.3213 13.7231 33.3213 15.5842C33.3213 17.4661 32.0861 18.7069 30.4597 18.7069Z" fill="white"/>
<path d="M42.9735 9.64917C39.5149 9.64917 37.0651 12.1928 37.0651 15.6049C37.0651 18.9964 39.4943 21.5193 43.0353 21.5193C45.4645 21.5193 47.7291 20.3406 48.5731 17.6522H45.5263C45.1351 18.5621 44.147 19.0791 43.0147 19.0791C41.4913 19.0791 40.256 18.1692 40.0708 16.3494H48.7584C49.0466 12.6064 46.7203 9.64917 42.9735 9.64917ZM42.9529 12.0894C44.3734 12.0894 45.2998 12.9372 45.6292 14.178H40.2149C40.5854 12.9579 41.5118 12.0894 42.9529 12.0894Z" fill="white"/>
<path d="M56.2179 9.64917C54.6122 9.64917 53.377 10.3936 52.677 11.8826V9.89733H49.7331V21.2711H52.677V16.2046C52.677 13.5163 54.2828 12.6891 56.1562 12.6891C56.4856 12.6891 56.6503 12.7098 56.8767 12.7304V9.69053C56.6914 9.66985 56.4856 9.64917 56.2179 9.64917Z" fill="white"/>
<path d="M68.0499 17.2868H72.6654V19.3853H64.4854V17.8115L67.5929 15.0649C68.7404 14.0363 69.4665 13.3471 69.7712 12.9973C70.0758 12.6476 70.2282 12.2824 70.2282 11.9018C70.2282 11.5109 70.086 11.1818 69.8016 10.9143C69.5275 10.6366 69.1263 10.4977 68.5982 10.4977C67.5624 10.4977 66.9582 11.0686 66.7855 12.2104H64.592C64.6631 11.048 65.0744 10.1222 65.8258 9.43303C66.5875 8.74383 67.5421 8.39923 68.6896 8.39923C69.827 8.39923 70.7359 8.7284 71.4163 9.38674C72.0967 10.0348 72.4369 10.8371 72.4369 11.7938C72.4369 12.0304 72.4065 12.2618 72.3455 12.4881C72.2948 12.7042 72.2389 12.8996 72.178 13.0745C72.1272 13.2391 72.0104 13.4397 71.8276 13.6762C71.6448 13.9026 71.5027 14.0826 71.4011 14.2163C71.3097 14.3397 71.1168 14.5403 70.8223 14.8181C70.5277 15.0958 70.3145 15.2964 70.1825 15.4198C70.0504 15.533 69.7864 15.7644 69.3904 16.1142L68.0803 17.2714L68.0499 17.2868Z" fill="white"/>
<path d="M81.8555 14.9569V17.0091L80.3627 17.0245V19.3853H78.1844V17.0245H72.8986V14.9569L77.1486 8.58439H80.3627V14.9415L81.8555 14.9569ZM75.2292 14.9415H78.1844V10.6366H78.0473L75.2292 14.9415Z" fill="white"/>
<defs>
<linearGradient id="paint0_linear_1136_4069" x1="81.2054" y1="23.0489" x2="67.8284" y2="8.44316" gradientUnits="userSpaceOnUse">
<stop stop-color="#4E43DF"/>
<stop offset="1" stop-color="white"/>
</linearGradient>
</defs>
</svg>
