<svg width="13" height="15" viewBox="0 0 13 15" fill="none" xmlns="http://www.w3.org/2000/svg">
<path d="M11.5556 1.5H8.53667C8.23333 0.63 7.43889 0 6.5 0C5.56111 0 4.76667 0.63 4.46333 1.5H1.44444C0.65 1.5 0 2.175 0 3V13.5C0 14.325 0.65 15 1.44444 15H11.5556C12.35 15 13 14.325 13 13.5V3C13 2.175 12.35 1.5 11.5556 1.5ZM6.5 1.5C6.89722 1.5 7.22222 1.8375 7.22222 2.25C7.22222 2.6625 6.89722 3 6.5 3C6.10278 3 5.77778 2.6625 5.77778 2.25C5.77778 1.8375 6.10278 1.5 6.5 1.5ZM4.54278 11.4675L2.67222 9.525C2.39056 9.2325 2.39056 8.76 2.67222 8.4675C2.95389 8.175 3.40889 8.175 3.69056 8.4675L5.05556 9.8775L9.30222 5.4675C9.58389 5.175 10.0389 5.175 10.3206 5.4675C10.6022 5.76 10.6022 6.2325 10.3206 6.525L5.56111 11.4675C5.28667 11.76 4.82444 11.76 4.54278 11.4675Z" fill="#4E43DF"/>
</svg>
