<svg width="30" height="30" viewBox="0 0 30 30" fill="none" xmlns="http://www.w3.org/2000/svg">
<path d="M29 23V25.5C29 26.879 27.878 28 26.5 28H5C2.794 28 1 26.206 1 24C1 24 1 7.015 1 7C1 4.794 2.794 3 5 3H23.5C24.329 3 25 3.672 25 4.5C25 5.328 24.329 6 23.5 6H5C4.449 6 4 6.448 4 7C4 7.552 4.449 8 5 8H26.5C27.878 8 29 9.121 29 10.5V13H24C21.243 13 19 15.243 19 18C19 20.757 21.243 23 24 23H29Z" fill="#4E43DF"/>
<path d="M28.125 15V20.625H23.4375C21.8841 20.625 20.625 19.3659 20.625 17.8125C20.625 16.2591 21.8841 15 23.4375 15H28.125Z" fill="#4E43DF"/>
</svg>
