<svg width="30" height="30" viewBox="0 0 30 30" fill="none" xmlns="http://www.w3.org/2000/svg">
<path fill-rule="evenodd" clip-rule="evenodd" d="M16.8951 0.648329L18.8005 2.09198C19.3216 2.4868 19.8701 2.68886 20.5201 2.72549L22.8964 2.85928C24.3193 2.93937 25.475 3.92089 25.8 5.32544L26.3429 7.67102C26.4913 8.3125 26.7832 8.82417 27.2578 9.27504L28.9933 10.9237C30.0324 11.9109 30.2943 13.4147 29.6515 14.7021L28.5778 16.852C28.2842 17.4401 28.1828 18.0219 28.26 18.6761L28.5425 21.0682C28.7117 22.5005 27.9573 23.8228 26.6473 24.3908L24.4595 25.3392C23.8611 25.5986 23.414 25.9783 23.0577 26.5297L21.755 28.5459C20.975 29.7531 19.5574 30.2754 18.1933 29.8581L15.915 29.1612C15.2919 28.9706 14.7082 28.9706 14.0851 29.1612L11.8069 29.8581C10.4427 30.2754 9.02511 29.7531 8.24511 28.5459L6.94242 26.5297C6.5861 25.9783 6.13898 25.5986 5.54066 25.3392L3.35266 24.3906C2.04265 23.8227 1.28834 22.5004 1.45746 21.068L1.73997 18.676C1.81722 18.0218 1.71584 17.4399 1.42221 16.8519L0.348524 14.7019C-0.294352 13.4146 -0.0324139 11.9108 1.00671 10.9236L2.74216 9.27491C3.21678 8.82404 3.50859 8.31237 3.65703 7.67089L4.19991 5.32531C4.52491 3.92083 5.6806 2.93931 7.10354 2.85916L9.47986 2.72536C10.1298 2.68879 10.6783 2.48667 11.1994 2.09185L13.1048 0.648202C14.2456 -0.216088 15.7543 -0.216088 16.8951 0.648329ZM13.7845 15.8262L11.7167 13.7332C11.1808 13.1907 10.3115 13.1907 9.77561 13.7332C9.23967 14.2757 9.23967 15.1555 9.77561 15.698L12.8169 18.7763C13.3529 19.3188 14.2222 19.3188 14.7581 18.7763C16.5912 16.9208 18.4036 15.0444 20.2283 13.1804C20.7603 12.6369 20.7586 11.7598 20.2223 11.22C19.6859 10.68 18.8169 10.6816 18.2843 11.226L13.7845 15.8262ZM14.9999 4.65366C12.1774 4.65366 9.62192 5.81174 7.77217 7.68405C5.92241 9.55643 4.77829 12.143 4.77829 15C4.77829 17.857 5.92241 20.4436 7.77217 22.3159C9.62192 24.1882 12.1774 25.3463 14.9999 25.3463C17.8225 25.3463 20.378 24.1882 22.2277 22.3159C24.0775 20.4436 25.2216 17.857 25.2216 15C25.2216 12.143 24.0775 9.55637 22.2277 7.68405C20.378 5.81174 17.8225 4.65366 14.9999 4.65366ZM21.5206 8.39974C19.8519 6.71064 17.5464 5.66586 14.9999 5.66586C12.4534 5.66586 10.148 6.71064 8.47923 8.39974C6.81048 10.0888 5.77829 12.4224 5.77829 15C5.77829 17.5775 6.81048 19.9111 8.47923 21.6002C10.148 23.2893 12.4534 24.3341 14.9999 24.3341C17.5464 24.3341 19.8519 23.2893 21.5206 21.6003C23.1894 19.9111 24.2215 17.5776 24.2215 15C24.2216 12.4224 23.1894 10.0888 21.5206 8.39974Z" fill="#4E43DF"/>
</svg>
