<svg width="30" height="30" viewBox="0 0 30 30" fill="none" xmlns="http://www.w3.org/2000/svg">
<g clip-path="url(#clip0_240_3015)">
<path d="M15.729 6.81321C13.6727 8.86938 13.6727 12.2147 15.729 14.2709C17.7852 16.3271 21.1305 16.3271 23.1867 14.2709C25.243 12.2147 25.243 8.86938 23.1867 6.81321C21.1306 4.75692 17.7852 4.75692 15.729 6.81321Z" fill="#4E43DF"/>
<path d="M12.0001 3.08434C8.10053 6.98393 7.94549 13.176 11.4415 17.3155L10.0151 18.7419C9.04166 18.2645 7.84647 18.3671 6.99065 19.1142L1.16912 24.1734C-0.302577 25.4191 -0.401483 27.6645 0.966974 29.033C2.3434 30.4095 4.59012 30.2907 5.81865 28.8412L10.8852 23.01C11.6328 22.1537 11.7355 20.9583 11.2581 19.9849L12.6844 18.5586C16.824 22.0546 23.0161 21.8996 26.9157 18C31.0281 13.8875 31.0281 7.19686 26.9157 3.0844C22.8032 -1.02806 16.1126 -1.02818 12.0001 3.08434ZM24.4297 15.5139C21.6882 18.2553 17.2275 18.2553 14.486 15.5139C11.7445 12.7725 11.7445 8.3116 14.486 5.57018C17.2275 2.82875 21.6882 2.82875 24.4297 5.57018C27.1711 8.3116 27.1712 12.7725 24.4297 15.5139Z" fill="#4E43DF"/>
</g>
<defs>
<clipPath id="clip0_240_3015">
<rect width="30" height="30" fill="white"/>
</clipPath>
</defs>
</svg>
