<svg width="30" height="30" viewBox="0 0 30 30" fill="none" xmlns="http://www.w3.org/2000/svg">
<path d="M19.3359 8.78906C18.2051 8.78906 17.2852 7.86908 17.2852 6.73828V0H6.79688C5.0199 0 3.57422 1.44568 3.57422 3.22266V26.7773C3.57422 28.5543 5.0199 30 6.79688 30H23.2031C24.9801 30 26.4258 28.5543 26.4258 26.7773V8.78906H19.3359ZM8.37891 21.0938H12.6398C13.1252 21.0938 13.5188 21.4873 13.5188 21.9727C13.5188 22.458 13.1252 22.8516 12.6398 22.8516H8.37891C7.89352 22.8516 7.5 22.458 7.5 21.9727C7.5 21.4873 7.89352 21.0938 8.37891 21.0938ZM7.5 17.2852C7.5 16.7998 7.89352 16.4062 8.37891 16.4062H21.2695C21.7549 16.4062 22.1484 16.7998 22.1484 17.2852C22.1484 17.7705 21.7549 18.1641 21.2695 18.1641H8.37891C7.89352 18.1641 7.5 17.7705 7.5 17.2852ZM21.2695 11.7188C21.7549 11.7188 22.1484 12.1123 22.1484 12.5977C22.1484 13.083 21.7549 13.4766 21.2695 13.4766H8.37891C7.89352 13.4766 7.5 13.083 7.5 12.5977C7.5 12.1123 7.89352 11.7188 8.37891 11.7188H21.2695Z" fill="#4E43DF"/>
<path d="M19.043 6.73827C19.043 6.89981 19.1744 7.03124 19.3359 7.03124H26.034C25.8732 6.7344 25.6664 6.46177 25.4179 6.22663L19.7681 0.881592C19.5489 0.67417 19.3046 0.501143 19.043 0.364502V6.73827H19.043Z" fill="#4E43DF"/>
</svg>
