<svg width="88" height="88" viewBox="0 0 88 88" fill="none" xmlns="http://www.w3.org/2000/svg">
<path d="M35.344 40.6C37.18 40.6 38.296 41.704 38.296 43.36C38.296 45.004 37.18 46.156 35.344 46.156H33.256V49H31.9V40.6H35.344ZM35.296 44.86C36.4 44.86 36.916 44.224 36.916 43.372C36.916 42.52 36.4 41.896 35.296 41.896H33.256V44.86H35.296ZM39.6185 49V39.76H40.9865V49H39.6185ZM47.6721 42.4H49.0281V49H47.6721V47.896C47.1921 48.652 46.4001 49.144 45.3681 49.144C43.6041 49.144 42.3201 47.716 42.3201 45.7C42.3201 43.684 43.6281 42.256 45.3561 42.256C46.4001 42.256 47.1921 42.772 47.6721 43.528V42.4ZM45.6561 47.848C46.8081 47.848 47.6841 46.972 47.6841 45.7C47.6841 44.44 46.8081 43.552 45.6561 43.552C44.5041 43.552 43.6881 44.44 43.6881 45.7C43.6881 46.972 44.5161 47.848 45.6561 47.848ZM55.3384 42.4H56.7904L52.4224 52H50.9704L52.7104 48.16L50.1064 42.4H51.5584L53.4304 46.696L55.3384 42.4Z" fill="white"/>
<path d="M32.9652 56.6H34.4052L31.5132 65H29.7852L26.9052 56.6H28.3452L30.6492 63.44L32.9652 56.6ZM36.0245 55.424C36.5405 55.424 36.9125 55.772 36.9125 56.252C36.9125 56.744 36.5405 57.104 36.0245 57.104C35.5325 57.104 35.1485 56.744 35.1485 56.252C35.1485 55.772 35.5325 55.424 36.0245 55.424ZM35.3525 65V58.4H36.7085V65H35.3525ZM43.5022 55.76H44.8582V65H43.5022V63.896C43.0102 64.64 42.2182 65.144 41.1862 65.144C39.4222 65.144 38.1382 63.716 38.1382 61.7C38.1382 59.684 39.4462 58.256 41.1742 58.256C42.2182 58.256 43.0102 58.772 43.5022 59.528V55.76ZM41.4742 63.848C42.6262 63.848 43.5022 62.972 43.5022 61.7C43.5022 60.44 42.6262 59.552 41.4742 59.552C40.3222 59.552 39.5062 60.44 39.5062 61.7C39.5062 62.972 40.3342 63.848 41.4742 63.848ZM49.6188 58.256C51.7428 58.256 53.0868 59.9 52.9548 62.072H47.5908C47.6988 63.284 48.5508 63.956 49.6548 63.956C50.4468 63.956 51.1068 63.62 51.4188 62.972H52.8228C52.3068 64.448 51.0468 65.144 49.6428 65.144C47.6388 65.144 46.2108 63.704 46.2108 61.712C46.2108 59.72 47.6268 58.256 49.6188 58.256ZM49.6188 59.432C48.5868 59.432 47.8908 60.08 47.6628 60.968H51.5028C51.2988 60.068 50.6148 59.432 49.6188 59.432ZM57.4823 58.256C59.3783 58.256 60.9023 59.708 60.9023 61.7C60.9023 63.68 59.4023 65.144 57.4823 65.144C55.5743 65.144 54.0623 63.668 54.0623 61.7C54.0623 59.708 55.5983 58.256 57.4823 58.256ZM57.4823 59.552C56.3423 59.552 55.4303 60.428 55.4303 61.7C55.4303 62.972 56.3303 63.848 57.4823 63.848C58.6343 63.848 59.5343 62.972 59.5343 61.7C59.5343 60.428 58.6223 59.552 57.4823 59.552Z" fill="white"/>
<path fill-rule="evenodd" clip-rule="evenodd" d="M41.7458 20.7585C40.6847 20.1101 40.1542 19.7859 39.7171 19.8242C39.3361 19.8575 38.9877 20.0529 38.7605 20.3607C38.5 20.7137 38.5 21.3354 38.5 22.5789V31.4209C38.5 32.6644 38.5 33.2861 38.7605 33.6391C38.9877 33.9469 39.3361 34.1423 39.7171 34.1756C40.1542 34.2138 40.6847 33.8896 41.7458 33.2412L48.9801 28.8202C49.965 28.2184 50.4574 27.9174 50.6253 27.53C50.7719 27.1918 50.7719 26.808 50.6253 26.4698C50.4574 26.0823 49.965 25.7814 48.9801 25.1796L41.7458 20.7585Z" fill="white"/>
<circle cx="44" cy="44" r="41" stroke="url(#paint0_linear_2005_6179)" stroke-width="5"/>
<defs>
<linearGradient id="paint0_linear_2005_6179" x1="67.9541" y1="70.5003" x2="28.7945" y2="27.551" gradientUnits="userSpaceOnUse">
<stop stop-color="#4E43DF"/>
<stop offset="1" stop-color="white"/>
</linearGradient>
</defs>
</svg>
