<svg width="41" height="41" viewBox="0 0 41 41" fill="none" xmlns="http://www.w3.org/2000/svg">
<circle cx="20.5" cy="20.5" r="19.5" stroke="#4E43DF" stroke-width="2"/>
<path d="M27 20.5127C27 21.0547 26.5606 21.4941 26.0186 21.4941H21.5706V26C21.5706 26.5523 21.1229 27 20.5706 27H20.4039C19.8516 27 19.4039 26.5523 19.4039 26V21.4941H14.9814C14.4394 21.4941 14 21.0547 14 20.5127V20.5127C14 19.9707 14.4394 19.5314 14.9814 19.5314H19.4039V15C19.4039 14.4477 19.8516 14 20.4039 14H20.5706C21.1229 14 21.5706 14.4477 21.5706 15V19.5314H26.0186C26.5606 19.5314 27 19.9707 27 20.5127V20.5127Z" fill="#4E43DF"/>
</svg>
