<svg width="72" height="72" viewBox="0 0 72 72" fill="none" xmlns="http://www.w3.org/2000/svg">
<path fill-rule="evenodd" clip-rule="evenodd" d="M36 3.31402C17.948 3.31402 3.31402 17.948 3.31402 36C3.31402 54.052 17.948 68.686 36 68.686C54.052 68.686 68.686 54.052 68.686 36C68.686 17.948 54.052 3.31402 36 3.31402ZM0 36C0 16.1178 16.1178 0 36 0C55.8823 0 72 16.1178 72 36C72 55.8823 55.8823 72 36 72C16.1178 72 0 55.8823 0 36Z" fill="url(#paint0_linear_4258_19786)"/>
<path d="M23.0504 44.4517H34.9726V49.8478H13.8433V45.8007L21.87 38.7383C24.8342 36.0932 26.7097 34.3209 27.4966 33.4216C28.2836 32.5222 28.677 31.5832 28.677 30.6045C28.677 29.5994 28.3098 28.7529 27.5753 28.0652C26.8671 27.351 25.831 26.9939 24.4669 26.9939C21.7913 26.9939 20.2306 28.462 19.7846 31.3981H14.1187C14.3023 28.4091 15.3647 26.0285 17.3058 24.2562C19.2731 22.484 21.7389 21.5979 24.703 21.5979C27.6409 21.5979 29.9886 22.4443 31.7461 24.1372C33.5036 25.8036 34.3823 27.8668 34.3823 30.3268C34.3823 30.9352 34.3037 31.5303 34.1463 32.1123C34.0151 32.6677 33.8708 33.1703 33.7135 33.62C33.5823 34.0432 33.2806 34.559 32.8085 35.1674C32.3363 35.7493 31.9691 36.2122 31.7068 36.5561C31.4707 36.8735 30.9723 37.3893 30.2116 38.1034C29.4509 38.8176 28.9 39.3334 28.559 39.6508C28.218 39.9418 27.536 40.537 26.513 41.4363L23.1291 44.4121L23.0504 44.4517Z" fill="white"/>
<path d="M58.7107 38.4605V43.7376L54.8547 43.7772V49.8478H49.2281V43.7772H35.5747V38.4605L46.5525 22.074H54.8547V38.4209L58.7107 38.4605ZM41.5948 38.4209H49.2281V27.351H48.874L41.5948 38.4209Z" fill="white"/>
<defs>
<linearGradient id="paint0_linear_4258_19786" x1="57.0329" y1="59.2685" x2="22.6488" y2="21.557" gradientUnits="userSpaceOnUse">
<stop stop-color="#4E43DF"/>
<stop offset="1" stop-color="white"/>
</linearGradient>
</defs>
</svg>
