<svg width="716" height="700" viewBox="0 0 716 700" fill="none" xmlns="http://www.w3.org/2000/svg">
<path opacity="0.3" fill-rule="evenodd" clip-rule="evenodd" d="M839.422 257.066C877.537 325.819 827.852 405.807 807.003 481.611C782.552 570.514 784.813 675.916 709.563 729.219C625.453 788.8 510.219 796.409 413.729 760.189C317.242 723.97 243.547 640.137 211.412 542.226C182.077 452.847 216.387 360.279 254.202 274.132C289.324 194.119 330.175 102.286 414.537 79.4822C494.404 57.8941 558.606 139.319 634.931 171.22C705.838 200.856 802.164 189.859 839.422 257.066Z" fill="url(#paint0_linear_522_4936)"/>
<path opacity="0.3" fill-rule="evenodd" clip-rule="evenodd" d="M913.341 554.678C893.35 626.458 819.491 658.278 745.914 689.977L745.913 689.977C721.906 700.32 697.929 710.65 675.864 722.35C660.279 730.614 644.926 739.731 629.682 749.197V743.882H144.537C101.985 704.973 66.7153 658.391 41.7246 608.036C-17.7862 488.127 -11.6332 347.195 47.4203 231.839C101.328 126.535 219.369 76.536 334.883 35.3776C442.17 -2.84991 565.827 -46.2326 667.905 10.7551C731.99 46.5325 747.83 115.82 764.088 186.934L764.088 186.935C772.346 223.057 780.712 259.651 795.563 292.564C800.487 303.477 806.304 314.209 812.683 324.807V574.883H861.683V396.536C897.843 447.862 928.963 498.586 913.341 554.678ZM230.299 805.882H538.991C481.539 839.141 422.239 863.101 354.668 850.92C310.903 843.031 268.993 827.428 230.299 805.882Z" fill="url(#paint1_linear_522_4936)"/>
<defs>
<linearGradient id="paint0_linear_522_4936" x1="848.386" y1="275.948" x2="218.077" y2="562.153" gradientUnits="userSpaceOnUse">
<stop stop-color="#0A1330"/>
<stop offset="1" stop-color="white" stop-opacity="0"/>
</linearGradient>
<linearGradient id="paint1_linear_522_4936" x1="840.032" y1="524.817" x2="-29.0585" y2="200.797" gradientUnits="userSpaceOnUse">
<stop stop-color="#0A1330"/>
<stop offset="1" stop-color="white" stop-opacity="0"/>
</linearGradient>
</defs>
</svg>
