<svg width="24" height="24" viewBox="0 0 24 24" fill="none" xmlns="http://www.w3.org/2000/svg">
<g clip-path="url(#clip0_212_1696)">
<path d="M21.8906 0H12.7031V3.65109C12.9311 3.59273 13.1673 3.5625 13.4062 3.5625C14.9567 3.5625 16.2188 4.82386 16.2188 6.375C16.2188 7.92614 14.9567 9.1875 13.4062 9.1875C13.1673 9.1875 12.9311 9.15727 12.7031 9.09891V11.2969H16.0498C16.6509 11.2969 16.9659 12.0271 16.5758 12.4676C16.3424 12.7292 16.2188 13.054 16.2188 13.4062C16.2188 14.1815 16.8491 14.8125 17.625 14.8125C18.4009 14.8125 19.0312 14.1815 19.0312 13.4062C19.0312 13.054 18.9076 12.7292 18.6742 12.4676C18.2722 12.0146 18.5946 11.2969 19.2002 11.2969H24V2.10938C24 0.946219 23.0538 0 21.8906 0Z" fill="white"/>
<path d="M13.4062 4.96875C13.0588 4.96875 12.7251 5.09508 12.4669 5.32514C12.019 5.72681 11.2969 5.40891 11.2969 4.79981V0H2.10938C0.946219 0 0 0.946219 0 2.10938V11.2969H3.65175C3.59273 11.0689 3.5625 10.8327 3.5625 10.5938C3.5625 9.04261 4.82456 7.78125 6.375 7.78125C7.92544 7.78125 9.1875 9.04261 9.1875 10.5938C9.1875 10.8327 9.15727 11.0689 9.09825 11.2969H11.2969V7.95019C11.2969 7.34105 12.019 7.02323 12.4669 7.42491C12.7251 7.65492 13.0588 7.78125 13.4062 7.78125C14.1822 7.78125 14.8125 7.15022 14.8125 6.375C14.8125 5.59978 14.1822 4.96875 13.4062 4.96875Z" fill="white"/>
<path d="M10.5938 14.8125C10.8327 14.8125 11.0689 14.8427 11.2969 14.9017V12.7031H7.95019C7.34456 12.7031 7.0222 11.9853 7.4242 11.5324C7.65764 11.2708 7.78125 10.946 7.78125 10.5938C7.78125 9.81853 7.15092 9.1875 6.375 9.1875C5.59908 9.1875 4.96875 9.81853 4.96875 10.5938C4.96875 10.946 5.09236 11.2708 5.3258 11.5324C5.72784 11.9853 5.40544 12.7031 4.79981 12.7031H0V21.8906C0 23.0538 0.946219 24 2.10938 24H11.2969V20.3483C11.0689 20.4073 10.8327 20.4375 10.5938 20.4375C9.04331 20.4375 7.78125 19.1761 7.78125 17.625C7.78125 16.0739 9.04331 14.8125 10.5938 14.8125Z" fill="white"/>
<path d="M20.3483 12.7031C20.4073 12.9311 20.4375 13.1673 20.4375 13.4062C20.4375 14.9574 19.1754 16.2188 17.625 16.2188C16.0746 16.2188 14.8125 14.9574 14.8125 13.4062C14.8125 13.1658 14.8535 12.932 14.9125 12.7031H12.7031V16.0498C12.7031 16.6551 11.9858 16.9776 11.5331 16.5758C11.2694 16.3424 10.9453 16.2188 10.5938 16.2188C9.81783 16.2188 9.1875 16.8498 9.1875 17.625C9.1875 18.4002 9.81783 19.0312 10.5938 19.0312C10.9453 19.0312 11.2694 18.9076 11.5331 18.6742C11.9868 18.2731 12.7031 18.5947 12.7031 19.2002V24H21.8906C23.0538 24 24 23.0538 24 21.8906V12.7031H20.3483Z" fill="white"/>
</g>
<defs>
<clipPath id="clip0_212_1696">
<rect width="24" height="24" fill="white"/>
</clipPath>
</defs>
</svg>
