<svg width="22" height="26" viewBox="0 0 22 26" fill="none" xmlns="http://www.w3.org/2000/svg">
<path d="M13.4446 0H8.55569C8.15068 0 7.82236 0.317482 7.82236 0.709116V2.12735C7.82236 2.51898 8.15068 2.83646 8.55569 2.83646H13.4446C13.8496 2.83646 14.1779 2.51898 14.1779 2.12735V0.709116C14.1779 0.317482 13.8496 0 13.4446 0Z" fill="white"/>
<path d="M11.0006 15.3645V7.32788C6.41778 7.32788 2.68945 10.9331 2.68945 15.3645C2.68945 19.796 6.41778 23.4012 11.0006 23.4012C15.5833 23.4012 19.3117 19.796 19.3117 15.3645H11.0006Z" fill="white"/>
<path d="M19.0433 8.1157L19.8296 7.35529C19.8986 7.28964 19.9535 7.21143 19.9911 7.12517C20.0287 7.0389 20.0483 6.9463 20.0487 6.85269C20.0491 6.75908 20.0303 6.66633 19.9934 6.57977C19.9566 6.49321 19.9023 6.41457 19.8339 6.34838C19.7654 6.28219 19.6841 6.22976 19.5946 6.19411C19.5051 6.15847 19.4092 6.14031 19.3123 6.14069C19.2155 6.14107 19.1198 6.15998 19.0306 6.19633C18.9414 6.23268 18.8605 6.28575 18.7926 6.35248L17.9742 7.1438C16.3981 5.88832 14.4905 5.08382 12.4667 4.82109V3.54468H9.53333V4.82109C7.50954 5.08372 5.60194 5.8881 4.02582 7.14344L3.20742 6.35213C3.13953 6.2854 3.05864 6.23233 2.96944 6.19598C2.88023 6.15963 2.78446 6.14072 2.68765 6.14034C2.59085 6.13996 2.49493 6.15811 2.40541 6.19376C2.3159 6.22941 2.23458 6.28184 2.16612 6.34803C2.09767 6.41422 2.04345 6.49286 2.00659 6.57942C1.96972 6.66597 1.95095 6.75873 1.95134 6.85234C1.95174 6.94594 1.97129 7.03855 2.00888 7.12481C2.04648 7.21107 2.10136 7.28929 2.17036 7.35494L2.95668 8.11534C1.05505 10.0806 -0.00203333 12.6719 2.9364e-06 15.3633C2.9364e-06 21.2284 4.9346 26 11 26C17.0654 26 22 21.2284 22 15.3633C22.0019 12.672 20.9449 10.0809 19.0433 8.1157V8.1157ZM11 24.109C9.21118 24.109 7.46253 23.5961 5.97518 22.6351C4.48783 21.6741 3.32858 20.3082 2.64402 18.7101C1.95947 17.1121 1.78036 15.3536 2.12934 13.6571C2.47833 11.9606 3.33973 10.4022 4.60461 9.17909C5.8695 7.95597 7.48107 7.12302 9.23552 6.78556C10.99 6.4481 12.8085 6.6213 14.4612 7.28325C16.1138 7.94519 17.5264 9.06616 18.5202 10.5044C19.514 11.9426 20.0444 13.6335 20.0444 15.3633C20.0444 16.5118 19.8105 17.6491 19.356 18.7101C18.9014 19.7712 18.2352 20.7353 17.3954 21.5475C16.5555 22.3596 15.5585 23.0038 14.4612 23.4433C13.3638 23.8828 12.1877 24.109 11 24.109V24.109Z" fill="white"/>
</svg>
