<svg width="26" height="26" viewBox="0 0 26 26" fill="none" xmlns="http://www.w3.org/2000/svg">
<g clip-path="url(#clip0_212_1715)">
<path d="M13 0C12.532 0 12.1522 0.379488 12.1522 0.847844V2.54348C12.1522 3.01184 12.532 3.39132 13 3.39132C13.4681 3.39132 13.8478 3.01184 13.8478 2.54348V0.847844C13.8478 0.379488 13.4681 0 13 0Z" fill="white"/>
<path d="M2.82668 11.8696H1.13105C0.662996 11.8696 0.283203 12.2494 0.283203 12.7175C0.283203 13.1855 0.662996 13.5653 1.13105 13.5653H2.82668C3.29473 13.5653 3.67453 13.1855 3.67453 12.7175C3.67453 12.2494 3.29473 11.8696 2.82668 11.8696Z" fill="white"/>
<path d="M24.8695 11.8695H23.1739C22.7058 11.8695 22.326 12.2493 22.326 12.7174C22.326 13.1854 22.7058 13.5652 23.1739 13.5652H24.8695C25.3376 13.5652 25.7174 13.1854 25.7174 12.7174C25.7174 12.2493 25.3376 11.8695 24.8695 11.8695Z" fill="white"/>
<path d="M21.9924 3.72488C21.6612 3.39369 21.1247 3.39399 20.7935 3.72458L19.5941 4.92347C19.2629 5.25462 19.2629 5.79143 19.5941 6.12262C19.7597 6.28822 19.9766 6.37104 20.1935 6.37104C20.4104 6.37104 20.6274 6.28822 20.7929 6.12293L21.9924 4.92403C22.3236 4.59289 22.3236 4.05608 21.9924 3.72488Z" fill="white"/>
<path d="M6.40637 4.92347L5.20697 3.72458C4.87582 3.39394 4.33927 3.39374 4.00812 3.72488C3.67698 4.05603 3.67698 4.59284 4.00812 4.92403L5.20758 6.12293C5.37317 6.28827 5.59011 6.37104 5.807 6.37104C6.02389 6.37104 6.24087 6.28822 6.40642 6.12262C6.73751 5.79148 6.73751 5.25472 6.40637 4.92347Z" fill="white"/>
<path d="M21.4783 22.0435H4.52179C4.05359 22.0435 3.67395 22.423 3.67395 22.8913V25.1522C3.67395 25.6204 4.05354 26 4.52179 26H21.4783C21.9465 26 22.3262 25.6204 22.3262 25.1522V22.8913C22.3261 22.423 21.9465 22.0435 21.4783 22.0435Z" fill="white"/>
<path d="M12.9996 5.08691C8.79195 5.08691 5.36914 8.50972 5.36914 12.7174V20.3478H20.63V12.7174C20.63 8.50967 17.2072 5.08691 12.9996 5.08691ZM16.3909 13.5651C15.9229 13.5651 15.5431 13.1854 15.5431 12.7173C15.5431 11.3148 14.4021 10.1738 12.9996 10.1738C12.5315 10.1738 12.1517 9.79403 12.1517 9.32598C12.1517 8.85793 12.5315 8.47814 12.9996 8.47814C15.3371 8.47814 17.2387 10.3797 17.2387 12.7173C17.2387 13.1854 16.859 13.5651 16.3909 13.5651Z" fill="white"/>
</g>
<defs>
<clipPath id="clip0_212_1715">
<rect width="26" height="26" fill="white"/>
</clipPath>
</defs>
</svg>
