<svg width="28" height="28" viewBox="0 0 28 28" fill="none" xmlns="http://www.w3.org/2000/svg">
<path d="M20.7905 21.6784C22.9105 21.6784 24.6357 19.9534 24.6357 17.8332C24.6357 15.7133 22.9105 13.988 20.7905 13.988C18.6704 13.988 16.9453 15.7133 16.9453 17.8332C16.9453 19.9534 18.6704 21.6784 20.7905 21.6784ZM20.7905 16.2952C21.6384 16.2952 22.3285 16.9853 22.3285 17.8332C22.3285 18.6811 21.6384 19.3713 20.7905 19.3713C19.9426 19.3713 19.2525 18.6811 19.2525 17.8332C19.2525 16.9853 19.9426 16.2952 20.7905 16.2952Z" fill="white"/>
<path d="M17.7148 22.2391V26.3429C17.7148 26.9148 18.3165 27.2864 18.8278 27.031L20.7911 25.5236L22.7541 27.031C23.2657 27.2864 23.8672 26.9148 23.8672 26.3429V22.2391C22.9936 22.8511 21.936 23.2166 20.7911 23.2166C19.6462 23.2166 18.5885 22.8511 17.7148 22.2391Z" fill="white"/>
<path d="M7.71642 1.31372L3.55273 5.52861H7.71642V1.31372Z" fill="white"/>
<path d="M20.7916 12.45C21.0549 12.45 21.3072 12.4911 21.5605 12.5277V1.63214C21.5605 1.20705 21.2165 0.863037 20.7916 0.863037H9.25585V6.29764C9.25585 6.72257 8.91183 7.06658 8.48691 7.06658H3.10352V21.6784C3.10352 22.1035 3.44737 22.4475 3.87262 22.4475H16.1773V20.577C15.6928 19.774 15.4082 18.8389 15.4082 17.8332C15.4082 14.8652 17.8235 12.45 20.7916 12.45ZM6.94887 8.60479H17.7153C18.1404 8.60479 18.4844 8.9488 18.4844 9.37373C18.4844 9.79881 18.1404 10.1428 17.7153 10.1428H6.94887C6.52362 10.1428 6.17976 9.79881 6.17976 9.37373C6.17976 8.9488 6.52362 8.60479 6.94887 8.60479ZM6.94887 11.6809H16.1773C16.6022 11.6809 16.9464 12.0249 16.9464 12.45C16.9464 12.8749 16.6022 13.2189 16.1773 13.2189H6.94887C6.52362 13.2189 6.17976 12.8749 6.17976 12.45C6.17976 12.0249 6.52362 11.6809 6.94887 11.6809ZM13.1012 16.2952H6.94887C6.52362 16.2952 6.17976 15.9511 6.17976 15.5261C6.17976 15.1011 6.52362 14.7571 6.94887 14.7571H13.1012C13.5261 14.7571 13.8701 15.1011 13.8701 15.5261C13.8701 15.9511 13.5261 16.2952 13.1012 16.2952Z" fill="white"/>
</svg>
