<svg width="448" height="34" viewBox="0 0 448 34" fill="none" xmlns="http://www.w3.org/2000/svg">
<path d="M12.5 1L12.5 9" stroke="#A29FCA" stroke-linecap="round"/>
<path d="M16.173 26.88V28H8.82303V27.16L11.665 24.682C14.045 22.596 14.745 21.994 14.745 20.986C14.745 19.922 13.891 19.152 12.533 19.152C11.147 19.152 10.349 19.95 10.083 21.21H8.90703C9.18703 19.264 10.601 18.046 12.589 18.046C14.591 18.046 15.907 19.306 15.907 20.944C15.907 22.4 14.871 23.296 12.617 25.256L10.741 26.88H16.173Z" fill="#7B78A7"/>
<path d="M65.375 1L65.375 9" stroke="#A29FCA" stroke-linecap="round"/>
<path d="M118.25 1L118.25 9" stroke="#A29FCA" stroke-linecap="round"/>
<path d="M122.178 24.556V25.648H120.736V28H119.574V25.648H114.324V24.556L119 18.2H120.736V24.556H122.178ZM115.612 24.542L119.574 24.556V19.292H119.462L115.612 24.542Z" fill="#7B78A7"/>
<path d="M171.125 1L171.125 9" stroke="#A29FCA" stroke-linecap="round"/>
<path d="M224 1L224 9" stroke="#A29FCA" stroke-linecap="round"/>
<path d="M224.313 21.406C226.063 21.406 227.659 22.568 227.659 24.668C227.659 26.782 226.049 28.154 223.991 28.154C222.003 28.154 220.337 26.852 220.337 24.626C220.337 22.918 221.373 21.574 223.907 18.2H225.265L222.479 21.924C222.997 21.63 223.571 21.406 224.313 21.406ZM223.991 27.048C225.391 27.048 226.497 26.11 226.497 24.668C226.497 23.198 225.391 22.316 224.005 22.316C222.563 22.316 221.513 23.212 221.513 24.682C221.513 26.152 222.619 27.048 223.991 27.048Z" fill="#7B78A7"/>
<path d="M276.875 1L276.875 9" stroke="#A29FCA" stroke-linecap="round"/>
<path d="M329.75 1L329.75 9" stroke="#A29FCA" stroke-linecap="round"/>
<path d="M331.602 22.834C332.736 23.212 333.366 24.15 333.366 25.326C333.366 27.104 331.784 28.154 329.754 28.154C327.724 28.154 326.128 27.104 326.128 25.326C326.128 24.15 326.758 23.212 327.892 22.834C326.968 22.484 326.464 21.686 326.464 20.734C326.464 19.096 327.906 18.046 329.754 18.046C331.588 18.046 333.044 19.096 333.044 20.734C333.044 21.686 332.54 22.484 331.602 22.834ZM329.754 19.138C328.494 19.138 327.626 19.782 327.626 20.86C327.626 21.756 328.228 22.4 329.754 22.4C331.28 22.4 331.882 21.756 331.882 20.86C331.882 19.782 331.014 19.138 329.754 19.138ZM329.754 27.062C331.182 27.062 332.204 26.404 332.204 25.242C332.204 24.01 331.35 23.422 329.754 23.422C328.13 23.422 327.29 24.01 327.29 25.242C327.29 26.404 328.312 27.062 329.754 27.062Z" fill="#7B78A7"/>
<path d="M382.625 1L382.625 9" stroke="#A29FCA" stroke-linecap="round"/>
<path d="M435.5 1L435.5 9" stroke="#A29FCA" stroke-linecap="round"/>
<path d="M426.801 18.2H427.333V28H426.171V19.558L423.917 20.468V19.32L426.801 18.2ZM433.328 18.046C435.82 18.046 437.276 19.894 437.276 23.1C437.276 26.306 435.82 28.154 433.328 28.154C430.864 28.154 429.38 26.348 429.38 23.1C429.38 19.852 430.864 18.046 433.328 18.046ZM433.328 27.048C434.98 27.048 436.1 25.914 436.1 23.1C436.1 20.286 434.98 19.152 433.328 19.152C431.676 19.152 430.556 20.286 430.556 23.1C430.556 25.914 431.676 27.048 433.328 27.048ZM443.404 20.37V23.268H446.33V24.374H443.404V27.272H442.242V24.374H439.316V23.268H442.242V20.37H443.404Z" fill="#7B78A7"/>
</svg>
