<svg width="20" height="20" viewBox="0 0 20 20" fill="none" xmlns="http://www.w3.org/2000/svg">
<path d="M14.4198 15.2977H18.5443V17.0183C18.5443 17.5776 18.3221 18.1139 17.9266 18.5094C17.5312 18.9048 16.9949 19.127 16.4356 19.127H2.26562C1.70685 19.1254 1.17142 18.9028 0.776311 18.5076C0.381203 18.1125 0.158544 17.5771 0.156986 17.0183V6.54181C0.156103 6.08405 0.307425 5.63899 0.587147 5.27663H18.1225C18.3963 5.64163 18.5443 6.08557 18.5443 6.54181V8.26245H14.4198C13.4869 8.26245 12.5923 8.63302 11.9327 9.29262C11.2731 9.95222 10.9026 10.8468 10.9026 11.7797C10.9026 12.7125 11.2731 13.6071 11.9327 14.2667C12.5923 14.9263 13.4869 15.2968 14.4198 15.2968V15.2977ZM19.8432 9.52848V14.0325C19.8432 14.1444 19.7987 14.2516 19.7196 14.3307C19.6406 14.4098 19.5333 14.4542 19.4214 14.4542H14.4198C13.7106 14.4542 13.0306 14.1725 12.5291 13.6711C12.0277 13.1697 11.746 12.4896 11.746 11.7805C11.746 11.0714 12.0277 10.3913 12.5291 9.88987C13.0306 9.38845 13.7106 9.10675 14.4198 9.10675H19.4214C19.4768 9.10675 19.5317 9.11766 19.5828 9.13885C19.634 9.16005 19.6805 9.19111 19.7196 9.23027C19.7588 9.26943 19.7899 9.31592 19.8111 9.36709C19.8323 9.41826 19.8432 9.47309 19.8432 9.52848ZM16.0308 11.7805C16.0308 11.5069 15.9496 11.2395 15.7976 11.012C15.6456 10.7845 15.4296 10.6072 15.1769 10.5025C14.9241 10.3978 14.646 10.3704 14.3776 10.4238C14.1093 10.4772 13.8628 10.6089 13.6694 10.8024C13.4759 10.9958 13.3442 11.2423 13.2908 11.5106C13.2374 11.779 13.2648 12.0571 13.3695 12.3098C13.4742 12.5626 13.6515 12.7786 13.879 12.9306C14.1065 13.0826 14.3739 13.1638 14.6475 13.1638C15.0143 13.1635 15.366 13.0177 15.6254 12.7584C15.8847 12.499 16.0305 12.1473 16.0308 11.7805ZM14.65 11.2441C14.5434 11.2439 14.439 11.2754 14.3503 11.3345C14.2615 11.3937 14.1923 11.4779 14.1514 11.5764C14.1105 11.6749 14.0998 11.7833 14.1205 11.888C14.1413 11.9926 14.1927 12.0887 14.2681 12.1641C14.3435 12.2396 14.4396 12.2909 14.5442 12.3117C14.6489 12.3324 14.7573 12.3217 14.8558 12.2808C14.9543 12.2399 15.0385 12.1707 15.0977 12.0819C15.1568 11.9932 15.1883 11.8889 15.1882 11.7822C15.1879 11.6395 15.1312 11.5028 15.0303 11.4019C14.9294 11.301 14.7927 11.2443 14.65 11.2441ZM16.7983 1.23734C16.7904 1.17451 16.768 1.11438 16.7328 1.06169C16.6977 1.009 16.6508 0.965187 16.5959 0.933696C16.5418 0.901325 16.4811 0.88149 16.4184 0.875651C16.3556 0.869813 16.2923 0.878119 16.2332 0.899958L11.9316 2.55313L11.5267 1.1783C11.5116 1.12128 11.4841 1.06829 11.4462 1.0231C11.4083 0.977911 11.3609 0.941626 11.3074 0.916827C11.2553 0.891157 11.1985 0.876418 11.1405 0.873517C11.0825 0.870616 11.0245 0.879614 10.97 0.899958L1.78485 4.43318H17.2538L16.7983 1.23734Z" fill="#0A1330"/>
</svg>
