<svg width="32" height="27" viewBox="0 0 32 27" fill="none" xmlns="http://www.w3.org/2000/svg">
<path d="M22.7427 3.08571C22.7427 1.38152 24.1472 0 25.8797 0H28.3631C30.0956 0 31.5 1.38152 31.5 3.08571V23.9143C31.5 25.6185 30.0956 27 28.3631 27H25.8797C24.1472 27 22.7427 25.6185 22.7427 23.9143V3.08571Z" fill="#4E43DF"/>
<path d="M11.3714 9C11.3714 7.29581 12.7758 5.91429 14.5083 5.91429H16.9917C18.7242 5.91429 20.1286 7.29581 20.1286 9V23.9143C20.1286 25.6185 18.7242 27 16.9917 27H14.5083C12.7758 27 11.3714 25.6185 11.3714 23.9143V9Z" fill="#4E43DF"/>
<path d="M0 14.6571C0 12.953 1.40445 11.5714 3.13693 11.5714H5.62033C7.35281 11.5714 8.75726 12.953 8.75726 14.6571V23.9143C8.75726 25.6185 7.35281 27 5.62033 27H3.13693C1.40445 27 0 25.6185 0 23.9143V14.6571Z" fill="#4E43DF"/>
</svg>
