<svg width="27" height="27" viewBox="0 0 27 27" fill="none" xmlns="http://www.w3.org/2000/svg">
<g clip-path="url(#clip0_1_613)">
<path d="M14.8037 1.40013L17.849 7.57059C18.0607 7.99975 18.4702 8.29713 18.9438 8.36584L25.7535 9.35539C26.9464 9.52885 27.4223 10.9943 26.5595 11.8352L21.632 16.6382C21.2896 16.9722 21.133 17.4537 21.2141 17.9251L22.3771 24.7072C22.581 25.895 21.3341 26.8006 20.2674 26.2402L14.1769 23.0384C13.7533 22.816 13.247 22.816 12.8235 23.0384L6.733 26.2402C5.6663 26.8012 4.41936 25.895 4.62324 24.7072L5.78626 17.9251C5.86736 17.4537 5.71079 16.9722 5.36836 16.6382L0.44089 11.8352C-0.421939 10.9937 0.0539685 9.52829 1.24683 9.35539L8.05653 8.36584C8.53019 8.29713 8.93964 7.99975 9.1514 7.57059L12.1966 1.40013C12.7294 0.319341 14.2704 0.319341 14.8037 1.40013Z" fill="#F89E1F"/>
</g>
<defs>
<clipPath id="clip0_1_613">
<rect width="27" height="27" fill="white"/>
</clipPath>
</defs>
</svg>
