<svg width="117" height="39" viewBox="0 0 117 39" fill="none" xmlns="http://www.w3.org/2000/svg">
<g clip-path="url(#clip0_1686_5677)">
<path d="M19.0288 38.295C29.427 38.295 37.8565 29.8451 37.8565 19.4217C37.8565 8.99822 29.427 0.54834 19.0288 0.54834C8.63059 0.54834 0.201172 8.99822 0.201172 19.4217C0.201172 29.8451 8.63059 38.295 19.0288 38.295Z" fill="#FF4500"/>
<path d="M31.5851 19.4218C31.529 17.9018 30.256 16.7148 28.735 16.7664C28.0611 16.7899 27.4199 17.0667 26.9332 17.5311C24.7898 16.0674 22.2719 15.2652 19.6839 15.2089L20.9054 9.32126L24.9349 10.1704C25.0472 11.2072 25.9738 11.9578 27.0081 11.8452C28.0424 11.7326 28.7912 10.8037 28.6789 9.76693C28.5665 8.73014 27.6399 7.97953 26.6056 8.09212C26.0113 8.15311 25.4777 8.50027 25.1829 9.01632L20.5684 8.09212C20.2549 8.02175 19.9413 8.21879 19.8711 8.5378C19.8711 8.54249 19.8711 8.54249 19.8711 8.54718L18.4811 15.0963C15.8603 15.1385 13.3097 15.9455 11.1382 17.4185C10.0337 16.3771 8.29279 16.4287 7.25383 17.5405C6.21487 18.6477 6.26635 20.3929 7.37551 21.4343C7.59079 21.6361 7.83883 21.8097 8.11495 21.9316C8.09623 22.2084 8.09623 22.4852 8.11495 22.762C8.11495 26.9889 13.0289 30.4277 19.0895 30.4277C25.1501 30.4277 30.0641 26.9936 30.0641 22.762C30.0829 22.4852 30.0829 22.2084 30.0641 21.9316C31.0095 21.4578 31.6039 20.482 31.5851 19.4218ZM12.7575 21.3124C12.7575 20.2709 13.6046 19.4218 14.6435 19.4218C15.6825 19.4218 16.5296 20.2709 16.5296 21.3124C16.5296 22.3538 15.6825 23.203 14.6435 23.203C13.5999 23.1936 12.7575 22.3538 12.7575 21.3124ZM23.6947 26.501C22.3562 27.5097 20.7182 28.0257 19.0427 27.9553C17.3673 28.0257 15.7293 27.5097 14.3908 26.501C14.213 26.2852 14.2457 25.9615 14.461 25.7832C14.6482 25.6284 14.915 25.6284 15.1069 25.7832C16.2394 26.6136 17.62 27.0358 19.024 26.9701C20.428 27.0452 21.8133 26.6418 22.9599 25.8208C23.1658 25.619 23.5028 25.6237 23.704 25.8301C23.9053 26.0366 23.9006 26.3743 23.6947 26.5761V26.501ZM23.3577 23.2687C22.3187 23.2687 21.4717 22.4195 21.4717 21.378C21.4717 20.3366 22.3187 19.4874 23.3577 19.4874C24.3967 19.4874 25.2437 20.3366 25.2437 21.378C25.2859 22.4195 24.4762 23.2968 23.4373 23.339C23.4045 23.339 23.3764 23.339 23.3437 23.339L23.3577 23.2687Z" fill="white"/>
<path d="M105.244 13.6654C106.66 13.6654 107.808 12.5144 107.808 11.0945C107.808 9.6747 106.66 8.52368 105.244 8.52368C103.827 8.52368 102.679 9.6747 102.679 11.0945C102.679 12.5144 103.827 13.6654 105.244 13.6654Z" fill="#FF4500"/>
<path d="M68.8989 22.0348C69.8911 22.1052 70.7522 21.3546 70.8271 20.3553C70.8317 20.299 70.8317 20.2333 70.8317 20.1724C70.8177 19.8252 70.7756 19.4733 70.7054 19.1309C70.097 15.8751 67.3217 13.4778 64.0223 13.3464C60.2643 13.3464 57.124 16.8087 57.124 21.059C57.124 25.3094 60.2128 28.7763 64.0177 28.7763C66.0347 28.8561 67.991 28.0398 69.3482 26.5432C69.9051 25.9333 69.8583 24.9904 69.2499 24.4321C69.2031 24.3899 69.161 24.3524 69.1142 24.3195C68.5058 23.9395 67.7149 24.0193 67.2001 24.5166C66.353 25.361 65.2157 25.8442 64.0177 25.8817C61.9491 25.7175 60.2924 24.0943 60.0865 22.0161H68.8427L68.8989 22.0348ZM64.0036 16.2504C65.8241 16.3724 67.3545 17.6766 67.7617 19.464H60.2549C60.6574 17.6719 62.1784 16.3677 64.0036 16.2504Z" fill="white"/>
<path d="M57.2738 14.843C57.2738 14.1205 56.7403 13.5059 56.0242 13.4168C54.0914 13.0931 52.1258 13.8109 50.8575 15.3121V15.1244C50.8575 14.3222 50.2117 13.6748 49.4114 13.6748C48.6111 13.6748 47.9653 14.3222 47.9653 15.1244V26.9936C47.9466 27.7723 48.5409 28.4338 49.3178 28.4995C50.1087 28.5558 50.8014 27.9553 50.8528 27.1625C50.8575 27.1062 50.8575 27.0499 50.8528 26.9936V20.9042C50.7265 18.4741 52.5844 16.4052 55.0087 16.2738C55.224 16.2598 55.4439 16.2644 55.6592 16.2879H55.9494C56.6982 16.2222 57.2738 15.5983 57.2738 14.843Z" fill="white"/>
<path d="M106.685 16.4006C106.685 15.5983 106.039 14.9509 105.239 14.9509C104.439 14.9509 103.793 15.5983 103.793 16.4006V26.989C103.793 27.7912 104.439 28.4386 105.239 28.4386C106.039 28.4386 106.685 27.7912 106.685 26.989V16.4006Z" fill="white"/>
<path d="M85.3443 8.35485C85.3443 7.55732 84.6985 6.90991 83.9029 6.90991C83.1073 6.90991 82.4614 7.55732 82.4614 8.35485V14.8289C81.488 13.8437 80.1495 13.3089 78.7689 13.3465C75.0109 13.3465 71.8706 16.8087 71.8706 21.059C71.8706 25.3094 74.9641 28.7763 78.7689 28.7763C80.1729 28.8186 81.5301 28.279 82.527 27.2798C82.7516 28.0445 83.5519 28.4808 84.3147 28.2556C84.8904 28.0867 85.3022 27.58 85.3396 26.9748L85.3443 8.35485ZM78.7596 25.9193C76.5459 25.9193 74.7441 23.7613 74.7441 21.0919C74.7441 18.4225 76.5319 16.2645 78.7596 16.2645C80.9872 16.2645 82.775 18.4225 82.775 21.0919C82.775 23.7613 80.9872 25.8958 78.7689 25.8958L78.7596 25.9193Z" fill="white"/>
<path d="M100.423 8.35485C100.423 7.55732 99.7776 6.90991 98.982 6.90991C98.1864 6.90991 97.5405 7.55732 97.5405 8.35485V14.8289C96.5671 13.8437 95.2286 13.3089 93.848 13.3465C90.09 13.3465 86.9497 16.8087 86.9497 21.059C86.9497 25.3094 90.0432 28.7763 93.848 28.7763C95.252 28.8186 96.6092 28.279 97.6061 27.2798C97.8307 28.0445 98.631 28.4808 99.3938 28.2556C99.9695 28.0867 100.381 27.58 100.419 26.9748L100.423 8.35485ZM93.8433 25.9193C91.6297 25.9193 89.8279 23.7613 89.8279 21.0919C89.8279 18.4225 91.6157 16.2645 93.8433 16.2645C96.071 16.2645 97.8588 18.4225 97.8588 21.0919C97.8588 23.7613 96.071 25.8958 93.8527 25.8958L93.8433 25.9193Z" fill="white"/>
<path d="M114.178 26.9841V16.2503H115.428C116.12 16.2925 116.71 15.7624 116.752 15.0728C116.752 15.0493 116.757 15.0212 116.757 14.993C116.818 14.3034 116.307 13.6935 115.624 13.6325C115.587 13.6278 115.545 13.6278 115.507 13.6278H114.183V11.634C114.192 10.8599 113.602 10.2078 112.83 10.1374C112.039 10.0811 111.351 10.6816 111.295 11.4745C111.29 11.5073 111.29 11.5449 111.29 11.5777V13.6607H110.036C109.344 13.6184 108.754 14.1486 108.712 14.8382C108.712 14.8616 108.707 14.8898 108.707 14.9179C108.646 15.6076 109.156 16.2174 109.84 16.2784C109.877 16.2831 109.919 16.2831 109.957 16.2831H111.206V26.9888C111.206 27.7863 111.852 28.4337 112.648 28.4337C113.443 28.4853 114.122 27.8755 114.173 27.0779C114.178 27.0498 114.178 27.017 114.178 26.9841Z" fill="white"/>
</g>
<defs>
<clipPath id="clip0_1686_5677">
<rect width="117" height="38" fill="white" transform="translate(0 0.393555)"/>
</clipPath>
</defs>
</svg>
