<svg width="86" height="28" viewBox="0 0 86 28" fill="none" xmlns="http://www.w3.org/2000/svg">
<g clip-path="url(#clip0_1136_3868)">
<path d="M13.9871 27.9274C21.6302 27.9274 27.8262 21.7012 27.8262 14.0207C27.8262 6.3403 21.6302 0.114075 13.9871 0.114075C6.34393 0.114075 0.147949 6.3403 0.147949 14.0207C0.147949 21.7012 6.34393 27.9274 13.9871 27.9274Z" fill="#FF4500"/>
<path d="M23.2166 14.0207C23.1753 12.9007 22.2396 12.0262 21.1216 12.0642C20.6263 12.0815 20.155 12.2854 19.7972 12.6277C18.2217 11.5491 16.371 10.958 14.4687 10.9165L15.3665 6.57827L18.3284 7.20395C18.4109 7.9679 19.092 8.52099 19.8523 8.43803C20.6125 8.35506 21.1629 7.67062 21.0804 6.90667C20.9978 6.14272 20.3167 5.58963 19.5564 5.67259C19.1196 5.71753 18.7274 5.97333 18.5107 6.35358L15.1188 5.67259C14.8884 5.62074 14.6579 5.76593 14.6063 6.00099C14.6063 6.00445 14.6063 6.00445 14.6063 6.0079L13.5846 10.8336C11.6582 10.8647 9.7834 11.4593 8.18724 12.5447C7.3754 11.7773 6.09572 11.8153 5.33204 12.6346C4.56836 13.4504 4.6062 14.7363 5.42148 15.5037C5.57972 15.6523 5.76204 15.7802 5.965 15.8701C5.95124 16.0741 5.95124 16.278 5.965 16.482C5.965 19.5965 9.577 22.1304 14.0318 22.1304C18.4866 22.1304 22.0986 19.6 22.0986 16.482C22.1124 16.278 22.1124 16.0741 22.0986 15.8701C22.7935 15.521 23.2304 14.802 23.2166 14.0207ZM9.37748 15.4138C9.37748 14.6464 10.0001 14.0207 10.7638 14.0207C11.5275 14.0207 12.1501 14.6464 12.1501 15.4138C12.1501 16.1812 11.5275 16.8069 10.7638 16.8069C9.99668 16.8 9.37748 16.1812 9.37748 15.4138ZM17.4168 19.237C16.4329 19.9802 15.2289 20.3605 13.9974 20.3086C12.7659 20.3605 11.5619 19.9802 10.578 19.237C10.4473 19.078 10.4714 18.8395 10.6296 18.7082C10.7672 18.5941 10.9633 18.5941 11.1044 18.7082C11.9368 19.32 12.9516 19.6311 13.9836 19.5827C15.0156 19.638 16.0339 19.3407 16.8767 18.7358C17.028 18.5872 17.2757 18.5906 17.4236 18.7427C17.5716 18.8948 17.5681 19.1437 17.4168 19.2923V19.237ZM17.1691 16.8553C16.4054 16.8553 15.7828 16.2296 15.7828 15.4622C15.7828 14.6948 16.4054 14.0691 17.1691 14.0691C17.9328 14.0691 18.5554 14.6948 18.5554 15.4622C18.5864 16.2296 17.9912 16.8761 17.2276 16.9072C17.2035 16.9072 17.1828 16.9072 17.1588 16.9072L17.1691 16.8553Z" fill="white"/>
<path d="M77.3588 9.77926C78.3999 9.77926 79.2439 8.93114 79.2439 7.88494C79.2439 6.83873 78.3999 5.99062 77.3588 5.99062C76.3176 5.99062 75.4736 6.83873 75.4736 7.88494C75.4736 8.93114 76.3176 9.77926 77.3588 9.77926Z" fill="#FF4500"/>
<path d="M50.6438 15.9462C51.3731 15.998 52.0061 15.4449 52.0611 14.7086C52.0645 14.6672 52.0645 14.6188 52.0645 14.5738C52.0542 14.318 52.0233 14.0588 51.9717 13.8064C51.5245 11.4074 49.4845 9.64099 47.0593 9.5442C44.297 9.5442 41.9888 12.0953 41.9888 15.2272C41.9888 18.359 44.2592 20.9136 47.0559 20.9136C48.5385 20.9723 49.9765 20.3709 50.9741 19.2681C51.3834 18.8188 51.349 18.124 50.9018 17.7126C50.8674 17.6815 50.8365 17.6538 50.8021 17.6296C50.3549 17.3496 49.7735 17.4084 49.3951 17.7748C48.7725 18.397 47.9365 18.7531 47.0559 18.7807C45.5354 18.6598 44.3177 17.4637 44.1663 15.9323H50.6025L50.6438 15.9462ZM47.0456 11.6839C48.3837 11.7738 49.5086 12.7348 49.8079 14.0519H44.2901C44.586 12.7314 45.704 11.7704 47.0456 11.6839Z" fill="white"/>
<path d="M42.0988 10.6469C42.0988 10.1146 41.7067 9.66173 41.1803 9.59605C39.7596 9.35754 38.3148 9.88642 37.3826 10.9926V10.8543C37.3826 10.2632 36.9079 9.78618 36.3196 9.78618C35.7314 9.78618 35.2567 10.2632 35.2567 10.8543V19.6C35.2429 20.1738 35.6798 20.6612 36.2508 20.7096C36.8322 20.7511 37.3413 20.3086 37.3791 19.7244C37.3826 19.683 37.3826 19.6415 37.3791 19.6V15.1131C37.2863 13.3225 38.6519 11.798 40.4339 11.7012C40.5921 11.6909 40.7538 11.6943 40.912 11.7116H41.1253C41.6757 11.6632 42.0988 11.2035 42.0988 10.6469Z" fill="white"/>
<path d="M78.4184 11.7946C78.4184 11.2035 77.9437 10.7264 77.3554 10.7264C76.7672 10.7264 76.2925 11.2035 76.2925 11.7946V19.5965C76.2925 20.1877 76.7672 20.6647 77.3554 20.6647C77.9437 20.6647 78.4184 20.1877 78.4184 19.5965V11.7946Z" fill="white"/>
<path d="M62.7319 5.86617C62.7319 5.27852 62.2572 4.80148 61.6724 4.80148C61.0876 4.80148 60.6128 5.27852 60.6128 5.86617V10.6365C59.8973 9.91062 58.9135 9.51655 57.8987 9.5442C55.1364 9.5442 52.8281 12.0953 52.8281 15.2272C52.8281 18.359 55.102 20.9136 57.8987 20.9136C58.9307 20.9447 59.9283 20.5472 60.661 19.8109C60.8261 20.3743 61.4144 20.6958 61.9751 20.5299C62.3982 20.4054 62.7009 20.0321 62.7284 19.5862L62.7319 5.86617ZM57.8918 18.8084C56.2647 18.8084 54.9403 17.2183 54.9403 15.2514C54.9403 13.2844 56.2544 11.6943 57.8918 11.6943C59.5292 11.6943 60.8433 13.2844 60.8433 15.2514C60.8433 17.2183 59.5292 18.7911 57.8987 18.7911L57.8918 18.8084Z" fill="white"/>
<path d="M73.8154 5.86617C73.8154 5.27852 73.3407 4.80148 72.7559 4.80148C72.1711 4.80148 71.6963 5.27852 71.6963 5.86617V10.6365C70.9808 9.91062 69.997 9.51655 68.9822 9.5442C66.2199 9.5442 63.9116 12.0953 63.9116 15.2272C63.9116 18.359 66.1855 20.9136 68.9822 20.9136C70.0142 20.9447 71.0118 20.5472 71.7445 19.8109C71.9096 20.3743 72.4979 20.6958 73.0586 20.5299C73.4817 20.4054 73.7844 20.0321 73.8119 19.5862L73.8154 5.86617ZM68.9787 18.8084C67.3516 18.8084 66.0272 17.2183 66.0272 15.2514C66.0272 13.2844 67.3413 11.6943 68.9787 11.6943C70.6162 11.6943 71.9303 13.2844 71.9303 15.2514C71.9303 17.2183 70.6162 18.7911 68.9856 18.7911L68.9787 18.8084Z" fill="white"/>
<path d="M83.9259 19.5931V11.684H84.8443C85.3535 11.7151 85.7869 11.3244 85.8179 10.8163C85.8179 10.799 85.8213 10.7783 85.8213 10.7575C85.866 10.2494 85.4911 9.8 84.9888 9.75507C84.9613 9.75161 84.9303 9.75161 84.9028 9.75161H83.9293V8.28247C83.9362 7.7121 83.5027 7.23161 82.9351 7.17976C82.3538 7.13828 81.8481 7.58074 81.8068 8.16494C81.8034 8.18914 81.8034 8.21679 81.8034 8.24099V9.77581H80.8815C80.3723 9.7447 79.9389 10.1353 79.9079 10.6435C79.9079 10.6607 79.9045 10.6815 79.9045 10.7022C79.8598 11.2104 80.2347 11.6598 80.737 11.7047C80.7645 11.7082 80.7955 11.7082 80.823 11.7082H81.7415V19.5965C81.7415 20.1842 82.2162 20.6612 82.801 20.6612C83.3858 20.6993 83.8846 20.2499 83.9224 19.6622C83.9259 19.6415 83.9259 19.6173 83.9259 19.5931Z" fill="white"/>
</g>
<defs>
<clipPath id="clip0_1136_3868">
<rect width="86" height="28" fill="white"/>
</clipPath>
</defs>
</svg>
