<svg width="20" height="21" viewBox="0 0 20 21" fill="none" xmlns="http://www.w3.org/2000/svg">
<g clip-path="url(#clip0_361_4647)">
<path d="M13.3359 3.83301H6.66927C6.21094 3.83301 5.83594 4.20801 5.83594 4.66634V15.4997C5.83594 15.958 6.21094 16.333 6.66927 16.333H13.3359C13.7943 16.333 14.1693 15.958 14.1693 15.4997V4.66634C14.1693 4.20801 13.7943 3.83301 13.3359 3.83301Z" fill="#4E43DF"/>
<path d="M3.33333 5.5C2.875 5.5 2.5 5.875 2.5 6.33333V13.8333C2.5 14.2917 2.875 14.6667 3.33333 14.6667C3.79167 14.6667 4.16667 14.2917 4.16667 13.8333V6.33333C4.16667 5.875 3.79167 5.5 3.33333 5.5Z" fill="#4E43DF"/>
<path d="M16.6693 5.5C16.2109 5.5 15.8359 5.875 15.8359 6.33333V13.8333C15.8359 14.2917 16.2109 14.6667 16.6693 14.6667C17.1276 14.6667 17.5026 14.2917 17.5026 13.8333V6.33333C17.5026 5.875 17.1276 5.5 16.6693 5.5Z" fill="#4E43DF"/>
</g>
<defs>
<clipPath id="clip0_361_4647">
<rect width="20" height="20" fill="white" transform="translate(0 0.5)"/>
</clipPath>
</defs>
</svg>
