<svg width="103" height="22" viewBox="0 0 103 22" fill="none" xmlns="http://www.w3.org/2000/svg">
<g clip-path="url(#clip0_89_6733)">
<path fill-rule="evenodd" clip-rule="evenodd" d="M15.8628 4.82959L15.0251 5.2491C16.658 6.56807 17.4561 8.27112 17.604 10.3312C17.4804 14.3089 15.6037 16.8656 12.3802 17.9616C8.65533 19.084 6.29591 18.1762 4.0122 15.8488L3.86774 16.7433L4.79636 17.7109C8.02606 21.0767 13.3811 21.1871 16.7462 17.9574C20.1121 14.7277 20.2225 9.37339 16.9928 6.00756L15.8628 4.82959Z" fill="#FEEF7C"/>
<path fill-rule="evenodd" clip-rule="evenodd" d="M3.40813 16.2452L3.96934 15.7549C1.6377 12.4516 1.54047 7.61465 4.73057 4.95241C7.09554 2.97848 11.788 1.95539 15.5421 5.2608L15.8227 4.76835L14.9072 3.81473C11.6775 0.448897 6.32319 0.338462 2.95736 3.56816C-0.408464 6.79785 -0.518899 12.1529 2.7108 15.518L3.40813 16.2452Z" fill="#5CD3CB"/>
<path d="M9.8587 18.5597C14.1519 18.5597 17.6322 15.0794 17.6322 10.7862C17.6322 6.49301 14.1519 3.0127 9.8587 3.0127C5.56552 3.0127 2.08521 6.49301 2.08521 10.7862C2.08521 15.0794 5.56552 18.5597 9.8587 18.5597Z" fill="white"/>
<path d="M1.38922 10.7866C1.38922 15.4631 5.18081 19.2547 9.85727 19.2547C14.5344 19.2547 18.326 15.4631 18.326 10.7866C18.326 6.10946 14.5344 2.31787 9.85727 2.31787C5.18081 2.31787 1.38922 6.10946 1.38922 10.7866ZM7.28324 12.3181C7.37215 12.0368 7.27352 11.7298 7.03667 11.5527C6.41018 11.0846 5.17387 10.1615 4.34387 9.54197C4.22371 9.45237 4.17509 9.2961 4.22232 9.15371C4.26955 9.01202 4.40221 8.91617 4.55154 8.91617H7.77013C8.06948 8.91617 8.3355 8.72448 8.42926 8.43971C8.68278 7.67361 9.18703 6.15044 9.5218 5.14125C9.56834 4.99956 9.701 4.90371 9.85102 4.90302C10.0004 4.90302 10.133 4.99887 10.1809 5.14056C10.5185 6.15044 11.029 7.67569 11.2853 8.44179C11.3797 8.72517 11.6451 8.91617 11.9437 8.91617C12.705 8.91617 14.1719 8.91617 15.1699 8.91617C15.3193 8.91617 15.4519 9.01133 15.4992 9.15302C15.5464 9.29471 15.4985 9.45098 15.379 9.54058C14.5511 10.1643 13.3148 11.0957 12.689 11.5666C12.4542 11.7437 12.3563 12.05 12.4452 12.3313C12.6869 13.0953 13.1717 14.6268 13.4995 15.661C13.5454 15.8062 13.4919 15.9639 13.3676 16.0507C13.2439 16.1375 13.0772 16.134 12.9571 16.0416C12.125 15.4033 10.9102 14.4706 10.274 13.9823C10.024 13.7906 9.67599 13.7913 9.42665 13.9837C8.79599 14.4712 7.59788 15.3978 6.77344 16.0354C6.65328 16.1285 6.48658 16.1326 6.36226 16.0458C6.23724 15.9583 6.18376 15.8006 6.2296 15.6562C6.55743 14.6185 7.04154 13.0842 7.28324 12.3181Z" fill="#0A1330"/>
</g>
<path d="M34.8187 14.8401L32.4364 11.938C33.966 11.5992 35.0353 10.6546 35.0353 9.08838V9.06161C35.0353 8.27609 34.7318 7.57721 34.2191 7.09149C33.5638 6.47144 32.5378 6.10059 31.2576 6.10059H27.4785C27.1071 6.10059 26.7872 6.40039 26.7872 6.76833V15.2995C26.7872 15.6675 27.1071 15.9673 27.4785 15.9673C27.8657 15.9673 28.1836 15.667 28.1836 15.2995V12.1862H30.8909L33.6939 15.6324C33.8477 15.8266 34.056 15.9673 34.3296 15.9673C34.6835 15.9673 35.0353 15.6645 35.0353 15.3127C35.0353 15.1341 34.955 14.9856 34.8187 14.8401ZM33.6245 9.10249V9.12975C33.6245 10.2915 32.5887 10.9738 31.1563 10.9738H28.1836V7.34019H31.1707C32.7106 7.34019 33.6245 7.99333 33.6245 9.10249Z" fill="black"/>
<path d="M37.0649 15.2314C37.0649 15.5988 37.3848 15.8986 37.7561 15.8986H44.1027C44.4628 15.8986 44.7503 15.6261 44.7503 15.2854C44.7503 14.9452 44.4628 14.6727 44.1027 14.6727H38.4612V11.5715H43.3817C43.7417 11.5715 44.0297 11.2994 44.0297 10.9587C44.0297 10.6351 43.7417 10.3455 43.3817 10.3455H38.4612V7.32705H44.0307C44.3902 7.32705 44.6788 7.0545 44.6788 6.71382C44.6788 6.37313 44.3902 6.10059 44.0307 6.10059H37.7561C37.3848 6.10059 37.0649 6.40039 37.0649 6.76833V15.2314Z" fill="black"/>
<path d="M50.6289 16.0084H50.7045C51.0826 16.0021 51.3176 15.8006 51.4673 15.4862L55.3786 6.9365C55.4136 6.85425 55.4311 6.772 55.4311 6.6732C55.4311 6.3369 55.1307 6.03271 54.7398 6.03271C54.4302 6.03271 54.1834 6.25416 54.0625 6.48193C54.0609 6.48436 54.0594 6.4868 54.0584 6.48972L50.6726 14.1643L47.3003 6.51697C47.18 6.24005 46.9346 6.03271 46.5906 6.03271C46.2007 6.03271 45.8844 6.35247 45.8844 6.68634C45.8844 6.80315 45.9029 6.88588 45.9554 6.98517L49.8472 15.4833C49.9824 15.8035 50.2396 16.0084 50.6289 16.0084Z" fill="black"/>
<path d="M57.2758 6.70045V15.2998C57.2758 15.6677 57.5957 15.9675 57.967 15.9675C58.3548 15.9675 58.6721 15.6668 58.6721 15.2998V6.70045C58.6721 6.333 58.3548 6.03271 57.967 6.03271C57.5957 6.03271 57.2758 6.33252 57.2758 6.70045Z" fill="black"/>
<path d="M68.2093 6.10107L68.1928 6.10059H61.9177C61.5469 6.10059 61.227 6.40039 61.227 6.76833V15.2314C61.227 15.5988 61.5469 15.8986 61.9177 15.8986H68.2648C68.6238 15.8986 68.9124 15.6261 68.9124 15.2854C68.9124 14.9452 68.6244 14.6727 68.2648 14.6727H62.6234V11.5715H67.5433C67.9038 11.5715 68.1913 11.2994 68.1913 10.9587C68.1913 10.6351 67.9038 10.3455 67.5433 10.3455H62.6234V7.32705H68.1928C68.5518 7.32705 68.8409 7.0545 68.8409 6.71382C68.8409 6.37849 68.5611 6.10935 68.2093 6.10107Z" fill="black"/>
<path d="M80.5814 16.0211H80.6997C81.0361 16.0147 81.2783 15.7962 81.3966 15.4755C81.3961 15.477 84.6275 6.98712 84.6275 6.98712C84.6281 6.98566 84.6286 6.98468 84.6286 6.98371C84.661 6.89026 84.7073 6.77979 84.7073 6.68634C84.7073 6.3515 84.373 6.03271 84.0016 6.03271C83.6694 6.03271 83.4369 6.24053 83.3315 6.53839C83.332 6.53741 80.6586 13.8139 80.6586 13.8139L78.1374 6.53887C78.033 6.24151 77.8016 6.03271 77.4534 6.03271V6.03369L77.3809 6.03271C77.0147 6.03271 76.8007 6.24151 76.6963 6.53887L74.1752 13.8134L71.5162 6.56418C71.4133 6.27168 71.1489 6.03271 70.8033 6.03271C70.416 6.03271 70.0838 6.35004 70.0838 6.69997C70.0838 6.79487 70.1141 6.88978 70.1476 6.9842L73.3795 15.476C73.4983 15.8118 73.7406 16.0152 74.0764 16.0211H74.1947C74.5306 16.0147 74.7733 15.7962 74.8911 15.4755L77.3814 8.47298L79.8851 15.4755C80.0034 15.7962 80.2461 16.0147 80.5814 16.0211Z" fill="black"/>
<path d="M91.9928 13.2929V13.3202C91.9928 14.2021 91.1406 14.8231 89.8712 14.8231C88.6235 14.8231 87.6972 14.4654 86.7725 13.7237L86.7699 13.7212C86.6784 13.637 86.5169 13.567 86.3374 13.567C85.964 13.567 85.66 13.8512 85.66 14.2211C85.66 14.4401 85.7691 14.625 85.928 14.7287C87.0759 15.5901 88.3267 16.0354 89.828 16.0354C91.9136 16.0354 93.4035 14.9151 93.4035 13.2112V13.1834C93.4035 11.6693 92.3456 10.8434 90.0137 10.3626C90.0137 10.3621 90.0132 10.3621 90.0132 10.3621C87.8942 9.93235 87.3742 9.4841 87.3742 8.62461V8.59735C87.3742 7.7948 88.1699 7.1767 89.395 7.1767C90.3053 7.1767 91.1035 7.41615 91.93 7.98607C91.9305 7.98607 91.9305 7.98656 91.931 7.98656C92.054 8.07027 92.1779 8.10482 92.3379 8.10482C92.7113 8.10482 93.0142 7.81865 93.0142 7.46434C93.0142 7.21466 92.8584 7.0307 92.7174 6.93044C92.7164 6.92995 92.7159 6.92946 92.7149 6.92898C91.7701 6.28654 90.7821 5.96436 89.4238 5.96436C87.4246 5.96436 85.9774 7.12852 85.9774 8.69323L86.1059 8.8149L85.9774 8.69372V8.71951L86.1059 8.84167L85.9774 8.72C85.9774 10.3455 87.0636 11.1019 89.469 11.5963C89.469 11.5963 89.469 11.5963 89.4695 11.5963C91.4877 11.9998 91.9928 12.448 91.9928 13.2929Z" fill="black"/>
<path d="M94.9929 14.6245H94.981C94.7095 14.6245 94.5166 14.808 94.5166 15.0562V15.209C94.5166 15.4563 94.71 15.6485 94.981 15.6485C95.2423 15.6485 95.4372 15.4568 95.4372 15.209C95.4372 15.2489 95.4028 15.282 95.3601 15.282C95.3601 15.282 95.4372 15.2738 95.4372 15.2051V15.0562C95.4372 14.8114 95.2485 14.6299 94.9929 14.6245ZM94.6004 15.2806C94.5963 15.2815 94.5937 15.282 94.5937 15.282C94.5958 15.282 94.5984 15.2815 94.6004 15.2815V15.2806Z" fill="black"/>
<path d="M96.6384 11.8498V15.2776C96.6384 15.4864 96.8092 15.6484 97.0298 15.6484C97.252 15.6484 97.414 15.4868 97.414 15.2776V11.8498C97.414 11.64 97.2427 11.4789 97.0221 11.4789C96.8107 11.4789 96.6384 11.6498 96.6384 11.8498ZM96.5818 10.4525C96.5818 10.6764 96.7757 10.8385 97.0221 10.8385C97.2777 10.8385 97.4701 10.6759 97.4701 10.4525V10.3537C97.4701 10.1201 97.2777 9.96729 97.0221 9.96729C96.7757 9.96729 96.5818 10.1196 96.5818 10.3537V10.4525Z" fill="black"/>
<path fill-rule="evenodd" clip-rule="evenodd" d="M102.948 13.5692V13.5526C102.948 12.3977 101.996 11.4331 100.701 11.4331C99.3985 11.4331 98.4455 12.4133 98.4455 13.5677V13.5828C98.4455 14.7368 99.3898 15.7019 100.685 15.7019C101.988 15.7019 102.948 14.7222 102.948 13.5692ZM102.157 13.5828V13.5677C102.157 12.7613 101.522 12.0979 100.685 12.0979C99.8254 12.0979 99.237 12.7608 99.237 13.5526V13.5677C99.237 14.3737 99.865 15.0288 100.701 15.0288C101.56 15.0288 102.157 14.3737 102.157 13.5828Z" fill="black"/>
<defs>
<clipPath id="clip0_89_6733">
<rect width="20.1422" height="20.1422" fill="white" transform="translate(0 0.928711)"/>
</clipPath>
</defs>
</svg>
