<svg width="12" height="11" viewBox="0 0 12 11" fill="none" xmlns="http://www.w3.org/2000/svg">
<path fill-rule="evenodd" clip-rule="evenodd" d="M3.30501 10.8954C2.98488 11.057 2.5976 11.0285 2.30639 10.822C2.01518 10.6154 1.87069 10.2666 1.93383 9.9227L2.44478 7.08964L0.29359 5.09543C0.0306436 4.85286 -0.0657224 4.48618 0.0455389 4.15158C0.1568 3.81699 0.456085 3.57342 0.815914 3.52463L3.8027 3.11162L5.15114 0.509499C5.31102 0.197429 5.63995 0 6 0C6.36005 0 6.68898 0.197429 6.84886 0.509499L8.1973 3.11162L11.1841 3.52463C11.5439 3.57342 11.8432 3.81699 11.9545 4.15158C12.0657 4.48618 11.9694 4.85286 11.7064 5.09543L9.55522 7.08964L10.0662 9.92331C10.1293 10.2673 9.98482 10.616 9.69361 10.8226C9.4024 11.0292 9.01512 11.0576 8.69499 10.896L6 9.54879L3.30501 10.8954Z" fill="#EAAD62"/>
</svg>
