<svg width="124" height="26" viewBox="0 0 124 26" fill="none" xmlns="http://www.w3.org/2000/svg">
<path fill-rule="evenodd" clip-rule="evenodd" d="M19.0969 5.57227L18.0884 6.07731C20.0543 7.66519 21.015 9.71547 21.1931 12.1955C21.0443 16.9843 18.785 20.0622 14.9043 21.3817C10.4199 22.7329 7.57949 21.6401 4.83017 18.8381L4.65625 19.915L5.77421 21.0798C9.66238 25.1319 16.1092 25.2648 20.1605 21.3767C24.2125 17.4885 24.3455 11.0425 20.4573 6.9904L19.0969 5.57227Z" fill="#FEEF7C"/>
<path fill-rule="evenodd" clip-rule="evenodd" d="M4.10348 19.3152L4.7791 18.7249C1.97209 14.7481 1.85503 8.92503 5.69554 5.72C8.54269 3.34361 14.1918 2.11194 18.7113 6.09126L19.0491 5.49842L17.9471 4.35036C14.0589 0.298294 7.61287 0.165343 3.56081 4.05352C-0.491257 7.9417 -0.624208 14.3885 3.26397 18.4398L4.10348 19.3152Z" fill="#5CD3CB"/>
<path d="M11.8691 22.102C17.0376 22.102 21.2275 17.9121 21.2275 12.7436C21.2275 7.57514 17.0376 3.38525 11.8691 3.38525C6.70063 3.38525 2.51074 7.57514 2.51074 12.7436C2.51074 17.9121 6.70063 22.102 11.8691 22.102Z" fill="white"/>
<path d="M1.67285 12.7437C1.67285 18.3736 6.23749 22.9383 11.8674 22.9383C17.4982 22.9383 22.0628 18.3736 22.0628 12.7437C22.0628 7.11298 17.4982 2.54834 11.8674 2.54834C6.23749 2.54834 1.67285 7.11298 1.67285 12.7437ZM8.76857 14.5875C8.8756 14.2488 8.75686 13.8792 8.47173 13.666C7.7175 13.1024 6.22913 11.9912 5.22991 11.2453C5.08525 11.1374 5.02672 10.9493 5.08358 10.7779C5.14044 10.6073 5.30014 10.4919 5.47992 10.4919H9.35472C9.71511 10.4919 10.0354 10.2611 10.1482 9.91832C10.4534 8.99602 11.0605 7.16231 11.4635 5.94736C11.5196 5.77678 11.6793 5.66139 11.8599 5.66055C12.0397 5.66055 12.1994 5.77594 12.2571 5.94652C12.6634 7.16231 13.278 8.99853 13.5866 9.92083C13.7003 10.262 14.0197 10.4919 14.3792 10.4919C15.2957 10.4919 17.0617 10.4919 18.2632 10.4919C18.443 10.4919 18.6027 10.6065 18.6596 10.7771C18.7164 10.9476 18.6588 11.1358 18.5149 11.2436C17.5182 11.9945 16.0298 13.1158 15.2765 13.6827C14.9938 13.896 14.8759 14.2647 14.983 14.6034C15.2739 15.5231 15.8576 17.3669 16.2523 18.6119C16.3074 18.7867 16.2431 18.9765 16.0934 19.081C15.9446 19.1856 15.7439 19.1814 15.5992 19.0702C14.5975 18.3017 13.135 17.1788 12.3691 16.5909C12.0681 16.3601 11.6492 16.361 11.349 16.5926C10.5897 17.1796 9.14735 18.295 8.15482 19.0626C8.01016 19.1747 7.80948 19.1797 7.65981 19.0752C7.5093 18.9698 7.44491 18.78 7.5001 18.6061C7.89477 17.3569 8.47758 15.5098 8.76857 14.5875Z" fill="#0A1330"/>
<path d="M41.918 17.6234L39.05 14.1296C40.8914 13.7218 42.1787 12.5845 42.1787 10.699V10.6668C42.1787 9.72111 41.8134 8.87973 41.1961 8.29498C40.4072 7.54852 39.172 7.10205 37.6309 7.10205H33.0812C32.6341 7.10205 32.249 7.46298 32.249 7.90593V18.1765C32.249 18.6195 32.6341 18.9804 33.0812 18.9804C33.5474 18.9804 33.9301 18.6189 33.9301 18.1765V14.4284H37.1894L40.5639 18.5773C40.749 18.8111 40.9998 18.9804 41.3292 18.9804C41.7552 18.9804 42.1787 18.6159 42.1787 18.1923C42.1787 17.9773 42.0821 17.7986 41.918 17.6234ZM40.4803 10.716V10.7488C40.4803 12.1474 39.2333 12.9689 37.5089 12.9689H33.9301V8.59439H37.5262C39.38 8.59439 40.4803 9.38069 40.4803 10.716Z" fill="black"/>
<path d="M44.6221 18.0945C44.6221 18.5368 45.0072 18.8978 45.4542 18.8978H53.0948C53.5283 18.8978 53.8744 18.5697 53.8744 18.1595C53.8744 17.75 53.5283 17.4218 53.0948 17.4218H46.3031V13.6884H52.2268C52.6602 13.6884 53.0069 13.3608 53.0069 12.9507C53.0069 12.5611 52.6602 12.2124 52.2268 12.2124H46.3031V8.57857H53.0081C53.4409 8.57857 53.7883 8.25045 53.7883 7.84031C53.7883 7.43017 53.4409 7.10205 53.0081 7.10205H45.4542C45.0072 7.10205 44.6221 7.46298 44.6221 7.90593V18.0945Z" fill="black"/>
<path d="M60.9521 19.0301H61.0431C61.4982 19.0225 61.7812 18.7799 61.9614 18.4014L66.6702 8.10856C66.7123 8.00954 66.7333 7.91052 66.7333 7.79158C66.7333 7.38671 66.3717 7.02051 65.9011 7.02051C65.5284 7.02051 65.2312 7.2871 65.0857 7.56131C65.0838 7.56424 65.082 7.56717 65.0807 7.57069L61.0047 16.81L56.9448 7.6035C56.7999 7.27011 56.5046 7.02051 56.0904 7.02051C55.621 7.02051 55.2402 7.40546 55.2402 7.8074C55.2402 7.94802 55.2625 8.04762 55.3257 8.16715L60.011 18.3979C60.1738 18.7834 60.4834 19.0301 60.9521 19.0301Z" fill="black"/>
<path d="M68.9541 7.82439V18.177C68.9541 18.6199 69.3392 18.9809 69.7863 18.9809C70.2531 18.9809 70.6352 18.6188 70.6352 18.177V7.82439C70.6352 7.38202 70.2531 7.02051 69.7863 7.02051C69.3392 7.02051 68.9541 7.38143 68.9541 7.82439Z" fill="black"/>
<path d="M82.1168 7.10264L82.097 7.10205H74.5425C74.0961 7.10205 73.7109 7.46298 73.7109 7.90593V18.0945C73.7109 18.5368 74.0961 18.8978 74.5425 18.8978H82.1837C82.6159 18.8978 82.9632 18.5697 82.9632 18.1595C82.9632 17.75 82.6165 17.4218 82.1837 17.4218H75.392V13.6884H81.315C81.749 13.6884 82.0952 13.3608 82.0952 12.9507C82.0952 12.5611 81.749 12.2124 81.315 12.2124H75.392V8.57857H82.097C82.5292 8.57857 82.8772 8.25045 82.8772 7.84031C82.8772 7.43661 82.5403 7.1126 82.1168 7.10264Z" fill="black"/>
<path d="M97.011 19.0453H97.1534C97.5583 19.0377 97.85 18.7746 97.9924 18.3885C97.9918 18.3903 101.882 8.1695 101.882 8.1695C101.883 8.16774 101.883 8.16657 101.883 8.16539C101.922 8.0529 101.978 7.91989 101.978 7.8074C101.978 7.40428 101.576 7.02051 101.128 7.02051C100.728 7.02051 100.449 7.2707 100.322 7.62928C100.322 7.62811 97.1039 16.3882 97.1039 16.3882L94.0687 7.62986C93.943 7.27187 93.6643 7.02051 93.2452 7.02051V7.02168L93.1579 7.02051C92.717 7.02051 92.4594 7.27187 92.3337 7.62986L89.2986 16.3876L86.0974 7.66033C85.9736 7.30819 85.6554 7.02051 85.2393 7.02051C84.773 7.02051 84.373 7.40253 84.373 7.8238C84.373 7.93806 84.4096 8.05231 84.4498 8.16598L88.3407 18.3891C88.4837 18.7934 88.7754 19.0383 89.1797 19.0453H89.3221C89.7264 19.0377 90.0187 18.7746 90.1605 18.3885L93.1585 9.95831L96.1726 18.3885C96.315 18.7746 96.6073 19.0377 97.011 19.0453Z" fill="black"/>
<path d="M110.749 15.7608V15.7936C110.749 16.8553 109.723 17.6029 108.195 17.6029C106.693 17.6029 105.578 17.1722 104.464 16.2793L104.461 16.2764C104.351 16.175 104.157 16.0906 103.94 16.0906C103.491 16.0906 103.125 16.4328 103.125 16.8781C103.125 17.1418 103.256 17.3644 103.448 17.4892C104.83 18.5263 106.335 19.0624 108.143 19.0624C110.654 19.0624 112.447 17.7136 112.447 15.6623V15.6289C112.447 13.8061 111.174 12.8118 108.366 12.2329C108.366 12.2324 108.366 12.2324 108.366 12.2324C105.815 11.715 105.189 11.1754 105.189 10.1406V10.1078C105.189 9.14163 106.147 8.39751 107.621 8.39751C108.717 8.39751 109.678 8.68578 110.673 9.3719C110.674 9.3719 110.674 9.37248 110.675 9.37248C110.823 9.47326 110.972 9.51486 111.164 9.51486C111.614 9.51486 111.979 9.17034 111.979 8.74379C111.979 8.44321 111.791 8.22174 111.621 8.10104C111.62 8.10045 111.619 8.09987 111.618 8.09928C110.481 7.32587 109.291 6.93799 107.656 6.93799C105.249 6.93799 103.507 8.33951 103.507 10.2232L103.662 10.3697L103.507 10.2238V10.2549L103.662 10.4019L103.507 10.2555C103.507 12.2124 104.815 13.1229 107.711 13.7182C107.711 13.7182 107.711 13.7182 107.711 13.7182C110.141 14.204 110.749 14.7436 110.749 15.7608Z" fill="black"/>
<path d="M114.36 17.3643H114.346C114.019 17.3643 113.787 17.5851 113.787 17.884V18.0679C113.787 18.3656 114.02 18.597 114.346 18.597C114.661 18.597 114.895 18.3662 114.895 18.0679C114.895 18.116 114.854 18.1558 114.803 18.1558C114.803 18.1558 114.895 18.1459 114.895 18.0633V17.884C114.895 17.5893 114.668 17.3707 114.36 17.3643ZM113.888 18.1541C113.883 18.1552 113.88 18.1558 113.88 18.1558C113.882 18.1558 113.886 18.1552 113.888 18.1552V18.1541Z" fill="black"/>
<path d="M116.342 14.0237V18.1503C116.342 18.4016 116.547 18.5968 116.813 18.5968C117.08 18.5968 117.275 18.4022 117.275 18.1503V14.0237C117.275 13.7711 117.069 13.5772 116.803 13.5772C116.549 13.5772 116.342 13.7828 116.342 14.0237ZM116.273 12.3415C116.273 12.611 116.507 12.8061 116.803 12.8061C117.111 12.8061 117.343 12.6104 117.343 12.3415V12.2225C117.343 11.9413 117.111 11.7573 116.803 11.7573C116.507 11.7573 116.273 11.9407 116.273 12.2225V12.3415Z" fill="black"/>
<path fill-rule="evenodd" clip-rule="evenodd" d="M123.938 16.0936V16.0736C123.938 14.6833 122.792 13.522 121.233 13.522C119.665 13.522 118.518 14.702 118.518 16.0918V16.11C118.518 17.4992 119.654 18.6611 121.213 18.6611C122.782 18.6611 123.938 17.4816 123.938 16.0936ZM122.986 16.11V16.0918C122.986 15.1209 122.221 14.3223 121.213 14.3223C120.179 14.3223 119.47 15.1204 119.47 16.0736V16.0918C119.47 17.0621 120.226 17.8507 121.233 17.8507C122.267 17.8507 122.986 17.0621 122.986 16.11Z" fill="black"/>
</svg>
