<svg width="92" height="16" viewBox="0 0 92 16" fill="none" xmlns="http://www.w3.org/2000/svg">
<path d="M8 0L9.80568 5.5147L15.6085 5.52786L10.9216 8.9493L12.7023 14.4721L8 11.072L3.29772 14.4721L5.07835 8.9493L0.391548 5.52786L6.19432 5.5147L8 0Z" fill="#E6C039"/>
<path d="M27 0L28.8057 5.5147L34.6085 5.52786L29.9216 8.9493L31.7023 14.4721L27 11.072L22.2977 14.4721L24.0784 8.9493L19.3915 5.52786L25.1943 5.5147L27 0Z" fill="#E6C039"/>
<path d="M46 0L47.8057 5.5147L53.6085 5.52786L48.9216 8.9493L50.7023 14.4721L46 11.072L41.2977 14.4721L43.0784 8.9493L38.3915 5.52786L44.1943 5.5147L46 0Z" fill="#E6C039"/>
<path d="M65 0L66.8057 5.5147L72.6085 5.52786L67.9216 8.9493L69.7023 14.4721L65 11.072L60.2977 14.4721L62.0784 8.9493L57.3915 5.52786L63.1943 5.5147L65 0Z" fill="#E6C039"/>
<path d="M84 0L85.8057 5.5147L91.6085 5.52786L86.9216 8.9493L88.7023 14.4721L84 11.072L79.2977 14.4721L81.0784 8.9493L76.3915 5.52786L82.1943 5.5147L84 0Z" fill="#E0E0E0"/>
</svg>
