<svg width="92" height="17" viewBox="0 0 92 17" fill="none" xmlns="http://www.w3.org/2000/svg">
<path d="M8 0.5L9.80568 6.0147L15.6085 6.02786L10.9216 9.4493L12.7023 14.9721L8 11.572L3.29772 14.9721L5.07835 9.4493L0.391548 6.02786L6.19432 6.0147L8 0.5Z" fill="#E6C039"/>
<path d="M27 0.5L28.8057 6.0147L34.6085 6.02786L29.9216 9.4493L31.7023 14.9721L27 11.572L22.2977 14.9721L24.0784 9.4493L19.3915 6.02786L25.1943 6.0147L27 0.5Z" fill="#E6C039"/>
<path d="M46 0.5L47.8057 6.0147L53.6085 6.02786L48.9216 9.4493L50.7023 14.9721L46 11.572L41.2977 14.9721L43.0784 9.4493L38.3915 6.02786L44.1943 6.0147L46 0.5Z" fill="#E6C039"/>
<path d="M65 0.5L66.8057 6.0147L72.6085 6.02786L67.9216 9.4493L69.7023 14.9721L65 11.572L60.2977 14.9721L62.0784 9.4493L57.3915 6.02786L63.1943 6.0147L65 0.5Z" fill="#E6C039"/>
<path d="M84 0.5L85.8057 6.0147L91.6085 6.02786L86.9216 9.4493L88.7023 14.9721L84 11.572L79.2977 14.9721L81.0784 9.4493L76.3915 6.02786L82.1943 6.0147L84 0.5Z" fill="#E6C039"/>
</svg>
