<svg width="18" height="19" viewBox="0 0 18 19" fill="none" xmlns="http://www.w3.org/2000/svg">
<g id="file-text">
<path id="Vector" d="M10.5 2.375V3.30002C10.5 4.42013 10.5 4.98018 10.718 5.408C10.9097 5.78433 11.2157 6.09029 11.592 6.28204C12.0198 6.50002 12.5799 6.50002 13.7 6.50002H14.625M6.75 9.5H11.25M6.75 12.5H9.75M15 7.73823V12.2C15 13.8802 15 14.7202 14.673 15.362C14.3854 15.9265 13.9265 16.3854 13.362 16.673C12.7202 17 11.8802 17 10.2 17H7.8C6.11984 17 5.27976 17 4.63803 16.673C4.07354 16.3854 3.6146 15.9265 3.32698 15.362C3 14.7202 3 13.8802 3 12.2V6.8C3 5.11984 3 4.27976 3.32698 3.63803C3.6146 3.07354 4.07354 2.6146 4.63803 2.32698C5.27976 2 6.11984 2 7.8 2H9.26178C9.99555 2 10.3624 2 10.7077 2.08289C11.0138 2.15638 11.3064 2.27759 11.5749 2.44208C11.8776 2.6276 12.137 2.88703 12.6559 3.40589L13.5941 4.34411C14.113 4.86297 14.3724 5.1224 14.5579 5.42515C14.7224 5.69356 14.8436 5.9862 14.9171 6.2923C15 6.63757 15 7.00445 15 7.73823Z" stroke="#58C58B" stroke-width="1.5" stroke-linecap="round" stroke-linejoin="round"/>
</g>
</svg>
