<svg width="8" height="6" viewBox="0 0 8 6" fill="none" xmlns="http://www.w3.org/2000/svg">
<g id="Text input">
<path id="path9429" d="M7.99986 1.08809C8.00246 0.973453 7.96819 0.860877 7.90175 0.766015C7.83531 0.671152 7.73999 0.598717 7.62912 0.55878C7.51826 0.518843 7.39734 0.513389 7.28313 0.543175C7.16892 0.572961 7.06717 0.636508 6.99193 0.724981L4.00916 4.10072L1.02744 0.724981C0.981051 0.66378 0.922152 0.612525 0.854382 0.574427C0.786611 0.536329 0.711436 0.512209 0.633605 0.503575C0.555775 0.494942 0.476961 0.501983 0.402067 0.524256C0.327173 0.546529 0.257806 0.583555 0.198355 0.633015C0.138903 0.682476 0.0906777 0.743305 0.0565963 0.811693C0.0225148 0.880082 0.00337265 0.954556 0.000352359 1.03045C-0.00266841 1.10635 0.0104623 1.18203 0.0390076 1.25276C0.067553 1.3235 0.110852 1.38775 0.166196 1.44151L3.57687 5.30642C3.63029 5.36712 3.69659 5.41585 3.77132 5.44927C3.84605 5.48269 3.92739 5.5 4.00969 5.5C4.09199 5.5 4.17332 5.48269 4.24805 5.44927C4.32278 5.41585 4.38916 5.36712 4.44258 5.30642L7.85653 1.44151C7.94597 1.34387 7.99682 1.21864 7.99999 1.08809L7.99986 1.08809Z" fill="white"/>
</g>
</svg>
