<svg width="80" height="16" viewBox="0 0 80 16" fill="none" xmlns="http://www.w3.org/2000/svg">
<path d="M6.96474 0.445637C3.47038 5.13764 0 7.31392 0 7.31392V14.1139C0 14.6662 0.44538 15.1139 0.997665 15.1139H12.1519C13.8864 15.1139 14.7828 10.3387 15.0998 7.17835C15.1576 6.60245 14.6989 6.11392 14.1201 6.11392H7.29114C8.11527 6.11392 8.70651 3.2393 8.99085 1.14544C9.06719 0.583218 8.64296 0.0844892 8.07668 0.0490967L7.84224 0.034444C7.49925 0.0130068 7.17001 0.170013 6.96474 0.445637Z" fill="#A2A1A7"/>
<path d="M47.1899 2.61401C47.1899 3.99473 46.0707 5.11401 44.6899 5.11401C43.3092 5.11401 42.1899 3.99473 42.1899 2.61401C42.1899 1.2333 43.3092 0.114014 44.6899 0.114014C46.0707 0.114014 47.1899 1.2333 47.1899 2.61401Z" fill="#A2A1A7"/>
<path d="M40.1899 7.61401C40.1899 8.99473 39.0707 10.114 37.6899 10.114C36.3092 10.114 35.1899 8.99473 35.1899 7.61401C35.1899 6.2333 36.3092 5.11401 37.6899 5.11401C39.0707 5.11401 40.1899 6.2333 40.1899 7.61401Z" fill="#A2A1A7"/>
<path d="M47.1899 12.614C47.1899 13.9947 46.0707 15.114 44.6899 15.114C43.3092 15.114 42.1899 13.9947 42.1899 12.614C42.1899 11.2333 43.3092 10.114 44.6899 10.114C46.0707 10.114 47.1899 11.2333 47.1899 12.614Z" fill="#A2A1A7"/>
<path d="M38.1899 6.61401L42.6899 3.11401L43.6899 4.11401L39.1899 7.61401L38.1899 6.61401Z" fill="#A2A1A7"/>
<path d="M43.6899 10.614L39.1899 7.11401L38.1899 8.11401L42.6899 11.614L43.6899 10.614Z" fill="#A2A1A7"/>
<path d="M67.1899 14.1666V1.11401C67.1899 0.561729 67.6377 0.114014 68.1899 0.114014H68.8251C68.9953 0.114014 69.1627 0.157467 69.3115 0.240259L77.5267 4.81317C78.2306 5.20503 78.2059 6.22591 77.4838 6.58321L69.6412 10.4636C69.3004 10.6323 69.0847 10.9797 69.0847 11.3599V14.1666C69.0847 14.6899 68.6605 15.114 68.1373 15.114C67.6141 15.114 67.1899 14.6899 67.1899 14.1666Z" fill="#A2A1A7"/>
</svg>
