<svg width="30" height="30" viewBox="0 0 30 30" fill="none" xmlns="http://www.w3.org/2000/svg">
<g clip-path="url(#clip0_1346_7879)">
<path d="M14.9998 9.28467C11.8478 9.28467 9.28369 11.8488 9.28369 15.0005C9.28369 18.1524 11.8478 20.7166 14.9998 20.7166C18.1515 20.7166 20.7156 18.1524 20.7156 15.0005C20.7156 11.8488 18.1515 9.28467 14.9998 9.28467ZM18.3934 13.9241L14.2985 18.019C14.1266 18.1909 13.9011 18.277 13.6759 18.277C13.4507 18.277 13.2255 18.1911 13.0536 18.019L11.4887 16.4541C11.145 16.1106 11.145 15.5533 11.4887 15.2095C11.8323 14.8657 12.3896 14.8657 12.7334 15.2095L13.6759 16.152L17.1487 12.6794C17.4923 12.3357 18.0496 12.3357 18.3934 12.6794C18.7372 13.023 18.7372 13.5803 18.3934 13.9241Z" fill="#4E43DF"/>
<path d="M27.7434 8.13976L27.7425 8.11641C27.7294 7.82825 27.7207 7.52338 27.7154 7.18418C27.691 5.53006 26.376 4.1618 24.7217 4.06934C21.2724 3.87685 18.6041 2.75212 16.3243 0.529917L16.3048 0.511378C15.5612 -0.170459 14.4394 -0.170459 13.6956 0.511378L13.6761 0.529917C11.3962 2.75212 8.72792 3.87685 5.27868 4.06956C3.62456 4.1618 2.30941 5.53006 2.28492 7.18441C2.27988 7.52132 2.27095 7.82619 2.25791 8.11641L2.25654 8.17066C2.18947 11.6879 2.10616 16.0652 3.57054 20.0384C4.37575 22.2233 5.59523 24.1225 7.19488 25.6837C9.01677 27.4617 11.4031 28.8732 14.2874 29.8789C14.3813 29.9116 14.4788 29.9382 14.5781 29.9581C14.7182 29.986 14.8592 30 15.0002 30C15.1412 30 15.2824 29.986 15.4222 29.9581C15.5216 29.9382 15.6198 29.9114 15.7141 29.8784C18.595 28.8709 20.9788 27.4587 22.7991 25.681C24.398 24.1193 25.6175 22.2196 26.4234 20.0343C27.8933 16.0492 27.8102 11.6636 27.7434 8.13976ZM14.9997 22.4769C10.8771 22.4769 7.52332 19.1231 7.52332 15.0005C7.52332 10.8779 10.8771 7.52407 14.9997 7.52407C19.1221 7.52407 22.4761 10.8779 22.4761 15.0005C22.4761 19.1231 19.1221 22.4769 14.9997 22.4769Z" fill="#4E43DF"/>
</g>
<defs>
<clipPath id="clip0_1346_7879">
<rect width="30" height="30" fill="white"/>
</clipPath>
</defs>
</svg>
