<svg width="40" height="40" viewBox="0 0 40 40" fill="none" xmlns="http://www.w3.org/2000/svg">
<g id="shield 1" clip-path="url(#clip0_2431_11620)">
<g id="Group">
<g id="Group_2">
<path id="Vector" d="M35.7975 9.17996L20.6817 0.187383C20.2616 -0.0624609 19.7384 -0.0624609 19.3183 0.187383L4.20248 9.17996C3.7985 9.42035 3.55084 9.85582 3.55084 10.3259V15.4593C3.55084 26.2713 9.79772 36.1464 19.5186 39.91C19.828 40.0299 20.1716 40.03 20.4814 39.91C30.1787 36.1558 36.449 26.3021 36.449 15.4593V10.3259C36.4491 9.85574 36.2015 9.42035 35.7975 9.17996ZM26.5872 17.0039L18.2306 25.3606C17.7099 25.8813 16.8657 25.8813 16.345 25.3606L13.4122 22.4279C12.8915 21.9072 12.8915 21.0629 13.4122 20.5422C13.9329 20.0216 14.7772 20.0216 15.2978 20.5422L17.2877 22.5321L24.7016 15.1182C25.2222 14.5976 26.0665 14.5976 26.5872 15.1182C27.108 15.639 27.108 16.4832 26.5872 17.0039Z" fill="url(#paint0_linear_2431_11620)"/>
</g>
</g>
</g>
<defs>
<linearGradient id="paint0_linear_2431_11620" x1="3.55084" y1="20" x2="36.449" y2="20" gradientUnits="userSpaceOnUse">
<stop stop-color="#4E43DF"/>
<stop offset="1" stop-color="#8A38DF"/>
</linearGradient>
<clipPath id="clip0_2431_11620">
<rect width="40" height="40" fill="white"/>
</clipPath>
</defs>
</svg>
