<svg width="145" height="38" viewBox="0 0 145 38" fill="none" xmlns="http://www.w3.org/2000/svg">
<path d="M10.2214 38C9.89605 38 9.59736 37.8797 9.38049 37.6392C9.13602 37.3987 9 37.0685 9 36.6772C9 36.3154 9.10939 35.9842 9.32627 35.7141L13.8826 30.4209C14.128 30.1498 14.4257 30 14.7786 30C15.104 30 15.4026 30.1203 15.6195 30.3608C15.864 30.6013 16 30.962 16 31.3228C16 31.6836 15.8906 32.0158 15.6737 32.2859L11.1165 37.5791C10.872 37.8502 10.5743 38 10.2214 38Z" fill="url(#paint0_linear_1702_10433)"/>
<path d="M1.45156 29.9989C1.06463 29.9989 0.709375 29.8389 0.418611 29.582C0.128978 29.3251 0 28.9397 0 28.5533C0 28.1679 0.160656 27.8141 0.418611 27.5256L5.51662 22.4169C5.77457 22.1285 6.1615 22 6.54957 22C6.9365 22 7.29062 22.16 7.58139 22.4169C7.87215 22.6738 8 23.0592 8 23.4456C8 23.831 7.83934 24.1837 7.58139 24.4733L2.48338 29.5831C2.22543 29.84 1.83849 29.9989 1.45156 29.9989Z" fill="url(#paint1_linear_1702_10433)"/>
<path d="M2.3281 38C1.97394 38 1.64963 37.8418 1.38401 37.5885C1.11839 37.3352 1 36.9558 1 36.5763C1 36.1969 1.11839 35.8495 1.38401 35.5642L10.7096 25.4104C10.9752 25.1261 11.2995 25 11.6537 25C12.0078 25 12.3332 25.1582 12.5978 25.4104C13.129 25.948 13.129 26.8651 12.6276 27.4348L3.30204 37.5885C3.04221 37.8533 2.69226 38.0013 2.3281 38Z" fill="url(#paint2_linear_1702_10433)"/>
<path d="M8.28042 17.4652C11.2613 14.7445 20.4691 7.07207 30.5244 6.00198C30.5914 5.99552 30.659 6.00493 30.7219 6.02948C30.7848 6.05402 30.8411 6.09303 30.8864 6.14342C30.9319 6.19381 30.9651 6.2542 30.9835 6.31982C31.0019 6.38545 31.0049 6.4545 30.9925 6.52153C30.6417 9.08933 28.6826 19.4824 20.0021 28.7445C19.9076 28.8453 19.7894 28.9201 19.6586 28.9619C19.5278 29.0037 19.3885 29.0113 19.2541 28.9837C19.1196 28.9561 18.9943 28.8944 18.8899 28.8043C18.7854 28.7142 18.7053 28.5987 18.6569 28.4687L16.6683 23.7008L14.1851 24.3722C14.0708 24.4005 13.9511 24.3975 13.8383 24.3635C13.7255 24.3294 13.6237 24.2656 13.5433 24.1785C13.463 24.0915 13.407 23.9842 13.381 23.868C13.3551 23.7517 13.3602 23.6306 13.3958 23.517L14.0678 21.102L8.51395 18.9019C7.95816 18.6871 7.81233 17.8928 8.2794 17.4652H8.28042Z" fill="url(#paint3_linear_1702_10433)"/>
<path d="M36.9478 27.0777L26.4806 27.2662C26.1112 27.2662 25.7717 27.4535 25.5569 27.7987C24.5097 29.5211 21.0006 35.1605 18.2595 37.6357C17.6139 38.2317 16.6279 38.075 16.166 37.3223C16.0915 37.1987 16.0199 37.0734 15.9512 36.9465C15.3046 35.4749 14.8127 34.5963 13.9502 33.093C13.2112 31.8088 11.7332 29.9911 10.8707 28.8954C9.82456 27.6102 7.60761 25.6051 6.46799 24.791C4.34449 23.2242 2.37351 22.3159 0.957844 21.8152C-0.0582575 21.4383 -0.335376 20.0917 0.464831 19.34C2.77415 17.1148 6.71503 13.4497 9.17795 12.1963C9.54744 12.0089 9.76226 11.6013 9.76226 11.1937L9.57751 1.13652C9.57751 0.322422 10.3788 -0.24184 11.1178 0.103281C13.3336 1.07406 17.4904 3.14161 19.861 5.83694C20.1381 6.1503 20.5699 6.27522 20.9694 6.1503C22.7546 5.61674 27.8351 4.17591 32.7609 3.89431C33.4376 3.86255 33.9918 4.42681 33.8995 5.116C33.6535 7.49796 33.008 12.6345 31.8984 16.019C31.776 16.3631 31.8372 16.7389 32.0832 17.0523C33.1605 18.4307 36.3323 22.6293 37.8403 25.4485C38.2721 26.1694 37.7791 27.0788 36.9488 27.0788L36.9478 27.0777Z" fill="url(#paint4_linear_1702_10433)"/>
<path d="M15.4995 24.0691L14.2123 24.4048C14.0979 24.4332 13.978 24.4302 13.8651 24.3961C13.7522 24.362 13.6502 24.2981 13.5698 24.2109C13.4895 24.1236 13.4335 24.0163 13.4076 23.8999C13.3818 23.7835 13.3871 23.6622 13.4229 23.5485L14.096 21.1345L8.5414 18.9333C7.95595 18.6885 7.8101 17.8941 8.27826 17.4665C11.2585 14.7447 20.4687 7.07201 30.5254 6.00188C30.5924 5.99559 30.6599 6.00513 30.7225 6.02975C30.7852 6.05438 30.8414 6.09341 30.8867 6.14378C30.932 6.19414 30.9652 6.25448 30.9835 6.32002C31.0019 6.38555 31.0049 6.45451 30.9925 6.52145C30.6416 9.08935 28.6833 19.4818 20.0005 28.7442C19.9062 28.845 19.788 28.9199 19.6572 28.9618C19.5264 29.0037 19.3872 29.0113 19.2528 28.9838C19.1184 28.9563 18.9929 28.8947 18.8885 28.8047C18.7839 28.7147 18.7036 28.5994 18.6552 28.4694L16.6673 23.7003L15.4985 24.068L15.4995 24.0691Z" fill="#FFFFFC"/>
<path d="M22.9995 17C24.6567 17 26 15.6573 26 14.0005C26 12.3427 24.6567 11 22.9995 11C21.3433 11 20 12.3427 20 14.0005C20 15.6573 21.3433 17 22.9995 17Z" fill="url(#paint5_linear_1702_10433)"/>
<path d="M49.9959 14.9987C49.1794 14.2154 48.2816 13.9917 47.2745 13.9917C45.9413 13.9645 45.0706 14.411 45.0706 15.2776C45.0977 16.1723 45.9955 16.5074 47.3295 16.6477C49.2344 16.8153 51.7381 17.2626 51.7102 20.002C51.6831 21.987 49.9959 23.3562 47.3016 23.3562C45.6144 23.3562 43.9272 22.965 42.5669 21.4001L43.7095 19.8344C44.6895 20.9239 46.1319 21.4001 47.3566 21.4001C48.3908 21.4001 49.5334 21.0089 49.5605 20.03C49.5876 19.0801 48.6898 18.7161 47.1661 18.5485C45.2061 18.3529 42.9751 17.71 42.948 15.3618C42.948 13.0137 45.3154 12.119 47.2474 12.119C48.8533 12.119 50.078 12.4821 51.2478 13.5452L49.9959 14.9987ZM56.2823 9.24013C56.2823 11.0848 53.588 11.0848 53.588 9.24013C53.588 7.45076 56.2823 7.45076 56.2823 9.24013ZM53.8607 12.3435V23.0211H56.0375V12.3427L53.8607 12.3435ZM62.2968 9.32432V12.3988H65.3172V14.3276H62.2697V19.3871C62.2697 20.5055 62.7593 21.1484 63.7663 21.1484C64.1746 21.1484 64.6641 21.0081 65.0995 20.7853L65.7254 22.6861C65.0182 23.0211 64.3923 23.1615 63.6571 23.1615C61.3981 23.2168 60.12 21.9036 60.12 19.4152V14.3557H58.133V12.4268H60.12V9.54717L62.2968 9.32432ZM69.1278 18.5205C69.3175 20.1423 70.6244 21.2045 72.5022 21.2045C73.5635 21.2045 74.8696 20.7853 75.4955 20.0581L76.9108 21.4554C75.8495 22.658 74.0531 23.2729 72.4472 23.2729C69.0465 23.2729 66.8689 21.0362 66.8689 17.6538C66.8689 14.411 69.0728 12.119 72.3116 12.119C75.659 12.119 77.9179 14.2154 77.5096 18.5485L69.1278 18.5205ZM75.4413 16.6477C75.3049 14.9706 74.1073 14.0759 72.3659 14.0759C70.7879 14.0759 69.481 14.9706 69.1541 16.6477H75.4413ZM81.8903 12.3427V24.279C81.8903 26.9631 80.9375 28.3604 78.6251 28.3604C77.8487 28.3631 77.0897 28.1291 76.4484 27.6894L77.2369 25.9289C77.6723 26.1517 78.1356 26.264 78.5701 26.264C79.6051 26.2359 79.7678 25.5088 79.7678 24.279V12.3427H81.8903ZM79.4688 9.21207C79.4688 11.0567 82.163 11.0567 82.163 9.21207C82.163 7.39546 79.4688 7.39546 79.4688 9.21207ZM93.157 12.3707H95.2525V23.022H93.1841L93.0757 21.2887C92.3948 22.6588 90.7897 23.3026 89.5107 23.3026C86.4895 23.3298 84.2043 21.3168 84.2043 17.6827C84.2043 14.1337 86.5716 12.1479 89.5649 12.1479C91.0345 12.1479 92.4498 12.847 93.1028 14.0767L93.157 12.3715V12.3707ZM86.3803 17.6819C86.3803 19.8906 87.9048 21.2326 89.7555 21.2326C94.2183 21.2326 94.2183 14.1882 89.7555 14.1882C87.8777 14.1882 86.3803 15.5021 86.3803 17.6819ZM100.368 7.92616V14.0198C101.049 12.7619 102.737 12.119 104.016 12.119C107.009 12.119 109.268 14.0478 109.268 17.6538C109.268 21.1765 106.982 23.1887 103.961 23.1887C102.573 23.1887 101.185 22.658 100.368 21.2879L100.233 22.965H98.1916V7.87004L100.368 7.92616ZM100.478 17.6819C100.478 19.7783 101.974 21.1484 103.798 21.1484C105.593 21.1484 107.063 19.8064 107.063 17.6819C107.063 15.5013 105.593 14.2154 103.798 14.2154C102.001 14.2435 100.478 15.6416 100.478 17.6819ZM113.731 7.92616V14.0198C114.411 12.7619 116.098 12.119 117.377 12.119C120.371 12.119 122.63 14.0478 122.63 17.6538C122.63 21.1765 120.344 23.1887 117.323 23.1887C115.935 23.1887 114.547 22.658 113.731 21.2879L113.594 22.965H111.554V7.87004L113.731 7.92616ZM113.84 17.6819C113.84 19.7783 115.336 21.1484 117.159 21.1484C118.956 21.1484 120.425 19.8064 120.425 17.6819C120.425 15.5013 118.956 14.2154 117.159 14.2154C115.364 14.2435 113.84 15.6416 113.84 17.6819ZM126.548 18.5205C126.739 20.1423 128.046 21.2045 129.923 21.2045C130.985 21.2045 132.291 20.7853 132.917 20.0581L134.331 21.4554C133.27 22.658 131.474 23.2729 129.868 23.2729C126.467 23.2729 124.29 21.0362 124.29 17.6538C124.29 14.411 126.494 12.119 129.733 12.119C133.08 12.119 135.338 14.2154 134.93 18.5485L126.548 18.5205ZM132.862 16.6477C132.726 14.9706 131.528 14.0759 129.787 14.0759C128.208 14.0759 126.902 14.9706 126.576 16.6477H132.862ZM139.176 12.3707L139.311 13.7689C140.074 12.3988 141.243 12.119 142.36 12.119C143.367 12.119 144.346 12.4821 144.918 13.0137L143.938 14.9425C143.421 14.5233 142.904 14.2996 142.115 14.2996C140.618 14.2996 139.311 15.2504 139.311 17.2065V22.965H137.135V12.3146L139.176 12.3707Z" fill="black"/>
<defs>
<linearGradient id="paint0_linear_1702_10433" x1="8.40264" y1="39.0487" x2="14.567" y2="33.2788" gradientUnits="userSpaceOnUse">
<stop offset="0.188" stop-color="#25E2EA"/>
<stop offset="1" stop-color="#19A6D1"/>
</linearGradient>
<linearGradient id="paint1_linear_1702_10433" x1="-1.13138" y1="31.45" x2="6.9246" y2="23.0163" gradientUnits="userSpaceOnUse">
<stop offset="0.396" stop-color="#E55EC4"/>
<stop offset="1" stop-color="#8225D0"/>
</linearGradient>
<linearGradient id="paint2_linear_1702_10433" x1="9.01907" y1="29.7327" x2="3.33911" y2="33.897" gradientUnits="userSpaceOnUse">
<stop stop-color="#A443FD"/>
<stop offset="1" stop-color="#A959F3"/>
</linearGradient>
<linearGradient id="paint3_linear_1702_10433" x1="7.30345" y1="31.8349" x2="64.5162" y2="-34.1154" gradientUnits="userSpaceOnUse">
<stop offset="0.102" stop-color="white" stop-opacity="0.7"/>
<stop offset="0.481" stop-color="white" stop-opacity="0"/>
</linearGradient>
<linearGradient id="paint4_linear_1702_10433" x1="36.8844" y1="2.29469" x2="8.82788" y2="25.5929" gradientUnits="userSpaceOnUse">
<stop offset="0.174" stop-color="#52BFCA"/>
<stop offset="0.916" stop-color="#7238DF"/>
</linearGradient>
<linearGradient id="paint5_linear_1702_10433" x1="32.9369" y1="2.24797" x2="11.7663" y2="27.2133" gradientUnits="userSpaceOnUse">
<stop stop-color="#52BFCA"/>
<stop offset="1" stop-color="#7238DF"/>
</linearGradient>
</defs>
</svg>
