<svg width="74" height="20" viewBox="0 0 74 20" fill="none" xmlns="http://www.w3.org/2000/svg">
<g id="Rating container">
<g id="Rating">
<path id="Vector" d="M5.23709 19.3934C5.07107 19.3934 4.91863 19.332 4.80795 19.2092C4.68319 19.0865 4.61377 18.918 4.61377 18.7183C4.61377 18.5336 4.6696 18.3646 4.78028 18.2268L7.1056 15.5253C7.23085 15.387 7.3828 15.3105 7.5629 15.3105C7.72893 15.3105 7.88136 15.3719 7.99204 15.4947C8.1168 15.6174 8.18622 15.8015 8.18622 15.9856C8.18622 16.1698 8.1304 16.3393 8.01971 16.4771L5.6939 19.1786C5.56914 19.3169 5.4172 19.3934 5.23709 19.3934Z" fill="#A29FCA"/>
<path id="Vector_2" d="M0.761313 15.3099C0.563842 15.3099 0.382538 15.2282 0.234146 15.0971C0.0863316 14.966 0.0205078 14.7694 0.0205078 14.5721C0.0205078 14.3755 0.102499 14.1949 0.234146 14.0477L2.83592 11.4404C2.96756 11.2932 3.16504 11.2277 3.36308 11.2277C3.56056 11.2277 3.74128 11.3093 3.88967 11.4404C4.03807 11.5716 4.10331 11.7682 4.10331 11.9654C4.10331 12.1621 4.02132 12.3421 3.88967 12.4899L1.2879 15.0977C1.15626 15.2288 0.958785 15.3099 0.761313 15.3099Z" fill="#A29FCA"/>
<path id="Vector_3" d="M1.20856 19.3933C1.02781 19.3933 0.862303 19.3126 0.726743 19.1833C0.591183 19.0541 0.530762 18.8604 0.530762 18.6668C0.530762 18.4731 0.591183 18.2959 0.726743 18.1502L5.48605 12.9683C5.62161 12.8232 5.78712 12.7588 5.96787 12.7588C6.14862 12.7588 6.31465 12.8395 6.44968 12.9683C6.7208 13.2426 6.7208 13.7106 6.46492 14.0014L1.70561 19.1833C1.573 19.3185 1.39441 19.394 1.20856 19.3933Z" fill="#A29FCA"/>
<path id="Vector_4" d="M4.24663 8.91339C5.76793 7.52489 10.4671 3.60927 15.5989 3.06314C15.6331 3.05985 15.6676 3.06465 15.6997 3.07718C15.7317 3.0897 15.7605 3.10961 15.7836 3.13533C15.8068 3.16105 15.8238 3.19186 15.8332 3.22535C15.8425 3.25885 15.8441 3.29409 15.8378 3.3283C15.6587 4.63878 14.6589 9.9429 10.2288 14.6698C10.1806 14.7212 10.1203 14.7594 10.0535 14.7808C9.98671 14.8021 9.91567 14.806 9.84707 14.7919C9.77843 14.7778 9.71446 14.7463 9.66117 14.7003C9.60787 14.6544 9.56696 14.5954 9.54229 14.5291L8.5274 12.0958L7.26008 12.4384C7.20174 12.4528 7.14064 12.4513 7.08308 12.434C7.02551 12.4166 6.97357 12.384 6.93256 12.3396C6.89155 12.2951 6.86298 12.2404 6.8497 12.1811C6.83648 12.1217 6.83909 12.0599 6.85725 12.0019L7.20023 10.7695L4.36581 9.64664C4.08216 9.537 4.00774 9.13163 4.24611 8.91339H4.24663Z" fill="url(#paint0_linear_1702_10510)"/>
<path id="Vector_5" d="M18.8768 13.8191L13.5349 13.9153C13.3464 13.9153 13.1731 14.0109 13.0635 14.1871C12.529 15.0661 10.7382 17.9442 9.33924 19.2074C9.00979 19.5116 8.50657 19.4316 8.27086 19.0475C8.23281 18.9844 8.19625 18.9204 8.16122 18.8557C7.83123 18.1047 7.58017 17.6562 7.13999 16.889C6.76285 16.2337 6.00857 15.306 5.56839 14.7468C5.03448 14.0909 3.90306 13.0676 3.32145 12.6521C2.23772 11.8525 1.23183 11.3889 0.509344 11.1334C-0.00922396 10.941 -0.150651 10.2538 0.257735 9.8702C1.4363 8.73453 3.44753 6.86406 4.70448 6.22437C4.89305 6.12874 5.00268 5.92073 5.00268 5.71272L4.9084 0.580026C4.9084 0.164548 5.31733 -0.123423 5.69447 0.0527094C6.82534 0.548149 8.94675 1.60332 10.1566 2.97889C10.298 3.13881 10.5183 3.20256 10.7223 3.13881C11.6333 2.86651 14.2262 2.13118 16.7401 1.98746C17.0854 1.97126 17.3683 2.25923 17.3211 2.61095C17.1956 3.82659 16.8661 6.44805 16.2999 8.17533C16.2374 8.35092 16.2686 8.54273 16.3942 8.70265C16.944 9.4061 18.5627 11.5489 19.3324 12.9876C19.5527 13.3556 19.3011 13.8197 18.8774 13.8197L18.8768 13.8191Z" fill="#A29FCA"/>
<path id="Vector_6" d="M7.93088 12.2837L7.27397 12.455C7.21557 12.4695 7.1544 12.468 7.09678 12.4506C7.03916 12.4332 6.98711 12.4006 6.94609 12.3561C6.90507 12.3115 6.87649 12.2568 6.86327 12.1974C6.8501 12.1379 6.85281 12.0761 6.87108 12.018L7.21463 10.786L4.37982 9.66265C4.08104 9.53771 4.0066 9.13232 4.24552 8.91408C5.76651 7.525 10.4669 3.60923 15.5993 3.06309C15.6335 3.05988 15.668 3.06475 15.7 3.07732C15.732 3.08988 15.7607 3.10981 15.7838 3.13551C15.8069 3.16121 15.8238 3.19201 15.8332 3.22545C15.8425 3.2589 15.8441 3.29409 15.8378 3.32826C15.6587 4.63878 14.6593 9.94257 10.228 14.6696C10.1798 14.7211 10.1195 14.7593 10.0528 14.7807C9.98604 14.8021 9.91499 14.806 9.84638 14.7919C9.77778 14.7779 9.71375 14.7464 9.66045 14.7005C9.6071 14.6546 9.56613 14.5957 9.54141 14.5294L8.52689 12.0955L7.93036 12.2832L7.93088 12.2837Z" fill="#FFFFFC"/>
<path id="Vector_7" d="M11.7583 8.676C12.6041 8.676 13.2896 7.99074 13.2896 7.1452C13.2896 6.29915 12.6041 5.61389 11.7583 5.61389C10.9131 5.61389 10.2275 6.29915 10.2275 7.1452C10.2275 7.99074 10.9131 8.676 11.7583 8.676Z" fill="#A29FCA"/>
</g>
<path id="Vector_8" d="M25.536 7.65463C25.1193 7.25489 24.6611 7.14074 24.1472 7.14074C23.4668 7.12684 23.0224 7.35472 23.0224 7.797C23.0362 8.25361 23.4944 8.42462 24.1752 8.49623C25.1474 8.58174 26.4252 8.81004 26.4109 10.2081C26.3971 11.2211 25.536 11.9199 24.161 11.9199C23.2999 11.9199 22.4389 11.7203 21.7446 10.9216L22.3278 10.1226C22.8279 10.6786 23.564 10.9216 24.1891 10.9216C24.7169 10.9216 25.3 10.722 25.3138 10.2224C25.3277 9.73757 24.8695 9.55181 24.0918 9.4663C23.0916 9.36648 21.953 9.03834 21.9391 7.83996C21.9391 6.64159 23.1473 6.18498 24.1333 6.18498C24.9529 6.18498 25.5779 6.37032 26.1749 6.91285L25.536 7.65463ZM28.7443 4.71576C28.7443 5.65719 27.3693 5.65719 27.3693 4.71576C27.3693 3.80255 28.7443 3.80255 28.7443 4.71576ZM27.5084 6.29955V11.7489H28.6194V6.29913L27.5084 6.29955ZM31.8138 4.75872V6.32778H33.3553V7.31217H31.8V9.89427C31.8 10.465 32.0498 10.7932 32.5638 10.7932C32.7721 10.7932 33.022 10.7215 33.2442 10.6078L33.5636 11.5779C33.2027 11.7489 32.8832 11.8205 32.508 11.8205C31.3552 11.8487 30.7029 11.1786 30.7029 9.90859V7.3265H29.6888V6.3421H30.7029V4.87245L31.8138 4.75872ZM35.3 9.45198C35.3968 10.2797 36.0638 10.8218 37.0221 10.8218C37.5638 10.8218 38.2303 10.6078 38.5498 10.2367L39.2721 10.9499C38.7305 11.5636 37.8136 11.8774 36.9941 11.8774C35.2585 11.8774 34.1472 10.7359 34.1472 9.0097C34.1472 7.35472 35.2719 6.18498 36.9249 6.18498C38.6332 6.18498 39.786 7.25489 39.5777 9.4663L35.3 9.45198ZM38.5221 8.49623C38.4525 7.64031 37.8413 7.1837 36.9526 7.1837C36.1472 7.1837 35.4803 7.64031 35.3134 8.49623H38.5221ZM41.8134 6.29913V12.3909C41.8134 13.7607 41.3271 14.4738 40.147 14.4738C39.7507 14.4752 39.3634 14.3558 39.0361 14.1313L39.4385 13.2329C39.6607 13.3466 39.8971 13.4039 40.1189 13.4039C40.6471 13.3896 40.7301 13.0185 40.7301 12.3909V6.29913H41.8134ZM40.5775 4.70144C40.5775 5.64287 41.9525 5.64287 41.9525 4.70144C41.9525 3.77433 40.5775 3.77433 40.5775 4.70144ZM47.5633 6.31345H48.6328V11.7493H47.5772L47.5218 10.8648C47.1743 11.564 46.3552 11.8925 45.7024 11.8925C44.1606 11.9064 42.9943 10.8791 42.9943 9.02444C42.9943 7.21319 44.2025 6.19973 45.7301 6.19973C46.4801 6.19973 47.2024 6.5565 47.5357 7.18412L47.5633 6.31388V6.31345ZM44.1048 9.02402C44.1048 10.1512 44.8829 10.8361 45.8274 10.8361C48.105 10.8361 48.105 7.24099 45.8274 7.24099C44.869 7.24099 44.1048 7.91157 44.1048 9.02402ZM51.2437 4.04517V7.15506C51.5912 6.51311 52.4523 6.18498 53.105 6.18498C54.6326 6.18498 55.7854 7.16938 55.7854 9.0097C55.7854 10.8075 54.6188 11.8344 53.0773 11.8344C52.3688 11.8344 51.6604 11.5636 51.2437 10.8643L51.1745 11.7203H50.1327V4.01653L51.2437 4.04517ZM51.2994 9.02402C51.2994 10.0939 52.0632 10.7932 52.9939 10.7932C53.9103 10.7932 54.6603 10.1082 54.6603 9.02402C54.6603 7.91115 53.9103 7.25489 52.9939 7.25489C52.0771 7.26921 51.2994 7.98276 51.2994 9.02402ZM58.063 4.04517V7.15506C58.4102 6.51311 59.2712 6.18498 59.9239 6.18498C61.452 6.18498 62.6048 7.16938 62.6048 9.0097C62.6048 10.8075 61.4382 11.8344 59.8963 11.8344C59.1882 11.8344 58.4797 11.5636 58.063 10.8643L57.9935 11.7203H56.9521V4.01653L58.063 4.04517ZM58.1188 9.02402C58.1188 10.0939 58.8826 10.7932 59.8129 10.7932C60.7297 10.7932 61.4797 10.1082 61.4797 9.02402C61.4797 7.91115 60.7297 7.25489 59.8129 7.25489C58.8965 7.26921 58.1188 7.98276 58.1188 9.02402ZM64.6045 9.45198C64.7018 10.2797 65.3687 10.8218 66.3267 10.8218C66.8687 10.8218 67.5352 10.6078 67.8547 10.2367L68.5766 10.9499C68.035 11.5636 67.1185 11.8774 66.299 11.8774C64.563 11.8774 63.4521 10.7359 63.4521 9.0097C63.4521 7.35472 64.5768 6.18498 66.2298 6.18498C67.9381 6.18498 69.0905 7.25489 68.8822 9.4663L64.6045 9.45198ZM67.8266 8.49623C67.7574 7.64031 67.1462 7.1837 66.2575 7.1837C65.4517 7.1837 64.7852 7.64031 64.6188 8.49623H67.8266ZM71.0491 6.31345L71.1183 7.02701C71.5073 6.32778 72.1043 6.18498 72.674 6.18498C73.188 6.18498 73.6877 6.37032 73.9794 6.64159L73.4793 7.62598C73.2156 7.412 72.9515 7.29785 72.5491 7.29785C71.7849 7.29785 71.1183 7.7831 71.1183 8.7814V11.7203H70.0074V6.28481L71.0491 6.31345Z" fill="#A29FCA"/>
</g>
<defs>
<linearGradient id="paint0_linear_1702_10510" x1="3.74803" y1="16.247" x2="32.9466" y2="-17.4108" gradientUnits="userSpaceOnUse">
<stop offset="0.102" stop-color="white" stop-opacity="0.7"/>
<stop offset="0.481" stop-color="white" stop-opacity="0"/>
</linearGradient>
</defs>
</svg>
