<svg width="99" height="23" viewBox="0 0 99 23" fill="none" xmlns="http://www.w3.org/2000/svg">
<path d="M21.7327 16.1136L15.9177 16.2239C15.7217 16.2239 15.5257 16.3343 15.395 16.511C14.807 17.4604 12.9775 20.11 11.344 21.9647C10.9956 22.2959 10.4293 22.2075 10.1898 21.788C10.1462 21.6997 10.0809 21.6114 10.0809 21.5893C9.73239 20.7723 8.66523 16.0473 8.18605 15.4512C7.59808 14.7446 2.54528 13.464 1.76123 13.1991C1.19498 13.0003 1.04252 12.2496 1.4781 11.8301C2.76308 10.5937 4.8321 8.84939 6.31306 7.85581C6.50909 7.7454 6.63975 7.52458 6.63975 7.30376L6.55266 1.69559C6.55266 1.25399 6.98824 0.922801 7.40201 1.12152C8.64343 1.65143 10.8649 3.06452 12.2588 4.30098C12.4112 4.47761 12.6508 4.54384 12.8686 4.47761C13.8705 4.19058 16.6799 3.37364 19.4241 3.21908C19.7944 3.197 20.0993 3.50612 20.0557 3.90355C19.9251 5.22834 19.5548 8.07657 18.945 9.95337C18.8797 10.1521 18.9014 10.3508 19.0539 10.5274C19.6419 11.3002 21.0358 13.2432 22.2554 15.1862C22.4732 15.6057 22.2118 16.1136 21.7327 16.1136Z" fill="white"/>
<path d="M15.1336 9.20266C15.1336 9.93126 14.5456 10.5495 13.8269 10.5495C13.1082 10.5495 12.5202 9.95337 12.5202 9.20266C12.5202 8.474 13.1082 7.85581 13.8269 7.85581C14.5456 7.85581 15.1336 8.474 15.1336 9.20266ZM21.7327 16.1136L15.9177 16.2239C15.7217 16.2239 15.5256 16.3343 15.395 16.511C14.807 17.4604 12.9775 20.11 11.344 21.9647C10.9956 22.2959 10.4293 22.2075 10.1898 21.788C10.1462 21.6997 10.0809 21.6114 10.0809 21.5893C9.73239 20.7723 8.66523 16.0473 8.18605 15.4512C7.59808 14.7446 2.54528 13.464 1.76123 13.1991C1.19498 13.0003 1.04252 12.2496 1.4781 11.8301C2.76308 10.5937 4.8321 8.84939 6.31306 7.85581C6.50909 7.7454 6.63975 7.52458 6.63975 7.30376L6.55266 1.69559C6.55266 1.25399 6.98824 0.922801 7.40201 1.12152C8.64343 1.65143 10.8649 3.06452 12.2588 4.30098C12.4112 4.47761 12.6508 4.54384 12.8686 4.47761C13.8705 4.19058 16.6799 3.37364 19.4241 3.21908C19.7944 3.197 20.0993 3.50612 20.0557 3.90355C19.9251 5.22834 19.5548 8.07657 18.945 9.95337C18.8797 10.1521 18.9014 10.3508 19.0539 10.5274C19.6419 11.3002 21.0358 13.2432 22.2554 15.1862C22.4732 15.6057 22.2118 16.1136 21.7327 16.1136ZM18.3134 5.18417C18.357 5.02961 18.2045 4.87504 18.0303 4.89714C12.1499 5.51537 6.77045 9.86507 5.0281 11.4327C4.74497 11.6755 4.8321 12.1392 5.18056 12.2717C5.18056 12.2717 8.92654 12.8899 9.81955 13.6628C10.4729 14.2368 11.1045 17.6812 11.1045 17.6812C11.2352 18.0124 11.649 18.0786 11.8886 17.8358C16.963 12.5588 18.1174 6.64143 18.3134 5.18417Z" fill="url(#paint0_linear_89_6705)"/>
<path d="M8.21164 19.5919C8.15799 19.402 8.07748 19.212 7.99696 19.001L5.68954 20.9214C5.52854 21.0692 5.44806 21.2591 5.44806 21.4491C5.44806 21.6601 5.5554 21.8501 5.74321 21.9767C5.90417 22.1033 6.14566 22.1666 6.38713 22.1666C6.65541 22.1666 6.89695 22.0822 7.08476 21.9345L8.61405 20.6682C8.47996 20.3727 8.3458 20.0139 8.21164 19.5919Z" fill="url(#paint1_linear_89_6705)"/>
<path d="M7.28014 16.1998C7.11777 16.086 6.79305 15.9721 6.42192 15.8354L1.45838 20.8002C1.29602 20.9596 1.22644 21.1646 1.22644 21.3696C1.22644 21.5745 1.29602 21.8023 1.45838 21.9389C1.62074 22.0755 1.82949 22.1667 2.03824 22.1667C2.24698 22.1667 2.45573 22.0983 2.64129 21.9389L7.55842 17.0197C7.46566 16.6781 7.3729 16.3821 7.28014 16.1998Z" fill="url(#paint2_linear_89_6705)"/>
<path d="M2.83931 14.7803L1.42556 15.9314C1.30609 16.0433 1.22644 16.1872 1.22644 16.3311C1.22644 16.475 1.28617 16.6349 1.42556 16.7308C1.56494 16.8267 1.74415 16.8907 1.92336 16.8907C2.10256 16.8907 2.30168 16.8267 2.42115 16.7308L4.39243 15.132C3.83489 15.0201 3.27737 14.8922 2.83931 14.7803Z" fill="url(#paint3_linear_89_6705)"/>
<path d="M8.21164 19.5919C8.15799 19.402 8.07748 19.212 7.99696 19.001L5.68954 20.9214C5.52854 21.0692 5.44806 21.2591 5.44806 21.4491C5.44806 21.6601 5.5554 21.8501 5.74321 21.9767C5.90417 22.1033 6.14566 22.1666 6.38713 22.1666C6.65541 22.1666 6.89695 22.0822 7.08476 21.9345L8.61405 20.6682C8.47996 20.3727 8.3458 20.0139 8.21164 19.5919Z" fill="url(#paint4_linear_89_6705)" stroke="url(#paint5_linear_89_6705)" stroke-width="0.468484"/>
<path d="M2.83931 14.7803L1.42556 15.9314C1.30609 16.0433 1.22644 16.1872 1.22644 16.3311C1.22644 16.475 1.28617 16.6349 1.42556 16.7308C1.56494 16.8267 1.74415 16.8907 1.92336 16.8907C2.10256 16.8907 2.30168 16.8267 2.42115 16.7308L4.39243 15.132C3.83489 15.0201 3.27737 14.8922 2.83931 14.7803Z" stroke="url(#paint6_linear_89_6705)" stroke-width="0.468484"/>
<path d="M7.28014 16.1998C7.11777 16.086 6.79305 15.9721 6.42192 15.8354L1.45838 20.8002C1.29602 20.9596 1.22644 21.1646 1.22644 21.3696C1.22644 21.5745 1.29602 21.8023 1.45838 21.9389C1.62074 22.0755 1.82949 22.1667 2.03824 22.1667C2.24698 22.1667 2.45573 22.0983 2.64129 21.9389L7.55842 17.0197C7.46566 16.6781 7.3729 16.3821 7.28014 16.1998Z" stroke="url(#paint7_linear_89_6705)" stroke-opacity="0.5" stroke-width="0.468484"/>
<g filter="url(#filter0_ii_89_6705)">
<path d="M21.7263 15.8373L15.8489 15.9473C15.6508 15.9473 15.4526 16.0573 15.3205 16.2334C14.7262 17.1799 12.8772 19.8211 11.2261 21.67C10.874 22.0001 10.3016 21.9121 10.0595 21.4938C10.0155 21.4058 9.94942 21.3178 9.94942 21.2958C9.59721 20.4814 8.5186 15.7712 8.03428 15.1769C7.44 14.4726 2.33299 13.196 1.54053 12.9319C0.968197 12.7338 0.814106 11.9855 1.25436 11.5672C2.55312 10.3347 4.64435 8.5959 6.1412 7.60545C6.33933 7.49539 6.47139 7.27526 6.47139 7.05519L6.38336 1.46459C6.38336 1.02439 6.82362 0.694236 7.24182 0.892329C8.49656 1.42058 10.7419 2.82922 12.1507 4.06179C12.3048 4.23787 12.5469 4.30389 12.7671 4.23787C13.7797 3.95174 16.6193 3.13736 19.3929 2.98329C19.7672 2.96129 20.0753 3.26943 20.0313 3.66561C19.8992 4.98624 19.525 7.82552 18.9086 9.69641C18.8426 9.8945 18.8646 10.0926 19.0187 10.2686C19.6131 11.039 21.0219 12.9759 22.2546 14.9128C22.4747 15.331 22.2105 15.8373 21.7263 15.8373Z" stroke="url(#paint8_linear_89_6705)" stroke-width="0.468484"/>
</g>
<path d="M34.3175 9.48102C33.7698 8.97223 33.1673 8.82687 32.4918 8.82687C31.5972 8.8087 31.0129 9.09946 31.0129 9.66276C31.0312 10.2442 31.6337 10.4623 32.5283 10.5532C33.8063 10.6622 35.486 10.9529 35.4677 12.7337C35.4495 14.0239 34.3175 14.9143 32.5101 14.9143C31.3781 14.9143 30.2461 14.6599 29.3333 13.6423L30.1001 12.6247C30.7573 13.3334 31.725 13.6423 32.5466 13.6423C33.2403 13.6423 34.0072 13.3879 34.0254 12.7519C34.0437 12.134 33.4412 11.8978 32.4188 11.7888C31.1042 11.6616 29.6071 11.2436 29.5889 9.71727C29.5889 8.19084 31.1772 7.60938 32.4735 7.60938C33.5507 7.60938 34.3723 7.84563 35.1574 8.53611L34.3175 9.48102Z" fill="black"/>
<path d="M38.5342 5.73748C38.5342 6.93678 36.7268 6.93678 36.7268 5.73748C36.7268 4.57449 38.5342 4.57449 38.5342 5.73748ZM36.9092 7.75451V14.696H38.3698V7.75451H36.9092Z" fill="black"/>
<path d="M42.5696 5.79199V7.79087H44.5964V9.0447H42.5515V12.3337C42.5515 13.0606 42.8799 13.4785 43.5556 13.4785C43.8295 13.4785 44.1582 13.3877 44.4501 13.2423L44.87 14.4779C44.3953 14.696 43.9754 14.7869 43.4824 14.7869C41.967 14.8232 41.1089 13.9692 41.1089 12.3519V9.06287H39.7762V7.80904H41.1089V5.93736L42.5696 5.79199Z" fill="black"/>
<path d="M47.1534 11.7707C47.2811 12.8246 48.1575 13.5151 49.4174 13.5151C50.1292 13.5151 51.0056 13.2425 51.4255 12.7701L52.3751 13.6786C51.663 14.46 50.4579 14.8598 49.3807 14.8598C47.0987 14.8598 45.6381 13.4061 45.6381 11.2073C45.6381 9.09946 47.1168 7.60938 49.2895 7.60938C51.5351 7.60938 53.0505 8.97223 52.7766 11.7888L47.1534 11.7707ZM51.3891 10.5532C51.2979 9.46285 50.4946 8.88138 49.3259 8.88138C48.267 8.88138 47.3906 9.46285 47.1715 10.5532H51.3891Z" fill="black"/>
<path d="M55.7166 7.75459V15.5137C55.7166 17.2583 55.0776 18.1668 53.5255 18.1668C53.0327 18.1668 52.5398 18.0396 52.0651 17.7307L52.5945 16.5859C52.8865 16.7312 53.1971 16.8039 53.489 16.8039C54.1828 16.7858 54.2923 16.3133 54.2923 15.5137V7.75459H55.7166ZM54.0916 5.71935C54.0916 6.9187 55.899 6.9187 55.899 5.71935C55.899 4.53821 54.0916 4.53821 54.0916 5.71935Z" fill="black"/>
<path d="M63.2748 7.77236H64.6807C64.6807 10.0801 64.6807 12.3879 64.6807 14.6956H63.2929L63.2197 13.569C62.7632 14.4594 61.6864 14.8774 60.8281 14.8774C58.8016 14.8955 57.2681 13.5872 57.2681 11.2249C57.2681 8.91713 58.8564 7.62695 60.8648 7.62695C61.8504 7.62695 62.7999 8.08124 63.2382 8.88079L63.2748 7.77236ZM58.7285 11.2249C58.7285 12.6605 59.7508 13.5327 60.9922 13.5327C63.9865 13.5327 63.9865 8.95347 60.9922 8.95347C59.7328 8.95347 58.7285 9.80753 58.7285 11.2249Z" fill="black"/>
<path d="M68.1144 4.88302V8.84441C68.5708 8.02669 69.7023 7.60874 70.5605 7.60874C72.5693 7.60874 74.0845 8.86258 74.0845 11.2067C74.0845 13.4963 72.5507 14.8047 70.5244 14.8047C69.593 14.8047 68.6621 14.4594 68.1144 13.569L68.0231 14.6593H66.6539V4.84668L68.1144 4.88302ZM68.1877 11.2248C68.1877 12.5877 69.1918 13.4781 70.4146 13.4781C71.6198 13.4781 72.6054 12.6059 72.6054 11.2248C72.6054 9.80754 71.6198 8.97165 70.4146 8.97165C69.2098 8.98982 68.1877 9.89838 68.1877 11.2248Z" fill="black"/>
<path d="M77.0776 4.88302V8.84441C77.534 8.02669 78.6661 7.60874 79.5242 7.60874C81.5325 7.60874 83.0477 8.86258 83.0477 11.2067C83.0477 13.4963 81.5139 14.8047 79.4876 14.8047C78.5562 14.8047 77.6253 14.4594 77.0776 13.569L76.9863 14.6593H75.6171V4.84668L77.0776 4.88302ZM77.1503 11.2248C77.1503 12.5877 78.1545 13.4781 79.3783 13.4781C80.583 13.4781 81.5686 12.6059 81.5686 11.2248C81.5686 9.80754 80.583 8.97165 79.3783 8.97165C78.173 8.98982 77.1503 9.89838 77.1503 11.2248Z" fill="black"/>
<path d="M85.6768 11.7707C85.8047 12.8246 86.6814 13.5151 87.9408 13.5151C88.6531 13.5151 89.5293 13.2425 89.9491 12.7701L90.8986 13.6786C90.1863 14.46 88.9816 14.8598 87.9042 14.8598C85.6221 14.8598 84.1616 13.4061 84.1616 11.2073C84.1616 9.09946 85.6407 7.60938 87.8129 7.60938C90.059 7.60938 91.5742 8.97223 91.3003 11.7888L85.6768 11.7707ZM89.9125 10.5532C89.8212 9.46285 89.0182 8.88138 87.8496 8.88138C86.7908 8.88138 85.9145 9.46285 85.6953 10.5532H89.9125Z" fill="black"/>
<path d="M94.1485 7.7729L94.2392 8.68147C94.7503 7.79107 95.5358 7.60938 96.2841 7.60938C96.9597 7.60938 97.6168 7.84563 98.0005 8.19084L97.3429 9.44468C96.9963 9.17214 96.6493 9.02673 96.1201 9.02673C95.116 9.02673 94.2392 9.64459 94.2392 10.9166V14.6599H92.7787V7.73656L94.1485 7.7729Z" fill="black"/>
<defs>
<filter id="filter0_ii_89_6705" x="0.76593" y="0.597656" width="21.8001" height="21.6015" filterUnits="userSpaceOnUse" color-interpolation-filters="sRGB">
<feFlood flood-opacity="0" result="BackgroundImageFix"/>
<feBlend mode="normal" in="SourceGraphic" in2="BackgroundImageFix" result="shape"/>
<feColorMatrix in="SourceAlpha" type="matrix" values="0 0 0 0 0 0 0 0 0 0 0 0 0 0 0 0 0 0 127 0" result="hardAlpha"/>
<feOffset dy="0.0936968"/>
<feGaussianBlur stdDeviation="0.0468484"/>
<feComposite in2="hardAlpha" operator="arithmetic" k2="-1" k3="1"/>
<feColorMatrix type="matrix" values="0 0 0 0 1 0 0 0 0 1 0 0 0 0 1 0 0 0 0.8 0"/>
<feBlend mode="normal" in2="shape" result="effect1_innerShadow_89_6705"/>
<feColorMatrix in="SourceAlpha" type="matrix" values="0 0 0 0 0 0 0 0 0 0 0 0 0 0 0 0 0 0 127 0" result="hardAlpha"/>
<feOffset dy="0.0468484"/>
<feGaussianBlur stdDeviation="0.0468484"/>
<feComposite in2="hardAlpha" operator="arithmetic" k2="-1" k3="1"/>
<feColorMatrix type="matrix" values="0 0 0 0 0.441667 0 0 0 0 0.441667 0 0 0 0 0.441667 0 0 0 0.4 0"/>
<feBlend mode="normal" in2="effect1_innerShadow_89_6705" result="effect2_innerShadow_89_6705"/>
</filter>
<linearGradient id="paint0_linear_89_6705" x1="19.1794" y1="3.78376" x2="6.16671" y2="16.6193" gradientUnits="userSpaceOnUse">
<stop offset="0.1745" stop-color="#52BFCA"/>
<stop offset="0.9163" stop-color="#7238DF"/>
</linearGradient>
<linearGradient id="paint1_linear_89_6705" x1="3.37632" y1="23.689" x2="8.13521" y2="17.7418" gradientUnits="userSpaceOnUse">
<stop offset="0.1875" stop-color="#25E2EA"/>
<stop offset="1" stop-color="#19A6D1"/>
</linearGradient>
<linearGradient id="paint2_linear_89_6705" x1="-2.96103" y1="26.1423" x2="8.78173" y2="14.3864" gradientUnits="userSpaceOnUse">
<stop stop-color="#A443FD"/>
<stop offset="1" stop-color="#A959F3"/>
</linearGradient>
<linearGradient id="paint3_linear_89_6705" x1="-0.458824" y1="18.2072" x2="3.54474" y2="13.306" gradientUnits="userSpaceOnUse">
<stop offset="0.3958" stop-color="#E55EC4"/>
<stop offset="1" stop-color="#8225D0"/>
</linearGradient>
<linearGradient id="paint4_linear_89_6705" x1="3.37632" y1="23.689" x2="8.13521" y2="17.7418" gradientUnits="userSpaceOnUse">
<stop offset="0.1875" stop-color="#25E2EA"/>
<stop offset="1" stop-color="#19A6D1"/>
</linearGradient>
<linearGradient id="paint5_linear_89_6705" x1="5.44806" y1="22.3196" x2="7.23724" y2="19.9603" gradientUnits="userSpaceOnUse">
<stop/>
<stop offset="0.0001" stop-color="#E4FCFF"/>
<stop offset="1" stop-color="#E4FCFF" stop-opacity="0"/>
</linearGradient>
<linearGradient id="paint6_linear_89_6705" x1="1.22644" y1="16.8329" x2="3.01932" y2="14.5513" gradientUnits="userSpaceOnUse">
<stop stop-color="#FFF5FE"/>
<stop offset="0.769332" stop-color="#FFF5FE" stop-opacity="0"/>
</linearGradient>
<linearGradient id="paint7_linear_89_6705" x1="1.48462" y1="21.9658" x2="7.12779" y2="16.0875" gradientUnits="userSpaceOnUse">
<stop stop-color="#F6EDFE"/>
<stop offset="0.850896" stop-color="#A851F8" stop-opacity="0"/>
</linearGradient>
<linearGradient id="paint8_linear_89_6705" x1="20.1642" y1="2.8429" x2="6.0506" y2="17.6515" gradientUnits="userSpaceOnUse">
<stop offset="0.00924772" stop-color="#2D9FAB"/>
<stop offset="0.0885417" stop-color="#2D9FAB" stop-opacity="0.823892"/>
<stop offset="0.171875" stop-color="#2D9FAB" stop-opacity="0.8"/>
<stop offset="0.302083" stop-color="#2D9FAB" stop-opacity="0.8"/>
<stop offset="1" stop-color="white" stop-opacity="0.5"/>
</linearGradient>
</defs>
</svg>
