<svg width="168" height="38" viewBox="0 0 168 38" fill="none" xmlns="http://www.w3.org/2000/svg"><g clip-path="url(#clip0_1_2)"><path d="M9.754 37.28C9.412 37.28 9.098 37.162 8.87 36.926C8.613 36.69 8.47 36.366 8.47 35.982C8.47 35.627 8.585 35.302 8.813 35.037L13.603 29.843C13.861 29.577 14.174 29.43 14.545 29.43C14.887 29.43 15.201 29.548 15.429 29.784C15.686 30.02 15.829 30.374 15.829 30.728C15.829 31.082 15.714 31.408 15.486 31.673L10.695 36.867C10.438 37.133 10.125 37.28 9.754 37.28V37.28Z" fill="#757575"/><path d="M1.822 29.492C1.48 29.492 1.166 29.345 0.909001 29.109C0.653001 28.873 0.539001 28.519 0.539001 28.164C0.539001 27.81 0.681001 27.485 0.909001 27.22L5.415 22.527C5.643 22.262 5.985 22.144 6.328 22.144C6.67 22.144 6.983 22.291 7.24 22.527C7.497 22.763 7.61 23.117 7.61 23.472C7.61 23.826 7.468 24.15 7.24 24.416L2.734 29.11C2.506 29.346 2.164 29.493 1.822 29.493V29.492Z" fill="#757575"/><path d="M2.27199 37.206C1.92799 37.206 1.61299 37.058 1.35499 36.821C1.09699 36.584 0.981995 36.229 0.981995 35.874C0.981995 35.519 1.09699 35.194 1.35499 34.927L10.413 25.427C10.671 25.161 10.986 25.043 11.33 25.043C11.674 25.043 11.99 25.191 12.247 25.427C12.763 25.93 12.763 26.788 12.276 27.321L3.21799 36.821C2.96561 37.0688 2.6257 37.2072 2.27199 37.206V37.206Z" fill="#757575"/><path d="M7.74699 17.822C10.67 15.188 19.699 7.76 29.559 6.724C29.6247 6.71774 29.691 6.72685 29.7527 6.75062C29.8143 6.77438 29.8695 6.81215 29.914 6.86093C29.9586 6.90972 29.9911 6.96818 30.0092 7.03172C30.0272 7.09525 30.0302 7.1621 30.018 7.227C29.674 9.713 27.753 19.775 19.241 28.742C19.1484 28.8396 19.0325 28.912 18.9042 28.9525C18.7759 28.993 18.6394 29.0003 18.5076 28.9736C18.3757 28.9469 18.2528 28.8871 18.1504 28.7999C18.048 28.7127 17.9694 28.6009 17.922 28.475L15.972 23.859L13.537 24.509C13.4249 24.5364 13.3075 24.5335 13.1969 24.5006C13.0863 24.4676 12.9865 24.4058 12.9077 24.3215C12.8289 24.2372 12.774 24.1334 12.7485 24.0209C12.7231 23.9083 12.7281 23.791 12.763 23.681L13.422 21.343L7.97599 19.213C7.43099 19.005 7.28799 18.236 7.74599 17.822H7.74699Z" fill="#757575"/><path d="M34.977 26.552L25.232 26.73C24.888 26.73 24.572 26.907 24.372 27.233C23.397 28.86 20.13 34.187 17.578 36.525C16.977 37.088 16.059 36.94 15.629 36.229C15.5596 36.1123 15.4929 35.9939 15.429 35.874C14.827 34.484 14.369 33.654 13.566 32.234C12.878 31.021 11.502 29.304 10.699 28.269C9.72501 27.055 7.66101 25.161 6.60001 24.392C4.62301 22.912 2.78801 22.054 1.47001 21.581C0.524009 21.225 0.266009 19.953 1.01101 19.243C3.16101 17.141 6.83001 13.679 9.12301 12.495C9.46701 12.318 9.66701 11.933 9.66701 11.548L9.49501 2.048C9.49501 1.279 10.241 0.746 10.929 1.072C12.992 1.989 16.862 3.942 19.069 6.488C19.327 6.784 19.729 6.902 20.101 6.784C21.763 6.28 26.493 4.919 31.079 4.653C31.709 4.623 32.225 5.156 32.139 5.807C31.91 8.057 31.309 12.909 30.276 16.106C30.162 16.431 30.219 16.786 30.448 17.082C31.451 18.384 34.404 22.35 35.808 25.013C36.21 25.694 35.751 26.553 34.978 26.553L34.977 26.552Z" fill="#757575"/><path d="M14.798 24.185L13.536 24.51C13.4238 24.5375 13.3063 24.5346 13.1956 24.5016C13.0849 24.4686 12.9849 24.4067 12.9061 24.3223C12.8273 24.2378 12.7724 24.1339 12.747 24.0212C12.7217 23.9085 12.7269 23.7911 12.762 23.681L13.422 21.344L7.97601 19.213C7.40201 18.976 7.25901 18.207 7.71801 17.793C10.64 15.158 19.67 7.73 29.53 6.694C29.5957 6.68791 29.6619 6.69714 29.7233 6.72098C29.7848 6.74482 29.8399 6.78261 29.8843 6.83137C29.9287 6.88013 29.9612 6.93854 29.9792 7.00198C29.9972 7.06543 30.0002 7.13219 29.988 7.197C29.644 9.683 27.724 19.744 19.211 28.711C19.1185 28.8086 19.0026 28.8811 18.8744 28.9217C18.7462 28.9622 18.6097 28.9696 18.4779 28.943C18.3461 28.9164 18.2231 28.8567 18.1207 28.7696C18.0182 28.6825 17.9395 28.5708 17.892 28.445L15.943 23.828L14.797 24.184L14.798 24.185Z" fill="#FFFFFC"/><path d="M22.307 17.2C23.922 17.2 25.231 15.849 25.231 14.182C25.231 12.514 23.922 11.163 22.307 11.163C20.693 11.163 19.384 12.514 19.384 14.182C19.384 15.849 20.693 17.2 22.307 17.2V17.2Z" fill="#757575"/><path d="M52.343 15.749C51.349 14.8 50.256 14.529 49.03 14.529C47.407 14.496 46.347 15.037 46.347 16.087C46.38 17.171 47.473 17.577 49.097 17.747C51.416 17.95 54.464 18.492 54.43 21.811C54.397 24.216 52.343 25.875 49.063 25.875C47.009 25.875 44.955 25.401 43.299 23.505L44.69 21.608C45.883 22.928 47.639 23.505 49.13 23.505C50.389 23.505 51.78 23.031 51.813 21.845C51.846 20.694 50.753 20.253 48.898 20.05C46.512 19.813 43.796 19.034 43.763 16.189C43.763 13.344 46.645 12.26 48.997 12.26C50.952 12.26 52.443 12.7 53.867 13.988L52.343 15.748V15.749ZM59.996 8.772C59.996 11.007 56.716 11.007 56.716 8.772C56.716 6.604 59.996 6.604 59.996 8.772ZM57.048 12.532V25.469H59.698V12.531H57.048V12.532ZM67.318 8.874V12.599H70.995V14.936H67.285V21.066C67.285 22.421 67.881 23.2 69.107 23.2C69.604 23.2 70.2 23.03 70.73 22.76L71.492 25.063C70.631 25.469 69.869 25.639 68.974 25.639C66.224 25.706 64.668 24.115 64.668 21.1V14.97H62.249V12.633H64.668V9.144L67.318 8.874V8.874ZM75.634 20.016C75.865 21.981 77.456 23.268 79.742 23.268C81.034 23.268 82.624 22.76 83.386 21.879L85.109 23.572C83.817 25.029 81.63 25.774 79.675 25.774C75.535 25.774 72.884 23.064 72.884 18.966C72.884 15.037 75.567 12.26 79.51 12.26C83.585 12.26 86.335 14.8 85.838 20.05L75.634 20.016V20.016ZM83.32 17.747C83.154 15.715 81.696 14.631 79.576 14.631C77.655 14.631 76.064 15.715 75.666 17.747H83.32ZM91.171 12.531V26.993C91.171 30.245 90.011 31.938 87.196 31.938C86.2508 31.9413 85.3268 31.6578 84.546 31.125L85.506 28.992C86.036 29.262 86.6 29.398 87.129 29.398C88.389 29.364 88.587 28.483 88.587 26.993V12.531H91.171ZM88.223 8.738C88.223 10.973 91.503 10.973 91.503 8.738C91.503 6.537 88.223 6.537 88.223 8.738ZM104.887 12.565H107.438V25.47H104.92L104.788 23.37C103.959 25.03 102.005 25.81 100.448 25.81C96.77 25.843 93.988 23.404 93.988 19.001C93.988 14.701 96.87 12.295 100.514 12.295C102.303 12.295 104.026 13.142 104.821 14.632L104.887 12.566V12.565ZM96.637 19C96.637 21.676 98.493 23.302 100.746 23.302C106.179 23.302 106.179 14.767 100.746 14.767C98.46 14.767 96.638 16.359 96.638 19H96.637ZM113.666 7.18V14.563C114.495 13.039 116.549 12.26 118.106 12.26C121.75 12.26 124.5 14.597 124.5 18.966C124.5 23.234 121.717 25.672 118.04 25.672C116.35 25.672 114.66 25.029 113.666 23.369L113.501 25.401H111.016V7.112L113.666 7.18V7.18ZM113.799 19C113.799 21.54 115.621 23.2 117.841 23.2C120.027 23.2 121.816 21.574 121.816 19C121.816 16.358 120.027 14.8 117.841 14.8C115.654 14.834 113.799 16.528 113.799 19ZM129.933 7.18V14.563C130.761 13.039 132.815 12.26 134.372 12.26C138.017 12.26 140.767 14.597 140.767 18.966C140.767 23.234 137.984 25.672 134.306 25.672C132.617 25.672 130.927 25.029 129.933 23.369L129.767 25.401H127.283V7.112L129.933 7.18ZM130.066 19C130.066 21.54 131.888 23.2 134.107 23.2C136.294 23.2 138.083 21.574 138.083 19C138.083 16.358 136.294 14.8 134.107 14.8C131.921 14.834 130.066 16.528 130.066 19ZM145.537 20.016C145.769 21.981 147.36 23.268 149.645 23.268C150.938 23.268 152.528 22.76 153.29 21.879L155.012 23.572C153.72 25.029 151.534 25.774 149.579 25.774C145.438 25.774 142.788 23.064 142.788 18.966C142.788 15.037 145.471 12.26 149.414 12.26C153.489 12.26 156.238 14.8 155.741 20.05L145.537 20.016V20.016ZM153.223 17.747C153.058 15.715 151.6 14.631 149.48 14.631C147.558 14.631 145.968 15.715 145.571 17.747H153.223ZM160.91 12.565L161.075 14.259C162.003 12.599 163.427 12.26 164.786 12.26C166.012 12.26 167.204 12.7 167.9 13.344L166.707 15.681C166.078 15.173 165.448 14.902 164.488 14.902C162.665 14.902 161.075 16.054 161.075 18.424V25.401H158.425V12.497L160.91 12.565Z" fill="#757575"/></g></svg>