<svg width="113" height="26" viewBox="0 0 113 26" fill="none" xmlns="http://www.w3.org/2000/svg">
<path d="M24.6945 18.2725L18.0488 18.3986C17.8248 18.3986 17.6008 18.5248 17.4514 18.7267C16.7794 19.8118 14.6886 22.8398 12.8217 24.9595C12.4236 25.338 11.7764 25.2371 11.5026 24.7576C11.4528 24.6567 11.3781 24.5557 11.3781 24.5305C10.9799 23.5968 9.76027 18.1968 9.21263 17.5155C8.54066 16.708 2.76604 15.2445 1.86998 14.9416C1.22283 14.7145 1.04859 13.8566 1.5464 13.3771C3.01494 11.9641 5.37955 9.97059 7.07207 8.83507C7.2961 8.70889 7.44543 8.45652 7.44543 8.20416L7.34589 1.79482C7.34589 1.29014 7.8437 0.911633 8.31658 1.13874C9.73535 1.74435 12.2742 3.35931 13.8672 4.77241C14.0414 4.97428 14.3152 5.04996 14.5641 4.97428C15.7091 4.64624 18.9199 3.71259 22.0562 3.53595C22.4793 3.51072 22.8277 3.86399 22.778 4.3182C22.6286 5.83225 22.2055 9.08737 21.5085 11.2323C21.4339 11.4594 21.4587 11.6865 21.633 11.8883C22.305 12.7715 23.898 14.9921 25.2919 17.2127C25.5408 17.6921 25.2421 18.2725 24.6945 18.2725Z" fill="white"/>
<path d="M17.1527 10.3743C17.1527 11.207 16.4807 11.9136 15.6593 11.9136C14.8379 11.9136 14.1659 11.2323 14.1659 10.3743C14.1659 9.54158 14.8379 8.83507 15.6593 8.83507C16.4807 8.83507 17.1527 9.54158 17.1527 10.3743ZM24.6945 18.2725L18.0488 18.3986C17.8248 18.3986 17.6007 18.5248 17.4514 18.7267C16.7794 19.8118 14.6886 22.8398 12.8217 24.9595C12.4236 25.338 11.7764 25.2371 11.5026 24.7576C11.4528 24.6567 11.3781 24.5557 11.3781 24.5305C10.9799 23.5968 9.76027 18.1968 9.21263 17.5155C8.54066 16.708 2.76604 15.2445 1.86998 14.9416C1.22283 14.7145 1.04859 13.8566 1.5464 13.3771C3.01494 11.9641 5.37955 9.97059 7.07207 8.83507C7.2961 8.70889 7.44543 8.45652 7.44543 8.20416L7.34589 1.79482C7.34589 1.29014 7.8437 0.911633 8.31658 1.13874C9.73535 1.74435 12.2742 3.35931 13.8672 4.77241C14.0414 4.97428 14.3152 5.04996 14.5641 4.97428C15.7091 4.64624 18.9199 3.71259 22.0562 3.53595C22.4793 3.51072 22.8277 3.86399 22.778 4.3182C22.6286 5.83225 22.2055 9.08737 21.5085 11.2323C21.4339 11.4594 21.4587 11.6865 21.633 11.8883C22.305 12.7715 23.898 14.9921 25.2919 17.2127C25.5408 17.6921 25.2421 18.2725 24.6945 18.2725ZM20.7867 5.78177C20.8365 5.60512 20.6623 5.42848 20.4632 5.45374C13.7427 6.16028 7.5948 11.1314 5.60354 12.9229C5.27997 13.2005 5.37955 13.7304 5.77778 13.8819C5.77778 13.8819 10.0589 14.5884 11.0795 15.4716C11.8261 16.1276 12.548 20.0641 12.548 20.0641C12.6973 20.4426 13.1703 20.5183 13.4441 20.2407C19.2435 14.2099 20.5627 7.44721 20.7867 5.78177Z" fill="url(#paint0_linear_3137_14636)"/>
<path d="M9.24138 22.2476C9.18007 22.0305 9.08805 21.8135 8.99604 21.5723L6.35899 23.7671C6.17499 23.9359 6.08301 24.153 6.08301 24.3701C6.08301 24.6112 6.20568 24.8284 6.42032 24.973C6.60428 25.1177 6.88026 25.1901 7.15624 25.1901C7.46284 25.1901 7.73888 25.0936 7.95353 24.9248L9.70128 23.4776C9.54804 23.14 9.39471 22.7299 9.24138 22.2476Z" fill="url(#paint1_linear_3137_14636)"/>
<path d="M8.1773 18.371C7.99174 18.2409 7.62063 18.1108 7.19649 17.9546L1.52387 23.6286C1.33831 23.8108 1.25879 24.045 1.25879 24.2793C1.25879 24.5135 1.33831 24.7738 1.52387 24.93C1.70942 25.0861 1.94799 25.1903 2.18656 25.1903C2.42513 25.1903 2.66369 25.1122 2.87576 24.93L8.49534 19.308C8.38933 18.9176 8.28331 18.5793 8.1773 18.371Z" fill="url(#paint2_linear_3137_14636)"/>
<path d="M3.10207 16.749L1.48636 18.0646C1.34981 18.1925 1.25879 18.357 1.25879 18.5214C1.25879 18.6858 1.32706 18.8686 1.48636 18.9782C1.64565 19.0878 1.85045 19.1609 2.05527 19.1609C2.26007 19.1609 2.48764 19.0878 2.62418 18.9782L4.87706 17.151C4.23987 17.0231 3.60271 16.8769 3.10207 16.749Z" fill="url(#paint3_linear_3137_14636)"/>
<path d="M9.24138 22.2476C9.18007 22.0305 9.08805 21.8135 8.99604 21.5723L6.35899 23.7671C6.17499 23.9359 6.08301 24.153 6.08301 24.3701C6.08301 24.6112 6.20568 24.8284 6.42032 24.973C6.60428 25.1177 6.88026 25.1901 7.15624 25.1901C7.46284 25.1901 7.73888 25.0936 7.95353 24.9248L9.70128 23.4776C9.54804 23.14 9.39471 22.7299 9.24138 22.2476Z" fill="url(#paint4_linear_3137_14636)" stroke="url(#paint5_linear_3137_14636)" stroke-width="0.53541"/>
<path d="M3.10207 16.749L1.48636 18.0646C1.34981 18.1925 1.25879 18.357 1.25879 18.5214C1.25879 18.6858 1.32706 18.8686 1.48636 18.9782C1.64565 19.0878 1.85045 19.1609 2.05527 19.1609C2.26007 19.1609 2.48764 19.0878 2.62418 18.9782L4.87706 17.151C4.23987 17.0231 3.60271 16.8769 3.10207 16.749Z" stroke="url(#paint6_linear_3137_14636)" stroke-width="0.53541"/>
<path d="M8.1773 18.371C7.99174 18.2409 7.62063 18.1108 7.19649 17.9546L1.52387 23.6286C1.33831 23.8108 1.25879 24.045 1.25879 24.2793C1.25879 24.5135 1.33831 24.7738 1.52387 24.93C1.70942 25.0861 1.94799 25.1903 2.18656 25.1903C2.42513 25.1903 2.66369 25.1122 2.87576 24.93L8.49534 19.308C8.38933 18.9176 8.28331 18.5793 8.1773 18.371Z" stroke="url(#paint7_linear_3137_14636)" stroke-opacity="0.5" stroke-width="0.53541"/>
<g filter="url(#filter0_ii_3137_14636)">
<path d="M24.6872 17.9567L17.9701 18.0824C17.7437 18.0824 17.5173 18.2082 17.3663 18.4095C16.6871 19.4912 14.5739 22.5097 12.687 24.6227C12.2846 25 11.6304 24.8994 11.3537 24.4214C11.3034 24.3208 11.2279 24.2202 11.2279 24.195C10.8254 23.2643 9.59269 17.8812 9.03918 17.2021C8.36 16.3971 2.52342 14.9382 1.61775 14.6363C0.963654 14.4099 0.787549 13.5547 1.2907 13.0767C2.775 11.6681 5.16497 9.68089 6.87565 8.54895C7.10209 8.42316 7.25302 8.17159 7.25302 7.92008L7.15241 1.53083C7.15241 1.02773 7.65556 0.650416 8.13351 0.876808C9.5675 1.48052 12.1336 3.0904 13.7437 4.49905C13.9198 4.70029 14.1965 4.77574 14.4481 4.70029C15.6054 4.37328 18.8506 3.44256 22.0205 3.26648C22.4482 3.24133 22.8004 3.59349 22.7501 4.04628C22.5991 5.55556 22.1714 8.80045 21.467 10.9386C21.3916 11.165 21.4167 11.3914 21.5928 11.5926C22.2721 12.473 23.8821 14.6866 25.2909 16.9002C25.5425 17.3782 25.2406 17.9567 24.6872 17.9567Z" stroke="url(#paint8_linear_3137_14636)" stroke-width="0.53541"/>
</g>
<path d="M39.0772 10.6922C38.4512 10.1108 37.7626 9.94465 36.9906 9.94465C35.9682 9.92388 35.3005 10.2562 35.3005 10.9C35.3214 11.5645 36.0099 11.8137 37.0324 11.9176C38.4929 12.0421 40.4125 12.3744 40.3917 14.4096C40.3708 15.8841 39.0772 16.9017 37.0115 16.9017C35.7178 16.9017 34.4242 16.6109 33.3809 15.448L34.2572 14.285C35.0084 15.0949 36.1143 15.448 37.0532 15.448C37.8461 15.448 38.7225 15.1572 38.7433 14.4304C38.7642 13.7243 38.0756 13.4543 36.9072 13.3297C35.4048 13.1844 33.6938 12.7067 33.673 10.9622C33.673 9.21776 35.4883 8.55322 36.9698 8.55322C38.2008 8.55322 39.1398 8.82323 40.037 9.61235L39.0772 10.6922Z" fill="white"/>
<path d="M43.8957 6.41384C43.8957 7.78448 41.8301 7.78448 41.8301 6.41384C41.8301 5.08471 43.8957 5.08471 43.8957 6.41384ZM42.0385 8.71902V16.6522H43.7078V8.71902H42.0385Z" fill="white"/>
<path d="M48.5078 6.47607V8.7605H50.8242V10.1935H48.4872V13.9523C48.4872 14.783 48.8625 15.2607 49.6347 15.2607C49.9477 15.2607 50.3233 15.1569 50.657 14.9907L51.1368 16.4029C50.5943 16.6521 50.1145 16.7559 49.5511 16.7559C47.8192 16.7975 46.8385 15.8214 46.8385 13.9731V10.2142H45.3154V8.78127H46.8385V6.64221L48.5078 6.47607Z" fill="white"/>
<path d="M53.7465 13.309C53.8924 14.5135 54.894 15.3026 56.3339 15.3026C57.1474 15.3026 58.149 14.9911 58.6289 14.4512L59.7141 15.4895C58.9003 16.3825 57.523 16.8394 56.2919 16.8394C53.6839 16.8394 52.0146 15.1781 52.0146 12.6651C52.0146 10.2562 53.7046 8.55322 56.1877 8.55322C58.7541 8.55322 60.486 10.1108 60.173 13.3297L53.7465 13.309ZM58.5872 11.9176C58.483 10.6715 57.565 10.0069 56.2293 10.0069C55.0192 10.0069 54.0176 10.6715 53.7672 11.9176H58.5872Z" fill="white"/>
<path d="M63.5334 8.71925V17.5869C63.5334 19.5806 62.8031 20.619 61.0293 20.619C60.4662 20.619 59.9028 20.4736 59.3604 20.1205L59.9654 18.8122C60.299 18.9783 60.654 19.0613 60.9876 19.0613C61.7805 19.0406 61.9057 18.5006 61.9057 17.5869V8.71925H63.5334ZM61.6763 6.39326C61.6763 7.76394 63.7419 7.76394 63.7419 6.39326C63.7419 5.04339 61.6763 5.04339 61.6763 6.39326Z" fill="white"/>
<path d="M72.1715 8.73991H73.7782C73.7782 11.3773 73.7782 14.0148 73.7782 16.6522H72.1921L72.1084 15.3647C71.5868 16.3823 70.3561 16.8599 69.3751 16.8599C67.0592 16.8807 65.3066 15.3854 65.3066 12.6857C65.3066 10.0482 67.1218 8.57373 69.4172 8.57373C70.5435 8.57373 71.6286 9.09291 72.1296 10.0067L72.1715 8.73991ZM66.9756 12.6857C66.9756 14.3263 68.144 15.3232 69.5627 15.3232C72.9848 15.3232 72.9848 10.0897 69.5627 10.0897C68.1234 10.0897 66.9756 11.0658 66.9756 12.6857Z" fill="white"/>
<path d="M77.7014 5.43753V9.96483C78.223 9.03029 79.5162 8.55264 80.497 8.55264C82.7927 8.55264 84.5244 9.98559 84.5244 12.6646C84.5244 15.2813 82.7715 16.7765 80.4557 16.7765C79.3912 16.7765 78.3274 16.382 77.7014 15.3644L77.5971 16.6104H76.0322V5.396L77.7014 5.43753ZM77.7851 12.6853C77.7851 14.2429 78.9327 15.2605 80.3302 15.2605C81.7076 15.2605 82.834 14.2637 82.834 12.6853C82.834 11.0655 81.7076 10.1102 80.3302 10.1102C78.9533 10.131 77.7851 11.1694 77.7851 12.6853Z" fill="white"/>
<path d="M87.9456 5.43753V9.96483C88.4672 9.03029 89.7609 8.55264 90.7417 8.55264C93.0369 8.55264 94.7685 9.98559 94.7685 12.6646C94.7685 15.2813 93.0156 16.7765 90.6999 16.7765C89.6354 16.7765 88.5715 16.382 87.9456 15.3644L87.8412 16.6104H86.2764V5.396L87.9456 5.43753ZM88.0287 12.6853C88.0287 14.2429 89.1762 15.2605 90.5749 15.2605C91.9518 15.2605 93.0781 14.2637 93.0781 12.6853C93.0781 11.0655 91.9518 10.1102 90.5749 10.1102C89.1975 10.131 88.0287 11.1694 88.0287 12.6853Z" fill="white"/>
<path d="M97.7727 13.309C97.9189 14.5135 98.9209 15.3026 100.36 15.3026C101.174 15.3026 102.176 14.9911 102.655 14.4512L103.74 15.4895C102.926 16.3825 101.55 16.8394 100.318 16.8394C97.7102 16.8394 96.041 15.1781 96.041 12.6651C96.041 10.2562 97.7314 8.55322 100.214 8.55322C102.781 8.55322 104.513 10.1108 104.2 13.3297L97.7727 13.309ZM102.613 11.9176C102.509 10.6715 101.591 10.0069 100.256 10.0069C99.0458 10.0069 98.0444 10.6715 97.7939 11.9176H102.613Z" fill="white"/>
<path d="M107.455 8.74011L107.559 9.77847C108.143 8.76087 109.041 8.55322 109.896 8.55322C110.668 8.55322 111.419 8.82323 111.857 9.21776L111.106 10.6507C110.71 10.3392 110.313 10.1731 109.708 10.1731C108.561 10.1731 107.559 10.8792 107.559 12.3329V16.611H105.89V8.69858L107.455 8.74011Z" fill="white"/>
<defs>
<filter id="filter0_ii_3137_14636" x="0.732422" y="0.539551" width="24.9141" height="24.6881" filterUnits="userSpaceOnUse" color-interpolation-filters="sRGB">
<feFlood flood-opacity="0" result="BackgroundImageFix"/>
<feBlend mode="normal" in="SourceGraphic" in2="BackgroundImageFix" result="shape"/>
<feColorMatrix in="SourceAlpha" type="matrix" values="0 0 0 0 0 0 0 0 0 0 0 0 0 0 0 0 0 0 127 0" result="hardAlpha"/>
<feOffset dy="0.107082"/>
<feGaussianBlur stdDeviation="0.053541"/>
<feComposite in2="hardAlpha" operator="arithmetic" k2="-1" k3="1"/>
<feColorMatrix type="matrix" values="0 0 0 0 1 0 0 0 0 1 0 0 0 0 1 0 0 0 0.8 0"/>
<feBlend mode="normal" in2="shape" result="effect1_innerShadow_3137_14636"/>
<feColorMatrix in="SourceAlpha" type="matrix" values="0 0 0 0 0 0 0 0 0 0 0 0 0 0 0 0 0 0 127 0" result="hardAlpha"/>
<feOffset dy="0.053541"/>
<feGaussianBlur stdDeviation="0.053541"/>
<feComposite in2="hardAlpha" operator="arithmetic" k2="-1" k3="1"/>
<feColorMatrix type="matrix" values="0 0 0 0 0.441667 0 0 0 0 0.441667 0 0 0 0 0.441667 0 0 0 0.4 0"/>
<feBlend mode="normal" in2="effect1_innerShadow_3137_14636" result="effect2_innerShadow_3137_14636"/>
</filter>
<linearGradient id="paint0_linear_3137_14636" x1="21.7764" y1="4.1813" x2="6.90481" y2="18.8505" gradientUnits="userSpaceOnUse">
<stop offset="0.1745" stop-color="#52BFCA"/>
<stop offset="0.9163" stop-color="#7238DF"/>
</linearGradient>
<linearGradient id="paint1_linear_3137_14636" x1="3.7153" y1="26.93" x2="9.15404" y2="20.1333" gradientUnits="userSpaceOnUse">
<stop offset="0.1875" stop-color="#25E2EA"/>
<stop offset="1" stop-color="#19A6D1"/>
</linearGradient>
<linearGradient id="paint2_linear_3137_14636" x1="-3.52689" y1="29.7338" x2="9.8934" y2="16.2986" gradientUnits="userSpaceOnUse">
<stop stop-color="#A443FD"/>
<stop offset="1" stop-color="#A959F3"/>
</linearGradient>
<linearGradient id="paint3_linear_3137_14636" x1="-0.667228" y1="20.6656" x2="3.90827" y2="15.0641" gradientUnits="userSpaceOnUse">
<stop offset="0.3958" stop-color="#E55EC4"/>
<stop offset="1" stop-color="#8225D0"/>
</linearGradient>
<linearGradient id="paint4_linear_3137_14636" x1="3.7153" y1="26.93" x2="9.15404" y2="20.1333" gradientUnits="userSpaceOnUse">
<stop offset="0.1875" stop-color="#25E2EA"/>
<stop offset="1" stop-color="#19A6D1"/>
</linearGradient>
<linearGradient id="paint5_linear_3137_14636" x1="6.08301" y1="25.3649" x2="8.12779" y2="22.6686" gradientUnits="userSpaceOnUse">
<stop/>
<stop offset="0.0001" stop-color="#E4FCFF"/>
<stop offset="1" stop-color="#E4FCFF" stop-opacity="0"/>
</linearGradient>
<linearGradient id="paint6_linear_3137_14636" x1="1.25879" y1="19.0949" x2="3.3078" y2="16.4873" gradientUnits="userSpaceOnUse">
<stop stop-color="#FFF5FE"/>
<stop offset="0.769332" stop-color="#FFF5FE" stop-opacity="0"/>
</linearGradient>
<linearGradient id="paint7_linear_3137_14636" x1="1.55386" y1="24.9607" x2="8.00319" y2="18.2426" gradientUnits="userSpaceOnUse">
<stop stop-color="#F6EDFE"/>
<stop offset="0.850896" stop-color="#A851F8" stop-opacity="0"/>
</linearGradient>
<linearGradient id="paint8_linear_3137_14636" x1="22.9019" y1="3.10603" x2="6.77212" y2="20.0302" gradientUnits="userSpaceOnUse">
<stop offset="0.00924772" stop-color="#2D9FAB"/>
<stop offset="0.0885417" stop-color="#2D9FAB" stop-opacity="0.823892"/>
<stop offset="0.171875" stop-color="#2D9FAB" stop-opacity="0.8"/>
<stop offset="0.302083" stop-color="#2D9FAB" stop-opacity="0.8"/>
<stop offset="1" stop-color="white" stop-opacity="0.5"/>
</linearGradient>
</defs>
</svg>
