<svg width="38" height="38" viewBox="0 0 38 38" fill="none" xmlns="http://www.w3.org/2000/svg">
<g clip-path="url(#clip0_0_3)">
<path d="M36.6511 25.3049L26.433 25.4861C26.0886 25.4861 25.7442 25.6674 25.5145 25.9575C24.4813 27.5165 21.2666 31.8672 18.3962 34.9127C17.784 35.4565 16.7889 35.3115 16.368 34.6226C16.2915 34.4776 16.1766 34.3326 16.1766 34.2963C15.5643 32.9548 13.6891 25.1961 12.8471 24.2172C11.8139 23.057 2.93518 20.9542 1.55746 20.5191C0.562431 20.1928 0.294538 18.9601 1.05994 18.2712C3.31788 16.2409 6.95355 13.3767 9.55588 11.7452C9.90034 11.5639 10.1299 11.2013 10.1299 10.8387L9.97688 1.62977C9.97688 0.904653 10.7423 0.360817 11.4694 0.687121C13.6508 1.55726 17.5543 3.87763 20.0036 5.90796C20.2715 6.198 20.6925 6.30675 21.0752 6.198C22.8357 5.72668 27.7724 4.38522 32.5945 4.13143C33.2452 4.09518 33.7808 4.60275 33.7043 5.25536C33.4747 7.43073 32.8241 12.1077 31.7525 15.1895C31.6378 15.5158 31.676 15.8421 31.9439 16.1321C32.9771 17.4011 35.4265 20.5916 37.5696 23.7821C37.9523 24.471 37.493 25.3049 36.6511 25.3049Z" fill="white"/>
<path d="M25.0552 13.9568C25.0552 15.1532 24.022 16.1684 22.759 16.1684C21.4962 16.1684 20.4629 15.1895 20.4629 13.9568C20.4629 12.7603 21.4962 11.7452 22.759 11.7452C24.022 11.7452 25.0552 12.7603 25.0552 13.9568ZM36.6511 25.3049L26.433 25.4861C26.0886 25.4861 25.7441 25.6674 25.5145 25.9575C24.4813 27.5165 21.2666 31.8672 18.3962 34.9127C17.784 35.4565 16.7889 35.3115 16.368 34.6226C16.2915 34.4776 16.1766 34.3326 16.1766 34.2963C15.5643 32.9548 13.6891 25.1961 12.8471 24.2172C11.8139 23.057 2.93518 20.9542 1.55746 20.5191C0.562431 20.1928 0.294538 18.9601 1.05994 18.2712C3.31788 16.2409 6.95355 13.3767 9.55588 11.7452C9.90034 11.5639 10.1299 11.2013 10.1299 10.8387L9.97688 1.62977C9.97688 0.904653 10.7423 0.360817 11.4694 0.687121C13.6508 1.55726 17.5543 3.87763 20.0036 5.90796C20.2715 6.198 20.6925 6.30675 21.0752 6.198C22.8357 5.72668 27.7724 4.38522 32.5945 4.13143C33.2452 4.09518 33.7808 4.60275 33.7043 5.25536C33.4747 7.43073 32.8241 12.1077 31.7525 15.1895C31.6378 15.5158 31.676 15.8421 31.9439 16.1321C32.9771 17.4011 35.4265 20.5916 37.5696 23.7821C37.9523 24.471 37.493 25.3049 36.6511 25.3049ZM30.6427 7.35821C30.7193 7.1044 30.4514 6.8506 30.1452 6.88689C19.8123 7.90205 10.3596 15.0445 7.29795 17.6186C6.80044 18.0174 6.95355 18.7788 7.56586 18.9964C7.56586 18.9964 14.1482 20.0115 15.7174 21.2805C16.8655 22.2231 17.9754 27.879 17.9754 27.879C18.205 28.4229 18.9321 28.5316 19.3531 28.1328C28.2699 19.4677 30.2982 9.7511 30.6427 7.35821Z" fill="url(#paint0_linear_0_3)"/>
<path d="M13.1533 30.9245C13.0768 30.5982 12.9619 30.2719 12.8471 29.9093L9.5557 33.2087C9.32604 33.4625 9.21124 33.7888 9.21124 34.1152C9.21124 34.4777 9.36435 34.8041 9.63225 35.0216C9.86185 35.2391 10.2063 35.3479 10.5508 35.3479C10.9334 35.3479 11.278 35.2029 11.5459 34.9491L13.7273 32.7736C13.536 32.266 13.3447 31.6496 13.1533 30.9245Z" fill="url(#paint1_linear_0_3)"/>
<path d="M11.3546 25.3773C11.0867 25.196 10.5509 25.0148 9.93857 24.7972L1.74879 32.701C1.4809 32.9548 1.36609 33.2811 1.36609 33.6074C1.36609 33.9337 1.4809 34.2963 1.74879 34.5138C2.01668 34.7313 2.36111 34.8764 2.70555 34.8764C3.04997 34.8764 3.3944 34.7676 3.70057 34.5138L11.8138 26.6825C11.6607 26.1387 11.5077 25.6674 11.3546 25.3773Z" fill="url(#paint2_linear_0_3)"/>
<path d="M3.96847 23.0207L1.25119 25.6312C1.02155 25.885 0.868469 26.2114 0.868469 26.5377C0.868469 26.864 0.983281 27.2266 1.25119 27.4441C1.51909 27.6617 1.86353 27.8067 2.20798 27.8067C2.55241 27.8067 2.93514 27.6617 3.16476 27.4441L6.95365 23.8184C5.88203 23.5646 4.81045 23.2745 3.96847 23.0207Z" fill="url(#paint3_linear_0_3)"/>
<path d="M13.1533 30.9245C13.0768 30.5982 12.9619 30.2719 12.8471 29.9093L9.5557 33.2087C9.32604 33.4625 9.21124 33.7888 9.21124 34.1152C9.21124 34.4777 9.36435 34.8041 9.63225 35.0216C9.86185 35.2391 10.2063 35.3479 10.5508 35.3479C10.9334 35.3479 11.278 35.2029 11.5459 34.9491L13.7273 32.7736C13.536 32.266 13.3447 31.6496 13.1533 30.9245Z" fill="url(#paint4_linear_0_3)" stroke="url(#paint5_linear_0_3)" stroke-width="1.17121"/>
<path d="M3.96847 23.0207L1.25119 25.6312C1.02155 25.885 0.868469 26.2114 0.868469 26.5377C0.868469 26.864 0.983281 27.2266 1.25119 27.4441C1.51909 27.6617 1.86353 27.8067 2.20798 27.8067C2.55241 27.8067 2.93514 27.6617 3.16476 27.4441L6.95365 23.8184C5.88203 23.5646 4.81045 23.2745 3.96847 23.0207Z" stroke="url(#paint6_linear_0_3)" stroke-width="1.17121"/>
<path d="M11.3546 25.3773C11.0867 25.196 10.5509 25.0148 9.93857 24.7972L1.74879 32.701C1.4809 32.9548 1.36609 33.2811 1.36609 33.6074C1.36609 33.9337 1.4809 34.2963 1.74879 34.5138C2.01668 34.7313 2.36111 34.8764 2.70555 34.8764C3.04997 34.8764 3.3944 34.7676 3.70057 34.5138L11.8138 26.6825C11.6607 26.1387 11.5077 25.6674 11.3546 25.3773Z" stroke="url(#paint7_linear_0_3)" stroke-opacity="0.5" stroke-width="1.17121"/>
<g filter="url(#filter0_ii_0_3)">
<path d="M36.6511 25.3049L26.433 25.4861C26.0886 25.4861 25.7442 25.6674 25.5145 25.9575C24.4813 27.5165 21.2666 31.8672 18.3962 34.9127C17.784 35.4565 16.7889 35.3115 16.368 34.6226C16.2915 34.4776 16.1766 34.3326 16.1766 34.2963C15.5643 32.9548 13.6891 25.1961 12.8471 24.2172C11.8139 23.057 2.93518 20.9542 1.55746 20.5191C0.562431 20.1928 0.294538 18.9601 1.05994 18.2712C3.31788 16.2409 6.95355 13.3767 9.55588 11.7452C9.90034 11.5639 10.1299 11.2013 10.1299 10.8388L9.97688 1.62977C9.97688 0.904654 10.7423 0.360817 11.4694 0.687121C13.6508 1.55726 17.5543 3.87763 20.0036 5.90796C20.2715 6.198 20.6925 6.30675 21.0752 6.198C22.8357 5.72668 27.7724 4.38521 32.5945 4.13142C33.2452 4.09517 33.7808 4.60275 33.7043 5.25536C33.4747 7.43073 32.8241 12.1077 31.7525 15.1895C31.6378 15.5158 31.676 15.8421 31.9439 16.1321C32.9773 17.4011 35.4265 20.5916 37.5696 23.7821C37.9523 24.471 37.493 25.3049 36.6511 25.3049Z" stroke="url(#paint8_linear_0_3)" stroke-width="1.17121"/>
</g>
</g>
<defs>
<filter id="filter0_ii_0_3" x="0.0311584" y="0.00328064" width="38.2609" height="36.0607" filterUnits="userSpaceOnUse" color-interpolation-filters="sRGB">
<feFlood flood-opacity="0" result="BackgroundImageFix"/>
<feBlend mode="normal" in="SourceGraphic" in2="BackgroundImageFix" result="shape"/>
<feColorMatrix in="SourceAlpha" type="matrix" values="0 0 0 0 0 0 0 0 0 0 0 0 0 0 0 0 0 0 127 0" result="hardAlpha"/>
<feOffset dy="0.234242"/>
<feGaussianBlur stdDeviation="0.117121"/>
<feComposite in2="hardAlpha" operator="arithmetic" k2="-1" k3="1"/>
<feColorMatrix type="matrix" values="0 0 0 0 1 0 0 0 0 1 0 0 0 0 1 0 0 0 0.8 0"/>
<feBlend mode="normal" in2="shape" result="effect1_innerShadow_0_3"/>
<feColorMatrix in="SourceAlpha" type="matrix" values="0 0 0 0 0 0 0 0 0 0 0 0 0 0 0 0 0 0 127 0" result="hardAlpha"/>
<feOffset dy="0.117121"/>
<feGaussianBlur stdDeviation="0.117121"/>
<feComposite in2="hardAlpha" operator="arithmetic" k2="-1" k3="1"/>
<feColorMatrix type="matrix" values="0 0 0 0 0.441667 0 0 0 0 0.441667 0 0 0 0 0.441667 0 0 0 0.4 0"/>
<feBlend mode="normal" in2="effect1_innerShadow_0_3" result="effect2_innerShadow_0_3"/>
</filter>
<linearGradient id="paint0_linear_0_3" x1="32.1644" y1="5.05867" x2="10.8261" y2="27.5824" gradientUnits="userSpaceOnUse">
<stop offset="0.1745" stop-color="#52BFCA"/>
<stop offset="0.9163" stop-color="#7238DF"/>
</linearGradient>
<linearGradient id="paint1_linear_0_3" x1="6.25606" y1="37.9634" x2="14.6302" y2="29.2746" gradientUnits="userSpaceOnUse">
<stop offset="0.1875" stop-color="#25E2EA"/>
<stop offset="1" stop-color="#19A6D1"/>
</linearGradient>
<linearGradient id="paint2_linear_0_3" x1="-5.54319" y1="41.2055" x2="13.1384" y2="21.8217" gradientUnits="userSpaceOnUse">
<stop stop-color="#A443FD"/>
<stop offset="1" stop-color="#A959F3"/>
</linearGradient>
<linearGradient id="paint3_linear_0_3" x1="-2.37069" y1="30.7924" x2="6.88877" y2="21.185" gradientUnits="userSpaceOnUse">
<stop offset="0.3958" stop-color="#E55EC4"/>
<stop offset="1" stop-color="#8225D0"/>
</linearGradient>
<linearGradient id="paint4_linear_0_3" x1="6.25606" y1="37.9634" x2="14.6302" y2="29.2746" gradientUnits="userSpaceOnUse">
<stop offset="0.1875" stop-color="#25E2EA"/>
<stop offset="1" stop-color="#19A6D1"/>
</linearGradient>
<linearGradient id="paint5_linear_0_3" x1="9.21124" y1="35.6107" x2="12.3904" y2="32.1301" gradientUnits="userSpaceOnUse">
<stop/>
<stop offset="0.0001" stop-color="#E4FCFF"/>
<stop offset="1" stop-color="#E4FCFF" stop-opacity="0"/>
</linearGradient>
<linearGradient id="paint6_linear_0_3" x1="0.868469" y1="27.6757" x2="5.04116" y2="23.1751" gradientUnits="userSpaceOnUse">
<stop stop-color="#FFF5FE"/>
<stop offset="0.769332" stop-color="#FFF5FE" stop-opacity="0"/>
</linearGradient>
<linearGradient id="paint7_linear_0_3" x1="1.79209" y1="34.5566" x2="10.7571" y2="24.8778" gradientUnits="userSpaceOnUse">
<stop stop-color="#F6EDFE"/>
<stop offset="0.850896" stop-color="#A851F8" stop-opacity="0"/>
</linearGradient>
<linearGradient id="paint8_linear_0_3" x1="33.9354" y1="3.90016" x2="10.7807" y2="29.5417" gradientUnits="userSpaceOnUse">
<stop offset="0.00924772" stop-color="#2D9FAB"/>
<stop offset="0.0885417" stop-color="#2D9FAB" stop-opacity="0.823892"/>
<stop offset="0.171875" stop-color="#2D9FAB" stop-opacity="0.8"/>
<stop offset="0.302083" stop-color="#2D9FAB" stop-opacity="0.8"/>
<stop offset="1" stop-color="white" stop-opacity="0.5"/>
</linearGradient>
<clipPath id="clip0_0_3">
<rect width="38" height="38" fill="white"/>
</clipPath>
</defs>
</svg>
