<svg width="28" height="28" viewBox="0 0 28 28" fill="none" xmlns="http://www.w3.org/2000/svg">
<g id="Subjects Icons">
<path id="Vector" d="M24.9376 14C24.9376 14.3481 24.7993 14.682 24.5531 14.9281C24.307 15.1742 23.9732 15.3125 23.6251 15.3125H7.54693L13.1819 20.9464C13.4285 21.193 13.567 21.5274 13.567 21.8761C13.567 22.2248 13.4285 22.5592 13.1819 22.8058C12.9354 23.0524 12.6009 23.1909 12.2522 23.1909C11.9035 23.1909 11.5691 23.0524 11.3226 22.8058L3.44756 14.9308C3.3252 14.8089 3.22811 14.664 3.16187 14.5044C3.09562 14.3449 3.06152 14.1739 3.06152 14.0011C3.06152 13.8284 3.09562 13.6573 3.16187 13.4978C3.22811 13.3383 3.3252 13.1934 3.44756 13.0714L11.3226 5.19643C11.4446 5.07434 11.5896 4.9775 11.7491 4.91142C11.9086 4.84535 12.0796 4.81134 12.2522 4.81134C12.4249 4.81134 12.5959 4.84535 12.7554 4.91142C12.9149 4.9775 13.0598 5.07434 13.1819 5.19643C13.304 5.31852 13.4009 5.46346 13.4669 5.62297C13.533 5.78249 13.567 5.95346 13.567 6.12612C13.567 6.29878 13.533 6.46974 13.4669 6.62926C13.4009 6.78878 13.304 6.93372 13.1819 7.0558L7.54693 12.6875H23.6251C23.9732 12.6875 24.307 12.8258 24.5531 13.0719C24.7993 13.3181 24.9376 13.6519 24.9376 14Z" fill="#4E43DF"/>
</g>
</svg>
