<svg width="27" height="27" viewBox="0 0 27 27" fill="none" xmlns="http://www.w3.org/2000/svg">
<rect width="27" height="27" rx="13.5" fill="#E76B2B"/>
<path d="M13.0449 7.00022C13.2226 6.60965 13.7774 6.60965 13.9551 7.00022L15.4811 10.354C15.5539 10.5139 15.7053 10.6239 15.8799 10.6437L19.541 11.0586C19.9674 11.1069 20.1388 11.6346 19.8223 11.9243L17.1042 14.4119C16.9746 14.5306 16.9168 14.7086 16.9519 14.8808L17.6887 18.4909C17.7745 18.9114 17.3256 19.2375 16.9523 19.0259L13.7465 17.2096C13.5936 17.123 13.4064 17.123 13.2535 17.2096L10.0477 19.0259C9.67437 19.2375 9.22554 18.9114 9.31134 18.4909L10.0481 14.8808C10.0832 14.7086 10.0254 14.5306 9.89576 14.4119L7.17771 11.9243C6.86117 11.6346 7.03261 11.1069 7.45898 11.0586L11.1201 10.6437C11.2947 10.6239 11.4461 10.5139 11.5189 10.354L13.0449 7.00022Z" fill="white"/>
</svg>
