<svg width="103" height="22" viewBox="0 0 103 22" fill="none" xmlns="http://www.w3.org/2000/svg">
<path d="M7.99602 7.99866C7.17952 7.2154 6.28169 6.99172 5.27462 6.99172C3.94144 6.96449 3.07073 7.41101 3.07073 8.27763C3.09784 9.17232 3.99566 9.50742 5.32966 9.64773C7.23455 9.81528 9.73827 10.2626 9.71034 13.002C9.68323 14.987 7.99602 16.3562 5.30173 16.3562C3.61452 16.3562 1.9273 15.965 0.567017 14.4001L1.70962 12.8344C2.68959 13.9239 4.13202 14.4001 5.35677 14.4001C6.39095 14.4001 7.53355 14.0089 7.56066 13.03C7.58777 12.0801 6.68995 11.7161 5.16619 11.5485C3.20627 11.3529 0.975267 10.71 0.94816 8.36182C0.94816 6.01367 3.31552 5.11898 5.24752 5.11898C6.85341 5.11898 8.07816 5.48214 9.24788 6.5452L7.99602 7.99866ZM14.2824 2.24013C14.2824 4.08481 11.5881 4.08481 11.5881 2.24013C11.5881 0.450755 14.2824 0.450755 14.2824 2.24013ZM11.8608 5.34348V16.0211H14.0376V5.34266L11.8608 5.34348ZM20.2969 2.32432V5.39878H23.3173V7.32764H20.2698V12.3871C20.2698 13.5055 20.7594 14.1484 21.7664 14.1484C22.1747 14.1484 22.6643 14.0081 23.0996 13.7853L23.7256 15.6861C23.0183 16.0211 22.3924 16.1615 21.6572 16.1615C19.3983 16.2168 18.1201 14.9036 18.1201 12.4152V7.35571H16.1331V5.42684H18.1201V2.54717L20.2969 2.32432ZM27.1279 11.5205C27.3177 13.1423 28.6246 14.2045 30.5023 14.2045C31.5636 14.2045 32.8697 13.7853 33.4956 13.0581L34.9109 14.4554C33.8497 15.658 32.0532 16.2729 30.4473 16.2729C27.0466 16.2729 24.869 14.0362 24.869 10.6538C24.869 7.41101 27.0729 5.11898 30.3118 5.11898C33.6591 5.11898 35.918 7.2154 35.5098 11.5485L27.1279 11.5205ZM33.4414 9.64773C33.3051 7.9706 32.1074 7.07591 30.366 7.07591C28.788 7.07591 27.4811 7.9706 27.1542 9.64773H33.4414ZM39.8904 5.34266V17.279C39.8904 19.9631 38.9376 21.3604 36.6253 21.3604C35.8489 21.3631 35.0899 21.1291 34.4485 20.6894L35.2371 18.9289C35.6724 19.1517 36.1357 19.264 36.5702 19.264C37.6052 19.2359 37.7679 18.5088 37.7679 17.279V5.34266H39.8904ZM37.4689 2.21207C37.4689 4.05675 40.1632 4.05675 40.1632 2.21207C40.1632 0.395456 37.4689 0.395456 37.4689 2.21207ZM51.1572 5.37072H53.2526V16.022H51.1843L51.0758 14.2887C50.3949 15.6588 48.7898 16.3026 47.5108 16.3026C44.4896 16.3298 42.2044 14.3168 42.2044 10.6827C42.2044 7.13369 44.5718 5.14787 47.5651 5.14787C49.0346 5.14787 50.4499 5.84695 51.103 7.07674L51.1572 5.37154V5.37072ZM44.3804 10.6819C44.3804 12.8906 45.905 14.2326 47.7556 14.2326C52.2185 14.2326 52.2185 7.18816 47.7556 7.18816C45.8778 7.18816 44.3804 8.50213 44.3804 10.6819ZM58.3685 0.926161V7.01979C59.0495 5.76194 60.7367 5.11898 62.0156 5.11898C65.0089 5.11898 67.2678 7.04785 67.2678 10.6538C67.2678 14.1765 64.9818 16.1887 61.9614 16.1887C60.5732 16.1887 59.185 15.658 58.3685 14.2879L58.2329 15.965H56.1917V0.870037L58.3685 0.926161ZM58.4777 10.6819C58.4777 12.7783 59.9744 14.1484 61.798 14.1484C63.5936 14.1484 65.0631 12.8064 65.0631 10.6819C65.0631 8.50131 63.5936 7.2154 61.798 7.2154C60.0015 7.24346 58.4777 8.64162 58.4777 10.6819ZM71.7307 0.926161V7.01979C72.4108 5.76194 74.098 5.11898 75.377 5.11898C78.3711 5.11898 80.63 7.04785 80.63 10.6538C80.63 14.1765 78.344 16.1887 75.3228 16.1887C73.9354 16.1887 72.5472 15.658 71.7307 14.2879L71.5943 15.965H69.5539V0.870037L71.7307 0.926161ZM71.8399 10.6819C71.8399 12.7783 73.3366 14.1484 75.1593 14.1484C76.9558 14.1484 78.4253 12.8064 78.4253 10.6819C78.4253 8.50131 76.9558 7.2154 75.1593 7.2154C73.3637 7.24346 71.8399 8.64162 71.8399 10.6819ZM84.5482 11.5205C84.7388 13.1423 86.0457 14.2045 87.9227 14.2045C88.9848 14.2045 90.2908 13.7853 90.9168 13.0581L92.3313 14.4554C91.27 15.658 89.4743 16.2729 87.8685 16.2729C84.4669 16.2729 82.2901 14.0362 82.2901 10.6538C82.2901 7.41101 84.494 5.11898 87.7329 5.11898C91.0802 5.11898 93.3383 7.2154 92.9301 11.5485L84.5482 11.5205ZM90.8617 9.64773C90.7262 7.9706 89.5286 7.07591 87.7871 7.07591C86.2083 7.07591 84.9023 7.9706 84.5762 9.64773H90.8617ZM97.1761 5.37072L97.3116 6.76888C98.0739 5.39878 99.2436 5.11898 100.36 5.11898C101.367 5.11898 102.346 5.48214 102.918 6.01367L101.938 7.94254C101.421 7.52325 100.904 7.29958 100.115 7.29958C98.6177 7.29958 97.3116 8.2504 97.3116 10.2065V15.965H95.1348V5.31459L97.1761 5.37072Z" fill="white"/>
</svg>
