<svg width="96" height="16" viewBox="0 0 96 16" fill="none" xmlns="http://www.w3.org/2000/svg">
<path d="M8 0L10.3041 4.82865L15.6085 5.52786L11.7281 9.21135L12.7023 14.4721L8 11.92L3.29772 14.4721L4.27186 9.21135L0.391548 5.52786L5.69588 4.82865L8 0Z" fill="#F89E1F"/>
<path d="M28 0L30.3041 4.82865L35.6085 5.52786L31.7281 9.21135L32.7023 14.4721L28 11.92L23.2977 14.4721L24.2719 9.21135L20.3915 5.52786L25.6959 4.82865L28 0Z" fill="#F89E1F"/>
<path d="M48 0L50.3041 4.82865L55.6085 5.52786L51.7281 9.21135L52.7023 14.4721L48 11.92L43.2977 14.4721L44.2719 9.21135L40.3915 5.52786L45.6959 4.82865L48 0Z" fill="#F89E1F"/>
<path d="M68 0L70.3041 4.82865L75.6085 5.52786L71.7281 9.21135L72.7023 14.4721L68 11.92L63.2977 14.4721L64.2719 9.21135L60.3915 5.52786L65.6959 4.82865L68 0Z" fill="#F89E1F"/>
<path opacity="0.4" d="M88 0L90.3041 4.82865L95.6085 5.52786L91.7281 9.21135L92.7023 14.4721L88 11.92L83.2977 14.4721L84.2719 9.21135L80.3915 5.52786L85.6959 4.82865L88 0Z" fill="#F89E1F"/>
</svg>
