<svg width="30" height="30" viewBox="0 0 30 30" fill="none" xmlns="http://www.w3.org/2000/svg">
<g clip-path="url(#clip0_1346_7843)">
<path fill-rule="evenodd" clip-rule="evenodd" d="M14.0293 21.9928L8.00719 15.9707C8.66927 14.862 9.32893 13.7156 9.98389 12.5774L9.98392 12.5773C12.1615 8.79294 14.2874 5.09839 16.279 3.1767C21.6874 -2.23181 29.0957 0.90421 29.0957 0.90421C29.0957 0.90421 32.2318 8.31249 26.8232 13.721C24.9174 15.6962 21.281 17.7903 17.5255 19.9529H17.5255L17.5254 19.953L17.5253 19.953C16.3552 20.6268 15.1737 21.3072 14.0293 21.9928ZM18.6162 7.99446C18.6162 6.12257 20.1337 4.60511 22.0056 4.60511C23.8774 4.60511 25.395 6.12257 25.395 7.99446C25.395 9.86636 23.8774 11.3838 22.0056 11.3838C20.1337 11.3838 18.6162 9.86636 18.6162 7.99446ZM9.84999 7.49762C6.81167 6.6891 3.96071 8.18619 1.43109 10.5065C0.922277 10.9732 1.02854 11.7896 1.61997 12.1459L5.70264 14.6053L5.70735 14.5974C6.29629 13.6112 6.9546 12.4688 7.62159 11.3114L7.62165 11.3113L7.62176 11.3111L7.62178 11.311V11.311L7.62189 11.3109C8.38348 9.98923 9.15634 8.64808 9.84999 7.49762ZM15.3947 24.2972L17.8542 28.3798C18.2105 28.9712 19.0269 29.0775 19.4936 28.5688C21.8147 26.0383 23.3119 23.1864 22.5017 20.1468C21.3845 20.8201 20.2097 21.498 19.046 22.1683L18.8685 22.2705C17.693 22.9474 16.5298 23.6173 15.4057 24.2906L15.3947 24.2972ZM5.61885 20.0205C6.19429 20.0103 6.76588 20.1162 7.29954 20.3318C7.83317 20.5473 8.31795 20.8681 8.7249 21.2751C9.13187 21.6821 9.4527 22.1668 9.66825 22.7006C9.8838 23.2341 9.98966 23.8056 9.9795 24.3812C9.96934 24.9566 9.84339 25.524 9.60915 26.0499C9.37611 26.5729 9.04065 27.0439 8.62258 27.435C8.14736 27.8901 7.40374 28.2461 6.71434 28.5199C5.97928 28.8122 5.14052 29.0732 4.35741 29.2869C3.57169 29.5014 2.82124 29.6739 2.25452 29.7864C1.97309 29.8421 1.72483 29.8856 1.53455 29.9115C1.4432 29.9239 1.34231 29.9355 1.24919 29.9396C1.20697 29.9415 1.13067 29.9439 1.04342 29.9355C1.00159 29.9314 0.920621 29.9218 0.824327 29.8931C0.760766 29.874 0.513853 29.7988 0.308149 29.5588C0.131961 29.3533 0.0839949 29.1388 0.0724395 29.0871L0.0722291 29.0861C0.0537054 29.0034 0.0482531 28.9344 0.0461102 28.8971C0.0416649 28.8199 0.0450259 28.7516 0.0476563 28.7109C0.0533623 28.6228 0.0655181 28.5257 0.0787425 28.4349C0.106115 28.2465 0.150585 28.0003 0.207551 27.7196C0.322131 27.1549 0.496093 26.4079 0.711624 25.6256C0.926402 24.8458 1.18799 24.0109 1.48044 23.2789C1.7549 22.5919 2.11077 21.8516 2.56504 21.3774C2.9562 20.9594 3.42718 20.6239 3.95019 20.3909C4.47589 20.1566 5.04341 20.0307 5.61885 20.0205Z" fill="#4E43DF"/>
</g>
<defs>
<clipPath id="clip0_1346_7843">
<rect width="30" height="30" fill="white"/>
</clipPath>
</defs>
</svg>
