<svg width="108" height="20" viewBox="0 0 108 20" fill="none" xmlns="http://www.w3.org/2000/svg">
<path fill-rule="evenodd" clip-rule="evenodd" d="M6.15015 18.4217C5.69282 18.6527 5.13956 18.612 4.72355 18.3169C4.30753 18.0218 4.10113 17.5236 4.19132 17.0322L4.92126 12.985L1.84813 10.1361C1.47249 9.78959 1.33482 9.26577 1.49377 8.78777C1.65271 8.30977 2.08026 7.96182 2.5943 7.89212L6.86114 7.3021L8.78749 3.58479C9.01589 3.13897 9.48579 2.85693 10.0001 2.85693C10.5145 2.85693 10.9844 3.13897 11.2128 3.58479L13.1391 7.3021L17.406 7.89212C17.92 7.96182 18.3476 8.30977 18.5065 8.78777C18.6655 9.26577 18.5278 9.78959 18.1522 10.1361L15.079 12.985L15.809 17.0331C15.8992 17.5244 15.6927 18.0227 15.2767 18.3178C14.8607 18.6129 14.3075 18.6535 13.8501 18.4226L10.0001 16.4981L6.15015 18.4217Z" fill="#FFAE0A"/>
<path fill-rule="evenodd" clip-rule="evenodd" d="M28.1502 18.4217C27.6928 18.6527 27.1396 18.612 26.7235 18.3169C26.3075 18.0218 26.1011 17.5236 26.1913 17.0322L26.9213 12.985L23.8481 10.1361C23.4725 9.78959 23.3348 9.26577 23.4938 8.78777C23.6527 8.30977 24.0803 7.96182 24.5943 7.89212L28.8611 7.3021L30.7875 3.58479C31.0159 3.13897 31.4858 2.85693 32.0001 2.85693C32.5145 2.85693 32.9844 3.13897 33.2128 3.58479L35.1391 7.3021L39.406 7.89212C39.92 7.96182 40.3476 8.30977 40.5065 8.78777C40.6655 9.26577 40.5278 9.78959 40.1522 10.1361L37.079 12.985L37.809 17.0331C37.8992 17.5244 37.6927 18.0227 37.2767 18.3178C36.8607 18.6129 36.3075 18.6535 35.8501 18.4226L32.0001 16.4981L28.1502 18.4217Z" fill="#FFAE0A"/>
<path fill-rule="evenodd" clip-rule="evenodd" d="M50.1502 18.4217C49.6928 18.6527 49.1396 18.612 48.7235 18.3169C48.3075 18.0218 48.1011 17.5236 48.1913 17.0322L48.9213 12.985L45.8481 10.1361C45.4725 9.78959 45.3348 9.26577 45.4938 8.78777C45.6527 8.30977 46.0803 7.96182 46.5943 7.89212L50.8611 7.3021L52.7875 3.58479C53.0159 3.13897 53.4858 2.85693 54.0001 2.85693C54.5145 2.85693 54.9844 3.13897 55.2128 3.58479L57.1391 7.3021L61.406 7.89212C61.92 7.96182 62.3476 8.30977 62.5065 8.78777C62.6655 9.26577 62.5278 9.78959 62.1522 10.1361L59.079 12.985L59.809 17.0331C59.8992 17.5244 59.6927 18.0227 59.2767 18.3178C58.8607 18.6129 58.3075 18.6535 57.8501 18.4226L54.0001 16.4981L50.1502 18.4217Z" fill="#FFAE0A"/>
<path fill-rule="evenodd" clip-rule="evenodd" d="M72.1502 18.4217C71.6928 18.6527 71.1396 18.612 70.7235 18.3169C70.3075 18.0218 70.1011 17.5236 70.1913 17.0322L70.9213 12.985L67.8481 10.1361C67.4725 9.78959 67.3348 9.26577 67.4938 8.78777C67.6527 8.30977 68.0803 7.96182 68.5943 7.89212L72.8611 7.3021L74.7875 3.58479C75.0159 3.13897 75.4858 2.85693 76.0001 2.85693C76.5145 2.85693 76.9844 3.13897 77.2128 3.58479L79.1391 7.3021L83.406 7.89212C83.92 7.96182 84.3476 8.30977 84.5065 8.78777C84.6655 9.26577 84.5278 9.78959 84.1522 10.1361L81.079 12.985L81.809 17.0331C81.8992 17.5244 81.6927 18.0227 81.2767 18.3178C80.8607 18.6129 80.3075 18.6535 79.8501 18.4226L76.0001 16.4981L72.1502 18.4217Z" fill="#FFAE0A"/>
<path fill-rule="evenodd" clip-rule="evenodd" d="M94.1502 18.4217C93.6928 18.6527 93.1396 18.612 92.7235 18.3169C92.3075 18.0218 92.1011 17.5236 92.1913 17.0322L92.9213 12.985L89.8481 10.1361C89.4725 9.78959 89.3348 9.26577 89.4938 8.78777C89.6527 8.30977 90.0803 7.96182 90.5943 7.89212L94.8611 7.3021L96.7875 3.58479C97.0159 3.13897 97.4858 2.85693 98.0001 2.85693C98.5145 2.85693 98.9844 3.13897 99.2128 3.58479L101.139 7.3021L105.406 7.89212C105.92 7.96182 106.348 8.30977 106.507 8.78777C106.665 9.26577 106.528 9.78959 106.152 10.1361L103.079 12.985L103.809 17.0331C103.899 17.5244 103.693 18.0227 103.277 18.3178C102.861 18.6129 102.307 18.6535 101.85 18.4226L98.0001 16.4981L94.1502 18.4217Z" fill="#FFAE0A"/>
</svg>
