<svg width="97" height="16" viewBox="0 0 97 16" fill="none" xmlns="http://www.w3.org/2000/svg">
<path d="M8.18896 0L10.4931 4.82865L15.7974 5.52786L11.9171 9.21135L12.8912 14.4721L8.18896 11.92L3.48668 14.4721L4.46082 9.21135L0.580513 5.52786L5.88485 4.82865L8.18896 0Z" fill="#F89E1F"/>
<path d="M28.189 0L30.4931 4.82865L35.7974 5.52786L31.9171 9.21135L32.8912 14.4721L28.189 11.92L23.4867 14.4721L24.4608 9.21135L20.5805 5.52786L25.8848 4.82865L28.189 0Z" fill="#F89E1F"/>
<path d="M48.189 0L50.4931 4.82865L55.7974 5.52786L51.9171 9.21135L52.8912 14.4721L48.189 11.92L43.4867 14.4721L44.4608 9.21135L40.5805 5.52786L45.8848 4.82865L48.189 0Z" fill="#F89E1F"/>
<path d="M68.189 0L70.4931 4.82865L75.7974 5.52786L71.9171 9.21135L72.8912 14.4721L68.189 11.92L63.4867 14.4721L64.4608 9.21135L60.5805 5.52786L65.8848 4.82865L68.189 0Z" fill="#F89E1F"/>
<path d="M88.189 0L90.4931 4.82865L95.7974 5.52786L91.9171 9.21135L92.8912 14.4721L88.189 11.92L83.4867 14.4721L84.4608 9.21135L80.5805 5.52786L85.8848 4.82865L88.189 0Z" fill="#F89E1F"/>
</svg>
