<svg width="20" height="20" viewBox="0 0 20 20" fill="none" xmlns="http://www.w3.org/2000/svg">
<g clip-path="url(#clip0_1_302)">
<path d="M5.31824 7.63782C5.24933 7.84997 5.30679 8.08282 5.46656 8.23848L7.30808 10.0336L6.87336 12.5683C6.83566 12.7881 6.92609 13.0103 7.10652 13.1414C7.20859 13.2156 7.32945 13.2533 7.45097 13.2533C7.54422 13.2533 7.63781 13.2311 7.72351 13.186L9.99996 11.9893L12.2763 13.186C12.362 13.231 12.4556 13.2533 12.5489 13.2533H12.5509C12.874 13.2527 13.1357 12.9906 13.1357 12.6673C13.1357 12.6224 13.1306 12.5786 13.121 12.5365L12.6917 10.0336L14.5334 8.23848C14.693 8.08282 14.7506 7.84997 14.6816 7.63782C14.6127 7.42571 14.4294 7.2711 14.2087 7.23907L11.6636 6.8693L10.5255 4.56305C10.4268 4.36305 10.223 4.23645 10 4.23645C9.77703 4.23645 9.57332 4.36309 9.47461 4.56305L8.33636 6.8693L5.7914 7.23907C5.57054 7.27114 5.38722 7.42575 5.31824 7.63782V7.63782Z" fill="#0A1330"/>
<path d="M19.5953 8.77215C19.5359 8.75281 18.9974 8.5834 18.3824 8.5834C17.9974 8.5834 17.6598 8.65101 17.3755 8.7839C17.3699 8.68562 17.3628 8.58758 17.3533 8.4898C17.8358 8.35332 18.4933 8.07844 18.867 7.5448C19.4704 6.6832 19.1868 5.35629 19.1525 5.20781C19.085 4.91578 18.8077 4.7218 18.5104 4.7582C18.3664 4.77582 17.1429 4.94668 16.5049 5.70586C16.4612 5.62492 16.4163 5.54449 16.3695 5.46508C16.3664 5.45973 16.363 5.45457 16.3599 5.4493C16.7394 5.12164 17.2186 4.59488 17.3317 3.95371C17.5144 2.91762 16.6966 1.83504 16.6027 1.715C16.4181 1.47887 16.0851 1.42019 15.8308 1.5789C15.7078 1.65578 14.6703 2.32836 14.4134 3.2868C14.1838 3.11539 13.9444 2.95637 13.6955 2.81234C13.4153 2.65031 13.057 2.7459 12.8949 3.02601C12.7328 3.30609 12.8285 3.66457 13.1086 3.8266C13.6348 4.13113 14.1059 4.50785 14.5129 4.93961C15.5857 6.06094 16.2447 7.58133 16.2447 9.25566C16.2447 12.7045 13.4488 15.5004 10 15.5004C6.55118 15.5004 3.75536 12.7045 3.75536 9.2557C3.75536 7.58262 4.41337 6.06328 5.48466 4.94219C5.89228 4.50933 6.36423 4.13172 6.89157 3.82664C7.17173 3.66461 7.26739 3.30613 7.10536 3.02601C6.94333 2.7459 6.58489 2.65031 6.30482 2.81222C6.05579 2.95629 5.81638 3.11535 5.58665 3.28672C5.32993 2.32828 4.29224 1.6557 4.16919 1.57887C3.91497 1.42008 3.58189 1.47879 3.39732 1.71496C3.30349 1.83496 2.4856 2.91758 2.66825 3.95379C2.78138 4.59492 3.2606 5.1216 3.64017 5.44926C3.63704 5.45453 3.63368 5.45965 3.63056 5.46492C3.58372 5.54437 3.53884 5.62484 3.49513 5.70586C2.857 4.94664 1.63357 4.77582 1.48958 4.75816C1.19212 4.72176 0.915011 4.91574 0.84755 5.20781C0.813214 5.35629 0.529698 6.6832 1.13306 7.54472C1.50673 8.0784 2.16431 8.35328 2.64681 8.48976C2.63728 8.58754 2.63017 8.68562 2.62446 8.78387C2.34036 8.65101 2.00267 8.58336 1.61771 8.58336C1.00278 8.58336 0.464151 8.75277 0.404776 8.77207C0.119737 8.8648 -0.0494036 9.15773 0.0128621 9.45098C0.0445027 9.6 0.348331 10.9223 1.25942 11.4484C1.56903 11.6271 1.95271 11.7177 2.39978 11.7177C2.62728 11.7177 2.84419 11.6945 3.03036 11.6644C3.0631 11.7573 3.09743 11.8494 3.13372 11.9406C3.13341 11.9406 3.1331 11.9405 3.13282 11.9405C2.14114 11.9405 1.21982 12.7734 1.11798 12.8684C0.8988 13.0729 0.869346 13.4098 1.0497 13.6493C1.14134 13.771 1.97552 14.8412 3.02349 14.9328C3.07321 14.9371 3.12427 14.9393 3.17532 14.9393H3.17548C3.7711 14.9393 4.3411 14.6389 4.72364 14.3784C4.79263 14.4488 4.86286 14.5179 4.93458 14.5856C4.03325 15.0036 3.54993 16.1449 3.49552 16.2796C3.38329 16.5576 3.49903 16.8755 3.76376 17.0162C3.84868 17.0614 4.61681 17.4577 5.41575 17.4577H5.41591C5.66142 17.4577 5.88993 17.4199 6.09509 17.3453C6.7072 17.1224 7.14282 16.5583 7.39958 16.1276C7.61009 16.207 7.82517 16.277 8.04427 16.3372C7.70325 16.6839 7.39087 17.1254 7.11685 17.6548C6.96806 17.9421 7.08044 18.2957 7.36786 18.4445C7.65524 18.5932 8.0088 18.4809 8.15759 18.1934C8.68157 17.1811 9.35317 16.6005 10.0002 16.6005C10.6472 16.6005 11.3188 17.1811 11.8428 18.1935C11.947 18.3947 12.1517 18.5102 12.3637 18.5102C12.4544 18.5102 12.5465 18.489 12.6326 18.4445C12.9199 18.2957 13.0323 17.9421 12.8836 17.6547C12.6095 17.1253 12.2972 16.6838 11.9561 16.3371C12.1752 16.277 12.3902 16.2069 12.6008 16.1275C12.8575 16.5583 13.2932 17.1224 13.9054 17.3453C14.1104 17.4198 14.339 17.4577 14.5845 17.4577C15.3835 17.4577 16.1516 17.0613 16.2366 17.0161C16.5013 16.8754 16.617 16.5575 16.5048 16.2795C16.4504 16.1448 15.967 15.0036 15.0657 14.5855C15.1374 14.5179 15.2077 14.4487 15.2767 14.3783C15.6592 14.6389 16.2293 14.9393 16.8249 14.9393C16.8759 14.9393 16.927 14.9371 16.9768 14.9327C18.0247 14.8411 18.8589 13.7709 18.9506 13.6492C19.1309 13.4097 19.1014 13.0728 18.8822 12.8683C18.7805 12.7733 17.8592 11.9405 16.8675 11.9405C16.8672 11.9405 16.8668 11.9405 16.8665 11.9405C16.9029 11.8493 16.9372 11.7572 16.9699 11.6643C17.1561 11.6945 17.3731 11.7177 17.6005 11.7177C18.0475 11.7177 18.4312 11.627 18.741 11.4482C19.6519 10.9222 19.9558 9.59996 19.9874 9.4509C20.0494 9.15777 19.8803 8.86488 19.5953 8.77215V8.77215Z" fill="#0A1330"/>
</g>
<defs>
<clipPath id="clip0_1_302">
<rect width="20" height="20" fill="white"/>
</clipPath>
</defs>
</svg>
