<svg width="20" height="20" viewBox="0 0 20 20" fill="none" xmlns="http://www.w3.org/2000/svg">
<path fill-rule="evenodd" clip-rule="evenodd" d="M9.1786 2.30569C9.48297 1.57519 10.5179 1.57519 10.8222 2.30569L12.4256 6.15385C12.555 6.46439 12.8584 6.66667 13.1949 6.66667H17.4114C18.1866 6.66667 18.5749 7.60402 18.0267 8.15223L14.6164 11.5625C14.4024 11.7765 14.3213 12.0897 14.4044 12.3807L15.7568 17.1141C15.9852 17.9133 15.0939 18.5639 14.4023 18.1028L10.4627 15.4764C10.1827 15.2898 9.81808 15.2898 9.53816 15.4764L5.60502 18.0985C4.91119 18.561 4.01706 17.9084 4.24615 17.1066L5.5964 12.3807C5.67954 12.0897 5.59838 11.7765 5.38438 11.5625L1.99098 8.16908C1.43656 7.61465 1.82922 6.66667 2.6133 6.66667H6.80597C7.14239 6.66667 7.44581 6.46439 7.5752 6.15385L9.1786 2.30569Z" fill="#FFAE0A"/>
</svg>
