<svg width="30" height="30" viewBox="0 0 30 30" fill="none" xmlns="http://www.w3.org/2000/svg">
<g clip-path="url(#clip0_212_1460)">
<path d="M25.99 22.1527C24.2388 22.1527 22.7525 23.3115 22.2542 24.9043H16.0061C15.6272 22.5841 14.6526 20.4168 13.1584 18.5869L22.5392 9.20606C22.9969 8.74839 22.9969 8.00642 22.5392 7.5488C22.0816 7.09118 21.3395 7.09112 20.8819 7.5488L11.526 16.9047C9.70504 15.3239 7.52641 14.2803 5.18359 13.8544V7.66722C6.77113 7.16683 7.92578 5.67767 7.92578 3.92325C7.92578 1.75985 6.16996 -0.000244141 4.01172 -0.000244141C1.85348 -0.000244141 0.0976562 1.75985 0.0976562 3.92325C0.0976562 5.67767 1.2523 7.16677 2.83984 7.66722V13.6376C2.81471 13.6375 2.78963 13.6374 2.76449 13.6374C2.3176 13.6374 1.86684 13.6597 1.42475 13.7038C0.780742 13.7679 0.310645 14.3421 0.374863 14.9861C0.439023 15.6302 1.01342 16.1002 1.65719 16.036C2.02234 15.9996 2.39488 15.9811 2.76449 15.9811C2.78963 15.9811 2.81477 15.9813 2.83984 15.9814V26.0763C2.83984 26.7235 3.36449 27.2481 4.01172 27.2481H13.84C13.8353 27.6429 13.8101 28.0392 13.7646 28.4281C13.6895 29.0709 14.1497 29.6529 14.7926 29.7281C14.8388 29.7334 14.8846 29.7361 14.93 29.7361C15.5164 29.736 16.0228 29.2967 16.0925 28.7001C16.1484 28.2213 16.1791 27.7335 16.1839 27.2481H22.2542C22.7525 28.8409 24.2387 29.9998 25.99 29.9998C28.1482 29.9998 29.9041 28.2397 29.9041 26.0763C29.9041 23.9129 28.1482 22.1527 25.99 22.1527ZM4.01172 2.34351C4.87762 2.34351 5.58203 3.0522 5.58203 3.92325C5.58203 4.79437 4.87762 5.50306 4.01172 5.50306C3.14582 5.50306 2.44141 4.79437 2.44141 3.92325C2.44141 3.0522 3.14582 2.34351 4.01172 2.34351ZM13.6216 24.9044H6.84086L11.4862 20.259C12.529 21.5964 13.2745 23.1787 13.6216 24.9044ZM9.85943 18.5712L5.18359 23.2471V16.2486C6.93361 16.642 8.52865 17.4528 9.85943 18.5712ZM25.99 27.656C25.1241 27.656 24.4196 26.9473 24.4196 26.0763C24.4196 25.2052 25.124 24.4965 25.99 24.4965C26.856 24.4965 27.5604 25.2052 27.5604 26.0763C27.5604 26.9473 26.8559 27.656 25.99 27.656Z" fill="#4E43DF"/>
</g>
<defs>
<clipPath id="clip0_212_1460">
<rect width="30" height="30" fill="white" transform="translate(0 -0.000244141)"/>
</clipPath>
</defs>
</svg>
