<svg width="30" height="30" viewBox="0 0 30 30" fill="none" xmlns="http://www.w3.org/2000/svg">
<g clip-path="url(#clip0_212_1475)">
<path d="M13.7642 2.66296C14.4308 2.48342 15 1.94036 15 1.25V1.25C15 0.559644 14.4361 -0.0112119 13.7559 0.106781C10.8083 0.618094 8.42684 2.91696 7.87628 5.94635L6.45691 13.75H4.375C3.68464 13.75 3.125 14.3096 3.125 15V15C3.125 15.6904 3.68464 16.25 4.375 16.25H6.0025L4.66431 23.6069C4.3306 25.4439 2.96829 26.8704 1.23582 27.337C0.569222 27.5166 0 28.0596 0 28.75V28.75C0 29.4404 0.563908 30.0112 1.24411 29.8932C4.19169 29.3819 6.57316 27.083 7.12372 24.0536L8.54309 16.25H10C10.6904 16.25 11.25 15.6904 11.25 15V15C11.25 14.3096 10.6904 13.75 10 13.75H8.9975L10.3357 6.39313C10.6694 4.5561 12.0317 3.12958 13.7642 2.66296Z" fill="#4E43DF"/>
<path d="M16.25 7.50012V7.50012C15.6978 7.0859 14.9264 7.20894 14.6217 7.82841C13.9944 9.10406 13.125 11.5029 13.125 15.0001C13.125 18.4937 13.9926 20.8911 14.6197 22.1678C14.9252 22.7897 15.6994 22.913 16.2536 22.4972V22.4972C16.8047 22.0837 16.9436 21.2834 16.6715 20.6504C16.2047 19.5642 15.625 17.6764 15.625 15.0001C15.625 12.3244 16.2067 10.4342 16.6753 9.34562C16.9502 8.70681 16.8096 7.91302 16.25 7.50012V7.50012Z" fill="#4E43DF"/>
<path d="M26.8802 7.49601C26.3267 7.91116 26.1853 8.72493 26.4578 9.36089C26.9239 10.4488 27.4997 12.3329 27.4997 15.0001C27.4997 17.6758 26.918 19.566 26.4494 20.6546C26.1745 21.2934 26.3151 22.0872 26.8747 22.5001V22.5001V22.5001C27.4273 22.9147 28.1983 22.7919 28.5032 22.172C29.1305 20.8964 29.9997 18.4978 29.9997 15.0001C29.9997 11.4974 29.1276 9.09658 28.5 7.82245C28.1967 7.20656 27.4294 7.08406 26.8802 7.49601V7.49601Z" fill="#4E43DF"/>
<path d="M23.7493 11.8753C23.191 11.4691 22.409 11.5925 22.0029 12.1509L21.249 13.1877L20.4951 12.1509C20.089 11.5925 19.3071 11.4691 18.7487 11.8753V11.8753C18.1906 12.2814 18.0673 13.063 18.4733 13.6212L19.7033 15.3126L18.4733 17.004C18.0673 17.5622 18.1906 18.3438 18.7487 18.7499V18.7499C19.3071 19.1562 20.089 19.0328 20.4951 18.4743L21.249 17.4376L22.0029 18.4743C22.409 19.0328 23.191 19.1562 23.7493 18.7499V18.7499C24.3074 18.3438 24.4307 17.5622 24.0248 17.004L22.7947 15.3126L24.0248 13.6212C24.4307 13.063 24.3074 12.2814 23.7493 11.8753V11.8753Z" fill="#4E43DF"/>
</g>
<defs>
<clipPath id="clip0_212_1475">
<rect width="30" height="30" fill="white"/>
</clipPath>
</defs>
</svg>
