<svg width="30" height="30" viewBox="0 0 30 30" fill="none" xmlns="http://www.w3.org/2000/svg">
<g clip-path="url(#clip0_212_1441)">
<path d="M19.0124 14.155C21.2243 11.9428 21.2243 8.34347 19.0124 6.1319C17.9063 5.02577 16.4534 4.47241 15.0005 4.47241C13.548 4.47241 12.0951 5.02577 10.989 6.1319C8.77707 8.34347 8.77707 11.9428 10.989 14.155C13.2015 16.3672 16.8005 16.3665 19.0124 14.155Z" fill="#4E43DF"/>
<path d="M28.0493 28.2907L24.3637 21.2329C24.6932 20.9552 24.9888 20.6841 25.2652 20.4084C25.7501 19.9241 26.2038 19.4013 26.6134 18.8564C27.0006 18.3421 26.8966 17.6082 26.382 17.2217C26.1327 17.034 25.8247 16.9545 25.5164 16.9981C25.2074 17.0418 24.934 17.2034 24.7466 17.4524C24.4021 17.91 24.0208 18.3493 23.6135 18.7566C23.4955 18.8746 23.371 18.9841 23.2462 19.0936L20.9424 14.6809L20.7824 14.8764C20.7283 14.9422 20.6764 15.0094 20.625 15.0772C20.5217 15.2115 20.4243 15.3379 20.3095 15.4526C20.0374 15.7245 19.718 15.9871 19.3045 16.2785L19.1852 16.3625L21.3589 20.525C19.4443 21.7021 17.249 22.324 15.0002 22.324C12.7515 22.324 10.5563 21.7022 8.64123 20.525L10.815 16.3625L10.6957 16.2785C10.2831 15.9878 9.96375 15.7251 9.69065 15.4526C9.57592 15.3379 9.47848 15.2115 9.37518 15.0772C9.32367 15.0094 9.27188 14.9422 9.21779 14.8764L9.05777 14.6809L6.75352 19.0931C6.62901 18.9842 6.50485 18.8747 6.38654 18.7561C5.97885 18.3481 5.59752 17.9094 5.25305 17.4519C4.86621 16.9376 4.13326 16.8339 3.61735 17.2205C3.10272 17.6077 2.99912 18.3416 3.38625 18.8565C3.79688 19.4021 4.25057 19.9242 4.73514 20.4085C5.01217 20.6855 5.30807 20.956 5.63625 21.233L1.9507 28.2907C1.65281 28.8617 1.87477 29.5682 2.44512 29.8668C2.61135 29.9534 2.79809 29.9997 2.98512 29.9997C3.42217 29.9997 3.81944 29.7592 4.02147 29.3714L7.55977 22.5965C9.81141 23.947 12.3799 24.6601 15.0001 24.6601C17.6204 24.6601 20.1888 23.947 22.4402 22.5965L25.9785 29.3714C26.1803 29.7592 26.5775 29.9997 27.0149 29.9997C27.202 29.9997 27.3887 29.9534 27.5546 29.8668C28.1252 29.5682 28.3472 28.8617 28.0493 28.2907Z" fill="#4E43DF"/>
<path d="M15.8032 3.07628L16.1683 3.1245V1.16776C16.1682 0.523818 15.6441 -0.000244141 15.0002 -0.000244141C14.3562 -0.000244141 13.8322 0.523818 13.8322 1.16776V3.1245L14.1972 3.07628C14.7467 3.00198 15.2537 3.00198 15.8032 3.07628Z" fill="#4E43DF"/>
</g>
<defs>
<clipPath id="clip0_212_1441">
<rect width="30" height="30" fill="white" transform="translate(0 -0.000244141)"/>
</clipPath>
</defs>
</svg>
