<svg width="30" height="30" viewBox="0 0 30 30" fill="none" xmlns="http://www.w3.org/2000/svg">
<g clip-path="url(#clip0_212_1484)">
<path d="M1.52557 15.6359H2.76665L8.92131 24.3942C9.21019 24.8052 9.67877 25.0423 10.1695 25.0423C10.2661 25.0423 10.3642 25.0329 10.4613 25.0137C11.0522 24.8982 11.5199 24.4468 11.6556 23.86L15.3227 8.00866H28.4744C29.3168 8.00866 30.0002 7.32592 30.0002 6.48309C30.0002 5.64068 29.3173 4.95752 28.4744 4.95752H14.11C13.4001 4.95752 12.7838 5.44781 12.6237 6.13932L9.45335 19.8442L4.80735 13.233C4.52202 12.8271 4.05636 12.5849 3.55938 12.5849H1.52557C0.682947 12.5849 0 13.2677 0 14.1105C0.000208725 14.9529 0.683156 15.6359 1.52557 15.6359Z" fill="#4E43DF"/>
<path d="M17.0585 22.1203C17.0585 22.8694 17.6692 23.4205 18.4567 23.4205C18.9888 23.4205 19.4025 23.0857 19.7569 22.6521L21.8844 19.855L24.0117 22.6521C24.4058 23.1447 24.8191 23.4205 25.4098 23.4205C26.1591 23.4205 26.7888 22.8886 26.7888 22.0418C26.7888 21.648 26.631 21.2933 26.296 20.8989L23.6565 17.8657L26.2177 14.8711C26.4544 14.5755 26.631 14.2604 26.631 13.8465C26.631 13.0973 26.0203 12.5459 25.2323 12.5459C24.7003 12.5459 24.287 12.8809 23.9322 13.3148L21.9424 15.9145L19.9925 13.3148C19.598 12.822 19.185 12.5459 18.5943 12.5459C17.8454 12.5459 17.2154 13.0784 17.2154 13.9254C17.2154 14.3188 17.3732 14.6738 17.7076 15.0673L20.1699 17.9043L17.4711 21.0955C17.2161 21.3912 17.0585 21.7064 17.0585 22.1203Z" fill="#4E43DF"/>
</g>
<defs>
<clipPath id="clip0_212_1484">
<rect width="30" height="30" fill="white"/>
</clipPath>
</defs>
</svg>
