<svg width="18" height="19" viewBox="0 0 18 19" fill="none" xmlns="http://www.w3.org/2000/svg">
<g id="thumbs-up" clip-path="url(#clip0_201_430)">
<path id="Vector" d="M1.5 6.5L1.5 15.5M8.55 16.25H11.632C13.0935 16.25 13.8242 16.25 14.4144 15.9826C14.9346 15.7469 15.3767 15.3676 15.6888 14.8893C16.0428 14.3466 16.1539 13.6244 16.3762 12.1799L16.5591 10.9911C16.7047 10.0447 16.7775 9.57146 16.7365 9.18439C16.6055 7.9459 15.7229 6.91715 14.5187 6.59933C14.1424 6.5 13.6636 6.5 12.706 6.5H12.1979C12.0449 6.5 11.9684 6.5 11.9121 6.49576C10.9331 6.42203 10.2877 5.44324 10.6056 4.51434C10.6239 4.46097 10.654 4.39065 10.7143 4.25L11.2202 3.06958C11.5893 2.20821 10.9575 1.25 10.0204 1.25V1.25C9.84725 1.25 9.68124 1.31876 9.55883 1.44117L6.56177 4.43823C5.52406 5.47594 5.00521 5.99479 4.63416 6.60029C4.30519 7.13712 4.06276 7.72239 3.91578 8.33461C3.75 9.02513 3.75 9.75891 3.75 11.2265V11.45C3.75 13.1302 3.75 13.9702 4.07698 14.612C4.3646 15.1765 4.82354 15.6354 5.38803 15.923C6.02976 16.25 6.86984 16.25 8.55 16.25Z" stroke="#58C58B" stroke-width="1.5" stroke-linecap="round" stroke-linejoin="round"/>
</g>
<defs>
<clipPath id="clip0_201_430">
<rect width="18" height="18" fill="white" transform="translate(0 0.5)"/>
</clipPath>
</defs>
</svg>
