<svg width="34" height="34" viewBox="0 0 34 34" fill="none" xmlns="http://www.w3.org/2000/svg">
<circle cx="17" cy="17" r="17" fill="#4E43DF"/>
<path d="M18 9C18 8.44772 17.5523 8 17 8C16.4477 8 16 8.44772 16 9L18 9ZM16.2929 25.7071C16.6834 26.0976 17.3166 26.0976 17.7071 25.7071L24.0711 19.3431C24.4616 18.9526 24.4616 18.3195 24.0711 17.9289C23.6805 17.5384 23.0474 17.5384 22.6569 17.9289L17 23.5858L11.3431 17.9289C10.9526 17.5384 10.3195 17.5384 9.92893 17.9289C9.53841 18.3195 9.53841 18.9526 9.92893 19.3431L16.2929 25.7071ZM16 9L16 25L18 25L18 9L16 9Z" fill="white"/>
</svg>
