<svg width="40" height="40" viewBox="0 0 40 40" fill="none" xmlns="http://www.w3.org/2000/svg">
<path d="M20 40C31.0457 40 40 31.0457 40 20C40 8.95431 31.0457 0 20 0C8.95431 0 0 8.95431 0 20C0 31.0457 8.95431 40 20 40Z" fill="#FF4500"/>
<path d="M33.3381 19.9996C33.2784 18.3888 31.9262 17.1311 30.3105 17.1858C29.5946 17.2106 28.9135 17.5039 28.3965 17.9961C26.1196 16.445 23.445 15.5949 20.6958 15.5352L21.9933 9.29612L26.2737 10.1959C26.393 11.2946 27.3773 12.0901 28.476 11.9707C29.5747 11.8514 30.3701 10.8671 30.2508 9.7684C30.1315 8.66972 29.1472 7.87429 28.0485 7.99361C27.4171 8.05823 26.8504 8.42612 26.5372 8.97297L21.6354 7.99361C21.3023 7.91903 20.9692 8.12783 20.8946 8.46589C20.8946 8.47086 20.8946 8.47086 20.8946 8.47583L19.4181 15.4159C16.6341 15.4607 13.9247 16.3158 11.618 17.8768C10.4447 16.7731 8.59534 16.8278 7.49168 18.006C6.38803 19.1793 6.44272 21.0287 7.62094 22.1323C7.84963 22.3461 8.11311 22.53 8.40642 22.6593C8.38654 22.9526 8.38654 23.2459 8.40642 23.5392C8.40642 28.0185 13.6264 31.6625 20.0644 31.6625C26.5024 31.6625 31.7224 28.0234 31.7224 23.5392C31.7422 23.2459 31.7422 22.9526 31.7224 22.6593C32.7266 22.1572 33.358 21.1231 33.3381 19.9996ZM13.3381 22.0031C13.3381 20.8994 14.2379 19.9996 15.3415 19.9996C16.4452 19.9996 17.345 20.8994 17.345 22.0031C17.345 23.1067 16.4452 24.0065 15.3415 24.0065C14.2329 23.9966 13.3381 23.1067 13.3381 22.0031ZM24.9563 27.5014C23.5344 28.5703 21.7944 29.1171 20.0147 29.0426C18.2349 29.1171 16.4949 28.5703 15.0731 27.5014C14.8842 27.2728 14.919 26.9297 15.1477 26.7408C15.3465 26.5768 15.6299 26.5768 15.8337 26.7408C17.0368 27.6207 18.5034 28.0682 19.9948 27.9986C21.4862 28.0781 22.9578 27.6506 24.1758 26.7806C24.3945 26.5668 24.7524 26.5718 24.9662 26.7905C25.18 27.0093 25.175 27.3672 24.9563 27.581V27.5014ZM24.5983 24.0761C23.4947 24.0761 22.5948 23.1763 22.5948 22.0727C22.5948 20.969 23.4947 20.0692 24.5983 20.0692C25.702 20.0692 26.6018 20.969 26.6018 22.0727C26.6465 23.1763 25.7865 24.106 24.6828 24.1507C24.648 24.1507 24.6182 24.1507 24.5834 24.1507L24.5983 24.0761Z" fill="white"/>
</svg>
