<svg width="40" height="40" viewBox="0 0 40 40" fill="none" xmlns="http://www.w3.org/2000/svg">
<path fill-rule="evenodd" clip-rule="evenodd" d="M20 1.84112C9.97113 1.84112 1.84112 9.97113 1.84112 20C1.84112 30.0289 9.97113 38.1589 20 38.1589C30.0289 38.1589 38.1589 30.0289 38.1589 20C38.1589 9.97113 30.0289 1.84112 20 1.84112ZM0 20C0 8.95431 8.95431 0 20 0C31.0457 0 40 8.95431 40 20C40 31.0457 31.0457 40 20 40C8.95431 40 0 31.0457 0 20Z" fill="url(#paint0_linear_130_1294)"/>
<path d="M12.8065 24.6966H19.4299V27.6944H7.69141V25.446L12.1507 21.5224C13.7975 20.0529 14.8394 19.0683 15.2766 18.5687C15.7138 18.0691 15.9324 17.5474 15.9324 17.0037C15.9324 16.4453 15.7284 15.975 15.3203 15.593C14.9269 15.1962 14.3512 14.9978 13.5934 14.9978C12.107 14.9978 11.2399 15.8134 10.9922 17.4445H7.84442C7.94643 15.784 8.53664 14.4614 9.61503 13.4769C10.708 12.4923 12.0779 12 13.7246 12C15.3568 12 16.661 12.4702 17.6374 13.4107C18.6138 14.3365 19.102 15.4827 19.102 16.8494C19.102 17.1874 19.0583 17.518 18.9709 17.8413C18.898 18.1499 18.8178 18.4291 18.7304 18.6789C18.6575 18.9141 18.4899 19.2006 18.2276 19.5386C17.9653 19.8619 17.7613 20.119 17.6156 20.3101C17.4844 20.4864 17.2075 20.773 16.7849 21.1697C16.3623 21.5665 16.0563 21.8531 15.8668 22.0294C15.6774 22.1911 15.2985 22.5217 14.7301 23.0213L12.8502 24.6745L12.8065 24.6966Z" fill="white"/>
<path d="M32.6178 21.3681V24.2998L30.4756 24.3218V27.6944H27.3497V24.3218H19.7645V21.3681L25.8632 12.2645H30.4756V21.3461L32.6178 21.3681ZM23.1089 21.3461H27.3497V15.1962H27.1529L23.1089 21.3461Z" fill="white"/>
<defs>
<linearGradient id="paint0_linear_130_1294" x1="31.6849" y1="32.927" x2="12.5827" y2="11.9761" gradientUnits="userSpaceOnUse">
<stop stop-color="#4E43DF"/>
<stop offset="1" stop-color="white"/>
</linearGradient>
</defs>
</svg>
