<svg width="88" height="28" viewBox="0 0 88 28" fill="none" xmlns="http://www.w3.org/2000/svg">
<path fill-rule="evenodd" clip-rule="evenodd" d="M72.6106 1.81233C65.8132 1.81233 60.3028 7.3227 60.3028 14.1201C60.3028 20.9175 65.8132 26.4278 72.6106 26.4278C79.4079 26.4278 84.9183 20.9175 84.9183 14.1201C84.9183 7.3227 79.4079 1.81233 72.6106 1.81233ZM59.0549 14.1201C59.0549 6.63352 65.124 0.564453 72.6106 0.564453C80.0971 0.564453 86.1662 6.63352 86.1662 14.1201C86.1662 21.6067 80.0971 27.6757 72.6106 27.6757C65.124 27.6757 59.0549 21.6067 59.0549 14.1201Z" fill="url(#paint0_linear_111_6884)"/>
<path d="M7.43469 7.14453H1.54785V21.1608H4.41118V16.6356H7.43469C10.4382 16.6356 12.4205 14.7934 12.4205 11.85C12.4205 8.90658 10.4382 7.14453 7.43469 7.14453ZM7.31455 13.9124H4.41118V9.8677H7.31455C8.79628 9.8677 9.51711 10.6486 9.51711 11.89C9.51711 13.1115 8.79628 13.9124 7.31455 13.9124Z" fill="black"/>
<path d="M21.2428 10.148V11.6898C20.4819 10.6286 19.3205 9.90774 17.7587 9.90774C14.9354 9.90774 12.7529 12.2505 12.7529 15.6544C12.7529 19.0384 14.8954 21.4011 17.7787 21.4011C19.3205 21.4011 20.4619 20.7203 21.2227 19.6791V21.1608H24.0861L24.1061 10.148H21.2428ZM18.4195 18.6779C16.8377 18.6779 15.6363 17.4765 15.6363 15.6544C15.6363 13.8523 16.8176 12.6309 18.4195 12.6309C20.0214 12.6309 21.2428 13.8523 21.2428 15.6544C21.2428 17.4765 20.0214 18.6779 18.4195 18.6779Z" fill="black"/>
<path d="M31.8345 9.90774C30.2927 9.90774 29.1113 10.6286 28.3504 11.6898V10.148H25.4871V26.1666H28.3504V19.6791C29.1313 20.7203 30.2726 21.4011 31.8345 21.4011C34.6978 21.4011 36.8603 19.0384 36.8603 15.6544C36.8603 12.2505 34.6577 9.90774 31.8345 9.90774ZM31.1737 18.6779C29.5718 18.6779 28.3504 17.4765 28.3504 15.6544C28.3504 13.8523 29.5718 12.6309 31.1737 12.6309C32.7755 12.6309 33.9569 13.8523 33.9569 15.6544C33.9569 17.4765 32.7555 18.6779 31.1737 18.6779Z" fill="black"/>
<path d="M43.3449 9.90774C39.981 9.90774 37.5982 12.3706 37.5982 15.6744C37.5982 18.9583 39.9609 21.4011 43.4049 21.4011C45.7677 21.4011 47.9702 20.2598 48.7912 17.6567H45.8277C45.4473 18.5378 44.4862 19.0384 43.3849 19.0384C41.9032 19.0384 40.7018 18.1573 40.5216 16.3953H48.9714C49.2517 12.7711 46.9891 9.90774 43.3449 9.90774ZM43.3248 12.2705C44.7064 12.2705 45.6075 13.0914 45.9279 14.2928H40.6617C41.0222 13.1115 41.9232 12.2705 43.3248 12.2705Z" fill="black"/>
<path d="M56.2267 9.90774C54.6649 9.90774 53.4635 10.6286 52.7827 12.0703V10.148H49.9194V21.1608H52.7827V16.2551C52.7827 13.6521 54.3445 12.8512 56.1666 12.8512C56.487 12.8512 56.6472 12.8712 56.8675 12.8912V9.94779C56.6872 9.92777 56.487 9.90774 56.2267 9.90774Z" fill="black"/>
<path d="M67.7347 17.3028H72.224V19.3346H64.2678V17.8107L67.2903 15.1514C68.4064 14.1554 69.1126 13.4881 69.4089 13.1494C69.7053 12.8108 69.8534 12.4572 69.8534 12.0887C69.8534 11.7102 69.7151 11.3915 69.4386 11.1325C69.1719 10.8636 68.7817 10.7291 68.2681 10.7291C67.2606 10.7291 66.6729 11.2819 66.505 12.3875H64.3715C64.4407 11.262 64.8407 10.3656 65.5716 9.69825C66.3124 9.03093 67.2409 8.69727 68.357 8.69727C69.4633 8.69727 70.3473 9.01599 71.0091 9.65343C71.6708 10.2809 72.0017 11.0578 72.0017 11.9841C72.0017 12.2132 71.9721 12.4373 71.9128 12.6564C71.8634 12.8656 71.8091 13.0548 71.7498 13.2241C71.7005 13.3835 71.5869 13.5777 71.4091 13.8068C71.2313 14.0259 71.093 14.2002 70.9942 14.3297C70.9053 14.4492 70.7177 14.6434 70.4312 14.9124C70.1448 15.1813 69.9374 15.3755 69.809 15.495C69.6806 15.6046 69.4238 15.8287 69.0385 16.1673L67.7644 17.2878L67.7347 17.3028Z" fill="black"/>
<path d="M81.1625 15.0468V17.0338L79.7105 17.0488V19.3346H77.5918V17.0488H72.4507V15.0468L76.5843 8.87655H79.7105V15.0319L81.1625 15.0468ZM74.7175 15.0319H77.5918V10.8636H77.4585L74.7175 15.0319Z" fill="black"/>
<defs>
<linearGradient id="paint0_linear_111_6884" x1="80.5304" y1="22.8817" x2="67.5832" y2="8.68163" gradientUnits="userSpaceOnUse">
<stop stop-color="#4E43DF"/>
<stop offset="1" stop-color="white"/>
</linearGradient>
</defs>
</svg>
