<svg width="30" height="30" viewBox="0 0 30 30" fill="none" xmlns="http://www.w3.org/2000/svg">
<g clip-path="url(#clip0_1346_7854)">
<path d="M29.7069 5.70724L26.707 8.70718C26.5195 8.89467 26.2651 9.00014 25.9999 9.00014H22.4141L15.7072 15.707C15.5119 15.9023 15.256 16 15.0002 16C14.7443 16 14.4885 15.9023 14.2932 15.707C13.9025 15.3164 13.9025 14.6836 14.2932 14.293L21 7.5861V4.00024C21 3.73511 21.1055 3.48072 21.293 3.29323L24.2929 0.29329C24.5796 0.00667528 25.0083 -0.0787722 25.3828 0.0764979C25.7563 0.23128 25.9999 0.596018 25.9999 1.00031V4.00024H28.9999C29.4042 4.00024 29.7689 4.24389 29.9237 4.61742C30.0785 4.99143 29.993 5.42111 29.7069 5.70724ZM21.5899 12.65L17.1202 17.1201C16.5499 17.6899 15.8 17.9999 15.0002 17.9999C14.2004 17.9999 13.4504 17.6899 12.8801 17.1201C11.7102 15.9502 11.7102 14.0498 12.8801 12.8799L17.3502 8.41031C16.6203 8.14029 15.8302 8.00016 15.0002 8.00016C11.1404 8.00016 8.00032 11.1402 8.00032 15C8.00032 18.8598 11.1404 21.9999 15.0002 21.9999C18.86 21.9999 22 18.8598 22 15C22 14.17 21.8599 13.3799 21.5899 12.65ZM29.9999 15C29.9999 23.2699 23.27 29.9997 15.0002 29.9997C6.73033 29.9997 0.000488281 23.2699 0.000488281 15C0.000488281 6.73017 6.73033 0.000327765 15.0002 0.000327765C16.9503 0.000327765 18.86 0.380203 20.6402 1.12042L19.8799 1.88017C19.3101 2.45047 19.0001 3.20046 19.0001 4.00024V6.75995L18.88 6.88006C17.7003 6.32002 16.3903 6.0002 15.0002 6.0002C10.0403 6.0002 6.00036 10.0402 6.00036 15C6.00036 19.9599 10.0403 23.9998 15.0002 23.9998C19.96 23.9998 24 19.9599 24 15C24 13.6099 23.6802 12.2999 23.1201 11.1202L23.2402 11.0001H25.9999C26.7997 11.0001 27.5497 10.69 28.12 10.1202L28.8798 9.35999C29.62 11.1402 29.9999 13.0499 29.9999 15Z" fill="#4E43DF"/>
</g>
<defs>
<clipPath id="clip0_1346_7854">
<rect width="30" height="30" fill="white"/>
</clipPath>
</defs>
</svg>
