<svg width="108" height="33" viewBox="0 0 108 33" fill="none" xmlns="http://www.w3.org/2000/svg">
<g clip-path="url(#clip0_1686_5668)">
<path d="M20.6389 11.945C22.6709 13.4212 25.16 14.2898 27.8485 14.2898V9.03181C27.3397 9.03192 26.8322 8.978 26.3344 8.87081V13.0096C23.6462 13.0096 21.1573 12.141 19.1249 10.6649V21.3949C19.1249 26.7626 14.8436 31.1136 9.56258 31.1136C7.59212 31.1136 5.76065 30.5082 4.23926 29.4698C5.97568 31.2743 8.39726 32.3937 11.0763 32.3937C16.3576 32.3937 20.6392 28.0427 20.6392 22.6747V11.945H20.6389ZM22.5067 6.64031C21.4683 5.48728 20.7865 3.99721 20.6389 2.34987V1.67358H19.2042C19.5653 3.76735 20.7972 5.55614 22.5067 6.64031ZM7.57948 25.3508C6.99931 24.5776 6.68578 23.6318 6.68719 22.6594C6.68719 20.2044 8.64544 18.2139 11.0614 18.2139C11.5117 18.2137 11.9592 18.2838 12.3883 18.4222V13.0467C11.8868 12.9769 11.3808 12.9472 10.8749 12.9581V17.1421C10.4455 17.0037 9.99771 16.9334 9.54735 16.9339C7.13139 16.9339 5.17324 18.9242 5.17324 21.3795C5.17324 23.1156 6.15205 24.6186 7.57948 25.3508Z" fill="#FF004F"/>
<path d="M19.1252 10.6648C21.1576 12.1409 23.6465 13.0095 26.3347 13.0095V8.8707C24.8342 8.54584 23.5058 7.74886 22.507 6.64031C20.7973 5.55603 19.5656 3.76724 19.2045 1.67358H15.4357V22.6745C15.4272 25.1228 13.4722 27.1052 11.0615 27.1052C9.64084 27.1052 8.37875 26.4169 7.57944 25.3508C6.15211 24.6186 5.17331 23.1155 5.17331 21.3796C5.17331 18.9245 7.13146 16.934 9.54742 16.934C10.0103 16.934 10.4565 17.0072 10.875 17.1422V12.9582C5.68674 13.0671 1.51416 17.3757 1.51416 22.6746C1.51416 25.3198 2.55323 27.7178 4.23965 29.4699C5.76104 30.5082 7.59251 31.1137 9.56297 31.1137C14.8441 31.1137 19.1253 26.7624 19.1253 21.3949V10.6648H19.1252Z" fill="white"/>
<path d="M26.3345 8.87065V7.75156C24.9814 7.75365 23.6548 7.3685 22.5068 6.64015C23.523 7.771 24.8613 8.55074 26.3345 8.87065ZM19.2042 1.67354C19.1698 1.47344 19.1433 1.27203 19.125 1.06984V0.393555H13.9213V21.3947C13.913 23.8427 11.9582 25.8251 9.5472 25.8251C8.83937 25.8251 8.17106 25.6543 7.57922 25.3509C8.37853 26.4169 9.64062 27.105 11.0613 27.105C13.4718 27.105 15.427 25.1229 15.4355 22.6746V1.67354H19.2042ZM10.875 12.9581V11.7668C10.4401 11.7064 10.0018 11.6761 9.56286 11.6763C4.28134 11.6762 0 16.0275 0 21.3947C0 24.7597 1.68264 27.7252 4.23954 29.4696C2.55312 27.7176 1.51405 25.3196 1.51405 22.6745C1.51405 17.3756 5.68652 13.0671 10.875 12.9581Z" fill="#00F2EA"/>
<path d="M86.6295 26.7136C90.4083 26.7136 93.4717 23.6236 93.4717 19.8123C93.4717 16.0012 90.4083 12.9106 86.6295 12.9106H85.5986C89.3776 12.9106 92.441 16.0011 92.441 19.8123C92.441 23.6236 89.3776 26.7136 85.5986 26.7136H86.6295Z" fill="#FF004F"/>
<path d="M85.5052 12.9106H84.4745C80.6958 12.9106 77.6318 16.0011 77.6318 19.8123C77.6318 23.6236 80.6958 26.7136 84.4745 26.7136H85.5052C81.726 26.7136 78.6626 23.6236 78.6626 19.8123C78.6625 16.0012 81.726 12.9106 85.5052 12.9106Z" fill="#00F2EA"/>
<path d="M33.4868 9.79126V13.2894H37.5164V26.619H41.5476V13.3839H44.8278L45.9525 9.79137L33.4868 9.79126ZM66.4789 9.79126V13.2894H70.5085V26.619H74.5397V13.3839H77.8197L78.9443 9.79137L66.4789 9.79126ZM46.703 11.7764C46.703 10.6803 47.5828 9.79126 48.6697 9.79126C49.7576 9.79126 50.6383 10.6803 50.6383 11.7764C50.6383 12.8727 49.7581 13.7617 48.6697 13.7617C47.5828 13.7611 46.703 12.8727 46.703 11.7764ZM46.703 15.1801H50.6383V26.619H46.703V15.1801ZM52.3257 9.79126V26.6189H56.2625V22.2706L57.4811 21.1352L61.3234 26.7134H65.5408L60.0104 18.5832L64.9781 13.6667H60.1982L56.2625 17.6371V9.79126H52.3257ZM94.7834 9.79126V26.6189H98.7208V22.2706L99.9388 21.1352L103.782 26.7134H108L102.47 18.5832L107.437 13.6667H102.658L98.7208 17.6371V9.79126H94.7834Z" fill="white"/>
<path d="M85.5984 26.7136C89.3771 26.7136 92.441 23.6236 92.441 19.8123C92.441 16.0012 89.3771 12.9106 85.5984 12.9106H85.5049C81.726 12.9106 78.6626 16.0011 78.6626 19.8123C78.6626 23.6236 81.726 26.7136 85.5049 26.7136H85.5984ZM82.2242 19.8123C82.2242 17.9584 83.7146 16.4567 85.5525 16.4567C87.389 16.4567 88.8793 17.9584 88.8793 19.8123C88.8793 21.6663 87.389 23.1688 85.5525 23.1688C83.7146 23.1685 82.2242 21.6663 82.2242 19.8123Z" fill="white"/>
</g>
<defs>
<clipPath id="clip0_1686_5668">
<rect width="108" height="32" fill="white" transform="translate(0 0.393555)"/>
</clipPath>
</defs>
</svg>
