<svg width="124" height="23" viewBox="0 0 124 23" fill="none" xmlns="http://www.w3.org/2000/svg">
<rect x="0.5" y="0.5" width="123" height="22" rx="10.5" fill="#F4FFFE"/>
<path fill-rule="evenodd" clip-rule="evenodd" d="M16.1973 4.92805C15.5011 4.35732 14.4989 4.35732 13.8027 4.92805L13.1066 5.4988C12.8183 5.73519 12.4664 5.88094 12.0954 5.91766L11.1995 6.00634C10.3037 6.09502 9.59502 6.8037 9.50634 7.69952L9.41766 8.59535C9.38094 8.96639 9.23519 9.31825 8.9988 9.60659L8.42805 10.3027C7.85732 10.9989 7.85732 12.0011 8.42805 12.6973L8.9988 13.3934C9.23519 13.6817 9.38094 14.0336 9.41766 14.4046L9.50634 15.3005C9.59502 16.1963 10.3037 16.905 11.1995 16.9937L12.0954 17.0823C12.4664 17.1191 12.8183 17.2648 13.1066 17.5012L13.8027 18.0719C14.4989 18.6427 15.5011 18.6427 16.1973 18.0719L16.8934 17.5012C17.1817 17.2648 17.5336 17.1191 17.9046 17.0823L18.8005 16.9937C19.6963 16.905 20.405 16.1963 20.4937 15.3005L20.5823 14.4046C20.6191 14.0336 20.7648 13.6817 21.0012 13.3934L21.5719 12.6973C22.1427 12.0011 22.1427 10.9989 21.5719 10.3027L21.0012 9.60659C20.7648 9.31825 20.6191 8.96639 20.5823 8.59535L20.4937 7.69952C20.405 6.8037 19.6963 6.09502 18.8005 6.00634L17.9046 5.91766C17.5336 5.88094 17.1817 5.73519 16.8934 5.4988L16.1973 4.92805ZM18.3554 9.97593C18.5895 9.73695 18.5895 9.35461 18.3554 9.11563C18.1143 8.8696 17.7182 8.8696 17.4772 9.11563L14.0873 12.5759L12.5228 10.9789C12.2818 10.7329 11.8857 10.7329 11.6446 10.9789C11.4105 11.2179 11.4105 11.6002 11.6446 11.8392L13.4128 13.6441C13.7831 14.022 14.3915 14.022 14.7618 13.6441L18.3554 9.97593Z" fill="#68B0A6"/>
<path d="M32.6 8.146L29.795 16H28.805L26 8.146H27.034L28.805 13.184C28.8857 13.3967 28.9553 13.602 29.014 13.8C29.0727 13.998 29.124 14.1887 29.168 14.372C29.2193 14.548 29.2633 14.724 29.3 14.9C29.3367 14.724 29.377 14.5443 29.421 14.361C29.4723 14.1777 29.5273 13.987 29.586 13.789C29.652 13.591 29.7217 13.382 29.795 13.162L31.555 8.146H32.6ZM35.5929 9.994C36.0989 9.994 36.5315 10.104 36.8909 10.324C37.2575 10.544 37.5362 10.8557 37.7269 11.259C37.9249 11.655 38.0239 12.1207 38.0239 12.656V13.239H33.9869C34.0015 13.9063 34.1702 14.416 34.4929 14.768C34.8229 15.1127 35.2812 15.285 35.8679 15.285C36.2419 15.285 36.5719 15.252 36.8579 15.186C37.1512 15.1127 37.4519 15.01 37.7599 14.878V15.725C37.4592 15.857 37.1622 15.9523 36.8689 16.011C36.5755 16.077 36.2272 16.11 35.8239 16.11C35.2665 16.11 34.7715 15.9963 34.3389 15.769C33.9135 15.5417 33.5799 15.2043 33.3379 14.757C33.1032 14.3023 32.9859 13.7487 32.9859 13.096C32.9859 12.4507 33.0922 11.897 33.3049 11.435C33.5249 10.973 33.8292 10.6173 34.2179 10.368C34.6139 10.1187 35.0722 9.994 35.5929 9.994ZM35.5819 10.786C35.1199 10.786 34.7532 10.9363 34.4819 11.237C34.2179 11.5303 34.0602 11.941 34.0089 12.469H37.0119C37.0119 12.1317 36.9605 11.8383 36.8579 11.589C36.7552 11.3397 36.5975 11.1453 36.3849 11.006C36.1795 10.8593 35.9119 10.786 35.5819 10.786ZM42.2748 9.994C42.3848 9.994 42.5022 10.0013 42.6268 10.016C42.7588 10.0233 42.8725 10.038 42.9678 10.06L42.8468 10.951C42.7515 10.929 42.6452 10.9107 42.5278 10.896C42.4178 10.8813 42.3115 10.874 42.2088 10.874C41.9815 10.874 41.7652 10.9217 41.5598 11.017C41.3545 11.1123 41.1712 11.248 41.0098 11.424C40.8485 11.5927 40.7202 11.798 40.6248 12.04C40.5368 12.282 40.4928 12.5533 40.4928 12.854V16H39.5248V10.104H40.3168L40.4268 11.182H40.4708C40.5955 10.962 40.7458 10.764 40.9218 10.588C41.0978 10.4047 41.2995 10.2617 41.5268 10.159C41.7542 10.049 42.0035 9.994 42.2748 9.994ZM45.0368 10.104V16H44.0688V10.104H45.0368ZM44.5638 7.893C44.7105 7.893 44.8388 7.94433 44.9488 8.047C45.0661 8.14233 45.1248 8.29633 45.1248 8.509C45.1248 8.71433 45.0661 8.86833 44.9488 8.971C44.8388 9.07367 44.7105 9.125 44.5638 9.125C44.4025 9.125 44.2668 9.07367 44.1568 8.971C44.0468 8.86833 43.9918 8.71433 43.9918 8.509C43.9918 8.29633 44.0468 8.14233 44.1568 8.047C44.2668 7.94433 44.4025 7.893 44.5638 7.893ZM49.6217 10.852H48.1367V16H47.1687V10.852H46.1347V10.401L47.1687 10.071V9.73C47.1687 9.224 47.2421 8.81333 47.3887 8.498C47.5427 8.18267 47.7627 7.95167 48.0487 7.805C48.3347 7.65833 48.6794 7.585 49.0827 7.585C49.3174 7.585 49.5301 7.607 49.7207 7.651C49.9187 7.68767 50.0874 7.73167 50.2267 7.783L49.9737 8.542C49.8564 8.50533 49.7207 8.46867 49.5667 8.432C49.4127 8.39533 49.2551 8.377 49.0937 8.377C48.7711 8.377 48.5291 8.487 48.3677 8.707C48.2137 8.91967 48.1367 9.257 48.1367 9.719V10.104H49.6217V10.852ZM51.6567 10.104V16H50.6887V10.104H51.6567ZM51.1837 7.893C51.3304 7.893 51.4587 7.94433 51.5687 8.047C51.6861 8.14233 51.7447 8.29633 51.7447 8.509C51.7447 8.71433 51.6861 8.86833 51.5687 8.971C51.4587 9.07367 51.3304 9.125 51.1837 9.125C51.0224 9.125 50.8867 9.07367 50.7767 8.971C50.6667 8.86833 50.6117 8.71433 50.6117 8.509C50.6117 8.29633 50.6667 8.14233 50.7767 8.047C50.8867 7.94433 51.0224 7.893 51.1837 7.893ZM55.7989 9.994C56.3049 9.994 56.7376 10.104 57.0969 10.324C57.4636 10.544 57.7422 10.8557 57.9329 11.259C58.1309 11.655 58.2299 12.1207 58.2299 12.656V13.239H54.1929C54.2076 13.9063 54.3762 14.416 54.6989 14.768C55.0289 15.1127 55.4872 15.285 56.0739 15.285C56.4479 15.285 56.7779 15.252 57.0639 15.186C57.3572 15.1127 57.6579 15.01 57.9659 14.878V15.725C57.6652 15.857 57.3682 15.9523 57.0749 16.011C56.7816 16.077 56.4332 16.11 56.0299 16.11C55.4726 16.11 54.9776 15.9963 54.5449 15.769C54.1196 15.5417 53.7859 15.2043 53.5439 14.757C53.3092 14.3023 53.1919 13.7487 53.1919 13.096C53.1919 12.4507 53.2982 11.897 53.5109 11.435C53.7309 10.973 54.0352 10.6173 54.4239 10.368C54.8199 10.1187 55.2782 9.994 55.7989 9.994ZM55.7879 10.786C55.3259 10.786 54.9592 10.9363 54.6879 11.237C54.4239 11.5303 54.2662 11.941 54.2149 12.469H57.2179C57.2179 12.1317 57.1666 11.8383 57.0639 11.589C56.9612 11.3397 56.8036 11.1453 56.5909 11.006C56.3856 10.8593 56.1179 10.786 55.7879 10.786ZM61.8209 16.11C61.0876 16.11 60.5009 15.857 60.0609 15.351C59.6209 14.8377 59.4009 14.075 59.4009 13.063C59.4009 12.051 59.6209 11.2883 60.0609 10.775C60.5082 10.2543 61.0986 9.994 61.8319 9.994C62.1399 9.994 62.4076 10.0343 62.6349 10.115C62.8622 10.1883 63.0602 10.291 63.2289 10.423C63.3976 10.555 63.5406 10.7017 63.6579 10.863H63.7239C63.7166 10.7677 63.7019 10.6283 63.6799 10.445C63.6652 10.2543 63.6579 10.104 63.6579 9.994V7.64H64.6259V16H63.8449L63.7019 15.208H63.6579C63.5406 15.3767 63.3976 15.5307 63.2289 15.67C63.0602 15.802 62.8586 15.9083 62.6239 15.989C62.3966 16.0697 62.1289 16.11 61.8209 16.11ZM61.9749 15.307C62.5982 15.307 63.0346 15.1383 63.2839 14.801C63.5406 14.4563 63.6689 13.9393 63.6689 13.25V13.074C63.6689 12.3407 63.5479 11.7797 63.3059 11.391C63.0639 10.995 62.6166 10.797 61.9639 10.797C61.4432 10.797 61.0509 11.006 60.7869 11.424C60.5302 11.8347 60.4019 12.3883 60.4019 13.085C60.4019 13.789 60.5302 14.3353 60.7869 14.724C61.0509 15.1127 61.4469 15.307 61.9749 15.307ZM71.6549 8.146C72.3076 8.146 72.8429 8.23033 73.2609 8.399C73.6862 8.56033 74.0016 8.806 74.2069 9.136C74.4122 9.466 74.5149 9.88033 74.5149 10.379C74.5149 10.797 74.4379 11.1453 74.2839 11.424C74.1299 11.7027 73.9319 11.9263 73.6899 12.095C73.4552 12.2563 73.2059 12.3847 72.9419 12.48L75.0979 16H73.9429L72.0399 12.755H70.4779V16H69.4879V8.146H71.6549ZM71.5999 9.004H70.4779V11.919H71.6549C72.0802 11.919 72.4286 11.864 72.6999 11.754C72.9712 11.6367 73.1692 11.468 73.2939 11.248C73.4259 11.028 73.4919 10.753 73.4919 10.423C73.4919 10.0783 73.4222 9.80333 73.2829 9.598C73.1509 9.39267 72.9456 9.24233 72.6669 9.147C72.3882 9.05167 72.0326 9.004 71.5999 9.004ZM78.4757 9.994C78.9817 9.994 79.4143 10.104 79.7737 10.324C80.1403 10.544 80.419 10.8557 80.6097 11.259C80.8077 11.655 80.9067 12.1207 80.9067 12.656V13.239H76.8697C76.8843 13.9063 77.053 14.416 77.3757 14.768C77.7057 15.1127 78.164 15.285 78.7507 15.285C79.1247 15.285 79.4547 15.252 79.7407 15.186C80.034 15.1127 80.3347 15.01 80.6427 14.878V15.725C80.342 15.857 80.045 15.9523 79.7517 16.011C79.4583 16.077 79.11 16.11 78.7067 16.11C78.1493 16.11 77.6543 15.9963 77.2217 15.769C76.7963 15.5417 76.4627 15.2043 76.2207 14.757C75.986 14.3023 75.8687 13.7487 75.8687 13.096C75.8687 12.4507 75.975 11.897 76.1877 11.435C76.4077 10.973 76.712 10.6173 77.1007 10.368C77.4967 10.1187 77.955 9.994 78.4757 9.994ZM78.4647 10.786C78.0027 10.786 77.636 10.9363 77.3647 11.237C77.1007 11.5303 76.943 11.941 76.8917 12.469H79.8947C79.8947 12.1317 79.8433 11.8383 79.7407 11.589C79.638 11.3397 79.4803 11.1453 79.2677 11.006C79.0623 10.8593 78.7947 10.786 78.4647 10.786ZM83.4908 16L81.2578 10.104H82.2918L83.5458 13.58C83.6045 13.7413 83.6668 13.921 83.7328 14.119C83.7988 14.317 83.8575 14.5077 83.9088 14.691C83.9601 14.867 83.9968 15.0173 84.0188 15.142H84.0628C84.0921 15.0173 84.1325 14.8633 84.1838 14.68C84.2425 14.4967 84.3048 14.306 84.3708 14.108C84.4441 13.91 84.5065 13.734 84.5578 13.58L85.8118 10.104H86.8458L84.6018 16H83.4908ZM88.7468 10.104V16H87.7788V10.104H88.7468ZM88.2738 7.893C88.4204 7.893 88.5488 7.94433 88.6588 8.047C88.7761 8.14233 88.8348 8.29633 88.8348 8.509C88.8348 8.71433 88.7761 8.86833 88.6588 8.971C88.5488 9.07367 88.4204 9.125 88.2738 9.125C88.1124 9.125 87.9768 9.07367 87.8668 8.971C87.7568 8.86833 87.7018 8.71433 87.7018 8.509C87.7018 8.29633 87.7568 8.14233 87.8668 8.047C87.9768 7.94433 88.1124 7.893 88.2738 7.893ZM92.8917 9.994C93.3977 9.994 93.8304 10.104 94.1897 10.324C94.5564 10.544 94.835 10.8557 95.0257 11.259C95.2237 11.655 95.3227 12.1207 95.3227 12.656V13.239H91.2857C91.3004 13.9063 91.469 14.416 91.7917 14.768C92.1217 15.1127 92.58 15.285 93.1667 15.285C93.5407 15.285 93.8707 15.252 94.1567 15.186C94.45 15.1127 94.7507 15.01 95.0587 14.878V15.725C94.758 15.857 94.461 15.9523 94.1677 16.011C93.8744 16.077 93.526 16.11 93.1227 16.11C92.5654 16.11 92.0704 15.9963 91.6377 15.769C91.2124 15.5417 90.8787 15.2043 90.6367 14.757C90.402 14.3023 90.2847 13.7487 90.2847 13.096C90.2847 12.4507 90.391 11.897 90.6037 11.435C90.8237 10.973 91.128 10.6173 91.5167 10.368C91.9127 10.1187 92.371 9.994 92.8917 9.994ZM92.8807 10.786C92.4187 10.786 92.052 10.9363 91.7807 11.237C91.5167 11.5303 91.359 11.941 91.3077 12.469H94.3107C94.3107 12.1317 94.2594 11.8383 94.1567 11.589C94.054 11.3397 93.8964 11.1453 93.6837 11.006C93.4784 10.8593 93.2107 10.786 92.8807 10.786ZM100.415 12.667C100.371 12.513 100.327 12.3627 100.283 12.216C100.239 12.062 100.198 11.919 100.162 11.787C100.132 11.6477 100.103 11.5193 100.074 11.402C100.044 11.2847 100.022 11.1857 100.008 11.105H99.9638C99.9492 11.1857 99.9272 11.2847 99.8978 11.402C99.8758 11.5193 99.8465 11.6477 99.8098 11.787C99.7805 11.9263 99.7438 12.073 99.6998 12.227C99.6632 12.3737 99.6192 12.524 99.5678 12.678L98.5118 15.989H97.4118L95.7948 10.093H96.7958L97.6098 13.239C97.6685 13.4517 97.7235 13.668 97.7748 13.888C97.8262 14.1007 97.8702 14.306 97.9068 14.504C97.9508 14.6947 97.9802 14.8597 97.9948 14.999H98.0388C98.0608 14.911 98.0865 14.801 98.1158 14.669C98.1452 14.537 98.1745 14.3977 98.2038 14.251C98.2405 14.1043 98.2772 13.9577 98.3138 13.811C98.3578 13.6643 98.3982 13.5323 98.4348 13.415L99.4798 10.093H100.536L101.548 13.415C101.599 13.5837 101.65 13.7633 101.702 13.954C101.76 14.1447 101.812 14.3317 101.856 14.515C101.9 14.691 101.929 14.8487 101.944 14.988H101.988C102.002 14.8633 102.028 14.7093 102.065 14.526C102.109 14.3353 102.156 14.13 102.208 13.91C102.266 13.6827 102.325 13.459 102.384 13.239L103.209 10.093H104.199L102.56 15.989H101.427L100.415 12.667ZM107.533 9.994C108.039 9.994 108.472 10.104 108.831 10.324C109.198 10.544 109.477 10.8557 109.667 11.259C109.865 11.655 109.964 12.1207 109.964 12.656V13.239H105.927C105.942 13.9063 106.111 14.416 106.433 14.768C106.763 15.1127 107.222 15.285 107.808 15.285C108.182 15.285 108.512 15.252 108.798 15.186C109.092 15.1127 109.392 15.01 109.7 14.878V15.725C109.4 15.857 109.103 15.9523 108.809 16.011C108.516 16.077 108.168 16.11 107.764 16.11C107.207 16.11 106.712 15.9963 106.279 15.769C105.854 15.5417 105.52 15.2043 105.278 14.757C105.044 14.3023 104.926 13.7487 104.926 13.096C104.926 12.4507 105.033 11.897 105.245 11.435C105.465 10.973 105.77 10.6173 106.158 10.368C106.554 10.1187 107.013 9.994 107.533 9.994ZM107.522 10.786C107.06 10.786 106.694 10.9363 106.422 11.237C106.158 11.5303 106.001 11.941 105.949 12.469H108.952C108.952 12.1317 108.901 11.8383 108.798 11.589C108.696 11.3397 108.538 11.1453 108.325 11.006C108.12 10.8593 107.852 10.786 107.522 10.786ZM114.215 9.994C114.325 9.994 114.443 10.0013 114.567 10.016C114.699 10.0233 114.813 10.038 114.908 10.06L114.787 10.951C114.692 10.929 114.586 10.9107 114.468 10.896C114.358 10.8813 114.252 10.874 114.149 10.874C113.922 10.874 113.706 10.9217 113.5 11.017C113.295 11.1123 113.112 11.248 112.95 11.424C112.789 11.5927 112.661 11.798 112.565 12.04C112.477 12.282 112.433 12.5533 112.433 12.854V16H111.465V10.104H112.257L112.367 11.182H112.411C112.536 10.962 112.686 10.764 112.862 10.588C113.038 10.4047 113.24 10.2617 113.467 10.159C113.695 10.049 113.944 9.994 114.215 9.994Z" fill="#68B0A6"/>
<rect x="0.5" y="0.5" width="123" height="22" rx="10.5" stroke="#68B0A6"/>
</svg>
