<svg width="18" height="18" viewBox="0 0 18 18" fill="none" xmlns="http://www.w3.org/2000/svg">
<g id="verified">
<path id="Vector" fill-rule="evenodd" clip-rule="evenodd" d="M9.41823 0.545026C9.72908 0.635576 10.0063 0.873158 10.5606 1.34832L11.1577 1.86013C11.4073 2.07401 11.532 2.18095 11.6728 2.25712C11.7976 2.32469 11.9314 2.37419 12.0702 2.40414C12.2266 2.43791 12.391 2.43791 12.7196 2.43791L13.1612 2.43791C14.0013 2.43791 14.4213 2.43791 14.7422 2.6014C15.0245 2.74521 15.2539 2.97468 15.3977 3.25692C15.5612 3.57779 15.5612 3.99783 15.5612 4.83791L15.5612 5.27951L15.5612 5.27952C15.5612 5.60817 15.5612 5.77249 15.595 5.92893C15.6249 6.06769 15.6744 6.20151 15.742 6.32636C15.8182 6.46711 15.9251 6.59188 16.139 6.84141L16.6508 7.43851C17.126 7.99287 17.3636 8.27005 17.4541 8.58091C17.5339 8.85488 17.5339 9.14594 17.4541 9.41992C17.3636 9.73077 17.126 10.0079 16.6508 10.5623L16.139 11.1594L16.139 11.1594C15.9251 11.4089 15.8182 11.5337 15.742 11.6745C15.6744 11.7993 15.6249 11.9331 15.595 12.0719C15.5612 12.2283 15.5612 12.3927 15.5612 12.7213L15.5612 13.1629C15.5612 14.003 15.5612 14.423 15.3977 14.7439C15.2539 15.0261 15.0245 15.2556 14.7422 15.3994C14.4213 15.5629 14.0013 15.5629 13.1612 15.5629L12.7196 15.5629C12.391 15.5629 12.2266 15.5629 12.0702 15.5967C11.9314 15.6266 11.7976 15.6761 11.6728 15.7437C11.532 15.8199 11.4073 15.9268 11.1578 16.1407L11.1577 16.1407L10.5606 16.6525C10.0063 17.1277 9.72908 17.3652 9.41823 17.4558C9.14425 17.5356 8.85319 17.5356 8.57922 17.4558C8.26836 17.3652 7.99118 17.1277 7.43682 16.6525L6.83972 16.1407C6.59019 15.9268 6.46543 15.8199 6.32467 15.7437C6.19982 15.6761 6.06601 15.6266 5.92724 15.5967C5.7708 15.5629 5.60647 15.5629 5.27782 15.5629L4.81056 15.5629C3.97048 15.5629 3.55044 15.5629 3.22957 15.3994C2.94733 15.2556 2.71786 15.0261 2.57405 14.7439C2.41056 14.423 2.41056 14.003 2.41056 13.1629L2.41056 12.7118C2.41056 12.3859 2.41056 12.223 2.37733 12.0678C2.34785 11.93 2.29913 11.7972 2.23259 11.6731C2.15759 11.5331 2.05226 11.4088 1.8416 11.1602L1.84159 11.1602L1.32617 10.552C0.859092 10.0008 0.625552 9.72515 0.536447 9.41665C0.457901 9.14472 0.457901 8.8561 0.536447 8.58417C0.625553 8.27567 0.859092 8.00007 1.32617 7.44886L1.84159 6.84059C2.05226 6.59198 2.15759 6.46768 2.23259 6.32776C2.29913 6.20364 2.34785 6.07077 2.37733 5.93307C2.41056 5.77783 2.41056 5.6149 2.41056 5.28904L2.41056 4.83791C2.41056 3.99783 2.41056 3.57779 2.57405 3.25692C2.71786 2.97468 2.94733 2.74521 3.22957 2.6014C3.55044 2.43791 3.97048 2.43791 4.81056 2.43791L5.27782 2.43791C5.60647 2.43791 5.7708 2.43791 5.92724 2.40414C6.06601 2.37419 6.19982 2.32469 6.32467 2.25712C6.46543 2.18095 6.59019 2.07401 6.83972 1.86013L7.43682 1.34832C7.99118 0.873158 8.26836 0.635576 8.57922 0.545026C8.85319 0.465218 9.14425 0.465218 9.41823 0.545026ZM12.3971 7.1476C12.6168 6.92793 12.6168 6.57177 12.3971 6.3521C12.1774 6.13243 11.8213 6.13243 11.6016 6.3521L8.24935 9.70436L7.1471 8.6021C6.92743 8.38243 6.57127 8.38243 6.3516 8.6021C6.13193 8.82177 6.13193 9.17793 6.3516 9.3976L7.8516 10.8976C7.95709 11.0031 8.10016 11.0624 8.24935 11.0624C8.39853 11.0624 8.54161 11.0031 8.6471 10.8976L12.3971 7.1476Z" fill="#5278FF"/>
</g>
</svg>
