<svg width="18" height="18" viewBox="0 0 18 18" fill="none" xmlns="http://www.w3.org/2000/svg">
<g id="verified">
<path id="Vector" fill-rule="evenodd" clip-rule="evenodd" d="M9.4192 0.545018C9.73006 0.635568 10.0072 0.873151 10.5616 1.34832L11.1587 1.86012L11.1587 1.86013C11.4082 2.07401 11.533 2.18094 11.6738 2.25711C11.7986 2.32468 11.9324 2.37418 12.0712 2.40413C12.2276 2.4379 12.392 2.4379 12.7206 2.4379L13.1622 2.4379C14.0023 2.4379 14.4223 2.4379 14.7432 2.60139C15.0254 2.7452 15.2549 2.97467 15.3987 3.25692C15.5622 3.57778 15.5622 3.99782 15.5622 4.8379L15.5622 5.2795C15.5622 5.60815 15.5622 5.77248 15.596 5.92892C15.6259 6.06769 15.6754 6.2015 15.743 6.32635C15.8192 6.46711 15.9261 6.59187 16.14 6.8414L16.6518 7.4385L16.6518 7.43851C17.127 7.99287 17.3645 8.27004 17.4551 8.5809C17.5349 8.85487 17.5349 9.14593 17.4551 9.41991C17.3645 9.73076 17.127 10.0079 16.6518 10.5623L16.14 11.1594C15.9261 11.4089 15.8192 11.5337 15.743 11.6745C15.6754 11.7993 15.6259 11.9331 15.596 12.0719C15.5622 12.2283 15.5622 12.3927 15.5622 12.7213L15.5622 13.1629C15.5622 14.003 15.5622 14.423 15.3987 14.7439C15.2549 15.0261 15.0254 15.2556 14.7432 15.3994C14.4223 15.5629 14.0023 15.5629 13.1622 15.5629L12.7206 15.5629C12.392 15.5629 12.2276 15.5629 12.0712 15.5967C11.9324 15.6266 11.7986 15.6761 11.6738 15.7437C11.533 15.8199 11.4082 15.9268 11.1587 16.1407L10.5616 16.6525C10.0072 17.1277 9.73006 17.3652 9.4192 17.4558C9.14523 17.5356 8.85417 17.5356 8.58019 17.4558C8.26934 17.3652 7.99216 17.1277 7.43781 16.6525L7.4378 16.6525L6.8407 16.1407C6.59117 15.9268 6.4664 15.8199 6.32565 15.7437C6.2008 15.6761 6.06698 15.6266 5.92822 15.5967C5.77177 15.5629 5.60745 15.5629 5.2788 15.5629L4.81154 15.5629C3.97146 15.5629 3.55142 15.5629 3.23055 15.3994C2.94831 15.2556 2.71884 15.0261 2.57503 14.7439C2.41154 14.423 2.41154 14.003 2.41154 13.1629L2.41154 12.7118C2.41154 12.3859 2.41154 12.223 2.3783 12.0677C2.34883 11.93 2.3001 11.7972 2.23357 11.6731C2.15856 11.5331 2.05323 11.4088 1.84257 11.1602L1.32715 10.552C0.860068 10.0007 0.626529 9.72514 0.537423 9.41664C0.458878 9.14471 0.458878 8.8561 0.537423 8.58416C0.626529 8.27566 0.860068 8.00006 1.32715 7.44885L1.84257 6.84058C2.05323 6.59197 2.15856 6.46767 2.23357 6.32775C2.3001 6.20363 2.34883 6.07076 2.3783 5.93306C2.41154 5.77782 2.41154 5.61489 2.41154 5.28903L2.41154 4.8379C2.41154 3.99782 2.41154 3.57778 2.57503 3.25692C2.71884 2.97467 2.94831 2.7452 3.23055 2.60139C3.55142 2.4379 3.97146 2.4379 4.81154 2.4379L5.2788 2.4379C5.60745 2.4379 5.77177 2.4379 5.92822 2.40413C6.06698 2.37418 6.2008 2.32468 6.32565 2.25711C6.4664 2.18094 6.59117 2.074 6.8407 1.86012L6.8407 1.86012L7.4378 1.34832C7.99216 0.873151 8.26934 0.635568 8.58019 0.545018C8.85417 0.46521 9.14523 0.46521 9.4192 0.545018ZM12.3977 7.14775C12.6174 6.92808 12.6174 6.57192 12.3977 6.35225C12.178 6.13258 11.8219 6.13259 11.6022 6.35225L8.24996 9.70451L7.14771 8.60226C6.92804 8.38259 6.57188 8.38259 6.35221 8.60225C6.13254 8.82192 6.13254 9.17808 6.35221 9.39775L7.85221 10.8978C7.9577 11.0032 8.10077 11.0625 8.24996 11.0625C8.39914 11.0625 8.54222 11.0032 8.64771 10.8978L12.3977 7.14775Z" fill="#5278FF"/>
</g>
</svg>
