<svg width="62" height="62" viewBox="0 0 62 62" fill="none" xmlns="http://www.w3.org/2000/svg">
<rect x="0.5" y="0.5" width="61" height="61" rx="7.5" fill="white"/>
<path d="M39.5 32.35C40.2456 32.35 40.85 31.7456 40.85 31C40.85 30.2544 40.2456 29.65 39.5 29.65L39.5 32.35ZM20.0454 30.0454C19.5182 30.5726 19.5182 31.4274 20.0454 31.9546L28.6368 40.5459C29.164 41.0731 30.0187 41.0731 30.5459 40.5459C31.0731 40.0187 31.0731 39.164 30.5459 38.6368L22.9092 31L30.5459 23.3632C31.0731 22.836 31.0731 21.9813 30.5459 21.4541C30.0187 20.9268 29.164 20.9268 28.6368 21.4541L20.0454 30.0454ZM39.5 29.65L21 29.65L21 32.35L39.5 32.35L39.5 29.65Z" fill="#4E43DF"/>
<rect x="0.5" y="0.5" width="61" height="61" rx="7.5" stroke="#EDF2FE"/>
</svg>
