<svg width="62" height="62" viewBox="0 0 62 62" fill="none" xmlns="http://www.w3.org/2000/svg">
<rect width="62" height="62" rx="8" fill="#4E43DF"/>
<path d="M21 29.65C20.2544 29.65 19.65 30.2544 19.65 31C19.65 31.7456 20.2544 32.35 21 32.35L21 29.65ZM40.4546 31.9546C40.9818 31.4274 40.9818 30.5726 40.4546 30.0454L31.8632 21.4541C31.336 20.9269 30.4813 20.9269 29.9541 21.4541C29.4269 21.9813 29.4269 22.836 29.9541 23.3632L37.5908 31L29.9541 38.6368C29.4268 39.164 29.4268 40.0187 29.9541 40.5459C30.4813 41.0732 31.336 41.0732 31.8632 40.5459L40.4546 31.9546ZM21 32.35L39.5 32.35L39.5 29.65L21 29.65L21 32.35Z" fill="white"/>
</svg>
