<svg width="32" height="32" viewBox="0 0 32 32" fill="none" xmlns="http://www.w3.org/2000/svg">
<rect width="32" height="32" rx="16" fill="#0A1330"/>
<path d="M21.8488 12.5922C22.3266 12.1145 22.3266 11.3399 21.8488 10.8622C21.3711 10.3845 20.5966 10.3845 20.1189 10.8622L16.6694 14.3117L13.1365 10.7789C12.6818 10.3242 11.9446 10.3242 11.4899 10.7789C11.0352 11.2336 11.0352 11.9708 11.4899 12.4255L15.0228 15.9583L11.5733 19.4078C11.0956 19.8855 11.0956 20.6601 11.5733 21.1378C12.051 21.6155 12.8255 21.6155 13.3033 21.1378L16.7528 17.6883L20.2856 21.2212C20.7403 21.6759 21.4775 21.6759 21.9322 21.2212C22.3869 20.7665 22.3869 20.0293 21.9322 19.5746L18.3993 16.0417L21.8488 12.5922Z" fill="white"/>
</svg>
