<svg width="20" height="21" viewBox="0 0 20 21" fill="none" xmlns="http://www.w3.org/2000/svg">
<path d="M17.037 6.24049C15.6482 6.70342 13.7965 4.85171 14.2594 3.46293M14.1471 3.57525L11.1551 6.56727C9.85432 7.86802 8.93157 9.49783 8.48541 11.2824L8.34082 11.8607C8.29577 12.0409 8.45899 12.2042 8.63916 12.1591L9.21749 12.0145C11.0021 11.5683 12.6319 10.6456 13.9327 9.34483L16.9247 6.35282C17.293 5.98449 17.4999 5.48493 17.4999 4.96403C17.4999 3.87933 16.6206 3 15.5359 3C15.015 3 14.5154 3.20692 14.1471 3.57525Z" stroke="#4E43DF" stroke-width="1.5"/>
<path d="M10 3C9.14725 3 8.29445 3.09803 7.45869 3.29407C5.14418 3.83697 3.33698 5.64417 2.79407 7.95869C2.40198 9.63025 2.40198 11.3697 2.79407 13.0413C3.33698 15.3558 5.14418 17.163 7.4587 17.7059C9.13025 18.098 10.8698 18.098 12.5413 17.7059C14.8558 17.163 16.663 15.3558 17.2059 13.0413C17.402 12.2055 17.5 11.3527 17.5 10.5" stroke="#4E43DF" stroke-width="1.5" stroke-linecap="round"/>
</svg>
