<svg width="20" height="21" viewBox="0 0 20 21" fill="none" xmlns="http://www.w3.org/2000/svg">
<path d="M14.1318 9.70134L12.8527 10.9804C12.4587 11.3744 12.2877 11.9393 12.397 12.4858L12.6665 13.8333L12.7045 14.0234C12.785 14.4259 12.3464 14.7304 11.9974 14.5144L10.8771 13.8208C10.3396 13.4881 9.66008 13.4881 9.12258 13.8208L8.00222 14.5144C7.65324 14.7304 7.21466 14.4259 7.29515 14.0234L7.33316 13.8333L7.60268 12.4858C7.71196 11.9393 7.54093 11.3744 7.14689 10.9804L5.83316 9.66667C5.52565 9.35917 5.74344 8.83334 6.17834 8.83334H6.24983H7.45092C8.14814 8.83334 8.77166 8.39935 9.01383 7.74553L9.53683 6.33334C9.696 5.9037 10.3037 5.9037 10.4628 6.33334L10.9858 7.74553C11.228 8.39935 11.8515 8.83334 12.5487 8.83334H13.7498H13.7723C14.2252 8.83334 14.4522 9.38101 14.1318 9.70134Z" stroke="#4E43DF" stroke-width="1.5" stroke-linejoin="round"/>
<path d="M2.5 10.5C2.5 4.32375 3.82375 3 10 3C16.1762 3 17.5 4.32375 17.5 10.5C17.5 16.6762 16.1762 18 10 18C3.82375 18 2.5 16.6762 2.5 10.5Z" stroke="#4E43DF" stroke-width="1.5"/>
</svg>
