<svg width="100" height="107" viewBox="0 0 100 107" fill="none" xmlns="http://www.w3.org/2000/svg">
<path d="M94.0498 9.47751C79.9226 -13.8329 59.1287 13.1928 36.7412 13.1928C28.6517 13.1928 12.4204 7.07732 4.58254 15.7441C-9.30611 31.1018 13.0014 43.4091 10.9289 57.3399C9.15761 69.2455 -1.18828 82.8394 8.23725 93.5781C22.9937 110.39 54.7534 110.644 73.247 98.5933C81.2649 93.3684 79.5959 84.5209 79.1137 76.1713C77.8402 54.1198 108.687 33.6291 94.0498 9.47751Z" fill="url(#paint0_linear_359_4981)"/>
<path opacity="0.1" d="M89.8432 80.5273H77.9675L77.8171 79.4298C77.6516 78.2204 77.1587 77.0762 76.3806 76.1361C75.8851 75.5374 75.3751 74.9604 74.8547 74.4024C75.4339 74.4792 76.0236 74.5228 76.6236 74.5228C83.9834 74.5228 89.9495 68.5567 89.9495 61.1969C89.9495 53.6498 83.6759 47.5683 76.0592 47.8827C69.2943 48.1618 63.7538 53.5789 63.325 60.3362C63.1995 62.3156 63.511 64.2071 64.1656 65.9293C59.5345 63.1787 55.5985 61.7388 54.3819 61.3252V56.7744C57.6553 54.8594 59.9312 51.4048 60.187 47.3663L60.2316 46.6599C61.2015 47.4202 62.4597 47.8296 63.8159 47.6922C66.1318 47.4576 68.003 45.5941 68.2449 43.279C68.4556 41.2634 67.4611 39.4597 65.8943 38.4991V27.3509C65.8943 21.2929 60.9834 16.382 54.9254 16.382C54.1308 16.382 53.3896 16.6045 52.7539 16.9849C51.871 16.0133 50.5972 15.4031 49.1809 15.4031H42.8485C40.695 15.4031 38.6789 15.9856 36.9439 16.9977C34.6789 15.4821 31.9243 14.6413 28.9667 14.7661C22.0292 15.0588 16.4222 20.7466 16.2228 27.6874C16.013 34.9877 21.6765 41.0127 28.8364 41.3869C28.6685 41.9803 28.6059 42.618 28.6768 43.2801C28.9253 45.6068 30.812 47.4759 33.1415 47.6956C34.4766 47.8215 35.7145 47.4178 36.6736 46.6722L36.7176 47.366C36.9739 51.4119 39.2574 54.8719 42.5394 56.7848V61.325C41.3065 61.7441 37.2794 63.2174 32.5684 66.0405C30.0867 62.2533 25.7312 59.8044 20.8174 60.0199C13.9646 60.3204 8.40279 65.8831 8.10387 72.7359C7.82013 79.2361 12.1959 84.7622 18.1696 86.2584L15.6239 104.853C15.5334 105.514 16.0472 106.103 16.7143 106.103H80.2074C80.8746 106.103 81.3884 105.514 81.2979 104.853L80.4797 98.8768H89.8434C90.4532 98.8768 90.9441 98.3837 90.9441 97.7762V81.6281C90.9438 81.0204 90.453 80.5273 89.8432 80.5273Z" fill="#2626BC"/>
<path d="M76.6228 69.2397C83.9825 69.2397 89.9487 63.2735 89.9487 55.9138C89.9487 48.5541 83.9825 42.5879 76.6228 42.5879C69.2631 42.5879 63.2969 48.5541 63.2969 55.9138C63.2969 63.2735 69.2631 69.2397 76.6228 69.2397Z" fill="white"/>
<path d="M54.9249 11.099C54.1301 11.099 53.3892 11.3215 52.7535 11.7019C51.8705 10.7303 50.5967 10.1201 49.1804 10.1201H42.848C36.365 10.1201 31.1094 15.3757 31.1094 21.8587V35.3354H50.6836H54.0068H65.8938V22.0676C65.8938 16.0099 60.9829 11.099 54.9249 11.099Z" fill="#6582FD"/>
<path d="M81.4683 100.82L77.8167 74.147C77.6514 72.9396 77.1607 71.7968 76.3837 70.8577C70.8212 64.1363 63.5127 59.9941 58.7839 57.8232H38.1365C33.4077 59.9939 26.099 64.1363 20.5367 70.8577C19.7597 71.7965 19.2691 72.9396 19.1037 74.147L15.4521 100.82" fill="#6582FD"/>
<path d="M50.9373 78.3676C50.6019 78.3676 50.2706 78.2149 50.0544 77.9254L41.2148 66.0831C40.8512 65.596 40.9513 64.9061 41.4384 64.5427C41.9254 64.1793 42.6152 64.2797 42.9788 64.7663L51.8185 76.6086C52.1821 77.0958 52.082 77.7856 51.5948 78.1491C51.3972 78.2963 51.1663 78.3676 50.9373 78.3676Z" fill="white"/>
<path d="M45.929 78.3673C45.6998 78.3673 45.4691 78.2962 45.2715 78.1487C44.7843 77.7853 44.6842 77.0954 45.0478 76.6083L53.8872 64.766C54.2506 64.2789 54.9405 64.1789 55.4276 64.5423C55.9147 64.9058 56.0149 65.5956 55.6513 66.0828L46.8119 77.925C46.5959 78.2143 46.2644 78.3673 45.929 78.3673Z" fill="white"/>
<path d="M48.4604 69.1306C54.153 69.1306 58.7841 64.4994 58.7841 58.8069V57.8236C55.9126 56.5055 53.9918 55.9141 53.9918 55.9141H42.929C42.929 55.9141 41.0082 56.5055 38.1367 57.8236V58.8069C38.1369 64.4994 42.7681 69.1306 48.4604 69.1306Z" fill="white"/>
<path d="M69.5326 100.819H67.316L65.5726 84.4531C65.5088 83.8478 65.9446 83.3063 66.55 83.2424C67.1531 83.1764 67.6968 83.6144 67.7606 84.2198L69.5326 100.819Z" fill="white"/>
<path d="M31.5195 84.4531L29.7762 100.819H27.5596L29.3315 84.2198C29.3954 83.6144 29.9391 83.1764 30.5422 83.2424C31.1475 83.3063 31.5856 83.8478 31.5195 84.4531Z" fill="white"/>
<path d="M54.3806 47.7217V58.807C54.3806 62.0771 51.7295 64.7282 48.4593 64.7282C45.1892 64.7282 42.5381 62.0771 42.5381 58.807V47.7217H54.3806Z" fill="white"/>
<path d="M63.2965 42.4352C66.0442 42.4352 68.2716 40.2078 68.2716 37.46C68.2716 34.7123 66.0442 32.4849 63.2965 32.4849C60.5488 32.4849 58.3213 34.7123 58.3213 37.46C58.3213 40.2078 60.5488 42.4352 63.2965 42.4352Z" fill="white"/>
<path d="M33.6226 42.4352C36.3704 42.4352 38.5978 40.2078 38.5978 37.46C38.5978 34.7123 36.3704 32.4849 33.6226 32.4849C30.8749 32.4849 28.6475 34.7123 28.6475 37.46C28.6475 40.2078 30.8749 42.4352 33.6226 42.4352Z" fill="white"/>
<path d="M60.951 30.0026L60.186 42.0833C59.7938 48.2748 54.6555 53.0966 48.4501 53.0966C42.2473 53.0966 37.109 48.275 36.7167 42.0833L35.9688 30.2716C39.0617 31.2018 45.441 32.0759 51.672 26.5425C51.672 26.5425 53.5377 29.4787 60.951 30.0026Z" fill="white"/>
<path d="M29.5027 36.1167C36.8624 36.1167 42.8286 30.1505 42.8286 22.7908C42.8286 15.4311 36.8624 9.46484 29.5027 9.46484C22.143 9.46484 16.1768 15.4311 16.1768 22.7908C16.1768 30.1505 22.143 36.1167 29.5027 36.1167Z" fill="white"/>
<path d="M31.1516 22.9889L34.3944 27.5971C34.8544 28.2507 34.0984 29.0678 33.403 28.6684L26.88 24.9234C26.4295 24.6649 26.3745 24.0408 26.7726 23.7083L28.0133 22.6725L24.7704 18.0642C24.3105 17.4106 25.0665 16.5935 25.7619 16.9929L32.2849 20.7379C32.7353 20.9964 32.7904 21.6205 32.3922 21.953L31.1516 22.9889Z" fill="#6582FD"/>
<path d="M21.3581 81.3759C28.7178 81.3759 34.6841 75.4097 34.6841 68.05C34.6841 60.6903 28.7178 54.7241 21.3581 54.7241C13.9984 54.7241 8.03223 60.6903 8.03223 68.05C8.03223 75.4097 13.9984 81.3759 21.3581 81.3759Z" fill="white"/>
<path d="M19.7811 68.2992L16.5382 63.691C16.0783 63.0374 16.8342 62.2203 17.5297 62.6196L24.0527 66.3647C24.5031 66.6232 24.5581 67.2473 24.16 67.5798L22.9193 68.6156L26.1622 73.2239C26.6221 73.8775 25.8661 74.6946 25.1707 74.2952L18.6477 70.5502C18.1973 70.2917 18.1422 69.6676 18.5404 69.3351L19.7811 68.2992Z" fill="#6582FD"/>
<path d="M77.2942 57.4673L73.6823 61.7924C73.17 62.4058 72.1851 61.8871 72.3909 61.112L74.32 53.842C74.4531 53.34 75.0417 53.1253 75.466 53.4238L76.7876 54.3541L80.3995 50.029C80.9118 49.4156 81.8967 49.9344 81.691 50.7094L79.7619 57.9794C79.6287 58.4814 79.0401 58.6961 78.6159 58.3976L77.2942 57.4673Z" fill="#6582FD"/>
<path d="M62.4067 84.8859L66.1972 92.96C66.3777 93.3474 66.7673 93.5939 67.1944 93.5939H89.8426C90.4524 93.5939 90.9433 93.1009 90.9433 92.4933V76.3452C90.9433 75.7377 90.4524 75.2446 89.8426 75.2446H67.1944C66.7673 75.2446 66.3777 75.4912 66.1972 75.8786L62.4067 83.9504C62.2681 84.2476 62.2681 84.5908 62.4067 84.8859Z" fill="white"/>
<path d="M77.8884 82.9697L81.5003 78.6446C82.0126 78.0312 82.9975 78.5499 82.7917 79.325L80.8626 86.595C80.7295 87.097 80.1409 87.3117 79.7167 87.0132L78.395 86.0829L74.7831 90.408C74.2708 91.0214 73.2859 90.5027 73.4916 89.7276L75.4208 82.4576C75.5539 81.9556 76.1425 81.7409 76.5667 82.0394L77.8884 82.9697Z" fill="#6582FD"/>
<path d="M89.8437 74.1444H78.9282L78.9079 73.9966C78.7201 72.6416 78.1846 71.3779 77.3616 70.3228C84.9744 69.9367 91.0491 63.6219 91.0491 55.9148C91.0491 47.9598 84.5773 41.4883 76.6224 41.4883C68.6674 41.4883 62.1956 47.9598 62.1956 55.9148C62.1956 56.7535 62.2692 57.5824 62.4109 58.3975C59.4058 56.7935 56.8795 55.7779 55.4819 55.2652V52.0942C58.4969 50.115 60.6449 46.9015 61.178 43.1533C61.8476 43.4029 62.5599 43.5354 63.2963 43.5354C66.6474 43.5354 69.3738 40.8099 69.3738 37.4598C69.3738 35.5001 68.4398 33.7552 66.9943 32.6436V22.067C66.9943 15.4121 61.58 9.99774 54.925 9.99774C54.2491 9.99774 53.5801 10.1276 52.9541 10.3777C51.8988 9.50753 50.5627 9.02062 49.1799 9.02062H42.847C40.8032 9.02062 38.7937 9.50885 36.992 10.4349C34.802 9.11638 32.2453 8.37061 29.5429 8.37061C21.5879 8.37061 15.1161 14.8422 15.1161 22.7971C15.1161 30.079 20.5401 36.114 27.5594 37.0839C27.5517 37.2089 27.5464 37.3344 27.5464 37.4601C27.5464 40.8101 30.2728 43.5356 33.6239 43.5356C34.3538 43.5356 35.0604 43.4053 35.7254 43.1597C36.2612 46.9125 38.4157 50.1287 41.4382 52.1056V55.2654C39.8371 55.8538 36.6015 57.1598 32.8768 59.302C30.2382 55.8534 26.0834 53.6236 21.416 53.6236C13.461 53.6236 6.98926 60.0953 6.98926 68.0503C6.98926 74.4468 11.1751 79.8809 16.9502 81.7661L14.3627 100.671C14.2801 101.273 14.7016 101.828 15.3037 101.91C15.3543 101.917 15.4045 101.921 15.4545 101.921C15.996 101.921 16.4679 101.521 16.5434 100.969L19.1005 82.2886C19.8549 82.4108 20.6277 82.4768 21.4162 82.4768C29.371 82.4768 35.8427 76.0053 35.8427 68.0503C35.8427 65.5519 35.2037 63.2004 34.0816 61.1491C37.1095 59.4163 39.782 58.2635 41.4384 57.619V58.8074C41.4384 62.6793 44.5884 65.8291 48.4603 65.8291C52.3322 65.8291 55.4822 62.6791 55.4822 58.8074V57.6181C57.8029 58.5199 62.003 60.3718 66.4444 63.4035C66.6342 63.5332 66.8501 63.595 67.0638 63.595C67.4154 63.595 67.7607 63.4271 67.9738 63.115C68.3166 62.6129 68.1873 61.9278 67.6852 61.5853C66.7995 60.9807 65.9227 60.422 65.0665 59.9056C64.6238 58.6256 64.3969 57.2853 64.3969 55.9148C64.3969 49.1738 69.8812 43.6895 76.6224 43.6895C83.3636 43.6895 88.8479 49.1738 88.8479 55.9148C88.8479 62.656 83.3636 68.1403 76.6224 68.1403C76.209 68.1403 75.7943 68.1192 75.3853 68.0778C74.6503 67.3048 73.8753 66.5462 73.0635 65.809C72.6133 65.4003 71.9173 65.4337 71.5088 65.8839C71.1002 66.3338 71.1337 67.03 71.5836 67.4384C73.0351 68.7562 74.365 70.1425 75.5365 71.5581C76.1423 72.2907 76.5412 73.1833 76.701 74.1441H67.1937C66.3443 74.1441 65.5622 74.641 65.2012 75.4098L61.4103 83.4832C61.1307 84.0778 61.1307 84.7601 61.4103 85.3545L65.2012 93.4281C65.5622 94.1969 66.3443 94.6938 67.1937 94.6938H79.5185L80.3768 100.969C80.4523 101.52 80.9242 101.92 81.4659 101.92C81.5157 101.92 81.5659 101.917 81.6165 101.91C82.2187 101.828 82.6401 101.273 82.5577 100.67L81.7402 94.6938H89.8435C91.0573 94.6938 92.0447 93.7063 92.0447 92.4926V76.3456C92.045 75.1318 91.0575 74.1444 89.8437 74.1444ZM21.4162 80.2754C14.675 80.2754 9.19069 74.7911 9.19069 68.0501C9.19069 61.3089 14.675 55.8245 21.4162 55.8245C28.1574 55.8245 33.6415 61.3089 33.6415 68.0501C33.6415 74.7911 28.1572 80.2754 21.4162 80.2754ZM67.1726 37.4601C67.1726 39.5963 65.4336 41.3344 63.2963 41.3344C62.6075 41.3344 61.9513 41.1559 61.3689 40.8187L61.8087 33.8824C62.2769 33.6881 62.782 33.5859 63.2963 33.5859C65.4336 33.5859 67.1726 35.324 67.1726 37.4601ZM33.6241 41.3342C31.4868 41.3342 29.7478 39.5961 29.7478 37.4598C29.7478 37.3793 29.7511 37.2989 29.7562 37.2188C31.6814 37.1904 33.535 36.7797 35.2321 36.0491L35.5346 40.8279C34.9563 41.159 34.3061 41.3342 33.6241 41.3342ZM52.4425 25.7448C52.1498 25.3688 50.9461 23.7084 50.4432 21.2437C50.3217 20.6481 49.7399 20.2635 49.1447 20.3855C48.549 20.5072 48.1649 21.0885 48.2864 21.684C48.7196 23.8059 49.5807 25.4221 50.183 26.3558C47.7156 28.3354 45.0288 29.4826 42.1659 29.7785C42.7187 28.7809 43.16 27.7076 43.4673 26.5711C43.626 25.9843 43.2791 25.38 42.6923 25.2213C42.1052 25.0609 41.5012 25.4093 41.3425 25.9964C39.9053 31.311 35.0532 35.0224 29.5429 35.0224C22.8017 35.0224 17.3173 29.5381 17.3173 22.7971C17.3173 16.0561 22.8017 10.5718 29.5429 10.5718C35.1615 10.5718 40.0376 14.3737 41.401 19.8176C41.5487 20.4073 42.1472 20.7652 42.7361 20.6179C43.3258 20.4702 43.6839 19.8724 43.5362 19.2829C42.8006 16.3454 41.1965 13.8151 39.0402 11.9313C40.248 11.4682 41.5379 11.2221 42.847 11.2221H49.1799C50.2277 11.2221 51.2332 11.6669 51.938 12.4422C52.2909 12.8303 52.8682 12.9157 53.3177 12.6462C53.8059 12.3539 54.3618 12.1994 54.925 12.1994C60.3662 12.1994 64.7931 16.626 64.7931 22.0674V31.572C64.3141 31.4503 63.8127 31.3852 63.2963 31.3852C62.8432 31.3852 62.3946 31.4382 61.9575 31.5368L62.0504 30.0726C62.0887 29.469 61.6328 28.9478 61.0297 28.9051C54.5984 28.4501 52.564 25.9057 52.4425 25.7448ZM53.2807 58.8074C53.2807 61.4654 51.1183 63.6278 48.4601 63.6278C45.8019 63.6278 43.6394 61.4654 43.6394 58.8074V53.2573C45.1297 53.8624 46.7542 54.1981 48.4513 54.1981C50.1552 54.1981 51.7857 53.8597 53.2807 53.2502V58.8074ZM48.4513 51.9969C42.8413 51.9969 38.1694 47.6114 37.815 42.0133L37.3655 34.9124C38.5775 34.1292 39.6678 33.1651 40.5993 32.0556C44.5289 32.064 48.2959 30.6933 51.584 28.0565C52.7095 29.0402 55.1137 30.4983 59.7855 31.0035L59.0873 42.0135C58.7334 47.6114 54.0615 51.9969 48.4513 51.9969ZM89.8437 92.4926H67.1937L63.4026 84.419L67.1937 76.3454H89.8435V92.4926H89.8437Z" fill="#2626BC"/>
<path d="M5.59524 54.2715C4.98748 54.2715 4.49463 53.7789 4.49463 53.1709C4.49463 52.4023 3.86927 51.7769 3.10061 51.7769C2.49285 51.7769 2 51.2843 2 50.6763C2 50.0683 2.49285 49.5757 3.10061 49.5757C3.86927 49.5757 4.49463 48.9503 4.49463 48.1817C4.49463 47.5737 4.98748 47.0811 5.59524 47.0811C6.20299 47.0811 6.69584 47.5737 6.69584 48.1817C6.69584 48.9503 7.32121 49.5757 8.08987 49.5757C8.69763 49.5757 9.19048 50.0683 9.19048 50.6763C9.19048 51.2843 8.69763 51.7769 8.08987 51.7769C7.32121 51.7769 6.69584 52.4023 6.69584 53.1709C6.69584 53.7787 6.20299 54.2715 5.59524 54.2715Z" fill="#6582FD"/>
<path d="M14.2329 44.9607C13.6252 44.9607 13.1323 44.4681 13.1323 43.8601C13.1323 43.0915 12.507 42.4659 11.7383 42.4659C11.1305 42.4659 10.6377 41.9732 10.6377 41.3653C10.6377 40.7573 11.1305 40.2647 11.7383 40.2647C12.507 40.2647 13.1323 39.6393 13.1323 38.8706C13.1323 38.2627 13.6252 37.77 14.2329 37.77C14.8407 37.77 15.3335 38.2627 15.3335 38.8706C15.3335 39.6393 15.9589 40.2647 16.7276 40.2647C17.3353 40.2647 17.8282 40.7573 17.8282 41.3653C17.8282 41.9732 17.3353 42.4659 16.7276 42.4659C15.9589 42.4659 15.3335 43.0915 15.3335 43.8601C15.3335 44.4681 14.8407 44.9607 14.2329 44.9607Z" fill="#6582FD"/>
<path d="M71.4419 13.8577C70.8342 13.8577 70.3413 13.3651 70.3413 12.7571C70.3413 11.9884 69.7159 11.3628 68.9473 11.3628C68.3395 11.3628 67.8467 10.8702 67.8467 10.2622C67.8467 9.65426 68.3395 9.16163 68.9473 9.16163C69.7159 9.16163 70.3413 8.53626 70.3413 7.7676C70.3413 7.15962 70.8342 6.66699 71.4419 6.66699C72.0497 6.66699 72.5425 7.15962 72.5425 7.7676C72.5425 8.53626 73.1679 9.16163 73.9365 9.16163C74.5443 9.16163 75.0372 9.65426 75.0372 10.2622C75.0372 10.8702 74.5443 11.3628 73.9365 11.3628C73.1679 11.3628 72.5425 11.9884 72.5425 12.7571C72.5425 13.3651 72.0497 13.8577 71.4419 13.8577Z" fill="#6582FD"/>
<path d="M95.6324 72.6424C95.0246 72.6424 94.5317 72.1497 94.5317 71.5418C94.5317 70.7731 93.9064 70.1477 93.1377 70.1477C92.53 70.1477 92.0371 69.6551 92.0371 69.0471C92.0371 68.4391 92.53 67.9465 93.1377 67.9465C93.9064 67.9465 94.5317 67.3209 94.5317 66.5523C94.5317 65.9443 95.0246 65.4517 95.6324 65.4517C96.2401 65.4517 96.733 65.9443 96.733 66.5523C96.733 67.3209 97.3583 67.9465 98.127 67.9465C98.7347 67.9465 99.2276 68.4391 99.2276 69.0471C99.2276 69.6551 98.7347 70.1477 98.127 70.1477C97.3583 70.1477 96.733 70.7731 96.733 71.5418C96.733 72.1497 96.2401 72.6424 95.6324 72.6424Z" fill="#6582FD"/>
<path d="M73.0793 26.2495C72.7975 26.2495 72.516 26.1421 72.3009 25.9271C71.871 25.4974 71.871 24.8005 72.3009 24.3708L74.5021 22.1696C74.932 21.7397 75.6287 21.7397 76.0586 22.1696C76.4885 22.5993 76.4885 23.2962 76.0586 23.7258L73.8574 25.9271C73.6426 26.1421 73.361 26.2495 73.0793 26.2495Z" fill="#6582FD"/>
<defs>
<linearGradient id="paint0_linear_359_4981" x1="4.48154" y1="90.1695" x2="88.1241" y2="2.4861" gradientUnits="userSpaceOnUse">
<stop stop-color="#D1DDFF" stop-opacity="0"/>
<stop offset="1" stop-color="#B6C4FF"/>
</linearGradient>
</defs>
</svg>
