<svg width="100" height="107" viewBox="0 0 100 107" fill="none" xmlns="http://www.w3.org/2000/svg">
<path d="M84.4858 63.8032C87.7219 49.2131 104.148 32.0461 89.9556 21.0782C85.4341 17.5838 84.5913 12.6601 82.1858 7.74208C70.731 -15.6778 47.5677 21.9058 29.5714 17.6929C23.7093 16.3205 17.8709 12.3387 11.6844 13.9153C0.283101 16.8208 4.43129 30.8896 9.10607 32.9021C23.3558 39.0364 43.1878 39.4538 46.5945 56.9341C48.8314 68.4119 43.1202 83.632 46.2923 90.7212C59.4269 120.075 95.8144 105.347 87.9341 81.0678C86.8692 77.7872 82.6974 71.8668 84.4858 63.8032Z" fill="url(#paint0_linear_359_5044)"/>
<g opacity="0.1">
<path d="M56.1683 42.2914C56.1683 38.8947 53.4009 36.1313 49.9992 36.1313C46.5976 36.1313 43.8301 38.8947 43.8301 42.2914C43.8301 45.688 46.5976 48.4514 49.9992 48.4514C53.4009 48.4514 56.1683 45.688 56.1683 42.2914ZM45.9232 42.2914C45.9232 40.0471 47.7518 38.2212 49.9994 38.2212C52.247 38.2212 54.0756 40.0471 54.0756 42.2914C54.0756 44.5357 52.2472 46.3616 49.9994 46.3616C47.7516 46.3616 45.9232 44.5357 45.9232 42.2914Z" fill="#2626BC"/>
<path d="M98.6625 62.2025C97.219 53.3926 90.6045 46.6445 82.4343 44.5454C82.4858 43.8006 82.514 43.0495 82.514 42.2918C82.514 34.2233 79.5502 26.8336 74.6538 21.1488C74.6607 21.0148 74.6647 20.8798 74.6647 20.744C74.6647 16.5114 71.2285 13.0801 66.9895 13.0801C66.2331 13.0801 65.5031 13.1911 64.8126 13.3946C60.3677 11.1136 55.3316 9.8252 49.9997 9.8252C32.0712 9.8252 17.4853 24.3895 17.4853 42.2916C17.4853 43.0493 17.5136 43.8004 17.5651 44.5452C9.3949 46.6443 2.78039 53.3924 1.3369 62.2023C-0.143437 71.2374 4.16047 79.9142 11.5692 84.4149L9.33776 97.9692C9.23311 98.6053 9.72474 99.1836 10.3704 99.1836H28.7773C29.3552 99.1836 29.8238 98.7157 29.8238 98.1387V89.6898L40.8107 91.3168C41.998 91.4925 43.0645 90.5741 43.0645 89.3753V82.4999L46.8841 80.8839C47.526 80.6124 47.8691 79.9098 47.688 79.2377L46.4289 74.5613C47.602 74.6898 48.7929 74.7579 49.9997 74.7579C51.2065 74.7579 52.3973 74.6898 53.5704 74.5613L52.3113 79.2377C52.1303 79.9098 52.4733 80.6124 53.1152 80.8839L56.9348 82.4999V89.3753C56.9348 90.5738 58.0014 91.4925 59.1887 91.3168L70.1756 89.6898V98.1387C70.1756 98.7157 70.6442 99.1836 71.222 99.1836H89.6292C90.2748 99.1836 90.7665 98.6053 90.6618 97.9692L88.4301 84.4151C95.8387 79.9142 100.143 71.2374 98.6625 62.2025ZM19.635 44.1193C19.5988 43.5145 19.5783 42.9053 19.5783 42.2916C19.5783 25.5421 33.2252 11.915 49.9997 11.915C54.429 11.915 58.6397 12.8659 62.4392 14.5727C60.6056 15.9229 59.397 18.0684 59.3204 20.4993C56.4574 19.2738 53.3067 18.594 49.9997 18.594C36.9136 18.594 26.2671 29.2246 26.2671 42.2916C26.2671 42.9087 26.2909 43.5202 26.3376 44.1256C24.0611 43.7691 21.8062 43.7816 19.635 44.1193ZM54.1569 72.3832C52.7971 72.5696 51.4099 72.6681 49.9997 72.6681C48.5895 72.6681 47.2023 72.5696 45.8425 72.3832L44.7098 68.1764C44.8149 67.2524 44.8594 66.3342 44.8479 65.4251C46.5072 65.7933 48.2309 65.9891 49.9997 65.9891C51.7684 65.9891 53.4922 65.7933 55.1514 65.4251C55.1399 66.3342 55.1843 67.2524 55.2896 68.1764L54.1569 72.3832ZM55.2896 63.2452C53.596 63.6717 51.8241 63.8993 49.9997 63.8993C48.1753 63.8993 46.4034 63.6717 44.7098 63.2452C44.3691 60.2546 43.4136 57.4089 41.9528 54.8636C44.2778 56.3526 47.0384 57.2204 49.9997 57.2204C52.961 57.2204 55.7216 56.3526 58.0466 54.8636C56.5855 57.4091 55.6303 60.2546 55.2896 63.2452ZM49.9997 55.1305C42.9099 55.1305 37.1417 49.3709 37.1417 42.2916C37.1417 35.2122 42.9099 29.4526 49.9997 29.4526C57.0895 29.4526 62.8576 35.2122 62.8576 42.2916C62.8576 49.3709 57.0895 55.1305 49.9997 55.1305ZM71.519 44.5699C68.5678 45.3358 65.897 46.6813 63.6088 48.4606C64.4677 46.5787 64.9503 44.4911 64.9503 42.2918C64.9503 34.0601 58.2433 27.363 49.9995 27.363C41.7556 27.363 35.0486 34.0599 35.0486 42.2918C35.0486 44.4911 35.5312 46.5789 36.3902 48.4606C34.1022 46.6813 31.4314 45.3358 28.4799 44.5699C28.401 43.8209 28.3598 43.061 28.3598 42.2916C28.3598 30.3771 38.0672 20.6838 49.9995 20.6838C53.4608 20.6838 56.7341 21.5007 59.6383 22.9496C60.5474 25.9743 63.2762 28.2123 66.5558 28.3947C69.7258 32.1543 71.6391 37.0036 71.6391 42.2913C71.6391 43.061 71.5979 43.8211 71.519 44.5699ZM80.3644 44.1193C78.1932 43.7816 75.9382 43.7691 73.6618 44.1256C73.7084 43.5202 73.7323 42.9087 73.7323 42.2916C73.7323 36.9886 71.9788 32.0873 69.0205 28.1345C71.2982 27.5118 73.154 25.8693 74.0613 23.7273C78.0458 28.8645 80.4211 35.3058 80.4211 42.2916C80.4209 42.9055 80.4004 43.5145 80.3644 44.1193Z" fill="#2626BC"/>
</g>
<path d="M52.3118 74.222L55.2898 63.1607C53.9933 51.77 61.7876 41.1947 73.2474 39.1772C85.1583 37.08 96.5162 45.0214 98.6165 56.9145C100.229 66.0469 95.9135 74.8533 88.4306 79.3992L90.8622 94.1679H70.176V84.6741L59.1892 86.3011C58.0019 86.4768 56.9353 85.5583 56.9353 84.3596V77.4842L53.1157 75.8682C52.4738 75.5967 52.1308 74.8943 52.3118 74.222Z" fill="white"/>
<path d="M47.6878 74.222L44.7098 63.1607C46.0064 51.77 38.2121 41.1947 26.7522 39.1772C14.8416 37.08 3.48343 45.0214 1.38317 56.9145C-0.229433 66.0469 4.08619 74.8533 11.5691 79.3992L9.13749 94.1679H29.8238V84.6741L40.8107 86.3011C41.998 86.4768 43.0646 85.5583 43.0646 84.3596V77.4842L46.8842 75.8682C47.5259 75.5967 47.8689 74.8943 47.6878 74.222Z" fill="#6582FD"/>
<path d="M23.1957 47.4889C27.4346 47.4889 30.8709 44.0576 30.8709 39.825C30.8709 35.5924 27.4346 32.1611 23.1957 32.1611C18.9568 32.1611 15.5205 35.5924 15.5205 39.825C15.5205 44.0576 18.9568 47.4889 23.1957 47.4889Z" fill="white"/>
<path d="M25.8275 38.7802H24.2413V37.1963C24.2413 36.6193 23.7727 36.1514 23.1948 36.1514C22.6169 36.1514 22.1483 36.6193 22.1483 37.1963V38.7802H20.5621C19.9842 38.7802 19.5156 39.2481 19.5156 39.8251C19.5156 40.4021 19.9842 40.87 20.5621 40.87H22.1483V42.4537C22.1483 43.0307 22.6169 43.4986 23.1948 43.4986C23.7727 43.4986 24.2413 43.0307 24.2413 42.4537V40.87H25.8275C26.4054 40.87 26.874 40.4021 26.874 39.8251C26.874 39.2481 26.4054 38.7802 25.8275 38.7802Z" fill="#6582FD"/>
<path d="M66.9897 23.3927C71.2286 23.3927 74.6649 19.9615 74.6649 15.7288C74.6649 11.4962 71.2286 8.06494 66.9897 8.06494C62.7508 8.06494 59.3145 11.4962 59.3145 15.7288C59.3145 19.9615 62.7508 23.3927 66.9897 23.3927Z" fill="#6582FD"/>
<path d="M99.6468 56.7332C99.012 53.1381 97.5114 49.7128 95.3073 46.8278C94.9568 46.3691 94.3002 46.2804 93.8406 46.6309C93.3812 46.981 93.2927 47.6365 93.6432 48.0955C95.674 50.7535 97.0005 53.7819 97.5857 57.0962C99.089 65.6098 95.2818 74.0139 87.8864 78.5069C87.5218 78.7284 87.3284 79.1487 87.3977 79.5692L89.8293 94.3379C89.9136 94.8499 90.3573 95.2135 90.8607 95.2135C90.9172 95.2135 90.9741 95.2089 91.0317 95.1995C91.602 95.1059 91.9883 94.5684 91.8946 93.9989L89.5758 79.9142C93.1943 77.561 96.0583 74.2555 97.8841 70.316C99.8553 66.0621 100.465 61.3654 99.6468 56.7332Z" fill="#2626BC"/>
<path d="M90.5048 42.1547C88.0513 40.3812 85.3366 39.1342 82.4904 38.44C82.504 38.0538 82.5134 37.6663 82.5134 37.277C82.5134 30.0361 80.0519 22.9463 75.5743 17.254C75.6624 16.7585 75.7109 16.2494 75.7109 15.7288C75.7109 10.9268 71.7984 7.02 66.9893 7.02C65.75 7.02 64.5711 7.28123 63.5027 7.74852C59.2511 5.80099 54.7115 4.81104 49.9999 4.81104C33.6656 4.81104 19.8884 16.9052 17.7681 33.0156C15.8631 34.5326 14.6055 36.8268 14.4845 39.414C7.11904 42.3425 1.73392 48.9153 0.352583 56.7336C-0.464707 61.366 0.145174 66.0627 2.11651 70.3164C3.94238 74.2561 6.80635 77.5612 10.4242 79.9142L8.10481 93.9989C8.01104 94.5684 8.39719 95.1059 8.96772 95.1995C9.02507 95.2089 9.08221 95.2135 9.13872 95.2135C9.64207 95.2135 10.0858 94.8499 10.1701 94.3379L12.6021 79.5689C12.6714 79.1485 12.478 78.7282 12.1134 78.5067C4.71865 74.0143 0.911397 65.6102 2.4137 57.0962C3.63137 50.2052 8.27224 44.3791 14.658 41.6057C15.1967 44.1835 16.8807 46.3452 19.1521 47.5373C21.2455 53.7869 25.311 59.3871 30.6394 63.3432C35.007 66.586 40.0089 68.6434 45.308 69.4067L46.6771 74.496C46.7221 74.6616 46.6355 74.8375 46.475 74.9054L42.6554 76.523C42.2686 76.6868 42.0174 77.0655 42.0174 77.4849V84.3605C42.0174 84.7265 41.8176 84.953 41.6985 85.0554C41.5798 85.1574 41.3272 85.3202 40.9653 85.2663L35.9758 84.5285C35.4038 84.4439 34.872 84.8383 34.7872 85.4092C34.7026 85.9799 35.0974 86.5114 35.6692 86.596L40.657 87.3335C40.8058 87.3557 40.9551 87.3668 41.1035 87.3668C41.8186 87.3668 42.5149 87.1118 43.0645 86.6391C43.7293 86.0673 44.1106 85.237 44.1106 84.3607V78.1771L47.2916 76.83C48.4103 76.3571 49.0145 75.1188 48.6981 73.9521L47.5407 69.6503C48.3553 69.7109 49.1753 69.7425 50.0001 69.7425C50.8272 69.7425 51.6472 69.7109 52.4591 69.6501L51.3011 73.951C50.9863 75.1203 51.5907 76.3583 52.7073 76.8308L55.8886 78.1767V84.3599C55.8886 85.2353 56.2693 86.0654 56.9332 86.6372C57.597 87.209 58.475 87.4635 59.3425 87.3348L69.1295 85.8855V94.1682C69.1295 94.7452 69.5981 95.2131 70.176 95.2131C70.7538 95.2131 71.2224 94.7452 71.2224 94.1682V85.5636L75.4336 84.8828C77.8089 84.4989 79.7164 82.6571 80.1808 80.2995C80.2922 79.7332 79.923 79.184 79.356 79.0726C78.7886 78.9618 78.2388 79.3299 78.1272 79.8962C77.8311 81.4001 76.6143 82.575 75.0994 82.8199L59.0357 85.2675C58.6738 85.3214 58.4196 85.1574 58.3005 85.0546C58.1814 84.9522 57.9817 84.7254 57.9817 84.3597V77.4845C57.9817 77.0649 57.7304 76.6862 57.3436 76.5224L53.524 74.9063C53.3639 74.8386 53.2772 74.6611 53.3224 74.4933L54.6929 69.4029C69.3373 67.2796 80.8512 55.3752 82.3483 40.5607C84.806 41.2069 87.1501 42.3093 89.278 43.8474C89.746 44.1858 90.4004 44.0813 90.7393 43.6136C91.0779 43.1463 90.973 42.493 90.5048 42.1547ZM66.9895 9.10964C70.6446 9.10964 73.6182 12.0789 73.6182 15.7286C73.6182 19.3783 70.6446 22.3475 66.9895 22.3475C63.3344 22.3475 60.3607 19.3783 60.3607 15.7286C60.3607 12.0789 63.3344 9.10964 66.9895 9.10964ZM37.142 37.2763C37.142 30.197 42.9101 24.4374 49.9999 24.4374C57.0897 24.4374 62.8578 30.197 62.8578 37.2763C62.8578 44.3557 57.0897 50.1153 49.9999 50.1153C42.9101 50.1153 37.142 44.3557 37.142 37.2763ZM43.6169 57.9092C37.5047 56.0066 32.3971 51.4398 29.932 45.35C30.7688 44.3348 31.3778 43.1271 31.6869 41.8054C38.2307 44.8096 42.6748 50.9445 43.6169 57.9092ZM71.3698 40.6774C70.069 48.8572 64.1554 55.5232 56.3825 57.9238C57.4788 49.8267 63.3197 42.9488 71.3698 40.6774ZM64.2871 41.6763C64.7178 40.2847 64.9505 38.8072 64.9505 37.2763C64.9505 29.0447 58.2437 22.3475 49.9997 22.3475C41.7556 22.3475 35.0488 29.0444 35.0488 37.2763C35.0488 38.8023 35.2803 40.2753 35.7085 41.6629C34.5252 40.8738 33.2568 40.1875 31.9117 39.6197C31.8508 37.0143 30.6407 34.6883 28.7662 33.1305C30.7416 22.976 39.5718 15.6678 49.9999 15.6678C52.9283 15.6678 55.7603 16.2416 58.426 17.3737C59.1988 21.3916 62.7438 24.4374 66.9895 24.4374C67.1209 24.4374 67.2515 24.4332 67.3815 24.4274C70.1661 28.1659 71.6387 32.5951 71.6387 37.2768C71.6387 37.6724 71.6272 38.0653 71.6061 38.4556C68.9355 39.1056 66.4719 40.2115 64.2871 41.6763ZM49.9999 6.90088C53.9373 6.90088 57.746 7.63922 61.3486 9.09438C59.6224 10.5602 58.4744 12.6833 58.2952 15.0728C55.6496 14.0816 52.8668 13.5779 49.9999 13.5779C44.3511 13.5779 38.8749 15.6013 34.58 19.2753C30.7133 22.5829 28.0199 27.0363 26.8828 31.9355C25.762 31.4112 24.5128 31.1163 23.1955 31.1163C22.1042 31.1163 21.0599 31.3192 20.0963 31.6864C22.7505 17.4212 35.2631 6.90088 49.9999 6.90088ZM16.567 39.8251C16.567 36.1754 19.5406 33.2062 23.1955 33.2062C26.8504 33.2062 29.8242 36.1754 29.8242 39.8251C29.8242 43.4748 26.8506 46.4439 23.1955 46.4439C19.5404 46.4439 16.567 43.4748 16.567 39.8251ZM21.6915 48.4014C22.1804 48.4867 22.6825 48.5337 23.1955 48.5337C25.104 48.5337 26.87 47.9168 28.3077 46.8744C31.2307 53.4379 36.9944 58.2795 43.7939 60.138C43.8192 61.0981 43.7822 62.068 43.6713 63.0437C43.6564 63.1741 43.6665 63.306 43.7006 63.4328L44.7131 67.196C34.3466 65.3898 25.6038 58.3445 21.6915 48.4014ZM53.0374 67.5015C52.038 67.601 51.025 67.6526 49.9999 67.6526C48.9769 67.6526 47.9637 67.6019 46.9628 67.5032L45.7728 63.0801C45.8599 62.2512 45.8963 61.4266 45.8933 60.6076C47.2355 60.8458 48.6079 60.9737 49.9999 60.9737C51.3994 60.9737 52.7707 60.8512 54.1043 60.618C54.1018 61.432 54.1414 62.2533 54.228 63.0794L53.0374 67.5015ZM54.2125 58.4713C52.8494 58.7409 51.4411 58.8837 49.9999 58.8837C48.5685 58.8837 47.1592 58.739 45.7874 58.4642C45.5235 55.766 44.7812 53.1692 43.6296 50.7784C45.5635 51.6919 47.7226 52.2049 49.9999 52.2049C52.2827 52.2049 54.4465 51.6896 56.3838 50.7721C55.2278 53.1587 54.4788 55.7589 54.2125 58.4713ZM55.2879 67.1923L56.3002 63.4322C56.3344 63.3056 56.3442 63.1735 56.3296 63.0431C56.2188 62.07 56.1791 61.1043 56.204 60.1503C65.3809 57.6659 72.3675 49.8102 73.5527 40.1862C75.8175 39.8011 78.0843 39.7873 80.2855 40.13C79.005 53.788 68.632 64.8472 55.2879 67.1923ZM80.411 38.0341C78.2191 37.7129 75.9696 37.7117 73.7178 38.0437C73.726 37.789 73.7317 37.5336 73.7317 37.2768C73.7317 32.4866 72.3256 27.9375 69.658 24.0188C71.884 23.3026 73.721 21.7158 74.767 19.6619C78.424 24.7835 80.4207 30.969 80.4207 37.2768C80.4207 37.53 80.4171 37.7823 80.411 38.0341Z" fill="#2626BC"/>
<path d="M30.0008 83.6471C29.9968 83.6462 29.9945 83.6433 29.9906 83.6427L24.9001 82.8197C23.3853 82.5748 22.1684 81.3999 21.8723 79.896C21.7607 79.3297 21.2109 78.9616 20.6435 79.0724C20.0765 79.1838 19.7071 79.733 19.8187 80.2994C20.2831 82.6569 22.1906 84.4987 24.5659 84.8826L28.7771 85.5635V94.168C28.7771 94.745 29.2457 95.2129 29.8235 95.2129C30.4014 95.2129 30.87 94.745 30.87 94.168V84.6742C30.8698 84.1578 30.4939 83.7317 30.0008 83.6471Z" fill="#2626BC"/>
<path d="M56.1683 37.2762C56.1683 33.8796 53.4009 31.1162 49.9992 31.1162C46.5976 31.1162 43.8301 33.8796 43.8301 37.2762C43.8301 40.6729 46.5976 43.4363 49.9992 43.4363C53.4009 43.4363 56.1683 40.6729 56.1683 37.2762ZM45.923 37.2762C45.923 35.032 47.7516 33.2061 49.9992 33.2061C52.2468 33.2061 54.0754 35.032 54.0754 37.2762C54.0754 39.5205 52.2468 41.3464 49.9992 41.3464C47.7514 41.3464 45.923 39.5205 45.923 37.2762Z" fill="#2626BC"/>
<path d="M69.6224 14.6835H68.0362V13.0996C68.0362 12.5226 67.5676 12.0547 66.9897 12.0547C66.4119 12.0547 65.9432 12.5226 65.9432 13.0996V14.6835H64.357C63.7792 14.6835 63.3105 15.1514 63.3105 15.7284C63.3105 16.3054 63.7792 16.7733 64.357 16.7733H65.9432V18.357C65.9432 18.934 66.4119 19.402 66.9897 19.402C67.5676 19.402 68.0362 18.934 68.0362 18.357V16.7733H69.6224C70.2003 16.7733 70.6689 16.3054 70.6689 15.7284C70.6689 15.1514 70.2005 14.6835 69.6224 14.6835Z" fill="white"/>
<path d="M52.2641 95.2031C51.6862 95.2031 51.2176 94.7352 51.2176 94.1582C51.2176 93.4285 50.623 92.8347 49.8922 92.8347C49.3143 92.8347 48.8457 92.3668 48.8457 91.7898C48.8457 91.2128 49.3143 90.7449 49.8922 90.7449C50.623 90.7449 51.2176 90.1512 51.2176 89.4214C51.2176 88.8444 51.6862 88.3765 52.2641 88.3765C52.842 88.3765 53.3106 88.8444 53.3106 89.4214C53.3106 90.1512 53.9052 90.7449 54.636 90.7449C55.2139 90.7449 55.6825 91.2128 55.6825 91.7898C55.6825 92.3668 55.2139 92.8347 54.636 92.8347C53.9052 92.8347 53.3106 93.4285 53.3106 94.1582C53.3106 94.7352 52.842 95.2031 52.2641 95.2031Z" fill="#6582FD"/>
<path d="M13.1479 27.7808C12.57 27.7808 12.1014 27.3129 12.1014 26.7359C12.1014 26.0061 11.5068 25.4124 10.776 25.4124C10.1981 25.4124 9.72949 24.9445 9.72949 24.3674C9.72949 23.7904 10.1981 23.3225 10.776 23.3225C11.5068 23.3225 12.1014 22.7288 12.1014 21.999C12.1014 21.422 12.57 20.9541 13.1479 20.9541C13.7257 20.9541 14.1943 21.422 14.1943 21.999C14.1943 22.7288 14.7889 23.3225 15.5198 23.3225C16.0977 23.3225 16.5663 23.7904 16.5663 24.3674C16.5663 24.9445 16.0977 25.4124 15.5198 25.4124C14.7889 25.4124 14.1943 26.0061 14.1943 26.7359C14.1943 27.3129 13.7257 27.7808 13.1479 27.7808Z" fill="#6582FD"/>
<path d="M87.3832 22.0547C86.8054 22.0547 86.3368 21.5868 86.3368 21.0098C86.3368 20.28 85.7422 19.6863 85.0113 19.6863C84.4335 19.6863 83.9648 19.2184 83.9648 18.6414C83.9648 18.0644 84.4335 17.5964 85.0113 17.5964C85.7422 17.5964 86.3368 17.0027 86.3368 16.2729C86.3368 15.6959 86.8054 15.228 87.3832 15.228C87.9611 15.228 88.4297 15.6959 88.4297 16.2729C88.4297 17.0027 89.0243 17.5964 89.7552 17.5964C90.333 17.5964 90.8016 18.0644 90.8016 18.6414C90.8016 19.2184 90.333 19.6863 89.7552 19.6863C89.0243 19.6863 88.4297 20.28 88.4297 21.0098C88.4297 21.5868 87.9611 22.0547 87.3832 22.0547Z" fill="#6582FD"/>
<path d="M87.3845 34.2508C87.1166 34.2508 86.8489 34.1488 86.6445 33.9448C86.2357 33.5367 86.2357 32.875 86.6445 32.4671L88.7374 30.3772C89.1461 29.9693 89.8085 29.9693 90.2173 30.3772C90.626 30.7854 90.626 31.447 90.2173 31.855L88.1244 33.9448C87.9201 34.1488 87.6524 34.2508 87.3845 34.2508Z" fill="#6582FD"/>
<path d="M18.7537 11.9153C18.4858 11.9153 18.2181 11.8133 18.0136 11.6094C17.6048 11.2012 17.6048 10.5396 18.0136 10.1316L20.1065 8.04179C20.5153 7.63386 21.1777 7.63386 21.5864 8.04179C21.9952 8.44994 21.9952 9.11158 21.5864 9.51952L19.4935 11.6094C19.2892 11.8133 19.0216 11.9153 18.7537 11.9153Z" fill="#6582FD"/>
<defs>
<linearGradient id="paint0_linear_359_5044" x1="28.1425" y1="75.7462" x2="89.9045" y2="13.8932" gradientUnits="userSpaceOnUse">
<stop stop-color="#D1DDFF" stop-opacity="0"/>
<stop offset="1" stop-color="#B6C4FF"/>
</linearGradient>
</defs>
</svg>
