<svg width="100" height="107" viewBox="0 0 100 107" fill="none" xmlns="http://www.w3.org/2000/svg">
<path d="M98.5433 53.6401C89.7743 38.2722 97.5495 28.8633 95.3103 13.8357C92.4043 -5.6657 67.1508 -1.16418 54.4878 6.82738C44.4968 13.1324 46.0319 27.4 29.7355 29.6666C23.8386 30.4867 17.5257 26.4447 10.3776 26.4447C3.96177 26.4447 0 36.5577 0 46.9664C0.000208284 73.6164 16.3047 107 49.1186 107C58.9709 107 69.2922 93.9694 68.6942 83.3814C68.1 72.8601 71.8543 66.5419 82.6864 70.8846C85.3324 71.9454 88.092 73.4035 90.8909 72.8633C98.7936 71.3383 102.174 60.0036 98.5433 53.6401Z" fill="url(#paint0_linear_359_4936)"/>
<path opacity="0.1" d="M92.8707 68.9023L88.483 52.5267C90.3992 35.6096 78.8361 19.9076 61.8638 16.9925C44.2469 13.9666 27.408 26.0615 24.5682 43.7671C23.1202 52.7948 25.5528 61.5747 30.6495 68.3696C29.0634 69.2682 27.6283 69.6118 26.6679 69.7386C25.9079 69.4116 24.994 69.5576 24.3735 70.1802L1.96939 92.6592C1.15604 93.4753 1.15604 94.7986 1.96939 95.6146L8.16501 101.831C8.97836 102.647 10.2972 102.647 11.1106 101.831L33.5147 79.3517C34.1351 78.7291 34.2807 77.8121 33.9546 77.0495C34.0747 76.1321 34.393 74.7822 35.1955 73.282C36.5779 74.4959 38.0686 75.5971 39.657 76.5666L36.2736 97.2161C36.1695 97.8522 36.6587 98.4305 37.3013 98.4305H65.51C66.0851 98.4305 66.5515 97.9626 66.5515 97.3856V84.3757L82.7385 86.784C84.4879 87.0442 86.059 85.6843 86.059 83.9098V73.7315L91.6862 71.339C92.632 70.9371 93.1373 69.8972 92.8707 68.9023Z" fill="#2626BC"/>
<path d="M92.8704 63.8866L88.4827 47.511C90.3928 30.6481 78.9095 14.9921 62.026 12.0051C44.4778 8.90038 27.7441 20.657 24.6498 38.2641C22.2739 51.7841 28.632 64.8212 39.6567 71.5511L36.0744 93.4151H66.5512V79.36L82.7382 81.7686C84.4876 82.0288 86.0587 80.6689 86.0587 78.8944V68.7161L91.6859 66.3236C92.6317 65.9215 93.137 64.8816 92.8704 63.8866Z" fill="#6582FD"/>
<path d="M78.8197 71.9318C77.3328 71.9318 75.227 71.6766 73.8559 70.4221C72.9255 69.5711 72.4745 68.3732 72.5514 66.9582C72.5824 66.3822 73.0665 65.9406 73.648 65.9718C74.2222 66.0031 74.6623 66.4959 74.6311 67.0721C74.5884 67.8601 74.7929 68.4501 75.2572 68.8758C76.4896 70.0064 79.2604 69.8904 80.2237 69.7504C80.7907 69.6679 81.321 70.0626 81.4043 70.6332C81.4872 71.2035 81.0952 71.7339 80.5266 71.8179C80.3583 71.843 79.6966 71.9318 78.8197 71.9318Z" fill="white"/>
<path d="M25.4395 64.7888C25.4395 64.7888 29.5712 65.105 33.4969 61.1661C36.0549 58.5995 35.0986 55.0972 35.0986 55.0972L43.5489 63.5759C43.5489 63.5759 40.0583 62.6164 37.5004 65.1827C33.5746 69.1217 33.8898 73.2673 33.8898 73.2673L25.4395 64.7888Z" fill="#6582FD"/>
<path d="M56.0854 67.5976C69.8901 67.5976 81.081 56.3691 81.081 42.518C81.081 28.667 69.8901 17.4385 56.0854 17.4385C42.2807 17.4385 31.0898 28.667 31.0898 42.518C31.0898 56.3691 42.2807 67.5976 56.0854 67.5976Z" fill="white"/>
<path d="M56.0858 63.6072C67.6939 63.6072 77.1041 54.1654 77.1041 42.5182C77.1041 30.8711 67.6939 21.4292 56.0858 21.4292C44.4776 21.4292 35.0674 30.8711 35.0674 42.5182C35.0674 54.1654 44.4776 63.6072 56.0858 63.6072Z" fill="#6582FD"/>
<path d="M29.8615 78.0009L26.8728 81.0001L24.5432 81.8747L23.4272 84.4575L11.1118 96.8158C10.2974 97.6308 8.97893 97.6308 8.16454 96.8158L1.97017 90.5985C1.15578 89.7835 1.15578 88.4606 1.97017 87.6435L14.2864 75.286L16.8271 74.1997L17.7323 71.8286L20.7222 68.8286L22.2914 68.7314L29.959 76.4265L29.8615 78.0009Z" fill="#6582FD"/>
<path d="M14.2764 75.2808L17.7216 71.824L26.8614 80.9945L23.4162 84.4513L14.2764 75.2808Z" fill="white"/>
<path d="M29.8619 78.0012L33.5146 74.3362C34.3279 73.5201 34.3279 72.1968 33.5146 71.3808L27.3189 65.1643C26.5056 64.3482 25.1867 64.3482 24.3734 65.1643L20.7207 68.8293L29.8619 78.0012Z" fill="white"/>
<path d="M93.8766 63.6155L89.54 47.4303C91.4087 30.014 79.438 14.0246 62.2072 10.9762C44.1209 7.77537 26.8135 19.9366 23.6247 38.0827C22.411 44.989 23.3591 51.9732 26.3665 58.2806C26.6146 58.8012 27.2367 59.0212 27.7553 58.7723C28.2742 58.5232 28.4935 57.8992 28.2454 57.3786C25.4267 51.4669 24.5382 44.92 25.676 38.4455C28.6658 21.4342 44.8913 10.0349 61.8459 13.034C78.0602 15.9028 89.3063 30.995 87.4488 47.3931C87.434 47.5235 87.4438 47.6556 87.4777 47.7823L91.8652 64.1576C91.9963 64.6465 91.7446 65.1639 91.2802 65.3616L85.653 67.7541C85.2678 67.9177 85.0179 68.2966 85.0179 68.7162V78.8946C85.0179 79.4363 84.7836 79.9497 84.3747 80.3033C83.9661 80.657 83.4256 80.8154 82.8915 80.7347L58.778 77.0173C56.8931 76.7061 55.3697 75.3759 54.8019 73.5458L54.1239 71.3599C53.9531 70.809 53.3695 70.5007 52.8201 70.6727C52.2708 70.8441 51.9642 71.4299 52.1352 71.981L52.8132 74.1669C53.6163 76.7567 55.7725 78.639 58.4398 79.0795L65.5104 80.2471V93.415C65.5104 93.9922 65.9768 94.4599 66.5518 94.4599C67.1269 94.4599 67.5933 93.9922 67.5933 93.415V80.5719L82.586 82.8026C83.7201 82.9698 84.8675 82.6371 85.7352 81.8862C86.6031 81.1351 87.1007 80.0446 87.1007 78.895V69.4086L92.0929 67.2861C93.509 66.6841 94.2759 65.1058 93.8766 63.6155Z" fill="#2626BC"/>
<path d="M41.9315 64.4471C46.22 67.235 51.1524 68.6306 56.0854 68.6306C62.753 68.6306 69.4204 66.0841 74.4963 60.9912C78.587 56.8867 81.1437 51.673 81.89 45.9134C81.9641 45.3412 81.5617 44.8168 80.9914 44.7424C80.4207 44.6686 79.8986 45.0716 79.8244 45.6438C79.1379 50.9421 76.7862 55.7381 73.0235 59.5134C63.6839 68.8843 48.487 68.8841 39.1473 59.5134C34.6305 54.9812 32.1432 48.9457 32.1432 42.5182C32.1432 36.0907 34.6307 30.055 39.1475 25.5232C48.4872 16.1523 63.6841 16.1523 73.0237 25.5232C76.8183 29.3305 79.1754 34.1687 79.8407 39.5149C79.9119 40.0877 80.4318 40.4931 81.0031 40.4225C81.5738 40.3508 81.9787 39.8288 81.9075 39.2562C81.1843 33.4441 78.6216 28.1844 74.4965 24.0457C64.3447 13.8598 47.8265 13.8598 37.6746 24.0457C32.7645 28.9723 30.0603 35.5327 30.0601 42.5184C30.0601 47.6423 31.5166 52.5363 34.2295 56.7258C34.2231 57.8081 33.9409 59.2415 32.7595 60.4269C30.4763 62.718 28.1229 63.4317 26.7838 63.6519C26.4843 63.5579 26.1696 63.508 25.8467 63.508C25.0121 63.508 24.2277 63.834 23.6375 64.4262L1.23335 86.9054C0.643283 87.4975 0.318359 88.2847 0.318359 89.1217C0.318359 89.9591 0.643283 90.7461 1.23335 91.3382L7.42898 97.5546C8.01905 98.1469 8.80365 98.4729 9.63825 98.4729C10.4726 98.4729 11.2572 98.1469 11.8473 97.5546L34.2514 75.0752C35.0985 74.2253 35.3549 73.0052 35.0239 71.9296C35.1079 71.403 35.2689 70.7183 35.5703 69.9419C36.5136 70.7033 37.4988 71.4174 38.5169 72.0696L35.0473 93.246C34.954 93.8157 35.3382 94.353 35.906 94.4466C35.9633 94.456 36.02 94.4606 36.0762 94.4606C36.5771 94.4606 37.0187 94.097 37.1026 93.5852L40.6849 71.7212C40.7538 71.3008 40.5614 70.8805 40.1988 70.659C38.9222 69.8797 37.6948 68.9959 36.539 68.036C36.9762 67.3459 37.5286 66.6308 38.2357 65.9213C39.4169 64.7364 40.8505 64.4546 41.9315 64.4471ZM32.7788 73.5977L10.3745 96.0771C9.96859 96.4844 9.30791 96.4844 8.90175 96.0771L2.70613 89.8607C2.30018 89.4531 2.30018 88.7904 2.70613 88.3829L25.1102 65.9035C25.3068 65.7063 25.5685 65.5976 25.8467 65.5976C26.1248 65.5976 26.3864 65.7063 26.583 65.9035L32.7786 72.1198C33.185 72.5273 33.185 73.1902 32.7788 73.5977ZM33.4099 69.7977L28.8977 65.2703C30.4415 64.756 32.3683 63.7748 34.2325 61.9044C35.0235 61.1107 35.6019 60.1479 35.9454 59.079C36.4869 59.7402 37.0637 60.3784 37.6744 60.9912C38.2855 61.6043 38.9203 62.1799 39.5749 62.7192C38.6298 63.0223 37.6517 63.5516 36.7629 64.4436C34.8971 66.3157 33.9207 68.2483 33.4099 69.7977Z" fill="#2626BC"/>
<path d="M83.4986 16.2102C82.9235 16.2102 82.4572 15.7425 82.4572 15.1653C82.4572 14.4355 81.8654 13.8418 81.1381 13.8418C80.563 13.8418 80.0967 13.3741 80.0967 12.7968C80.0967 12.2196 80.563 11.7519 81.1381 11.7519C81.8654 11.7519 82.4572 11.158 82.4572 10.4282C82.4572 9.85101 82.9235 9.3833 83.4986 9.3833C84.0737 9.3833 84.54 9.85101 84.54 10.4282C84.54 11.158 85.1317 11.7519 85.8591 11.7519C86.4341 11.7519 86.9005 12.2196 86.9005 12.7968C86.9005 13.3741 86.4341 13.8418 85.8591 13.8418C85.1317 13.8418 84.54 14.4355 84.54 15.1653C84.54 15.7425 84.0737 16.2102 83.4986 16.2102Z" fill="#6582FD"/>
<path d="M27.1128 17.7246C26.5378 17.7246 26.0714 17.2569 26.0714 16.6797C26.0714 15.9499 25.4797 15.3562 24.7524 15.3562C24.1773 15.3562 23.7109 14.8885 23.7109 14.3113C23.7109 13.7341 24.1773 13.2664 24.7524 13.2664C25.4797 13.2664 26.0714 12.6726 26.0714 11.9429C26.0714 11.3657 26.5378 10.8979 27.1128 10.8979C27.6879 10.8979 28.1543 11.3657 28.1543 11.9429C28.1543 12.6726 28.746 13.2664 29.4733 13.2664C30.0484 13.2664 30.5148 13.7341 30.5148 14.3113C30.5148 14.8885 30.0484 15.3562 29.4733 15.3562C28.746 15.3562 28.1543 15.9499 28.1543 16.6797C28.1543 17.2569 27.6881 17.7246 27.1128 17.7246Z" fill="#6582FD"/>
<path d="M12.9351 65.5974C12.36 65.5974 11.8937 65.1297 11.8937 64.5525C11.8937 63.8227 11.302 63.2288 10.5746 63.2288C9.99955 63.2288 9.5332 62.7611 9.5332 62.1838C9.5332 61.6066 9.99955 61.1389 10.5746 61.1389C11.302 61.1389 11.8937 60.5452 11.8937 59.8154C11.8937 59.2382 12.36 58.7705 12.9351 58.7705C13.5102 58.7705 13.9765 59.2382 13.9765 59.8154C13.9765 60.5452 14.5683 61.1389 15.2956 61.1389C15.8707 61.1389 16.337 61.6066 16.337 62.1838C16.337 62.7611 15.8707 63.2288 15.2956 63.2288C14.5683 63.2288 13.9765 63.8227 13.9765 64.5525C13.9765 65.1295 13.5104 65.5974 12.9351 65.5974Z" fill="#6582FD"/>
<path d="M18.1431 26.6538C17.8765 26.6538 17.6101 26.5518 17.4066 26.3476C16.9999 25.9397 16.9999 25.278 17.4066 24.8701L19.4895 22.7802C19.8963 22.3721 20.5555 22.3721 20.9623 22.7802C21.369 23.1882 21.369 23.8498 20.9623 24.2577L18.8794 26.3476C18.6761 26.5518 18.4097 26.6538 18.1431 26.6538Z" fill="#6582FD"/>
<path d="M81.4166 91.8671C81.15 91.8671 80.8836 91.7651 80.6801 91.561C80.2733 91.153 80.2733 90.4914 80.6801 90.0835L82.7629 87.9936C83.1697 87.5855 83.8289 87.5855 84.2357 87.9936C84.6425 88.4015 84.6425 89.0632 84.2357 89.4711L82.1529 91.561C81.9496 91.7651 81.683 91.8671 81.4166 91.8671Z" fill="#6582FD"/>
<path d="M72.832 39.4276L70.2376 38.9193C69.8881 37.5315 69.3405 36.2234 68.6278 35.0251L70.1055 32.823C70.4123 32.3658 70.3534 31.7547 69.9649 31.3652L67.2018 28.5926C66.8134 28.2028 66.2044 28.1439 65.7486 28.4515L63.554 29.9342C62.3597 29.2191 61.056 28.6697 59.6728 28.319L59.1662 25.7159C59.0611 25.1751 58.5887 24.7847 58.0394 24.7847H54.1318C53.5826 24.7847 53.1102 25.1751 53.005 25.7159L52.4984 28.319C51.1152 28.6697 49.8116 29.2191 48.6173 29.9342L46.4226 28.4517C45.9669 28.1439 45.3578 28.203 44.9694 28.5928L42.2063 31.3652C41.8178 31.7549 41.7589 32.366 42.0657 32.8232L43.5435 35.0253C42.8307 36.2236 42.2831 37.5317 41.9336 38.9195L39.3392 39.4278C38.8002 39.5333 38.4111 40.0073 38.4111 40.5584V44.4793C38.4111 45.0304 38.8002 45.5044 39.3392 45.6099L41.9336 46.1182C42.2831 47.5061 42.8307 48.8143 43.5435 50.0124L42.0657 52.2145C41.7589 52.6717 41.8178 53.2828 42.2063 53.6726L44.9694 56.4449C45.3578 56.8347 45.9669 56.8936 46.4226 56.586L48.6173 55.1033C49.8116 55.8182 51.1152 56.3678 52.4984 56.7185L53.005 59.3216C53.1102 59.8625 53.5826 60.2528 54.1318 60.2528H58.0394C58.5887 60.2528 59.0611 59.8625 59.1662 59.3216L59.6728 56.7185C61.056 56.3678 62.3597 55.8184 63.554 55.1033L65.7486 56.586C66.2044 56.8938 66.8134 56.8347 67.2018 56.4449L69.9649 53.6726C70.3534 53.2828 70.4123 52.6717 70.1055 52.2145L68.6278 50.0124C69.3405 48.8141 69.8881 47.5061 70.2376 46.1182L72.832 45.6099C73.371 45.5042 73.7601 45.0304 73.7601 44.4793V40.5586C73.7601 40.0071 73.371 39.5331 72.832 39.4276Z" fill="white"/>
<path d="M56.0861 53.4042C62.0782 53.4042 66.9358 48.5303 66.9358 42.518C66.9358 36.5058 62.0782 31.6318 56.0861 31.6318C50.0939 31.6318 45.2363 36.5058 45.2363 42.518C45.2363 48.5303 50.0939 53.4042 56.0861 53.4042Z" fill="#6582FD"/>
<defs>
<linearGradient id="paint0_linear_359_4936" x1="12.1873" y1="88.0667" x2="93.4165" y2="7.10952" gradientUnits="userSpaceOnUse">
<stop stop-color="#D1DDFF" stop-opacity="0"/>
<stop offset="1" stop-color="#B6C4FF"/>
</linearGradient>
</defs>
</svg>
