<svg width="100" height="107" viewBox="0 0 100 107" fill="none" xmlns="http://www.w3.org/2000/svg">
<path d="M91.3121 69.6727C85.8325 56.1735 104.256 42.2259 99.0686 28.2355C94.1214 14.8939 82.6261 21.0082 72.4973 17.9298C66.3483 16.0611 65.6636 7.31447 60.5961 3.43635C42.2077 -10.636 -5.15101 22.1799 0.458535 35.8097C2.24229 40.1436 8.08849 40.9325 10.909 44.4017C18.4167 53.6367 17.5095 63.4566 13.362 74.4492C10.4021 82.2945 12.6825 97.4291 22.2812 98.3892C41.0966 100.271 40.0864 87.6451 61.8312 100.663C90.6113 117.893 102.593 97.464 91.3121 69.6727Z" fill="url(#paint0_linear_359_5087)"/>
<path opacity="0.1" d="M91.3926 41.6043C87.2762 42.5529 77.6061 44.478 66.9216 44.478C64.4219 44.478 61.9791 44.3717 59.6486 44.1981V17.9142C59.6486 16.8121 58.6245 15.9972 57.5507 16.2448C53.4341 17.1933 43.7642 19.1184 33.0797 19.1184C22.3951 19.1184 12.7251 17.1933 8.60867 16.2448C7.53465 15.9972 6.51074 16.8121 6.51074 17.9142V45.4089C6.51074 53.7869 9.47924 60.0681 13.4316 64.7189C10.8092 65.9908 9.0008 68.6785 9.0008 71.7888C9.0008 76.1262 12.5169 79.6425 16.8546 79.6425C20.6427 79.6425 23.8039 76.9603 24.544 73.3918C27.8893 75.1457 30.7723 76.112 32.1736 76.5267C32.7659 76.7021 33.3936 76.7021 33.986 76.5267C35.2292 76.1587 37.639 75.3571 40.5032 73.9559C42.3857 93.7751 61.5898 100.576 66.0154 101.886C66.6078 102.062 67.2355 102.062 67.8279 101.886C72.4831 100.509 93.4907 93.0566 93.4907 70.7687V43.2739C93.4905 42.1717 92.4666 41.357 91.3926 41.6043Z" fill="#2626BC"/>
<g opacity="0.1">
<path d="M37.979 86.0571H38.8209C39.4124 86.0571 39.8917 85.5776 39.8917 84.9863C39.8917 84.395 39.4124 83.9155 38.8209 83.9155H37.979C37.3875 83.9155 36.9082 84.395 36.9082 84.9863C36.9082 85.5776 37.3875 86.0571 37.979 86.0571Z" fill="#2626BC"/>
<path d="M33.6958 86.0571H34.5377C35.1292 86.0571 35.6085 85.5776 35.6085 84.9863C35.6085 84.395 35.1292 83.9155 34.5377 83.9155H33.6958C33.1043 83.9155 32.625 84.395 32.625 84.9863C32.625 85.5776 33.1043 86.0571 33.6958 86.0571Z" fill="#2626BC"/>
<path d="M29.4126 86.0571H30.2545C30.846 86.0571 31.3253 85.5776 31.3253 84.9863C31.3253 84.395 30.846 83.9155 30.2545 83.9155H29.4126C28.8211 83.9155 28.3418 84.395 28.3418 84.9863C28.3418 85.5776 28.8211 86.0571 29.4126 86.0571Z" fill="#2626BC"/>
<path d="M38.8212 88.2808H26.2749C25.6834 88.2808 25.2041 88.7603 25.2041 89.3516C25.2041 89.9429 25.6834 90.4224 26.2749 90.4224H38.8212C39.4127 90.4224 39.892 89.9429 39.892 89.3516C39.892 88.7603 39.4127 88.2808 38.8212 88.2808Z" fill="#2626BC"/>
<path d="M38.8212 92.646H26.2749C25.6834 92.646 25.2041 93.1255 25.2041 93.7168C25.2041 94.3081 25.6834 94.7876 26.2749 94.7876H38.8212C39.4127 94.7876 39.892 94.3081 39.892 93.7168C39.892 93.1255 39.4127 92.646 38.8212 92.646Z" fill="#2626BC"/>
</g>
<path d="M66.9205 39.3376C56.236 39.3376 46.5659 37.4125 42.4495 36.464C41.3755 36.2164 40.3516 37.0313 40.3516 38.1334V65.628C40.3516 87.916 61.3591 95.3678 66.0144 96.7455C66.6068 96.9209 67.2345 96.9209 67.8268 96.7455C72.4821 95.3678 93.4897 87.9158 93.4897 65.628V38.1334C93.4897 37.0313 92.4655 36.2164 91.3917 36.464C87.2751 37.4125 77.605 39.3376 66.9205 39.3376Z" fill="white"/>
<path d="M66.9208 93.6637C64.6528 92.992 58.8139 90.9569 53.484 86.5518C46.902 81.112 43.5645 74.0723 43.5645 65.6279V40C48.7472 41.0989 57.3965 42.55 66.921 42.55C76.446 42.55 85.0948 41.0989 90.2777 40V65.6279C90.2777 74.0723 86.9402 81.112 80.3581 86.5518C75.0276 90.9564 69.1894 92.9916 66.9208 93.6637Z" fill="#6582FD"/>
<path d="M80.7731 81.8041C80.2176 81.8041 79.7482 81.3756 79.7064 80.8128C79.2119 74.1632 73.5955 68.9544 66.9201 68.9544C60.2446 68.9544 54.628 74.1632 54.1337 80.8128C54.0898 81.4023 53.5818 81.8446 52.9865 81.8013C52.3967 81.7574 51.9542 81.2437 51.9981 80.6541C52.5753 72.8926 59.1299 66.813 66.9203 66.813C74.7106 66.813 81.2651 72.8928 81.8425 80.6541C81.8864 81.2437 81.4439 81.7574 80.8541 81.8013C80.8267 81.803 80.7997 81.8041 80.7731 81.8041Z" fill="white"/>
<path d="M73.815 58.2075C74.4065 58.2075 74.8858 58.687 74.8858 59.2783C74.8858 61.5063 76.2579 63.3189 77.9446 63.3189C79.6314 63.3189 81.0035 61.5063 81.0035 59.2783C81.0035 58.687 81.4828 58.2075 82.0743 58.2075C82.6658 58.2075 83.1451 58.687 83.1451 59.2783C83.1451 62.6871 80.812 65.4605 77.9446 65.4605C75.0772 65.4605 72.7441 62.6871 72.7441 59.2783C72.7441 58.687 73.2236 58.2075 73.815 58.2075Z" fill="white"/>
<path d="M51.7661 58.2075C52.3576 58.2075 52.8369 58.687 52.8369 59.2783C52.8369 61.5063 54.2091 63.3189 55.8956 63.3189C57.5823 63.3189 58.9545 61.5063 58.9545 59.2783C58.9545 58.687 59.4338 58.2075 60.0253 58.2075C60.6168 58.2075 61.0961 58.687 61.0961 59.2783C61.0961 62.6871 58.763 65.4605 55.8956 65.4605C53.0282 65.4605 50.6953 62.6871 50.6953 59.2783C50.6953 58.687 51.1746 58.2075 51.7661 58.2075Z" fill="white"/>
<path d="M33.0797 13.9783C22.3951 13.9783 12.7251 12.0532 8.60867 11.1046C7.53465 10.8571 6.51074 11.672 6.51074 12.774V40.2688C6.51074 62.5568 27.5183 70.0086 32.1736 71.3863C32.7659 71.5617 33.3936 71.5617 33.986 71.3863C38.641 70.0086 59.6486 62.5566 59.6486 40.2688V12.774C59.6486 11.672 58.6245 10.8571 57.5507 11.1046C53.4343 12.0532 43.7642 13.9783 33.0797 13.9783Z" fill="white"/>
<path d="M33.0799 68.3043C30.812 67.6327 24.973 65.5975 19.6432 61.1924C13.0611 55.7527 9.72363 48.7129 9.72363 40.2685V14.6406C14.9064 15.7395 23.5557 17.1907 33.0801 17.1907C42.6052 17.1907 51.2539 15.7395 56.4369 14.6406V40.2688C56.4369 48.7132 53.0994 55.7529 46.5173 61.1926C41.1868 65.5973 35.3483 67.6324 33.0799 68.3043Z" fill="#6582FD"/>
<path d="M33.0788 60.9186C25.2871 60.9186 18.7323 54.8388 18.1553 47.0776C18.1116 46.4878 18.5541 45.9742 19.1439 45.9303C19.7365 45.886 20.2473 46.3291 20.2909 46.9189C20.785 53.5684 26.4021 58.7772 33.0786 58.7772C39.7551 58.7772 45.3721 53.5684 45.8664 46.9189C45.9101 46.3293 46.4168 45.8873 47.0137 45.9303C47.6032 45.9742 48.0459 46.4878 48.002 47.0776C47.4253 54.839 40.8702 60.9186 33.0788 60.9186Z" fill="white"/>
<path d="M26.1847 38.816C25.5932 38.816 25.1139 38.3365 25.1139 37.7452C25.1139 35.5173 23.7417 33.7046 22.055 33.7046C20.3682 33.7046 18.9961 35.5173 18.9961 37.7452C18.9961 38.3365 18.5168 38.816 17.9253 38.816C17.3338 38.816 16.8545 38.3365 16.8545 37.7452C16.8545 34.3364 19.1876 31.563 22.055 31.563C24.9224 31.563 27.2555 34.3364 27.2555 37.7452C27.2555 38.3365 26.7762 38.816 26.1847 38.816Z" fill="white"/>
<path d="M48.2343 38.816C47.6428 38.816 47.1635 38.3365 47.1635 37.7452C47.1635 35.5173 45.7913 33.7046 44.1048 33.7046C42.4181 33.7046 41.0459 35.5173 41.0459 37.7452C41.0459 38.3365 40.5666 38.816 39.9751 38.816C39.3836 38.816 38.9043 38.3365 38.9043 37.7452C38.9043 34.3364 41.2374 31.563 44.1048 31.563C46.9722 31.563 49.3051 34.3364 49.3051 37.7452C49.3051 38.3365 48.8258 38.816 48.2343 38.816Z" fill="white"/>
<path d="M16.8537 74.5024C21.1913 74.5024 24.7075 70.9862 24.7075 66.6487C24.7075 62.3112 21.1913 58.7949 16.8537 58.7949C12.5162 58.7949 9 62.3112 9 66.6487C9 70.9862 12.5162 74.5024 16.8537 74.5024Z" fill="#6582FD"/>
<path d="M19.5474 65.5777H17.9242V63.9546C17.9242 63.3633 17.4447 62.8838 16.8534 62.8838C16.2621 62.8838 15.7826 63.3633 15.7826 63.9546V65.5777H14.1597C13.5684 65.5777 13.0889 66.0572 13.0889 66.6485C13.0889 67.2398 13.5684 67.7194 14.1597 67.7194H15.7828V69.3423C15.7828 69.9336 16.2623 70.4131 16.8536 70.4131C17.4449 70.4131 17.9244 69.9336 17.9244 69.3423V67.7194H19.5476C20.1389 67.7194 20.6184 67.2398 20.6184 66.6485C20.6184 66.0572 20.1389 65.5777 19.5474 65.5777Z" fill="white"/>
<path d="M77.0959 44.687C81.4334 44.687 84.9497 41.1708 84.9497 36.8332C84.9497 32.4957 81.4334 28.9795 77.0959 28.9795C72.7584 28.9795 69.2422 32.4957 69.2422 36.8332C69.2422 41.1708 72.7584 44.687 77.0959 44.687Z" fill="#6582FD"/>
<path d="M79.7895 35.7632H74.4019C73.8106 35.7632 73.3311 36.2427 73.3311 36.834C73.3311 37.4253 73.8106 37.9048 74.4019 37.9048H79.7895C80.3808 37.9048 80.8604 37.4253 80.8604 36.834C80.8604 36.2427 80.3808 35.7632 79.7895 35.7632Z" fill="white"/>
<path d="M93.5106 35.955C92.843 35.4239 91.9825 35.2299 91.1514 35.4218C89.5036 35.8002 87.7781 36.1491 86.0104 36.4658C85.8166 31.7151 81.8927 27.9092 77.0953 27.9092C72.1743 27.9092 68.1707 31.9127 68.1707 36.8335C68.1707 37.3175 68.2108 37.7921 68.2853 38.2554C67.8212 38.2626 67.3683 38.2663 66.9209 38.2663C64.9093 38.2663 62.825 38.1937 60.7187 38.0575V12.7748C60.7187 11.9218 60.3365 11.1281 59.6702 10.597C59.0031 10.0654 58.1432 9.87011 57.3089 10.0609C53.5951 10.9169 43.8002 12.9076 33.0792 12.9076C30.9821 12.9076 28.7818 12.8298 26.5389 12.6767C25.9442 12.6373 25.4379 13.0821 25.3976 13.6719C25.3574 14.2617 25.803 14.7729 26.3929 14.8132C28.684 14.9697 30.9337 15.0492 33.0792 15.0492C44.0199 15.0492 54.0048 13.0202 57.7884 12.1482C58.0541 12.0873 58.245 12.1998 58.3355 12.2719C58.4259 12.3439 58.5773 12.5047 58.5773 12.7748V40.2689C58.5773 61.9006 37.8387 69.1302 33.6801 70.3602C33.2869 70.4769 32.8717 70.4769 32.4763 70.3598C31.198 69.9826 28.6921 69.1455 25.7206 67.6527C25.7576 67.3229 25.7786 66.9882 25.7786 66.6488C25.7786 61.7277 21.7751 57.7244 16.8541 57.7244C15.7627 57.7244 14.717 57.9221 13.7494 58.2823C9.6563 53.1974 7.58107 47.1418 7.58107 40.2689V12.7748C7.58107 12.5049 7.73249 12.3439 7.82286 12.2719C7.91345 12.1996 8.10406 12.0869 8.36876 12.1477C10.8777 12.726 14.9013 13.5464 19.8226 14.1711C20.4092 14.2463 20.9452 13.8304 21.0197 13.2436C21.0943 12.6568 20.679 12.121 20.0924 12.0466C15.259 11.4331 11.3107 10.628 8.84827 10.0605C8.01561 9.87011 7.15532 10.0654 6.48799 10.597C5.82173 11.1279 5.43945 11.9218 5.43945 12.7746V40.2687C5.43945 47.4943 7.58343 53.8862 11.8138 59.2886C9.4702 60.8987 7.92973 63.5965 7.92973 66.6483C7.92973 71.5693 11.9331 75.5729 16.8541 75.5729C20.6704 75.5729 23.9336 73.1642 25.2068 69.7877C28.1314 71.217 30.5866 72.0345 31.8683 72.4127C32.2647 72.5305 32.6721 72.5892 33.0794 72.5892C33.4863 72.5892 33.8934 72.5305 34.2886 72.4129C36.8052 71.6687 43.3001 69.4069 49.2446 64.4941C56.8583 58.2018 60.7187 50.051 60.7187 40.2683V40.2027C62.824 40.3362 64.9075 40.4075 66.9209 40.4075C67.5679 40.4075 68.2245 40.4 68.9102 40.3852C70.2862 43.5435 73.4363 45.7577 77.0953 45.7577C81.3862 45.7577 84.9788 42.7134 85.8286 38.6713C87.8259 38.323 89.7762 37.9343 91.6322 37.5082C91.8954 37.4467 92.0873 37.5585 92.1776 37.6307C92.2678 37.7024 92.4192 37.863 92.4192 38.1333V65.6274C92.4192 87.2591 71.6806 94.4888 67.522 95.7187C67.1288 95.8354 66.7129 95.8354 66.3193 95.7185C61.9727 94.4314 47.4321 89.1231 42.8208 74.8561C42.6385 74.2933 42.0357 73.9851 41.4724 74.1665C40.9098 74.3485 40.601 74.952 40.7828 75.5146C45.7163 90.7784 61.1104 96.4096 65.7102 97.7716C66.1066 97.8894 66.514 97.9481 66.9213 97.9481C67.3282 97.9481 67.7353 97.8894 68.1305 97.7719C70.6471 97.0276 77.1418 94.7659 83.0865 89.853C90.7001 83.5607 94.5606 75.4099 94.5606 65.6272V38.1337C94.5608 37.2799 94.1781 36.4857 93.5106 35.955ZM16.8541 73.4315C13.1139 73.4315 10.0713 70.3887 10.0713 66.6485C10.0713 62.9084 13.1139 59.8658 16.8541 59.8658C20.5942 59.8658 23.637 62.9086 23.637 66.6485C23.637 70.3885 20.594 73.4315 16.8541 73.4315ZM77.0955 43.6167C73.3554 43.6167 70.3126 40.5739 70.3126 36.8338C70.3126 33.0936 73.3554 30.051 77.0955 30.051C80.8356 30.051 83.8784 33.0938 83.8784 36.8338C83.8784 40.5737 80.8354 43.6167 77.0955 43.6167Z" fill="#2626BC"/>
<path d="M38.8209 78.7764H37.979C37.3875 78.7764 36.9082 79.2559 36.9082 79.8472C36.9082 80.4385 37.3875 80.918 37.979 80.918H38.8209C39.4124 80.918 39.8917 80.4385 39.8917 79.8472C39.8917 79.2559 39.4124 78.7764 38.8209 78.7764Z" fill="#2626BC"/>
<path d="M34.5367 80.918C35.1282 80.918 35.6075 80.4385 35.6075 79.8472C35.6075 79.2559 35.1282 78.7764 34.5367 78.7764H33.6948C33.1033 78.7764 32.624 79.2559 32.624 79.8472C32.624 80.4385 33.1033 80.918 33.6948 80.918H34.5367Z" fill="#2626BC"/>
<path d="M30.2545 80.918C30.846 80.918 31.3253 80.4385 31.3253 79.8472C31.3253 79.2559 30.846 78.7764 30.2545 78.7764H29.4126C28.8211 78.7764 28.3418 79.2559 28.3418 79.8472C28.3418 80.4385 28.8211 80.918 29.4126 80.918H30.2545Z" fill="#2626BC"/>
<path d="M38.8212 83.1411H26.2749C25.6834 83.1411 25.2041 83.6206 25.2041 84.2119C25.2041 84.8032 25.6834 85.2827 26.2749 85.2827H38.8212C39.4127 85.2827 39.892 84.8032 39.892 84.2119C39.892 83.6206 39.4127 83.1411 38.8212 83.1411Z" fill="#2626BC"/>
<path d="M38.8212 87.5063H26.2749C25.6834 87.5063 25.2041 87.9859 25.2041 88.5772C25.2041 89.1685 25.6834 89.648 26.2749 89.648H38.8212C39.4127 89.648 39.892 89.1685 39.892 88.5772C39.892 87.9859 39.4127 87.5063 38.8212 87.5063Z" fill="#2626BC"/>
<path d="M15.6092 91.2219C15.0177 91.2219 14.5384 90.7424 14.5384 90.1511C14.5384 89.4032 13.93 88.7948 13.1821 88.7948C12.5906 88.7948 12.1113 88.3153 12.1113 87.724C12.1113 87.1327 12.5906 86.6532 13.1821 86.6532C13.93 86.6532 14.5384 86.0447 14.5384 85.2969C14.5384 84.7056 15.0177 84.2261 15.6092 84.2261C16.2008 84.2261 16.68 84.7056 16.68 85.2969C16.68 86.0447 17.2885 86.6532 18.0363 86.6532C18.6279 86.6532 19.1071 87.1327 19.1071 87.724C19.1071 88.3153 18.6279 88.7948 18.0363 88.7948C17.2885 88.7948 16.68 89.4032 16.68 90.1511C16.68 90.7424 16.2008 91.2219 15.6092 91.2219Z" fill="#6582FD"/>
<path d="M93.9237 93.614C93.3322 93.614 92.8529 93.1345 92.8529 92.5432C92.8529 91.7953 92.2444 91.1869 91.4966 91.1869C90.9051 91.1869 90.4258 90.7074 90.4258 90.1161C90.4258 89.5248 90.9051 89.0453 91.4966 89.0453C92.2444 89.0453 92.8529 88.4368 92.8529 87.689C92.8529 87.0977 93.3322 86.6182 93.9237 86.6182C94.5152 86.6182 94.9945 87.0977 94.9945 87.689C94.9945 88.4368 95.6029 89.0453 96.3508 89.0453C96.9423 89.0453 97.4216 89.5248 97.4216 90.1161C97.4216 90.7074 96.9423 91.1869 96.3508 91.1869C95.6029 91.1869 94.9945 91.7953 94.9945 92.5432C94.9945 93.1345 94.515 93.614 93.9237 93.614Z" fill="#6582FD"/>
<path d="M67.9364 26.4509C67.3449 26.4509 66.8656 25.9714 66.8656 25.3801C66.8656 24.6322 66.2571 24.0238 65.5093 24.0238C64.9178 24.0238 64.4385 23.5443 64.4385 22.953C64.4385 22.3617 64.9178 21.8822 65.5093 21.8822C66.2571 21.8822 66.8656 21.2737 66.8656 20.5259C66.8656 19.9346 67.3449 19.4551 67.9364 19.4551C68.5279 19.4551 69.0072 19.9346 69.0072 20.5259C69.0072 21.2737 69.6156 21.8822 70.3635 21.8822C70.955 21.8822 71.4343 22.3617 71.4343 22.953C71.4343 23.5443 70.955 24.0238 70.3635 24.0238C69.6156 24.0238 69.0072 24.6322 69.0072 25.3801C69.0072 25.9716 68.5279 26.4509 67.9364 26.4509Z" fill="#6582FD"/>
<path d="M79.5551 21.4378C79.2812 21.4378 79.0069 21.3333 78.7981 21.1243C78.3798 20.706 78.3798 20.028 78.7981 19.6099L80.9397 17.4683C81.3575 17.0503 82.036 17.0503 82.4538 17.4683C82.8721 17.8866 82.8721 18.5646 82.4538 18.9827L80.3122 21.1243C80.1032 21.3331 79.829 21.4378 79.5551 21.4378Z" fill="#6582FD"/>
<path d="M43.0327 100.539C42.7588 100.539 42.4844 100.434 42.2756 100.225C41.8573 99.8071 41.8573 99.1291 42.2756 98.711L44.4172 96.5694C44.8351 96.1513 45.5135 96.1513 45.9314 96.5694C46.3496 96.9877 46.3496 97.6657 45.9314 98.0837L43.7897 100.225C43.5807 100.434 43.3066 100.539 43.0327 100.539Z" fill="#6582FD"/>
<defs>
<linearGradient id="paint0_linear_359_5087" x1="15.4503" y1="94.4279" x2="90.4741" y2="17.5453" gradientUnits="userSpaceOnUse">
<stop stop-color="#D1DDFF" stop-opacity="0"/>
<stop offset="1" stop-color="#B6C4FF"/>
</linearGradient>
</defs>
</svg>
