<svg width="24" height="24" viewBox="0 0 24 24" fill="none" xmlns="http://www.w3.org/2000/svg">
<path d="M12 11.025C14.7167 11.025 16.9167 10.6 18.6 9.75C20.2833 8.9 21.125 7.95833 21.125 6.925C21.125 5.85833 20.2833 4.91667 18.6 4.1C16.9167 3.28333 14.7167 2.875 12 2.875C9.28333 2.875 7.0875 3.28333 5.4125 4.1C3.7375 4.91667 2.9 5.85833 2.9 6.925C2.9 7.95833 3.7375 8.9 5.4125 9.75C7.0875 10.6 9.28333 11.025 12 11.025ZM12 13.45C12.9333 13.45 13.9292 13.375 14.9875 13.225C16.0458 13.075 17.0292 12.8417 17.9375 12.525C18.8458 12.2083 19.6042 11.8042 20.2125 11.3125C20.8208 10.8208 21.125 10.25 21.125 9.6V12.2C21.125 12.8667 20.8208 13.4417 20.2125 13.925C19.6042 14.4083 18.8458 14.8083 17.9375 15.125C17.0292 15.4417 16.0458 15.6792 14.9875 15.8375C13.9292 15.9958 12.9333 16.075 12 16.075C11.0833 16.075 10.0917 15.9958 9.025 15.8375C7.95833 15.6792 6.96667 15.4375 6.05 15.1125C5.13333 14.7875 4.375 14.3833 3.775 13.9C3.175 13.4167 2.875 12.85 2.875 12.2V9.6C2.875 10.25 3.17917 10.8167 3.7875 11.3C4.39583 11.7833 5.15417 12.1875 6.0625 12.5125C6.97083 12.8375 7.95833 13.075 9.025 13.225C10.0917 13.375 11.0833 13.45 12 13.45ZM12 18.5C12.9333 18.5 13.9292 18.425 14.9875 18.275C16.0458 18.125 17.0292 17.8917 17.9375 17.575C18.8458 17.2583 19.6042 16.8583 20.2125 16.375C20.8208 15.8917 21.125 15.3167 21.125 14.65V17.275C21.125 17.9083 20.8208 18.4708 20.2125 18.9625C19.6042 19.4542 18.8458 19.8583 17.9375 20.175C17.0292 20.4917 16.0458 20.725 14.9875 20.875C13.9292 21.025 12.9333 21.1 12 21.1C11.0833 21.1 10.0917 21.025 9.025 20.875C7.95833 20.725 6.97083 20.4875 6.0625 20.1625C5.15417 19.8375 4.39583 19.4333 3.7875 18.95C3.17917 18.4667 2.875 17.9083 2.875 17.275V14.65C2.875 15.3 3.17917 15.8667 3.7875 16.35C4.39583 16.8333 5.15417 17.2333 6.0625 17.55C6.97083 17.8667 7.95833 18.1042 9.025 18.2625C10.0917 18.4208 11.0833 18.5 12 18.5Z" fill="white"/>
</svg>
