<svg width="24" height="24" viewBox="0 0 24 24" fill="none" xmlns="http://www.w3.org/2000/svg">
<path d="M10.9996 11.5C9.94961 11.5 9.04961 11.125 8.29961 10.375C7.54961 9.62495 7.17461 8.71662 7.17461 7.64995C7.17461 6.58328 7.54961 5.67912 8.29961 4.93745C9.04961 4.19578 9.94961 3.82495 10.9996 3.82495C12.0663 3.82495 12.9746 4.19578 13.7246 4.93745C14.4746 5.67912 14.8496 6.58328 14.8496 7.64995C14.8496 8.71662 14.4746 9.62495 13.7246 10.375C12.9746 11.125 12.0663 11.5 10.9996 11.5ZM22.5246 23.6749L19.0746 20.225C18.6913 20.5083 18.2954 20.6999 17.8871 20.7999C17.4788 20.8999 17.0579 20.95 16.6246 20.95C15.4246 20.95 14.4079 20.5333 13.5746 19.7C12.7413 18.8666 12.3246 17.85 12.3246 16.65C12.3246 15.4333 12.7413 14.4041 13.5746 13.5625C14.4079 12.7208 15.4329 12.3 16.6496 12.3C17.8496 12.3 18.8704 12.7208 19.7121 13.5625C20.5538 14.4041 20.9746 15.425 20.9746 16.625C20.9746 17.0583 20.9204 17.4791 20.8121 17.8875C20.7038 18.2958 20.5079 18.6916 20.2246 19.075L23.6746 22.525L22.5246 23.6749ZM16.6246 19.3C17.3913 19.3 18.0329 19.0458 18.5496 18.5375C19.0663 18.0291 19.3246 17.4 19.3246 16.65C19.3246 15.8833 19.0663 15.2416 18.5496 14.725C18.0329 14.2083 17.3996 13.95 16.6496 13.95C15.8829 13.95 15.2454 14.2083 14.7371 14.725C14.2288 15.2416 13.9746 15.8833 13.9746 16.65C13.9746 17.4 14.2288 18.0291 14.7371 18.5375C15.2454 19.0458 15.8746 19.3 16.6246 19.3ZM11.8496 13.5C11.1663 14.5166 10.8496 15.6375 10.8996 16.8625C10.9496 18.0875 11.3413 19.175 12.0746 20.125H2.97461V17.675C2.97461 17.0416 3.12461 16.5041 3.42461 16.0625C3.72461 15.6208 4.15794 15.25 4.72461 14.95C5.50794 14.5666 6.54961 14.2041 7.84961 13.8625C9.14961 13.5208 10.4829 13.4 11.8496 13.5Z" fill="white"/>
</svg>
