<svg width="20" height="20" viewBox="0 0 20 20" fill="none" xmlns="http://www.w3.org/2000/svg">
<path d="M5.85417 15.0416C4.46528 15.0416 3.27778 14.552 2.29167 13.5728C1.30556 12.5937 0.8125 11.4027 0.8125 9.99992C0.8125 8.59714 1.30556 7.40617 2.29167 6.427C3.27778 5.44784 4.46528 4.95825 5.85417 4.95825C7.07639 4.95825 8.10764 5.29853 8.94792 5.97909C9.78819 6.65964 10.3681 7.4652 10.6875 8.39575H19.1875V11.6041H16.9792V14.9791H14.25V11.6041H10.6875C10.3681 12.5346 9.79167 13.3402 8.95833 14.0208C8.125 14.7013 7.09028 15.0416 5.85417 15.0416ZM5.875 11.4374C6.27778 11.4374 6.61458 11.2985 6.88542 11.0208C7.15625 10.743 7.29167 10.4027 7.29167 9.99992C7.29167 9.59714 7.15625 9.25686 6.88542 8.97909C6.61458 8.70131 6.27083 8.56242 5.85417 8.56242C5.46528 8.56242 5.13194 8.70131 4.85417 8.97909C4.57639 9.25686 4.4375 9.59714 4.4375 9.99992C4.4375 10.4027 4.57639 10.743 4.85417 11.0208C5.13194 11.2985 5.47222 11.4374 5.875 11.4374Z" fill="white"/>
</svg>
