<svg width="30" height="30" viewBox="0 0 30 30" fill="none" xmlns="http://www.w3.org/2000/svg">
<g clip-path="url(#clip0_1346_7989)">
<path d="M0.735352 3.96244V25.9176C0.735352 28.0262 2.47192 29.7628 4.5806 29.7628H21.078C23.1866 29.7628 24.9232 28.0262 24.9232 25.9176V20.5838L24.0549 21.4521C23.1866 22.3204 21.9462 22.9406 20.7058 23.3127L18.101 23.8089C16.9846 24.057 15.7442 23.6848 15.124 22.8166C14.5038 22.0723 14.2557 21.204 14.5038 20.2117L15.124 17.4828C15.3721 16.2424 15.9923 15.1261 16.9846 14.1337L23.1866 7.93172C23.6828 7.43556 24.427 6.9394 25.0472 6.69132V3.96244C25.0472 1.85375 23.3107 0.117188 21.202 0.117188H4.5806C2.47192 0.117188 0.735352 1.85375 0.735352 3.96244ZM6.81332 4.4586H18.7212C19.4654 4.4586 19.9616 4.95476 19.9616 5.699C19.9616 6.44324 19.4654 6.9394 18.7212 6.9394H6.81332C6.06908 6.9394 5.57292 6.44324 5.57292 5.699C5.57292 5.0788 6.19312 4.4586 6.81332 4.4586ZM6.81332 9.54425H13.7596C14.5038 9.54425 15 10.0404 15 10.7846C15 11.5289 14.5038 12.0251 13.7596 12.0251H6.81332C6.06908 12.0251 5.57292 11.5289 5.57292 10.7846C5.57292 10.0404 6.19312 9.54425 6.81332 9.54425Z" fill="#4E43DF"/>
<path d="M28.5201 9.79234C27.5277 8.80002 25.7912 8.80002 24.7988 9.79234L18.5968 15.9944C17.9766 16.6146 17.6045 17.2348 17.4805 18.103L16.8603 20.7079C16.7362 21.08 17.1083 21.4521 17.4805 21.3281L20.2094 20.7079C20.9536 20.5838 21.6978 20.0877 22.318 19.5915L28.5201 13.3895C29.5124 12.3972 29.5124 10.7847 28.5201 9.79234Z" fill="#4E43DF"/>
</g>
<defs>
<clipPath id="clip0_1346_7989">
<rect width="30" height="30" fill="white"/>
</clipPath>
</defs>
</svg>
