<svg width="121" height="28" viewBox="0 0 121 28" fill="none" xmlns="http://www.w3.org/2000/svg">
<g clip-path="url(#clip0_1686_5696)">
<path fill-rule="evenodd" clip-rule="evenodd" d="M37.7856 4.64081C37.3436 2.98957 36.036 1.68709 34.3724 1.24066C31.3643 0.439453 19.295 0.439453 19.295 0.439453C19.295 0.439453 7.23182 0.439453 4.21754 1.24066C2.5601 1.68093 1.25245 2.98356 0.804293 4.64081C-7.56444e-08 7.63736 0 13.8934 0 13.8934C0 13.8934 -7.56444e-08 20.1496 0.804293 23.1462C1.24626 24.7974 2.55391 26.0999 4.21754 26.5463C7.23182 27.3475 19.295 27.3475 19.295 27.3475C19.295 27.3475 31.3643 27.3475 34.3724 26.5463C36.03 26.1061 37.3375 24.8034 37.7856 23.1462C38.5899 20.1496 38.5899 13.8936 38.5899 13.8936C38.5899 13.8936 38.5899 7.63736 37.7856 4.64081Z" fill="#FF0000"/>
<path fill-rule="evenodd" clip-rule="evenodd" d="M15.4397 19.6605L25.4647 13.8935L15.4397 8.12671V19.6605Z" fill="white"/>
<path fill-rule="evenodd" clip-rule="evenodd" d="M56.0124 24.9198C55.2511 24.4062 54.7048 23.6112 54.3856 22.5288C54.0663 21.4463 53.9005 20.0092 53.9005 18.2111V15.765C53.9005 13.9488 54.0847 12.4933 54.453 11.3924C54.8214 10.2917 55.3985 9.49063 56.178 8.98904C56.9578 8.48762 57.983 8.23082 59.2537 8.23082C60.5062 8.23082 61.5068 8.48762 62.2618 9.00137C63.0169 9.51497 63.5695 10.3162 63.9194 11.4047C64.2694 12.4933 64.4413 13.9488 64.4413 15.7589V18.2051C64.4413 20.003 64.2694 21.4463 63.9316 22.5348C63.594 23.6233 63.0417 24.4245 62.2742 24.926C61.5129 25.4274 60.4754 25.6845 59.1677 25.6845C57.8295 25.6903 56.7736 25.4335 56.0124 24.9198ZM60.2912 22.278C60.5 21.7276 60.6105 20.8286 60.6105 19.5873V14.3341C60.6105 13.1231 60.5062 12.2425 60.2912 11.68C60.0826 11.1234 59.7081 10.8421 59.1739 10.8421C58.6583 10.8421 58.296 11.1234 58.0812 11.68C57.8725 12.2364 57.762 13.1231 57.762 14.3341V19.5873C57.762 20.8347 57.8602 21.7338 58.0628 22.278C58.2654 22.8284 58.6338 23.1036 59.1679 23.1036C59.7081 23.1036 60.0764 22.8284 60.2912 22.278ZM114.621 18.254V19.1042C114.621 20.1865 114.652 20.9937 114.72 21.538C114.781 22.0762 114.916 22.4737 115.119 22.7185C115.321 22.9629 115.634 23.0914 116.058 23.0914C116.629 23.0914 117.022 22.8713 117.231 22.4308C117.439 21.9906 117.556 21.2567 117.574 20.2293L120.859 20.419C120.877 20.5656 120.883 20.7674 120.883 21.0242C120.883 22.5838 120.453 23.7456 119.6 24.5162C118.747 25.2867 117.538 25.672 115.972 25.672C114.094 25.672 112.78 25.0849 112.025 23.9108C111.27 22.7366 110.895 20.9264 110.895 18.4681V15.5265C110.895 12.9948 111.288 11.1539 112.068 9.98605C112.847 8.82406 114.186 8.24299 116.083 8.24299C117.39 8.24299 118.391 8.48161 119.091 8.95855C119.791 9.43548 120.282 10.1754 120.57 11.1845C120.853 12.1936 121 13.588 121 15.3614V18.248H114.621V18.254ZM115.106 11.16C114.916 11.3987 114.787 11.79 114.72 12.3282C114.652 12.8663 114.621 13.692 114.621 14.7865V15.9975H117.409V14.7865C117.409 13.704 117.372 12.8846 117.298 12.3282C117.224 11.7716 117.089 11.3742 116.899 11.1479C116.709 10.9216 116.408 10.8054 116.003 10.8054C115.598 10.7993 115.297 10.9216 115.106 11.16ZM46.7424 17.936L42.4084 2.34772H46.1899L47.7063 9.41114C48.0931 11.154 48.3754 12.634 48.5596 13.8631H48.67C48.799 12.9824 49.0814 11.5087 49.5235 9.43548L51.095 2.34155H54.8766L50.4934 17.936V25.4152H46.7424V17.936ZM76.7377 8.5611V25.4091H73.7602L73.4286 23.3482H73.3488C72.5385 24.9076 71.323 25.6843 69.7084 25.6843C68.5851 25.6843 67.7562 25.3174 67.2222 24.5835C66.6881 23.8496 66.4241 22.7061 66.4241 21.1467V8.5611H70.2303V20.9326C70.2303 21.6848 70.3101 22.223 70.4759 22.541C70.6417 22.8589 70.9179 23.0241 71.3046 23.0241C71.6362 23.0241 71.9554 22.9261 72.2561 22.7245C72.5569 22.5227 72.7841 22.2657 72.9315 21.9539V8.56094L76.7377 8.5611ZM96.272 8.5611V25.4091H93.2945L92.963 23.3482H92.8832C92.0728 24.9076 90.8574 25.6843 89.2428 25.6843C88.1194 25.6843 87.2906 25.3174 86.7566 24.5835C86.2224 23.8496 85.9585 22.7061 85.9585 21.1467V8.5611H89.7647V20.9326C89.7647 21.6848 89.8445 22.223 90.0102 22.541C90.1759 22.8589 90.4522 23.0241 90.839 23.0241C91.1705 23.0241 91.4897 22.9261 91.7905 22.7245C92.0913 22.5227 92.3184 22.2657 92.4658 21.9539V8.56094L96.272 8.5611Z" fill="white"/>
<path fill-rule="evenodd" clip-rule="evenodd" d="M87.088 5.3993H83.3063V25.4089H79.5799V5.3993H75.7983V2.34775H87.0818V5.3993H87.088ZM108.875 11.2577C108.642 10.1937 108.274 9.42319 107.758 8.94626C107.242 8.46917 106.536 8.2307 105.634 8.2307C104.934 8.2307 104.283 8.42634 103.676 8.82394C103.068 9.21522 102.601 9.73514 102.27 10.3772H102.239V1.49756H98.5679V25.4151H101.711L102.098 23.819H102.178C102.472 24.3877 102.914 24.8342 103.504 25.1643C104.093 25.4946 104.744 25.6597 105.462 25.6597C106.751 25.6597 107.697 25.0665 108.304 23.8862C108.912 22.706 109.213 20.8591 109.213 18.3457V15.6792C109.219 13.7957 109.102 12.3218 108.875 11.2577ZM105.382 18.1315C105.382 19.3608 105.333 20.3209 105.229 21.0181C105.13 21.7153 104.959 22.2106 104.719 22.5042C104.48 22.7977 104.161 22.9445 103.755 22.9445C103.442 22.9445 103.154 22.8711 102.884 22.7243C102.62 22.5775 102.399 22.3574 102.233 22.0638V12.4932C102.362 12.0345 102.583 11.6615 102.896 11.3681C103.209 11.0744 103.547 10.9276 103.915 10.9276C104.302 10.9276 104.603 11.0804 104.811 11.3801C105.02 11.6798 105.167 12.1934 105.253 12.9028C105.333 13.6184 105.376 14.6336 105.376 15.9544V18.1315H105.382Z" fill="white"/>
</g>
<defs>
<clipPath id="clip0_1686_5696">
<rect width="121" height="27" fill="white" transform="translate(0 0.393555)"/>
</clipPath>
</defs>
</svg>
